<svg version="1.1" viewBox="0.0 0.0 751.8766404199475 436.3963254593176" fill="none" stroke="none" stroke-linecap="square" stroke-miterlimit="10" xmlns:xlink="http://www.w3.org/1999/xlink" xmlns="http://www.w3.org/2000/svg"><clipPath id="p.0"><path d="m0 0l751.87665 0l0 436.39633l-751.87665 0l0 -436.39633z" clip-rule="nonzero"/></clipPath><g clip-path="url(#p.0)"><path fill="#000000" fill-opacity="0.0" d="m0 0l751.87665 0l0 436.39633l-751.87665 0z" fill-rule="evenodd"/><path fill="#cfe2f3" d="m318.59842 44.21274l0 0c0 -3.945797 3.1987 -7.1445007 7.1445007 -7.1445007l84.64014 0c1.8948364 0 3.7120667 0.7527237 5.051941 2.092575c1.3398438 1.3398552 2.0925598 3.1570854 2.0925598 5.0519257l0 28.577145c0 3.9457932 -3.1987 7.144493 -7.1445007 7.144493l-84.64014 0c-3.9458008 0 -7.1445007 -3.1987 -7.1445007 -7.144493z" fill-rule="evenodd"/><path fill="#000000" d="m337.10028 66.15319q-1.453125 0 -2.609375 -0.71875q-1.15625 -0.71875 -1.84375 -1.9375038q-0.6875 -1.234375 -0.6875 -2.71875q0 -1.515625 0.6875 -2.734375q0.6875 -1.21875 1.84375 -1.921875q1.15625 -0.71875 2.609375 -0.71875q1.15625 0 2.203125 0.4375q1.046875 0.421875 1.8125 1.1875l-1.0 1.078125q-0.5625 -0.609375 -1.359375 -0.953125q-0.78125 -0.34375 -1.59375 -0.34375q-1.015625 0 -1.84375 0.53125q-0.8125 0.53125 -1.3125 1.4375q-0.484375 0.890625 -0.484375 2.0q0 1.109375 0.484375 2.015625q0.5 0.890625 1.3125 1.4218788q0.828125 0.53125 1.84375 0.53125q0.8125 0 1.59375 -0.34375q0.796875 -0.359375 1.359375 -0.9531288l1.0 1.0781288q-0.765625 0.765625 -1.8125 1.203125q-1.046875 0.421875 -2.203125 0.421875zm6.1841736 4.28125l0 -14.859379l1.546875 0l0 1.484375q0.59375 -0.78125 1.453125 -1.1875q0.859375 -0.421875 1.90625 -0.421875q1.375 0 2.453125 0.71875q1.078125 0.703125 1.703125 1.90625q0.640625 1.203125 0.640625 2.703125q0 1.484375 -0.65625 2.703125q-0.640625 1.2187538 -1.734375 1.9375038q-1.09375 0.71875 -2.484375 0.71875q-0.984375 0 -1.8125 -0.375q-0.828125 -0.375 -1.453125 -1.078125l0 5.75l-1.5625 0zm4.53125 -5.640625q1.046875 0 1.859375 -0.515625q0.828125 -0.5312538 1.296875 -1.4375038q0.484375 -0.90625 0.484375 -2.046875q0 -1.140625 -0.484375 -2.03125q-0.46875 -0.90625 -1.296875 -1.421875q-0.8125 -0.53125 -1.859375 -0.53125q-0.921875 0 -1.703125 0.375q-0.78125 0.375 -1.265625 1.0625l0 5.09375q0.515625 0.6718788 1.28125 1.0625038q0.78125 0.390625 1.6875 0.390625zm12.965607 5.859375q-1.625 -1.03125 -2.765625 -2.515625q-1.125 -1.46875 -1.71875 -3.34375q-0.578125 -1.8906288 -0.578125 -4.062504q0 -2.1875 0.578125 -4.0625q0.59375 -1.890625 1.71875 -3.359375q1.140625 -1.484375 2.765625 -2.515625l0.8125 1.09375q-2.09375 1.296875 -3.234375 3.609375q-1.140625 2.296875 -1.140625 5.234375q0 2.953125 1.140625 5.250004q1.140625 2.296875 3.234375 3.609375l-0.8125 1.0625zm7.9119873 -4.4375q-1.53125 0 -2.875 -0.53125q-1.328125 -0.53125 -2.34375 -1.578125l1.015625 -1.0000038q0.953125 0.9375038 1.9375 1.3593788q0.984375 0.40625 2.25 0.40625q1.09375 0 1.921875 -0.375q0.84375 -0.390625 1.3125 -1.0625038q0.484375 -0.6875 0.484375 -1.5625q0 -0.84375 -0.421875 -1.484375q-0.421875 -0.65625 -1.15625 -1.015625q-0.71875 -0.359375 -1.65625 -0.359375l-1.765625 0l0 -1.328125l1.703125 0q1.21875 0 1.96875 -0.75q0.765625 -0.75 0.765625 -1.9375q0 -0.78125 -0.4375 -1.421875q-0.421875 -0.640625 -1.15625 -1.015625q-0.734375 -0.375 -1.640625 -0.375q-1.15625 0 -2.0625 0.421875q-0.90625 0.40625 -1.84375 1.390625l-1.03125 -1.03125q1.0 -1.0625 2.25 -1.609375q1.265625 -0.546875 2.703125 -0.546875q1.359375 0 2.4375 0.546875q1.078125 0.53125 1.6875 1.453125q0.625 0.921875 0.625 2.109375q0 1.171875 -0.765625 2.09375q-0.765625 0.921875 -2.015625 1.296875q1.5 0.328125 2.421875 1.3125q0.921875 0.984375 0.921875 2.28125q0 1.234375 -0.671875 2.2187538q-0.671875 0.984375 -1.859375 1.546875q-1.1875 0.546875 -2.703125 0.546875zm7.1185303 3.109375l1.28125 -4.921875l1.671875 0l-1.734375 4.921875l-1.21875 0zm10.332764 -3.34375l0 -1.125l5.96875 -6.531254q0.703125 -0.765625 1.09375 -1.34375q0.40625 -0.59375 0.5625 -1.109375q0.15625 -0.515625 0.15625 -1.09375q0 -1.125 -0.890625 -1.859375q-0.875 -0.734375 -2.234375 -0.734375q-1.046875 0 -1.953125 0.40625q-0.890625 0.40625 -2.0 1.40625l-0.890625 -1.0625q1.171875 -1.078125 2.359375 -1.59375q1.203125 -0.53125 2.5 -0.53125q1.34375 0 2.390625 0.515625q1.046875 0.5 1.640625 1.375q0.59375 0.875 0.59375 2.0q0 0.75 -0.1875 1.375q-0.1875 0.625 -0.6875 1.34375q-0.484375 0.71875 -1.40625 1.71875l-5.09375 5.515629l7.703125 -0.015625l0 1.34375l-9.625 0zm12.484741 -15.171879q1.625 1.03125 2.75 2.515625q1.140625 1.46875 1.71875 3.359375q0.59375 1.875 0.59375 4.046875q0 2.1875 -0.59375 4.078129q-0.578125 1.875 -1.71875 3.34375q-1.125 1.484375 -2.75 2.515625l-0.8125 -1.09375q2.09375 -1.296875 3.234375 -3.59375q1.140625 -2.3125038 1.140625 -5.250004q0 -2.953125 -1.140625 -5.25q-1.140625 -2.296875 -3.234375 -3.609375l0.8125 -1.0625z" fill-rule="nonzero"/><path fill="#cfe2f3" d="m194.75066 118.47521l0 0c0 -3.9458008 3.1987 -7.1445007 7.1445007 -7.1445007l84.64012 0c1.8948364 0 3.7120972 0.75271606 5.051941 2.092575c1.3398438 1.3398514 2.0925598 3.1570816 2.0925598 5.0519257l0 28.57714c0 3.9458008 -3.1987 7.1445007 -7.1445007 7.1445007l-84.64012 0c-3.9458008 0 -7.1445007 -3.1987 -7.1445007 -7.1445007z" fill-rule="evenodd"/><path fill="#000000" d="m216.01447 140.41565q-1.453125 0 -2.609375 -0.71875q-1.15625 -0.71875 -1.84375 -1.9375q-0.6875 -1.234375 -0.6875 -2.71875q0 -1.515625 0.6875 -2.734375q0.6875 -1.21875 1.84375 -1.921875q1.15625 -0.71875 2.609375 -0.71875q1.15625 0 2.203125 0.4375q1.046875 0.421875 1.8125 1.1875l-1.0 1.078125q-0.5625 -0.609375 -1.359375 -0.953125q-0.78125 -0.34375 -1.59375 -0.34375q-1.015625 0 -1.84375 0.53125q-0.8125 0.53125 -1.3125 1.4375q-0.484375 0.890625 -0.484375 2.0q0 1.109375 0.484375 2.015625q0.5 0.890625 1.3125 1.421875q0.828125 0.53125 1.84375 0.53125q0.8125 0 1.59375 -0.34375q0.796875 -0.359375 1.359375 -0.953125l1.0 1.078125q-0.765625 0.765625 -1.8125 1.203125q-1.046875 0.421875 -2.203125 0.421875zm6.184189 4.28125l0 -14.859375l1.546875 0l0 1.484375q0.59375 -0.78125 1.453125 -1.1875q0.859375 -0.421875 1.90625 -0.421875q1.375 0 2.453125 0.71875q1.078125 0.703125 1.703125 1.90625q0.640625 1.203125 0.640625 2.703125q0 1.484375 -0.65625 2.703125q-0.640625 1.21875 -1.734375 1.9375q-1.09375 0.71875 -2.484375 0.71875q-0.984375 0 -1.8125 -0.375q-0.828125 -0.375 -1.453125 -1.078125l0 5.75l-1.5625 0zm4.53125 -5.640625q1.046875 0 1.859375 -0.515625q0.828125 -0.53125 1.296875 -1.4375q0.484375 -0.90625 0.484375 -2.046875q0 -1.140625 -0.484375 -2.03125q-0.46875 -0.90625 -1.296875 -1.421875q-0.8125 -0.53125 -1.859375 -0.53125q-0.921875 0 -1.703125 0.375q-0.78125 0.375 -1.265625 1.0625l0 5.09375q0.515625 0.671875 1.28125 1.0625q0.78125 0.390625 1.6875 0.390625zm12.965591 5.859375q-1.625 -1.03125 -2.765625 -2.515625q-1.125 -1.46875 -1.71875 -3.34375q-0.578125 -1.890625 -0.578125 -4.0625q0 -2.1875 0.578125 -4.0625q0.59375 -1.890625 1.71875 -3.3593674q1.140625 -1.484375 2.765625 -2.515625l0.8125 1.09375q-2.09375 1.296875 -3.234375 3.6093674q-1.140625 2.296875 -1.140625 5.234375q0 2.953125 1.140625 5.25q1.140625 2.296875 3.234375 3.609375l-0.8125 1.0625zm5.1619873 -4.671875l0 -13.265617l-2.390625 1.0624924l0 -1.4062424l2.96875 -1.328125l0.953125 0l0 14.937492l-1.53125 0zm4.344635 3.34375l1.28125 -4.921875l1.671875 0l-1.734375 4.921875l-1.21875 0zm10.332764 -3.34375l0 -1.125l5.96875 -6.53125q0.703125 -0.765625 1.09375 -1.34375q0.40625 -0.59375 0.5625 -1.109375q0.15625 -0.515625 0.15625 -1.09375q0 -1.1249924 -0.890625 -1.8593674q-0.875 -0.734375 -2.234375 -0.734375q-1.046875 0 -1.953125 0.40625q-0.890625 0.40625 -2.0 1.4062424l-0.890625 -1.0624924q1.171875 -1.078125 2.359375 -1.59375q1.203125 -0.53125 2.5 -0.53125q1.34375 0 2.390625 0.515625q1.046875 0.5 1.640625 1.375q0.59375 0.875 0.59375 1.9999924q0 0.75 -0.1875 1.375q-0.1875 0.625 -0.6875 1.34375q-0.484375 0.71875 -1.40625 1.71875l-5.09375 5.515625l7.703125 -0.015625l0 1.34375l-9.625 0zm12.484741 -15.171867q1.625 1.03125 2.75 2.515625q1.140625 1.4687424 1.71875 3.3593674q0.59375 1.875 0.59375 4.046875q0 2.1875 -0.59375 4.078125q-0.578125 1.875 -1.71875 3.34375q-1.125 1.484375 -2.75 2.515625l-0.8125 -1.09375q2.09375 -1.296875 3.234375 -3.59375q1.140625 -2.3125 1.140625 -5.25q0 -2.953125 -1.140625 -5.25q-1.140625 -2.2968674 -3.234375 -3.6093674l0.8125 -1.0625z" fill-rule="nonzero"/><path fill="#cfe2f3" d="m44.76378 207.02113l0 0c0 -3.9457855 3.1987038 -7.1444855 7.1445007 -7.1444855l90.62439 0c1.8948364 0 3.7120667 0.75271606 5.0519257 2.092575c1.3398438 1.3398438 2.092575 3.157074 2.092575 5.0519104l0 28.577148c0 3.9458008 -3.1987 7.1445007 -7.1445007 7.1445007l-90.62439 0l0 0c-3.945797 0 -7.1445007 -3.1987 -7.1445007 -7.1445007z" fill-rule="evenodd"/><path fill="#000000" d="m64.43422 228.9616q-1.4531288 0 -2.6093788 -0.71875q-1.15625 -0.71875 -1.84375 -1.9375q-0.6875 -1.234375 -0.6875 -2.71875q0 -1.515625 0.6875 -2.734375q0.6875 -1.21875 1.84375 -1.921875q1.15625 -0.71875 2.6093788 -0.71875q1.15625 0 2.203125 0.4375q1.046875 0.421875 1.8125 1.1875l-1.0 1.078125q-0.5625 -0.609375 -1.359375 -0.953125q-0.78125 -0.34375 -1.59375 -0.34375q-1.0156288 0 -1.8437538 0.53125q-0.8125 0.53125 -1.3125 1.4375q-0.484375 0.890625 -0.484375 2.0q0 1.109375 0.484375 2.015625q0.5 0.890625 1.3125 1.421875q0.828125 0.53125 1.8437538 0.53125q0.8125 0 1.59375 -0.34375q0.796875 -0.359375 1.359375 -0.953125l1.0 1.078125q-0.765625 0.765625 -1.8125 1.203125q-1.046875 0.421875 -2.203125 0.421875zm6.184189 4.28125l0 -14.859375l1.546875 0l0 1.484375q0.59375 -0.78125 1.453125 -1.1875q0.859375 -0.421875 1.90625 -0.421875q1.375 0 2.453125 0.71875q1.078125 0.703125 1.703125 1.90625q0.640625 1.203125 0.640625 2.703125q0 1.484375 -0.65625 2.703125q-0.640625 1.21875 -1.734375 1.9375q-1.09375 0.71875 -2.484375 0.71875q-0.984375 0 -1.8125 -0.375q-0.828125 -0.375 -1.453125 -1.078125l0 5.75l-1.5625 0zm4.53125 -5.640625q1.046875 0 1.859375 -0.515625q0.828125 -0.53125 1.296875 -1.4375q0.484375 -0.90625 0.484375 -2.046875q0 -1.140625 -0.484375 -2.03125q-0.46875 -0.90625 -1.296875 -1.421875q-0.8125 -0.53125 -1.859375 -0.53125q-0.921875 0 -1.703125 0.375q-0.78125 0.375 -1.265625 1.0625l0 5.09375q0.515625 0.671875 1.28125 1.0625q0.78125 0.390625 1.6875 0.390625zm12.965591 5.859375q-1.625 -1.03125 -2.765625 -2.515625q-1.125 -1.46875 -1.71875 -3.34375q-0.578125 -1.890625 -0.578125 -4.0625q0 -2.1875 0.578125 -4.0625q0.59375 -1.890625 1.71875 -3.359375q1.140625 -1.484375 2.765625 -2.515625l0.8125 1.09375q-2.09375 1.296875 -3.234375 3.609375q-1.140625 2.296875 -1.140625 5.234375q0 2.953125 1.140625 5.25q1.140625 2.296875 3.234375 3.609375l-0.8125 1.0625zm3.1932373 -10.0l0 -1.34375l7.109375 0l0 1.34375l-7.109375 0zm11.13974 5.328125l0 -13.265625l-2.390625 1.0625l0 -1.40625l2.96875 -1.328125l0.953125 0l0 14.9375l-1.53125 0zm4.344635 3.34375l1.28125 -4.921875l1.671875 0l-1.734375 4.921875l-1.21875 0zm10.332756 -3.34375l0 -1.125l5.96875 -6.53125q0.703125 -0.765625 1.09375 -1.34375q0.40625 -0.59375 0.5625 -1.109375q0.15625 -0.515625 0.15625 -1.09375q0 -1.125 -0.890625 -1.859375q-0.875 -0.734375 -2.234375 -0.734375q-1.046875 0 -1.953125 0.40625q-0.890625 0.40625 -2.0 1.40625l-0.890625 -1.0625q1.171875 -1.078125 2.359375 -1.59375q1.203125 -0.53125 2.5 -0.53125q1.34375 0 2.390625 0.515625q1.046875 0.5 1.640625 1.375q0.59375 0.875 0.59375 2.0q0 0.75 -0.1875 1.375q-0.1875 0.625 -0.6875 1.34375q-0.484375 0.71875 -1.40625 1.71875l-5.09375 5.515625l7.703125 -0.015625l0 1.34375l-9.625 0zm12.484749 -15.171875q1.625 1.03125 2.75 2.515625q1.140625 1.46875 1.71875 3.359375q0.59375 1.875 0.59375 4.046875q0 2.1875 -0.59375 4.078125q-0.578125 1.875 -1.71875 3.34375q-1.125 1.484375 -2.75 2.515625l-0.8125 -1.09375q2.09375 -1.296875 3.234375 -3.59375q1.140625 -2.3125 1.140625 -5.25q0 -2.953125 -1.140625 -5.25q-1.140625 -2.296875 -3.234375 -3.609375l0.8125 -1.0625z" fill-rule="nonzero"/><path fill="#cfe2f3" d="m212.39764 207.02113l0 0c0 -3.9457855 3.1987 -7.1444855 7.1445007 -7.1444855l84.64014 0c1.8948364 0 3.7120667 0.75271606 5.0519104 2.092575c1.3398438 1.3398438 2.0925903 3.157074 2.0925903 5.0519104l0 28.577148c0 3.9458008 -3.1987 7.1445007 -7.1445007 7.1445007l-84.64014 0c-3.9458008 0 -7.1445007 -3.1987 -7.1445007 -7.1445007z" fill-rule="evenodd"/><path fill="#000000" d="m236.23149 228.9616q-1.453125 0 -2.609375 -0.71875q-1.15625 -0.71875 -1.84375 -1.9375q-0.6875 -1.234375 -0.6875 -2.71875q0 -1.515625 0.6875 -2.734375q0.6875 -1.21875 1.84375 -1.921875q1.15625 -0.71875 2.609375 -0.71875q1.15625 0 2.203125 0.4375q1.046875 0.421875 1.8125 1.1875l-1.0 1.078125q-0.5625 -0.609375 -1.359375 -0.953125q-0.78125 -0.34375 -1.59375 -0.34375q-1.015625 0 -1.84375 0.53125q-0.8125 0.53125 -1.3125 1.4375q-0.484375 0.890625 -0.484375 2.0q0 1.109375 0.484375 2.015625q0.5 0.890625 1.3125 1.421875q0.828125 0.53125 1.84375 0.53125q0.8125 0 1.59375 -0.34375q0.796875 -0.359375 1.359375 -0.953125l1.0 1.078125q-0.765625 0.765625 -1.8125 1.203125q-1.046875 0.421875 -2.203125 0.421875zm6.184189 4.28125l0 -14.859375l1.546875 0l0 1.484375q0.59375 -0.78125 1.453125 -1.1875q0.859375 -0.421875 1.90625 -0.421875q1.375 0 2.453125 0.71875q1.078125 0.703125 1.703125 1.90625q0.640625 1.203125 0.640625 2.703125q0 1.484375 -0.65625 2.703125q-0.640625 1.21875 -1.734375 1.9375q-1.09375 0.71875 -2.484375 0.71875q-0.984375 0 -1.8125 -0.375q-0.828125 -0.375 -1.453125 -1.078125l0 5.75l-1.5625 0zm4.53125 -5.640625q1.046875 0 1.859375 -0.515625q0.828125 -0.53125 1.296875 -1.4375q0.484375 -0.90625 0.484375 -2.046875q0 -1.140625 -0.484375 -2.03125q-0.46875 -0.90625 -1.296875 -1.421875q-0.8125 -0.53125 -1.859375 -0.53125q-0.921875 0 -1.703125 0.375q-0.78125 0.375 -1.265625 1.0625l0 5.09375q0.515625 0.671875 1.28125 1.0625q0.78125 0.390625 1.6875 0.390625zm12.965607 5.859375q-1.625 -1.03125 -2.765625 -2.515625q-1.125 -1.46875 -1.7187653 -3.34375q-0.578125 -1.890625 -0.578125 -4.0625q0 -2.1875 0.578125 -4.0625q0.59376526 -1.890625 1.7187653 -3.359375q1.140625 -1.484375 2.765625 -2.515625l0.8125 1.09375q-2.09375 1.296875 -3.234375 3.609375q-1.140625 2.296875 -1.140625 5.234375q0 2.953125 1.140625 5.25q1.140625 2.296875 3.234375 3.609375l-0.8125 1.0625zm5.1619873 -4.671875l0 -13.265625l-2.390625 1.0625l0 -1.40625l2.96875 -1.328125l0.953125 0l0 14.9375l-1.53125 0zm4.344635 3.34375l1.28125 -4.921875l1.671875 0l-1.734375 4.921875l-1.21875 0zm12.504639 -3.34375l0 -13.265625l-2.390625 1.0625l0 -1.40625l2.96875 -1.328125l0.953125 0l0 14.9375l-1.53125 0zm5.17276 -15.171875q1.625 1.03125 2.75 2.515625q1.140625 1.46875 1.71875 3.359375q0.59375 1.875 0.59375 4.046875q0 2.1875 -0.59375 4.078125q-0.578125 1.875 -1.71875 3.34375q-1.125 1.484375 -2.75 2.515625l-0.8125 -1.09375q2.09375 -1.296875 3.234375 -3.59375q1.140625 -2.3125 1.140625 -5.25q0 -2.953125 -1.140625 -5.25q-1.140625 -2.296875 -3.234375 -3.609375l0.8125 -1.0625z" fill-rule="nonzero"/><path fill="#cfe2f3" d="m81.656166 295.56708l0 0c0 -3.9458008 3.1987 -7.1445007 7.1445007 -7.1445007l84.64013 0c1.8948517 0 3.712082 0.75271606 5.0519257 2.0925598c1.339859 1.3398743 2.092575 3.1571045 2.092575 5.051941l0 28.577148c0 3.9458008 -3.1987 7.1445007 -7.1445007 7.1445007l-84.64013 0c-3.9458008 0 -7.1445007 -3.1987 -7.1445007 -7.1445007z" fill-rule="evenodd"/><path fill="#000000" d="m101.99227 317.5075q-1.453125 0 -2.609375 -0.71875q-1.15625 -0.71875 -1.84375 -1.9375q-0.6875 -1.234375 -0.6875 -2.71875q0 -1.515625 0.6875 -2.734375q0.6875 -1.21875 1.84375 -1.921875q1.15625 -0.71875 2.609375 -0.71875q1.15625 0 2.203125 0.4375q1.046875 0.421875 1.8125 1.1875l-1.0 1.078125q-0.5625 -0.609375 -1.359375 -0.953125q-0.78125 -0.34375 -1.59375 -0.34375q-1.015625 0 -1.84375 0.53125q-0.8125 0.53125 -1.3125 1.4375q-0.484375 0.890625 -0.484375 2.0q0 1.109375 0.484375 2.015625q0.5 0.890625 1.3125 1.421875q0.828125 0.53125 1.84375 0.53125q0.8125 0 1.59375 -0.34375q0.796875 -0.359375 1.359375 -0.953125l1.0 1.078125q-0.765625 0.765625 -1.8125 1.203125q-1.046875 0.421875 -2.203125 0.421875zm6.184189 4.28125l0 -14.859375l1.546875 0l0 1.484375q0.59375 -0.78125 1.453125 -1.1875q0.859375 -0.421875 1.90625 -0.421875q1.375 0 2.453125 0.71875q1.078125 0.703125 1.703125 1.90625q0.640625 1.203125 0.640625 2.703125q0 1.484375 -0.65625 2.703125q-0.640625 1.21875 -1.734375 1.9375q-1.09375 0.71875 -2.484375 0.71875q-0.984375 0 -1.8125 -0.375q-0.828125 -0.375 -1.453125 -1.078125l0 5.75l-1.5625 0zm4.53125 -5.640625q1.046875 0 1.859375 -0.515625q0.828125 -0.53125 1.296875 -1.4375q0.484375 -0.90625 0.484375 -2.046875q0 -1.140625 -0.484375 -2.03125q-0.46875 -0.90625 -1.296875 -1.421875q-0.8125 -0.53125 -1.859375 -0.53125q-0.921875 0 -1.703125 0.375q-0.78125 0.375 -1.265625 1.0625l0 5.09375q0.515625 0.671875 1.28125 1.0625q0.78125 0.390625 1.6875 0.390625zm12.965591 5.859375q-1.625 -1.03125 -2.765625 -2.515625q-1.125 -1.46875 -1.71875 -3.34375q-0.578125 -1.890625 -0.578125 -4.0625q0 -2.1875 0.578125 -4.0625q0.59375 -1.890625 1.71875 -3.359375q1.140625 -1.484375 2.765625 -2.515625l0.8125 1.09375q-2.09375 1.296875 -3.234375 3.609375q-1.140625 2.296875 -1.140625 5.234375q0 2.953125 1.140625 5.25q1.140625 2.296875 3.234375 3.609375l-0.8125 1.0625zm8.927605 -4.4375q-1.703125 0 -3.015625 -0.984375q-1.3125 -0.984375 -2.0625 -2.71875q-0.734375 -1.734375 -0.734375 -4.0q0 -2.28125 0.734375 -4.0q0.75 -1.734375 2.0625 -2.71875q1.3125 -0.984375 3.015625 -0.984375q1.71875 0 3.03125 0.984375q1.3125 0.984375 2.046875 2.71875q0.75 1.71875 0.75 4.0q0 2.265625 -0.75 4.0q-0.734375 1.734375 -2.046875 2.71875q-1.3125 0.984375 -3.03125 0.984375zm0 -1.390625q1.3125 0 2.25 -0.765625q0.953125 -0.78125 1.484375 -2.203125q0.53125 -1.421875 0.53125 -3.34375q0 -1.921875 -0.53125 -3.328125q-0.53125 -1.421875 -1.484375 -2.203125q-0.9375 -0.78125 -2.25 -0.78125q-1.265625 0 -2.234375 0.78125q-0.953125 0.78125 -1.5 2.203125q-0.53125 1.40625 -0.53125 3.328125q0 1.921875 0.53125 3.34375q0.546875 1.421875 1.5 2.203125q0.96875 0.765625 2.234375 0.765625zm7.574524 4.5l1.28125 -4.921875l1.671875 0l-1.734375 4.921875l-1.21875 0zm12.504639 -3.34375l0 -13.265625l-2.390625 1.0625l0 -1.40625l2.96875 -1.328125l0.953125 0l0 14.9375l-1.53125 0zm5.17276 -15.171875q1.625 1.03125 2.75 2.515625q1.140625 1.46875 1.71875 3.359375q0.59375 1.875 0.59375 4.046875q0 2.1875 -0.59375 4.078125q-0.578125 1.875 -1.71875 3.34375q-1.125 1.484375 -2.75 2.515625l-0.8125 -1.09375q2.09375 -1.296875 3.234375 -3.59375q1.140625 -2.3125 1.140625 -5.25q0 -2.953125 -1.140625 -5.25q-1.140625 -2.296875 -3.234375 -3.609375l0.8125 -1.0625z" fill-rule="nonzero"/><path fill="#cfe2f3" d="m219.6693 295.56708l0 0c0 -3.9458008 3.1987 -7.1445007 7.1445007 -7.1445007l84.64012 0c1.8948364 0 3.7120667 0.75271606 5.051941 2.0925598c1.3398438 1.3398743 2.0925598 3.1571045 2.0925598 5.051941l0 28.577148c0 3.9458008 -3.1987 7.1445007 -7.1445007 7.1445007l-84.64012 0c-3.9458008 0 -7.1445007 -3.1987 -7.1445007 -7.1445007z" fill-rule="evenodd"/><path fill="#000000" d="m239.73872 317.5075q-1.453125 0 -2.609375 -0.71875q-1.15625 -0.71875 -1.84375 -1.9375q-0.6875 -1.234375 -0.6875 -2.71875q0 -1.515625 0.6875 -2.734375q0.6875 -1.21875 1.84375 -1.921875q1.15625 -0.71875 2.609375 -0.71875q1.15625 0 2.203125 0.4375q1.046875 0.421875 1.8125 1.1875l-1.0 1.078125q-0.5625 -0.609375 -1.359375 -0.953125q-0.78125 -0.34375 -1.59375 -0.34375q-1.015625 0 -1.84375 0.53125q-0.8125 0.53125 -1.3125 1.4375q-0.484375 0.890625 -0.484375 2.0q0 1.109375 0.484375 2.015625q0.5 0.890625 1.3125 1.421875q0.828125 0.53125 1.84375 0.53125q0.8125 0 1.59375 -0.34375q0.796875 -0.359375 1.359375 -0.953125l1.0 1.078125q-0.765625 0.765625 -1.8125 1.203125q-1.046875 0.421875 -2.203125 0.421875zm6.184189 4.28125l0 -14.859375l1.546875 0l0 1.484375q0.59375 -0.78125 1.453125 -1.1875q0.859375 -0.421875 1.90625 -0.421875q1.375 0 2.453125 0.71875q1.078125 0.703125 1.703125 1.90625q0.640625 1.203125 0.640625 2.703125q0 1.484375 -0.65625 2.703125q-0.640625 1.21875 -1.734375 1.9375q-1.09375 0.71875 -2.484375 0.71875q-0.984375 0 -1.8125 -0.375q-0.828125 -0.375 -1.453125 -1.078125l0 5.75l-1.5625 0zm4.53125 -5.640625q1.046875 0 1.859375 -0.515625q0.828125 -0.53125 1.296875 -1.4375q0.484375 -0.90625 0.484375 -2.046875q0 -1.140625 -0.484375 -2.03125q-0.46875 -0.90625 -1.296875 -1.421875q-0.8125 -0.53125 -1.859375 -0.53125q-0.921875 0 -1.703125 0.375q-0.78125 0.375 -1.265625 1.0625l0 5.09375q0.515625 0.671875 1.28125 1.0625q0.78125 0.390625 1.6875 0.390625zm12.965576 5.859375q-1.625 -1.03125 -2.765625 -2.515625q-1.125 -1.46875 -1.71875 -3.34375q-0.578125 -1.890625 -0.578125 -4.0625q0 -2.1875 0.578125 -4.0625q0.59375 -1.890625 1.71875 -3.359375q1.140625 -1.484375 2.765625 -2.515625l0.8125 1.09375q-2.09375 1.296875 -3.234375 3.609375q-1.140625 2.296875 -1.140625 5.234375q0 2.953125 1.140625 5.25q1.140625 2.296875 3.234375 3.609375l-0.8125 1.0625zm5.1619873 -4.671875l0 -13.265625l-2.390625 1.0625l0 -1.40625l2.96875 -1.328125l0.953125 0l0 14.9375l-1.53125 0zm4.344635 3.34375l1.28125 -4.921875l1.671875 0l-1.734375 4.921875l-1.21875 0zm16.270294 -3.109375q-1.703125 0 -3.015625 -0.984375q-1.3125305 -0.984375 -2.0625305 -2.71875q-0.734375 -1.734375 -0.734375 -4.0q0 -2.28125 0.734375 -4.0q0.75 -1.734375 2.0625305 -2.71875q1.3125 -0.984375 3.015625 -0.984375q1.71875 0 3.03125 0.984375q1.3125 0.984375 2.046875 2.71875q0.75 1.71875 0.75 4.0q0 2.265625 -0.75 4.0q-0.734375 1.734375 -2.046875 2.71875q-1.3125 0.984375 -3.03125 0.984375zm0 -1.390625q1.3125 0 2.25 -0.765625q0.953125 -0.78125 1.484375 -2.203125q0.53125 -1.421875 0.53125 -3.34375q0 -1.921875 -0.53125 -3.328125q-0.53125 -1.421875 -1.484375 -2.203125q-0.9375 -0.78125 -2.25 -0.78125q-1.265625 0 -2.234375 0.78125q-0.953125 0.78125 -1.5000305 2.203125q-0.53125 1.40625 -0.53125 3.328125q0 1.921875 0.53125 3.34375q0.5469055 1.421875 1.5000305 2.203125q0.96875 0.765625 2.234375 0.765625zm8.935974 -14.015625q1.625 1.03125 2.75 2.515625q1.140625 1.46875 1.71875 3.359375q0.59375 1.875 0.59375 4.046875q0 2.1875 -0.59375 4.078125q-0.578125 1.875 -1.71875 3.34375q-1.125 1.484375 -2.75 2.515625l-0.8125 -1.09375q2.09375 -1.296875 3.234375 -3.59375q1.140625 -2.3125 1.140625 -5.25q0 -2.953125 -1.140625 -5.25q-1.140625 -2.296875 -3.234375 -3.609375l0.8125 -1.0625z" fill-rule="nonzero"/><path fill="#cfe2f3" d="m451.48294 112.97915l0 0c0 -3.9458008 3.1987 -7.1445007 7.1445007 -7.1445007l84.64014 0c1.8948364 0 3.7120361 0.75271606 5.051941 2.092575c1.3398438 1.3398514 2.0925293 3.1570816 2.0925293 5.0519257l0 28.57714c0 3.9458008 -3.1986694 7.1445007 -7.14447 7.1445007l-84.64014 0c-3.9458008 0 -7.1445007 -3.1987 -7.1445007 -7.1445007z" fill-rule="evenodd"/><path fill="#000000" d="m472.55484 134.91959q-1.453125 0 -2.609375 -0.71875q-1.15625 -0.71875 -1.84375 -1.9375q-0.6875 -1.234375 -0.6875 -2.71875q0 -1.515625 0.6875 -2.7343674q0.6875 -1.21875 1.84375 -1.921875q1.15625 -0.71875 2.609375 -0.71875q1.15625 0 2.203125 0.4375q1.046875 0.421875 1.8125 1.1875l-1.0 1.078125q-0.5625 -0.609375 -1.359375 -0.953125q-0.78125 -0.34375 -1.59375 -0.34375q-1.015625 0 -1.84375 0.53125q-0.8125 0.53125 -1.3125 1.4375q-0.484375 0.8906174 -0.484375 1.9999924q0 1.109375 0.484375 2.015625q0.5 0.890625 1.3125 1.421875q0.828125 0.53125 1.84375 0.53125q0.8125 0 1.59375 -0.34375q0.796875 -0.359375 1.359375 -0.953125l1.0 1.078125q-0.765625 0.765625 -1.8125 1.203125q-1.046875 0.421875 -2.203125 0.421875zm6.184204 4.28125l0 -14.859367l1.546875 0l0 1.484375q0.59375 -0.78125 1.453125 -1.1875q0.859375 -0.421875 1.90625 -0.421875q1.375 0 2.453125 0.71875q1.078125 0.703125 1.703125 1.90625q0.640625 1.2031174 0.640625 2.7031174q0 1.484375 -0.65625 2.703125q-0.640625 1.21875 -1.734375 1.9375q-1.09375 0.71875 -2.484375 0.71875q-0.984375 0 -1.8125 -0.375q-0.828125 -0.375 -1.453125 -1.078125l0 5.75l-1.5625 0zm4.53125 -5.640625q1.046875 0 1.859375 -0.515625q0.828125 -0.53125 1.296875 -1.4375q0.484375 -0.90625 0.484375 -2.046875q0 -1.140625 -0.484375 -2.0312424q-0.46875 -0.90625 -1.296875 -1.421875q-0.8125 -0.53125 -1.859375 -0.53125q-0.921875 0 -1.703125 0.375q-0.78125 0.375 -1.265625 1.0625l0 5.0937424q0.515625 0.671875 1.28125 1.0625q0.78125 0.390625 1.6875 0.390625zm12.965576 5.859375q-1.625 -1.03125 -2.765625 -2.515625q-1.125 -1.46875 -1.71875 -3.34375q-0.578125 -1.890625 -0.578125 -4.0625q0 -2.1874924 0.578125 -4.0624924q0.59375 -1.890625 1.71875 -3.359375q1.140625 -1.484375 2.765625 -2.515625l0.8125 1.09375q-2.09375 1.296875 -3.234375 3.609375q-1.140625 2.296875 -1.140625 5.2343674q0 2.953125 1.140625 5.25q1.140625 2.296875 3.234375 3.609375l-0.8125 1.0625zm7.9119873 -4.4375q-1.53125 0 -2.875 -0.53125q-1.328125 -0.53125 -2.34375 -1.578125l1.015625 -1.0q0.953125 0.9375 1.9375 1.359375q0.984375 0.40625 2.25 0.40625q1.09375 0 1.921875 -0.375q0.84375 -0.390625 1.3125 -1.0625q0.484375 -0.6875 0.484375 -1.5625q0 -0.84375 -0.421875 -1.484375q-0.421875 -0.65625 -1.15625 -1.015625q-0.71875 -0.35936737 -1.65625 -0.35936737l-1.765625 0l0 -1.328125l1.703125 0q1.21875 0 1.96875 -0.75q0.765625 -0.75 0.765625 -1.9375q0 -0.78125 -0.4375 -1.421875q-0.421875 -0.640625 -1.15625 -1.015625q-0.734375 -0.375 -1.640625 -0.375q-1.15625 0 -2.0625 0.421875q-0.90625 0.40625 -1.84375 1.390625l-1.03125 -1.03125q1.0 -1.0625 2.25 -1.609375q1.265625 -0.546875 2.703125 -0.546875q1.359375 0 2.4375 0.546875q1.078125 0.53125 1.6875 1.453125q0.625 0.921875 0.625 2.109375q0 1.171875 -0.765625 2.09375q-0.765625 0.921875 -2.015625 1.296875q1.5 0.328125 2.421875 1.3124924q0.921875 0.984375 0.921875 2.28125q0 1.234375 -0.671875 2.21875q-0.671875 0.984375 -1.859375 1.546875q-1.1875 0.546875 -2.703125 0.546875zm7.118561 3.109375l1.28125 -4.921875l1.671875 0l-1.734375 4.921875l-1.21875 0zm12.504639 -3.34375l0 -13.265617l-2.390625 1.0625l0 -1.40625l2.96875 -1.328125l0.953125 0l0 14.937492l-1.53125 0zm5.1727295 -15.171867q1.625 1.03125 2.75 2.515625q1.140625 1.46875 1.71875 3.359375q0.59375 1.875 0.59375 4.0468674q0 2.1875 -0.59375 4.078125q-0.578125 1.875 -1.71875 3.34375q-1.125 1.484375 -2.75 2.515625l-0.8125 -1.09375q2.09375 -1.296875 3.234375 -3.59375q1.140625 -2.3125 1.140625 -5.25q0 -2.9531174 -1.140625 -5.2499924q-1.140625 -2.296875 -3.234375 -3.609375l0.8125 -1.0625z" fill-rule="nonzero"/><path fill="#cfe2f3" d="m436.7034 207.02113l0 0c0 -3.9457855 3.1987 -7.1444855 7.1445007 -7.1444855l84.64014 0c1.8948364 0 3.7120972 0.75271606 5.051941 2.092575c1.3398438 1.3398438 2.0925903 3.157074 2.0925903 5.0519104l0 28.577148c0 3.9458008 -3.1987305 7.1445007 -7.1445312 7.1445007l-84.64014 0c-3.9458008 0 -7.1445007 -3.1987 -7.1445007 -7.1445007z" fill-rule="evenodd"/><path fill="#000000" d="m457.96722 228.9616q-1.453125 0 -2.609375 -0.71875q-1.15625 -0.71875 -1.84375 -1.9375q-0.6875 -1.234375 -0.6875 -2.71875q0 -1.515625 0.6875 -2.734375q0.6875 -1.21875 1.84375 -1.921875q1.15625 -0.71875 2.609375 -0.71875q1.15625 0 2.203125 0.4375q1.046875 0.421875 1.8125 1.1875l-1.0 1.078125q-0.5625 -0.609375 -1.359375 -0.953125q-0.78125 -0.34375 -1.59375 -0.34375q-1.015625 0 -1.84375 0.53125q-0.8125 0.53125 -1.3125 1.4375q-0.484375 0.890625 -0.484375 2.0q0 1.109375 0.484375 2.015625q0.5 0.890625 1.3125 1.421875q0.828125 0.53125 1.84375 0.53125q0.8125 0 1.59375 -0.34375q0.796875 -0.359375 1.359375 -0.953125l1.0 1.078125q-0.765625 0.765625 -1.8125 1.203125q-1.046875 0.421875 -2.203125 0.421875zm6.1841736 4.28125l0 -14.859375l1.546875 0l0 1.484375q0.59375 -0.78125 1.453125 -1.1875q0.859375 -0.421875 1.90625 -0.421875q1.375 0 2.453125 0.71875q1.078125 0.703125 1.703125 1.90625q0.640625 1.203125 0.640625 2.703125q0 1.484375 -0.65625 2.703125q-0.640625 1.21875 -1.734375 1.9375q-1.09375 0.71875 -2.484375 0.71875q-0.984375 0 -1.8125 -0.375q-0.828125 -0.375 -1.453125 -1.078125l0 5.75l-1.5625 0zm4.53125 -5.640625q1.046875 0 1.859375 -0.515625q0.828125 -0.53125 1.296875 -1.4375q0.484375 -0.90625 0.484375 -2.046875q0 -1.140625 -0.484375 -2.03125q-0.46875 -0.90625 -1.296875 -1.421875q-0.8125 -0.53125 -1.859375 -0.53125q-0.921875 0 -1.703125 0.375q-0.78125 0.375 -1.265625 1.0625l0 5.09375q0.515625 0.671875 1.28125 1.0625q0.78125 0.390625 1.6875 0.390625zm12.965607 5.859375q-1.625 -1.03125 -2.765625 -2.515625q-1.125 -1.46875 -1.71875 -3.34375q-0.578125 -1.890625 -0.578125 -4.0625q0 -2.1875 0.578125 -4.0625q0.59375 -1.890625 1.71875 -3.359375q1.140625 -1.484375 2.765625 -2.515625l0.8125 1.09375q-2.09375 1.296875 -3.234375 3.609375q-1.140625 2.296875 -1.140625 5.234375q0 2.953125 1.140625 5.25q1.140625 2.296875 3.234375 3.609375l-0.8125 1.0625zm2.9901123 -4.671875l0 -1.125l5.96875 -6.53125q0.703125 -0.765625 1.09375 -1.34375q0.40625 -0.59375 0.5625 -1.109375q0.15625 -0.515625 0.15625 -1.09375q0 -1.125 -0.890625 -1.859375q-0.875 -0.734375 -2.234375 -0.734375q-1.046875 0 -1.953125 0.40625q-0.890625 0.40625 -2.0 1.40625l-0.890625 -1.0625q1.171875 -1.078125 2.359375 -1.59375q1.203125 -0.53125 2.5 -0.53125q1.34375 0 2.390625 0.515625q1.046875 0.5 1.640625 1.375q0.59375 0.875 0.59375 2.0q0 0.75 -0.1875 1.375q-0.1875 0.625 -0.6875 1.34375q-0.484375 0.71875 -1.40625 1.71875l-5.09375 5.515625l7.703125 -0.015625l0 1.34375l-9.625 0zm11.656616 3.34375l1.28125 -4.921875l1.671875 0l-1.734375 4.921875l-1.21875 0zm12.504639 -3.34375l0 -13.265625l-2.390625 1.0625l0 -1.40625l2.96875 -1.328125l0.953125 0l0 14.9375l-1.53125 0zm5.1727295 -15.171875q1.625 1.03125 2.75 2.515625q1.140625 1.46875 1.71875 3.359375q0.59375 1.875 0.59375 4.046875q0 2.1875 -0.59375 4.078125q-0.578125 1.875 -1.71875 3.34375q-1.125 1.484375 -2.75 2.515625l-0.8125 -1.09375q2.09375 -1.296875 3.234375 -3.59375q1.140625 -2.3125 1.140625 -5.25q0 -2.953125 -1.140625 -5.25q-1.140625 -2.296875 -3.234375 -3.609375l0.8125 -1.0625z" fill-rule="nonzero"/><path fill="#cfe2f3" d="m625.28345 207.02113l0 0c0 -3.9457855 3.1987305 -7.1444855 7.1445312 -7.1444855l90.62439 0c1.8948364 0 3.7120361 0.75271606 5.05188 2.092575c1.3399048 1.3398438 2.0925903 3.157074 2.0925903 5.0519104l0 28.577148c0 3.9458008 -3.1986694 7.1445007 -7.14447 7.1445007l-90.62439 0l0 0c-3.9458008 0 -7.1445312 -3.1987 -7.1445312 -7.1445007z" fill-rule="evenodd"/><path fill="#000000" d="m645.58307 228.9616q-1.453125 0 -2.609375 -0.71875q-1.15625 -0.71875 -1.84375 -1.9375q-0.6875 -1.234375 -0.6875 -2.71875q0 -1.515625 0.6875 -2.734375q0.6875 -1.21875 1.84375 -1.921875q1.15625 -0.71875 2.609375 -0.71875q1.15625 0 2.203125 0.4375q1.046875 0.421875 1.8125 1.1875l-1.0 1.078125q-0.5625 -0.609375 -1.359375 -0.953125q-0.78125 -0.34375 -1.59375 -0.34375q-1.015625 0 -1.84375 0.53125q-0.8125 0.53125 -1.3125 1.4375q-0.484375 0.890625 -0.484375 2.0q0 1.109375 0.484375 2.015625q0.5 0.890625 1.3125 1.421875q0.828125 0.53125 1.84375 0.53125q0.8125 0 1.59375 -0.34375q0.796875 -0.359375 1.359375 -0.953125l1.0 1.078125q-0.765625 0.765625 -1.8125 1.203125q-1.046875 0.421875 -2.203125 0.421875zm6.184204 4.28125l0 -14.859375l1.546875 0l0 1.484375q0.59375 -0.78125 1.453125 -1.1875q0.859375 -0.421875 1.90625 -0.421875q1.375 0 2.453125 0.71875q1.078125 0.703125 1.703125 1.90625q0.640625 1.203125 0.640625 2.703125q0 1.484375 -0.65625 2.703125q-0.640625 1.21875 -1.734375 1.9375q-1.09375 0.71875 -2.484375 0.71875q-0.984375 0 -1.8125 -0.375q-0.828125 -0.375 -1.453125 -1.078125l0 5.75l-1.5625 0zm4.53125 -5.640625q1.046875 0 1.859375 -0.515625q0.828125 -0.53125 1.296875 -1.4375q0.484375 -0.90625 0.484375 -2.046875q0 -1.140625 -0.484375 -2.03125q-0.46875 -0.90625 -1.296875 -1.421875q-0.8125 -0.53125 -1.859375 -0.53125q-0.921875 0 -1.703125 0.375q-0.78125 0.375 -1.265625 1.0625l0 5.09375q0.515625 0.671875 1.28125 1.0625q0.78125 0.390625 1.6875 0.390625zm12.965576 5.859375q-1.625 -1.03125 -2.765625 -2.515625q-1.125 -1.46875 -1.71875 -3.34375q-0.578125 -1.890625 -0.578125 -4.0625q0 -2.1875 0.578125 -4.0625q0.59375 -1.890625 1.71875 -3.359375q1.140625 -1.484375 2.765625 -2.515625l0.8125 1.09375q-2.09375 1.296875 -3.234375 3.609375q-1.140625 2.296875 -1.140625 5.234375q0 2.953125 1.140625 5.25q1.140625 2.296875 3.234375 3.609375l-0.8125 1.0625zm7.9119873 -4.4375q-1.53125 0 -2.875 -0.53125q-1.328125 -0.53125 -2.34375 -1.578125l1.015625 -1.0q0.953125 0.9375 1.9375 1.359375q0.984375 0.40625 2.25 0.40625q1.09375 0 1.921875 -0.375q0.84375 -0.390625 1.3125 -1.0625q0.484375 -0.6875 0.484375 -1.5625q0 -0.84375 -0.421875 -1.484375q-0.421875 -0.65625 -1.15625 -1.015625q-0.71875 -0.359375 -1.65625 -0.359375l-1.765625 0l0 -1.328125l1.703125 0q1.21875 0 1.96875 -0.75q0.765625 -0.75 0.765625 -1.9375q0 -0.78125 -0.4375 -1.421875q-0.421875 -0.640625 -1.15625 -1.015625q-0.734375 -0.375 -1.640625 -0.375q-1.15625 0 -2.0625 0.421875q-0.90625 0.40625 -1.84375 1.390625l-1.03125 -1.03125q1.0 -1.0625 2.25 -1.609375q1.265625 -0.546875 2.703125 -0.546875q1.359375 0 2.4375 0.546875q1.078125 0.53125 1.6875 1.453125q0.625 0.921875 0.625 2.109375q0 1.171875 -0.765625 2.09375q-0.765625 0.921875 -2.015625 1.296875q1.5 0.328125 2.421875 1.3125q0.921875 0.984375 0.921875 2.28125q0 1.234375 -0.671875 2.21875q-0.671875 0.984375 -1.859375 1.546875q-1.1875 0.546875 -2.703125 0.546875zm7.1185303 3.109375l1.28125 -4.921875l1.671875 0l-1.734375 4.921875l-1.21875 0zm16.270264 -3.109375q-1.703125 0 -3.015625 -0.984375q-1.3125 -0.984375 -2.0625 -2.71875q-0.734375 -1.734375 -0.734375 -4.0q0 -2.28125 0.734375 -4.0q0.75 -1.734375 2.0625 -2.71875q1.3125 -0.984375 3.015625 -0.984375q1.71875 0 3.03125 0.984375q1.3125 0.984375 2.046875 2.71875q0.75 1.71875 0.75 4.0q0 2.265625 -0.75 4.0q-0.734375 1.734375 -2.046875 2.71875q-1.3125 0.984375 -3.03125 0.984375zm0 -1.390625q1.3125 0 2.25 -0.765625q0.953125 -0.78125 1.484375 -2.203125q0.53125 -1.421875 0.53125 -3.34375q0 -1.921875 -0.53125 -3.328125q-0.53125 -1.421875 -1.484375 -2.203125q-0.9375 -0.78125 -2.25 -0.78125q-1.265625 0 -2.234375 0.78125q-0.953125 0.78125 -1.5 2.203125q-0.53125 1.40625 -0.53125 3.328125q0 1.921875 0.53125 3.34375q0.546875 1.421875 1.5 2.203125q0.96875 0.765625 2.234375 0.765625zm8.935974 -14.015625q1.625 1.03125 2.75 2.515625q1.140625 1.46875 1.71875 3.359375q0.59375 1.875 0.59375 4.046875q0 2.1875 -0.59375 4.078125q-0.578125 1.875 -1.71875 3.34375q-1.125 1.484375 -2.75 2.515625l-0.8125 -1.09375q2.09375 -1.296875 3.234375 -3.59375q1.140625 -2.3125 1.140625 -5.25q0 -2.953125 -1.140625 -5.25q-1.140625 -2.296875 -3.234375 -3.609375l0.8125 -1.0625z" fill-rule="nonzero"/><path fill="#cfe2f3" d="m366.96326 292.57758l0 0c0 -3.9458008 3.1987 -7.1445007 7.1445007 -7.1445007l84.64014 0c1.8948364 0 3.7120667 0.75271606 5.0519104 2.0925598c1.3398743 1.3398743 2.0925903 3.1571045 2.0925903 5.051941l0 28.577148c0 3.9458008 -3.1987 7.1445007 -7.1445007 7.1445007l-84.64014 0c-3.9458008 0 -7.1445007 -3.1987 -7.1445007 -7.1445007z" fill-rule="evenodd"/><path fill="#000000" d="m390.79712 314.518q-1.453125 0 -2.609375 -0.71875q-1.15625 -0.71875 -1.84375 -1.9375q-0.6875 -1.234375 -0.6875 -2.71875q0 -1.515625 0.6875 -2.734375q0.6875 -1.21875 1.84375 -1.921875q1.15625 -0.71875 2.609375 -0.71875q1.15625 0 2.203125 0.4375q1.046875 0.421875 1.8125 1.1875l-1.0 1.078125q-0.5625 -0.609375 -1.359375 -0.953125q-0.78125 -0.34375 -1.59375 -0.34375q-1.015625 0 -1.84375 0.53125q-0.8125 0.53125 -1.3125 1.4375q-0.484375 0.890625 -0.484375 2.0q0 1.109375 0.484375 2.015625q0.5 0.890625 1.3125 1.421875q0.828125 0.53125 1.84375 0.53125q0.8125 0 1.59375 -0.34375q0.796875 -0.359375 1.359375 -0.953125l1.0 1.078125q-0.765625 0.765625 -1.8125 1.203125q-1.046875 0.421875 -2.203125 0.421875zm6.1841736 4.28125l0 -14.859375l1.546875 0l0 1.484375q0.59375 -0.78125 1.453125 -1.1875q0.859375 -0.421875 1.90625 -0.421875q1.375 0 2.453125 0.71875q1.078125 0.703125 1.703125 1.90625q0.640625 1.203125 0.640625 2.703125q0 1.484375 -0.65625 2.703125q-0.640625 1.21875 -1.734375 1.9375q-1.09375 0.71875 -2.484375 0.71875q-0.984375 0 -1.8125 -0.375q-0.828125 -0.375 -1.453125 -1.078125l0 5.75l-1.5625 0zm4.53125 -5.640625q1.046875 0 1.859375 -0.515625q0.828125 -0.53125 1.296875 -1.4375q0.484375 -0.90625 0.484375 -2.046875q0 -1.140625 -0.484375 -2.03125q-0.46875 -0.90625 -1.296875 -1.421875q-0.8125 -0.53125 -1.859375 -0.53125q-0.921875 0 -1.703125 0.375q-0.78125 0.375 -1.265625 1.0625l0 5.09375q0.515625 0.671875 1.28125 1.0625q0.78125 0.390625 1.6875 0.390625zm12.965607 5.859375q-1.625 -1.03125 -2.765625 -2.515625q-1.125 -1.46875 -1.71875 -3.34375q-0.578125 -1.890625 -0.578125 -4.0625q0 -2.1875 0.578125 -4.0625q0.59375 -1.890625 1.71875 -3.359375q1.140625 -1.484375 2.765625 -2.515625l0.8125 1.09375q-2.09375 1.296875 -3.234375 3.609375q-1.140625 2.296875 -1.140625 5.234375q0 2.953125 1.140625 5.25q1.140625 2.296875 3.234375 3.609375l-0.8125 1.0625zm5.1619873 -4.671875l0 -13.265625l-2.390625 1.0625l0 -1.40625l2.96875 -1.328125l0.953125 0l0 14.9375l-1.53125 0zm4.344635 3.34375l1.28125 -4.921875l1.671875 0l-1.734375 4.921875l-1.21875 0zm12.504639 -3.34375l0 -13.265625l-2.390625 1.0625l0 -1.40625l2.96875 -1.328125l0.953125 0l0 14.9375l-1.53125 0zm5.17276 -15.171875q1.625 1.03125 2.75 2.515625q1.140625 1.46875 1.71875 3.359375q0.59375 1.875 0.59375 4.046875q0 2.1875 -0.59375 4.078125q-0.578125 1.875 -1.71875 3.34375q-1.125 1.484375 -2.75 2.515625l-0.8125 -1.09375q2.09375 -1.296875 3.234375 -3.59375q1.140625 -2.3125 1.140625 -5.25q0 -2.953125 -1.140625 -5.25q-1.140625 -2.296875 -3.234375 -3.609375l0.8125 -1.0625z" fill-rule="nonzero"/><path fill="#cfe2f3" d="m504.979 292.5789l0 0c0 -3.9458008 3.1987 -7.1445007 7.14447 -7.1445007l95.38031 0c1.8948364 0 3.7120972 0.75271606 5.051941 2.0925598c1.3398438 1.3398743 2.0925903 3.1571045 2.0925903 5.051941l0 28.577148c0 3.9458008 -3.1987305 7.1445007 -7.1445312 7.1445007l-95.38031 0l0 0c-3.9457703 0 -7.14447 -3.1987 -7.14447 -7.1445007z" fill-rule="evenodd"/><path fill="#000000" d="m527.84845 314.51932q-1.453125 0 -2.609375 -0.71875q-1.15625 -0.71875 -1.84375 -1.9375q-0.6875 -1.234375 -0.6875 -2.71875q0 -1.515625 0.6875 -2.734375q0.6875 -1.21875 1.84375 -1.921875q1.15625 -0.71875 2.609375 -0.71875q1.15625 0 2.203125 0.4375q1.046875 0.421875 1.8125 1.1875l-1.0 1.078125q-0.5625 -0.609375 -1.359375 -0.953125q-0.78125 -0.34375 -1.59375 -0.34375q-1.015625 0 -1.84375 0.53125q-0.8125 0.53125 -1.3125 1.4375q-0.484375 0.890625 -0.484375 2.0q0 1.109375 0.484375 2.015625q0.5 0.890625 1.3125 1.421875q0.828125 0.53125 1.84375 0.53125q0.8125 0 1.59375 -0.34375q0.796875 -0.359375 1.359375 -0.953125l1.0 1.078125q-0.765625 0.765625 -1.8125 1.203125q-1.046875 0.421875 -2.203125 0.421875zm6.184204 4.28125l0 -14.859375l1.546875 0l0 1.484375q0.59375 -0.78125 1.453125 -1.1875q0.859375 -0.421875 1.90625 -0.421875q1.375 0 2.453125 0.71875q1.078125 0.703125 1.703125 1.90625q0.640625 1.203125 0.640625 2.703125q0 1.484375 -0.65625 2.703125q-0.640625 1.21875 -1.734375 1.9375q-1.09375 0.71875 -2.484375 0.71875q-0.984375 0 -1.8125 -0.375q-0.828125 -0.375 -1.453125 -1.078125l0 5.75l-1.5625 0zm4.53125 -5.640625q1.046875 0 1.859375 -0.515625q0.828125 -0.53125 1.296875 -1.4375q0.484375 -0.90625 0.484375 -2.046875q0 -1.140625 -0.484375 -2.03125q-0.46875 -0.90625 -1.296875 -1.421875q-0.8125 -0.53125 -1.859375 -0.53125q-0.921875 0 -1.703125 0.375q-0.78125 0.375 -1.265625 1.0625l0 5.09375q0.515625 0.671875 1.28125 1.0625q0.78125 0.390625 1.6875 0.390625zm12.965576 5.859375q-1.625 -1.03125 -2.765625 -2.515625q-1.125 -1.46875 -1.71875 -3.34375q-0.578125 -1.890625 -0.578125 -4.0625q0 -2.1875 0.578125 -4.0625q0.59375 -1.890625 1.71875 -3.359375q1.140625 -1.484375 2.765625 -2.515625l0.8125 1.09375q-2.09375 1.296875 -3.234375 3.609375q-1.140625 2.296875 -1.140625 5.234375q0 2.953125 1.140625 5.25q1.140625 2.296875 3.234375 3.609375l-0.8125 1.0625zm2.9901123 -4.671875l0 -1.125l5.96875 -6.53125q0.703125 -0.765625 1.09375 -1.34375q0.40625 -0.59375 0.5625 -1.109375q0.15625 -0.515625 0.15625 -1.09375q0 -1.125 -0.890625 -1.859375q-0.875 -0.734375 -2.234375 -0.734375q-1.046875 0 -1.953125 0.40625q-0.890625 0.40625 -2.0 1.40625l-0.890625 -1.0625q1.171875 -1.078125 2.359375 -1.59375q1.203125 -0.53125 2.5 -0.53125q1.34375 0 2.390625 0.515625q1.046875 0.5 1.640625 1.375q0.59375 0.875 0.59375 2.0q0 0.75 -0.1875 1.375q-0.1875 0.625 -0.6875 1.34375q-0.484375 0.71875 -1.40625 1.71875l-5.09375 5.515625l7.703125 -0.015625l0 1.34375l-9.625 0zm11.656616 3.34375l1.28125 -4.921875l1.671875 0l-1.734375 4.921875l-1.21875 0zm16.270264 -3.109375q-1.703125 0 -3.015625 -0.984375q-1.3125 -0.984375 -2.0625 -2.71875q-0.734375 -1.734375 -0.734375 -4.0q0 -2.28125 0.734375 -4.0q0.75 -1.734375 2.0625 -2.71875q1.3125 -0.984375 3.015625 -0.984375q1.71875 0 3.03125 0.984375q1.3125 0.984375 2.046875 2.71875q0.75 1.71875 0.75 4.0q0 2.265625 -0.75 4.0q-0.734375 1.734375 -2.046875 2.71875q-1.3125 0.984375 -3.03125 0.984375zm0 -1.390625q1.3125 0 2.25 -0.765625q0.953125 -0.78125 1.484375 -2.203125q0.53125 -1.421875 0.53125 -3.34375q0 -1.921875 -0.53125 -3.328125q-0.53125 -1.421875 -1.484375 -2.203125q-0.9375 -0.78125 -2.25 -0.78125q-1.265625 0 -2.234375 0.78125q-0.953125 0.78125 -1.5 2.203125q-0.53125 1.40625 -0.53125 3.328125q0 1.921875 0.53125 3.34375q0.546875 1.421875 1.5 2.203125q0.96875 0.765625 2.234375 0.765625zm8.935974 -14.015625q1.625 1.03125 2.75 2.515625q1.140625 1.46875 1.71875 3.359375q0.59375 1.875 0.59375 4.046875q0 2.1875 -0.59375 4.078125q-0.578125 1.875 -1.71875 3.34375q-1.125 1.484375 -2.75 2.515625l-0.8125 -1.09375q2.09375 -1.296875 3.234375 -3.59375q1.140625 -2.3125 1.140625 -5.25q0 -2.953125 -1.140625 -5.25q-1.140625 -2.296875 -3.234375 -3.609375l0.8125 -1.0625z" fill-rule="nonzero"/><path fill="#cfe2f3" d="m293.67978 378.13663l0 0c0 -3.9458008 3.1987 -7.1445007 7.1445007 -7.1445007l84.64014 0c1.8948364 0 3.7120667 0.75271606 5.051941 2.0925903c1.3398438 1.3398438 2.0925598 3.157074 2.0925598 5.0519104l0 28.577148c0 3.9458008 -3.1987 7.1445007 -7.1445007 7.1445007l-84.64014 0c-3.9458008 0 -7.1445007 -3.1987 -7.1445007 -7.1445007z" fill-rule="evenodd"/><path fill="#000000" d="m314.0159 400.07706q-1.453125 0 -2.609375 -0.71875q-1.15625 -0.71875 -1.84375 -1.9375q-0.6875 -1.234375 -0.6875 -2.71875q0 -1.515625 0.6875 -2.734375q0.6875 -1.21875 1.84375 -1.921875q1.15625 -0.71875 2.609375 -0.71875q1.15625 0 2.203125 0.4375q1.046875 0.421875 1.8125 1.1875l-1.0 1.078125q-0.5625 -0.609375 -1.359375 -0.953125q-0.78125 -0.34375 -1.59375 -0.34375q-1.015625 0 -1.84375 0.53125q-0.8125 0.53125 -1.3125 1.4375q-0.484375 0.890625 -0.484375 2.0q0 1.109375 0.484375 2.015625q0.5 0.890625 1.3125 1.421875q0.828125 0.53125 1.84375 0.53125q0.8125 0 1.59375 -0.34375q0.796875 -0.359375 1.359375 -0.953125l1.0 1.078125q-0.765625 0.765625 -1.8125 1.203125q-1.046875 0.421875 -2.203125 0.421875zm6.1841736 4.28125l0 -14.859375l1.546875 0l0 1.484375q0.59375 -0.78125 1.453125 -1.1875q0.859375 -0.421875 1.90625 -0.421875q1.375 0 2.453125 0.71875q1.078125 0.703125 1.703125 1.90625q0.640625 1.203125 0.640625 2.703125q0 1.484375 -0.65625 2.703125q-0.640625 1.21875 -1.734375 1.9375q-1.09375 0.71875 -2.484375 0.71875q-0.984375 0 -1.8125 -0.375q-0.828125 -0.375 -1.453125 -1.078125l0 5.75l-1.5625 0zm4.53125 -5.640625q1.046875 0 1.859375 -0.515625q0.828125 -0.53125 1.296875 -1.4375q0.484375 -0.90625 0.484375 -2.046875q0 -1.140625 -0.484375 -2.03125q-0.46875 -0.90625 -1.296875 -1.421875q-0.8125 -0.53125 -1.859375 -0.53125q-0.921875 0 -1.703125 0.375q-0.78125 0.375 -1.265625 1.0625l0 5.09375q0.515625 0.671875 1.28125 1.0625q0.78125 0.390625 1.6875 0.390625zm12.965607 5.859375q-1.625 -1.03125 -2.765625 -2.515625q-1.125 -1.46875 -1.71875 -3.34375q-0.578125 -1.890625 -0.578125 -4.0625q0 -2.1875 0.578125 -4.0625q0.59375 -1.890625 1.71875 -3.359375q1.140625 -1.484375 2.765625 -2.515625l0.8125 1.09375q-2.09375 1.296875 -3.234375 3.609375q-1.140625 2.296875 -1.140625 5.234375q0 2.953125 1.140625 5.25q1.140625 2.296875 3.234375 3.609375l-0.8125 1.0625zm8.927612 -4.4375q-1.703125 0 -3.015625 -0.984375q-1.3125 -0.984375 -2.0625 -2.71875q-0.734375 -1.734375 -0.734375 -4.0q0 -2.28125 0.734375 -4.0q0.75 -1.734375 2.0625 -2.71875q1.3125 -0.984375 3.015625 -0.984375q1.71875 0 3.03125 0.984375q1.3125 0.984375 2.046875 2.71875q0.75 1.71875 0.75 4.0q0 2.265625 -0.75 4.0q-0.734375 1.734375 -2.046875 2.71875q-1.3125 0.984375 -3.03125 0.984375zm0 -1.390625q1.3125 0 2.25 -0.765625q0.953125 -0.78125 1.484375 -2.203125q0.53125 -1.421875 0.53125 -3.34375q0 -1.921875 -0.53125 -3.328125q-0.53125 -1.421875 -1.484375 -2.203125q-0.9375 -0.78125 -2.25 -0.78125q-1.265625 0 -2.234375 0.78125q-0.953125 0.78125 -1.5 2.203125q-0.53125 1.40625 -0.53125 3.328125q0 1.921875 0.53125 3.34375q0.546875 1.421875 1.5 2.203125q0.96875 0.765625 2.234375 0.765625zm7.574524 4.5l1.28125 -4.921875l1.671875 0l-1.734375 4.921875l-1.21875 0zm12.504639 -3.34375l0 -13.265625l-2.390625 1.0625l0 -1.40625l2.96875 -1.328125l0.953125 0l0 14.9375l-1.53125 0zm5.17276 -15.171875q1.625 1.03125 2.75 2.515625q1.140625 1.46875 1.71875 3.359375q0.59375 1.875 0.59375 4.046875q0 2.1875 -0.59375 4.078125q-0.578125 1.875 -1.71875 3.34375q-1.125 1.484375 -2.75 2.515625l-0.8125 -1.09375q2.09375 -1.296875 3.234375 -3.59375q1.140625 -2.3125 1.140625 -5.25q0 -2.953125 -1.140625 -5.25q-1.140625 -2.296875 -3.234375 -3.609375l0.8125 -1.0625z" fill-rule="nonzero"/><path fill="#cfe2f3" d="m428.39896 378.13663l0 0c0 -3.9458008 3.1987 -7.1445007 7.1445007 -7.1445007l84.64014 0c1.8948364 0 3.7120361 0.75271606 5.051941 2.0925903c1.3398438 1.3398438 2.0925293 3.157074 2.0925293 5.0519104l0 28.577148c0 3.9458008 -3.1986694 7.1445007 -7.14447 7.1445007l-84.64014 0c-3.9458008 0 -7.1445007 -3.1987 -7.1445007 -7.1445007z" fill-rule="evenodd"/><path fill="#000000" d="m448.46838 400.07706q-1.453125 0 -2.609375 -0.71875q-1.15625 -0.71875 -1.84375 -1.9375q-0.6875 -1.234375 -0.6875 -2.71875q0 -1.515625 0.6875 -2.734375q0.6875 -1.21875 1.84375 -1.921875q1.15625 -0.71875 2.609375 -0.71875q1.15625 0 2.203125 0.4375q1.046875 0.421875 1.8125 1.1875l-1.0 1.078125q-0.5625 -0.609375 -1.359375 -0.953125q-0.78125 -0.34375 -1.59375 -0.34375q-1.015625 0 -1.84375 0.53125q-0.8125 0.53125 -1.3125 1.4375q-0.484375 0.890625 -0.484375 2.0q0 1.109375 0.484375 2.015625q0.5 0.890625 1.3125 1.421875q0.828125 0.53125 1.84375 0.53125q0.8125 0 1.59375 -0.34375q0.796875 -0.359375 1.359375 -0.953125l1.0 1.078125q-0.765625 0.765625 -1.8125 1.203125q-1.046875 0.421875 -2.203125 0.421875zm6.1841736 4.28125l0 -14.859375l1.546875 0l0 1.484375q0.59375 -0.78125 1.453125 -1.1875q0.859375 -0.421875 1.90625 -0.421875q1.375 0 2.453125 0.71875q1.078125 0.703125 1.703125 1.90625q0.640625 1.203125 0.640625 2.703125q0 1.484375 -0.65625 2.703125q-0.640625 1.21875 -1.734375 1.9375q-1.09375 0.71875 -2.484375 0.71875q-0.984375 0 -1.8125 -0.375q-0.828125 -0.375 -1.453125 -1.078125l0 5.75l-1.5625 0zm4.53125 -5.640625q1.046875 0 1.859375 -0.515625q0.828125 -0.53125 1.296875 -1.4375q0.484375 -0.90625 0.484375 -2.046875q0 -1.140625 -0.484375 -2.03125q-0.46875 -0.90625 -1.296875 -1.421875q-0.8125 -0.53125 -1.859375 -0.53125q-0.921875 0 -1.703125 0.375q-0.78125 0.375 -1.265625 1.0625l0 5.09375q0.515625 0.671875 1.28125 1.0625q0.78125 0.390625 1.6875 0.390625zm12.965607 5.859375q-1.625 -1.03125 -2.765625 -2.515625q-1.125 -1.46875 -1.71875 -3.34375q-0.578125 -1.890625 -0.578125 -4.0625q0 -2.1875 0.578125 -4.0625q0.59375 -1.890625 1.71875 -3.359375q1.140625 -1.484375 2.765625 -2.515625l0.8125 1.09375q-2.09375 1.296875 -3.234375 3.609375q-1.140625 2.296875 -1.140625 5.234375q0 2.953125 1.140625 5.25q1.140625 2.296875 3.234375 3.609375l-0.8125 1.0625zm5.1619873 -4.671875l0 -13.265625l-2.390625 1.0625l0 -1.40625l2.96875 -1.328125l0.953125 0l0 14.9375l-1.53125 0zm4.344635 3.34375l1.28125 -4.921875l1.671875 0l-1.734375 4.921875l-1.21875 0zm16.270264 -3.109375q-1.703125 0 -3.015625 -0.984375q-1.3125 -0.984375 -2.0625 -2.71875q-0.734375 -1.734375 -0.734375 -4.0q0 -2.28125 0.734375 -4.0q0.75 -1.734375 2.0625 -2.71875q1.3125 -0.984375 3.015625 -0.984375q1.71875 0 3.03125 0.984375q1.3125 0.984375 2.046875 2.71875q0.75 1.71875 0.75 4.0q0 2.265625 -0.75 4.0q-0.734375 1.734375 -2.046875 2.71875q-1.3125 0.984375 -3.03125 0.984375zm0 -1.390625q1.3125 0 2.25 -0.765625q0.953125 -0.78125 1.484375 -2.203125q0.53125 -1.421875 0.53125 -3.34375q0 -1.921875 -0.53125 -3.328125q-0.53125 -1.421875 -1.484375 -2.203125q-0.9375 -0.78125 -2.25 -0.78125q-1.265625 0 -2.234375 0.78125q-0.953125 0.78125 -1.5 2.203125q-0.53125 1.40625 -0.53125 3.328125q0 1.921875 0.53125 3.34375q0.546875 1.421875 1.5 2.203125q0.96875 0.765625 2.234375 0.765625zm8.936005 -14.015625q1.625 1.03125 2.75 2.515625q1.140625 1.46875 1.71875 3.359375q0.59375 1.875 0.59375 4.046875q0 2.1875 -0.59375 4.078125q-0.578125 1.875 -1.71875 3.34375q-1.125 1.484375 -2.75 2.515625l-0.8125 -1.09375q2.09375 -1.296875 3.234375 -3.59375q1.140625 -2.3125 1.140625 -5.25q0 -2.953125 -1.140625 -5.25q-1.140625 -2.296875 -3.234375 -3.609375l0.8125 -1.0625z" fill-rule="nonzero"/><path fill="#000000" fill-opacity="0.0" d="m244.21523 154.19685l17.637802 45.66928" fill-rule="evenodd"/><path stroke="#93c47d" stroke-width="2.0" stroke-linejoin="round" stroke-linecap="butt" d="m244.21523 154.19685l13.314529 34.47513" fill-rule="evenodd"/><path fill="#93c47d" stroke="#93c47d" stroke-width="2.0" stroke-linecap="butt" d="m254.44812 189.86212l6.351532 7.2765503l-0.18826294 -9.656845z" fill-rule="evenodd"/><path fill="#000000" fill-opacity="0.0" d="m261.8622 242.74278l7.2755737 45.669296" fill-rule="evenodd"/><path stroke="#93c47d" stroke-width="2.0" stroke-linejoin="round" stroke-linecap="butt" d="m261.8622 242.74278l5.387665 33.81874" fill-rule="evenodd"/><path fill="#93c47d" stroke="#93c47d" stroke-width="2.0" stroke-linecap="butt" d="m263.98755 277.08124l4.6902466 8.443451l1.8344116 -9.48291z" fill-rule="evenodd"/><path fill="#000000" fill-opacity="0.0" d="m416.42783 328.29922l-73.29135 42.70865" fill-rule="evenodd"/><path stroke="#93c47d" stroke-width="2.0" stroke-linejoin="round" stroke-linecap="butt" d="m416.42783 328.29922l-62.923218 36.6669" fill-rule="evenodd"/><path fill="#93c47d" stroke="#93c47d" stroke-width="2.0" stroke-linecap="butt" d="m351.84134 362.1119l-6.1786804 7.423889l9.505127 -1.7154541z" fill-rule="evenodd"/><path fill="#000000" fill-opacity="0.0" d="m416.42783 328.29922l61.448822 42.70865" fill-rule="evenodd"/><path stroke="#93c47d" stroke-width="2.0" stroke-linejoin="round" stroke-linecap="butt" d="m416.42783 328.29922l51.595062 35.860016" fill-rule="evenodd"/><path fill="#93c47d" stroke="#93c47d" stroke-width="2.0" stroke-linecap="butt" d="m466.13754 366.87186l9.338226 2.4673462l-5.5675354 -7.892578z" fill-rule="evenodd"/><path fill="#000000" fill-opacity="0.0" d="m368.063 79.93438l-123.842514 31.40158" fill-rule="evenodd"/><path stroke="#93c47d" stroke-width="2.0" stroke-linejoin="round" stroke-linecap="butt" d="m368.063 79.93438l-112.21063 28.452187" fill-rule="evenodd"/><path fill="#93c47d" stroke="#93c47d" stroke-width="2.0" stroke-linecap="butt" d="m255.04044 105.18443l-7.98584 5.432907l9.609711 0.97135925z" fill-rule="evenodd"/><path fill="#000000" fill-opacity="0.0" d="m244.21523 154.19685l-146.99213 45.66928" fill-rule="evenodd"/><path stroke="#93c47d" stroke-width="2.0" stroke-linejoin="round" stroke-linecap="butt" d="m244.21523 154.19685l-135.53249 42.108856" fill-rule="evenodd"/><path fill="#93c47d" stroke="#93c47d" stroke-width="2.0" stroke-linecap="butt" d="m107.7026 193.15102l-7.687355 5.8476257l9.647636 0.461792z" fill-rule="evenodd"/><path fill="#000000" fill-opacity="0.0" d="m261.8622 242.74278l-130.74017 45.669296" fill-rule="evenodd"/><path stroke="#93c47d" stroke-width="2.0" stroke-linejoin="round" stroke-linecap="butt" d="m261.8622 242.74278l-119.41145 41.71202" fill-rule="evenodd"/><path fill="#93c47d" stroke="#93c47d" stroke-width="2.0" stroke-linecap="butt" d="m141.36137 281.33612l-7.47908 6.1117554l9.657867 0.12557983z" fill-rule="evenodd"/><path fill="#000000" fill-opacity="0.0" d="m368.063 79.93438l132.8819 25.88977" fill-rule="evenodd"/><path stroke="#93c47d" stroke-width="2.0" stroke-linejoin="round" stroke-linecap="butt" d="m368.063 79.93438l121.10336 23.594925" fill-rule="evenodd"/><path fill="#93c47d" stroke="#93c47d" stroke-width="2.0" stroke-linecap="butt" d="m488.5346 106.7718l9.540436 -1.5067902l-8.276947 -4.978203z" fill-rule="evenodd"/><path fill="#000000" fill-opacity="0.0" d="m500.9475 148.70079l-14.7716675 51.181107" fill-rule="evenodd"/><path stroke="#93c47d" stroke-width="2.0" stroke-linejoin="round" stroke-linecap="butt" d="m500.9475 148.70079l-11.444092 39.651688" fill-rule="evenodd"/><path fill="#93c47d" stroke="#93c47d" stroke-width="2.0" stroke-linecap="butt" d="m486.3295 187.43643l0.6571045 9.636307l5.690735 -7.8042145z" fill-rule="evenodd"/><path fill="#000000" fill-opacity="0.0" d="m500.9475 148.70079l176.78741 51.181107" fill-rule="evenodd"/><path stroke="#93c47d" stroke-width="2.0" stroke-linejoin="round" stroke-linecap="butt" d="m500.9475 148.70079l165.26074 47.844055" fill-rule="evenodd"/><path fill="#93c47d" stroke="#93c47d" stroke-width="2.0" stroke-linecap="butt" d="m665.2896 199.718l9.636841 -0.6491852l-7.7995605 -5.6971283z" fill-rule="evenodd"/><path fill="#000000" fill-opacity="0.0" d="m486.16797 242.74278l-69.73227 42.67717" fill-rule="evenodd"/><path stroke="#93c47d" stroke-width="2.0" stroke-linejoin="round" stroke-linecap="butt" d="m486.16797 242.74278l-59.49701 36.41304" fill-rule="evenodd"/><path fill="#93c47d" stroke="#93c47d" stroke-width="2.0" stroke-linecap="butt" d="m424.9465 276.33817l-6.016968 7.5555115l9.465881 -1.9201965z" fill-rule="evenodd"/><path fill="#000000" fill-opacity="0.0" d="m486.16797 242.74278l73.63782 42.67717" fill-rule="evenodd"/><path stroke="#93c47d" stroke-width="2.0" stroke-linejoin="round" stroke-linecap="butt" d="m486.16797 242.74278l63.255432 36.65999" fill-rule="evenodd"/><path fill="#93c47d" stroke="#93c47d" stroke-width="2.0" stroke-linecap="butt" d="m547.76697 282.26093l9.509155 1.6929321l-6.196289 -7.40921z" fill-rule="evenodd"/><path fill="#000000" fill-opacity="0.0" d="m194.75066 132.76378c-12.500046 0 -40.480408 -18.566925 -25.000092 -37.133858c15.480316 -18.566925 74.42131 -37.133858 148.8426 -37.133858" fill-rule="evenodd"/><path stroke="#fff2cc" stroke-width="2.0" stroke-linejoin="round" stroke-linecap="butt" d="m194.75066 132.76378c-12.500046 0 -40.480408 -18.566925 -25.000092 -37.133858c7.7401733 -9.283463 26.34549 -18.566925 52.318436 -25.529526c12.986481 -3.4813004 27.814865 -6.3823853 44.047974 -8.413143c8.116516 -1.015377 16.584259 -1.8131752 25.34848 -2.3571281c4.382141 -0.27197647 8.838409 -0.48048782 13.361969 -0.6210098c2.2617798 -0.07026291 4.5403748 -0.12352371 6.834961 -0.15922546l0.07684326 -0.001045227" fill-rule="evenodd"/><path fill="#fff2cc" stroke="#fff2cc" stroke-width="2.0" stroke-linecap="butt" d="m311.7392 58.548847l-2.231781 2.2664185l6.1620483 -2.296688l-6.196686 -2.2015114z" fill-rule="evenodd"/><path fill="#000000" fill-opacity="0.0" d="m550.41205 127.267715c12.500244 0 41.610657 -17.188972 25.000427 -34.377953c-16.61023 -17.188972 -78.94116 -34.377953 -157.8823 -34.377953" fill-rule="evenodd"/><path stroke="#fff2cc" stroke-width="2.0" stroke-linejoin="round" stroke-linecap="butt" d="m550.41205 127.267715c12.500244 0 41.610657 -17.188972 25.000427 -34.377953c-8.305115 -8.59449 -28.040405 -17.188972 -55.567017 -23.634842c-13.763367 -3.222931 -29.474518 -5.9087105 -46.67868 -7.7887535c-8.602051 -0.9400215 -17.577423 -1.6786118 -26.86911 -2.1821938c-4.645874 -0.2517891 -9.370819 -0.44483185 -14.167786 -0.5749283c-2.398468 -0.06504059 -4.814911 -0.11435318 -7.248535 -0.1473999l-0.49713135 -0.005908966" fill-rule="evenodd"/><path fill="#fff2cc" stroke="#fff2cc" stroke-width="2.0" stroke-linecap="butt" d="m424.38422 58.555737l2.2635498 -2.2347069l-6.1938477 2.2095184l6.1650085 2.288723z" fill-rule="evenodd"/><path fill="#000000" fill-opacity="0.0" d="m44.76378 221.30971c-12.499687 0 -43.747406 -22.13385 -24.999374 -44.267715c18.748032 -22.13385 87.49181 -44.267715 174.98363 -44.267715" fill-rule="evenodd"/><path stroke="#fff2cc" stroke-width="2.0" stroke-linejoin="round" stroke-linecap="butt" d="m44.76378 221.30971c-12.499687 0 -43.747406 -22.13385 -24.999374 -44.267715c9.374016 -11.066925 31.246967 -22.13385 61.7129 -30.434052c15.232956 -4.1501007 32.61416 -7.6085205 51.655373 -10.029404c9.520599 -1.2104492 19.456192 -2.1615143 29.745773 -2.8099518c5.1447906 -0.324234 10.378052 -0.57281494 15.6922 -0.7403259c2.6570587 -0.08377075 5.3343506 -0.14726257 8.030914 -0.18980408l1.29245 -0.017852783" fill-rule="evenodd"/><path fill="#fff2cc" stroke="#fff2cc" stroke-width="2.0" stroke-linecap="butt" d="m187.89401 132.8206l-2.2339172 2.2643127l6.1642 -2.2908783l-6.1945953 -2.2073517z" fill-rule="evenodd"/><path fill="#000000" fill-opacity="0.0" d="m311.32678 221.30971c12.4999695 0 27.204712 -22.13385 24.99997 -44.267715c-2.204712 -22.13385 -21.318878 -44.267715 -42.637787 -44.267715" fill-rule="evenodd"/><path stroke="#fff2cc" stroke-width="2.0" stroke-linejoin="round" stroke-linecap="butt" d="m311.32678 221.30971c12.5 0 27.204681 -22.13385 24.99997 -44.267715c-1.102356 -11.066925 -6.4320984 -22.13385 -14.151062 -30.434052c-3.859497 -4.1501007 -8.316315 -7.6085205 -13.140686 -10.029404c-2.412201 -1.2104492 -4.91626 -2.1615143 -7.4835205 -2.8099518c-0.32089233 -0.08106995 -0.64279175 -0.15739441 -0.9656067 -0.22891235l-0.083618164 -0.0178833" fill-rule="evenodd"/><path fill="#fff2cc" stroke="#fff2cc" stroke-width="2.0" stroke-linecap="butt" d="m300.50226 133.5218l2.4810486 -1.9904633l-6.38797 1.5618134l5.8973694 2.9096985z" fill-rule="evenodd"/><path fill="#000000" fill-opacity="0.0" d="m131.12073 288.42258c0 -33.559067 40.645676 -67.11812 81.29135 -67.11812" fill-rule="evenodd"/><path stroke="#fff2cc" stroke-width="2.0" stroke-linejoin="round" stroke-linecap="butt" d="m131.12073 288.42258c0 -16.779541 10.161423 -33.559067 25.40355 -46.143707c7.621063 -6.292328 16.512299 -11.535919 26.038635 -15.206451c4.7631683 -1.8352509 9.685104 -3.2772522 14.686432 -4.2604065c2.5006561 -0.4915924 5.021164 -0.8684845 7.55159 -1.1224823l0.76412964 -0.07199097" fill-rule="evenodd"/><path fill="#fff2cc" stroke="#fff2cc" stroke-width="2.0" stroke-linecap="butt" d="m205.56505 221.61752l-2.1440887 2.3495483l6.0703583 -2.529068l-6.275818 -1.9645691z" fill-rule="evenodd"/><path fill="#000000" fill-opacity="0.0" d="m318.59842 309.85565c12.5000305 0 25.909485 -22.13388 25.00003 -44.26773c-0.90945435 -22.13385 -16.137817 -44.267715 -32.275604 -44.267715" fill-rule="evenodd"/><path stroke="#fff2cc" stroke-width="2.0" stroke-linejoin="round" stroke-linecap="butt" d="m318.59842 309.85565c12.5 0 25.909454 -22.13388 25.00003 -44.26773c-0.45474243 -11.066925 -4.4891663 -22.13385 -10.427185 -30.434052c-2.9689941 -4.1501007 -6.4138794 -7.6085052 -10.125122 -10.029404c-0.9277954 -0.6052246 -1.8722839 -1.1455994 -2.8301086 -1.6157379c-0.47891235 -0.23504639 -0.96118164 -0.45256042 -1.4463806 -0.6518097c-0.121276855 -0.049835205 -0.24276733 -0.09851074 -0.36444092 -0.14602661l-0.34490967 -0.13128662" fill-rule="evenodd"/><path fill="#fff2cc" stroke="#fff2cc" stroke-width="2.0" stroke-linecap="butt" d="m318.0603 222.5796l2.6241455 -1.7976074l-6.4875793 1.0754395l5.6610413 3.3463135z" fill-rule="evenodd"/><path fill="#000000" fill-opacity="0.0" d="m343.14435 370.99213c0 -32.06299 11.905518 -64.12598 23.811035 -64.12598" fill-rule="evenodd"/><path stroke="#fff2cc" stroke-width="2.0" stroke-linejoin="round" stroke-linecap="butt" d="m343.14435 370.99213c0 -16.031494 2.9763794 -32.06299 7.4409485 -44.08661c2.2322998 -6.0118103 4.836609 -11.0216675 7.6269836 -14.528534c0.6975708 -0.8767395 1.4067993 -1.6595154 2.1247559 -2.3405457c0.08972168 -0.08514404 0.17956543 -0.16867065 0.2695923 -0.25057983l0.104522705 -0.093170166" fill-rule="evenodd"/><path fill="#fff2cc" stroke="#fff2cc" stroke-width="2.0" stroke-linecap="butt" d="m360.71115 309.6927l-1.1214905 2.976532l4.702118 -4.597351l-6.5571594 0.4993286z" fill-rule="evenodd"/><path fill="#000000" fill-opacity="0.0" d="m477.86353 370.99213c0 -32.06299 -5.984253 -64.12598 -11.968506 -64.12598" fill-rule="evenodd"/><path stroke="#fff2cc" stroke-width="2.0" stroke-linejoin="round" stroke-linecap="butt" d="m477.86353 370.99213c0 -16.031494 -1.4960632 -32.06299 -3.7401733 -44.08661c-1.1220398 -6.0118103 -2.4310913 -11.0216675 -3.8336487 -14.528534l-0.077301025 -0.1873169" fill-rule="evenodd"/><path fill="#fff2cc" stroke="#fff2cc" stroke-width="2.0" stroke-linecap="butt" d="m470.2124 312.18967l3.1636047 0.33016968l-5.6393127 -3.3828125l2.1455383 6.2162476z" fill-rule="evenodd"/><path fill="#000000" fill-opacity="0.0" d="m416.42783 285.43307c0 -32.063004 10.141724 -64.12599 20.283447 -64.12599" fill-rule="evenodd"/><path stroke="#fff2cc" stroke-width="2.0" stroke-linejoin="round" stroke-linecap="butt" d="m416.42783 285.43307c0 -16.031494 2.535431 -32.063004 6.3385925 -44.086624c1.9015503 -6.0118103 4.120056 -11.021652 6.49704 -14.528534c0.29711914 -0.43836975 0.5967102 -0.85324097 0.89849854 -1.2436676c0.1508789 -0.19519043 0.3022766 -0.3842926 0.45422363 -0.56715393l0.1885376 -0.22267151" fill-rule="evenodd"/><path fill="#fff2cc" stroke="#fff2cc" stroke-width="2.0" stroke-linecap="butt" d="m430.8047 224.78444l-0.79711914 3.0792847l4.184143 -5.073288l-6.4663086 1.1968536z" fill-rule="evenodd"/><path fill="#000000" fill-opacity="0.0" d="m559.81366 285.4344c0 -32.063004 -12.094482 -64.12599 -24.188965 -64.12599" fill-rule="evenodd"/><path stroke="#fff2cc" stroke-width="2.0" stroke-linejoin="round" stroke-linecap="butt" d="m559.81366 285.4344c0 -16.031494 -3.0236206 -32.063004 -7.559082 -44.086624c-2.2677002 -6.0118103 -4.913391 -11.021652 -7.747986 -14.528534c-0.7086792 -0.87672424 -1.4291382 -1.6595154 -2.1585083 -2.3405304c-0.09112549 -0.08514404 -0.18243408 -0.16868591 -0.27392578 -0.2505951l-0.17736816 -0.15562439" fill-rule="evenodd"/><path fill="#fff2cc" stroke="#fff2cc" stroke-width="2.0" stroke-linecap="butt" d="m541.8968 224.07248l2.96521 -1.1511383l-6.5618286 -0.43385315l4.7477417 4.550186z" fill-rule="evenodd"/><path fill="#000000" fill-opacity="0.0" d="m677.7402 199.87665c0 -36.299225 -63.66931 -72.598434 -127.33862 -72.598434" fill-rule="evenodd"/><path stroke="#fff2cc" stroke-width="2.0" stroke-linejoin="round" stroke-linecap="butt" d="m677.7402 199.87665c0 -18.149612 -15.917358 -36.299225 -39.793335 -49.911423c-11.937988 -6.8061066 -25.865662 -12.4778595 -40.788147 -16.44809c-7.4612427 -1.9851074 -15.171143 -3.5448456 -23.005493 -4.6082916c-3.9171143 -0.5317383 -7.8653564 -0.93938446 -11.829163 -1.2141037c-0.9909668 -0.06868744 -1.9828491 -0.12905884 -2.975525 -0.18099213c-0.4963379 -0.02596283 -0.99279785 -0.049804688 -1.489502 -0.0715332l-0.6046753 -0.023849487" fill-rule="evenodd"/><path fill="#fff2cc" stroke="#fff2cc" stroke-width="2.0" stroke-linecap="butt" d="m557.25433 127.41837l2.2946777 -2.2027054l-6.224243 2.1223373l6.132263 2.3750534z" fill-rule="evenodd"/><path fill="#000000" fill-opacity="0.0" d="m436.7034 221.30971c-12.4999695 0 -26.846436 -23.51181 -24.99997 -47.02362c1.8464355 -23.51181 19.885803 -47.02362 39.771637 -47.02362" fill-rule="evenodd"/><path stroke="#fff2cc" stroke-width="2.0" stroke-linejoin="round" stroke-linecap="butt" d="m436.7034 221.30971c-12.5 0 -26.846436 -23.51181 -25.0 -47.02362c0.9232483 -11.755905 5.894684 -23.51181 13.121063 -32.328735c3.6131897 -4.4084625 7.7901306 -8.082184 12.30661 -10.653793c2.2582397 -1.2857971 4.6013794 -2.2960815 7.001404 -2.9848938c0.14996338 -0.043060303 0.3001709 -0.084854126 0.45065308 -0.12538147l0.09780884 -0.025482178" fill-rule="evenodd"/><path fill="#fff2cc" stroke="#fff2cc" stroke-width="2.0" stroke-linecap="butt" d="m444.68094 128.16779l-1.932373 2.5265503l5.828308 -3.0456848l-6.422455 -1.4132385z" fill-rule="evenodd"/><path fill="#fff2cc" d="m34.259842 147.70349l0 0c0 -2.383133 1.9319115 -4.315033 4.315048 -4.315033l23.684868 0c1.1444206 0 2.2419662 0.45462036 3.0512009 1.2638397c0.809227 0.8092346 1.2638474 1.906784 1.2638474 3.0511932l0 17.259674c0 2.383133 -1.9319153 4.315048 -4.315048 4.315048l-23.684868 0l0 0c-2.3831367 0 -4.315048 -1.9319153 -4.315048 -4.315048z" fill-rule="evenodd"/><path fill="#000000" d="m45.304928 156.65958q0 -2.359375 0.484375 -3.796875q0.484375 -1.453125 1.4375 -2.234375q0.96875 -0.78125 2.421875 -0.78125q1.078125 0 1.890625 0.4375q0.8125 0.421875 1.328125 1.25q0.53125 0.8125 0.828125 1.984375q0.3125 1.15625 0.3125 3.140625q0 2.359375 -0.484375 3.8125q-0.484375 1.4375 -1.453125 2.234375q-0.953125 0.78125 -2.421875 0.78125q-1.921875 0 -3.03125 -1.390625q-1.3125 -1.671875 -1.3125 -5.4375zm1.671875 0q0 3.296875 0.765625 4.390625q0.78125 1.078125 1.90625 1.078125q1.140625 0 1.90625 -1.09375q0.765625 -1.09375 0.765625 -4.375q0 -3.296875 -0.765625 -4.375q-0.765625 -1.078125 -1.921875 -1.078125q-1.125 0 -1.796875 0.953125q-0.859375 1.21875 -0.859375 4.5z" fill-rule="nonzero"/><path fill="#fff2cc" d="m154.56168 235.51453l0 0c0 -2.383133 1.9319153 -4.315048 4.315048 -4.315048l23.684875 0c1.1444092 0 2.2419586 0.45462036 3.0511932 1.2638397c0.8092346 0.8092346 1.263855 1.906784 1.263855 3.0512085l0 17.259659c0 2.3831482 -1.9319153 4.315048 -4.315048 4.315048l-23.684875 0l0 0c-2.383133 0 -4.315048 -1.9319 -4.315048 -4.315048z" fill-rule="evenodd"/><path fill="#000000" d="m171.77864 251.06436l-1.640625 0l0 -10.453125q-0.59375 0.5625 -1.5625 1.140625q-0.953125 0.5625 -1.71875 0.84375l0 -1.59375q1.375 -0.640625 2.40625 -1.5625q1.03125 -0.921875 1.453125 -1.78125l1.0625 0l0 13.40625z" fill-rule="nonzero"/><path fill="#fff2cc" d="m326.62598 255.45808l0 0c0 -2.383133 1.9319153 -4.315033 4.3150635 -4.315033l23.684845 0c1.1444397 0 2.2419739 0.45462036 3.0512085 1.2638397c0.8092346 0.8092346 1.263855 1.906784 1.263855 3.0511932l0 17.25969c0 2.3831177 -1.9319153 4.315033 -4.3150635 4.315033l-23.684845 0l0 0c-2.3831482 0 -4.3150635 -1.9319153 -4.3150635 -4.315033z" fill-rule="evenodd"/><path fill="#000000" d="m337.67108 264.41418q0 -2.359375 0.484375 -3.796875q0.484375 -1.453125 1.4375 -2.234375q0.96875 -0.78125 2.421875 -0.78125q1.078125 0 1.890625 0.4375q0.8125 0.421875 1.328125 1.25q0.53125 0.8125 0.828125 1.984375q0.3125 1.15625 0.3125 3.140625q0 2.359375 -0.484375 3.8125q-0.484375 1.4375 -1.453125 2.234375q-0.953125 0.78125 -2.421875 0.78125q-1.921875 0 -3.03125 -1.390625q-1.3125 -1.671875 -1.3125 -5.4375zm1.671875 0q0 3.296875 0.765625 4.390625q0.78125 1.078125 1.90625 1.078125q1.140625 0 1.90625 -1.09375q0.765625 -1.09375 0.765625 -4.375q0 -3.296875 -0.765625 -4.375q-0.765625 -1.078125 -1.921875 -1.078125q-1.125 0 -1.796875 0.953125q-0.859375 1.21875 -0.859375 4.5z" fill-rule="nonzero"/><path fill="#fff2cc" d="m320.53937 172.60901l0 0c0 -2.383133 1.9319153 -4.315048 4.3150635 -4.315048l23.684845 0c1.1444397 0 2.2419739 0.45462036 3.0512085 1.263855c0.8092346 0.80921936 1.263855 1.9067688 1.263855 3.0511932l0 17.259674c0 2.383133 -1.9319153 4.315048 -4.3150635 4.315048l-23.684845 0l0 0c-2.3831482 0 -4.3150635 -1.9319153 -4.3150635 -4.315048z" fill-rule="evenodd"/><path fill="#000000" d="m337.75632 188.15884l-1.640625 0l0 -10.453125q-0.59375 0.5625 -1.5625 1.140625q-0.953125 0.5625 -1.71875 0.84375l0 -1.59375q1.375 -0.640625 2.40625 -1.5625q1.03125 -0.921875 1.453125 -1.78125l1.0625 0l0 13.40625z" fill-rule="nonzero"/><path fill="#fff2cc" d="m186.87665 70.265175l0 0c0 -2.383133 1.9319 -4.3150406 4.315033 -4.3150406l23.684875 0c1.1444244 0 2.2419739 0.45462036 3.0511932 1.2638474c0.8092346 0.809227 1.263855 1.9067764 1.263855 3.0511932l0 17.259674c0 2.383133 -1.9319153 4.315048 -4.315048 4.315048l-23.684875 0l0 0c-2.383133 0 -4.315033 -1.9319153 -4.315033 -4.315048z" fill-rule="evenodd"/><path fill="#000000" d="m204.0936 85.81501l-1.640625 0l0 -10.453125q-0.59375 0.5625 -1.5625 1.140625q-0.953125 0.5625 -1.71875 0.84375l0 -1.59375q1.375 -0.640625 2.40625 -1.5625q1.03125 -0.921875 1.453125 -1.78125l1.0625 0l0 13.40625z" fill-rule="nonzero"/><path fill="#fff2cc" d="m326.62598 331.79404l0 0c0 -2.3831177 1.9319153 -4.315033 4.3150635 -4.315033l23.684845 0c1.1444397 0 2.2419739 0.45462036 3.0512085 1.263855c0.8092346 0.8092346 1.263855 1.9067688 1.263855 3.051178l0 17.259674c0 2.3831482 -1.9319153 4.3150635 -4.3150635 4.3150635l-23.684845 0l0 0c-2.3831482 0 -4.3150635 -1.9319153 -4.3150635 -4.3150635z" fill-rule="evenodd"/><path fill="#000000" d="m343.84296 347.34387l-1.640625 0l0 -10.453125q-0.59375 0.5625 -1.5625 1.140625q-0.953125 0.5625 -1.71875 0.84375l0 -1.59375q1.375 -0.640625 2.40625 -1.5625q1.03125 -0.921875 1.453125 -1.78125l1.0625 0l0 13.40625z" fill-rule="nonzero"/><path fill="#fff2cc" d="m398.7467 244.74025l0 0c0 -2.383133 1.9319153 -4.315048 4.3150635 -4.315048l23.684875 0c1.1444092 0 2.2419739 0.45462036 3.051178 1.2638397c0.8092346 0.8092346 1.263855 1.906784 1.263855 3.0512085l0 17.259659c0 2.3831482 -1.9319153 4.3150635 -4.315033 4.3150635l-23.684875 0l0 0c-2.3831482 0 -4.3150635 -1.9319153 -4.3150635 -4.3150635z" fill-rule="evenodd"/><path fill="#000000" d="m415.96368 260.29007l-1.640625 0l0 -10.453125q-0.59375 0.5625 -1.5625 1.140625q-0.953125 0.5625 -1.71875 0.84375l0 -1.59375q1.375 -0.640625 2.40625 -1.5625q1.03125 -0.921875 1.453125 -1.78125l1.0625 0l0 13.40625z" fill-rule="nonzero"/><path fill="#fff2cc" d="m395.2034 165.65756l0 0c0 -2.383133 1.9319153 -4.315048 4.3150635 -4.315048l23.684875 0c1.1444092 0 2.2419434 0.45462036 3.051178 1.263855c0.8092346 0.80921936 1.263855 1.9067688 1.263855 3.0511932l0 17.259674c0 2.383133 -1.9319153 4.315048 -4.315033 4.315048l-23.684875 0l0 0c-2.3831482 0 -4.3150635 -1.9319153 -4.3150635 -4.315048z" fill-rule="evenodd"/><path fill="#000000" d="m412.42038 181.2074l-1.640625 0l0 -10.453125q-0.59375 0.5625 -1.5625 1.140625q-0.953125 0.5625 -1.71875 0.84375l0 -1.59375q1.375 -0.640625 2.40625 -1.5625q1.03125 -0.921875 1.453125 -1.78125l1.0625 0l0 13.40625z" fill-rule="nonzero"/><path fill="#fff2cc" d="m461.7047 331.79404l0 0c0 -2.3831177 1.9319153 -4.315033 4.3150635 -4.315033l23.684875 0c1.1444092 0 2.2419434 0.45462036 3.051178 1.263855c0.8092346 0.8092346 1.263855 1.9067688 1.263855 3.051178l0 17.259674c0 2.3831482 -1.9319153 4.3150635 -4.315033 4.3150635l-23.684875 0l0 0c-2.3831482 0 -4.3150635 -1.9319153 -4.3150635 -4.3150635z" fill-rule="evenodd"/><path fill="#000000" d="m472.74982 340.75012q0 -2.359375 0.484375 -3.796875q0.484375 -1.453125 1.4375 -2.234375q0.96875 -0.78125 2.421875 -0.78125q1.078125 0 1.890625 0.4375q0.8125 0.421875 1.328125 1.25q0.53125 0.8125 0.828125 1.984375q0.3125 1.15625 0.3125 3.140625q0 2.359375 -0.484375 3.8125q-0.484375 1.4375 -1.453125 2.234375q-0.953125 0.78125 -2.421875 0.78125q-1.921875 0 -3.03125 -1.390625q-1.3125 -1.671875 -1.3125 -5.4375zm1.671875 0q0 3.296875 0.765625 4.390625q0.78125 1.078125 1.90625 1.078125q1.140625 0 1.90625 -1.09375q0.765625 -1.09375 0.765625 -4.375q0 -3.296875 -0.765625 -4.375q-0.765625 -1.078125 -1.921875 -1.078125q-1.125 0 -1.796875 0.953125q-0.859375 1.21875 -0.859375 4.5z" fill-rule="nonzero"/><path fill="#fff2cc" d="m539.56696 240.06964l0 0c0 -2.383133 1.9318848 -4.315048 4.3150024 -4.315048l23.684875 0c1.1444092 0 2.2420044 0.45462036 3.0512085 1.263855c0.8092041 0.80921936 1.263855 1.9067688 1.263855 3.0511932l0 17.259674c0 2.3831177 -1.9319458 4.315033 -4.3150635 4.315033l-23.684875 0l0 0c-2.3831177 0 -4.3150024 -1.9319153 -4.3150024 -4.315033z" fill-rule="evenodd"/><path fill="#000000" d="m550.612 249.02573q0 -2.359375 0.484375 -3.796875q0.484375 -1.453125 1.4375 -2.234375q0.96875 -0.78125 2.421875 -0.78125q1.078125 0 1.890625 0.4375q0.8125 0.421875 1.328125 1.25q0.53125 0.8125 0.828125 1.984375q0.3125 1.15625 0.3125 3.140625q0 2.359375 -0.484375 3.8125q-0.484375 1.4375 -1.453125 2.234375q-0.953125 0.78125 -2.421875 0.78125q-1.921875 0 -3.03125 -1.390625q-1.3125 -1.671875 -1.3125 -5.4375zm1.671875 0q0 3.296875 0.765625 4.390625q0.78125 1.078125 1.90625 1.078125q1.140625 0 1.90625 -1.09375q0.765625 -1.09375 0.765625 -4.375q0 -3.296875 -0.765625 -4.375q-0.765625 -1.078125 -1.921875 -1.078125q-1.125 0 -1.796875 0.953125q-0.859375 1.21875 -0.859375 4.5z" fill-rule="nonzero"/><path fill="#fff2cc" d="m606.1312 137.07751l0 0c0 -2.383133 1.9319458 -4.315048 4.3150635 -4.315048l23.684875 0c1.1444092 0 2.2419434 0.45462036 3.0512085 1.263855c0.8092041 0.80921936 1.263794 1.9067688 1.263794 3.0511932l0 17.259674c0 2.383133 -1.9318848 4.315048 -4.3150024 4.315048l-23.684875 0l0 0c-2.3831177 0 -4.3150635 -1.9319153 -4.3150635 -4.315048z" fill-rule="evenodd"/><path fill="#000000" d="m617.17633 146.0336q0 -2.359375 0.484375 -3.796875q0.484375 -1.453125 1.4375 -2.234375q0.96875 -0.78125 2.421875 -0.78125q1.078125 0 1.890625 0.4375q0.8125 0.421875 1.328125 1.25q0.53125 0.8125 0.828125 1.984375q0.3125 1.15625 0.3125 3.140625q0 2.359375 -0.484375 3.8125q-0.484375 1.4375 -1.453125 2.234375q-0.953125 0.78125 -2.421875 0.78125q-1.921875 0 -3.03125 -1.390625q-1.3125 -1.671875 -1.3125 -5.4375zm1.671875 0q0 3.296875 0.765625 4.390625q0.78125 1.078125 1.90625 1.078125q1.140625 0 1.90625 -1.09375q0.765625 -1.09375 0.765625 -4.375q0 -3.296875 -0.765625 -4.375q-0.765625 -1.078125 -1.921875 -1.078125q-1.125 0 -1.796875 0.953125q-0.859375 1.21875 -0.859375 4.5z" fill-rule="nonzero"/><path fill="#fff2cc" d="m482.80972 58.347855l0 0c0 -2.383133 1.9319153 -4.3150444 4.315033 -4.3150444l23.684875 0c1.1444092 0 2.2419434 0.45461655 3.0512085 1.2638474c0.8092041 0.809227 1.263855 1.9067764 1.263855 3.051197l0 17.259674c0 2.383133 -1.9319458 4.3150406 -4.3150635 4.3150406l-23.684875 0l0 0c-2.3831177 0 -4.315033 -1.9319077 -4.315033 -4.3150406z" fill-rule="evenodd"/><path fill="#000000" d="m500.02667 73.89769l-1.640625 0l0 -10.453125q-0.59375 0.5625 -1.5625 1.140625q-0.953125 0.5625 -1.71875 0.84375l0 -1.59375q1.375 -0.640625 2.40625 -1.5625q1.03125 -0.921875 1.453125 -1.78125l1.0625 0l0 13.40625z" fill-rule="nonzero"/><path fill="#fff2cc" d="m351.9042 15.492212l0 0c0 -2.3831348 1.9319153 -4.3150473 4.315033 -4.3150473l23.684875 0c1.1444092 0 2.2419739 0.45462036 3.0512085 1.2638483c0.8092041 0.80922794 1.2638245 1.9067774 1.2638245 3.051199l0 17.259668c0 2.3831367 -1.9318848 4.315048 -4.315033 4.315048l-23.684875 0l0 0c-2.3831177 0 -4.315033 -1.9319115 -4.315033 -4.315048z" fill-rule="evenodd"/><path fill="#000000" d="m371.55865 29.46392l0 1.578125l-8.828125 0q-0.015625 -0.59375 0.1875 -1.140625q0.34375 -0.90625 1.078125 -1.78125q0.75 -0.875 2.15625 -2.015625q2.171875 -1.78125 2.9375 -2.828125q0.765625 -1.046875 0.765625 -1.96875q0 -0.984375 -0.703125 -1.640625q-0.6875 -0.671875 -1.8125 -0.671875q-1.1875 0 -1.90625 0.71875q-0.703125 0.703125 -0.703125 1.953125l-1.6875 -0.171875q0.171875 -1.890625 1.296875 -2.875q1.140625 -0.984375 3.03125 -0.984375q1.921875 0 3.046875 1.0625q1.125 1.0625 1.125 2.640625q0 0.796875 -0.328125 1.578125q-0.328125 0.78125 -1.09375 1.640625q-0.75 0.84375 -2.53125 2.34375q-1.46875 1.234375 -1.890625 1.6875q-0.421875 0.4375 -0.6875 0.875l6.546875 0z" fill-rule="nonzero"/></g></svg>