<svg version="1.1" viewBox="0.0 0.0 631.0 371.0" fill="none" stroke="none" stroke-linecap="square" stroke-miterlimit="10" width="631" height="371" xmlns:xlink="http://www.w3.org/1999/xlink" xmlns="http://www.w3.org/2000/svg"><path fill="#ffffff" d="M0 0L631.0 0L631.0 371.0L0 371.0L0 0Z" fill-rule="nonzero"/><path fill="#ea4335" d="M192.36746 287.16925C161.46112 241.58582 158.26613 182.65756 184.06285 133.99977C209.85959 85.34198 260.42685 54.916668 315.5 54.916668L315.5 203.68333Z" fill-rule="nonzero"/><path fill="#4285f4" d="M315.5 54.916668C386.34653 54.916668 447.364 104.877304 461.3423 174.33118C475.32056 243.78503 438.38095 313.46048 373.05035 340.86743C307.71973 368.2744 232.12563 345.80817 192.36746 287.16925L315.5 203.68333Z" fill-rule="nonzero"/><path fill="#1a1a1a" d="M25.6125 129.96832L26.7375 130.2652Q26.378124 131.65582 25.45625 132.3902Q24.534374 133.12457 23.190624 133.12457Q21.8 133.12457 20.925 132.56207Q20.05 131.99957 19.596874 130.93707Q19.14375 129.85895 19.14375 128.62457Q19.14375 127.28082 19.659374 126.28082Q20.175 125.28082 21.1125 124.7652Q22.065624 124.24957 23.20625 124.24957Q24.4875 124.24957 25.3625 124.90582Q26.253124 125.56207 26.596874 126.74957L25.471874 127.0152Q25.175 126.0777 24.596874 125.65582Q24.034374 125.21832 23.175 125.21832Q22.190624 125.21832 21.51875 125.7027Q20.8625 126.17145 20.58125 126.96832Q20.315624 127.7652 20.315624 128.62457Q20.315624 129.71832 20.628124 130.53082Q20.95625 131.34332 21.628124 131.74957Q22.3 132.15582 23.096874 132.15582Q24.05 132.15582 24.70625 131.60895Q25.378124 131.06207 25.6125 129.96832ZM32.409374 132.21832Q31.815624 132.71832 31.26875 132.92145Q30.7375 133.12457 30.1125 133.12457Q29.08125 133.12457 28.534374 132.62457Q27.9875 132.12457 27.9875 131.34332Q27.9875 130.8902 28.190624 130.5152Q28.39375 130.12457 28.7375 129.90582Q29.08125 129.67145 29.503124 129.56207Q29.8 129.46832 30.440624 129.3902Q31.70625 129.24957 32.315624 129.03082Q32.315624 128.81207 32.315624 128.7652Q32.315624 128.10895 32.01875 127.84332Q31.6125 127.49957 30.815624 127.49957Q30.08125 127.49957 29.721874 127.7652Q29.3625 128.0152 29.190624 128.67145L28.159374 128.53082Q28.3 127.87457 28.628124 127.46832Q28.95625 127.06207 29.565624 126.84332Q30.175 126.62457 30.971874 126.62457Q31.76875 126.62457 32.26875 126.81207Q32.76875 126.99957 33.003124 127.28082Q33.2375 127.56207 33.33125 127.99957Q33.378124 128.2652 33.378124 128.96832L33.378124 130.37457Q33.378124 131.84332 33.440624 132.23395Q33.51875 132.62457 33.721874 132.98395L32.6125 132.98395Q32.45625 132.65582 32.409374 132.21832ZM32.315624 129.85895Q31.7375 130.09332 30.596874 130.2652Q29.940624 130.35895 29.675 130.48395Q29.409374 130.59332 29.253124 130.81207Q29.1125 131.03082 29.1125 131.31207Q29.1125 131.73395 29.425 132.0152Q29.753124 132.29645 30.3625 132.29645Q30.971874 132.29645 31.440624 132.03082Q31.925 131.7652 32.14375 131.29645Q32.315624 130.93707 32.315624 130.24957L32.315624 129.85895ZM35.33125 132.98395L35.33125 126.7652L36.284374 126.7652L36.284374 127.7027Q36.64375 127.04645 36.940624 126.84332Q37.253124 126.62457 37.628124 126.62457Q38.159374 126.62457 38.70625 126.9527L38.346874 127.93707Q37.95625 127.7027 37.58125 127.7027Q37.221874 127.7027 36.940624 127.92145Q36.675 128.12457 36.565624 128.49957Q36.378124 129.06207 36.378124 129.71832L36.378124 132.98395L35.33125 132.98395ZM42.346874 125.60895L42.346874 124.3902L43.409374 124.3902L43.409374 125.60895L42.346874 125.60895ZM42.346874 132.98395L42.346874 126.7652L43.409374 126.7652L43.409374 132.98395L42.346874 132.98395ZM45.346874 132.98395L45.346874 126.7652L46.284374 126.7652L46.284374 127.6402Q46.971874 126.62457 48.26875 126.62457Q48.83125 126.62457 49.3 126.8277Q49.784374 127.03082 50.01875 127.35895Q50.253124 127.68707 50.346874 128.12457Q50.39375 128.42145 50.39375 129.15582L50.39375 132.98395L49.346874 132.98395L49.346874 129.2027Q49.346874 128.54645 49.221874 128.23395Q49.096874 127.92145 48.784374 127.73395Q48.471874 127.53082 48.05 127.53082Q47.378124 127.53082 46.878124 127.96832Q46.39375 128.3902 46.39375 129.5777L46.39375 132.98395L45.346874 132.98395ZM51.925 131.12457L52.95625 130.96832Q53.05 131.59332 53.440624 131.92145Q53.846874 132.24957 54.58125 132.24957Q55.3 132.24957 55.64375 131.96832Q56.003124 131.67145 56.003124 131.2652Q56.003124 130.90582 55.690624 130.7027Q55.471874 130.56207 54.6125 130.34332Q53.45625 130.04645 53.003124 129.84332Q52.565624 129.62457 52.33125 129.24957Q52.096874 128.87457 52.096874 128.40582Q52.096874 127.99957 52.284374 127.6402Q52.471874 127.28082 52.8 127.04645Q53.05 126.87457 53.471874 126.74957Q53.89375 126.62457 54.39375 126.62457Q55.1125 126.62457 55.659374 126.84332Q56.221874 127.04645 56.4875 127.40582Q56.753124 127.7652 56.846874 128.35895L55.815624 128.49957Q55.753124 128.03082 55.409374 127.7652Q55.08125 127.48395 54.45625 127.48395Q53.7375 127.48395 53.425 127.73395Q53.1125 127.96832 53.1125 128.29645Q53.1125 128.49957 53.2375 128.65582Q53.378124 128.8277 53.64375 128.93707Q53.8 128.99957 54.58125 129.2027Q55.70625 129.5152 56.14375 129.7027Q56.58125 129.8902 56.83125 130.24957Q57.08125 130.60895 57.08125 131.15582Q57.08125 131.68707 56.76875 132.15582Q56.471874 132.60895 55.89375 132.87457Q55.315624 133.12457 54.58125 133.12457Q53.3625 133.12457 52.721874 132.62457Q52.096874 132.10895 51.925 131.12457ZM63.425 132.98395L63.425 132.06207Q62.690624 133.12457 61.440624 133.12457Q60.89375 133.12457 60.409374 132.92145Q59.940624 132.7027 59.70625 132.3902Q59.471874 132.06207 59.378124 131.59332Q59.315624 131.29645 59.315624 130.60895L59.315624 126.7652L60.378124 126.7652L60.378124 130.21832Q60.378124 131.03082 60.440624 131.3277Q60.534374 131.73395 60.846874 131.98395Q61.175 132.21832 61.659374 132.21832Q62.128124 132.21832 62.534374 131.98395Q62.95625 131.73395 63.128124 131.31207Q63.315624 130.8902 63.315624 130.09332L63.315624 126.7652L64.3625 126.7652L64.3625 132.98395L63.425 132.98395ZM66.33125 132.98395L66.33125 126.7652L67.28438 126.7652L67.28438 127.7027Q67.64375 127.04645 67.94063 126.84332Q68.25313 126.62457 68.62813 126.62457Q69.15938 126.62457 69.70625 126.9527L69.34688 127.93707Q68.95625 127.7027 68.58125 127.7027Q68.22188 127.7027 67.94063 127.92145Q67.675 128.12457 67.56563 128.49957Q67.37813 129.06207 67.37813 129.71832L67.37813 132.98395L66.33125 132.98395ZM74.40938 132.21832Q73.81563 132.71832 73.26875 132.92145Q72.7375 133.12457 72.1125 133.12457Q71.08125 133.12457 70.53438 132.62457Q69.9875 132.12457 69.9875 131.34332Q69.9875 130.8902 70.19063 130.5152Q70.39375 130.12457 70.7375 129.90582Q71.08125 129.67145 71.50313 129.56207Q71.8 129.46832 72.44063 129.3902Q73.70625 129.24957 74.31563 129.03082Q74.31563 128.81207 74.31563 128.7652Q74.31563 128.10895 74.01875 127.84332Q73.6125 127.49957 72.81563 127.49957Q72.08125 127.49957 71.72188 127.7652Q71.3625 128.0152 71.19063 128.67145L70.15938 128.53082Q70.3 127.87457 70.62813 127.46832Q70.95625 127.06207 71.56563 126.84332Q72.175 126.62457 72.97188 126.62457Q73.76875 126.62457 74.26875 126.81207Q74.76875 126.99957 75.00313 127.28082Q75.2375 127.56207 75.33125 127.99957Q75.37813 128.2652 75.37813 128.96832L75.37813 130.37457Q75.37813 131.84332 75.44063 132.23395Q75.51875 132.62457 75.72188 132.98395L74.6125 132.98395Q74.45625 132.65582 74.40938 132.21832ZM74.31563 129.85895Q73.7375 130.09332 72.59688 130.2652Q71.94063 130.35895 71.675 130.48395Q71.40938 130.59332 71.25313 130.81207Q71.1125 131.03082 71.1125 131.31207Q71.1125 131.73395 71.425 132.0152Q71.75313 132.29645 72.3625 132.29645Q72.97188 132.29645 73.44063 132.03082Q73.925 131.7652 74.14375 131.29645Q74.31563 130.93707 74.31563 130.24957L74.31563 129.85895ZM77.34688 132.98395L77.34688 126.7652L78.28438 126.7652L78.28438 127.6402Q78.97188 126.62457 80.26875 126.62457Q80.83125 126.62457 81.3 126.8277Q81.78438 127.03082 82.01875 127.35895Q82.25313 127.68707 82.34688 128.12457Q82.39375 128.42145 82.39375 129.15582L82.39375 132.98395L81.34688 132.98395L81.34688 129.2027Q81.34688 128.54645 81.22188 128.23395Q81.09688 127.92145 80.78438 127.73395Q80.47188 127.53082 80.05 127.53082Q79.37813 127.53082 78.87813 127.96832Q78.39375 128.3902 78.39375 129.5777L78.39375 132.98395L77.34688 132.98395ZM88.40938 130.7027L89.44063 130.84332Q89.26875 131.90582 88.56563 132.5152Q87.8625 133.12457 86.84688 133.12457Q85.56563 133.12457 84.78438 132.29645Q84.01875 131.4527 84.01875 129.8902Q84.01875 128.8902 84.34688 128.1402Q84.69063 127.37457 85.3625 126.99957Q86.05 126.62457 86.8625 126.62457Q87.8625 126.62457 88.50313 127.1402Q89.15938 127.6402 89.34688 128.59332L88.31563 128.74957Q88.175 128.12457 87.8 127.81207Q87.425 127.48395 86.89375 127.48395Q86.09688 127.48395 85.59688 128.06207Q85.09688 128.62457 85.09688 129.85895Q85.09688 131.12457 85.58125 131.68707Q86.06563 132.24957 86.83125 132.24957Q87.45625 132.24957 87.8625 131.87457Q88.28438 131.49957 88.40938 130.7027ZM94.59688 130.98395L95.69063 131.10895Q95.44063 132.06207 94.7375 132.59332Q94.03438 133.12457 92.95625 133.12457Q91.59688 133.12457 90.78438 132.28082Q89.9875 131.43707 89.9875 129.92145Q89.9875 128.35895 90.8 127.49957Q91.6125 126.62457 92.89375 126.62457Q94.14375 126.62457 94.925 127.46832Q95.72188 128.31207 95.72188 129.85895Q95.72188 129.9527 95.72188 130.1402L91.08125 130.1402Q91.14375 131.17145 91.65938 131.71832Q92.175 132.24957 92.95625 132.24957Q93.53438 132.24957 93.94063 131.9527Q94.3625 131.6402 94.59688 130.98395ZM91.14375 129.28082L94.6125 129.28082Q94.55 128.48395 94.22188 128.09332Q93.70625 127.48395 92.90938 127.48395Q92.175 127.48395 91.675 127.96832Q91.19063 128.4527 91.14375 129.28082Z" fill-rule="nonzero"/><path fill="#9e9e9e" d="M19.05 147.71832L20.1125 147.5777Q20.284374 148.46832 20.721874 148.87457Q21.159374 149.2652 21.784374 149.2652Q22.534374 149.2652 23.05 148.74957Q23.565624 148.23395 23.565624 147.46832Q23.565624 146.74957 23.08125 146.28082Q22.6125 145.79645 21.878124 145.79645Q21.58125 145.79645 21.128124 145.92145L21.253124 144.98395Q21.3625 144.99957 21.425 144.99957Q22.096874 144.99957 22.628124 144.65582Q23.175 144.29645 23.175 143.56207Q23.175 142.98395 22.784374 142.60895Q22.39375 142.21832 21.76875 142.21832Q21.159374 142.21832 20.7375 142.60895Q20.33125 142.99957 20.221874 143.7652L19.159374 143.5777Q19.346874 142.53082 20.034374 141.9527Q20.721874 141.35895 21.7375 141.35895Q22.440624 141.35895 23.034374 141.67145Q23.628124 141.96832 23.940624 142.48395Q24.253124 142.99957 24.253124 143.59332Q24.253124 144.1402 23.95625 144.60895Q23.659374 145.06207 23.08125 145.3277Q23.83125 145.49957 24.253124 146.06207Q24.675 146.60895 24.675 147.4527Q24.675 148.5777 23.846874 149.35895Q23.034374 150.1402 21.784374 150.1402Q20.659374 150.1402 19.909374 149.46832Q19.159374 148.78082 19.05 147.71832ZM29.425 149.98395L29.425 147.92145L25.70625 147.92145L25.70625 146.9527L29.628124 141.3902L30.4875 141.3902L30.4875 146.9527L31.64375 146.9527L31.64375 147.92145L30.4875 147.92145L30.4875 149.98395L29.425 149.98395ZM29.425 146.9527L29.425 143.09332L26.7375 146.9527L29.425 146.9527ZM33.64375 149.98395L33.64375 148.78082L34.846874 148.78082L34.846874 149.98395L33.64375 149.98395ZM36.05 147.73395L37.159374 147.6402Q37.284374 148.4527 37.721874 148.85895Q38.175 149.2652 38.815624 149.2652Q39.565624 149.2652 40.096874 148.68707Q40.628124 148.10895 40.628124 147.17145Q40.628124 146.2652 40.1125 145.74957Q39.6125 145.21832 38.784374 145.21832Q38.284374 145.21832 37.8625 145.4527Q37.45625 145.68707 37.221874 146.04645L36.2375 145.92145L37.065624 141.5152L41.346874 141.5152L41.346874 142.5152L37.909374 142.5152L37.45625 144.8277Q38.221874 144.28082 39.065624 144.28082Q40.190624 144.28082 40.95625 145.06207Q41.7375 145.84332 41.7375 147.0777Q41.7375 148.23395 41.065624 149.09332Q40.2375 150.12457 38.815624 150.12457Q37.64375 150.12457 36.89375 149.46832Q36.159374 148.81207 36.05 147.73395ZM43.253124 143.4527Q43.253124 142.53082 43.70625 141.8902Q44.175 141.24957 45.05 141.24957Q45.8625 141.24957 46.39375 141.8277Q46.925 142.40582 46.925 143.5152Q46.925 144.60895 46.378124 145.2027Q45.846874 145.78082 45.065624 145.78082Q44.284374 145.78082 43.76875 145.2027Q43.253124 144.62457 43.253124 143.4527ZM45.08125 141.96832Q44.690624 141.96832 44.425 142.31207Q44.175 142.65582 44.175 143.56207Q44.175 144.3902 44.425 144.73395Q44.690624 145.06207 45.08125 145.06207Q45.4875 145.06207 45.7375 144.71832Q46.003124 144.37457 46.003124 143.48395Q46.003124 142.6402 45.7375 142.31207Q45.471874 141.96832 45.08125 141.96832ZM45.08125 150.29645L49.784374 141.24957L50.64375 141.24957L45.95625 150.29645L45.08125 150.29645ZM48.8 147.96832Q48.8 147.04645 49.253124 146.40582Q49.721874 145.7652 50.6125 145.7652Q51.425 145.7652 51.95625 146.34332Q52.4875 146.90582 52.4875 148.03082Q52.4875 149.12457 51.940624 149.71832Q51.409374 150.29645 50.6125 150.29645Q49.846874 150.29645 49.315624 149.71832Q48.8 149.1402 48.8 147.96832ZM50.64375 146.48395Q50.2375 146.48395 49.971874 146.8277Q49.721874 147.17145 49.721874 148.0777Q49.721874 148.8902 49.9875 149.23395Q50.253124 149.5777 50.64375 149.5777Q51.034374 149.5777 51.3 149.23395Q51.565624 148.8902 51.565624 147.98395Q51.565624 147.15582 51.3 146.8277Q51.034374 146.48395 50.64375 146.48395Z" fill-rule="nonzero"/><path stroke="#757575" stroke-width="1.0" stroke-linecap="butt" d="M18.55 137.48395L160.73334 137.48395L190.63472 137.48395" fill-rule="nonzero"/><path fill="#9e9e9e" d="M192.63472 137.48395C192.63472 136.37938 191.73929 135.48395 190.63472 135.48395C189.53015 135.48395 188.63472 136.37938 188.63472 137.48395C188.63472 138.58852 189.53015 139.48395 190.63472 139.48395C191.73929 139.48395 192.63472 138.58852 192.63472 137.48395" fill-rule="nonzero"/><path fill="#1a1a1a" d="M519.41876 265.38272L519.41876 256.78897L520.54376 256.78897L520.54376 260.32022L525.0125 260.32022L525.0125 256.78897L526.15314 256.78897L526.15314 265.38272L525.0125 265.38272L525.0125 261.33585L520.54376 261.33585L520.54376 265.38272L519.41876 265.38272ZM532.4969 263.38272L533.59064 263.50772Q533.34064 264.46085 532.6375 264.9921Q531.9344 265.52335 530.85626 265.52335Q529.4969 265.52335 528.6844 264.6796Q527.8875 263.83585 527.8875 262.32022Q527.8875 260.75772 528.7 259.89835Q529.5125 259.02335 530.79376 259.02335Q532.04376 259.02335 532.825 259.8671Q533.6219 260.71085 533.6219 262.25772Q533.6219 262.35147 533.6219 262.53897L528.98126 262.53897Q529.04376 263.57022 529.5594 264.1171Q530.075 264.64835 530.85626 264.64835Q531.4344 264.64835 531.84064 264.35147Q532.2625 264.03897 532.4969 263.38272ZM529.04376 261.6796L532.5125 261.6796Q532.45 260.88272 532.1219 260.4921Q531.60626 259.88272 530.8094 259.88272Q530.075 259.88272 529.575 260.3671Q529.09064 260.85147 529.04376 261.6796ZM539.3094 264.6171Q538.71564 265.1171 538.16876 265.32022Q537.6375 265.52335 537.0125 265.52335Q535.98126 265.52335 535.4344 265.02335Q534.8875 264.52335 534.8875 263.7421Q534.8875 263.28897 535.09064 262.91397Q535.29376 262.52335 535.6375 262.3046Q535.98126 262.07022 536.40314 261.96085Q536.7 261.8671 537.34064 261.78897Q538.60626 261.64835 539.21564 261.4296Q539.21564 261.21085 539.21564 261.16397Q539.21564 260.50772 538.91876 260.2421Q538.5125 259.89835 537.71564 259.89835Q536.98126 259.89835 536.6219 260.16397Q536.2625 260.41397 536.09064 261.07022L535.0594 260.9296Q535.2 260.27335 535.52814 259.8671Q535.85626 259.46085 536.46564 259.2421Q537.075 259.02335 537.8719 259.02335Q538.66876 259.02335 539.16876 259.21085Q539.66876 259.39835 539.90314 259.6796Q540.1375 259.96085 540.23126 260.39835Q540.27814 260.66397 540.27814 261.3671L540.27814 262.77335Q540.27814 264.2421 540.34064 264.63272Q540.41876 265.02335 540.6219 265.38272L539.5125 265.38272Q539.35626 265.0546 539.3094 264.6171ZM539.21564 262.25772Q538.6375 262.4921 537.4969 262.66397Q536.84064 262.75772 536.575 262.88272Q536.3094 262.9921 536.15314 263.21085Q536.0125 263.4296 536.0125 263.71085Q536.0125 264.13272 536.325 264.41397Q536.65314 264.69522 537.2625 264.69522Q537.8719 264.69522 538.34064 264.4296Q538.825 264.16397 539.04376 263.69522Q539.21564 263.33585 539.21564 262.64835L539.21564 262.25772ZM542.21564 265.38272L542.21564 256.78897L543.27814 256.78897L543.27814 265.38272L542.21564 265.38272ZM547.54376 264.44522L547.7 265.3671Q547.2469 265.46085 546.90314 265.46085Q546.325 265.46085 546.0125 265.28897Q545.7 265.10147 545.5594 264.8046Q545.4344 264.50772 545.4344 263.5546L545.4344 259.97647L544.66876 259.97647L544.66876 259.16397L545.4344 259.16397L545.4344 257.6171L546.48126 256.9921L546.48126 259.16397L547.54376 259.16397L547.54376 259.97647L546.48126 259.97647L546.48126 263.6171Q546.48126 264.07022 546.52814 264.19522Q546.59064 264.32022 546.71564 264.39835Q546.84064 264.47647 547.075 264.47647Q547.2625 264.47647 547.54376 264.44522ZM548.2469 265.38272L548.2469 256.78897L549.29376 256.78897L549.29376 259.8671Q550.02814 259.02335 551.15314 259.02335Q551.85626 259.02335 552.35626 259.3046Q552.8719 259.57022 553.09064 260.0546Q553.3094 260.52335 553.3094 261.44522L553.3094 265.38272L552.2625 265.38272L552.2625 261.44522Q552.2625 260.64835 551.91876 260.28897Q551.575 259.9296 550.95 259.9296Q550.48126 259.9296 550.0594 260.1796Q549.65314 260.41397 549.46564 260.83585Q549.29376 261.2421 549.29376 261.97647L549.29376 265.38272L548.2469 265.38272ZM558.2469 258.00772L558.2469 256.78897L559.3094 256.78897L559.3094 258.00772L558.2469 258.00772ZM558.2469 265.38272L558.2469 259.16397L559.3094 259.16397L559.3094 265.38272L558.2469 265.38272ZM561.2469 265.38272L561.2469 259.16397L562.1844 259.16397L562.1844 260.03897Q562.8719 259.02335 564.16876 259.02335Q564.73126 259.02335 565.2 259.22647Q565.6844 259.4296 565.91876 259.75772Q566.15314 260.08585 566.2469 260.52335Q566.29376 260.82022 566.29376 261.5546L566.29376 265.38272L565.2469 265.38272L565.2469 261.60147Q565.2469 260.94522 565.1219 260.63272Q564.9969 260.32022 564.6844 260.13272Q564.3719 259.9296 563.95 259.9296Q563.27814 259.9296 562.77814 260.3671Q562.29376 260.78897 562.29376 261.97647L562.29376 265.38272L561.2469 265.38272ZM567.825 263.52335L568.85626 263.3671Q568.95 263.9921 569.34064 264.32022Q569.7469 264.64835 570.48126 264.64835Q571.2 264.64835 571.54376 264.3671Q571.90314 264.07022 571.90314 263.66397Q571.90314 263.3046 571.59064 263.10147Q571.3719 262.96085 570.5125 262.7421Q569.35626 262.44522 568.90314 262.2421Q568.46564 262.02335 568.23126 261.64835Q567.9969 261.27335 567.9969 260.8046Q567.9969 260.39835 568.1844 260.03897Q568.3719 259.6796 568.7 259.44522Q568.95 259.27335 569.3719 259.14835Q569.79376 259.02335 570.29376 259.02335Q571.0125 259.02335 571.5594 259.2421Q572.1219 259.44522 572.3875 259.8046Q572.65314 260.16397 572.7469 260.75772L571.71564 260.89835Q571.65314 260.4296 571.3094 260.16397Q570.98126 259.88272 570.35626 259.88272Q569.6375 259.88272 569.325 260.13272Q569.0125 260.3671 569.0125 260.69522Q569.0125 260.89835 569.1375 261.0546Q569.27814 261.22647 569.54376 261.33585Q569.7 261.39835 570.48126 261.60147Q571.60626 261.91397 572.04376 262.10147Q572.48126 262.28897 572.73126 262.64835Q572.98126 263.00772 572.98126 263.5546Q572.98126 264.08585 572.66876 264.5546Q572.3719 265.00772 571.79376 265.27335Q571.21564 265.52335 570.48126 265.52335Q569.2625 265.52335 568.6219 265.02335Q567.9969 264.50772 567.825 263.52335ZM579.325 265.38272L579.325 264.46085Q578.59064 265.52335 577.34064 265.52335Q576.79376 265.52335 576.3094 265.32022Q575.84064 265.10147 575.60626 264.78897Q575.3719 264.46085 575.27814 263.9921Q575.21564 263.69522 575.21564 263.00772L575.21564 259.16397L576.27814 259.16397L576.27814 262.6171Q576.27814 263.4296 576.34064 263.72647Q576.4344 264.13272 576.7469 264.38272Q577.075 264.6171 577.5594 264.6171Q578.02814 264.6171 578.4344 264.38272Q578.85626 264.13272 579.02814 263.71085Q579.21564 263.28897 579.21564 262.4921L579.21564 259.16397L580.2625 259.16397L580.2625 265.38272L579.325 265.38272ZM582.23126 265.38272L582.23126 259.16397L583.1844 259.16397L583.1844 260.10147Q583.54376 259.44522 583.84064 259.2421Q584.15314 259.02335 584.52814 259.02335Q585.0594 259.02335 585.60626 259.35147L585.2469 260.33585Q584.85626 260.10147 584.48126 260.10147Q584.1219 260.10147 583.84064 260.32022Q583.575 260.52335 583.46564 260.89835Q583.27814 261.46085 583.27814 262.1171L583.27814 265.38272L582.23126 265.38272ZM590.3094 264.6171Q589.71564 265.1171 589.16876 265.32022Q588.6375 265.52335 588.0125 265.52335Q586.98126 265.52335 586.4344 265.02335Q585.8875 264.52335 585.8875 263.7421Q585.8875 263.28897 586.09064 262.91397Q586.29376 262.52335 586.6375 262.3046Q586.98126 262.07022 587.40314 261.96085Q587.7 261.8671 588.34064 261.78897Q589.60626 261.64835 590.21564 261.4296Q590.21564 261.21085 590.21564 261.16397Q590.21564 260.50772 589.91876 260.2421Q589.5125 259.89835 588.71564 259.89835Q587.98126 259.89835 587.6219 260.16397Q587.2625 260.41397 587.09064 261.07022L586.0594 260.9296Q586.2 260.27335 586.52814 259.8671Q586.85626 259.46085 587.46564 259.2421Q588.075 259.02335 588.8719 259.02335Q589.66876 259.02335 590.16876 259.21085Q590.66876 259.39835 590.90314 259.6796Q591.1375 259.96085 591.23126 260.39835Q591.27814 260.66397 591.27814 261.3671L591.27814 262.77335Q591.27814 264.2421 591.34064 264.63272Q591.41876 265.02335 591.6219 265.38272L590.5125 265.38272Q590.35626 265.0546 590.3094 264.6171ZM590.21564 262.25772Q589.6375 262.4921 588.4969 262.66397Q587.84064 262.75772 587.575 262.88272Q587.3094 262.9921 587.15314 263.21085Q587.0125 263.4296 587.0125 263.71085Q587.0125 264.13272 587.325 264.41397Q587.65314 264.69522 588.2625 264.69522Q588.8719 264.69522 589.34064 264.4296Q589.825 264.16397 590.04376 263.69522Q590.21564 263.33585 590.21564 262.64835L590.21564 262.25772ZM593.2469 265.38272L593.2469 259.16397L594.1844 259.16397L594.1844 260.03897Q594.8719 259.02335 596.16876 259.02335Q596.73126 259.02335 597.2 259.22647Q597.6844 259.4296 597.91876 259.75772Q598.15314 260.08585 598.2469 260.52335Q598.29376 260.82022 598.29376 261.5546L598.29376 265.38272L597.2469 265.38272L597.2469 261.60147Q597.2469 260.94522 597.1219 260.63272Q596.9969 260.32022 596.6844 260.13272Q596.3719 259.9296 595.95 259.9296Q595.27814 259.9296 594.77814 260.3671Q594.29376 260.78897 594.29376 261.97647L594.29376 265.38272L593.2469 265.38272ZM604.3094 263.10147L605.34064 263.2421Q605.16876 264.3046 604.46564 264.91397Q603.7625 265.52335 602.7469 265.52335Q601.46564 265.52335 600.6844 264.69522Q599.91876 263.85147 599.91876 262.28897Q599.91876 261.28897 600.2469 260.53897Q600.59064 259.77335 601.2625 259.39835Q601.95 259.02335 602.7625 259.02335Q603.7625 259.02335 604.40314 259.53897Q605.0594 260.03897 605.2469 260.9921L604.21564 261.14835Q604.075 260.52335 603.7 260.21085Q603.325 259.88272 602.79376 259.88272Q601.9969 259.88272 601.4969 260.46085Q600.9969 261.02335 600.9969 262.25772Q600.9969 263.52335 601.48126 264.08585Q601.96564 264.64835 602.73126 264.64835Q603.35626 264.64835 603.7625 264.27335Q604.1844 263.89835 604.3094 263.10147ZM610.4969 263.38272L611.59064 263.50772Q611.34064 264.46085 610.6375 264.9921Q609.9344 265.52335 608.85626 265.52335Q607.4969 265.52335 606.6844 264.6796Q605.8875 263.83585 605.8875 262.32022Q605.8875 260.75772 606.7 259.89835Q607.5125 259.02335 608.79376 259.02335Q610.04376 259.02335 610.825 259.8671Q611.6219 260.71085 611.6219 262.25772Q611.6219 262.35147 611.6219 262.53897L606.98126 262.53897Q607.04376 263.57022 607.5594 264.1171Q608.075 264.64835 608.85626 264.64835Q609.4344 264.64835 609.84064 264.35147Q610.2625 264.03897 610.4969 263.38272ZM607.04376 261.6796L610.5125 261.6796Q610.45 260.88272 610.1219 260.4921Q609.60626 259.88272 608.8094 259.88272Q608.075 259.88272 607.575 260.3671Q607.09064 260.85147 607.04376 261.6796Z" fill-rule="nonzero"/><path fill="#9e9e9e" d="M583.41876 275.89835L582.3719 275.97647Q582.23126 275.35147 581.98126 275.07022Q581.54376 274.6171 580.91876 274.6171Q580.41876 274.6171 580.02814 274.89835Q579.54376 275.27335 579.2469 275.97647Q578.96564 276.66397 578.95 277.94522Q579.325 277.3671 579.8719 277.08585Q580.4344 276.8046 581.04376 276.8046Q582.09064 276.8046 582.825 277.58585Q583.575 278.3671 583.575 279.58585Q583.575 280.39835 583.21564 281.10147Q582.8719 281.78897 582.2625 282.16397Q581.65314 282.52335 580.8875 282.52335Q579.5594 282.52335 578.73126 281.5546Q577.90314 280.58585 577.90314 278.3671Q577.90314 275.8671 578.825 274.7421Q579.6219 273.75772 580.98126 273.75772Q581.9969 273.75772 582.6375 274.33585Q583.29376 274.89835 583.41876 275.89835ZM579.1219 279.60147Q579.1219 280.14835 579.34064 280.64835Q579.575 281.13272 579.98126 281.39835Q580.40314 281.66397 580.8719 281.66397Q581.52814 281.66397 582.0125 281.13272Q582.4969 280.58585 582.4969 279.66397Q582.4969 278.77335 582.0125 278.25772Q581.54376 277.7421 580.825 277.7421Q580.10626 277.7421 579.60626 278.25772Q579.1219 278.77335 579.1219 279.60147ZM584.95 280.13272L586.0594 280.03897Q586.1844 280.85147 586.6219 281.25772Q587.075 281.66397 587.71564 281.66397Q588.46564 281.66397 588.9969 281.08585Q589.52814 280.50772 589.52814 279.57022Q589.52814 278.66397 589.0125 278.14835Q588.5125 277.6171 587.6844 277.6171Q587.1844 277.6171 586.7625 277.85147Q586.35626 278.08585 586.1219 278.44522L585.1375 278.32022L585.96564 273.91397L590.2469 273.91397L590.2469 274.91397L586.8094 274.91397L586.35626 277.22647Q587.1219 276.6796 587.96564 276.6796Q589.09064 276.6796 589.85626 277.46085Q590.6375 278.2421 590.6375 279.47647Q590.6375 280.63272 589.96564 281.4921Q589.1375 282.52335 587.71564 282.52335Q586.54376 282.52335 585.79376 281.8671Q585.0594 281.21085 584.95 280.13272ZM592.54376 282.38272L592.54376 281.1796L593.7469 281.1796L593.7469 282.38272L592.54376 282.38272ZM594.95 280.13272L596.0594 280.03897Q596.1844 280.85147 596.6219 281.25772Q597.075 281.66397 597.71564 281.66397Q598.46564 281.66397 598.9969 281.08585Q599.52814 280.50772 599.52814 279.57022Q599.52814 278.66397 599.0125 278.14835Q598.5125 277.6171 597.6844 277.6171Q597.1844 277.6171 596.7625 277.85147Q596.35626 278.08585 596.1219 278.44522L595.1375 278.32022L595.96564 273.91397L600.2469 273.91397L600.2469 274.91397L596.8094 274.91397L596.35626 277.22647Q597.1219 276.6796 597.96564 276.6796Q599.09064 276.6796 599.85626 277.46085Q600.6375 278.2421 600.6375 279.47647Q600.6375 280.63272 599.96564 281.4921Q599.1375 282.52335 597.71564 282.52335Q596.54376 282.52335 595.79376 281.8671Q595.0594 281.21085 594.95 280.13272ZM602.15314 275.85147Q602.15314 274.9296 602.60626 274.28897Q603.075 273.64835 603.95 273.64835Q604.7625 273.64835 605.29376 274.22647Q605.825 274.8046 605.825 275.91397Q605.825 277.00772 605.27814 277.60147Q604.7469 278.1796 603.96564 278.1796Q603.1844 278.1796 602.66876 277.60147Q602.15314 277.02335 602.15314 275.85147ZM603.98126 274.3671Q603.59064 274.3671 603.325 274.71085Q603.075 275.0546 603.075 275.96085Q603.075 276.78897 603.325 277.13272Q603.59064 277.46085 603.98126 277.46085Q604.3875 277.46085 604.6375 277.1171Q604.90314 276.77335 604.90314 275.88272Q604.90314 275.03897 604.6375 274.71085Q604.3719 274.3671 603.98126 274.3671ZM603.98126 282.69522L608.6844 273.64835L609.54376 273.64835L604.85626 282.69522L603.98126 282.69522ZM607.7 280.3671Q607.7 279.44522 608.15314 278.8046Q608.6219 278.16397 609.5125 278.16397Q610.325 278.16397 610.85626 278.7421Q611.3875 279.3046 611.3875 280.4296Q611.3875 281.52335 610.84064 282.1171Q610.3094 282.69522 609.5125 282.69522Q608.7469 282.69522 608.21564 282.1171Q607.7 281.53897 607.7 280.3671ZM609.54376 278.88272Q609.1375 278.88272 608.8719 279.22647Q608.6219 279.57022 608.6219 280.47647Q608.6219 281.28897 608.8875 281.63272Q609.15314 281.97647 609.54376 281.97647Q609.9344 281.97647 610.2 281.63272Q610.46564 281.28897 610.46564 280.38272Q610.46564 279.5546 610.2 279.22647Q609.9344 278.88272 609.54376 278.88272Z" fill-rule="nonzero"/><path stroke="#757575" stroke-width="1.0" stroke-linecap="butt" d="M612.45 269.88272L470.26666 269.88272L440.3653 269.88272" fill-rule="nonzero"/><path fill="#9e9e9e" d="M442.3653 269.88272C442.3653 268.77814 441.46985 267.88272 440.3653 267.88272C439.2607 267.88272 438.3653 268.77814 438.3653 269.88272C438.3653 270.98727 439.2607 271.88272 440.3653 271.88272C441.46985 271.88272 442.3653 270.98727 442.3653 269.88272" fill-rule="nonzero"/><path fill="#757575" d="M22.596874 37.55L18.8 23.2375L20.7375 23.2375L22.909374 32.6125Q23.26875 34.096874 23.51875 35.55Q24.065624 33.253124 24.159374 32.89375L26.89375 23.2375L29.175 23.2375L31.221874 30.471874Q32.003124 33.175 32.346874 35.55Q32.6125 34.190624 33.05 32.425L35.3 23.2375L37.20625 23.2375L33.284374 37.55L31.45625 37.55L28.440624 26.64375Q28.05 25.26875 27.9875 24.95625Q27.753124 25.940624 27.565624 26.64375L24.534374 37.55L22.596874 37.55ZM38.221874 32.3625Q38.221874 29.4875 39.815624 28.096874Q41.159374 26.940624 43.08125 26.940624Q45.221874 26.940624 46.565624 28.346874Q47.925 29.753124 47.925 32.221874Q47.925 34.221874 47.33125 35.378124Q46.7375 36.51875 45.58125 37.159374Q44.440624 37.784374 43.08125 37.784374Q40.89375 37.784374 39.55 36.39375Q38.221874 34.9875 38.221874 32.3625ZM40.01875 32.3625Q40.01875 34.3625 40.878124 35.346874Q41.753124 36.33125 43.08125 36.33125Q44.39375 36.33125 45.253124 35.346874Q46.128124 34.346874 46.128124 32.3Q46.128124 30.378124 45.253124 29.39375Q44.378124 28.39375 43.08125 28.39375Q41.753124 28.39375 40.878124 29.39375Q40.01875 30.378124 40.01875 32.3625ZM56.659374 37.55L56.659374 36.01875Q55.45625 37.784374 53.378124 37.784374Q52.45625 37.784374 51.659374 37.440624Q50.8625 37.08125 50.471874 36.55Q50.096874 36.01875 49.940624 35.2375Q49.83125 34.721874 49.83125 33.596874L49.83125 27.175L51.58125 27.175L51.58125 32.925Q51.58125 34.3 51.690624 34.784374Q51.8625 35.471874 52.39375 35.878124Q52.940624 36.26875 53.721874 36.26875Q54.51875 36.26875 55.20625 35.8625Q55.909374 35.45625 56.190624 34.76875Q56.4875 34.065624 56.4875 32.7375L56.4875 27.175L58.2375 27.175L58.2375 37.55L56.659374 37.55ZM59.83125 37.55L59.83125 23.2375L61.58125 23.2375L61.58125 37.55L59.83125 37.55ZM70.59688 37.55L70.59688 36.2375Q69.6125 37.784374 67.69063 37.784374Q66.45625 37.784374 65.40938 37.096874Q64.37813 36.409374 63.8 35.190624Q63.2375 33.971874 63.2375 32.378124Q63.2375 30.815624 63.753124 29.55Q64.26875 28.284374 65.3 27.6125Q66.34688 26.940624 67.6125 26.940624Q68.55 26.940624 69.28438 27.346874Q70.01875 27.7375 70.4875 28.3625L70.4875 23.2375L72.22188 23.2375L72.22188 37.55L70.59688 37.55ZM65.03438 32.378124Q65.03438 34.3625 65.87813 35.346874Q66.72188 36.33125 67.8625 36.33125Q69.01875 36.33125 69.81563 35.39375Q70.62813 34.45625 70.62813 32.51875Q70.62813 30.39375 69.8 29.39375Q68.9875 28.39375 67.78438 28.39375Q66.6125 28.39375 65.81563 29.3625Q65.03438 30.315624 65.03438 32.378124ZM81.01875 37.55L81.01875 23.2375L82.90938 23.2375L82.90938 35.8625L89.95625 35.8625L89.95625 37.55L81.01875 37.55ZM91.87813 25.253124L91.87813 23.2375L93.64375 23.2375L93.64375 25.253124L91.87813 25.253124ZM91.87813 37.55L91.87813 27.175L93.64375 27.175L93.64375 37.55L91.87813 37.55ZM95.55 38.409374L97.25313 38.659374Q97.3625 39.45625 97.84688 39.815624Q98.50313 40.3 99.64375 40.3Q100.8625 40.3 101.51875 39.815624Q102.19063 39.33125 102.425 38.45625Q102.56563 37.909374 102.55 36.190624Q101.39375 37.55 99.675 37.55Q97.53438 37.55 96.3625 36.003124Q95.19063 34.45625 95.19063 32.3Q95.19063 30.815624 95.72188 29.565624Q96.26875 28.315624 97.28438 27.628124Q98.31563 26.940624 99.69063 26.940624Q101.51875 26.940624 102.72188 28.425L102.72188 27.175L104.33125 27.175L104.33125 36.14375Q104.33125 38.565624 103.83125 39.565624Q103.34688 40.58125 102.26875 41.159374Q101.20625 41.753124 99.64375 41.753124Q97.8 41.753124 96.64375 40.925Q95.50313 40.096874 95.55 38.409374ZM97.00313 32.175Q97.00313 34.221874 97.81563 35.159374Q98.62813 36.096874 99.84688 36.096874Q101.05 36.096874 101.8625 35.159374Q102.69063 34.221874 102.69063 32.2375Q102.69063 30.33125 101.84688 29.3625Q101.00313 28.39375 99.81563 28.39375Q98.64375 28.39375 97.81563 29.346874Q97.00313 30.3 97.00313 32.175ZM106.8625 37.55L106.8625 23.2375L108.62813 23.2375L108.62813 28.3625Q109.8625 26.940624 111.7375 26.940624Q112.87813 26.940624 113.72188 27.39375Q114.58125 27.846874 114.94063 28.659374Q115.31563 29.45625 115.31563 30.971874L115.31563 37.55L113.56563 37.55L113.56563 30.971874Q113.56563 29.659374 112.9875 29.065624Q112.40938 28.45625 111.37813 28.45625Q110.59688 28.45625 109.89375 28.8625Q109.20625 29.26875 108.90938 29.971874Q108.62813 30.659374 108.62813 31.878124L108.62813 37.55L106.8625 37.55ZM120.70625 35.971874L120.95625 37.534374Q120.22188 37.690624 119.62813 37.690624Q118.675 37.690624 118.14375 37.39375Q117.62813 37.08125 117.40938 36.596874Q117.19063 36.096874 117.19063 34.51875L117.19063 28.55L115.90938 28.55L115.90938 27.175L117.19063 27.175L117.19063 24.6125L118.94063 23.55L118.94063 27.175L120.70625 27.175L120.70625 28.55L118.94063 28.55L118.94063 34.6125Q118.94063 35.3625 119.03438 35.58125Q119.12813 35.784374 119.33125 35.925Q119.55 36.05 119.94063 36.05Q120.22188 36.05 120.70625 35.971874ZM122.87813 25.253124L122.87813 23.2375L124.64375 23.2375L124.64375 25.253124L122.87813 25.253124ZM122.87813 37.55L122.87813 27.175L124.64375 27.175L124.64375 37.55L122.87813 37.55ZM126.8625 37.55L126.8625 27.175L128.45625 27.175L128.45625 28.659374Q129.59688 26.940624 131.75313 26.940624Q132.69063 26.940624 133.47188 27.284374Q134.26875 27.6125 134.65938 28.159374Q135.05 28.70625 135.20625 29.45625Q135.3 29.95625 135.3 31.175L135.3 37.55L133.53438 37.55L133.53438 31.2375Q133.53438 30.159374 133.33125 29.628124Q133.12813 29.096874 132.59688 28.784374Q132.08125 28.471874 131.37813 28.471874Q130.25313 28.471874 129.44063 29.190624Q128.62813 29.89375 128.62813 31.878124L128.62813 37.55L126.8625 37.55ZM136.55 38.409374L138.25313 38.659374Q138.3625 39.45625 138.84688 39.815624Q139.50313 40.3 140.64375 40.3Q141.8625 40.3 142.51875 39.815624Q143.19063 39.33125 143.425 38.45625Q143.56563 37.909374 143.55 36.190624Q142.39375 37.55 140.675 37.55Q138.53438 37.55 137.3625 36.003124Q136.19063 34.45625 136.19063 32.3Q136.19063 30.815624 136.72188 29.565624Q137.26875 28.315624 138.28438 27.628124Q139.31563 26.940624 140.69063 26.940624Q142.51875 26.940624 143.72188 28.425L143.72188 27.175L145.33125 27.175L145.33125 36.14375Q145.33125 38.565624 144.83125 39.565624Q144.34688 40.58125 143.26875 41.159374Q142.20625 41.753124 140.64375 41.753124Q138.8 41.753124 137.64375 40.925Q136.50313 40.096874 136.55 38.409374ZM138.00313 32.175Q138.00313 34.221874 138.81563 35.159374Q139.62813 36.096874 140.84688 36.096874Q142.05 36.096874 142.8625 35.159374Q143.69063 34.221874 143.69063 32.2375Q143.69063 30.33125 142.84688 29.3625Q142.00313 28.39375 140.81563 28.39375Q139.64375 28.39375 138.81563 29.346874Q138.00313 30.3 138.00313 32.175ZM154.03438 37.55L154.03438 23.2375L156.89375 23.2375L160.26875 33.3625Q160.7375 34.784374 160.95625 35.4875Q161.20625 34.70625 161.72188 33.190624L165.14375 23.2375L167.69063 23.2375L167.69063 37.55L165.87813 37.55L165.87813 25.565624L161.70625 37.55L160.00313 37.55L155.8625 25.3625L155.8625 37.55L154.03438 37.55ZM177.64375 33.753124L179.3625 33.971874Q179.08125 35.76875 177.90938 36.784374Q176.75313 37.784374 175.05 37.784374Q172.925 37.784374 171.62813 36.39375Q170.33125 35.003124 170.33125 32.409374Q170.33125 30.721874 170.87813 29.471874Q171.44063 28.20625 172.58125 27.58125Q173.72188 26.940624 175.06563 26.940624Q176.75313 26.940624 177.81563 27.8Q178.89375 28.659374 179.20625 30.221874L177.4875 30.4875Q177.25313 29.440624 176.62813 28.925Q176.00313 28.39375 175.12813 28.39375Q173.8 28.39375 172.97188 29.346874Q172.14375 30.3 172.14375 32.346874Q172.14375 34.440624 172.94063 35.39375Q173.7375 36.33125 175.03438 36.33125Q176.06563 36.33125 176.75313 35.70625Q177.45625 35.065624 177.64375 33.753124ZM191.94063 36.01875Q193.26875 36.925 194.37813 37.346874L193.81563 38.659374Q192.26875 38.1125 190.7375 36.909374Q189.14375 37.8 187.22188 37.8Q185.28438 37.8 183.69063 36.8625Q182.1125 35.925 181.25313 34.221874Q180.40938 32.51875 180.40938 30.39375Q180.40938 28.26875 181.26875 26.534374Q182.12813 24.8 183.70625 23.89375Q185.3 22.971874 187.26875 22.971874Q189.25313 22.971874 190.83125 23.925Q192.425 24.8625 193.25313 26.565624Q194.09688 28.253124 194.09688 30.378124Q194.09688 32.14375 193.56563 33.565624Q193.03438 34.971874 191.94063 36.01875ZM187.76875 33.596874Q189.40938 34.05 190.47188 34.95625Q192.14375 33.440624 192.14375 30.378124Q192.14375 28.64375 191.55 27.346874Q190.97188 26.05 189.83125 25.33125Q188.69063 24.6125 187.26875 24.6125Q185.15938 24.6125 183.75313 26.065624Q182.3625 27.503124 182.3625 30.39375Q182.3625 33.190624 183.7375 34.690624Q185.12813 36.175 187.26875 36.175Q188.28438 36.175 189.19063 35.784374Q188.3 35.221874 187.31563 34.971874L187.76875 33.596874ZM203.65938 37.55L203.65938 36.01875Q202.45625 37.784374 200.37813 37.784374Q199.45625 37.784374 198.65938 37.440624Q197.8625 37.08125 197.47188 36.55Q197.09688 36.01875 196.94063 35.2375Q196.83125 34.721874 196.83125 33.596874L196.83125 27.175L198.58125 27.175L198.58125 32.925Q198.58125 34.3 198.69063 34.784374Q198.8625 35.471874 199.39375 35.878124Q199.94063 36.26875 200.72188 36.26875Q201.51875 36.26875 202.20625 35.8625Q202.90938 35.45625 203.19063 34.76875Q203.4875 34.065624 203.4875 32.7375L203.4875 27.175L205.2375 27.175L205.2375 37.55L203.65938 37.55ZM213.97188 34.20625L215.78438 34.440624Q215.3625 36.01875 214.19063 36.909374Q213.03438 37.784374 211.22188 37.784374Q208.95625 37.784374 207.6125 36.39375Q206.28438 34.9875 206.28438 32.45625Q206.28438 29.83125 207.62813 28.39375Q208.97188 26.940624 211.12813 26.940624Q213.20625 26.940624 214.51875 28.3625Q215.84688 29.76875 215.84688 32.346874Q215.84688 32.503124 215.83125 32.815624L208.09688 32.815624Q208.19063 34.51875 209.06563 35.425Q209.94063 36.33125 211.2375 36.33125Q212.20625 36.33125 212.87813 35.83125Q213.56563 35.315624 213.97188 34.20625ZM208.19063 31.3625L213.9875 31.3625Q213.87813 30.065624 213.33125 29.409374Q212.4875 28.39375 211.14375 28.39375Q209.94063 28.39375 209.1125 29.20625Q208.28438 30.003124 208.19063 31.3625ZM224.97188 34.20625L226.78438 34.440624Q226.3625 36.01875 225.19063 36.909374Q224.03438 37.784374 222.22188 37.784374Q219.95625 37.784374 218.6125 36.39375Q217.28438 34.9875 217.28438 32.45625Q217.28438 29.83125 218.62813 28.39375Q219.97188 26.940624 222.12813 26.940624Q224.20625 26.940624 225.51875 28.3625Q226.84688 29.76875 226.84688 32.346874Q226.84688 32.503124 226.83125 32.815624L219.09688 32.815624Q219.19063 34.51875 220.06563 35.425Q220.94063 36.33125 222.2375 36.33125Q223.20625 36.33125 223.87813 35.83125Q224.56563 35.315624 224.97188 34.20625ZM219.19063 31.3625L224.9875 31.3625Q224.87813 30.065624 224.33125 29.409374Q223.4875 28.39375 222.14375 28.39375Q220.94063 28.39375 220.1125 29.20625Q219.28438 30.003124 219.19063 31.3625ZM228.8625 37.55L228.8625 27.175L230.45625 27.175L230.45625 28.659374Q231.59688 26.940624 233.75313 26.940624Q234.69063 26.940624 235.47188 27.284374Q236.26875 27.6125 236.65938 28.159374Q237.05 28.70625 237.20625 29.45625Q237.3 29.95625 237.3 31.175L237.3 37.55L235.53438 37.55L235.53438 31.2375Q235.53438 30.159374 235.33125 29.628124Q235.12813 29.096874 234.59688 28.784374Q234.08125 28.471874 233.37813 28.471874Q232.25313 28.471874 231.44063 29.190624Q230.62813 29.89375 230.62813 31.878124L230.62813 37.55L228.8625 37.55ZM244.8625 37.55L244.8625 23.2375L246.62813 23.2375L246.62813 28.3625Q247.8625 26.940624 249.7375 26.940624Q250.87813 26.940624 251.72188 27.39375Q252.58125 27.846874 252.94063 28.659374Q253.31563 29.45625 253.31563 30.971874L253.31563 37.55L251.56563 37.55L251.56563 30.971874Q251.56563 29.659374 250.9875 29.065624Q250.40938 28.45625 249.37813 28.45625Q248.59688 28.45625 247.89375 28.8625Q247.20625 29.26875 246.90938 29.971874Q246.62813 30.659374 246.62813 31.878124L246.62813 37.55L244.8625 37.55ZM261.64374 36.26875Q260.65936 37.096874 259.7531 37.440624Q258.84686 37.784374 257.8156 37.784374Q256.1125 37.784374 255.19063 36.95625Q254.26875 36.1125 254.26875 34.815624Q254.26875 34.05 254.6125 33.425Q254.97188 32.8 255.53438 32.425Q256.09686 32.034374 256.8 31.83125Q257.3156 31.70625 258.3625 31.565624Q260.4875 31.315624 261.4875 30.971874Q261.5031 30.6125 261.5031 30.503124Q261.5031 29.440624 261.0031 28.9875Q260.33124 28.39375 259.0031 28.39375Q257.7531 28.39375 257.15936 28.83125Q256.58124 29.26875 256.3 30.378124L254.58125 30.14375Q254.81563 29.034374 255.34688 28.3625Q255.87813 27.675 256.89374 27.315624Q257.90936 26.940624 259.2531 26.940624Q260.58124 26.940624 261.40936 27.253124Q262.2375 27.565624 262.6281 28.05Q263.01874 28.51875 263.175 29.2375Q263.26874 29.690624 263.26874 30.8625L263.26874 33.20625Q263.26874 35.659374 263.3781 36.315624Q263.4875 36.95625 263.83124 37.55L261.9875 37.55Q261.72186 37.003124 261.64374 36.26875ZM261.4875 32.346874Q260.53436 32.7375 258.6125 33.003124Q257.53436 33.159374 257.08124 33.3625Q256.64374 33.55 256.39374 33.925Q256.14374 34.3 256.14374 34.76875Q256.14374 35.471874 256.675 35.940624Q257.20624 36.409374 258.2375 36.409374Q259.2531 36.409374 260.03436 35.971874Q260.83124 35.51875 261.20624 34.753124Q261.4875 34.14375 261.4875 32.9875L261.4875 32.346874ZM268.7531 37.55L264.8 27.175L266.65936 27.175L268.89374 33.39375Q269.2531 34.39375 269.55 35.471874Q269.78436 34.659374 270.20624 33.503124L272.5031 27.175L274.3156 27.175L270.39374 37.55L268.7531 37.55ZM281.97186 34.20625L283.78436 34.440624Q283.3625 36.01875 282.1906 36.909374Q281.03436 37.784374 279.22186 37.784374Q276.95624 37.784374 275.6125 36.39375Q274.28436 34.9875 274.28436 32.45625Q274.28436 29.83125 275.6281 28.39375Q276.97186 26.940624 279.1281 26.940624Q281.20624 26.940624 282.51874 28.3625Q283.84686 29.76875 283.84686 32.346874Q283.84686 32.503124 283.83124 32.815624L276.09686 32.815624Q276.1906 34.51875 277.0656 35.425Q277.9406 36.33125 279.2375 36.33125Q280.20624 36.33125 280.8781 35.83125Q281.5656 35.315624 281.97186 34.20625ZM276.1906 31.3625L281.9875 31.3625Q281.8781 30.065624 281.33124 29.409374Q280.4875 28.39375 279.14374 28.39375Q277.9406 28.39375 277.1125 29.20625Q276.28436 30.003124 276.1906 31.3625ZM298.64374 33.753124L300.3625 33.971874Q300.08124 35.76875 298.90936 36.784374Q297.7531 37.784374 296.05 37.784374Q293.925 37.784374 292.6281 36.39375Q291.33124 35.003124 291.33124 32.409374Q291.33124 30.721874 291.8781 29.471874Q292.4406 28.20625 293.58124 27.58125Q294.72186 26.940624 296.0656 26.940624Q297.7531 26.940624 298.8156 27.8Q299.89374 28.659374 300.20624 30.221874L298.4875 30.4875Q298.2531 29.440624 297.6281 28.925Q297.0031 28.39375 296.1281 28.39375Q294.8 28.39375 293.97186 29.346874Q293.14374 30.3 293.14374 32.346874Q293.14374 34.440624 293.9406 35.39375Q294.7375 36.33125 296.03436 36.33125Q297.0656 36.33125 297.7531 35.70625Q298.45624 35.065624 298.64374 33.753124ZM308.64374 36.26875Q307.65936 37.096874 306.7531 37.440624Q305.84686 37.784374 304.8156 37.784374Q303.1125 37.784374 302.1906 36.95625Q301.26874 36.1125 301.26874 34.815624Q301.26874 34.05 301.6125 33.425Q301.97186 32.8 302.53436 32.425Q303.09686 32.034374 303.8 31.83125Q304.3156 31.70625 305.3625 31.565624Q307.4875 31.315624 308.4875 30.971874Q308.5031 30.6125 308.5031 30.503124Q308.5031 29.440624 308.0031 28.9875Q307.33124 28.39375 306.0031 28.39375Q304.7531 28.39375 304.15936 28.83125Q303.58124 29.26875 303.3 30.378124L301.58124 30.14375Q301.8156 29.034374 302.34686 28.3625Q302.8781 27.675 303.89374 27.315624Q304.90936 26.940624 306.2531 26.940624Q307.58124 26.940624 308.40936 27.253124Q309.2375 27.565624 309.6281 28.05Q310.01874 28.51875 310.175 29.2375Q310.26874 29.690624 310.26874 30.8625L310.26874 33.20625Q310.26874 35.659374 310.3781 36.315624Q310.4875 36.95625 310.83124 37.55L308.9875 37.55Q308.72186 37.003124 308.64374 36.26875ZM308.4875 32.346874Q307.53436 32.7375 305.6125 33.003124Q304.53436 33.159374 304.08124 33.3625Q303.64374 33.55 303.39374 33.925Q303.14374 34.3 303.14374 34.76875Q303.14374 35.471874 303.675 35.940624Q304.20624 36.409374 305.2375 36.409374Q306.2531 36.409374 307.03436 35.971874Q307.83124 35.51875 308.20624 34.753124Q308.4875 34.14375 308.4875 32.9875L308.4875 32.346874ZM312.84686 37.55L312.84686 27.175L314.425 27.175L314.425 28.753124Q315.03436 27.64375 315.55 27.3Q316.0656 26.940624 316.675 26.940624Q317.5656 26.940624 318.4875 27.503124L317.8781 29.14375Q317.2375 28.753124 316.59686 28.753124Q316.01874 28.753124 315.55 29.1125Q315.09686 29.45625 314.89374 30.065624Q314.6125 31.003124 314.6125 32.1125L314.6125 37.55L312.84686 37.55ZM325.8781 25.253124L325.8781 23.2375L327.64374 23.2375L327.64374 25.253124L325.8781 25.253124ZM325.8781 37.55L325.8781 27.175L327.64374 27.175L327.64374 37.55L325.8781 37.55ZM329.8625 37.55L329.8625 27.175L331.45624 27.175L331.45624 28.659374Q332.59686 26.940624 334.7531 26.940624Q335.6906 26.940624 336.47186 27.284374Q337.26874 27.6125 337.65936 28.159374Q338.05 28.70625 338.20624 29.45625Q338.3 29.95625 338.3 31.175L338.3 37.55L336.53436 37.55L336.53436 31.2375Q336.53436 30.159374 336.33124 29.628124Q336.1281 29.096874 335.59686 28.784374Q335.08124 28.471874 334.3781 28.471874Q333.2531 28.471874 332.4406 29.190624Q331.6281 29.89375 331.6281 31.878124L331.6281 37.55L329.8625 37.55ZM339.15936 34.45625L340.90936 34.175Q341.05 35.221874 341.72186 35.784374Q342.39374 36.33125 343.59686 36.33125Q344.8 36.33125 345.3781 35.846874Q345.97186 35.346874 345.97186 34.690624Q345.97186 34.096874 345.45624 33.753124Q345.09686 33.51875 343.65936 33.159374Q341.72186 32.659374 340.97186 32.315624Q340.2375 31.95625 339.84686 31.33125Q339.45624 30.690624 339.45624 29.925Q339.45624 29.2375 339.76874 28.64375Q340.09686 28.05 340.64374 27.659374Q341.05 27.3625 341.7531 27.159374Q342.47186 26.940624 343.28436 26.940624Q344.5031 26.940624 345.425 27.3Q346.34686 27.64375 346.78436 28.253124Q347.22186 28.846874 347.39374 29.846874L345.675 30.08125Q345.55 29.284374 344.9875 28.846874Q344.425 28.39375 343.40936 28.39375Q342.1906 28.39375 341.675 28.8Q341.15936 29.190624 341.15936 29.721874Q341.15936 30.065624 341.3781 30.346874Q341.58124 30.628124 342.05 30.815624Q342.3156 30.909374 343.59686 31.253124Q345.47186 31.753124 346.20624 32.08125Q346.9406 32.39375 347.3625 33.003124Q347.78436 33.596874 347.78436 34.503124Q347.78436 35.378124 347.26874 36.159374Q346.7531 36.940624 345.78436 37.3625Q344.8156 37.784374 343.59686 37.784374Q341.58124 37.784374 340.51874 36.940624Q339.45624 36.096874 339.15936 34.45625ZM356.65936 37.55L356.65936 36.01875Q355.45624 37.784374 353.3781 37.784374Q352.45624 37.784374 351.65936 37.440624Q350.8625 37.08125 350.47186 36.55Q350.09686 36.01875 349.9406 35.2375Q349.83124 34.721874 349.83124 33.596874L349.83124 27.175L351.58124 27.175L351.58124 32.925Q351.58124 34.3 351.6906 34.784374Q351.8625 35.471874 352.39374 35.878124Q352.9406 36.26875 353.72186 36.26875Q354.51874 36.26875 355.20624 35.8625Q355.90936 35.45625 356.1906 34.76875Q356.4875 34.065624 356.4875 32.7375L356.4875 27.175L358.2375 27.175L358.2375 37.55L356.65936 37.55ZM359.84686 37.55L359.84686 27.175L361.425 27.175L361.425 28.753124Q362.03436 27.64375 362.55 27.3Q363.0656 26.940624 363.675 26.940624Q364.5656 26.940624 365.4875 27.503124L364.8781 29.14375Q364.2375 28.753124 363.59686 28.753124Q363.01874 28.753124 362.55 29.1125Q362.09686 29.45625 361.89374 30.065624Q361.6125 31.003124 361.6125 32.1125L361.6125 37.55L359.84686 37.55ZM373.64374 36.26875Q372.65936 37.096874 371.7531 37.440624Q370.84686 37.784374 369.8156 37.784374Q368.1125 37.784374 367.1906 36.95625Q366.26874 36.1125 366.26874 34.815624Q366.26874 34.05 366.6125 33.425Q366.97186 32.8 367.53436 32.425Q368.09686 32.034374 368.8 31.83125Q369.3156 31.70625 370.3625 31.565624Q372.4875 31.315624 373.4875 30.971874Q373.5031 30.6125 373.5031 30.503124Q373.5031 29.440624 373.0031 28.9875Q372.33124 28.39375 371.0031 28.39375Q369.7531 28.39375 369.15936 28.83125Q368.58124 29.26875 368.3 30.378124L366.58124 30.14375Q366.8156 29.034374 367.34686 28.3625Q367.8781 27.675 368.89374 27.315624Q369.90936 26.940624 371.2531 26.940624Q372.58124 26.940624 373.40936 27.253124Q374.2375 27.565624 374.6281 28.05Q375.01874 28.51875 375.175 29.2375Q375.26874 29.690624 375.26874 30.8625L375.26874 33.20625Q375.26874 35.659374 375.3781 36.315624Q375.4875 36.95625 375.83124 37.55L373.9875 37.55Q373.72186 37.003124 373.64374 36.26875ZM373.4875 32.346874Q372.53436 32.7375 370.6125 33.003124Q369.53436 33.159374 369.08124 33.3625Q368.64374 33.55 368.39374 33.925Q368.14374 34.3 368.14374 34.76875Q368.14374 35.471874 368.675 35.940624Q369.20624 36.409374 370.2375 36.409374Q371.2531 36.409374 372.03436 35.971874Q372.83124 35.51875 373.20624 34.753124Q373.4875 34.14375 373.4875 32.9875L373.4875 32.346874ZM377.8625 37.55L377.8625 27.175L379.45624 27.175L379.45624 28.659374Q380.59686 26.940624 382.7531 26.940624Q383.6906 26.940624 384.47186 27.284374Q385.26874 27.6125 385.65936 28.159374Q386.05 28.70625 386.20624 29.45625Q386.3 29.95625 386.3 31.175L386.3 37.55L384.53436 37.55L384.53436 31.2375Q384.53436 30.159374 384.33124 29.628124Q384.1281 29.096874 383.59686 28.784374Q383.08124 28.471874 382.3781 28.471874Q381.2531 28.471874 380.4406 29.190624Q379.6281 29.89375 379.6281 31.878124L379.6281 37.55L377.8625 37.55ZM394.64374 33.753124L396.3625 33.971874Q396.08124 35.76875 394.90936 36.784374Q393.7531 37.784374 392.05 37.784374Q389.925 37.784374 388.6281 36.39375Q387.33124 35.003124 387.33124 32.409374Q387.33124 30.721874 387.8781 29.471874Q388.4406 28.20625 389.58124 27.58125Q390.72186 26.940624 392.0656 26.940624Q393.7531 26.940624 394.8156 27.8Q395.89374 28.659374 396.20624 30.221874L394.4875 30.4875Q394.2531 29.440624 393.6281 28.925Q393.0031 28.39375 392.1281 28.39375Q390.8 28.39375 389.97186 29.346874Q389.14374 30.3 389.14374 32.346874Q389.14374 34.440624 389.9406 35.39375Q390.7375 36.33125 392.03436 36.33125Q393.0656 36.33125 393.7531 35.70625Q394.45624 35.065624 394.64374 33.753124ZM404.97186 34.20625L406.78436 34.440624Q406.3625 36.01875 405.1906 36.909374Q404.03436 37.784374 402.22186 37.784374Q399.95624 37.784374 398.6125 36.39375Q397.28436 34.9875 397.28436 32.45625Q397.28436 29.83125 398.6281 28.39375Q399.97186 26.940624 402.1281 26.940624Q404.20624 26.940624 405.51874 28.3625Q406.84686 29.76875 406.84686 32.346874Q406.84686 32.503124 406.83124 32.815624L399.09686 32.815624Q399.1906 34.51875 400.0656 35.425Q400.9406 36.33125 402.2375 36.33125Q403.20624 36.33125 403.8781 35.83125Q404.5656 35.315624 404.97186 34.20625ZM399.1906 31.3625L404.9875 31.3625Q404.8781 30.065624 404.33124 29.409374Q403.4875 28.39375 402.14374 28.39375Q400.9406 28.39375 400.1125 29.20625Q399.28436 30.003124 399.1906 31.3625ZM414.22186 32.3625Q414.22186 29.4875 415.8156 28.096874Q417.15936 26.940624 419.08124 26.940624Q421.22186 26.940624 422.5656 28.346874Q423.925 29.753124 423.925 32.221874Q423.925 34.221874 423.33124 35.378124Q422.7375 36.51875 421.58124 37.159374Q420.4406 37.784374 419.08124 37.784374Q416.89374 37.784374 415.55 36.39375Q414.22186 34.9875 414.22186 32.3625ZM416.01874 32.3625Q416.01874 34.3625 416.8781 35.346874Q417.7531 36.33125 419.08124 36.33125Q420.39374 36.33125 421.2531 35.346874Q422.1281 34.346874 422.1281 32.3Q422.1281 30.378124 421.2531 29.39375Q420.3781 28.39375 419.08124 28.39375Q417.7531 28.39375 416.8781 29.39375Q416.01874 30.378124 416.01874 32.3625ZM425.84686 37.55L425.84686 27.175L427.425 27.175L427.425 28.753124Q428.03436 27.64375 428.55 27.3Q429.0656 26.940624 429.675 26.940624Q430.5656 26.940624 431.4875 27.503124L430.8781 29.14375Q430.2375 28.753124 429.59686 28.753124Q429.01874 28.753124 428.55 29.1125Q428.09686 29.45625 427.89374 30.065624Q427.6125 31.003124 427.6125 32.1125L427.6125 37.55L425.84686 37.55ZM438.8625 37.55L438.8625 23.2375L440.6281 23.2375L440.6281 28.3625Q441.8625 26.940624 443.7375 26.940624Q444.8781 26.940624 445.72186 27.39375Q446.58124 27.846874 446.9406 28.659374Q447.3156 29.45625 447.3156 30.971874L447.3156 37.55L445.5656 37.55L445.5656 30.971874Q445.5656 29.659374 444.9875 29.065624Q444.40936 28.45625 443.3781 28.45625Q442.59686 28.45625 441.89374 28.8625Q441.20624 29.26875 440.90936 29.971874Q440.6281 30.659374 440.6281 31.878124L440.6281 37.55L438.8625 37.55ZM455.97186 34.20625L457.78436 34.440624Q457.3625 36.01875 456.1906 36.909374Q455.03436 37.784374 453.22186 37.784374Q450.95624 37.784374 449.6125 36.39375Q448.28436 34.9875 448.28436 32.45625Q448.28436 29.83125 449.6281 28.39375Q450.97186 26.940624 453.1281 26.940624Q455.20624 26.940624 456.51874 28.3625Q457.84686 29.76875 457.84686 32.346874Q457.84686 32.503124 457.83124 32.815624L450.09686 32.815624Q450.1906 34.51875 451.0656 35.425Q451.9406 36.33125 453.2375 36.33125Q454.20624 36.33125 454.8781 35.83125Q455.5656 35.315624 455.97186 34.20625ZM450.1906 31.3625L455.9875 31.3625Q455.8781 30.065624 455.33124 29.409374Q454.4875 28.39375 453.14374 28.39375Q451.9406 28.39375 451.1125 29.20625Q450.28436 30.003124 450.1906 31.3625ZM466.64374 36.26875Q465.65936 37.096874 464.7531 37.440624Q463.84686 37.784374 462.8156 37.784374Q461.1125 37.784374 460.1906 36.95625Q459.26874 36.1125 459.26874 34.815624Q459.26874 34.05 459.6125 33.425Q459.97186 32.8 460.53436 32.425Q461.09686 32.034374 461.8 31.83125Q462.3156 31.70625 463.3625 31.565624Q465.4875 31.315624 466.4875 30.971874Q466.5031 30.6125 466.5031 30.503124Q466.5031 29.440624 466.0031 28.9875Q465.33124 28.39375 464.0031 28.39375Q462.7531 28.39375 462.15936 28.83125Q461.58124 29.26875 461.3 30.378124L459.58124 30.14375Q459.8156 29.034374 460.34686 28.3625Q460.8781 27.675 461.89374 27.315624Q462.90936 26.940624 464.2531 26.940624Q465.58124 26.940624 466.40936 27.253124Q467.2375 27.565624 467.6281 28.05Q468.01874 28.51875 468.175 29.2375Q468.26874 29.690624 468.26874 30.8625L468.26874 33.20625Q468.26874 35.659374 468.3781 36.315624Q468.4875 36.95625 468.83124 37.55L466.9875 37.55Q466.72186 37.003124 466.64374 36.26875ZM466.4875 32.346874Q465.53436 32.7375 463.6125 33.003124Q462.53436 33.159374 462.08124 33.3625Q461.64374 33.55 461.39374 33.925Q461.14374 34.3 461.14374 34.76875Q461.14374 35.471874 461.675 35.940624Q462.20624 36.409374 463.2375 36.409374Q464.2531 36.409374 465.03436 35.971874Q465.83124 35.51875 466.20624 34.753124Q466.4875 34.14375 466.4875 32.9875L466.4875 32.346874ZM470.83124 37.55L470.83124 23.2375L472.58124 23.2375L472.58124 37.55L470.83124 37.55ZM478.70624 35.971874L478.95624 37.534374Q478.22186 37.690624 477.6281 37.690624Q476.675 37.690624 476.14374 37.39375Q475.6281 37.08125 475.40936 36.596874Q475.1906 36.096874 475.1906 34.51875L475.1906 28.55L473.90936 28.55L473.90936 27.175L475.1906 27.175L475.1906 24.6125L476.9406 23.55L476.9406 27.175L478.70624 27.175L478.70624 28.55L476.9406 28.55L476.9406 34.6125Q476.9406 35.3625 477.03436 35.58125Q477.1281 35.784374 477.33124 35.925Q477.55 36.05 477.9406 36.05Q478.22186 36.05 478.70624 35.971874ZM480.8625 37.55L480.8625 23.2375L482.6281 23.2375L482.6281 28.3625Q483.8625 26.940624 485.7375 26.940624Q486.8781 26.940624 487.72186 27.39375Q488.58124 27.846874 488.9406 28.659374Q489.3156 29.45625 489.3156 30.971874L489.3156 37.55L487.5656 37.55L487.5656 30.971874Q487.5656 29.659374 486.9875 29.065624Q486.40936 28.45625 485.3781 28.45625Q484.59686 28.45625 483.89374 28.8625Q483.20624 29.26875 482.90936 29.971874Q482.6281 30.659374 482.6281 31.878124L482.6281 37.55L480.8625 37.55ZM496.8781 25.253124L496.8781 23.2375L498.64374 23.2375L498.64374 25.253124L496.8781 25.253124ZM496.8781 37.55L496.8781 27.175L498.64374 27.175L498.64374 37.55L496.8781 37.55ZM500.8625 37.55L500.8625 27.175L502.45624 27.175L502.45624 28.659374Q503.59686 26.940624 505.7531 26.940624Q506.6906 26.940624 507.47186 27.284374Q508.26874 27.6125 508.65936 28.159374Q509.05 28.70625 509.20624 29.45625Q509.3 29.95625 509.3 31.175L509.3 37.55L507.53436 37.55L507.53436 31.2375Q507.53436 30.159374 507.33124 29.628124Q507.1281 29.096874 506.59686 28.784374Q506.08124 28.471874 505.3781 28.471874Q504.2531 28.471874 503.4406 29.190624Q502.6281 29.89375 502.6281 31.878124L502.6281 37.55L500.8625 37.55ZM510.15936 34.45625L511.90936 34.175Q512.05 35.221874 512.72186 35.784374Q513.39374 36.33125 514.59686 36.33125Q515.8 36.33125 516.3781 35.846874Q516.97186 35.346874 516.97186 34.690624Q516.97186 34.096874 516.45624 33.753124Q516.09686 33.51875 514.65936 33.159374Q512.72186 32.659374 511.97186 32.315624Q511.2375 31.95625 510.84686 31.33125Q510.45624 30.690624 510.45624 29.925Q510.45624 29.2375 510.76874 28.64375Q511.09686 28.05 511.64374 27.659374Q512.05 27.3625 512.7531 27.159374Q513.47186 26.940624 514.28436 26.940624Q515.5031 26.940624 516.425 27.3Q517.34686 27.64375 517.78436 28.253124Q518.22186 28.846874 518.39374 29.846874L516.675 30.08125Q516.55 29.284374 515.9875 28.846874Q515.425 28.39375 514.40936 28.39375Q513.1906 28.39375 512.675 28.8Q512.15936 29.190624 512.15936 29.721874Q512.15936 30.065624 512.3781 30.346874Q512.58124 30.628124 513.05 30.815624Q513.3156 30.909374 514.59686 31.253124Q516.47186 31.753124 517.20624 32.08125Q517.9406 32.39375 518.3625 33.003124Q518.78436 33.596874 518.78436 34.503124Q518.78436 35.378124 518.26874 36.159374Q517.7531 36.940624 516.78436 37.3625Q515.8156 37.784374 514.59686 37.784374Q512.58124 37.784374 511.51874 36.940624Q510.45624 36.096874 510.15936 34.45625ZM527.65936 37.55L527.65936 36.01875Q526.45624 37.784374 524.3781 37.784374Q523.45624 37.784374 522.65936 37.440624Q521.8625 37.08125 521.47186 36.55Q521.09686 36.01875 520.9406 35.2375Q520.83124 34.721874 520.83124 33.596874L520.83124 27.175L522.58124 27.175L522.58124 32.925Q522.58124 34.3 522.6906 34.784374Q522.8625 35.471874 523.39374 35.878124Q523.9406 36.26875 524.72186 36.26875Q525.51874 36.26875 526.20624 35.8625Q526.90936 35.45625 527.1906 34.76875Q527.4875 34.065624 527.4875 32.7375L527.4875 27.175L529.2375 27.175L529.2375 37.55L527.65936 37.55ZM530.84686 37.55L530.84686 27.175L532.425 27.175L532.425 28.753124Q533.03436 27.64375 533.55 27.3Q534.0656 26.940624 534.675 26.940624Q535.5656 26.940624 536.4875 27.503124L535.8781 29.14375Q535.2375 28.753124 534.59686 28.753124Q534.01874 28.753124 533.55 29.1125Q533.09686 29.45625 532.89374 30.065624Q532.6125 31.003124 532.6125 32.1125L532.6125 37.55L530.84686 37.55ZM544.64374 36.26875Q543.65936 37.096874 542.7531 37.440624Q541.84686 37.784374 540.8156 37.784374Q539.1125 37.784374 538.1906 36.95625Q537.26874 36.1125 537.26874 34.815624Q537.26874 34.05 537.6125 33.425Q537.97186 32.8 538.53436 32.425Q539.09686 32.034374 539.8 31.83125Q540.3156 31.70625 541.3625 31.565624Q543.4875 31.315624 544.4875 30.971874Q544.5031 30.6125 544.5031 30.503124Q544.5031 29.440624 544.0031 28.9875Q543.33124 28.39375 542.0031 28.39375Q540.7531 28.39375 540.15936 28.83125Q539.58124 29.26875 539.3 30.378124L537.58124 30.14375Q537.8156 29.034374 538.34686 28.3625Q538.8781 27.675 539.89374 27.315624Q540.90936 26.940624 542.2531 26.940624Q543.58124 26.940624 544.40936 27.253124Q545.2375 27.565624 545.6281 28.05Q546.01874 28.51875 546.175 29.2375Q546.26874 29.690624 546.26874 30.8625L546.26874 33.20625Q546.26874 35.659374 546.3781 36.315624Q546.4875 36.95625 546.83124 37.55L544.9875 37.55Q544.72186 37.003124 544.64374 36.26875ZM544.4875 32.346874Q543.53436 32.7375 541.6125 33.003124Q540.53436 33.159374 540.08124 33.3625Q539.64374 33.55 539.39374 33.925Q539.14374 34.3 539.14374 34.76875Q539.14374 35.471874 539.675 35.940624Q540.20624 36.409374 541.2375 36.409374Q542.2531 36.409374 543.03436 35.971874Q543.83124 35.51875 544.20624 34.753124Q544.4875 34.14375 544.4875 32.9875L544.4875 32.346874ZM548.8625 37.55L548.8625 27.175L550.45624 27.175L550.45624 28.659374Q551.59686 26.940624 553.7531 26.940624Q554.6906 26.940624 555.47186 27.284374Q556.26874 27.6125 556.65936 28.159374Q557.05 28.70625 557.20624 29.45625Q557.3 29.95625 557.3 31.175L557.3 37.55L555.53436 37.55L555.53436 31.2375Q555.53436 30.159374 555.33124 29.628124Q555.1281 29.096874 554.59686 28.784374Q554.08124 28.471874 553.3781 28.471874Q552.2531 28.471874 551.4406 29.190624Q550.6281 29.89375 550.6281 31.878124L550.6281 37.55L548.8625 37.55ZM565.64374 33.753124L567.3625 33.971874Q567.08124 35.76875 565.90936 36.784374Q564.7531 37.784374 563.05 37.784374Q560.925 37.784374 559.6281 36.39375Q558.33124 35.003124 558.33124 32.409374Q558.33124 30.721874 558.8781 29.471874Q559.4406 28.20625 560.58124 27.58125Q561.72186 26.940624 563.0656 26.940624Q564.7531 26.940624 565.8156 27.8Q566.89374 28.659374 567.20624 30.221874L565.4875 30.4875Q565.2531 29.440624 564.6281 28.925Q564.0031 28.39375 563.1281 28.39375Q561.8 28.39375 560.97186 29.346874Q560.14374 30.3 560.14374 32.346874Q560.14374 34.440624 560.9406 35.39375Q561.7375 36.33125 563.03436 36.33125Q564.0656 36.33125 564.7531 35.70625Q565.45624 35.065624 565.64374 33.753124ZM575.97186 34.20625L577.78436 34.440624Q577.3625 36.01875 576.1906 36.909374Q575.03436 37.784374 573.22186 37.784374Q570.95624 37.784374 569.6125 36.39375Q568.28436 34.9875 568.28436 32.45625Q568.28436 29.83125 569.6281 28.39375Q570.97186 26.940624 573.1281 26.940624Q575.20624 26.940624 576.51874 28.3625Q577.84686 29.76875 577.84686 32.346874Q577.84686 32.503124 577.83124 32.815624L570.09686 32.815624Q570.1906 34.51875 571.0656 35.425Q571.9406 36.33125 573.2375 36.33125Q574.20624 36.33125 574.8781 35.83125Q575.5656 35.315624 575.97186 34.20625ZM570.1906 31.3625L575.9875 31.3625Q575.8781 30.065624 575.33124 29.409374Q574.4875 28.39375 573.14374 28.39375Q571.9406 28.39375 571.1125 29.20625Q570.28436 30.003124 570.1906 31.3625ZM583.15936 34.01875Q583.14374 33.675 583.14374 33.503124Q583.14374 32.45625 583.4406 31.70625Q583.65936 31.14375 584.14374 30.565624Q584.4875 30.14375 585.39374 29.346874Q586.3156 28.534374 586.58124 28.065624Q586.8625 27.58125 586.8625 27.01875Q586.8625 25.9875 586.05 25.221874Q585.2531 24.440624 584.09686 24.440624Q582.97186 24.440624 582.22186 25.14375Q581.47186 25.846874 581.2375 27.33125L579.425 27.1125Q579.675 25.1125 580.8781 24.05Q582.08124 22.9875 584.0656 22.9875Q586.175 22.9875 587.425 24.128124Q588.675 25.26875 588.675 26.89375Q588.675 27.83125 588.22186 28.628124Q587.78436 29.409374 586.5031 30.55Q585.64374 31.315624 585.3781 31.675Q585.1281 32.034374 584.9875 32.503124Q584.8625 32.971874 584.84686 34.01875L583.15936 34.01875ZM583.05 37.55L583.05 35.55L585.05 35.55L585.05 37.55L583.05 37.55Z" fill-rule="nonzero"/></svg>