<svg version="1.1" viewBox="0.0 0.0 751.0 371.0" fill="none" stroke="none" stroke-linecap="square" stroke-miterlimit="10" width="751" height="371" xmlns:xlink="http://www.w3.org/1999/xlink" xmlns="http://www.w3.org/2000/svg"><path fill="#ffffff" d="M0 0L751.0 0L751.0 371.0L0 371.0L0 0Z" fill-rule="nonzero"/><path fill="#4285f4" d="M375.5 54.916668C454.73294 54.916668 520.0626 117.01717 524.07574 196.14842C528.0888 275.27966 469.3769 343.67087 390.55048 351.68674L375.5 203.68333Z" fill-rule="nonzero"/><path fill="#7ed1d7" d="M345.5535 57.96193C355.407 55.936977 365.44055 54.916668 375.5 54.916668L375.5 203.68333Z" fill-rule="nonzero"/><path fill="#ff994d" d="M316.833 66.973045C326.0772 63.00604 335.69995 59.98688 345.5535 57.96193L375.5 203.68333Z" fill-rule="nonzero"/><path fill="#71c287" d="M290.51434 81.58109C298.77075 75.83444 307.58878 70.94005 316.833 66.973045L375.5 203.68333Z" fill-rule="nonzero"/><path fill="#fcd04f" d="M267.675 101.18802C274.60562 93.897 282.2579 87.327736 290.51434 81.58109L375.5 203.68333Z" fill-rule="nonzero"/><path fill="#f07b72" d="M249.25002 124.99112C254.5711 116.45422 260.74435 108.47904 267.675 101.18802L375.5 203.68333Z" fill-rule="nonzero"/><path fill="#7baaf7" d="M257.85892 294.7443C219.76485 245.5308 216.33023 177.80603 249.25002 124.99112L375.5 203.68333Z" fill-rule="nonzero"/><path fill="#46bdc6" d="M278.59747 316.56125C270.96478 310.0088 264.0164 302.69907 257.85892 294.7443L375.5 203.68333Z" fill-rule="nonzero"/><path fill="#ff6d01" d="M303.30325 333.75696C294.50778 328.8751 286.2302 323.1137 278.59747 316.56125L375.5 203.68333Z" fill-rule="nonzero"/><path fill="#34a853" d="M330.96475 345.62744C321.36664 342.61603 312.0987 338.63882 303.30325 333.75696L375.5 203.68333Z" fill-rule="nonzero"/><path fill="#fbbc04" d="M360.44952 351.68674C350.44168 350.66904 340.56287 348.6389 330.96475 345.62744L375.5 203.68333Z" fill-rule="nonzero"/><path fill="#ea4335" d="M390.55048 351.68674C380.54263 352.70444 370.45737 352.70444 360.44952 351.68674L375.5 203.68333Z" fill-rule="nonzero"/><path fill="#1a1a1a" d="M25.6125 62.90104L26.7375 63.197914Q26.378124 64.58854 25.45625 65.322914Q24.534374 66.05729 23.190624 66.05729Q21.8 66.05729 20.925 65.49479Q20.05 64.93229 19.596874 63.86979Q19.14375 62.791664 19.14375 61.55729Q19.14375 60.21354 19.659374 59.21354Q20.175 58.21354 21.1125 57.697914Q22.065624 57.18229 23.20625 57.18229Q24.4875 57.18229 25.3625 57.83854Q26.253124 58.49479 26.596874 59.68229L25.471874 59.947914Q25.175 59.010414 24.596874 58.58854Q24.034374 58.15104 23.175 58.15104Q22.190624 58.15104 21.51875 58.635414Q20.8625 59.104164 20.58125 59.90104Q20.315624 60.697914 20.315624 61.55729Q20.315624 62.65104 20.628124 63.46354Q20.95625 64.27604 21.628124 64.68229Q22.3 65.08854 23.096874 65.08854Q24.05 65.08854 24.70625 64.541664Q25.378124 63.99479 25.6125 62.90104ZM28.346874 65.916664L28.346874 57.322914L29.39375 57.322914L29.39375 60.40104Q30.128124 59.55729 31.253124 59.55729Q31.95625 59.55729 32.45625 59.83854Q32.971874 60.104164 33.190624 60.58854Q33.409374 61.05729 33.409374 61.979164L33.409374 65.916664L32.3625 65.916664L32.3625 61.979164Q32.3625 61.18229 32.01875 60.822914Q31.675 60.46354 31.05 60.46354Q30.58125 60.46354 30.159374 60.71354Q29.753124 60.947914 29.565624 61.36979Q29.39375 61.77604 29.39375 62.510414L29.39375 65.916664L28.346874 65.916664ZM35.346874 58.541664L35.346874 57.322914L36.409374 57.322914L36.409374 58.541664L35.346874 58.541664ZM35.346874 65.916664L35.346874 59.697914L36.409374 59.697914L36.409374 65.916664L35.346874 65.916664ZM38.346874 65.916664L38.346874 59.697914L39.284374 59.697914L39.284374 60.572914Q39.971874 59.55729 41.26875 59.55729Q41.83125 59.55729 42.3 59.760414Q42.784374 59.96354 43.01875 60.291664Q43.253124 60.61979 43.346874 61.05729Q43.39375 61.354164 43.39375 62.08854L43.39375 65.916664L42.346874 65.916664L42.346874 62.135414Q42.346874 61.479164 42.221874 61.166664Q42.096874 60.854164 41.784374 60.666664Q41.471874 60.46354 41.05 60.46354Q40.378124 60.46354 39.878124 60.90104Q39.39375 61.322914 39.39375 62.510414L39.39375 65.916664L38.346874 65.916664ZM49.596874 63.916664L50.690624 64.041664Q50.440624 64.99479 49.7375 65.52604Q49.034374 66.05729 47.95625 66.05729Q46.596874 66.05729 45.784374 65.21354Q44.9875 64.36979 44.9875 62.854164Q44.9875 61.291664 45.8 60.43229Q46.6125 59.55729 47.89375 59.55729Q49.14375 59.55729 49.925 60.40104Q50.721874 61.24479 50.721874 62.791664Q50.721874 62.885414 50.721874 63.072914L46.08125 63.072914Q46.14375 64.104164 46.659374 64.65104Q47.175 65.18229 47.95625 65.18229Q48.534374 65.18229 48.940624 64.885414Q49.3625 64.572914 49.596874 63.916664ZM46.14375 62.21354L49.6125 62.21354Q49.55 61.416664 49.221874 61.02604Q48.70625 60.416664 47.909374 60.416664Q47.175 60.416664 46.675 60.90104Q46.190624 61.385414 46.14375 62.21354ZM51.925 64.05729L52.95625 63.90104Q53.05 64.52604 53.440624 64.854164Q53.846874 65.18229 54.58125 65.18229Q55.3 65.18229 55.64375 64.90104Q56.003124 64.604164 56.003124 64.197914Q56.003124 63.83854 55.690624 63.635414Q55.471874 63.49479 54.6125 63.27604Q53.45625 62.979164 53.003124 62.77604Q52.565624 62.55729 52.33125 62.18229Q52.096874 61.80729 52.096874 61.33854Q52.096874 60.93229 52.284374 60.572914Q52.471874 60.21354 52.8 59.979164Q53.05 59.80729 53.471874 59.68229Q53.89375 59.55729 54.39375 59.55729Q55.1125 59.55729 55.659374 59.77604Q56.221874 59.979164 56.4875 60.33854Q56.753124 60.697914 56.846874 61.291664L55.815624 61.43229Q55.753124 60.96354 55.409374 60.697914Q55.08125 60.416664 54.45625 60.416664Q53.7375 60.416664 53.425 60.666664Q53.1125 60.90104 53.1125 61.229164Q53.1125 61.43229 53.2375 61.58854Q53.378124 61.760414 53.64375 61.86979Q53.8 61.93229 54.58125 62.135414Q55.70625 62.447914 56.14375 62.635414Q56.58125 62.822914 56.83125 63.18229Q57.08125 63.541664 57.08125 64.08854Q57.08125 64.61979 56.76875 65.08854Q56.471874 65.541664 55.89375 65.80729Q55.315624 66.05729 54.58125 66.05729Q53.3625 66.05729 52.721874 65.55729Q52.096874 65.041664 51.925 64.05729ZM63.596874 63.916664L64.69063 64.041664Q64.44063 64.99479 63.7375 65.52604Q63.034374 66.05729 61.95625 66.05729Q60.596874 66.05729 59.784374 65.21354Q58.9875 64.36979 58.9875 62.854164Q58.9875 61.291664 59.8 60.43229Q60.6125 59.55729 61.89375 59.55729Q63.14375 59.55729 63.925 60.40104Q64.72188 61.24479 64.72188 62.791664Q64.72188 62.885414 64.72188 63.072914L60.08125 63.072914Q60.14375 64.104164 60.659374 64.65104Q61.175 65.18229 61.95625 65.18229Q62.534374 65.18229 62.940624 64.885414Q63.3625 64.572914 63.596874 63.916664ZM60.14375 62.21354L63.6125 62.21354Q63.55 61.416664 63.221874 61.02604Q62.70625 60.416664 61.909374 60.416664Q61.175 60.416664 60.675 60.90104Q60.190624 61.385414 60.14375 62.21354Z" fill-rule="nonzero"/><path fill="#9e9e9e" d="M19.05 80.65104L20.1125 80.510414Q20.284374 81.40104 20.721874 81.80729Q21.159374 82.197914 21.784374 82.197914Q22.534374 82.197914 23.05 81.68229Q23.565624 81.166664 23.565624 80.40104Q23.565624 79.68229 23.08125 79.21354Q22.6125 78.729164 21.878124 78.729164Q21.58125 78.729164 21.128124 78.854164L21.253124 77.916664Q21.3625 77.93229 21.425 77.93229Q22.096874 77.93229 22.628124 77.58854Q23.175 77.229164 23.175 76.49479Q23.175 75.916664 22.784374 75.541664Q22.39375 75.15104 21.76875 75.15104Q21.159374 75.15104 20.7375 75.541664Q20.33125 75.93229 20.221874 76.697914L19.159374 76.510414Q19.346874 75.46354 20.034374 74.885414Q20.721874 74.291664 21.7375 74.291664Q22.440624 74.291664 23.034374 74.604164Q23.628124 74.90104 23.940624 75.416664Q24.253124 75.93229 24.253124 76.52604Q24.253124 77.072914 23.95625 77.541664Q23.659374 77.99479 23.08125 78.260414Q23.83125 78.43229 24.253124 78.99479Q24.675 79.541664 24.675 80.385414Q24.675 81.510414 23.846874 82.291664Q23.034374 83.072914 21.784374 83.072914Q20.659374 83.072914 19.909374 82.40104Q19.159374 81.71354 19.05 80.65104ZM26.64375 82.916664L26.64375 81.71354L27.846874 81.71354L27.846874 82.916664L26.64375 82.916664ZM34.596874 81.90104L34.596874 82.916664L28.909374 82.916664Q28.909374 82.541664 29.034374 82.18229Q29.253124 81.604164 29.721874 81.041664Q30.20625 80.479164 31.1125 79.74479Q32.51875 78.58854 33.003124 77.916664Q33.503124 77.24479 33.503124 76.65104Q33.503124 76.02604 33.05 75.604164Q32.596874 75.166664 31.878124 75.166664Q31.1125 75.166664 30.659374 75.61979Q30.20625 76.072914 30.190624 76.885414L29.1125 76.77604Q29.221874 75.55729 29.940624 74.93229Q30.675 74.291664 31.909374 74.291664Q33.14375 74.291664 33.8625 74.979164Q34.58125 75.666664 34.58125 76.68229Q34.58125 77.197914 34.3625 77.697914Q34.159374 78.18229 33.659374 78.74479Q33.175 79.291664 32.05 80.24479Q31.096874 81.041664 30.815624 81.33854Q30.55 81.61979 30.378124 81.90104L34.596874 81.90104ZM36.253124 76.385414Q36.253124 75.46354 36.70625 74.822914Q37.175 74.18229 38.05 74.18229Q38.8625 74.18229 39.39375 74.760414Q39.925 75.33854 39.925 76.447914Q39.925 77.541664 39.378124 78.135414Q38.846874 78.71354 38.065624 78.71354Q37.284374 78.71354 36.76875 78.135414Q36.253124 77.55729 36.253124 76.385414ZM38.08125 74.90104Q37.690624 74.90104 37.425 75.24479Q37.175 75.58854 37.175 76.49479Q37.175 77.322914 37.425 77.666664Q37.690624 77.99479 38.08125 77.99479Q38.4875 77.99479 38.7375 77.65104Q39.003124 77.30729 39.003124 76.416664Q39.003124 75.572914 38.7375 75.24479Q38.471874 74.90104 38.08125 74.90104ZM38.08125 83.229164L42.784374 74.18229L43.64375 74.18229L38.95625 83.229164L38.08125 83.229164ZM41.8 80.90104Q41.8 79.979164 42.253124 79.33854Q42.721874 78.697914 43.6125 78.697914Q44.425 78.697914 44.95625 79.27604Q45.4875 79.83854 45.4875 80.96354Q45.4875 82.05729 44.940624 82.65104Q44.409374 83.229164 43.6125 83.229164Q42.846874 83.229164 42.315624 82.65104Q41.8 82.072914 41.8 80.90104ZM43.64375 79.416664Q43.2375 79.416664 42.971874 79.760414Q42.721874 80.104164 42.721874 81.010414Q42.721874 81.822914 42.9875 82.166664Q43.253124 82.510414 43.64375 82.510414Q44.034374 82.510414 44.3 82.166664Q44.565624 81.822914 44.565624 80.916664Q44.565624 80.08854 44.3 79.760414Q44.034374 79.416664 43.64375 79.416664Z" fill-rule="nonzero"/><path stroke="#757575" stroke-width="1.0" stroke-linecap="butt" d="M18.55 70.416664L220.73334 70.416664L361.20206 63.08011" fill-rule="nonzero"/><path fill="#9e9e9e" d="M363.20206 63.08011C363.20206 61.97554 362.3066 61.08011 361.20206 61.08011C360.09747 61.08011 359.20206 61.97554 359.20206 63.08011C359.20206 64.18468 360.09747 65.08011 361.20206 65.08011C362.3066 65.08011 363.20206 64.18468 363.20206 63.08011" fill-rule="nonzero"/><path fill="#1a1a1a" d="M19.675 96.916664L19.675 88.322914L20.8 88.322914L20.8 96.916664L19.675 96.916664ZM29.378124 96.916664L29.378124 96.135414Q28.784374 97.05729 27.64375 97.05729Q26.89375 97.05729 26.26875 96.65104Q25.64375 96.229164 25.3 95.49479Q24.95625 94.760414 24.95625 93.80729Q24.95625 92.885414 25.26875 92.11979Q25.58125 91.354164 26.20625 90.96354Q26.83125 90.55729 27.596874 90.55729Q28.159374 90.55729 28.596874 90.791664Q29.034374 91.02604 29.315624 91.40104L29.315624 88.322914L30.3625 88.322914L30.3625 96.916664L29.378124 96.916664ZM26.05 93.80729Q26.05 95.010414 26.55 95.604164Q27.05 96.18229 27.7375 96.18229Q28.425 96.18229 28.909374 95.61979Q29.39375 95.05729 29.39375 93.90104Q29.39375 92.61979 28.89375 92.02604Q28.409374 91.43229 27.690624 91.43229Q26.9875 91.43229 26.51875 92.010414Q26.05 92.572914 26.05 93.80729ZM31.95625 93.80729Q31.95625 92.072914 32.909374 91.24479Q33.70625 90.55729 34.8625 90.55729Q36.14375 90.55729 36.95625 91.40104Q37.784374 92.229164 37.784374 93.71354Q37.784374 94.916664 37.425 95.604164Q37.065624 96.291664 36.3625 96.68229Q35.675 97.05729 34.8625 97.05729Q33.565624 97.05729 32.753124 96.229164Q31.95625 95.385414 31.95625 93.80729ZM33.034374 93.80729Q33.034374 94.99479 33.55 95.58854Q34.08125 96.18229 34.8625 96.18229Q35.659374 96.18229 36.175 95.58854Q36.690624 94.99479 36.690624 93.77604Q36.690624 92.61979 36.159374 92.02604Q35.64375 91.43229 34.8625 91.43229Q34.08125 91.43229 33.55 92.02604Q33.034374 92.604164 33.034374 93.80729ZM39.346874 96.916664L39.346874 90.697914L40.284374 90.697914L40.284374 91.572914Q40.971874 90.55729 42.26875 90.55729Q42.83125 90.55729 43.3 90.760414Q43.784374 90.96354 44.01875 91.291664Q44.253124 91.61979 44.346874 92.05729Q44.39375 92.354164 44.39375 93.08854L44.39375 96.916664L43.346874 96.916664L43.346874 93.135414Q43.346874 92.479164 43.221874 92.166664Q43.096874 91.854164 42.784374 91.666664Q42.471874 91.46354 42.05 91.46354Q41.378124 91.46354 40.878124 91.90104Q40.39375 92.322914 40.39375 93.510414L40.39375 96.916664L39.346874 96.916664ZM46.346874 91.36979L46.08125 89.760414L46.08125 88.322914L47.284374 88.322914L47.284374 89.760414L47.003124 91.36979L46.346874 91.36979ZM50.64375 95.979164L50.8 96.90104Q50.346874 96.99479 50.003124 96.99479Q49.425 96.99479 49.1125 96.822914Q48.8 96.635414 48.659374 96.33854Q48.534374 96.041664 48.534374 95.08854L48.534374 91.510414L47.76875 91.510414L47.76875 90.697914L48.534374 90.697914L48.534374 89.15104L49.58125 88.52604L49.58125 90.697914L50.64375 90.697914L50.64375 91.510414L49.58125 91.510414L49.58125 95.15104Q49.58125 95.604164 49.628124 95.729164Q49.690624 95.854164 49.815624 95.93229Q49.940624 96.010414 50.175 96.010414Q50.3625 96.010414 50.64375 95.979164ZM54.315624 96.916664L54.315624 88.322914L55.378124 88.322914L55.378124 96.916664L54.315624 96.916664ZM57.346874 89.541664L57.346874 88.322914L58.409374 88.322914L58.409374 89.541664L57.346874 89.541664ZM57.346874 96.916664L57.346874 90.697914L58.409374 90.697914L58.409374 96.916664L57.346874 96.916664ZM60.346874 96.916664L60.346874 88.322914L61.409374 88.322914L61.409374 93.229164L63.89375 90.697914L65.26875 90.697914L62.878124 92.99479L65.50313 96.916664L64.20625 96.916664L62.14375 93.729164L61.409374 94.447914L61.409374 96.916664L60.346874 96.916664ZM70.59688 94.916664L71.69063 95.041664Q71.44063 95.99479 70.7375 96.52604Q70.03438 97.05729 68.95625 97.05729Q67.59688 97.05729 66.78438 96.21354Q65.9875 95.36979 65.9875 93.854164Q65.9875 92.291664 66.8 91.43229Q67.6125 90.55729 68.89375 90.55729Q70.14375 90.55729 70.925 91.40104Q71.72188 92.24479 71.72188 93.791664Q71.72188 93.885414 71.72188 94.072914L67.08125 94.072914Q67.14375 95.104164 67.65938 95.65104Q68.175 96.18229 68.95625 96.18229Q69.53438 96.18229 69.94063 95.885414Q70.3625 95.572914 70.59688 94.916664ZM67.14375 93.21354L70.6125 93.21354Q70.55 92.416664 70.22188 92.02604Q69.70625 91.416664 68.90938 91.416664Q68.175 91.416664 67.675 91.90104Q67.19063 92.385414 67.14375 93.21354ZM80.40938 94.635414L81.44063 94.77604Q81.26875 95.83854 80.56563 96.447914Q79.8625 97.05729 78.84688 97.05729Q77.56563 97.05729 76.78438 96.229164Q76.01875 95.385414 76.01875 93.822914Q76.01875 92.822914 76.34688 92.072914Q76.69063 91.30729 77.3625 90.93229Q78.05 90.55729 78.8625 90.55729Q79.8625 90.55729 80.50313 91.072914Q81.15938 91.572914 81.34688 92.52604L80.31563 92.68229Q80.175 92.05729 79.8 91.74479Q79.425 91.416664 78.89375 91.416664Q78.09688 91.416664 77.59688 91.99479Q77.09688 92.55729 77.09688 93.791664Q77.09688 95.05729 77.58125 95.61979Q78.06563 96.18229 78.83125 96.18229Q79.45625 96.18229 79.8625 95.80729Q80.28438 95.43229 80.40938 94.635414ZM81.95625 93.80729Q81.95625 92.072914 82.90938 91.24479Q83.70625 90.55729 84.8625 90.55729Q86.14375 90.55729 86.95625 91.40104Q87.78438 92.229164 87.78438 93.71354Q87.78438 94.916664 87.425 95.604164Q87.06563 96.291664 86.3625 96.68229Q85.675 97.05729 84.8625 97.05729Q83.56563 97.05729 82.75313 96.229164Q81.95625 95.385414 81.95625 93.80729ZM83.03438 93.80729Q83.03438 94.99479 83.55 95.58854Q84.08125 96.18229 84.8625 96.18229Q85.65938 96.18229 86.175 95.58854Q86.69063 94.99479 86.69063 93.77604Q86.69063 92.61979 86.15938 92.02604Q85.64375 91.43229 84.8625 91.43229Q84.08125 91.43229 83.55 92.02604Q83.03438 92.604164 83.03438 93.80729ZM89.59688 96.916664L89.59688 91.510414L88.65938 91.510414L88.65938 90.697914L89.59688 90.697914L89.59688 90.02604Q89.59688 89.40104 89.70625 89.104164Q89.8625 88.68229 90.2375 88.43229Q90.62813 88.18229 91.31563 88.18229Q91.76875 88.18229 92.3 88.291664L92.14375 89.197914Q91.81563 89.15104 91.51875 89.15104Q91.03438 89.15104 90.83125 89.354164Q90.64375 89.55729 90.64375 90.11979L90.64375 90.697914L91.8625 90.697914L91.8625 91.510414L90.64375 91.510414L90.64375 96.916664L89.59688 96.916664ZM92.59688 96.916664L92.59688 91.510414L91.65938 91.510414L91.65938 90.697914L92.59688 90.697914L92.59688 90.02604Q92.59688 89.40104 92.70625 89.104164Q92.8625 88.68229 93.2375 88.43229Q93.62813 88.18229 94.31563 88.18229Q94.76875 88.18229 95.3 88.291664L95.14375 89.197914Q94.81563 89.15104 94.51875 89.15104Q94.03438 89.15104 93.83125 89.354164Q93.64375 89.55729 93.64375 90.11979L93.64375 90.697914L94.8625 90.697914L94.8625 91.510414L93.64375 91.510414L93.64375 96.916664L92.59688 96.916664ZM99.59688 94.916664L100.69063 95.041664Q100.44063 95.99479 99.7375 96.52604Q99.03438 97.05729 97.95625 97.05729Q96.59688 97.05729 95.78438 96.21354Q94.9875 95.36979 94.9875 93.854164Q94.9875 92.291664 95.8 91.43229Q96.6125 90.55729 97.89375 90.55729Q99.14375 90.55729 99.925 91.40104Q100.72188 92.24479 100.72188 93.791664Q100.72188 93.885414 100.72188 94.072914L96.08125 94.072914Q96.14375 95.104164 96.65938 95.65104Q97.175 96.18229 97.95625 96.18229Q98.53438 96.18229 98.94063 95.885414Q99.3625 95.572914 99.59688 94.916664ZM96.14375 93.21354L99.6125 93.21354Q99.55 92.416664 99.22188 92.02604Q98.70625 91.416664 97.90938 91.416664Q97.175 91.416664 96.675 91.90104Q96.19063 92.385414 96.14375 93.21354ZM106.59688 94.916664L107.69063 95.041664Q107.44063 95.99479 106.7375 96.52604Q106.03438 97.05729 104.95625 97.05729Q103.59688 97.05729 102.78438 96.21354Q101.9875 95.36979 101.9875 93.854164Q101.9875 92.291664 102.8 91.43229Q103.6125 90.55729 104.89375 90.55729Q106.14375 90.55729 106.925 91.40104Q107.72188 92.24479 107.72188 93.791664Q107.72188 93.885414 107.72188 94.072914L103.08125 94.072914Q103.14375 95.104164 103.65938 95.65104Q104.175 96.18229 104.95625 96.18229Q105.53438 96.18229 105.94063 95.885414Q106.3625 95.572914 106.59688 94.916664ZM103.14375 93.21354L106.6125 93.21354Q106.55 92.416664 106.22188 92.02604Q105.70625 91.416664 104.90938 91.416664Q104.175 91.416664 103.675 91.90104Q103.19063 92.385414 103.14375 93.21354ZM112.05 94.65104L113.1125 94.510414Q113.28438 95.40104 113.72188 95.80729Q114.15938 96.197914 114.78438 96.197914Q115.53438 96.197914 116.05 95.68229Q116.56563 95.166664 116.56563 94.40104Q116.56563 93.68229 116.08125 93.21354Q115.6125 92.729164 114.87813 92.729164Q114.58125 92.729164 114.12813 92.854164L114.25313 91.916664Q114.3625 91.93229 114.425 91.93229Q115.09688 91.93229 115.62813 91.58854Q116.175 91.229164 116.175 90.49479Q116.175 89.916664 115.78438 89.541664Q115.39375 89.15104 114.76875 89.15104Q114.15938 89.15104 113.7375 89.541664Q113.33125 89.93229 113.22188 90.697914L112.15938 90.510414Q112.34688 89.46354 113.03438 88.885414Q113.72188 88.291664 114.7375 88.291664Q115.44063 88.291664 116.03438 88.604164Q116.62813 88.90104 116.94063 89.416664Q117.25313 89.93229 117.25313 90.52604Q117.25313 91.072914 116.95625 91.541664Q116.65938 91.99479 116.08125 92.260414Q116.83125 92.43229 117.25313 92.99479Q117.675 93.541664 117.675 94.385414Q117.675 95.510414 116.84688 96.291664Q116.03438 97.072914 114.78438 97.072914Q113.65938 97.072914 112.90938 96.40104Q112.15938 95.71354 112.05 94.65104ZM119.62813 91.90104L119.62813 90.697914L120.83125 90.697914L120.83125 91.90104L119.62813 91.90104ZM119.62813 96.916664L119.62813 95.71354L120.83125 95.71354L120.83125 96.916664L119.62813 96.916664Z" fill-rule="nonzero"/><path fill="#9e9e9e" d="M19.05 111.65104L20.1125 111.510414Q20.284374 112.40104 20.721874 112.80729Q21.159374 113.197914 21.784374 113.197914Q22.534374 113.197914 23.05 112.68229Q23.565624 112.166664 23.565624 111.40104Q23.565624 110.68229 23.08125 110.21354Q22.6125 109.729164 21.878124 109.729164Q21.58125 109.729164 21.128124 109.854164L21.253124 108.916664Q21.3625 108.93229 21.425 108.93229Q22.096874 108.93229 22.628124 108.58854Q23.175 108.229164 23.175 107.49479Q23.175 106.916664 22.784374 106.541664Q22.39375 106.15104 21.76875 106.15104Q21.159374 106.15104 20.7375 106.541664Q20.33125 106.93229 20.221874 107.697914L19.159374 107.510414Q19.346874 106.46354 20.034374 105.885414Q20.721874 105.291664 21.7375 105.291664Q22.440624 105.291664 23.034374 105.604164Q23.628124 105.90104 23.940624 106.416664Q24.253124 106.93229 24.253124 107.52604Q24.253124 108.072914 23.95625 108.541664Q23.659374 108.99479 23.08125 109.260414Q23.83125 109.43229 24.253124 109.99479Q24.675 110.541664 24.675 111.385414Q24.675 112.510414 23.846874 113.291664Q23.034374 114.072914 21.784374 114.072914Q20.659374 114.072914 19.909374 113.40104Q19.159374 112.71354 19.05 111.65104ZM26.64375 113.916664L26.64375 112.71354L27.846874 112.71354L27.846874 113.916664L26.64375 113.916664ZM34.596874 112.90104L34.596874 113.916664L28.909374 113.916664Q28.909374 113.541664 29.034374 113.18229Q29.253124 112.604164 29.721874 112.041664Q30.20625 111.479164 31.1125 110.74479Q32.51875 109.58854 33.003124 108.916664Q33.503124 108.24479 33.503124 107.65104Q33.503124 107.02604 33.05 106.604164Q32.596874 106.166664 31.878124 106.166664Q31.1125 106.166664 30.659374 106.61979Q30.20625 107.072914 30.190624 107.885414L29.1125 107.77604Q29.221874 106.55729 29.940624 105.93229Q30.675 105.291664 31.909374 105.291664Q33.14375 105.291664 33.8625 105.979164Q34.58125 106.666664 34.58125 107.68229Q34.58125 108.197914 34.3625 108.697914Q34.159374 109.18229 33.659374 109.74479Q33.175 110.291664 32.05 111.24479Q31.096874 112.041664 30.815624 112.33854Q30.55 112.61979 30.378124 112.90104L34.596874 112.90104ZM36.253124 107.385414Q36.253124 106.46354 36.70625 105.822914Q37.175 105.18229 38.05 105.18229Q38.8625 105.18229 39.39375 105.760414Q39.925 106.33854 39.925 107.447914Q39.925 108.541664 39.378124 109.135414Q38.846874 109.71354 38.065624 109.71354Q37.284374 109.71354 36.76875 109.135414Q36.253124 108.55729 36.253124 107.385414ZM38.08125 105.90104Q37.690624 105.90104 37.425 106.24479Q37.175 106.58854 37.175 107.49479Q37.175 108.322914 37.425 108.666664Q37.690624 108.99479 38.08125 108.99479Q38.4875 108.99479 38.7375 108.65104Q39.003124 108.30729 39.003124 107.416664Q39.003124 106.572914 38.7375 106.24479Q38.471874 105.90104 38.08125 105.90104ZM38.08125 114.229164L42.784374 105.18229L43.64375 105.18229L38.95625 114.229164L38.08125 114.229164ZM41.8 111.90104Q41.8 110.979164 42.253124 110.33854Q42.721874 109.697914 43.6125 109.697914Q44.425 109.697914 44.95625 110.27604Q45.4875 110.83854 45.4875 111.96354Q45.4875 113.05729 44.940624 113.65104Q44.409374 114.229164 43.6125 114.229164Q42.846874 114.229164 42.315624 113.65104Q41.8 113.072914 41.8 111.90104ZM43.64375 110.416664Q43.2375 110.416664 42.971874 110.760414Q42.721874 111.104164 42.721874 112.010414Q42.721874 112.822914 42.9875 113.166664Q43.253124 113.510414 43.64375 113.510414Q44.034374 113.510414 44.3 113.166664Q44.565624 112.822914 44.565624 111.916664Q44.565624 111.08854 44.3 110.760414Q44.034374 110.416664 43.64375 110.416664Z" fill-rule="nonzero"/><path stroke="#757575" stroke-width="1.0" stroke-linecap="butt" d="M18.55 101.416664L220.73334 101.416664L333.1915 68.836426" fill-rule="nonzero"/><path fill="#9e9e9e" d="M335.1915 68.836426C335.1915 67.73185 334.29608 66.836426 333.1915 66.836426C332.08694 66.836426 331.1915 67.73185 331.1915 68.836426C331.1915 69.940994 332.08694 70.836426 333.1915 70.836426C334.29608 70.836426 335.1915 69.940994 335.1915 68.836426" fill-rule="nonzero"/><path fill="#1a1a1a" d="M19.346874 127.916664L19.346874 121.697914L20.284374 121.697914L20.284374 122.572914Q20.971874 121.55729 22.26875 121.55729Q22.83125 121.55729 23.3 121.760414Q23.784374 121.96354 24.01875 122.291664Q24.253124 122.61979 24.346874 123.05729Q24.39375 123.354164 24.39375 124.08854L24.39375 127.916664L23.346874 127.916664L23.346874 124.135414Q23.346874 123.479164 23.221874 123.166664Q23.096874 122.854164 22.784374 122.666664Q22.471874 122.46354 22.05 122.46354Q21.378124 122.46354 20.878124 122.90104Q20.39375 123.322914 20.39375 124.510414L20.39375 127.916664L19.346874 127.916664ZM25.95625 124.80729Q25.95625 123.072914 26.909374 122.24479Q27.70625 121.55729 28.8625 121.55729Q30.14375 121.55729 30.95625 122.40104Q31.784374 123.229164 31.784374 124.71354Q31.784374 125.916664 31.425 126.604164Q31.065624 127.291664 30.3625 127.68229Q29.675 128.05728 28.8625 128.05728Q27.565624 128.05728 26.753124 127.229164Q25.95625 126.385414 25.95625 124.80729ZM27.034374 124.80729Q27.034374 125.99479 27.55 126.58854Q28.08125 127.18229 28.8625 127.18229Q29.659374 127.18229 30.175 126.58854Q30.690624 125.99479 30.690624 124.77604Q30.690624 123.61979 30.159374 123.02604Q29.64375 122.43229 28.8625 122.43229Q28.08125 122.43229 27.55 123.02604Q27.034374 123.604164 27.034374 124.80729ZM33.346874 127.916664L33.346874 121.697914L34.284374 121.697914L34.284374 122.572914Q34.971874 121.55729 36.26875 121.55729Q36.83125 121.55729 37.3 121.760414Q37.784374 121.96354 38.01875 122.291664Q38.253124 122.61979 38.346874 123.05729Q38.39375 123.354164 38.39375 124.08854L38.39375 127.916664L37.346874 127.916664L37.346874 124.135414Q37.346874 123.479164 37.221874 123.166664Q37.096874 122.854164 36.784374 122.666664Q36.471874 122.46354 36.05 122.46354Q35.378124 122.46354 34.878124 122.90104Q34.39375 123.322914 34.39375 124.510414L34.39375 127.916664L33.346874 127.916664ZM44.596874 125.916664L45.690624 126.041664Q45.440624 126.99479 44.7375 127.52604Q44.034374 128.05728 42.95625 128.05728Q41.596874 128.05728 40.784374 127.21354Q39.9875 126.36979 39.9875 124.854164Q39.9875 123.291664 40.8 122.43229Q41.6125 121.55729 42.89375 121.55729Q44.14375 121.55729 44.925 122.40104Q45.721874 123.24479 45.721874 124.791664Q45.721874 124.885414 45.721874 125.072914L41.08125 125.072914Q41.14375 126.104164 41.659374 126.65104Q42.175 127.18229 42.95625 127.18229Q43.534374 127.18229 43.940624 126.885414Q44.3625 126.572914 44.596874 125.916664ZM41.14375 124.21354L44.6125 124.21354Q44.55 123.416664 44.221874 123.02604Q43.70625 122.416664 42.909374 122.416664Q42.175 122.416664 41.675 122.90104Q41.190624 123.385414 41.14375 124.21354Z" fill-rule="nonzero"/><path fill="#9e9e9e" d="M19.05 142.65105L20.1125 142.51042Q20.284374 143.40105 20.721874 143.8073Q21.159374 144.19792 21.784374 144.19792Q22.534374 144.19792 23.05 143.6823Q23.565624 143.16667 23.565624 142.40105Q23.565624 141.6823 23.08125 141.21355Q22.6125 140.72917 21.878124 140.72917Q21.58125 140.72917 21.128124 140.85417L21.253124 139.91667Q21.3625 139.9323 21.425 139.9323Q22.096874 139.9323 22.628124 139.58855Q23.175 139.22917 23.175 138.4948Q23.175 137.91667 22.784374 137.54167Q22.39375 137.15105 21.76875 137.15105Q21.159374 137.15105 20.7375 137.54167Q20.33125 137.9323 20.221874 138.69792L19.159374 138.51042Q19.346874 137.46355 20.034374 136.88542Q20.721874 136.29167 21.7375 136.29167Q22.440624 136.29167 23.034374 136.60417Q23.628124 136.90105 23.940624 137.41667Q24.253124 137.9323 24.253124 138.52605Q24.253124 139.07292 23.95625 139.54167Q23.659374 139.9948 23.08125 140.26042Q23.83125 140.4323 24.253124 140.9948Q24.675 141.54167 24.675 142.38542Q24.675 143.51042 23.846874 144.29167Q23.034374 145.07292 21.784374 145.07292Q20.659374 145.07292 19.909374 144.40105Q19.159374 143.71355 19.05 142.65105ZM26.64375 144.91667L26.64375 143.71355L27.846874 143.71355L27.846874 144.91667L26.64375 144.91667ZM34.596874 143.90105L34.596874 144.91667L28.909374 144.91667Q28.909374 144.54167 29.034374 144.1823Q29.253124 143.60417 29.721874 143.04167Q30.20625 142.47917 31.1125 141.7448Q32.51875 140.58855 33.003124 139.91667Q33.503124 139.2448 33.503124 138.65105Q33.503124 138.02605 33.05 137.60417Q32.596874 137.16667 31.878124 137.16667Q31.1125 137.16667 30.659374 137.6198Q30.20625 138.07292 30.190624 138.88542L29.1125 138.77605Q29.221874 137.5573 29.940624 136.9323Q30.675 136.29167 31.909374 136.29167Q33.14375 136.29167 33.8625 136.97917Q34.58125 137.66667 34.58125 138.6823Q34.58125 139.19792 34.3625 139.69792Q34.159374 140.1823 33.659374 140.7448Q33.175 141.29167 32.05 142.2448Q31.096874 143.04167 30.815624 143.33855Q30.55 143.6198 30.378124 143.90105L34.596874 143.90105ZM36.253124 138.38542Q36.253124 137.46355 36.70625 136.82292Q37.175 136.1823 38.05 136.1823Q38.8625 136.1823 39.39375 136.76042Q39.925 137.33855 39.925 138.44792Q39.925 139.54167 39.378124 140.13542Q38.846874 140.71355 38.065624 140.71355Q37.284374 140.71355 36.76875 140.13542Q36.253124 139.5573 36.253124 138.38542ZM38.08125 136.90105Q37.690624 136.90105 37.425 137.2448Q37.175 137.58855 37.175 138.4948Q37.175 139.32292 37.425 139.66667Q37.690624 139.9948 38.08125 139.9948Q38.4875 139.9948 38.7375 139.65105Q39.003124 139.3073 39.003124 138.41667Q39.003124 137.57292 38.7375 137.2448Q38.471874 136.90105 38.08125 136.90105ZM38.08125 145.22917L42.784374 136.1823L43.64375 136.1823L38.95625 145.22917L38.08125 145.22917ZM41.8 142.90105Q41.8 141.97917 42.253124 141.33855Q42.721874 140.69792 43.6125 140.69792Q44.425 140.69792 44.95625 141.27605Q45.4875 141.83855 45.4875 142.96355Q45.4875 144.0573 44.940624 144.65105Q44.409374 145.22917 43.6125 145.22917Q42.846874 145.22917 42.315624 144.65105Q41.8 144.07292 41.8 142.90105ZM43.64375 141.41667Q43.2375 141.41667 42.971874 141.76042Q42.721874 142.10417 42.721874 143.01042Q42.721874 143.82292 42.9875 144.16667Q43.253124 144.51042 43.64375 144.51042Q44.034374 144.51042 44.3 144.16667Q44.565624 143.82292 44.565624 142.91667Q44.565624 142.08855 44.3 141.76042Q44.034374 141.41667 43.64375 141.41667Z" fill-rule="nonzero"/><path stroke="#757575" stroke-width="1.0" stroke-linecap="butt" d="M18.55 132.41667L220.73334 132.41667L306.9131 80.11338" fill-rule="nonzero"/><path fill="#9e9e9e" d="M308.9131 80.11338C308.9131 79.00881 308.01764 78.11338 306.9131 78.11338C305.8085 78.11338 304.9131 79.00881 304.9131 80.11338C304.9131 81.21796 305.8085 82.11338 306.9131 82.11338C308.01764 82.11338 308.9131 81.21796 308.9131 80.11338" fill-rule="nonzero"/><path fill="#1a1a1a" d="M18.534374 206.34149L21.83125 197.74774L23.05 197.74774L26.565624 206.34149L25.284374 206.34149L24.26875 203.73212L20.690624 203.73212L19.7375 206.34149L18.534374 206.34149ZM21.01875 202.81024L23.925 202.81024L23.034374 200.43524Q22.6125 199.35712 22.425 198.65399Q22.253124 199.48212 21.95625 200.29462L21.01875 202.81024ZM26.346874 206.34149L26.346874 200.12274L27.284374 200.12274L27.284374 200.99774Q27.58125 200.52899 28.065624 200.26337Q28.55 199.98212 29.175 199.98212Q29.8625 199.98212 30.3 200.26337Q30.753124 200.54462 30.925 201.06024Q31.675 199.98212 32.846874 199.98212Q33.784374 199.98212 34.26875 200.49774Q34.76875 200.99774 34.76875 202.07587L34.76875 206.34149L33.721874 206.34149L33.721874 202.41962Q33.721874 201.79462 33.6125 201.51337Q33.51875 201.23212 33.253124 201.06024Q32.9875 200.88837 32.6125 200.88837Q31.95625 200.88837 31.51875 201.32587Q31.096874 201.76337 31.096874 202.73212L31.096874 206.34149L30.034374 206.34149L30.034374 202.29462Q30.034374 201.59149 29.76875 201.24774Q29.51875 200.88837 28.940624 200.88837Q28.4875 200.88837 28.1125 201.12274Q27.7375 201.35712 27.565624 201.81024Q27.39375 202.26337 27.39375 203.10712L27.39375 206.34149L26.346874 206.34149ZM41.596874 204.34149L42.690624 204.46649Q42.440624 205.41962 41.7375 205.95087Q41.034374 206.48212 39.95625 206.48212Q38.596874 206.48212 37.784374 205.63837Q36.9875 204.79462 36.9875 203.27899Q36.9875 201.71649 37.8 200.85712Q38.6125 199.98212 39.89375 199.98212Q41.14375 199.98212 41.925 200.82587Q42.721874 201.66962 42.721874 203.21649Q42.721874 203.31024 42.721874 203.49774L38.08125 203.49774Q38.14375 204.52899 38.659374 205.07587Q39.175 205.60712 39.95625 205.60712Q40.534374 205.60712 40.940624 205.31024Q41.3625 204.99774 41.596874 204.34149ZM38.14375 202.63837L41.6125 202.63837Q41.55 201.84149 41.221874 201.45087Q40.70625 200.84149 39.909374 200.84149Q39.175 200.84149 38.675 201.32587Q38.190624 201.81024 38.14375 202.63837ZM44.33125 206.34149L44.33125 200.12274L45.284374 200.12274L45.284374 201.06024Q45.64375 200.40399 45.940624 200.20087Q46.253124 199.98212 46.628124 199.98212Q47.159374 199.98212 47.70625 200.31024L47.346874 201.29462Q46.95625 201.06024 46.58125 201.06024Q46.221874 201.06024 45.940624 201.27899Q45.675 201.48212 45.565624 201.85712Q45.378124 202.41962 45.378124 203.07587L45.378124 206.34149L44.33125 206.34149ZM48.346874 198.96649L48.346874 197.74774L49.409374 197.74774L49.409374 198.96649L48.346874 198.96649ZM48.346874 206.34149L48.346874 200.12274L49.409374 200.12274L49.409374 206.34149L48.346874 206.34149ZM55.409374 204.06024L56.440624 204.20087Q56.26875 205.26337 55.565624 205.87274Q54.8625 206.48212 53.846874 206.48212Q52.565624 206.48212 51.784374 205.65399Q51.01875 204.81024 51.01875 203.24774Q51.01875 202.24774 51.346874 201.49774Q51.690624 200.73212 52.3625 200.35712Q53.05 199.98212 53.8625 199.98212Q54.8625 199.98212 55.503124 200.49774Q56.159374 200.99774 56.346874 201.95087L55.315624 202.10712Q55.175 201.48212 54.8 201.16962Q54.425 200.84149 53.89375 200.84149Q53.096874 200.84149 52.596874 201.41962Q52.096874 201.98212 52.096874 203.21649Q52.096874 204.48212 52.58125 205.04462Q53.065624 205.60712 53.83125 205.60712Q54.45625 205.60712 54.8625 205.23212Q55.284374 204.85712 55.409374 204.06024ZM61.409374 205.57587Q60.815624 206.07587 60.26875 206.27899Q59.7375 206.48212 59.1125 206.48212Q58.08125 206.48212 57.534374 205.98212Q56.9875 205.48212 56.9875 204.70087Q56.9875 204.24774 57.190624 203.87274Q57.39375 203.48212 57.7375 203.26337Q58.08125 203.02899 58.503124 202.91962Q58.8 202.82587 59.440624 202.74774Q60.70625 202.60712 61.315624 202.38837Q61.315624 202.16962 61.315624 202.12274Q61.315624 201.46649 61.01875 201.20087Q60.6125 200.85712 59.815624 200.85712Q59.08125 200.85712 58.721874 201.12274Q58.3625 201.37274 58.190624 202.02899L57.159374 201.88837Q57.3 201.23212 57.628124 200.82587Q57.95625 200.41962 58.565624 200.20087Q59.175 199.98212 59.971874 199.98212Q60.76875 199.98212 61.26875 200.16962Q61.76875 200.35712 62.003124 200.63837Q62.2375 200.91962 62.33125 201.35712Q62.378124 201.62274 62.378124 202.32587L62.378124 203.73212Q62.378124 205.20087 62.440624 205.59149Q62.51875 205.98212 62.721874 206.34149L61.6125 206.34149Q61.45625 206.01337 61.409374 205.57587ZM61.315624 203.21649Q60.7375 203.45087 59.596874 203.62274Q58.940624 203.71649 58.675 203.84149Q58.409374 203.95087 58.253124 204.16962Q58.1125 204.38837 58.1125 204.66962Q58.1125 205.09149 58.425 205.37274Q58.753124 205.65399 59.3625 205.65399Q59.971874 205.65399 60.440624 205.38837Q60.925 205.12274 61.14375 204.65399Q61.315624 204.29462 61.315624 203.60712L61.315624 203.21649ZM64.34688 206.34149L64.34688 200.12274L65.28438 200.12274L65.28438 200.99774Q65.97188 199.98212 67.26875 199.98212Q67.83125 199.98212 68.3 200.18524Q68.78438 200.38837 69.01875 200.71649Q69.25313 201.04462 69.34688 201.48212Q69.39375 201.77899 69.39375 202.51337L69.39375 206.34149L68.34688 206.34149L68.34688 202.56024Q68.34688 201.90399 68.22188 201.59149Q68.09688 201.27899 67.78438 201.09149Q67.47188 200.88837 67.05 200.88837Q66.37813 200.88837 65.87813 201.32587Q65.39375 201.74774 65.39375 202.93524L65.39375 206.34149L64.34688 206.34149ZM70.95625 203.23212Q70.95625 201.49774 71.90938 200.66962Q72.70625 199.98212 73.8625 199.98212Q75.14375 199.98212 75.95625 200.82587Q76.78438 201.65399 76.78438 203.13837Q76.78438 204.34149 76.425 205.02899Q76.06563 205.71649 75.3625 206.10712Q74.675 206.48212 73.8625 206.48212Q72.56563 206.48212 71.75313 205.65399Q70.95625 204.81024 70.95625 203.23212ZM72.03438 203.23212Q72.03438 204.41962 72.55 205.01337Q73.08125 205.60712 73.8625 205.60712Q74.65938 205.60712 75.175 205.01337Q75.69063 204.41962 75.69063 203.20087Q75.69063 202.04462 75.15938 201.45087Q74.64375 200.85712 73.8625 200.85712Q73.08125 200.85712 72.55 201.45087Q72.03438 202.02899 72.03438 203.23212Z" fill-rule="nonzero"/><path fill="#9e9e9e" d="M23.01875 223.34149L21.971874 223.34149L21.971874 216.62274Q21.58125 216.98212 20.95625 217.35712Q20.346874 217.71649 19.8625 217.88837L19.8625 216.87274Q20.7375 216.45087 21.39375 215.87274Q22.065624 215.27899 22.346874 214.71649L23.01875 214.71649L23.01875 223.34149ZM26.20625 221.35712L27.221874 221.26337Q27.346874 221.98212 27.70625 222.31024Q28.08125 222.62274 28.64375 222.62274Q29.128124 222.62274 29.4875 222.40399Q29.8625 222.16962 30.096874 221.81024Q30.33125 221.43524 30.4875 220.81024Q30.64375 220.16962 30.64375 219.51337Q30.64375 219.43524 30.64375 219.29462Q30.33125 219.79462 29.784374 220.12274Q29.2375 220.43524 28.596874 220.43524Q27.51875 220.43524 26.784374 219.66962Q26.05 218.88837 26.05 217.62274Q26.05 216.31024 26.815624 215.51337Q27.596874 214.71649 28.753124 214.71649Q29.58125 214.71649 30.26875 215.16962Q30.971874 215.62274 31.33125 216.46649Q31.690624 217.29462 31.690624 218.87274Q31.690624 220.51337 31.33125 221.49774Q30.9875 222.46649 30.26875 222.98212Q29.565624 223.48212 28.628124 223.48212Q27.6125 223.48212 26.971874 222.93524Q26.33125 222.37274 26.20625 221.35712ZM30.51875 217.56024Q30.51875 216.65399 30.034374 216.12274Q29.565624 215.59149 28.878124 215.59149Q28.175 215.59149 27.64375 216.16962Q27.128124 216.73212 27.128124 217.65399Q27.128124 218.46649 27.628124 218.98212Q28.128124 219.49774 28.846874 219.49774Q29.58125 219.49774 30.05 218.98212Q30.51875 218.46649 30.51875 217.56024ZM33.64375 223.34149L33.64375 222.13837L34.846874 222.13837L34.846874 223.34149L33.64375 223.34149ZM39.425 223.34149L39.425 221.27899L35.70625 221.27899L35.70625 220.31024L39.628124 214.74774L40.4875 214.74774L40.4875 220.31024L41.64375 220.31024L41.64375 221.27899L40.4875 221.27899L40.4875 223.34149L39.425 223.34149ZM39.425 220.31024L39.425 216.45087L36.7375 220.31024L39.425 220.31024ZM43.253124 216.81024Q43.253124 215.88837 43.70625 215.24774Q44.175 214.60712 45.05 214.60712Q45.8625 214.60712 46.39375 215.18524Q46.925 215.76337 46.925 216.87274Q46.925 217.96649 46.378124 218.56024Q45.846874 219.13837 45.065624 219.13837Q44.284374 219.13837 43.76875 218.56024Q43.253124 217.98212 43.253124 216.81024ZM45.08125 215.32587Q44.690624 215.32587 44.425 215.66962Q44.175 216.01337 44.175 216.91962Q44.175 217.74774 44.425 218.09149Q44.690624 218.41962 45.08125 218.41962Q45.4875 218.41962 45.7375 218.07587Q46.003124 217.73212 46.003124 216.84149Q46.003124 215.99774 45.7375 215.66962Q45.471874 215.32587 45.08125 215.32587ZM45.08125 223.65399L49.784374 214.60712L50.64375 214.60712L45.95625 223.65399L45.08125 223.65399ZM48.8 221.32587Q48.8 220.40399 49.253124 219.76337Q49.721874 219.12274 50.6125 219.12274Q51.425 219.12274 51.95625 219.70087Q52.4875 220.26337 52.4875 221.38837Q52.4875 222.48212 51.940624 223.07587Q51.409374 223.65399 50.6125 223.65399Q49.846874 223.65399 49.315624 223.07587Q48.8 222.49774 48.8 221.32587ZM50.64375 219.84149Q50.2375 219.84149 49.971874 220.18524Q49.721874 220.52899 49.721874 221.43524Q49.721874 222.24774 49.9875 222.59149Q50.253124 222.93524 50.64375 222.93524Q51.034374 222.93524 51.3 222.59149Q51.565624 222.24774 51.565624 221.34149Q51.565624 220.51337 51.3 220.18524Q51.034374 219.84149 50.64375 219.84149Z" fill-rule="nonzero"/><path stroke="#757575" stroke-width="1.0" stroke-linecap="butt" d="M18.55 210.84149L220.73334 210.84149L234.35306 210.84149" fill-rule="nonzero"/><path fill="#9e9e9e" d="M236.35306 210.84149C236.35306 209.73692 235.45763 208.84149 234.35306 208.84149C233.24849 208.84149 232.35306 209.73692 232.35306 210.84149C232.35306 211.94606 233.24849 212.84149 234.35306 212.84149C235.45763 212.84149 236.35306 211.94606 236.35306 210.84149" fill-rule="nonzero"/><path fill="#1a1a1a" d="M19.440624 296.5539L19.440624 287.96014L21.159374 287.96014L23.190624 294.03827Q23.471874 294.89764 23.596874 295.31952Q23.7375 294.85077 24.05 293.94452L26.1125 287.96014L27.64375 287.96014L27.64375 296.5539L26.55 296.5539L26.55 289.3664L24.05 296.5539L23.01875 296.5539L20.534374 289.2414L20.534374 296.5539L19.440624 296.5539ZM32.409374 295.78827Q31.815624 296.28827 31.26875 296.4914Q30.7375 296.69452 30.1125 296.69452Q29.08125 296.69452 28.534374 296.19452Q27.9875 295.69452 27.9875 294.91327Q27.9875 294.46014 28.190624 294.08514Q28.39375 293.69452 28.7375 293.47577Q29.08125 293.2414 29.503124 293.13202Q29.8 293.03827 30.440624 292.96014Q31.70625 292.81952 32.315624 292.60077Q32.315624 292.38202 32.315624 292.33514Q32.315624 291.6789 32.01875 291.41327Q31.6125 291.06952 30.815624 291.06952Q30.08125 291.06952 29.721874 291.33514Q29.3625 291.58514 29.190624 292.2414L28.159374 292.10077Q28.3 291.44452 28.628124 291.03827Q28.95625 290.63202 29.565624 290.41327Q30.175 290.19452 30.971874 290.19452Q31.76875 290.19452 32.26875 290.38202Q32.76875 290.56952 33.003124 290.85077Q33.2375 291.13202 33.33125 291.56952Q33.378124 291.83514 33.378124 292.53827L33.378124 293.94452Q33.378124 295.41327 33.440624 295.8039Q33.51875 296.19452 33.721874 296.5539L32.6125 296.5539Q32.45625 296.22577 32.409374 295.78827ZM32.315624 293.4289Q31.7375 293.66327 30.596874 293.83514Q29.940624 293.9289 29.675 294.0539Q29.409374 294.16327 29.253124 294.38202Q29.1125 294.60077 29.1125 294.88202Q29.1125 295.3039 29.425 295.58514Q29.753124 295.8664 30.3625 295.8664Q30.971874 295.8664 31.440624 295.60077Q31.925 295.33514 32.14375 294.8664Q32.315624 294.50702 32.315624 293.81952L32.315624 293.4289ZM37.64375 295.6164L37.8 296.53827Q37.346874 296.63202 37.003124 296.63202Q36.425 296.63202 36.1125 296.46014Q35.8 296.27264 35.659374 295.97577Q35.534374 295.6789 35.534374 294.72577L35.534374 291.14764L34.76875 291.14764L34.76875 290.33514L35.534374 290.33514L35.534374 288.78827L36.58125 288.16327L36.58125 290.33514L37.64375 290.33514L37.64375 291.14764L36.58125 291.14764L36.58125 294.78827Q36.58125 295.2414 36.628124 295.3664Q36.690624 295.4914 36.815624 295.56952Q36.940624 295.64764 37.175 295.64764Q37.3625 295.64764 37.64375 295.6164ZM42.409374 294.27264L43.440624 294.41327Q43.26875 295.47577 42.565624 296.08514Q41.8625 296.69452 40.846874 296.69452Q39.565624 296.69452 38.784374 295.8664Q38.01875 295.02264 38.01875 293.46014Q38.01875 292.46014 38.346874 291.71014Q38.690624 290.94452 39.3625 290.56952Q40.05 290.19452 40.8625 290.19452Q41.8625 290.19452 42.503124 290.71014Q43.159374 291.21014 43.346874 292.16327L42.315624 292.31952Q42.175 291.69452 41.8 291.38202Q41.425 291.0539 40.89375 291.0539Q40.096874 291.0539 39.596874 291.63202Q39.096874 292.19452 39.096874 293.4289Q39.096874 294.69452 39.58125 295.25702Q40.065624 295.81952 40.83125 295.81952Q41.45625 295.81952 41.8625 295.44452Q42.284374 295.06952 42.409374 294.27264ZM44.346874 296.5539L44.346874 287.96014L45.39375 287.96014L45.39375 291.03827Q46.128124 290.19452 47.253124 290.19452Q47.95625 290.19452 48.45625 290.47577Q48.971874 290.7414 49.190624 291.22577Q49.409374 291.69452 49.409374 292.6164L49.409374 296.5539L48.3625 296.5539L48.3625 292.6164Q48.3625 291.81952 48.01875 291.46014Q47.675 291.10077 47.05 291.10077Q46.58125 291.10077 46.159374 291.35077Q45.753124 291.58514 45.565624 292.00702Q45.39375 292.41327 45.39375 293.14764L45.39375 296.5539L44.346874 296.5539ZM55.409374 295.78827Q54.815624 296.28827 54.26875 296.4914Q53.7375 296.69452 53.1125 296.69452Q52.08125 296.69452 51.534374 296.19452Q50.9875 295.69452 50.9875 294.91327Q50.9875 294.46014 51.190624 294.08514Q51.39375 293.69452 51.7375 293.47577Q52.08125 293.2414 52.503124 293.13202Q52.8 293.03827 53.440624 292.96014Q54.70625 292.81952 55.315624 292.60077Q55.315624 292.38202 55.315624 292.33514Q55.315624 291.6789 55.01875 291.41327Q54.6125 291.06952 53.815624 291.06952Q53.08125 291.06952 52.721874 291.33514Q52.3625 291.58514 52.190624 292.2414L51.159374 292.10077Q51.3 291.44452 51.628124 291.03827Q51.95625 290.63202 52.565624 290.41327Q53.175 290.19452 53.971874 290.19452Q54.76875 290.19452 55.26875 290.38202Q55.76875 290.56952 56.003124 290.85077Q56.2375 291.13202 56.33125 291.56952Q56.378124 291.83514 56.378124 292.53827L56.378124 293.94452Q56.378124 295.41327 56.440624 295.8039Q56.51875 296.19452 56.721874 296.5539L55.6125 296.5539Q55.45625 296.22577 55.409374 295.78827ZM55.315624 293.4289Q54.7375 293.66327 53.596874 293.83514Q52.940624 293.9289 52.675 294.0539Q52.409374 294.16327 52.253124 294.38202Q52.1125 294.60077 52.1125 294.88202Q52.1125 295.3039 52.425 295.58514Q52.753124 295.8664 53.3625 295.8664Q53.971874 295.8664 54.440624 295.60077Q54.925 295.33514 55.14375 294.8664Q55.315624 294.50702 55.315624 293.81952L55.315624 293.4289ZM61.315624 296.5539L61.315624 287.96014L62.378124 287.96014L62.378124 296.5539L61.315624 296.5539ZM68.40938 295.78827Q67.81563 296.28827 67.26875 296.4914Q66.7375 296.69452 66.1125 296.69452Q65.08125 296.69452 64.53438 296.19452Q63.9875 295.69452 63.9875 294.91327Q63.9875 294.46014 64.19063 294.08514Q64.39375 293.69452 64.7375 293.47577Q65.08125 293.2414 65.50313 293.13202Q65.8 293.03827 66.44063 292.96014Q67.70625 292.81952 68.31563 292.60077Q68.31563 292.38202 68.31563 292.33514Q68.31563 291.6789 68.01875 291.41327Q67.6125 291.06952 66.81563 291.06952Q66.08125 291.06952 65.72188 291.33514Q65.3625 291.58514 65.19063 292.2414L64.15938 292.10077Q64.3 291.44452 64.62813 291.03827Q64.95625 290.63202 65.56563 290.41327Q66.175 290.19452 66.97188 290.19452Q67.76875 290.19452 68.26875 290.38202Q68.76875 290.56952 69.00313 290.85077Q69.2375 291.13202 69.33125 291.56952Q69.37813 291.83514 69.37813 292.53827L69.37813 293.94452Q69.37813 295.41327 69.44063 295.8039Q69.51875 296.19452 69.72188 296.5539L68.6125 296.5539Q68.45625 296.22577 68.40938 295.78827ZM68.31563 293.4289Q67.7375 293.66327 66.59688 293.83514Q65.94063 293.9289 65.675 294.0539Q65.40938 294.16327 65.25313 294.38202Q65.1125 294.60077 65.1125 294.88202Q65.1125 295.3039 65.425 295.58514Q65.75313 295.8664 66.3625 295.8664Q66.97188 295.8664 67.44063 295.60077Q67.925 295.33514 68.14375 294.8664Q68.31563 294.50702 68.31563 293.81952L68.31563 293.4289ZM73.64375 295.6164L73.8 296.53827Q73.34688 296.63202 73.00313 296.63202Q72.425 296.63202 72.1125 296.46014Q71.8 296.27264 71.65938 295.97577Q71.53438 295.6789 71.53438 294.72577L71.53438 291.14764L70.76875 291.14764L70.76875 290.33514L71.53438 290.33514L71.53438 288.78827L72.58125 288.16327L72.58125 290.33514L73.64375 290.33514L73.64375 291.14764L72.58125 291.14764L72.58125 294.78827Q72.58125 295.2414 72.62813 295.3664Q72.69063 295.4914 72.81563 295.56952Q72.94063 295.64764 73.175 295.64764Q73.3625 295.64764 73.64375 295.6164ZM76.64375 295.6164L76.8 296.53827Q76.34688 296.63202 76.00313 296.63202Q75.425 296.63202 75.1125 296.46014Q74.8 296.27264 74.65938 295.97577Q74.53438 295.6789 74.53438 294.72577L74.53438 291.14764L73.76875 291.14764L73.76875 290.33514L74.53438 290.33514L74.53438 288.78827L75.58125 288.16327L75.58125 290.33514L76.64375 290.33514L76.64375 291.14764L75.58125 291.14764L75.58125 294.78827Q75.58125 295.2414 75.62813 295.3664Q75.69063 295.4914 75.81563 295.56952Q75.94063 295.64764 76.175 295.64764Q76.3625 295.64764 76.64375 295.6164ZM81.59688 294.5539L82.69063 294.6789Q82.44063 295.63202 81.7375 296.16327Q81.03438 296.69452 79.95625 296.69452Q78.59688 296.69452 77.78438 295.85077Q76.9875 295.00702 76.9875 293.4914Q76.9875 291.9289 77.8 291.06952Q78.6125 290.19452 79.89375 290.19452Q81.14375 290.19452 81.925 291.03827Q82.72188 291.88202 82.72188 293.4289Q82.72188 293.52264 82.72188 293.71014L78.08125 293.71014Q78.14375 294.7414 78.65938 295.28827Q79.175 295.81952 79.95625 295.81952Q80.53438 295.81952 80.94063 295.52264Q81.3625 295.21014 81.59688 294.5539ZM78.14375 292.85077L81.6125 292.85077Q81.55 292.0539 81.22188 291.66327Q80.70625 291.0539 79.90938 291.0539Q79.175 291.0539 78.675 291.53827Q78.19063 292.02264 78.14375 292.85077Z" fill-rule="nonzero"/><path fill="#9e9e9e" d="M19.05 311.28827L20.1125 311.14764Q20.284374 312.03827 20.721874 312.44452Q21.159374 312.83514 21.784374 312.83514Q22.534374 312.83514 23.05 312.31952Q23.565624 311.8039 23.565624 311.03827Q23.565624 310.31952 23.08125 309.85077Q22.6125 309.3664 21.878124 309.3664Q21.58125 309.3664 21.128124 309.4914L21.253124 308.5539Q21.3625 308.56952 21.425 308.56952Q22.096874 308.56952 22.628124 308.22577Q23.175 307.8664 23.175 307.13202Q23.175 306.5539 22.784374 306.1789Q22.39375 305.78827 21.76875 305.78827Q21.159374 305.78827 20.7375 306.1789Q20.33125 306.56952 20.221874 307.33514L19.159374 307.14764Q19.346874 306.10077 20.034374 305.52264Q20.721874 304.9289 21.7375 304.9289Q22.440624 304.9289 23.034374 305.2414Q23.628124 305.53827 23.940624 306.0539Q24.253124 306.56952 24.253124 307.16327Q24.253124 307.71014 23.95625 308.1789Q23.659374 308.63202 23.08125 308.89764Q23.83125 309.06952 24.253124 309.63202Q24.675 310.1789 24.675 311.02264Q24.675 312.14764 23.846874 312.9289Q23.034374 313.71014 21.784374 313.71014Q20.659374 313.71014 19.909374 313.03827Q19.159374 312.35077 19.05 311.28827ZM26.64375 313.5539L26.64375 312.35077L27.846874 312.35077L27.846874 313.5539L26.64375 313.5539ZM34.596874 312.53827L34.596874 313.5539L28.909374 313.5539Q28.909374 313.1789 29.034374 312.81952Q29.253124 312.2414 29.721874 311.6789Q30.20625 311.1164 31.1125 310.38202Q32.51875 309.22577 33.003124 308.5539Q33.503124 307.88202 33.503124 307.28827Q33.503124 306.66327 33.05 306.2414Q32.596874 305.8039 31.878124 305.8039Q31.1125 305.8039 30.659374 306.25702Q30.20625 306.71014 30.190624 307.52264L29.1125 307.41327Q29.221874 306.19452 29.940624 305.56952Q30.675 304.9289 31.909374 304.9289Q33.14375 304.9289 33.8625 305.6164Q34.58125 306.3039 34.58125 307.31952Q34.58125 307.83514 34.3625 308.33514Q34.159374 308.81952 33.659374 309.38202Q33.175 309.9289 32.05 310.88202Q31.096874 311.6789 30.815624 311.97577Q30.55 312.25702 30.378124 312.53827L34.596874 312.53827ZM36.253124 307.02264Q36.253124 306.10077 36.70625 305.46014Q37.175 304.81952 38.05 304.81952Q38.8625 304.81952 39.39375 305.39764Q39.925 305.97577 39.925 307.08514Q39.925 308.1789 39.378124 308.77264Q38.846874 309.35077 38.065624 309.35077Q37.284374 309.35077 36.76875 308.77264Q36.253124 308.19452 36.253124 307.02264ZM38.08125 305.53827Q37.690624 305.53827 37.425 305.88202Q37.175 306.22577 37.175 307.13202Q37.175 307.96014 37.425 308.3039Q37.690624 308.63202 38.08125 308.63202Q38.4875 308.63202 38.7375 308.28827Q39.003124 307.94452 39.003124 307.0539Q39.003124 306.21014 38.7375 305.88202Q38.471874 305.53827 38.08125 305.53827ZM38.08125 313.8664L42.784374 304.81952L43.64375 304.81952L38.95625 313.8664L38.08125 313.8664ZM41.8 311.53827Q41.8 310.6164 42.253124 309.97577Q42.721874 309.33514 43.6125 309.33514Q44.425 309.33514 44.95625 309.91327Q45.4875 310.47577 45.4875 311.60077Q45.4875 312.69452 44.940624 313.28827Q44.409374 313.8664 43.6125 313.8664Q42.846874 313.8664 42.315624 313.28827Q41.8 312.71014 41.8 311.53827ZM43.64375 310.0539Q43.2375 310.0539 42.971874 310.39764Q42.721874 310.7414 42.721874 311.64764Q42.721874 312.46014 42.9875 312.8039Q43.253124 313.14764 43.64375 313.14764Q44.034374 313.14764 44.3 312.8039Q44.565624 312.46014 44.565624 311.5539Q44.565624 310.72577 44.3 310.39764Q44.034374 310.0539 43.64375 310.0539Z" fill-rule="nonzero"/><path stroke="#757575" stroke-width="1.0" stroke-linecap="butt" d="M18.55 301.0539L220.73334 301.0539L273.06625 301.0539" fill-rule="nonzero"/><path fill="#9e9e9e" d="M275.06625 301.0539C275.06625 299.9493 274.1708 299.0539 273.06625 299.0539C271.96167 299.0539 271.06625 299.9493 271.06625 301.0539C271.06625 302.15845 271.96167 303.0539 273.06625 303.0539C274.1708 303.0539 275.06625 302.15845 275.06625 301.0539" fill-rule="nonzero"/><path fill="#1a1a1a" d="M19.346874 329.0581L19.346874 322.83936L20.284374 322.83936L20.284374 323.71436Q20.971874 322.69873 22.26875 322.69873Q22.83125 322.69873 23.3 322.90186Q23.784374 323.10498 24.01875 323.4331Q24.253124 323.76123 24.346874 324.19873Q24.39375 324.4956 24.39375 325.22998L24.39375 329.0581L23.346874 329.0581L23.346874 325.27686Q23.346874 324.6206 23.221874 324.3081Q23.096874 323.9956 22.784374 323.8081Q22.471874 323.60498 22.05 323.60498Q21.378124 323.60498 20.878124 324.04248Q20.39375 324.46436 20.39375 325.65186L20.39375 329.0581L19.346874 329.0581ZM25.95625 325.94873Q25.95625 324.21436 26.909374 323.38623Q27.70625 322.69873 28.8625 322.69873Q30.14375 322.69873 30.95625 323.54248Q31.784374 324.3706 31.784374 325.85498Q31.784374 327.0581 31.425 327.7456Q31.065624 328.4331 30.3625 328.82373Q29.675 329.19873 28.8625 329.19873Q27.565624 329.19873 26.753124 328.3706Q25.95625 327.52686 25.95625 325.94873ZM27.034374 325.94873Q27.034374 327.13623 27.55 327.72998Q28.08125 328.32373 28.8625 328.32373Q29.659374 328.32373 30.175 327.72998Q30.690624 327.13623 30.690624 325.91748Q30.690624 324.76123 30.159374 324.16748Q29.64375 323.57373 28.8625 323.57373Q28.08125 323.57373 27.55 324.16748Q27.034374 324.7456 27.034374 325.94873ZM33.346874 329.0581L33.346874 322.83936L34.284374 322.83936L34.284374 323.71436Q34.971874 322.69873 36.26875 322.69873Q36.83125 322.69873 37.3 322.90186Q37.784374 323.10498 38.01875 323.4331Q38.253124 323.76123 38.346874 324.19873Q38.39375 324.4956 38.39375 325.22998L38.39375 329.0581L37.346874 329.0581L37.346874 325.27686Q37.346874 324.6206 37.221874 324.3081Q37.096874 323.9956 36.784374 323.8081Q36.471874 323.60498 36.05 323.60498Q35.378124 323.60498 34.878124 324.04248Q34.39375 324.46436 34.39375 325.65186L34.39375 329.0581L33.346874 329.0581ZM40.33125 329.0581L40.33125 322.83936L41.284374 322.83936L41.284374 323.77686Q41.64375 323.1206 41.940624 322.91748Q42.253124 322.69873 42.628124 322.69873Q43.159374 322.69873 43.70625 323.02686L43.346874 324.01123Q42.95625 323.77686 42.58125 323.77686Q42.221874 323.77686 41.940624 323.9956Q41.675 324.19873 41.565624 324.57373Q41.378124 325.13623 41.378124 325.79248L41.378124 329.0581L40.33125 329.0581Z" fill-rule="nonzero"/><path fill="#9e9e9e" d="M19.05 343.79248L20.1125 343.65186Q20.284374 344.54248 20.721874 344.94873Q21.159374 345.33936 21.784374 345.33936Q22.534374 345.33936 23.05 344.82373Q23.565624 344.3081 23.565624 343.54248Q23.565624 342.82373 23.08125 342.35498Q22.6125 341.8706 21.878124 341.8706Q21.58125 341.8706 21.128124 341.9956L21.253124 341.0581Q21.3625 341.07373 21.425 341.07373Q22.096874 341.07373 22.628124 340.72998Q23.175 340.3706 23.175 339.63623Q23.175 339.0581 22.784374 338.6831Q22.39375 338.29248 21.76875 338.29248Q21.159374 338.29248 20.7375 338.6831Q20.33125 339.07373 20.221874 339.83936L19.159374 339.65186Q19.346874 338.60498 20.034374 338.02686Q20.721874 337.4331 21.7375 337.4331Q22.440624 337.4331 23.034374 337.7456Q23.628124 338.04248 23.940624 338.5581Q24.253124 339.07373 24.253124 339.66748Q24.253124 340.21436 23.95625 340.6831Q23.659374 341.13623 23.08125 341.40186Q23.83125 341.57373 24.253124 342.13623Q24.675 342.6831 24.675 343.52686Q24.675 344.65186 23.846874 345.4331Q23.034374 346.21436 21.784374 346.21436Q20.659374 346.21436 19.909374 345.54248Q19.159374 344.85498 19.05 343.79248ZM26.64375 346.0581L26.64375 344.85498L27.846874 344.85498L27.846874 346.0581L26.64375 346.0581ZM34.596874 345.04248L34.596874 346.0581L28.909374 346.0581Q28.909374 345.6831 29.034374 345.32373Q29.253124 344.7456 29.721874 344.1831Q30.20625 343.6206 31.1125 342.88623Q32.51875 341.72998 33.003124 341.0581Q33.503124 340.38623 33.503124 339.79248Q33.503124 339.16748 33.05 338.7456Q32.596874 338.3081 31.878124 338.3081Q31.1125 338.3081 30.659374 338.76123Q30.20625 339.21436 30.190624 340.02686L29.1125 339.91748Q29.221874 338.69873 29.940624 338.07373Q30.675 337.4331 31.909374 337.4331Q33.14375 337.4331 33.8625 338.1206Q34.58125 338.8081 34.58125 339.82373Q34.58125 340.33936 34.3625 340.83936Q34.159374 341.32373 33.659374 341.88623Q33.175 342.4331 32.05 343.38623Q31.096874 344.1831 30.815624 344.47998Q30.55 344.76123 30.378124 345.04248L34.596874 345.04248ZM36.253124 339.52686Q36.253124 338.60498 36.70625 337.96436Q37.175 337.32373 38.05 337.32373Q38.8625 337.32373 39.39375 337.90186Q39.925 338.47998 39.925 339.58936Q39.925 340.6831 39.378124 341.27686Q38.846874 341.85498 38.065624 341.85498Q37.284374 341.85498 36.76875 341.27686Q36.253124 340.69873 36.253124 339.52686ZM38.08125 338.04248Q37.690624 338.04248 37.425 338.38623Q37.175 338.72998 37.175 339.63623Q37.175 340.46436 37.425 340.8081Q37.690624 341.13623 38.08125 341.13623Q38.4875 341.13623 38.7375 340.79248Q39.003124 340.44873 39.003124 339.5581Q39.003124 338.71436 38.7375 338.38623Q38.471874 338.04248 38.08125 338.04248ZM38.08125 346.3706L42.784374 337.32373L43.64375 337.32373L38.95625 346.3706L38.08125 346.3706ZM41.8 344.04248Q41.8 343.1206 42.253124 342.47998Q42.721874 341.83936 43.6125 341.83936Q44.425 341.83936 44.95625 342.41748Q45.4875 342.97998 45.4875 344.10498Q45.4875 345.19873 44.940624 345.79248Q44.409374 346.3706 43.6125 346.3706Q42.846874 346.3706 42.315624 345.79248Q41.8 345.21436 41.8 344.04248ZM43.64375 342.5581Q43.2375 342.5581 42.971874 342.90186Q42.721874 343.2456 42.721874 344.15186Q42.721874 344.96436 42.9875 345.3081Q43.253124 345.65186 43.64375 345.65186Q44.034374 345.65186 44.3 345.3081Q44.565624 344.96436 44.565624 344.0581Q44.565624 343.22998 44.3 342.90186Q44.034374 342.5581 43.64375 342.5581Z" fill-rule="nonzero"/><path stroke="#757575" stroke-width="1.0" stroke-linecap="butt" d="M18.55 333.5581L220.73334 333.5581L319.76636 333.5581" fill-rule="nonzero"/><path fill="#9e9e9e" d="M321.76636 333.5581C321.76636 332.45355 320.8709 331.5581 319.76636 331.5581C318.66177 331.5581 317.76636 332.45355 317.76636 333.5581C317.76636 334.6627 318.66177 335.5581 319.76636 335.5581C320.8709 335.5581 321.76636 334.6627 321.76636 333.5581" fill-rule="nonzero"/><path fill="#1a1a1a" d="M706.325 192.02518L706.325 183.43143L707.46564 183.43143L707.46564 191.00955L711.7 191.00955L711.7 192.02518L706.325 192.02518ZM717.3094 191.25955Q716.71564 191.75955 716.16876 191.96268Q715.6375 192.1658 715.0125 192.1658Q713.98126 192.1658 713.4344 191.6658Q712.8875 191.1658 712.8875 190.38455Q712.8875 189.93143 713.09064 189.55643Q713.29376 189.1658 713.6375 188.94705Q713.98126 188.71268 714.40314 188.6033Q714.7 188.50955 715.34064 188.43143Q716.60626 188.2908 717.21564 188.07205Q717.21564 187.8533 717.21564 187.80643Q717.21564 187.15018 716.91876 186.88455Q716.5125 186.5408 715.71564 186.5408Q714.98126 186.5408 714.6219 186.80643Q714.2625 187.05643 714.09064 187.71268L713.0594 187.57205Q713.2 186.9158 713.52814 186.50955Q713.85626 186.1033 714.46564 185.88455Q715.075 185.6658 715.8719 185.6658Q716.66876 185.6658 717.16876 185.8533Q717.66876 186.0408 717.90314 186.32205Q718.1375 186.6033 718.23126 187.0408Q718.27814 187.30643 718.27814 188.00955L718.27814 189.4158Q718.27814 190.88455 718.34064 191.27518Q718.41876 191.6658 718.6219 192.02518L717.5125 192.02518Q717.35626 191.69705 717.3094 191.25955ZM717.21564 188.90018Q716.6375 189.13455 715.4969 189.30643Q714.84064 189.40018 714.575 189.52518Q714.3094 189.63455 714.15314 189.8533Q714.0125 190.07205 714.0125 190.3533Q714.0125 190.77518 714.325 191.05643Q714.65314 191.33768 715.2625 191.33768Q715.8719 191.33768 716.34064 191.07205Q716.825 190.80643 717.04376 190.33768Q717.21564 189.9783 717.21564 189.2908L717.21564 188.90018ZM722.54376 191.08768L722.7 192.00955Q722.2469 192.1033 721.90314 192.1033Q721.325 192.1033 721.0125 191.93143Q720.7 191.74393 720.5594 191.44705Q720.4344 191.15018 720.4344 190.19705L720.4344 186.61893L719.66876 186.61893L719.66876 185.80643L720.4344 185.80643L720.4344 184.25955L721.48126 183.63455L721.48126 185.80643L722.54376 185.80643L722.54376 186.61893L721.48126 186.61893L721.48126 190.25955Q721.48126 190.71268 721.52814 190.83768Q721.59064 190.96268 721.71564 191.0408Q721.84064 191.11893 722.075 191.11893Q722.2625 191.11893 722.54376 191.08768ZM725.54376 191.08768L725.7 192.00955Q725.2469 192.1033 724.90314 192.1033Q724.325 192.1033 724.0125 191.93143Q723.7 191.74393 723.5594 191.44705Q723.4344 191.15018 723.4344 190.19705L723.4344 186.61893L722.66876 186.61893L722.66876 185.80643L723.4344 185.80643L723.4344 184.25955L724.48126 183.63455L724.48126 185.80643L725.54376 185.80643L725.54376 186.61893L724.48126 186.61893L724.48126 190.25955Q724.48126 190.71268 724.52814 190.83768Q724.59064 190.96268 724.71564 191.0408Q724.84064 191.11893 725.075 191.11893Q725.2625 191.11893 725.54376 191.08768ZM730.4969 190.02518L731.59064 190.15018Q731.34064 191.1033 730.6375 191.63455Q729.9344 192.1658 728.85626 192.1658Q727.4969 192.1658 726.6844 191.32205Q725.8875 190.4783 725.8875 188.96268Q725.8875 187.40018 726.7 186.5408Q727.5125 185.6658 728.79376 185.6658Q730.04376 185.6658 730.825 186.50955Q731.6219 187.3533 731.6219 188.90018Q731.6219 188.99393 731.6219 189.18143L726.98126 189.18143Q727.04376 190.21268 727.5594 190.75955Q728.075 191.2908 728.85626 191.2908Q729.4344 191.2908 729.84064 190.99393Q730.2625 190.68143 730.4969 190.02518ZM727.04376 188.32205L730.5125 188.32205Q730.45 187.52518 730.1219 187.13455Q729.60626 186.52518 728.8094 186.52518Q728.075 186.52518 727.575 187.00955Q727.09064 187.49393 727.04376 188.32205Z" fill-rule="nonzero"/><path fill="#9e9e9e" d="M701.325 209.02518L701.325 206.96268L697.60626 206.96268L697.60626 205.99393L701.52814 200.43143L702.3875 200.43143L702.3875 205.99393L703.54376 205.99393L703.54376 206.96268L702.3875 206.96268L702.3875 209.02518L701.325 209.02518ZM701.325 205.99393L701.325 202.13455L698.6375 205.99393L701.325 205.99393ZM706.575 204.36893Q705.91876 204.11893 705.59064 203.68143Q705.27814 203.2283 705.27814 202.61893Q705.27814 201.68143 705.95 201.0408Q706.6375 200.40018 707.7469 200.40018Q708.8719 200.40018 709.5594 201.05643Q710.2469 201.71268 710.2469 202.65018Q710.2469 203.24393 709.9344 203.68143Q709.6219 204.11893 708.98126 204.36893Q709.77814 204.61893 710.1844 205.19705Q710.59064 205.77518 710.59064 206.57205Q710.59064 207.6658 709.8094 208.4158Q709.04376 209.1658 707.7625 209.1658Q706.4969 209.1658 705.71564 208.4158Q704.9344 207.6658 704.9344 206.5408Q704.9344 205.69705 705.35626 205.13455Q705.79376 204.57205 706.575 204.36893ZM706.35626 202.57205Q706.35626 203.18143 706.7469 203.57205Q707.15314 203.96268 707.77814 203.96268Q708.3875 203.96268 708.77814 203.58768Q709.16876 203.19705 709.16876 202.63455Q709.16876 202.05643 708.7625 201.6658Q708.35626 201.25955 707.7625 201.25955Q707.15314 201.25955 706.7469 201.65018Q706.35626 202.0408 706.35626 202.57205ZM706.02814 206.5408Q706.02814 206.99393 706.23126 207.4158Q706.45 207.83768 706.8719 208.07205Q707.29376 208.30643 707.77814 208.30643Q708.52814 208.30643 709.0125 207.82205Q709.5125 207.33768 709.5125 206.58768Q709.5125 205.82205 709.0125 205.32205Q708.5125 204.82205 707.7469 204.82205Q706.9969 204.82205 706.5125 205.32205Q706.02814 205.80643 706.02814 206.5408ZM712.54376 209.02518L712.54376 207.82205L713.7469 207.82205L713.7469 209.02518L712.54376 209.02518ZM718.325 209.02518L718.325 206.96268L714.60626 206.96268L714.60626 205.99393L718.52814 200.43143L719.3875 200.43143L719.3875 205.99393L720.54376 205.99393L720.54376 206.96268L719.3875 206.96268L719.3875 209.02518L718.325 209.02518ZM718.325 205.99393L718.325 202.13455L715.6375 205.99393L718.325 205.99393ZM722.15314 202.49393Q722.15314 201.57205 722.60626 200.93143Q723.075 200.2908 723.95 200.2908Q724.7625 200.2908 725.29376 200.86893Q725.825 201.44705 725.825 202.55643Q725.825 203.65018 725.27814 204.24393Q724.7469 204.82205 723.96564 204.82205Q723.1844 204.82205 722.66876 204.24393Q722.15314 203.6658 722.15314 202.49393ZM723.98126 201.00955Q723.59064 201.00955 723.325 201.3533Q723.075 201.69705 723.075 202.6033Q723.075 203.43143 723.325 203.77518Q723.59064 204.1033 723.98126 204.1033Q724.3875 204.1033 724.6375 203.75955Q724.90314 203.4158 724.90314 202.52518Q724.90314 201.68143 724.6375 201.3533Q724.3719 201.00955 723.98126 201.00955ZM723.98126 209.33768L728.6844 200.2908L729.54376 200.2908L724.85626 209.33768L723.98126 209.33768ZM727.7 207.00955Q727.7 206.08768 728.15314 205.44705Q728.6219 204.80643 729.5125 204.80643Q730.325 204.80643 730.85626 205.38455Q731.3875 205.94705 731.3875 207.07205Q731.3875 208.1658 730.84064 208.75955Q730.3094 209.33768 729.5125 209.33768Q728.7469 209.33768 728.21564 208.75955Q727.7 208.18143 727.7 207.00955ZM729.54376 205.52518Q729.1375 205.52518 728.8719 205.86893Q728.6219 206.21268 728.6219 207.11893Q728.6219 207.93143 728.8875 208.27518Q729.15314 208.61893 729.54376 208.61893Q729.9344 208.61893 730.2 208.27518Q730.46564 207.93143 730.46564 207.02518Q730.46564 206.19705 730.2 205.86893Q729.9344 205.52518 729.54376 205.52518Z" fill-rule="nonzero"/><path stroke="#757575" stroke-width="1.0" stroke-linecap="butt" d="M732.45 196.52518L530.26666 196.52518L516.6469 196.52518" fill-rule="nonzero"/><path fill="#9e9e9e" d="M518.6469 196.52518C518.6469 195.42061 517.7515 194.52518 516.6469 194.52518C515.54236 194.52518 514.6469 195.42061 514.6469 196.52518C514.6469 197.62975 515.54236 198.52518 516.6469 198.52518C517.7515 198.52518 518.6469 197.62975 518.6469 196.52518" fill-rule="nonzero"/><path fill="#1a1a1a" d="M532.4344 332.45L532.4344 323.85626L538.23126 323.85626L538.23126 324.8719L533.575 324.8719L533.575 327.52814L537.60626 327.52814L537.60626 328.54376L533.575 328.54376L533.575 332.45L532.4344 332.45ZM539.21564 332.45L539.21564 323.85626L540.27814 323.85626L540.27814 332.45L539.21564 332.45ZM546.3094 331.6844Q545.71564 332.1844 545.16876 332.3875Q544.6375 332.59064 544.0125 332.59064Q542.98126 332.59064 542.4344 332.09064Q541.8875 331.59064 541.8875 330.8094Q541.8875 330.35626 542.09064 329.98126Q542.29376 329.59064 542.6375 329.3719Q542.98126 329.1375 543.40314 329.02814Q543.7 328.9344 544.34064 328.85626Q545.60626 328.71564 546.21564 328.4969Q546.21564 328.27814 546.21564 328.23126Q546.21564 327.575 545.91876 327.3094Q545.5125 326.96564 544.71564 326.96564Q543.98126 326.96564 543.6219 327.23126Q543.2625 327.48126 543.09064 328.1375L542.0594 327.9969Q542.2 327.34064 542.52814 326.9344Q542.85626 326.52814 543.46564 326.3094Q544.075 326.09064 544.8719 326.09064Q545.66876 326.09064 546.16876 326.27814Q546.66876 326.46564 546.90314 326.7469Q547.1375 327.02814 547.23126 327.46564Q547.27814 327.73126 547.27814 328.4344L547.27814 329.84064Q547.27814 331.3094 547.34064 331.7Q547.41876 332.09064 547.6219 332.45L546.5125 332.45Q546.35626 332.1219 546.3094 331.6844ZM546.21564 329.325Q545.6375 329.5594 544.4969 329.73126Q543.84064 329.825 543.575 329.95Q543.3094 330.0594 543.15314 330.27814Q543.0125 330.4969 543.0125 330.77814Q543.0125 331.2 543.325 331.48126Q543.65314 331.7625 544.2625 331.7625Q544.8719 331.7625 545.34064 331.4969Q545.825 331.23126 546.04376 330.7625Q546.21564 330.40314 546.21564 329.71564L546.21564 329.325ZM551.54376 331.5125L551.7 332.4344Q551.2469 332.52814 550.90314 332.52814Q550.325 332.52814 550.0125 332.35626Q549.7 332.16876 549.5594 331.8719Q549.4344 331.575 549.4344 330.6219L549.4344 327.04376L548.66876 327.04376L548.66876 326.23126L549.4344 326.23126L549.4344 324.6844L550.48126 324.0594L550.48126 326.23126L551.54376 326.23126L551.54376 327.04376L550.48126 327.04376L550.48126 330.6844Q550.48126 331.1375 550.52814 331.2625Q550.59064 331.3875 550.71564 331.46564Q550.84064 331.54376 551.075 331.54376Q551.2625 331.54376 551.54376 331.5125ZM556.3875 332.45L554.48126 326.23126L555.575 326.23126L556.5594 329.825L556.9344 331.15314Q556.96564 331.0594 557.2625 329.8719L558.2469 326.23126L559.325 326.23126L560.2625 329.84064L560.575 331.02814L560.9344 329.825L561.9969 326.23126L563.02814 326.23126L561.075 332.45L559.98126 332.45L558.9969 328.71564L558.7469 327.66876L557.4969 332.45L556.3875 332.45ZM564.2469 332.45L564.2469 323.85626L565.29376 323.85626L565.29376 326.9344Q566.02814 326.09064 567.15314 326.09064Q567.85626 326.09064 568.35626 326.3719Q568.8719 326.6375 569.09064 327.1219Q569.3094 327.59064 569.3094 328.5125L569.3094 332.45L568.2625 332.45L568.2625 328.5125Q568.2625 327.71564 567.91876 327.35626Q567.575 326.9969 566.95 326.9969Q566.48126 326.9969 566.0594 327.2469Q565.65314 327.48126 565.46564 327.90314Q565.29376 328.3094 565.29376 329.04376L565.29376 332.45L564.2469 332.45ZM571.2469 325.075L571.2469 323.85626L572.3094 323.85626L572.3094 325.075L571.2469 325.075ZM571.2469 332.45L571.2469 326.23126L572.3094 326.23126L572.3094 332.45L571.2469 332.45ZM576.54376 331.5125L576.7 332.4344Q576.2469 332.52814 575.90314 332.52814Q575.325 332.52814 575.0125 332.35626Q574.7 332.16876 574.5594 331.8719Q574.4344 331.575 574.4344 330.6219L574.4344 327.04376L573.66876 327.04376L573.66876 326.23126L574.4344 326.23126L574.4344 324.6844L575.48126 324.0594L575.48126 326.23126L576.54376 326.23126L576.54376 327.04376L575.48126 327.04376L575.48126 330.6844Q575.48126 331.1375 575.52814 331.2625Q575.59064 331.3875 575.71564 331.46564Q575.84064 331.54376 576.075 331.54376Q576.2625 331.54376 576.54376 331.5125ZM581.4969 330.45L582.59064 330.575Q582.34064 331.52814 581.6375 332.0594Q580.9344 332.59064 579.85626 332.59064Q578.4969 332.59064 577.6844 331.7469Q576.8875 330.90314 576.8875 329.3875Q576.8875 327.825 577.7 326.96564Q578.5125 326.09064 579.79376 326.09064Q581.04376 326.09064 581.825 326.9344Q582.6219 327.77814 582.6219 329.325Q582.6219 329.41876 582.6219 329.60626L577.98126 329.60626Q578.04376 330.6375 578.5594 331.1844Q579.075 331.71564 579.85626 331.71564Q580.4344 331.71564 580.84064 331.41876Q581.2625 331.10626 581.4969 330.45ZM578.04376 328.7469L581.5125 328.7469Q581.45 327.95 581.1219 327.5594Q580.60626 326.95 579.8094 326.95Q579.075 326.95 578.575 327.4344Q578.09064 327.91876 578.04376 328.7469ZM584.8094 330.3094L584.48126 325.7625L584.48126 323.85626L585.79376 323.85626L585.79376 325.7625L585.48126 330.3094L584.8094 330.3094ZM584.52814 332.45L584.52814 331.2469L585.7469 331.2469L585.7469 332.45L584.52814 332.45ZM592.2625 334.98126Q591.3875 333.8719 590.77814 332.40314Q590.1844 330.91876 590.1844 329.34064Q590.1844 327.95 590.6219 326.66876Q591.15314 325.1844 592.2625 323.71564L593.0125 323.71564Q592.3094 324.9344 592.075 325.45Q591.71564 326.2625 591.5125 327.1375Q591.2625 328.23126 591.2625 329.34064Q591.2625 332.16876 593.0125 334.98126L592.2625 334.98126ZM594.02814 328.2625Q594.02814 326.1219 595.16876 324.91876Q596.325 323.7 598.1375 323.7Q599.34064 323.7 600.29376 324.27814Q601.2469 324.84064 601.7469 325.85626Q602.2469 326.8719 602.2469 328.16876Q602.2469 329.46564 601.71564 330.4969Q601.1844 331.52814 600.21564 332.0594Q599.2625 332.59064 598.1375 332.59064Q596.91876 332.59064 595.96564 332.0125Q595.0125 331.41876 594.5125 330.41876Q594.02814 329.40314 594.02814 328.2625ZM595.2 328.27814Q595.2 329.84064 596.02814 330.73126Q596.8719 331.6219 598.1375 331.6219Q599.41876 331.6219 600.2469 330.73126Q601.075 329.825 601.075 328.15314Q601.075 327.10626 600.71564 326.325Q600.3719 325.54376 599.6844 325.1219Q598.9969 324.6844 598.15314 324.6844Q596.95 324.6844 596.075 325.5125Q595.2 326.34064 595.2 328.27814ZM607.3094 331.6844Q606.71564 332.1844 606.16876 332.3875Q605.6375 332.59064 605.0125 332.59064Q603.98126 332.59064 603.4344 332.09064Q602.8875 331.59064 602.8875 330.8094Q602.8875 330.35626 603.09064 329.98126Q603.29376 329.59064 603.6375 329.3719Q603.98126 329.1375 604.40314 329.02814Q604.7 328.9344 605.34064 328.85626Q606.60626 328.71564 607.21564 328.4969Q607.21564 328.27814 607.21564 328.23126Q607.21564 327.575 606.91876 327.3094Q606.5125 326.96564 605.71564 326.96564Q604.98126 326.96564 604.6219 327.23126Q604.2625 327.48126 604.09064 328.1375L603.0594 327.9969Q603.2 327.34064 603.52814 326.9344Q603.85626 326.52814 604.46564 326.3094Q605.075 326.09064 605.8719 326.09064Q606.66876 326.09064 607.16876 326.27814Q607.66876 326.46564 607.90314 326.7469Q608.1375 327.02814 608.23126 327.46564Q608.27814 327.73126 608.27814 328.4344L608.27814 329.84064Q608.27814 331.3094 608.34064 331.7Q608.41876 332.09064 608.6219 332.45L607.5125 332.45Q607.35626 332.1219 607.3094 331.6844ZM607.21564 329.325Q606.6375 329.5594 605.4969 329.73126Q604.84064 329.825 604.575 329.95Q604.3094 330.0594 604.15314 330.27814Q604.0125 330.4969 604.0125 330.77814Q604.0125 331.2 604.325 331.48126Q604.65314 331.7625 605.2625 331.7625Q605.8719 331.7625 606.34064 331.4969Q606.825 331.23126 607.04376 330.7625Q607.21564 330.40314 607.21564 329.71564L607.21564 329.325ZM612.54376 331.5125L612.7 332.4344Q612.2469 332.52814 611.90314 332.52814Q611.325 332.52814 611.0125 332.35626Q610.7 332.16876 610.5594 331.8719Q610.4344 331.575 610.4344 330.6219L610.4344 327.04376L609.66876 327.04376L609.66876 326.23126L610.4344 326.23126L610.4344 324.6844L611.48126 324.0594L611.48126 326.23126L612.54376 326.23126L612.54376 327.04376L611.48126 327.04376L611.48126 330.6844Q611.48126 331.1375 611.52814 331.2625Q611.59064 331.3875 611.71564 331.46564Q611.84064 331.54376 612.075 331.54376Q612.2625 331.54376 612.54376 331.5125ZM616.2469 332.45L616.2469 326.23126L617.1844 326.23126L617.1844 327.10626Q617.48126 326.6375 617.96564 326.3719Q618.45 326.09064 619.075 326.09064Q619.7625 326.09064 620.2 326.3719Q620.65314 326.65314 620.825 327.16876Q621.575 326.09064 622.7469 326.09064Q623.6844 326.09064 624.16876 326.60626Q624.66876 327.10626 624.66876 328.1844L624.66876 332.45L623.6219 332.45L623.6219 328.52814Q623.6219 327.90314 623.5125 327.6219Q623.41876 327.34064 623.15314 327.16876Q622.8875 326.9969 622.5125 326.9969Q621.85626 326.9969 621.41876 327.4344Q620.9969 327.8719 620.9969 328.84064L620.9969 332.45L619.9344 332.45L619.9344 328.40314Q619.9344 327.7 619.66876 327.35626Q619.41876 326.9969 618.84064 326.9969Q618.3875 326.9969 618.0125 327.23126Q617.6375 327.46564 617.46564 327.91876Q617.29376 328.3719 617.29376 329.21564L617.29376 332.45L616.2469 332.45ZM627.2469 325.075L627.2469 323.85626L628.3094 323.85626L628.3094 325.075L627.2469 325.075ZM627.2469 332.45L627.2469 326.23126L628.3094 326.23126L628.3094 332.45L627.2469 332.45ZM630.21564 332.45L630.21564 323.85626L631.27814 323.85626L631.27814 332.45L630.21564 332.45ZM633.2469 332.45L633.2469 323.85626L634.3094 323.85626L634.3094 328.7625L636.79376 326.23126L638.16876 326.23126L635.77814 328.52814L638.40314 332.45L637.10626 332.45L635.04376 329.2625L634.3094 329.98126L634.3094 332.45L633.2469 332.45ZM646.3094 331.6844Q645.71564 332.1844 645.16876 332.3875Q644.6375 332.59064 644.0125 332.59064Q642.98126 332.59064 642.4344 332.09064Q641.8875 331.59064 641.8875 330.8094Q641.8875 330.35626 642.09064 329.98126Q642.29376 329.59064 642.6375 329.3719Q642.98126 329.1375 643.40314 329.02814Q643.7 328.9344 644.34064 328.85626Q645.60626 328.71564 646.21564 328.4969Q646.21564 328.27814 646.21564 328.23126Q646.21564 327.575 645.91876 327.3094Q645.5125 326.96564 644.71564 326.96564Q643.98126 326.96564 643.6219 327.23126Q643.2625 327.48126 643.09064 328.1375L642.0594 327.9969Q642.2 327.34064 642.52814 326.9344Q642.85626 326.52814 643.46564 326.3094Q644.075 326.09064 644.8719 326.09064Q645.66876 326.09064 646.16876 326.27814Q646.66876 326.46564 646.90314 326.7469Q647.1375 327.02814 647.23126 327.46564Q647.27814 327.73126 647.27814 328.4344L647.27814 329.84064Q647.27814 331.3094 647.34064 331.7Q647.41876 332.09064 647.6219 332.45L646.5125 332.45Q646.35626 332.1219 646.3094 331.6844ZM646.21564 329.325Q645.6375 329.5594 644.4969 329.73126Q643.84064 329.825 643.575 329.95Q643.3094 330.0594 643.15314 330.27814Q643.0125 330.4969 643.0125 330.77814Q643.0125 331.2 643.325 331.48126Q643.65314 331.7625 644.2625 331.7625Q644.8719 331.7625 645.34064 331.4969Q645.825 331.23126 646.04376 330.7625Q646.21564 330.40314 646.21564 329.71564L646.21564 329.325ZM649.2469 332.45L649.2469 326.23126L650.1844 326.23126L650.1844 327.10626Q650.8719 326.09064 652.16876 326.09064Q652.73126 326.09064 653.2 326.29376Q653.6844 326.4969 653.91876 326.825Q654.15314 327.15314 654.2469 327.59064Q654.29376 327.8875 654.29376 328.6219L654.29376 332.45L653.2469 332.45L653.2469 328.66876Q653.2469 328.0125 653.1219 327.7Q652.9969 327.3875 652.6844 327.2Q652.3719 326.9969 651.95 326.9969Q651.27814 326.9969 650.77814 327.4344Q650.29376 327.85626 650.29376 329.04376L650.29376 332.45L649.2469 332.45ZM660.27814 332.45L660.27814 331.66876Q659.6844 332.59064 658.54376 332.59064Q657.79376 332.59064 657.16876 332.1844Q656.54376 331.7625 656.2 331.02814Q655.85626 330.29376 655.85626 329.34064Q655.85626 328.41876 656.16876 327.65314Q656.48126 326.8875 657.10626 326.4969Q657.73126 326.09064 658.4969 326.09064Q659.0594 326.09064 659.4969 326.325Q659.9344 326.5594 660.21564 326.9344L660.21564 323.85626L661.2625 323.85626L661.2625 332.45L660.27814 332.45ZM656.95 329.34064Q656.95 330.54376 657.45 331.1375Q657.95 331.71564 658.6375 331.71564Q659.325 331.71564 659.8094 331.15314Q660.29376 330.59064 660.29376 329.4344Q660.29376 328.15314 659.79376 327.5594Q659.3094 326.96564 658.59064 326.96564Q657.8875 326.96564 657.41876 327.54376Q656.95 328.10626 656.95 329.34064ZM666.2469 332.45L666.2469 323.85626L667.29376 323.85626L667.29376 326.9344Q668.02814 326.09064 669.15314 326.09064Q669.85626 326.09064 670.35626 326.3719Q670.8719 326.6375 671.09064 327.1219Q671.3094 327.59064 671.3094 328.5125L671.3094 332.45L670.2625 332.45L670.2625 328.5125Q670.2625 327.71564 669.91876 327.35626Q669.575 326.9969 668.95 326.9969Q668.48126 326.9969 668.0594 327.2469Q667.65314 327.48126 667.46564 327.90314Q667.29376 328.3094 667.29376 329.04376L667.29376 332.45L666.2469 332.45ZM677.3094 331.6844Q676.71564 332.1844 676.16876 332.3875Q675.6375 332.59064 675.0125 332.59064Q673.98126 332.59064 673.4344 332.09064Q672.8875 331.59064 672.8875 330.8094Q672.8875 330.35626 673.09064 329.98126Q673.29376 329.59064 673.6375 329.3719Q673.98126 329.1375 674.40314 329.02814Q674.7 328.9344 675.34064 328.85626Q676.60626 328.71564 677.21564 328.4969Q677.21564 328.27814 677.21564 328.23126Q677.21564 327.575 676.91876 327.3094Q676.5125 326.96564 675.71564 326.96564Q674.98126 326.96564 674.6219 327.23126Q674.2625 327.48126 674.09064 328.1375L673.0594 327.9969Q673.2 327.34064 673.52814 326.9344Q673.85626 326.52814 674.46564 326.3094Q675.075 326.09064 675.8719 326.09064Q676.66876 326.09064 677.16876 326.27814Q677.66876 326.46564 677.90314 326.7469Q678.1375 327.02814 678.23126 327.46564Q678.27814 327.73126 678.27814 328.4344L678.27814 329.84064Q678.27814 331.3094 678.34064 331.7Q678.41876 332.09064 678.6219 332.45L677.5125 332.45Q677.35626 332.1219 677.3094 331.6844ZM677.21564 329.325Q676.6375 329.5594 675.4969 329.73126Q674.84064 329.825 674.575 329.95Q674.3094 330.0594 674.15314 330.27814Q674.0125 330.4969 674.0125 330.77814Q674.0125 331.2 674.325 331.48126Q674.65314 331.7625 675.2625 331.7625Q675.8719 331.7625 676.34064 331.4969Q676.825 331.23126 677.04376 330.7625Q677.21564 330.40314 677.21564 329.71564L677.21564 329.325ZM680.21564 332.45L680.21564 323.85626L681.27814 323.85626L681.27814 332.45L680.21564 332.45ZM683.4969 332.45L683.4969 327.04376L682.5594 327.04376L682.5594 326.23126L683.4969 326.23126L683.4969 325.5594Q683.4969 324.9344 683.60626 324.6375Q683.7625 324.21564 684.1375 323.96564Q684.52814 323.71564 685.21564 323.71564Q685.66876 323.71564 686.2 323.825L686.04376 324.73126Q685.71564 324.6844 685.41876 324.6844Q684.9344 324.6844 684.73126 324.8875Q684.54376 325.09064 684.54376 325.65314L684.54376 326.23126L685.7625 326.23126L685.7625 327.04376L684.54376 327.04376L684.54376 332.45L683.4969 332.45ZM693.27814 332.45L693.27814 331.66876Q692.6844 332.59064 691.54376 332.59064Q690.79376 332.59064 690.16876 332.1844Q689.54376 331.7625 689.2 331.02814Q688.85626 330.29376 688.85626 329.34064Q688.85626 328.41876 689.16876 327.65314Q689.48126 326.8875 690.10626 326.4969Q690.73126 326.09064 691.4969 326.09064Q692.0594 326.09064 692.4969 326.325Q692.9344 326.5594 693.21564 326.9344L693.21564 323.85626L694.2625 323.85626L694.2625 332.45L693.27814 332.45ZM689.95 329.34064Q689.95 330.54376 690.45 331.1375Q690.95 331.71564 691.6375 331.71564Q692.325 331.71564 692.8094 331.15314Q693.29376 330.59064 693.29376 329.4344Q693.29376 328.15314 692.79376 327.5594Q692.3094 326.96564 691.59064 326.96564Q690.8875 326.96564 690.41876 327.54376Q689.95 328.10626 689.95 329.34064ZM700.4969 330.45L701.59064 330.575Q701.34064 331.52814 700.6375 332.0594Q699.9344 332.59064 698.85626 332.59064Q697.4969 332.59064 696.6844 331.7469Q695.8875 330.90314 695.8875 329.3875Q695.8875 327.825 696.7 326.96564Q697.5125 326.09064 698.79376 326.09064Q700.04376 326.09064 700.825 326.9344Q701.6219 327.77814 701.6219 329.325Q701.6219 329.41876 701.6219 329.60626L696.98126 329.60626Q697.04376 330.6375 697.5594 331.1844Q698.075 331.71564 698.85626 331.71564Q699.4344 331.71564 699.84064 331.41876Q700.2625 331.10626 700.4969 330.45ZM697.04376 328.7469L700.5125 328.7469Q700.45 327.95 700.1219 327.5594Q699.60626 326.95 698.8094 326.95Q698.075 326.95 697.575 327.4344Q697.09064 327.91876 697.04376 328.7469ZM707.3094 330.16876L708.34064 330.3094Q708.16876 331.3719 707.46564 331.98126Q706.7625 332.59064 705.7469 332.59064Q704.46564 332.59064 703.6844 331.7625Q702.91876 330.91876 702.91876 329.35626Q702.91876 328.35626 703.2469 327.60626Q703.59064 326.84064 704.2625 326.46564Q704.95 326.09064 705.7625 326.09064Q706.7625 326.09064 707.40314 326.60626Q708.0594 327.10626 708.2469 328.0594L707.21564 328.21564Q707.075 327.59064 706.7 327.27814Q706.325 326.95 705.79376 326.95Q704.9969 326.95 704.4969 327.52814Q703.9969 328.09064 703.9969 329.325Q703.9969 330.59064 704.48126 331.15314Q704.96564 331.71564 705.73126 331.71564Q706.35626 331.71564 706.7625 331.34064Q707.1844 330.96564 707.3094 330.16876ZM713.3094 331.6844Q712.71564 332.1844 712.16876 332.3875Q711.6375 332.59064 711.0125 332.59064Q709.98126 332.59064 709.4344 332.09064Q708.8875 331.59064 708.8875 330.8094Q708.8875 330.35626 709.09064 329.98126Q709.29376 329.59064 709.6375 329.3719Q709.98126 329.1375 710.40314 329.02814Q710.7 328.9344 711.34064 328.85626Q712.60626 328.71564 713.21564 328.4969Q713.21564 328.27814 713.21564 328.23126Q713.21564 327.575 712.91876 327.3094Q712.5125 326.96564 711.71564 326.96564Q710.98126 326.96564 710.6219 327.23126Q710.2625 327.48126 710.09064 328.1375L709.0594 327.9969Q709.2 327.34064 709.52814 326.9344Q709.85626 326.52814 710.46564 326.3094Q711.075 326.09064 711.8719 326.09064Q712.66876 326.09064 713.16876 326.27814Q713.66876 326.46564 713.90314 326.7469Q714.1375 327.02814 714.23126 327.46564Q714.27814 327.73126 714.27814 328.4344L714.27814 329.84064Q714.27814 331.3094 714.34064 331.7Q714.41876 332.09064 714.6219 332.45L713.5125 332.45Q713.35626 332.1219 713.3094 331.6844ZM713.21564 329.325Q712.6375 329.5594 711.4969 329.73126Q710.84064 329.825 710.575 329.95Q710.3094 330.0594 710.15314 330.27814Q710.0125 330.4969 710.0125 330.77814Q710.0125 331.2 710.325 331.48126Q710.65314 331.7625 711.2625 331.7625Q711.8719 331.7625 712.34064 331.4969Q712.825 331.23126 713.04376 330.7625Q713.21564 330.40314 713.21564 329.71564L713.21564 329.325ZM716.4969 332.45L716.4969 327.04376L715.5594 327.04376L715.5594 326.23126L716.4969 326.23126L716.4969 325.5594Q716.4969 324.9344 716.60626 324.6375Q716.7625 324.21564 717.1375 323.96564Q717.52814 323.71564 718.21564 323.71564Q718.66876 323.71564 719.2 323.825L719.04376 324.73126Q718.71564 324.6844 718.41876 324.6844Q717.9344 324.6844 717.73126 324.8875Q717.54376 325.09064 717.54376 325.65314L717.54376 326.23126L718.7625 326.23126L718.7625 327.04376L717.54376 327.04376L717.54376 332.45L716.4969 332.45ZM722.52814 327.4344L722.52814 326.23126L723.73126 326.23126L723.73126 327.4344L722.52814 327.4344ZM722.52814 332.45L722.52814 331.2469L723.73126 331.2469L723.73126 332.45L722.52814 332.45ZM724.825 329.8719L724.825 328.8094L728.075 328.8094L728.075 329.8719L724.825 329.8719ZM729.9344 334.98126L729.1844 334.98126Q730.9344 332.16876 730.9344 329.34064Q730.9344 328.2469 730.6844 327.15314Q730.48126 326.27814 730.1219 325.46564Q729.8875 324.95 729.1844 323.71564L729.9344 323.71564Q731.02814 325.1844 731.5594 326.66876Q732.0125 327.95 732.0125 329.34064Q732.0125 330.91876 731.40314 332.40314Q730.79376 333.8719 729.9344 334.98126Z" fill-rule="nonzero"/><path fill="#9e9e9e" d="M704.95 347.1844L706.0125 347.04376Q706.1844 347.9344 706.6219 348.34064Q707.0594 348.73126 707.6844 348.73126Q708.4344 348.73126 708.95 348.21564Q709.46564 347.7 709.46564 346.9344Q709.46564 346.21564 708.98126 345.7469Q708.5125 345.2625 707.77814 345.2625Q707.48126 345.2625 707.02814 345.3875L707.15314 344.45Q707.2625 344.46564 707.325 344.46564Q707.9969 344.46564 708.52814 344.1219Q709.075 343.7625 709.075 343.02814Q709.075 342.45 708.6844 342.075Q708.29376 341.6844 707.66876 341.6844Q707.0594 341.6844 706.6375 342.075Q706.23126 342.46564 706.1219 343.23126L705.0594 343.04376Q705.2469 341.9969 705.9344 341.41876Q706.6219 340.825 707.6375 340.825Q708.34064 340.825 708.9344 341.1375Q709.52814 341.4344 709.84064 341.95Q710.15314 342.46564 710.15314 343.0594Q710.15314 343.60626 709.85626 344.075Q709.5594 344.52814 708.98126 344.79376Q709.73126 344.96564 710.15314 345.52814Q710.575 346.075 710.575 346.91876Q710.575 348.04376 709.7469 348.825Q708.9344 349.60626 707.6844 349.60626Q706.5594 349.60626 705.8094 348.9344Q705.0594 348.2469 704.95 347.1844ZM712.54376 349.45L712.54376 348.2469L713.7469 348.2469L713.7469 349.45L712.54376 349.45ZM720.4969 348.4344L720.4969 349.45L714.8094 349.45Q714.8094 349.075 714.9344 348.71564Q715.15314 348.1375 715.6219 347.575Q716.10626 347.0125 717.0125 346.27814Q718.41876 345.1219 718.90314 344.45Q719.40314 343.77814 719.40314 343.1844Q719.40314 342.5594 718.95 342.1375Q718.4969 341.7 717.77814 341.7Q717.0125 341.7 716.5594 342.15314Q716.10626 342.60626 716.09064 343.41876L715.0125 343.3094Q715.1219 342.09064 715.84064 341.46564Q716.575 340.825 717.8094 340.825Q719.04376 340.825 719.7625 341.5125Q720.48126 342.2 720.48126 343.21564Q720.48126 343.73126 720.2625 344.23126Q720.0594 344.71564 719.5594 345.27814Q719.075 345.825 717.95 346.77814Q716.9969 347.575 716.71564 347.8719Q716.45 348.15314 716.27814 348.4344L720.4969 348.4344ZM722.15314 342.91876Q722.15314 341.9969 722.60626 341.35626Q723.075 340.71564 723.95 340.71564Q724.7625 340.71564 725.29376 341.29376Q725.825 341.8719 725.825 342.98126Q725.825 344.075 725.27814 344.66876Q724.7469 345.2469 723.96564 345.2469Q723.1844 345.2469 722.66876 344.66876Q722.15314 344.09064 722.15314 342.91876ZM723.98126 341.4344Q723.59064 341.4344 723.325 341.77814Q723.075 342.1219 723.075 343.02814Q723.075 343.85626 723.325 344.2Q723.59064 344.52814 723.98126 344.52814Q724.3875 344.52814 724.6375 344.1844Q724.90314 343.84064 724.90314 342.95Q724.90314 342.10626 724.6375 341.77814Q724.3719 341.4344 723.98126 341.4344ZM723.98126 349.7625L728.6844 340.71564L729.54376 340.71564L724.85626 349.7625L723.98126 349.7625ZM727.7 347.4344Q727.7 346.5125 728.15314 345.8719Q728.6219 345.23126 729.5125 345.23126Q730.325 345.23126 730.85626 345.8094Q731.3875 346.3719 731.3875 347.4969Q731.3875 348.59064 730.84064 349.1844Q730.3094 349.7625 729.5125 349.7625Q728.7469 349.7625 728.21564 349.1844Q727.7 348.60626 727.7 347.4344ZM729.54376 345.95Q729.1375 345.95 728.8719 346.29376Q728.6219 346.6375 728.6219 347.54376Q728.6219 348.35626 728.8875 348.7Q729.15314 349.04376 729.54376 349.04376Q729.9344 349.04376 730.2 348.7Q730.46564 348.35626 730.46564 347.45Q730.46564 346.6219 730.2 346.29376Q729.9344 345.95 729.54376 345.95Z" fill-rule="nonzero"/><path stroke="#757575" stroke-width="1.0" stroke-linecap="butt" d="M732.45 336.95L530.26666 336.95L375.5 345.01166" fill-rule="nonzero"/><path fill="#9e9e9e" d="M377.5 345.01166C377.5 343.9071 376.60458 343.01166 375.5 343.01166C374.39542 343.01166 373.5 343.9071 373.5 345.01166C373.5 346.11624 374.39542 347.01166 375.5 347.01166C376.60458 347.01166 377.5 346.11624 377.5 345.01166" fill-rule="nonzero"/><path fill="#757575" d="M20.01875 37.55L20.01875 23.2375L21.909374 23.2375L21.909374 35.8625L28.95625 35.8625L28.95625 37.55L20.01875 37.55ZM37.64375 36.26875Q36.659374 37.096874 35.753124 37.440624Q34.846874 37.784374 33.815624 37.784374Q32.1125 37.784374 31.190624 36.95625Q30.26875 36.1125 30.26875 34.815624Q30.26875 34.05 30.6125 33.425Q30.971874 32.8 31.534374 32.425Q32.096874 32.034374 32.8 31.83125Q33.315624 31.70625 34.3625 31.565624Q36.4875 31.315624 37.4875 30.971874Q37.503124 30.6125 37.503124 30.503124Q37.503124 29.440624 37.003124 28.9875Q36.33125 28.39375 35.003124 28.39375Q33.753124 28.39375 33.159374 28.83125Q32.58125 29.26875 32.3 30.378124L30.58125 30.14375Q30.815624 29.034374 31.346874 28.3625Q31.878124 27.675 32.89375 27.315624Q33.909374 26.940624 35.253124 26.940624Q36.58125 26.940624 37.409374 27.253124Q38.2375 27.565624 38.628124 28.05Q39.01875 28.51875 39.175 29.2375Q39.26875 29.690624 39.26875 30.8625L39.26875 33.20625Q39.26875 35.659374 39.378124 36.315624Q39.4875 36.95625 39.83125 37.55L37.9875 37.55Q37.721874 37.003124 37.64375 36.26875ZM37.4875 32.346874Q36.534374 32.7375 34.6125 33.003124Q33.534374 33.159374 33.08125 33.3625Q32.64375 33.55 32.39375 33.925Q32.14375 34.3 32.14375 34.76875Q32.14375 35.471874 32.675 35.940624Q33.20625 36.409374 34.2375 36.409374Q35.253124 36.409374 36.034374 35.971874Q36.83125 35.51875 37.20625 34.753124Q37.4875 34.14375 37.4875 32.9875L37.4875 32.346874ZM45.70625 35.971874L45.95625 37.534374Q45.221874 37.690624 44.628124 37.690624Q43.675 37.690624 43.14375 37.39375Q42.628124 37.08125 42.409374 36.596874Q42.190624 36.096874 42.190624 34.51875L42.190624 28.55L40.909374 28.55L40.909374 27.175L42.190624 27.175L42.190624 24.6125L43.940624 23.55L43.940624 27.175L45.70625 27.175L45.70625 28.55L43.940624 28.55L43.940624 34.6125Q43.940624 35.3625 44.034374 35.58125Q44.128124 35.784374 44.33125 35.925Q44.55 36.05 44.940624 36.05Q45.221874 36.05 45.70625 35.971874ZM51.70625 35.971874L51.95625 37.534374Q51.221874 37.690624 50.628124 37.690624Q49.675 37.690624 49.14375 37.39375Q48.628124 37.08125 48.409374 36.596874Q48.190624 36.096874 48.190624 34.51875L48.190624 28.55L46.909374 28.55L46.909374 27.175L48.190624 27.175L48.190624 24.6125L49.940624 23.55L49.940624 27.175L51.70625 27.175L51.70625 28.55L49.940624 28.55L49.940624 34.6125Q49.940624 35.3625 50.034374 35.58125Q50.128124 35.784374 50.33125 35.925Q50.55 36.05 50.940624 36.05Q51.221874 36.05 51.70625 35.971874ZM60.971874 34.20625L62.784374 34.440624Q62.3625 36.01875 61.190624 36.909374Q60.034374 37.784374 58.221874 37.784374Q55.95625 37.784374 54.6125 36.39375Q53.284374 34.9875 53.284374 32.45625Q53.284374 29.83125 54.628124 28.39375Q55.971874 26.940624 58.128124 26.940624Q60.20625 26.940624 61.51875 28.3625Q62.846874 29.76875 62.846874 32.346874Q62.846874 32.503124 62.83125 32.815624L55.096874 32.815624Q55.190624 34.51875 56.065624 35.425Q56.940624 36.33125 58.2375 36.33125Q59.20625 36.33125 59.878124 35.83125Q60.565624 35.315624 60.971874 34.20625ZM55.190624 31.3625L60.9875 31.3625Q60.878124 30.065624 60.33125 29.409374Q59.4875 28.39375 58.14375 28.39375Q56.940624 28.39375 56.1125 29.20625Q55.284374 30.003124 55.190624 31.3625ZM70.22188 32.3625Q70.22188 29.4875 71.81563 28.096874Q73.15938 26.940624 75.08125 26.940624Q77.22188 26.940624 78.56563 28.346874Q79.925 29.753124 79.925 32.221874Q79.925 34.221874 79.33125 35.378124Q78.7375 36.51875 77.58125 37.159374Q76.44063 37.784374 75.08125 37.784374Q72.89375 37.784374 71.55 36.39375Q70.22188 34.9875 70.22188 32.3625ZM72.01875 32.3625Q72.01875 34.3625 72.87813 35.346874Q73.75313 36.33125 75.08125 36.33125Q76.39375 36.33125 77.25313 35.346874Q78.12813 34.346874 78.12813 32.3Q78.12813 30.378124 77.25313 29.39375Q76.37813 28.39375 75.08125 28.39375Q73.75313 28.39375 72.87813 29.39375Q72.01875 30.378124 72.01875 32.3625ZM81.84688 37.55L81.84688 27.175L83.425 27.175L83.425 28.753124Q84.03438 27.64375 84.55 27.3Q85.06563 26.940624 85.675 26.940624Q86.56563 26.940624 87.4875 27.503124L86.87813 29.14375Q86.2375 28.753124 85.59688 28.753124Q85.01875 28.753124 84.55 29.1125Q84.09688 29.45625 83.89375 30.065624Q83.6125 31.003124 83.6125 32.1125L83.6125 37.55L81.84688 37.55ZM93.51875 37.55L99.01875 23.2375L101.06563 23.2375L106.925 37.55L104.76875 37.55L103.09688 33.20625L97.1125 33.20625L95.53438 37.55L93.51875 37.55ZM97.65938 31.675L102.50313 31.675L101.01875 27.70625Q100.33125 25.89375 100.00313 24.7375Q99.72188 26.1125 99.22188 27.471874L97.65938 31.675ZM107.8625 37.55L107.8625 27.175L109.44063 27.175L109.44063 28.628124Q109.925 27.878124 110.7375 27.409374Q111.55 26.940624 112.58125 26.940624Q113.7375 26.940624 114.47188 27.425Q115.20625 27.89375 115.51875 28.753124Q116.75313 26.940624 118.72188 26.940624Q120.26875 26.940624 121.09688 27.8Q121.925 28.659374 121.925 30.425L121.925 37.55L120.175 37.55L120.175 31.01875Q120.175 29.95625 120.00313 29.503124Q119.83125 29.034374 119.37813 28.753124Q118.94063 28.471874 118.33125 28.471874Q117.2375 28.471874 116.50313 29.20625Q115.78438 29.925 115.78438 31.51875L115.78438 37.55L114.03438 37.55L114.03438 30.815624Q114.03438 29.64375 113.59688 29.065624Q113.175 28.471874 112.19063 28.471874Q111.45625 28.471874 110.81563 28.8625Q110.19063 29.253124 109.90938 30.003124Q109.62813 30.753124 109.62813 32.175L109.62813 37.55L107.8625 37.55ZM130.97188 34.20625L132.78438 34.440624Q132.3625 36.01875 131.19063 36.909374Q130.03438 37.784374 128.22188 37.784374Q125.95625 37.784374 124.6125 36.39375Q123.28438 34.9875 123.28438 32.45625Q123.28438 29.83125 124.62813 28.39375Q125.97188 26.940624 128.12813 26.940624Q130.20625 26.940624 131.51875 28.3625Q132.84688 29.76875 132.84688 32.346874Q132.84688 32.503124 132.83125 32.815624L125.09688 32.815624Q125.19063 34.51875 126.06563 35.425Q126.94063 36.33125 128.2375 36.33125Q129.20625 36.33125 129.87813 35.83125Q130.56563 35.315624 130.97188 34.20625ZM125.19063 31.3625L130.9875 31.3625Q130.87813 30.065624 130.33125 29.409374Q129.4875 28.39375 128.14375 28.39375Q126.94063 28.39375 126.1125 29.20625Q125.28438 30.003124 125.19063 31.3625ZM134.84688 37.55L134.84688 27.175L136.425 27.175L136.425 28.753124Q137.03438 27.64375 137.55 27.3Q138.06563 26.940624 138.675 26.940624Q139.56563 26.940624 140.4875 27.503124L139.87813 29.14375Q139.2375 28.753124 138.59688 28.753124Q138.01875 28.753124 137.55 29.1125Q137.09688 29.45625 136.89375 30.065624Q136.6125 31.003124 136.6125 32.1125L136.6125 37.55L134.84688 37.55ZM141.87813 25.253124L141.87813 23.2375L143.64375 23.2375L143.64375 25.253124L141.87813 25.253124ZM141.87813 37.55L141.87813 27.175L143.64375 27.175L143.64375 37.55L141.87813 37.55ZM152.64375 33.753124L154.3625 33.971874Q154.08125 35.76875 152.90938 36.784374Q151.75313 37.784374 150.05 37.784374Q147.925 37.784374 146.62813 36.39375Q145.33125 35.003124 145.33125 32.409374Q145.33125 30.721874 145.87813 29.471874Q146.44063 28.20625 147.58125 27.58125Q148.72188 26.940624 150.06563 26.940624Q151.75313 26.940624 152.81563 27.8Q153.89375 28.659374 154.20625 30.221874L152.4875 30.4875Q152.25313 29.440624 151.62813 28.925Q151.00313 28.39375 150.12813 28.39375Q148.8 28.39375 147.97188 29.346874Q147.14375 30.3 147.14375 32.346874Q147.14375 34.440624 147.94063 35.39375Q148.7375 36.33125 150.03438 36.33125Q151.06563 36.33125 151.75313 35.70625Q152.45625 35.065624 152.64375 33.753124ZM162.64375 36.26875Q161.65938 37.096874 160.75313 37.440624Q159.84688 37.784374 158.81563 37.784374Q157.1125 37.784374 156.19063 36.95625Q155.26875 36.1125 155.26875 34.815624Q155.26875 34.05 155.6125 33.425Q155.97188 32.8 156.53438 32.425Q157.09688 32.034374 157.8 31.83125Q158.31563 31.70625 159.3625 31.565624Q161.4875 31.315624 162.4875 30.971874Q162.50313 30.6125 162.50313 30.503124Q162.50313 29.440624 162.00313 28.9875Q161.33125 28.39375 160.00313 28.39375Q158.75313 28.39375 158.15938 28.83125Q157.58125 29.26875 157.3 30.378124L155.58125 30.14375Q155.81563 29.034374 156.34688 28.3625Q156.87813 27.675 157.89375 27.315624Q158.90938 26.940624 160.25313 26.940624Q161.58125 26.940624 162.40938 27.253124Q163.2375 27.565624 163.62813 28.05Q164.01875 28.51875 164.175 29.2375Q164.26875 29.690624 164.26875 30.8625L164.26875 33.20625Q164.26875 35.659374 164.37813 36.315624Q164.4875 36.95625 164.83125 37.55L162.9875 37.55Q162.72188 37.003124 162.64375 36.26875ZM162.4875 32.346874Q161.53438 32.7375 159.6125 33.003124Q158.53438 33.159374 158.08125 33.3625Q157.64375 33.55 157.39375 33.925Q157.14375 34.3 157.14375 34.76875Q157.14375 35.471874 157.675 35.940624Q158.20625 36.409374 159.2375 36.409374Q160.25313 36.409374 161.03438 35.971874Q161.83125 35.51875 162.20625 34.753124Q162.4875 34.14375 162.4875 32.9875L162.4875 32.346874ZM166.8625 37.55L166.8625 27.175L168.45625 27.175L168.45625 28.659374Q169.59688 26.940624 171.75313 26.940624Q172.69063 26.940624 173.47188 27.284374Q174.26875 27.6125 174.65938 28.159374Q175.05 28.70625 175.20625 29.45625Q175.3 29.95625 175.3 31.175L175.3 37.55L173.53438 37.55L173.53438 31.2375Q173.53438 30.159374 173.33125 29.628124Q173.12813 29.096874 172.59688 28.784374Q172.08125 28.471874 171.37813 28.471874Q170.25313 28.471874 169.44063 29.190624Q168.62813 29.89375 168.62813 31.878124L168.62813 37.55L166.8625 37.55ZM176.22188 32.3625Q176.22188 29.4875 177.81563 28.096874Q179.15938 26.940624 181.08125 26.940624Q183.22188 26.940624 184.56563 28.346874Q185.925 29.753124 185.925 32.221874Q185.925 34.221874 185.33125 35.378124Q184.7375 36.51875 183.58125 37.159374Q182.44063 37.784374 181.08125 37.784374Q178.89375 37.784374 177.55 36.39375Q176.22188 34.9875 176.22188 32.3625ZM178.01875 32.3625Q178.01875 34.3625 178.87813 35.346874Q179.75313 36.33125 181.08125 36.33125Q182.39375 36.33125 183.25313 35.346874Q184.12813 34.346874 184.12813 32.3Q184.12813 30.378124 183.25313 29.39375Q182.37813 28.39375 181.08125 28.39375Q179.75313 28.39375 178.87813 29.39375Q178.01875 30.378124 178.01875 32.3625ZM193.22188 32.3625Q193.22188 29.4875 194.81563 28.096874Q196.15938 26.940624 198.08125 26.940624Q200.22188 26.940624 201.56563 28.346874Q202.925 29.753124 202.925 32.221874Q202.925 34.221874 202.33125 35.378124Q201.7375 36.51875 200.58125 37.159374Q199.44063 37.784374 198.08125 37.784374Q195.89375 37.784374 194.55 36.39375Q193.22188 34.9875 193.22188 32.3625ZM195.01875 32.3625Q195.01875 34.3625 195.87813 35.346874Q196.75313 36.33125 198.08125 36.33125Q199.39375 36.33125 200.25313 35.346874Q201.12813 34.346874 201.12813 32.3Q201.12813 30.378124 200.25313 29.39375Q199.37813 28.39375 198.08125 28.39375Q196.75313 28.39375 195.87813 29.39375Q195.01875 30.378124 195.01875 32.3625ZM204.84688 37.55L204.84688 27.175L206.425 27.175L206.425 28.753124Q207.03438 27.64375 207.55 27.3Q208.06563 26.940624 208.675 26.940624Q209.56563 26.940624 210.4875 27.503124L209.87813 29.14375Q209.2375 28.753124 208.59688 28.753124Q208.01875 28.753124 207.55 29.1125Q207.09688 29.45625 206.89375 30.065624Q206.6125 31.003124 206.6125 32.1125L206.6125 37.55L204.84688 37.55ZM218.3625 37.55L218.3625 35.55L220.3625 35.55L220.3625 37.55L218.3625 37.55ZM224.3625 37.55L224.3625 35.55L226.3625 35.55L226.3625 37.55L224.3625 37.55ZM230.3625 37.55L230.3625 35.55L232.3625 35.55L232.3625 37.55L230.3625 37.55ZM239.15938 34.01875Q239.14375 33.675 239.14375 33.503124Q239.14375 32.45625 239.44063 31.70625Q239.65938 31.14375 240.14375 30.565624Q240.4875 30.14375 241.39375 29.346874Q242.31563 28.534374 242.58125 28.065624Q242.8625 27.58125 242.8625 27.01875Q242.8625 25.9875 242.05 25.221874Q241.25313 24.440624 240.09688 24.440624Q238.97188 24.440624 238.22188 25.14375Q237.47188 25.846874 237.2375 27.33125L235.425 27.1125Q235.675 25.1125 236.87813 24.05Q238.08125 22.9875 240.06563 22.9875Q242.175 22.9875 243.425 24.128124Q244.675 25.26875 244.675 26.89375Q244.675 27.83125 244.22188 28.628124Q243.78438 29.409374 242.50313 30.55Q241.64375 31.315624 241.37813 31.675Q241.12813 32.034374 240.9875 32.503124Q240.8625 32.971874 240.84688 34.01875L239.15938 34.01875ZM239.05 37.55L239.05 35.55L241.05 35.55L241.05 37.55L239.05 37.55Z" fill-rule="nonzero"/></svg>