<svg version="1.1" viewBox="0.0 0.0 770.9448818897638 440.54068241469815" fill="none" stroke="none" stroke-linecap="square" stroke-miterlimit="10" xmlns:xlink="http://www.w3.org/1999/xlink" xmlns="http://www.w3.org/2000/svg"><clipPath id="p.0"><path d="m0 0l770.9449 0l0 440.54068l-770.9449 0l0 -440.54068z" clip-rule="nonzero"/></clipPath><g clip-path="url(#p.0)"><path fill="#000000" fill-opacity="0.0" d="m0 0l770.9449 0l0 440.54068l-770.9449 0z" fill-rule="evenodd"/><path fill="#cfe2f3" d="m359.02362 83.41207l0 0c0 -14.872551 20.91922 -26.92913 46.724396 -26.92913l0 0c25.805206 0 46.724426 12.05658 46.724426 26.92913l0 0c0 14.872551 -20.91922 26.929138 -46.724426 26.929138l0 0c-25.805176 0 -46.724396 -12.056587 -46.724396 -26.929138z" fill-rule="evenodd"/><path stroke="#000000" stroke-width="1.0" stroke-linejoin="round" stroke-linecap="butt" d="m359.02362 83.41207l0 0c0 -14.872551 20.91922 -26.92913 46.724396 -26.92913l0 0c25.805206 0 46.724426 12.05658 46.724426 26.92913l0 0c0 14.872551 -20.91922 26.929138 -46.724426 26.929138l0 0c-25.805176 0 -46.724396 -12.056587 -46.724396 -26.929138z" fill-rule="evenodd"/><path fill="#000000" d="m383.3339 90.33207l0 -8.40625l-1.453125 0l0 -1.265625l1.453125 0l0 -1.03125q0 -0.96875 0.171875 -1.453125q0.234375 -0.640625 0.828125 -1.03125q0.59375 -0.390625 1.671875 -0.390625q0.6875 0 1.53125 0.15625l-0.25 1.4375q-0.5 -0.09375 -0.953125 -0.09375q-0.75 0 -1.0625 0.328125q-0.3125 0.3125 -0.3125 1.1875l0 0.890625l1.890625 0l0 1.265625l-1.890625 0l0 8.40625l-1.625 0zm4.7926636 -11.46875l0 -1.890625l1.640625 0l0 1.890625l-1.640625 0zm0 11.46875l0 -9.671875l1.640625 0l0 9.671875l-1.640625 0zm5.6448364 0l-1.515625 0l0 -13.359375l1.640625 0l0 4.765625q1.046875 -1.296875 2.65625 -1.296875q0.890625 0 1.6875 0.359375q0.796875 0.359375 1.3125 1.015625q0.515625 0.640625 0.796875 1.5625q0.296875 0.921875 0.296875 1.96875q0 2.484375 -1.234375 3.84375q-1.21875 1.359375 -2.953125 1.359375q-1.703125 0 -2.6875 -1.4375l0 1.21875zm-0.015625 -4.90625q0 1.734375 0.484375 2.515625q0.765625 1.265625 2.09375 1.265625q1.078125 0 1.859375 -0.9375q0.78125 -0.9375 0.78125 -2.78125q0 -1.890625 -0.75 -2.796875q-0.75 -0.90625 -1.828125 -0.90625q-1.0625 0 -1.859375 0.9375q-0.78125 0.9375 -0.78125 2.703125zm12.016327 8.828125q-1.359375 -1.703125 -2.296875 -4.0q-0.9375 -2.296875 -0.9375 -4.765625q0 -2.15625 0.703125 -4.140625q0.828125 -2.3125 2.53125 -4.59375l1.171875 0q-1.09375 1.890625 -1.453125 2.703125q-0.546875 1.25 -0.875 2.625q-0.390625 1.703125 -0.390625 3.421875q0 4.375 2.71875 8.75l-1.171875 0zm7.884552 -3.921875l0 -3.203125l-5.796875 0l0 -1.5l6.09375 -8.65625l1.34375 0l0 8.65625l1.796875 0l0 1.5l-1.796875 0l0 3.203125l-1.640625 0zm0 -4.703125l0 -6.015625l-4.1875 6.015625l4.1875 0zm6.6569824 8.625l-1.1875 0q2.734375 -4.375 2.734375 -8.75q0 -1.71875 -0.390625 -3.390625q-0.3125 -1.375 -0.875 -2.625q-0.359375 -0.828125 -1.46875 -2.734375l1.1875 0q1.703125 2.28125 2.53125 4.59375q0.6875 1.984375 0.6875 4.140625q0 2.46875 -0.9375 4.765625q-0.9375 2.296875 -2.28125 4.0z" fill-rule="nonzero"/><path fill="#cfe2f3" d="m235.41995 189.54855l0 0c0 -14.872543 20.91922 -26.929138 46.724396 -26.929138l0 0c25.805176 0 46.724426 12.056595 46.724426 26.929138l0 0c0 14.872559 -20.91925 26.929138 -46.724426 26.929138l0 0c-25.805176 0 -46.724396 -12.05658 -46.724396 -26.929138z" fill-rule="evenodd"/><path stroke="#000000" stroke-width="1.0" stroke-linejoin="round" stroke-linecap="butt" d="m235.41995 189.54855l0 0c0 -14.872543 20.91922 -26.929138 46.724396 -26.929138l0 0c25.805176 0 46.724426 12.056595 46.724426 26.929138l0 0c0 14.872559 -20.91925 26.929138 -46.724426 26.929138l0 0c-25.805176 0 -46.724396 -12.05658 -46.724396 -26.929138z" fill-rule="evenodd"/><path fill="#000000" d="m259.73022 196.46855l0 -8.40625l-1.453125 0l0 -1.265625l1.453125 0l0 -1.03125q0 -0.96875 0.171875 -1.453125q0.234375 -0.640625 0.828125 -1.03125q0.59375 -0.390625 1.671875 -0.390625q0.6875 0 1.53125 0.15625l-0.25 1.4375q-0.5 -0.09375 -0.953125 -0.09375q-0.75 0 -1.0625 0.328125q-0.3125 0.3125 -0.3125 1.1875l0 0.890625l1.890625 0l0 1.265625l-1.890625 0l0 8.40625l-1.625 0zm4.7926636 -11.46875l0 -1.890625l1.640625 0l0 1.890625l-1.640625 0zm0 11.46875l0 -9.671875l1.640625 0l0 9.671875l-1.640625 0zm5.6448364 0l-1.515625 0l0 -13.359375l1.640625 0l0 4.765625q1.046875 -1.296875 2.65625 -1.296875q0.890625 0 1.6875 0.359375q0.796875 0.359375 1.3125 1.015625q0.515625 0.640625 0.796875 1.5625q0.296875 0.921875 0.296875 1.96875q0 2.484375 -1.234375 3.84375q-1.21875 1.359375 -2.953125 1.359375q-1.703125 0 -2.6875 -1.4375l0 1.21875zm-0.015625 -4.90625q0 1.734375 0.484375 2.515625q0.765625 1.265625 2.09375 1.265625q1.078125 0 1.859375 -0.9375q0.78125 -0.9375 0.78125 -2.78125q0 -1.890625 -0.75 -2.796875q-0.75 -0.90625 -1.828125 -0.90625q-1.0625 0 -1.859375 0.9375q-0.78125 0.9375 -0.78125 2.703125zm12.016327 8.828125q-1.359375 -1.703125 -2.296875 -4.0q-0.9375 -2.296875 -0.9375 -4.765625q0 -2.15625 0.703125 -4.140625q0.828125 -2.3125 2.53125 -4.59375l1.171875 0q-1.09375 1.890625 -1.453125 2.703125q-0.546875 1.25 -0.875 2.625q-0.390625 1.703125 -0.390625 3.421875q0 4.375 2.71875 8.75l-1.171875 0zm2.634552 -7.453125l1.640625 -0.21875q0.28125 1.40625 0.953125 2.015625q0.6875 0.609375 1.65625 0.609375q1.15625 0 1.953125 -0.796875q0.796875 -0.796875 0.796875 -1.984375q0 -1.125 -0.734375 -1.859375q-0.734375 -0.734375 -1.875 -0.734375q-0.46875 0 -1.15625 0.171875l0.1875 -1.4375q0.15625 0.015625 0.265625 0.015625q1.046875 0 1.875 -0.546875q0.84375 -0.546875 0.84375 -1.671875q0 -0.90625 -0.609375 -1.5q-0.609375 -0.59375 -1.578125 -0.59375q-0.953125 0 -1.59375 0.609375q-0.640625 0.59375 -0.8125 1.796875l-1.640625 -0.296875q0.296875 -1.640625 1.359375 -2.546875q1.0625 -0.90625 2.65625 -0.90625q1.09375 0 2.0 0.46875q0.921875 0.46875 1.40625 1.28125q0.5 0.8125 0.5 1.71875q0 0.859375 -0.46875 1.578125q-0.46875 0.703125 -1.375 1.125q1.1875 0.28125 1.84375 1.140625q0.65625 0.859375 0.65625 2.15625q0 1.734375 -1.28125 2.953125q-1.265625 1.21875 -3.21875 1.21875q-1.765625 0 -2.921875 -1.046875q-1.15625 -1.046875 -1.328125 -2.71875zm11.906982 7.453125l-1.1875 0q2.734375 -4.375 2.734375 -8.75q0 -1.71875 -0.390625 -3.390625q-0.3125 -1.375 -0.875 -2.625q-0.359375 -0.828125 -1.46875 -2.734375l1.1875 0q1.703125 2.28125 2.53125 4.59375q0.6875 1.984375 0.6875 4.140625q0 2.46875 -0.9375 4.765625q-0.9375 2.296875 -2.28125 4.0z" fill-rule="nonzero"/><path fill="#cfe2f3" d="m536.0131 189.54855l0 0c0 -14.872543 20.91925 -26.929138 46.724426 -26.929138l0 0c25.805176 0 46.724365 12.056595 46.724365 26.929138l0 0c0 14.872559 -20.91919 26.929138 -46.724365 26.929138l0 0c-25.805176 0 -46.724426 -12.05658 -46.724426 -26.929138z" fill-rule="evenodd"/><path stroke="#000000" stroke-width="1.0" stroke-linejoin="round" stroke-linecap="butt" d="m536.0131 189.54855l0 0c0 -14.872543 20.91925 -26.929138 46.724426 -26.929138l0 0c25.805176 0 46.724365 12.056595 46.724365 26.929138l0 0c0 14.872559 -20.91919 26.929138 -46.724365 26.929138l0 0c-25.805176 0 -46.724426 -12.05658 -46.724426 -26.929138z" fill-rule="evenodd"/><path fill="#000000" d="m560.32336 196.46855l0 -8.40625l-1.453125 0l0 -1.265625l1.453125 0l0 -1.03125q0 -0.96875 0.171875 -1.453125q0.234375 -0.640625 0.828125 -1.03125q0.59375 -0.390625 1.671875 -0.390625q0.6875 0 1.53125 0.15625l-0.25 1.4375q-0.5 -0.09375 -0.953125 -0.09375q-0.75 0 -1.0625 0.328125q-0.3125 0.3125 -0.3125 1.1875l0 0.890625l1.890625 0l0 1.265625l-1.890625 0l0 8.40625l-1.625 0zm4.7927246 -11.46875l0 -1.890625l1.640625 0l0 1.890625l-1.640625 0zm0 11.46875l0 -9.671875l1.640625 0l0 9.671875l-1.640625 0zm5.6447754 0l-1.515625 0l0 -13.359375l1.640625 0l0 4.765625q1.046875 -1.296875 2.65625 -1.296875q0.890625 0 1.6875 0.359375q0.796875 0.359375 1.3125 1.015625q0.515625 0.640625 0.796875 1.5625q0.296875 0.921875 0.296875 1.96875q0 2.484375 -1.234375 3.84375q-1.21875 1.359375 -2.953125 1.359375q-1.703125 0 -2.6875 -1.4375l0 1.21875zm-0.015625 -4.90625q0 1.734375 0.484375 2.515625q0.765625 1.265625 2.09375 1.265625q1.078125 0 1.859375 -0.9375q0.78125 -0.9375 0.78125 -2.78125q0 -1.890625 -0.75 -2.796875q-0.75 -0.90625 -1.828125 -0.90625q-1.0625 0 -1.859375 0.9375q-0.78125 0.9375 -0.78125 2.703125zm12.016357 8.828125q-1.359375 -1.703125 -2.296875 -4.0q-0.9375 -2.296875 -0.9375 -4.765625q0 -2.15625 0.703125 -4.140625q0.828125 -2.3125 2.53125 -4.59375l1.171875 0q-1.09375 1.890625 -1.453125 2.703125q-0.546875 1.25 -0.875 2.625q-0.390625 1.703125 -0.390625 3.421875q0 4.375 2.71875 8.75l-1.171875 0zm11.2439575 -5.5l0 1.578125l-8.828125 0q-0.015625 -0.59375 0.1875 -1.140625q0.34375 -0.90625 1.078125 -1.78125q0.75 -0.875 2.15625 -2.015625q2.171875 -1.78125 2.9375 -2.828125q0.765625 -1.046875 0.765625 -1.96875q0 -0.984375 -0.703125 -1.640625q-0.6875 -0.671875 -1.8125 -0.671875q-1.1875 0 -1.90625 0.71875q-0.703125 0.703125 -0.703125 1.953125l-1.6875 -0.171875q0.171875 -1.890625 1.296875 -2.875q1.140625 -0.984375 3.03125 -0.984375q1.921875 0 3.046875 1.0625q1.125 1.0625 1.125 2.640625q0 0.796875 -0.328125 1.578125q-0.328125 0.78125 -1.09375 1.640625q-0.75 0.84375 -2.53125 2.34375q-1.46875 1.234375 -1.890625 1.6875q-0.421875 0.4375 -0.6875 0.875l6.546875 0zm3.2975464 5.5l-1.1875 0q2.734375 -4.375 2.734375 -8.75q0 -1.71875 -0.390625 -3.390625q-0.3125 -1.375 -0.875 -2.625q-0.359375 -0.828125 -1.46875 -2.734375l1.1875 0q1.703125 2.28125 2.53125 4.59375q0.6875 1.984375 0.6875 4.140625q0 2.46875 -0.9375 4.765625q-0.9375 2.296875 -2.28125 4.0z" fill-rule="nonzero"/><path fill="#cfe2f3" d="m147.49344 292.38846l0 0c0 -14.872559 20.919235 -26.929138 46.72441 -26.929138l0 0c25.805176 0 46.72441 12.05658 46.72441 26.929138l0 0c0 14.872528 -20.919235 26.929138 -46.72441 26.929138l0 0c-25.805176 0 -46.72441 -12.05661 -46.72441 -26.929138z" fill-rule="evenodd"/><path stroke="#000000" stroke-width="1.0" stroke-linejoin="round" stroke-linecap="butt" d="m147.49344 292.38846l0 0c0 -14.872559 20.919235 -26.929138 46.72441 -26.929138l0 0c25.805176 0 46.72441 12.05658 46.72441 26.929138l0 0c0 14.872528 -20.919235 26.929138 -46.72441 26.929138l0 0c-25.805176 0 -46.72441 -12.05661 -46.72441 -26.929138z" fill-rule="evenodd"/><path fill="#000000" d="m171.8037 299.30844l0 -8.40625l-1.453125 0l0 -1.265625l1.453125 0l0 -1.03125q0 -0.96875 0.171875 -1.453125q0.234375 -0.640625 0.828125 -1.03125q0.59375 -0.390625 1.671875 -0.390625q0.6875 0 1.53125 0.15625l-0.25 1.4375q-0.5 -0.09375 -0.953125 -0.09375q-0.75 0 -1.0625 0.328125q-0.3125 0.3125 -0.3125 1.1875l0 0.890625l1.890625 0l0 1.265625l-1.890625 0l0 8.40625l-1.625 0zm4.792679 -11.46875l0 -1.890625l1.640625 0l0 1.890625l-1.640625 0zm0 11.46875l0 -9.671875l1.640625 0l0 9.671875l-1.640625 0zm5.644821 0l-1.515625 0l0 -13.359375l1.640625 0l0 4.765625q1.046875 -1.296875 2.65625 -1.296875q0.890625 0 1.6875 0.359375q0.796875 0.359375 1.3125 1.015625q0.515625 0.640625 0.796875 1.5625q0.296875 0.921875 0.296875 1.96875q0 2.484375 -1.234375 3.84375q-1.21875 1.359375 -2.953125 1.359375q-1.703125 0 -2.6875 -1.4375l0 1.21875zm-0.015625 -4.90625q0 1.734375 0.484375 2.515625q0.765625 1.265625 2.09375 1.265625q1.078125 0 1.859375 -0.9375q0.78125 -0.9375 0.78125 -2.78125q0 -1.890625 -0.75 -2.796875q-0.75 -0.90625 -1.828125 -0.90625q-1.0625 0 -1.859375 0.9375q-0.78125 0.9375 -0.78125 2.703125zm12.016342 8.828125q-1.359375 -1.703125 -2.296875 -4.0q-0.9375 -2.296875 -0.9375 -4.765625q0 -2.15625 0.703125 -4.140625q0.828125 -2.3125 2.53125 -4.59375l1.171875 0q-1.09375 1.890625 -1.453125 2.703125q-0.546875 1.25 -0.875 2.625q-0.390625 1.703125 -0.390625 3.421875q0 4.375 2.71875 8.75l-1.171875 0zm11.243927 -5.5l0 1.578125l-8.828125 0q-0.015625 -0.59375 0.1875 -1.140625q0.34375 -0.90625 1.078125 -1.78125q0.75 -0.875 2.15625 -2.015625q2.171875 -1.78125 2.9375 -2.828125q0.765625 -1.046875 0.765625 -1.96875q0 -0.984375 -0.703125 -1.640625q-0.6875 -0.671875 -1.8125 -0.671875q-1.1875 0 -1.90625 0.71875q-0.703125 0.703125 -0.703125 1.953125l-1.6875 -0.171875q0.171875 -1.890625 1.296875 -2.875q1.140625 -0.984375 3.03125 -0.984375q1.921875 0 3.046875 1.0625q1.125 1.0625 1.125 2.640625q0 0.796875 -0.328125 1.578125q-0.328125 0.78125 -1.09375 1.640625q-0.75 0.84375 -2.53125 2.34375q-1.46875 1.234375 -1.890625 1.6875q-0.421875 0.4375 -0.6875 0.875l6.546875 0zm3.2975922 5.5l-1.1875 0q2.734375 -4.375 2.734375 -8.75q0 -1.71875 -0.390625 -3.390625q-0.3125 -1.375 -0.875 -2.625q-0.359375 -0.828125 -1.46875 -2.734375l1.1875 0q1.703125 2.28125 2.53125 4.59375q0.6875 1.984375 0.6875 4.140625q0 2.46875 -0.9375 4.765625q-0.9375 2.296875 -2.28125 4.0z" fill-rule="nonzero"/><path fill="#cfe2f3" d="m315.18634 292.38846l0 0c0 -14.872559 20.91925 -26.929138 46.724426 -26.929138l0 0c25.805176 0 46.724396 12.05658 46.724396 26.929138l0 0c0 14.872528 -20.91922 26.929138 -46.724396 26.929138l0 0c-25.805176 0 -46.724426 -12.05661 -46.724426 -26.929138z" fill-rule="evenodd"/><path stroke="#000000" stroke-width="1.0" stroke-linejoin="round" stroke-linecap="butt" d="m315.18634 292.38846l0 0c0 -14.872559 20.91925 -26.929138 46.724426 -26.929138l0 0c25.805176 0 46.724396 12.05658 46.724396 26.929138l0 0c0 14.872528 -20.91922 26.929138 -46.724396 26.929138l0 0c-25.805176 0 -46.724426 -12.05661 -46.724426 -26.929138z" fill-rule="evenodd"/><path fill="#000000" d="m339.4966 299.30844l0 -8.40625l-1.453125 0l0 -1.265625l1.453125 0l0 -1.03125q0 -0.96875 0.171875 -1.453125q0.234375 -0.640625 0.828125 -1.03125q0.59375 -0.390625 1.671875 -0.390625q0.6875 0 1.53125 0.15625l-0.25 1.4375q-0.5 -0.09375 -0.953125 -0.09375q-0.75 0 -1.0625 0.328125q-0.3125 0.3125 -0.3125 1.1875l0 0.890625l1.890625 0l0 1.265625l-1.890625 0l0 8.40625l-1.625 0zm4.792694 -11.46875l0 -1.890625l1.640625 0l0 1.890625l-1.640625 0zm0 11.46875l0 -9.671875l1.640625 0l0 9.671875l-1.640625 0zm5.644806 0l-1.515625 0l0 -13.359375l1.640625 0l0 4.765625q1.046875 -1.296875 2.65625 -1.296875q0.890625 0 1.6875 0.359375q0.796875 0.359375 1.3125 1.015625q0.515625 0.640625 0.796875 1.5625q0.296875 0.921875 0.296875 1.96875q0 2.484375 -1.234375 3.84375q-1.21875 1.359375 -2.953125 1.359375q-1.703125 0 -2.6875 -1.4375l0 1.21875zm-0.015625 -4.90625q0 1.734375 0.484375 2.515625q0.765625 1.265625 2.09375 1.265625q1.078125 0 1.859375 -0.9375q0.78125 -0.9375 0.78125 -2.78125q0 -1.890625 -0.75 -2.796875q-0.75 -0.90625 -1.828125 -0.90625q-1.0625 0 -1.859375 0.9375q-0.78125 0.9375 -0.78125 2.703125zm12.016357 8.828125q-1.359375 -1.703125 -2.296875 -4.0q-0.9375 -2.296875 -0.9375 -4.765625q0 -2.15625 0.703125 -4.140625q0.828125 -2.3125 2.53125 -4.59375l1.171875 0q-1.09375 1.890625 -1.453125 2.703125q-0.546875 1.25 -0.875 2.625q-0.390625 1.703125 -0.390625 3.421875q0 4.375 2.71875 8.75l-1.171875 0zm8.806427 -3.921875l-1.640625 0l0 -10.453125q-0.59375 0.5625 -1.5625 1.140625q-0.953125 0.5625 -1.71875 0.84375l0 -1.59375q1.375 -0.640625 2.40625 -1.5625q1.03125 -0.921875 1.453125 -1.78125l1.0625 0l0 13.40625zm5.735077 3.921875l-1.1875 0q2.734375 -4.375 2.734375 -8.75q0 -1.71875 -0.390625 -3.390625q-0.3125 -1.375 -0.875 -2.625q-0.359375 -0.828125 -1.46875 -2.734375l1.1875 0q1.703125 2.28125 2.53125 4.59375q0.6875 1.984375 0.6875 4.140625q0 2.46875 -0.9375 4.765625q-0.9375 2.296875 -2.28125 4.0z" fill-rule="nonzero"/><path fill="#cfe2f3" d="m54.04462 378.0105l0 0c0 -14.872559 20.919231 -26.929138 46.724407 -26.929138l0 0c25.805183 0 46.72441 12.05658 46.72441 26.929138l0 0c0 14.872559 -20.919228 26.929138 -46.72441 26.929138l0 0c-25.805176 0 -46.724407 -12.05658 -46.724407 -26.929138z" fill-rule="evenodd"/><path stroke="#000000" stroke-width="1.0" stroke-linejoin="round" stroke-linecap="butt" d="m54.04462 378.0105l0 0c0 -14.872559 20.919231 -26.929138 46.724407 -26.929138l0 0c25.805183 0 46.72441 12.05658 46.72441 26.929138l0 0c0 14.872559 -20.919228 26.929138 -46.72441 26.929138l0 0c-25.805176 0 -46.724407 -12.05658 -46.724407 -26.929138z" fill-rule="evenodd"/><path fill="#000000" d="m78.35488 384.9305l0 -8.40625l-1.453125 0l0 -1.265625l1.453125 0l0 -1.03125q0 -0.96875 0.171875 -1.453125q0.234375 -0.640625 0.828125 -1.03125q0.59375 -0.390625 1.671875 -0.390625q0.6875 0 1.53125 0.15625l-0.25 1.4375q-0.5 -0.09375 -0.953125 -0.09375q-0.75 0 -1.0625 0.328125q-0.3125 0.3125 -0.3125 1.1875l0 0.890625l1.890625 0l0 1.265625l-1.890625 0l0 8.40625l-1.625 0zm4.792679 -11.46875l0 -1.890625l1.640625 0l0 1.890625l-1.640625 0zm0 11.46875l0 -9.671875l1.640625 0l0 9.671875l-1.640625 0zm5.644821 0l-1.515625 0l0 -13.359375l1.640625 0l0 4.765625q1.046875 -1.296875 2.65625 -1.296875q0.890625 0 1.6875 0.359375q0.796875 0.359375 1.3125 1.015625q0.515625 0.640625 0.796875 1.5625q0.296875 0.921875 0.296875 1.96875q0 2.484375 -1.234375 3.84375q-1.21875 1.359375 -2.953125 1.359375q-1.703125 0 -2.6875 -1.4375l0 1.21875zm-0.015625 -4.90625q0 1.734375 0.484375 2.515625q0.765625 1.265625 2.09375 1.265625q1.078125 0 1.859375 -0.9375q0.78125 -0.9375 0.78125 -2.78125q0 -1.890625 -0.75 -2.796875q-0.75 -0.90625 -1.828125 -0.90625q-1.0625 0 -1.859375 0.9375q-0.78125 0.9375 -0.78125 2.703125zm12.016342 8.828125q-1.359375 -1.703125 -2.296875 -4.0q-0.9375 -2.296875 -0.9375 -4.765625q0 -2.15625 0.703125 -4.140625q0.828125 -2.3125 2.53125 -4.59375l1.171875 0q-1.09375 1.890625 -1.453125 2.703125q-0.546875 1.25 -0.875 2.625q-0.390625 1.703125 -0.390625 3.421875q0 4.375 2.71875 8.75l-1.171875 0zm8.806427 -3.921875l-1.640625 0l0 -10.453125q-0.59375 0.5625 -1.5625 1.140625q-0.953125 0.5625 -1.71875 0.84375l0 -1.59375q1.375 -0.640625 2.40625 -1.5625q1.03125 -0.921875 1.453125 -1.78125l1.0625 0l0 13.40625zm5.735092 3.921875l-1.1875 0q2.734375 -4.375 2.734375 -8.75q0 -1.71875 -0.390625 -3.390625q-0.3125 -1.375 -0.875 -2.625q-0.359375 -0.828125 -1.46875 -2.734375l1.1875 0q1.703125 2.28125 2.53125 4.59375q0.6875 1.984375 0.6875 4.140625q0 2.46875 -0.9375 4.765625q-0.9375 2.296875 -2.28125 4.0z" fill-rule="nonzero"/><path fill="#cfe2f3" d="m221.73753 378.0105l0 0c0 -14.872559 20.919235 -26.929138 46.72441 -26.929138l0 0c25.805176 0 46.724396 12.05658 46.724396 26.929138l0 0c0 14.872559 -20.91922 26.929138 -46.724396 26.929138l0 0c-25.805176 0 -46.72441 -12.05658 -46.72441 -26.929138z" fill-rule="evenodd"/><path stroke="#000000" stroke-width="1.0" stroke-linejoin="round" stroke-linecap="butt" d="m221.73753 378.0105l0 0c0 -14.872559 20.919235 -26.929138 46.72441 -26.929138l0 0c25.805176 0 46.724396 12.05658 46.724396 26.929138l0 0c0 14.872559 -20.91922 26.929138 -46.724396 26.929138l0 0c-25.805176 0 -46.72441 -12.05658 -46.72441 -26.929138z" fill-rule="evenodd"/><path fill="#000000" d="m246.04779 384.9305l0 -8.40625l-1.453125 0l0 -1.265625l1.453125 0l0 -1.03125q0 -0.96875 0.171875 -1.453125q0.234375 -0.640625 0.828125 -1.03125q0.59375 -0.390625 1.671875 -0.390625q0.6875 0 1.53125 0.15625l-0.25 1.4375q-0.5 -0.09375 -0.953125 -0.09375q-0.75 0 -1.0625 0.328125q-0.3125 0.3125 -0.3125 1.1875l0 0.890625l1.890625 0l0 1.265625l-1.890625 0l0 8.40625l-1.625 0zm4.792679 -11.46875l0 -1.890625l1.640625 0l0 1.890625l-1.640625 0zm0 11.46875l0 -9.671875l1.640625 0l0 9.671875l-1.640625 0zm5.644821 0l-1.515625 0l0 -13.359375l1.640625 0l0 4.765625q1.046875 -1.296875 2.65625 -1.296875q0.890625 0 1.6875 0.359375q0.796875 0.359375 1.3125 1.015625q0.515625 0.640625 0.796875 1.5625q0.296875 0.921875 0.296875 1.96875q0 2.484375 -1.234375 3.84375q-1.21875 1.359375 -2.953125 1.359375q-1.703125 0 -2.6875 -1.4375l0 1.21875zm-0.015625 -4.90625q0 1.734375 0.484375 2.515625q0.765625 1.265625 2.09375 1.265625q1.078125 0 1.859375 -0.9375q0.78125 -0.9375 0.78125 -2.78125q0 -1.890625 -0.75 -2.796875q-0.75 -0.90625 -1.828125 -0.90625q-1.0625 0 -1.859375 0.9375q-0.78125 0.9375 -0.78125 2.703125zm12.016357 8.828125q-1.359375 -1.703125 -2.296875 -4.0q-0.9375 -2.296875 -0.9375 -4.765625q0 -2.15625 0.703125 -4.140625q0.828125 -2.3125 2.53125 -4.59375l1.171875 0q-1.09375 1.890625 -1.453125 2.703125q-0.546875 1.25 -0.875 2.625q-0.390625 1.703125 -0.390625 3.421875q0 4.375 2.71875 8.75l-1.171875 0zm2.634552 -10.515625q0 -2.359375 0.484375 -3.796875q0.484375 -1.453125 1.4375 -2.234375q0.96875 -0.78125 2.421875 -0.78125q1.078125 0 1.890625 0.4375q0.8125 0.421875 1.328125 1.25q0.53125 0.8125 0.828125 1.984375q0.3125 1.15625 0.3125 3.140625q0 2.359375 -0.484375 3.8125q-0.484375 1.4375 -1.453125 2.234375q-0.953125 0.78125 -2.421875 0.78125q-1.921875 0 -3.03125 -1.390625q-1.3125 -1.671875 -1.3125 -5.4375zm1.671875 0q0 3.296875 0.765625 4.390625q0.78125 1.078125 1.90625 1.078125q1.140625 0 1.90625 -1.09375q0.765625 -1.09375 0.765625 -4.375q0 -3.296875 -0.765625 -4.375q-0.765625 -1.078125 -1.921875 -1.078125q-1.125 0 -1.796875 0.953125q-0.859375 1.21875 -0.859375 4.5zm10.235077 10.515625l-1.1875 0q2.734375 -4.375 2.734375 -8.75q0 -1.71875 -0.390625 -3.390625q-0.3125 -1.375 -0.875 -2.625q-0.359375 -0.828125 -1.46875 -2.734375l1.1875 0q1.703125 2.28125 2.53125 4.59375q0.6875 1.984375 0.6875 4.140625q0 2.46875 -0.9375 4.765625q-0.9375 2.296875 -2.28125 4.0z" fill-rule="nonzero"/><path fill="#cfe2f3" d="m460.89764 292.38846l0 0c0 -14.872559 20.91922 -26.929138 46.724396 -26.929138l0 0c25.805206 0 46.724396 12.05658 46.724396 26.929138l0 0c0 14.872528 -20.91919 26.929138 -46.724396 26.929138l0 0c-25.805176 0 -46.724396 -12.05661 -46.724396 -26.929138z" fill-rule="evenodd"/><path stroke="#000000" stroke-width="1.0" stroke-linejoin="round" stroke-linecap="butt" d="m460.89764 292.38846l0 0c0 -14.872559 20.91922 -26.929138 46.724396 -26.929138l0 0c25.805206 0 46.724396 12.05658 46.724396 26.929138l0 0c0 14.872528 -20.91919 26.929138 -46.724396 26.929138l0 0c-25.805176 0 -46.724396 -12.05661 -46.724396 -26.929138z" fill-rule="evenodd"/><path fill="#000000" d="m485.2079 299.30844l0 -8.40625l-1.453125 0l0 -1.265625l1.453125 0l0 -1.03125q0 -0.96875 0.171875 -1.453125q0.234375 -0.640625 0.828125 -1.03125q0.59375 -0.390625 1.671875 -0.390625q0.6875 0 1.53125 0.15625l-0.25 1.4375q-0.5 -0.09375 -0.953125 -0.09375q-0.75 0 -1.0625 0.328125q-0.3125 0.3125 -0.3125 1.1875l0 0.890625l1.890625 0l0 1.265625l-1.890625 0l0 8.40625l-1.625 0zm4.792694 -11.46875l0 -1.890625l1.640625 0l0 1.890625l-1.640625 0zm0 11.46875l0 -9.671875l1.640625 0l0 9.671875l-1.640625 0zm5.644806 0l-1.515625 0l0 -13.359375l1.640625 0l0 4.765625q1.046875 -1.296875 2.65625 -1.296875q0.890625 0 1.6875 0.359375q0.796875 0.359375 1.3125 1.015625q0.515625 0.640625 0.796875 1.5625q0.296875 0.921875 0.296875 1.96875q0 2.484375 -1.234375 3.84375q-1.21875 1.359375 -2.953125 1.359375q-1.703125 0 -2.6875 -1.4375l0 1.21875zm-0.015625 -4.90625q0 1.734375 0.484375 2.515625q0.765625 1.265625 2.09375 1.265625q1.078125 0 1.859375 -0.9375q0.78125 -0.9375 0.78125 -2.78125q0 -1.890625 -0.75 -2.796875q-0.75 -0.90625 -1.828125 -0.90625q-1.0625 0 -1.859375 0.9375q-0.78125 0.9375 -0.78125 2.703125zm12.016357 8.828125q-1.359375 -1.703125 -2.296875 -4.0q-0.9375 -2.296875 -0.9375 -4.765625q0 -2.15625 0.703125 -4.140625q0.828125 -2.3125 2.53125 -4.59375l1.171875 0q-1.09375 1.890625 -1.453125 2.703125q-0.546875 1.25 -0.875 2.625q-0.390625 1.703125 -0.390625 3.421875q0 4.375 2.71875 8.75l-1.171875 0zm8.8063965 -3.921875l-1.640625 0l0 -10.453125q-0.59375 0.5625 -1.5625 1.140625q-0.953125 0.5625 -1.7187195 0.84375l0 -1.59375q1.3749695 -0.640625 2.4062195 -1.5625q1.03125 -0.921875 1.453125 -1.78125l1.0625 0l0 13.40625zm5.7351074 3.921875l-1.1875 0q2.734375 -4.375 2.734375 -8.75q0 -1.71875 -0.390625 -3.390625q-0.3125 -1.375 -0.875 -2.625q-0.359375 -0.828125 -1.46875 -2.734375l1.1875 0q1.703125 2.28125 2.53125 4.59375q0.6875 1.984375 0.6875 4.140625q0 2.46875 -0.9375 4.765625q-0.9375 2.296875 -2.28125 4.0z" fill-rule="nonzero"/><path fill="#cfe2f3" d="m621.37006 292.38846l0 0c0 -14.872559 20.91925 -26.929138 46.724426 -26.929138l0 0c25.805176 0 46.724426 12.05658 46.724426 26.929138l0 0c0 14.872528 -20.91925 26.929138 -46.724426 26.929138l0 0c-25.805176 0 -46.724426 -12.05661 -46.724426 -26.929138z" fill-rule="evenodd"/><path stroke="#000000" stroke-width="1.0" stroke-linejoin="round" stroke-linecap="butt" d="m621.37006 292.38846l0 0c0 -14.872559 20.91925 -26.929138 46.724426 -26.929138l0 0c25.805176 0 46.724426 12.05658 46.724426 26.929138l0 0c0 14.872528 -20.91925 26.929138 -46.724426 26.929138l0 0c-25.805176 0 -46.724426 -12.05661 -46.724426 -26.929138z" fill-rule="evenodd"/><path fill="#000000" d="m645.68036 299.30844l0 -8.40625l-1.453125 0l0 -1.265625l1.453125 0l0 -1.03125q0 -0.96875 0.171875 -1.453125q0.234375 -0.640625 0.828125 -1.03125q0.59375 -0.390625 1.671875 -0.390625q0.6875 0 1.53125 0.15625l-0.25 1.4375q-0.5 -0.09375 -0.953125 -0.09375q-0.75 0 -1.0625 0.328125q-0.3125 0.3125 -0.3125 1.1875l0 0.890625l1.890625 0l0 1.265625l-1.890625 0l0 8.40625l-1.625 0zm4.7926636 -11.46875l0 -1.890625l1.640625 0l0 1.890625l-1.640625 0zm0 11.46875l0 -9.671875l1.640625 0l0 9.671875l-1.640625 0zm5.6448364 0l-1.515625 0l0 -13.359375l1.640625 0l0 4.765625q1.046875 -1.296875 2.65625 -1.296875q0.890625 0 1.6875 0.359375q0.796875 0.359375 1.3125 1.015625q0.515625 0.640625 0.796875 1.5625q0.296875 0.921875 0.296875 1.96875q0 2.484375 -1.234375 3.84375q-1.21875 1.359375 -2.953125 1.359375q-1.703125 0 -2.6875 -1.4375l0 1.21875zm-0.015625 -4.90625q0 1.734375 0.484375 2.515625q0.765625 1.265625 2.09375 1.265625q1.078125 0 1.859375 -0.9375q0.78125 -0.9375 0.78125 -2.78125q0 -1.890625 -0.75 -2.796875q-0.75 -0.90625 -1.828125 -0.90625q-1.0625 0 -1.859375 0.9375q-0.78125 0.9375 -0.78125 2.703125zm12.016296 8.828125q-1.359375 -1.703125 -2.296875 -4.0q-0.9375 -2.296875 -0.9375 -4.765625q0 -2.15625 0.703125 -4.140625q0.828125 -2.3125 2.53125 -4.59375l1.171875 0q-1.09375 1.890625 -1.453125 2.703125q-0.546875 1.25 -0.875 2.625q-0.390625 1.703125 -0.390625 3.421875q0 4.375 2.71875 8.75l-1.171875 0zm2.6345825 -10.515625q0 -2.359375 0.484375 -3.796875q0.484375 -1.453125 1.4375 -2.234375q0.96875 -0.78125 2.421875 -0.78125q1.078125 0 1.890625 0.4375q0.8125 0.421875 1.328125 1.25q0.53125 0.8125 0.828125 1.984375q0.3125 1.15625 0.3125 3.140625q0 2.359375 -0.484375 3.8125q-0.484375 1.4375 -1.453125 2.234375q-0.953125 0.78125 -2.421875 0.78125q-1.921875 0 -3.03125 -1.390625q-1.3125 -1.671875 -1.3125 -5.4375zm1.671875 0q0 3.296875 0.765625 4.390625q0.78125 1.078125 1.90625 1.078125q1.140625 0 1.90625 -1.09375q0.765625 -1.09375 0.765625 -4.375q0 -3.296875 -0.765625 -4.375q-0.765625 -1.078125 -1.921875 -1.078125q-1.125 0 -1.796875 0.953125q-0.859375 1.21875 -0.859375 4.5zm10.235107 10.515625l-1.1875 0q2.734375 -4.375 2.734375 -8.75q0 -1.71875 -0.390625 -3.390625q-0.3125 -1.375 -0.875 -2.625q-0.359375 -0.828125 -1.46875 -2.734375l1.1875 0q1.703125 2.28125 2.53125 4.59375q0.6875 1.984375 0.6875 4.140625q0 2.46875 -0.9375 4.765625q-0.9375 2.296875 -2.28125 4.0z" fill-rule="nonzero"/><path fill="#000000" fill-opacity="0.0" d="m359.02362 83.41207l-76.8819 79.21259" fill-rule="evenodd"/><path stroke="#b6d7a8" stroke-width="2.0" stroke-linejoin="round" stroke-linecap="butt" d="m359.02362 83.41207l-68.52423 70.601585" fill-rule="evenodd"/><path fill="#b6d7a8" stroke="#b6d7a8" stroke-width="2.0" stroke-linecap="butt" d="m288.12888 151.71289l-3.9508057 8.813705l8.6918335 -4.2121735z" fill-rule="evenodd"/><path fill="#000000" fill-opacity="0.0" d="m249.10521 208.59033l-54.897644 56.881897" fill-rule="evenodd"/><path stroke="#b6d7a8" stroke-width="2.0" stroke-linejoin="round" stroke-linecap="butt" d="m249.10521 208.59033l-46.5643 48.247314" fill-rule="evenodd"/><path fill="#b6d7a8" stroke="#b6d7a8" stroke-width="2.0" stroke-linecap="butt" d="m200.16393 254.5436l-3.9259338 8.824814l8.679916 -4.236664z" fill-rule="evenodd"/><path fill="#000000" fill-opacity="0.0" d="m161.1787 311.43024l-60.409447 39.653534" fill-rule="evenodd"/><path stroke="#b6d7a8" stroke-width="2.0" stroke-linejoin="round" stroke-linecap="butt" d="m161.1787 311.4302l-50.377617 33.068573" fill-rule="evenodd"/><path fill="#b6d7a8" stroke="#b6d7a8" stroke-width="2.0" stroke-linecap="butt" d="m108.9883 341.73712l-5.774788 7.742218l9.4003525 -2.218933z" fill-rule="evenodd"/><path fill="#000000" fill-opacity="0.0" d="m227.25699 311.43024l8.157486 47.527557" fill-rule="evenodd"/><path stroke="#b6d7a8" stroke-width="2.0" stroke-linejoin="round" stroke-linecap="butt" d="m227.25699 311.4302l6.127533 35.70053" fill-rule="evenodd"/><path fill="#b6d7a8" stroke="#b6d7a8" stroke-width="2.0" stroke-linecap="butt" d="m230.12866 347.68958l4.791214 8.386566l1.7204895 -9.504211z" fill-rule="evenodd"/><path fill="#000000" fill-opacity="0.0" d="m438.78717 102.45385l110.897644 68.062996" fill-rule="evenodd"/><path stroke="#b6d7a8" stroke-width="2.0" stroke-linejoin="round" stroke-linecap="butt" d="m438.7872 102.45384l100.67026 61.78598" fill-rule="evenodd"/><path fill="#b6d7a8" stroke="#b6d7a8" stroke-width="2.0" stroke-linecap="butt" d="m537.7295 167.05531l9.46344 1.9321289l-6.0075073 -7.563095z" fill-rule="evenodd"/><path fill="#000000" fill-opacity="0.0" d="m549.69836 208.59033l-42.078705 56.881897" fill-rule="evenodd"/><path stroke="#b6d7a8" stroke-width="2.0" stroke-linejoin="round" stroke-linecap="butt" d="m549.69836 208.59033l-34.94214 47.23465" fill-rule="evenodd"/><path fill="#b6d7a8" stroke="#b6d7a8" stroke-width="2.0" stroke-linecap="butt" d="m512.10046 253.86037l-2.7420044 9.261307l8.053528 -5.332062z" fill-rule="evenodd"/><path fill="#000000" fill-opacity="0.0" d="m615.7767 208.59033l19.275574 64.75589" fill-rule="evenodd"/><path stroke="#b6d7a8" stroke-width="2.0" stroke-linejoin="round" stroke-linecap="butt" d="m615.7767 208.59033l15.852112 53.25464" fill-rule="evenodd"/><path fill="#b6d7a8" stroke="#b6d7a8" stroke-width="2.0" stroke-linecap="butt" d="m628.4626 262.7874l5.755554 7.756531l0.5767822 -9.641449z" fill-rule="evenodd"/><path fill="#000000" fill-opacity="0.0" d="m315.1835 208.59033l13.700775 64.75589" fill-rule="evenodd"/><path stroke="#b6d7a8" stroke-width="2.0" stroke-linejoin="round" stroke-linecap="butt" d="m315.1835 208.59033l11.216858 53.015778" fill-rule="evenodd"/><path fill="#b6d7a8" stroke="#b6d7a8" stroke-width="2.0" stroke-linecap="butt" d="m323.16846 262.28992l5.110626 8.195831l1.3532104 -9.563416z" fill-rule="evenodd"/><path fill="#000000" fill-opacity="0.0" d="m315.1835 170.50679l57.51181 -68.062996" fill-rule="evenodd"/><path stroke="#d9d2e9" stroke-width="2.0" stroke-linejoin="round" stroke-linecap="butt" d="m315.1835 170.50679l49.766785 -58.897057" fill-rule="evenodd"/><path fill="#d9d2e9" stroke="#d9d2e9" stroke-width="2.0" stroke-linecap="butt" d="m367.47357 113.74186l3.3346863 -9.064781l-8.381226 4.800537z" fill-rule="evenodd"/><path fill="#000000" fill-opacity="0.0" d="m227.25699 273.34668l54.897644 -56.881897" fill-rule="evenodd"/><path stroke="#d9d2e9" stroke-width="2.0" stroke-linejoin="round" stroke-linecap="butt" d="m227.25699 273.34668l46.5643 -48.24733" fill-rule="evenodd"/><path fill="#d9d2e9" stroke="#d9d2e9" stroke-width="2.0" stroke-linecap="butt" d="m276.19827 227.39342l3.9259338 -8.824814l-8.679901 4.236664z" fill-rule="evenodd"/><path fill="#000000" fill-opacity="0.0" d="m133.80818 358.96872l60.40944 -39.653534" fill-rule="evenodd"/><path stroke="#d9d2e9" stroke-width="2.0" stroke-linejoin="round" stroke-linecap="butt" d="m133.80817 358.96872l50.377625 -33.068512" fill-rule="evenodd"/><path fill="#d9d2e9" stroke="#d9d2e9" stroke-width="2.0" stroke-linecap="butt" d="m185.99858 328.66187l5.7747803 -7.7422485l-9.400345 2.218933z" fill-rule="evenodd"/><path fill="#000000" fill-opacity="0.0" d="m268.46194 351.08136l-27.527557 -58.70865" fill-rule="evenodd"/><path stroke="#d9d2e9" stroke-width="2.0" stroke-linejoin="round" stroke-linecap="butt" d="m268.46194 351.08136l-22.433151 -47.84369" fill-rule="evenodd"/><path fill="#d9d2e9" stroke="#d9d2e9" stroke-width="2.0" stroke-linecap="butt" d="m249.01978 301.8352l-6.8441467 -6.8152466l0.8621521 9.620117z" fill-rule="evenodd"/><path fill="#000000" fill-opacity="0.0" d="m361.91077 265.45932l-33.039368 -75.90552" fill-rule="evenodd"/><path stroke="#d9d2e9" stroke-width="2.0" stroke-linejoin="round" stroke-linecap="butt" d="m361.91077 265.45932l-28.250153 -64.90265" fill-rule="evenodd"/><path fill="#d9d2e9" stroke="#d9d2e9" stroke-width="2.0" stroke-linecap="butt" d="m336.68958 199.23827l-6.6512756 -7.003601l0.5933533 9.640442z" fill-rule="evenodd"/><path fill="#000000" fill-opacity="0.0" d="m582.73755 162.61942l-130.26773 -79.21259" fill-rule="evenodd"/><path stroke="#d9d2e9" stroke-width="2.0" stroke-linejoin="round" stroke-linecap="butt" d="m582.73755 162.61942l-120.01453 -72.97787" fill-rule="evenodd"/><path fill="#d9d2e9" stroke="#d9d2e9" stroke-width="2.0" stroke-linecap="butt" d="m464.43936 86.818954l-9.471344 -1.8930359l6.038666 7.5382233z" fill-rule="evenodd"/><path fill="#000000" fill-opacity="0.0" d="m540.6612 273.34668l42.078735 -56.881897" fill-rule="evenodd"/><path stroke="#d9d2e9" stroke-width="2.0" stroke-linejoin="round" stroke-linecap="butt" d="m540.6612 273.34668l34.94214 -47.234665" fill-rule="evenodd"/><path fill="#d9d2e9" stroke="#d9d2e9" stroke-width="2.0" stroke-linecap="butt" d="m578.25916 228.07664l2.7419434 -9.261307l-8.053528 5.332062z" fill-rule="evenodd"/><path fill="#000000" fill-opacity="0.0" d="m668.0945 265.45932l-38.64569 -75.90552" fill-rule="evenodd"/><path stroke="#d9d2e9" stroke-width="2.0" stroke-linejoin="round" stroke-linecap="butt" d="m668.0945 265.45932l-33.20117 -65.211716" fill-rule="evenodd"/><path fill="#d9d2e9" stroke="#d9d2e9" stroke-width="2.0" stroke-linecap="butt" d="m637.8372 198.74878l-7.0618286 -6.589432l1.1740723 9.587067z" fill-rule="evenodd"/><path fill="#d9d2e9" d="m141.99475 333.525l0 0c0 -1.9395447 1.5723267 -3.5118713 3.5118866 -3.5118713l26.015594 0c0.93141174 0 1.8246765 0.36999512 2.4832764 1.028595c0.6586151 0.6586304 1.0286102 1.5518799 1.0286102 2.4832764l0 14.047119c0 1.9395447 -1.5723267 3.5118713 -3.5118866 3.5118713l-26.015594 0c-1.9395599 0 -3.5118866 -1.5723267 -3.5118866 -3.5118713z" fill-rule="evenodd"/><path fill="#000000" d="m160.27971 347.46857l-1.640625 0l0 -10.453125q-0.59375 0.5625 -1.5625 1.140625q-0.953125 0.5625 -1.71875 0.84375l0 -1.59375q1.375 -0.640625 2.40625 -1.5625q1.03125 -0.921875 1.453125 -1.78125l1.0625 0l0 13.40625z" fill-rule="nonzero"/><path fill="#d9d2e9" d="m240.94226 324.23367l0 0c0 -1.9395752 1.5723267 -3.5119019 3.5118713 -3.5119019l26.015625 0c0.9313965 0 1.824646 0.37002563 2.4832764 1.0286255c0.65859985 0.65859985 1.028595 1.5518494 1.028595 2.4832764l0 14.047089c0 1.9395752 -1.5723267 3.5119019 -3.5118713 3.5119019l-26.015625 0c-1.9395447 0 -3.5118713 -1.5723267 -3.5118713 -3.5119019z" fill-rule="evenodd"/><path fill="#000000" d="m253.05533 331.58347q0 -2.359375 0.484375 -3.796875q0.484375 -1.453125 1.4375 -2.234375q0.96875 -0.78125 2.421875 -0.78125q1.078125 0 1.890625 0.4375q0.8125 0.421875 1.328125 1.25q0.53125 0.8125 0.828125 1.984375q0.3125 1.15625 0.3125 3.140625q0 2.359375 -0.484375 3.8125q-0.484375 1.4375 -1.453125 2.234375q-0.953125 0.78125 -2.421875 0.78125q-1.921875 0 -3.03125 -1.390625q-1.3125 -1.671875 -1.3125 -5.4375zm1.671875 0q0 3.296875 0.765625 4.390625q0.78125 1.078125 1.90625 1.078125q1.140625 0 1.90625 -1.09375q0.765625 -1.09375 0.765625 -4.375q0 -3.296875 -0.765625 -4.375q-0.765625 -1.078125 -1.921875 -1.078125q-1.125 0 -1.796875 0.953125q-0.859375 1.21875 -0.859375 4.5z" fill-rule="nonzero"/><path fill="#d9d2e9" d="m235.4147 237.88196l0 0c0 -1.9395599 1.5723114 -3.5118866 3.5118713 -3.5118866l26.015625 0c0.9313965 0 1.824646 0.37001038 2.4832764 1.0286102c0.65859985 0.6586151 1.028595 1.5518646 1.028595 2.4832764l0 14.047104c0 1.9395599 -1.5723267 3.5118866 -3.5118713 3.5118866l-26.015625 0c-1.9395599 0 -3.5118713 -1.5723267 -3.5118713 -3.5118866z" fill-rule="evenodd"/><path fill="#000000" d="m253.69965 251.82552l-1.640625 0l0 -10.453125q-0.59375 0.5625 -1.5625 1.140625q-0.953125 0.5625 -1.71875 0.84375l0 -1.59375q1.375 -0.640625 2.40625 -1.5625q1.03125 -0.921875 1.453125 -1.78125l1.0625 0l0 13.40625z" fill-rule="nonzero"/><path fill="#d9d2e9" d="m334.958 230.00795l0 0c0 -1.9395599 1.5723267 -3.5118866 3.5118713 -3.5118866l26.015625 0c0.9313965 0 1.824646 0.36999512 2.4832764 1.0286102c0.65859985 0.65859985 1.028595 1.5518646 1.028595 2.4832764l0 14.047104c0 1.9395599 -1.5723267 3.5118713 -3.5118713 3.5118713l-26.015625 0c-1.9395447 0 -3.5118713 -1.5723114 -3.5118713 -3.5118713z" fill-rule="evenodd"/><path fill="#000000" d="m353.24295 243.95149l-1.640625 0l0 -10.453125q-0.59375 0.5625 -1.5625 1.140625q-0.953125 0.5625 -1.71875 0.84375l0 -1.59375q1.375 -0.640625 2.40625 -1.5625q1.03125 -0.921875 1.453125 -1.78125l1.0625 0l0 13.40625z" fill-rule="nonzero"/><path fill="#d9d2e9" d="m327.41995 129.45676l0 0c0 -1.9395523 1.5723267 -3.5118713 3.5118713 -3.5118713l26.015625 0c0.9313965 0 1.824646 0.36999512 2.4832764 1.0286026c0.65859985 0.6586075 1.028595 1.5518723 1.028595 2.4832687l0 14.047104c0 1.9395599 -1.5723267 3.5118866 -3.5118713 3.5118866l-26.015625 0c-1.9395447 0 -3.5118713 -1.5723267 -3.5118713 -3.5118866z" fill-rule="evenodd"/><path fill="#000000" d="m348.1424 141.82219l0 1.578125l-8.828125 0q-0.015625 -0.59375 0.1875 -1.140625q0.34375 -0.90625 1.078125 -1.78125q0.75 -0.875 2.15625 -2.015625q2.171875 -1.78125 2.9375 -2.828125q0.765625 -1.046875 0.765625 -1.96875q0 -0.984375 -0.703125 -1.640625q-0.6875 -0.671875 -1.8125 -0.671875q-1.1875 0 -1.90625 0.71875q-0.703125 0.703125 -0.703125 1.953125l-1.6875 -0.171875q0.171875 -1.890625 1.296875 -2.875q1.140625 -0.984375 3.03125 -0.984375q1.921875 0 3.046875 1.0625q1.125 1.0625 1.125 2.640625q0 0.796875 -0.328125 1.578125q-0.328125 0.78125 -1.09375 1.640625q-0.75 0.84375 -2.53125 2.34375q-1.46875 1.234375 -1.890625 1.6875q-0.421875 0.4375 -0.6875 0.875l6.546875 0z" fill-rule="nonzero"/><path fill="#d9d2e9" d="m540.66144 243.28879l0 0c0 -1.9395599 1.5723267 -3.5118866 3.5118408 -3.5118866l26.015625 0c0.9313965 0 1.824646 0.36999512 2.4832764 1.0286102c0.6586304 0.65859985 1.0286255 1.5518646 1.0286255 2.4832764l0 14.047089c0 1.9395752 -1.5723267 3.5119019 -3.5119019 3.5119019l-26.015625 0c-1.9395142 0 -3.5118408 -1.5723267 -3.5118408 -3.5119019z" fill-rule="evenodd"/><path fill="#000000" d="m558.94635 257.23233l-1.640625 0l0 -10.453125q-0.59375 0.5625 -1.5625 1.140625q-0.953125 0.5625 -1.71875 0.84375l0 -1.59375q1.375 -0.640625 2.40625 -1.5625q1.03125 -0.921875 1.453125 -1.78125l1.0625 0l0 13.40625z" fill-rule="nonzero"/><path fill="#d9d2e9" d="m641.30444 230.00795l0 0c0 -1.9395599 1.5723267 -3.5118866 3.5119019 -3.5118866l26.015625 0c0.9313965 0 1.824646 0.36999512 2.4832764 1.0286102c0.65856934 0.65859985 1.0285645 1.5518646 1.0285645 2.4832764l0 14.047104c0 1.9395599 -1.5723267 3.5118713 -3.5118408 3.5118713l-26.015625 0c-1.9395752 0 -3.5119019 -1.5723114 -3.5119019 -3.5118713z" fill-rule="evenodd"/><path fill="#000000" d="m653.41754 237.35774q0 -2.359375 0.484375 -3.796875q0.484375 -1.453125 1.4375 -2.234375q0.96875 -0.78125 2.421875 -0.78125q1.078125 0 1.890625 0.4375q0.8125 0.421875 1.328125 1.25q0.53125 0.8125 0.828125 1.984375q0.3125 1.15625 0.3125 3.140625q0 2.359375 -0.484375 3.8125q-0.484375 1.4375 -1.453125 2.234375q-0.953125 0.78125 -2.421875 0.78125q-1.921875 0 -3.03125 -1.390625q-1.3125 -1.671875 -1.3125 -5.4375zm1.671875 0q0 3.296875 0.765625 4.390625q0.78125 1.078125 1.90625 1.078125q1.140625 0 1.90625 -1.09375q0.765625 -1.09375 0.765625 -4.375q0 -3.296875 -0.765625 -4.375q-0.765625 -1.078125 -1.921875 -1.078125q-1.125 0 -1.796875 0.953125q-0.859375 1.21875 -0.859375 4.5z" fill-rule="nonzero"/><path fill="#d9d2e9" d="m501.08398 115.98957l0 0c0 -1.9395599 1.5723267 -3.511879 3.5118713 -3.511879l26.015594 0c0.9314575 0 1.824707 0.37000275 2.4832764 1.0286026c0.6586304 0.6586075 1.0286255 1.5518723 1.0286255 2.4832764l0 14.0471115c0 1.9395447 -1.5723267 3.5118713 -3.5119019 3.5118713l-26.015594 0c-1.9395447 0 -3.5118713 -1.5723267 -3.5118713 -3.5118713z" fill-rule="evenodd"/><path fill="#000000" d="m519.36896 129.93312l-1.640625 0l0 -10.453125q-0.59375 0.5625 -1.5625 1.140625q-0.953125 0.5625 -1.71875 0.84375l0 -1.59375q1.375 -0.640625 2.40625 -1.5625q1.03125 -0.921875 1.453125 -1.78125l1.0625 0l0 13.40625z" fill-rule="nonzero"/><path fill="#d9d2e9" d="m389.22833 33.05781l0 0c0 -1.939558 1.5723267 -3.5118809 3.5119019 -3.5118809l26.015594 0c0.931427 0 1.8246765 0.37000084 2.4832764 1.0286064c0.65859985 0.6586056 1.0286255 1.5518665 1.0286255 2.4832745l0 14.047104c0 1.9395599 -1.5723267 3.5118828 -3.5119019 3.5118828l-26.015594 0c-1.9395752 0 -3.5119019 -1.5723228 -3.5119019 -3.5118828z" fill-rule="evenodd"/><path fill="#000000" d="m401.34143 43.47011l1.640625 -0.21875q0.28125 1.40625 0.953125 2.015625q0.6875 0.609375 1.65625 0.609375q1.15625 0 1.953125 -0.796875q0.796875 -0.796875 0.796875 -1.984375q0 -1.125 -0.734375 -1.859375q-0.734375 -0.734375 -1.875 -0.734375q-0.46875 0 -1.15625 0.171875l0.1875 -1.4375q0.15625 0.015625 0.265625 0.015625q1.046875 0 1.875 -0.546875q0.84375 -0.546875 0.84375 -1.671875q0 -0.90625 -0.609375 -1.5q-0.609375 -0.59375 -1.578125 -0.59375q-0.953125 0 -1.59375 0.609375q-0.640625 0.59375 -0.8125 1.796875l-1.640625 -0.296875q0.296875 -1.640625 1.359375 -2.546875q1.0625 -0.90625 2.65625 -0.90625q1.09375 0 2.0 0.46875q0.921875 0.46875 1.40625 1.28125q0.5 0.8125 0.5 1.71875q0 0.859375 -0.46875 1.578125q-0.46875 0.703125 -1.375 1.125q1.1875 0.28125 1.84375 1.140625q0.65625 0.859375 0.65625 2.15625q0 1.734375 -1.28125 2.953125q-1.265625 1.21875 -3.21875 1.21875q-1.765625 0 -2.921875 -1.046875q-1.15625 -1.046875 -1.328125 -2.71875z" fill-rule="nonzero"/></g></svg>