<svg version="1.1" viewBox="0.0 0.0 600.0 371.0" fill="none" stroke="none" stroke-linecap="square" stroke-miterlimit="10" width="600" height="371" xmlns:xlink="http://www.w3.org/1999/xlink" xmlns="http://www.w3.org/2000/svg"><path fill="#ffffff" d="M0 0L600.0 0L600.0 371.0L0 371.0L0 0Z" fill-rule="nonzero"/><path fill="#fbbc04" d="M136.68391 61.736748C146.11276 59.861233 155.7031 58.916668 165.31667 58.916668L165.31667 205.68333Z" fill-rule="nonzero"/><path fill="#ea4335" d="M43.284645 287.22253C16.051971 246.46596 10.963757 194.80444 29.721947 149.51816C48.480137 104.23188 88.60825 71.29959 136.68391 61.736748L165.31667 205.68333Z" fill-rule="nonzero"/><path fill="#4285f4" d="M165.31667 58.916668C235.33527 58.916668 295.6033 108.37736 309.26324 177.05058C322.92322 245.7238 286.1706 314.4831 221.48184 341.27805C156.79309 368.073 82.1849 345.44086 43.284645 287.22253L165.31667 205.68333Z" fill-rule="nonzero"/><path fill="#4285f4" d="M343.65222 69.416664C343.65222 72.73038 340.96594 75.416664 337.65222 75.416664C334.3385 75.416664 331.65222 72.73038 331.65222 69.416664C331.65222 66.10296 334.3385 63.416668 337.65222 63.416668C340.96594 63.416668 343.65222 66.10296 343.65222 69.416664Z" fill-rule="nonzero"/><path fill="#1a1a1a" d="M353.21472 75.916664L353.21472 67.80729L351.8241 67.80729L351.8241 66.58854L353.21472 66.58854L353.21472 65.58854Q353.21472 64.65104 353.3866 64.197914Q353.60535 63.572914 354.18347 63.197914Q354.7616 62.80729 355.80847 62.80729Q356.46472 62.80729 357.27722 62.96354L357.04285 64.354164Q356.54285 64.260414 356.10535 64.260414Q355.3866 64.260414 355.08972 64.572914Q354.79285 64.86979 354.79285 65.71354L354.79285 66.58854L356.60535 66.58854L356.60535 67.80729L354.79285 67.80729L354.79285 75.916664L353.21472 75.916664ZM357.80847 75.916664L357.80847 63.02604L359.3866 63.02604L359.3866 75.916664L357.80847 75.916664ZM361.85535 64.854164L361.85535 63.02604L363.43347 63.02604L363.43347 64.854164L361.85535 64.854164ZM361.85535 75.916664L361.85535 66.58854L363.43347 66.58854L363.43347 75.916664L361.85535 75.916664ZM365.54285 76.697914L367.08972 76.916664Q367.18347 77.635414 367.62097 77.96354Q368.21472 78.40104 369.23035 78.40104Q370.3241 78.40104 370.91785 77.947914Q371.52722 77.510414 371.73035 76.729164Q371.85535 76.24479 371.85535 74.697914Q370.80847 75.916664 369.2616 75.916664Q367.33972 75.916664 366.27722 74.52604Q365.23035 73.135414 365.23035 71.197914Q365.23035 69.854164 365.71472 68.729164Q366.1991 67.604164 367.12097 66.99479Q368.04285 66.36979 369.27722 66.36979Q370.93347 66.36979 371.99597 67.71354L371.99597 66.58854L373.46472 66.58854L373.46472 74.65104Q373.46472 76.83854 373.0116 77.74479Q372.5741 78.65104 371.60535 79.166664Q370.65222 79.697914 369.24597 79.697914Q367.5741 79.697914 366.54285 78.947914Q365.5116 78.197914 365.54285 76.697914ZM366.85535 71.08854Q366.85535 72.916664 367.58972 73.760414Q368.3241 74.604164 369.41785 74.604164Q370.5116 74.604164 371.24597 73.77604Q371.98035 72.93229 371.98035 71.135414Q371.98035 69.416664 371.21472 68.55729Q370.46472 67.68229 369.3866 67.68229Q368.33972 67.68229 367.58972 68.541664Q366.85535 69.40104 366.85535 71.08854ZM375.83972 75.916664L375.83972 63.02604L377.41785 63.02604L377.41785 67.65104Q378.52722 66.36979 380.21472 66.36979Q381.24597 66.36979 382.0116 66.77604Q382.77722 67.18229 383.10535 67.916664Q383.4491 68.635414 383.4491 69.99479L383.4491 75.916664L381.85535 75.916664L381.85535 69.99479Q381.85535 68.80729 381.33972 68.27604Q380.8241 67.729164 379.8866 67.729164Q379.18347 67.729164 378.55847 68.104164Q377.9491 68.46354 377.68347 69.08854Q377.41785 69.71354 377.41785 70.80729L377.41785 75.916664L375.83972 75.916664ZM389.29285 74.49479L389.52722 75.90104Q388.85535 76.041664 388.3241 76.041664Q387.46472 76.041664 386.98035 75.77604Q386.5116 75.49479 386.3241 75.05729Q386.1366 74.604164 386.1366 73.18229L386.1366 67.80729L384.96472 67.80729L384.96472 66.58854L386.1366 66.58854L386.1366 64.27604L387.6991 63.322914L387.6991 66.58854L389.29285 66.58854L389.29285 67.80729L387.6991 67.80729L387.6991 73.27604Q387.6991 73.947914 387.77722 74.15104Q387.87097 74.33854 388.05847 74.447914Q388.24597 74.55729 388.60535 74.55729Q388.85535 74.55729 389.29285 74.49479Z" fill-rule="nonzero"/><path fill="#ea4335" d="M343.65222 100.416664C343.65222 103.73038 340.96594 106.416664 337.65222 106.416664C334.3385 106.416664 331.65222 103.73038 331.65222 100.416664C331.65222 97.10296 334.3385 94.416664 337.65222 94.416664C340.96594 94.416664 343.65222 97.10296 343.65222 100.416664Z" fill-rule="nonzero"/><path fill="#1a1a1a" d="M352.85535 95.854164L352.85535 94.02604L354.43347 94.02604L354.43347 95.854164L352.85535 95.854164ZM352.85535 106.916664L352.85535 97.58854L354.43347 97.58854L354.43347 106.916664L352.85535 106.916664ZM356.83972 106.916664L356.83972 97.58854L358.2616 97.58854L358.2616 98.916664Q359.29285 97.36979 361.23035 97.36979Q362.0741 97.36979 362.77722 97.68229Q363.49597 97.979164 363.83972 98.479164Q364.1991 98.96354 364.33972 99.635414Q364.41785 100.072914 364.41785 101.18229L364.41785 106.916664L362.83972 106.916664L362.83972 101.24479Q362.83972 100.27604 362.65222 99.791664Q362.48035 99.30729 361.99597 99.02604Q361.52722 98.74479 360.90222 98.74479Q359.8866 98.74479 359.15222 99.385414Q358.41785 100.02604 358.41785 101.822914L358.41785 106.916664L356.83972 106.916664ZM369.43347 106.916664L365.8866 97.58854L367.55847 97.58854L369.55847 103.166664Q369.8866 104.072914 370.15222 105.05729Q370.37097 104.30729 370.74597 103.27604L372.80847 97.58854L374.4491 97.58854L370.90222 106.916664L369.43347 106.916664ZM375.85535 95.854164L375.85535 94.02604L377.43347 94.02604L377.43347 95.854164L375.85535 95.854164ZM375.85535 106.916664L375.85535 97.58854L377.43347 97.58854L377.43347 106.916664L375.85535 106.916664ZM379.1991 104.135414L380.77722 103.885414Q380.90222 104.822914 381.49597 105.322914Q382.10535 105.822914 383.18347 105.822914Q384.27722 105.822914 384.80847 105.385414Q385.33972 104.93229 385.33972 104.33854Q385.33972 103.80729 384.87097 103.49479Q384.54285 103.291664 383.24597 102.96354Q381.5116 102.52604 380.83972 102.21354Q380.16785 101.885414 379.80847 101.322914Q379.46472 100.74479 379.46472 100.05729Q379.46472 99.43229 379.74597 98.90104Q380.04285 98.36979 380.52722 98.02604Q380.90222 97.74479 381.54285 97.55729Q382.18347 97.36979 382.90222 97.36979Q384.0116 97.36979 384.83972 97.697914Q385.66785 98.010414 386.05847 98.55729Q386.46472 99.08854 386.60535 99.99479L385.05847 100.197914Q384.9491 99.479164 384.4491 99.072914Q383.9491 98.666664 383.02722 98.666664Q381.93347 98.666664 381.46472 99.02604Q380.99597 99.385414 380.99597 99.86979Q380.99597 100.18229 381.1991 100.43229Q381.3866 100.68229 381.79285 100.854164Q382.04285 100.93229 383.1991 101.260414Q384.87097 101.697914 385.52722 101.99479Q386.1991 102.27604 386.5741 102.822914Q386.96472 103.36979 386.96472 104.166664Q386.96472 104.96354 386.49597 105.666664Q386.04285 106.36979 385.16785 106.760414Q384.29285 107.135414 383.1991 107.135414Q381.37097 107.135414 380.41785 106.385414Q379.46472 105.61979 379.1991 104.135414ZM388.85535 95.854164L388.85535 94.02604L390.43347 94.02604L390.43347 95.854164L388.85535 95.854164ZM388.85535 106.916664L388.85535 97.58854L390.43347 97.58854L390.43347 106.916664L388.85535 106.916664ZM394.29285 106.916664L392.8241 106.916664L392.8241 94.02604L394.41785 94.02604L394.41785 98.635414Q395.41785 97.36979 396.96472 97.36979Q397.8241 97.36979 398.58972 97.729164Q399.37097 98.072914 399.85535 98.697914Q400.35535 99.322914 400.6366 100.21354Q400.91785 101.104164 400.91785 102.104164Q400.91785 104.510414 399.73035 105.822914Q398.55847 107.135414 396.8866 107.135414Q395.24597 107.135414 394.29285 105.74479L394.29285 106.916664ZM394.27722 102.18229Q394.27722 103.854164 394.73035 104.604164Q395.48035 105.822914 396.7616 105.822914Q397.79285 105.822914 398.54285 104.93229Q399.30847 104.02604 399.30847 102.24479Q399.30847 100.416664 398.5741 99.541664Q397.85535 98.666664 396.8241 98.666664Q395.79285 98.666664 395.02722 99.572914Q394.27722 100.479164 394.27722 102.18229ZM402.85535 95.854164L402.85535 94.02604L404.43347 94.02604L404.43347 95.854164L402.85535 95.854164ZM402.85535 106.916664L402.85535 97.58854L404.43347 97.58854L404.43347 106.916664L402.85535 106.916664ZM406.80847 106.916664L406.80847 94.02604L408.3866 94.02604L408.3866 106.916664L406.80847 106.916664ZM410.85535 95.854164L410.85535 94.02604L412.43347 94.02604L412.43347 95.854164L410.85535 95.854164ZM410.85535 106.916664L410.85535 97.58854L412.43347 97.58854L412.43347 106.916664L410.85535 106.916664ZM418.29285 105.49479L418.52722 106.90104Q417.85535 107.041664 417.3241 107.041664Q416.46472 107.041664 415.98035 106.77604Q415.5116 106.49479 415.3241 106.05729Q415.1366 105.604164 415.1366 104.18229L415.1366 98.80729L413.96472 98.80729L413.96472 97.58854L415.1366 97.58854L415.1366 95.27604L416.6991 94.322914L416.6991 97.58854L418.29285 97.58854L418.29285 98.80729L416.6991 98.80729L416.6991 104.27604Q416.6991 104.947914 416.77722 105.15104Q416.87097 105.33854 417.05847 105.447914Q417.24597 105.55729 417.60535 105.55729Q417.85535 105.55729 418.29285 105.49479ZM419.7616 110.510414L419.58972 109.02604Q420.10535 109.166664 420.49597 109.166664Q421.02722 109.166664 421.33972 108.99479Q421.65222 108.822914 421.85535 108.49479Q422.0116 108.260414 422.33972 107.322914Q422.3866 107.18229 422.48035 106.93229L418.9491 97.58854L420.65222 97.58854L422.58972 102.99479Q422.96472 104.010414 423.2616 105.15104Q423.54285 104.05729 423.91785 103.02604L425.91785 97.58854L427.49597 97.58854L423.9491 107.072914Q423.37097 108.61979 423.05847 109.197914Q422.6366 109.979164 422.08972 110.33854Q421.54285 110.697914 420.79285 110.697914Q420.3241 110.697914 419.7616 110.510414Z" fill-rule="nonzero"/><path fill="#fbbc04" d="M343.65222 131.41667C343.65222 134.73038 340.96594 137.41667 337.65222 137.41667C334.3385 137.41667 331.65222 134.73038 331.65222 131.41667C331.65222 128.10295 334.3385 125.416664 337.65222 125.416664C340.96594 125.416664 343.65222 128.10295 343.65222 131.41667Z" fill-rule="nonzero"/><path fill="#1a1a1a" d="M352.85535 126.85417L352.85535 125.02605L354.43347 125.02605L354.43347 126.85417L352.85535 126.85417ZM352.85535 137.91667L352.85535 128.58855L354.43347 128.58855L354.43347 137.91667L352.85535 137.91667ZM357.21472 137.91667L357.21472 129.8073L355.8241 129.8073L355.8241 128.58855L357.21472 128.58855L357.21472 127.58855Q357.21472 126.65105 357.3866 126.19792Q357.60535 125.57292 358.18347 125.19792Q358.7616 124.8073 359.80847 124.8073Q360.46472 124.8073 361.27722 124.96355L361.04285 126.35417Q360.54285 126.26042 360.10535 126.26042Q359.3866 126.26042 359.08972 126.57292Q358.79285 126.8698 358.79285 127.71355L358.79285 128.58855L360.60535 128.58855L360.60535 129.8073L358.79285 129.8073L358.79285 137.91667L357.21472 137.91667ZM366.7616 141.51042L366.58972 140.02605Q367.10535 140.16667 367.49597 140.16667Q368.02722 140.16667 368.33972 139.9948Q368.65222 139.82292 368.85535 139.4948Q369.0116 139.26042 369.33972 138.32292Q369.3866 138.1823 369.48035 137.9323L365.9491 128.58855L367.65222 128.58855L369.58972 133.9948Q369.96472 135.01042 370.2616 136.15105Q370.54285 135.0573 370.91785 134.02605L372.91785 128.58855L374.49597 128.58855L370.9491 138.07292Q370.37097 139.6198 370.05847 140.19792Q369.6366 140.97917 369.08972 141.33855Q368.54285 141.69792 367.79285 141.69792Q367.3241 141.69792 366.7616 141.51042ZM375.24597 133.2448Q375.24597 130.65105 376.6991 129.40105Q377.90222 128.3698 379.62097 128.3698Q381.55847 128.3698 382.77722 129.63542Q383.99597 130.90105 383.99597 133.1198Q383.99597 134.91667 383.4491 135.94792Q382.91785 136.97917 381.8866 137.5573Q380.85535 138.13542 379.62097 138.13542Q377.66785 138.13542 376.4491 136.88542Q375.24597 135.6198 375.24597 133.2448ZM376.87097 133.2448Q376.87097 135.04167 377.65222 135.9323Q378.43347 136.82292 379.62097 136.82292Q380.80847 136.82292 381.58972 135.9323Q382.37097 135.02605 382.37097 133.19792Q382.37097 131.46355 381.5741 130.57292Q380.79285 129.6823 379.62097 129.6823Q378.43347 129.6823 377.65222 130.57292Q376.87097 131.46355 376.87097 133.2448ZM391.9491 137.91667L391.9491 136.54167Q390.87097 138.13542 388.99597 138.13542Q388.16785 138.13542 387.4491 137.82292Q386.73035 137.4948 386.3866 137.02605Q386.04285 136.54167 385.90222 135.83855Q385.80847 135.3698 385.80847 134.3698L385.80847 128.58855L387.3866 128.58855L387.3866 133.76042Q387.3866 134.9948 387.48035 135.4323Q387.6366 136.0573 388.12097 136.41667Q388.60535 136.76042 389.30847 136.76042Q390.02722 136.76042 390.65222 136.40105Q391.27722 136.04167 391.52722 135.41667Q391.79285 134.77605 391.79285 133.58855L391.79285 128.58855L393.37097 128.58855L393.37097 137.91667L391.9491 137.91667ZM401.21472 137.91667L401.21472 129.8073L399.8241 129.8073L399.8241 128.58855L401.21472 128.58855L401.21472 127.58855Q401.21472 126.65105 401.3866 126.19792Q401.60535 125.57292 402.18347 125.19792Q402.7616 124.8073 403.80847 124.8073Q404.46472 124.8073 405.27722 124.96355L405.04285 126.35417Q404.54285 126.26042 404.10535 126.26042Q403.3866 126.26042 403.08972 126.57292Q402.79285 126.8698 402.79285 127.71355L402.79285 128.58855L404.60535 128.58855L404.60535 129.8073L402.79285 129.8073L402.79285 137.91667L401.21472 137.91667ZM405.80847 137.91667L405.80847 125.02605L407.3866 125.02605L407.3866 137.91667L405.80847 137.91667ZM409.7616 141.51042L409.58972 140.02605Q410.10535 140.16667 410.49597 140.16667Q411.02722 140.16667 411.33972 139.9948Q411.65222 139.82292 411.85535 139.4948Q412.0116 139.26042 412.33972 138.32292Q412.3866 138.1823 412.48035 137.9323L408.9491 128.58855L410.65222 128.58855L412.58972 133.9948Q412.96472 135.01042 413.2616 136.15105Q413.54285 135.0573 413.91785 134.02605L415.91785 128.58855L417.49597 128.58855L413.9491 138.07292Q413.37097 139.6198 413.05847 140.19792Q412.6366 140.97917 412.08972 141.33855Q411.54285 141.69792 410.79285 141.69792Q410.3241 141.69792 409.7616 141.51042ZM423.83972 137.91667L423.83972 125.02605L425.41785 125.02605L425.41785 129.65105Q426.52722 128.3698 428.21472 128.3698Q429.24597 128.3698 430.0116 128.77605Q430.77722 129.1823 431.10535 129.91667Q431.4491 130.63542 431.4491 131.9948L431.4491 137.91667L429.85535 137.91667L429.85535 131.9948Q429.85535 130.8073 429.33972 130.27605Q428.8241 129.72917 427.8866 129.72917Q427.18347 129.72917 426.55847 130.10417Q425.9491 130.46355 425.68347 131.08855Q425.41785 131.71355 425.41785 132.8073L425.41785 137.91667L423.83972 137.91667ZM433.85535 126.85417L433.85535 125.02605L435.43347 125.02605L435.43347 126.85417L433.85535 126.85417ZM433.85535 137.91667L433.85535 128.58855L435.43347 128.58855L435.43347 137.91667L433.85535 137.91667ZM437.54285 138.69792L439.08972 138.91667Q439.18347 139.63542 439.62097 139.96355Q440.21472 140.40105 441.23035 140.40105Q442.3241 140.40105 442.91785 139.94792Q443.52722 139.51042 443.73035 138.72917Q443.85535 138.2448 443.85535 136.69792Q442.80847 137.91667 441.2616 137.91667Q439.33972 137.91667 438.27722 136.52605Q437.23035 135.13542 437.23035 133.19792Q437.23035 131.85417 437.71472 130.72917Q438.1991 129.60417 439.12097 128.9948Q440.04285 128.3698 441.27722 128.3698Q442.93347 128.3698 443.99597 129.71355L443.99597 128.58855L445.46472 128.58855L445.46472 136.65105Q445.46472 138.83855 445.0116 139.7448Q444.5741 140.65105 443.60535 141.16667Q442.65222 141.69792 441.24597 141.69792Q439.5741 141.69792 438.54285 140.94792Q437.5116 140.19792 437.54285 138.69792ZM438.85535 133.08855Q438.85535 134.91667 439.58972 135.76042Q440.3241 136.60417 441.41785 136.60417Q442.5116 136.60417 443.24597 135.77605Q443.98035 134.9323 443.98035 133.13542Q443.98035 131.41667 443.21472 130.5573Q442.46472 129.6823 441.3866 129.6823Q440.33972 129.6823 439.58972 130.54167Q438.85535 131.40105 438.85535 133.08855ZM447.83972 137.91667L447.83972 125.02605L449.41785 125.02605L449.41785 129.65105Q450.52722 128.3698 452.21472 128.3698Q453.24597 128.3698 454.0116 128.77605Q454.77722 129.1823 455.10535 129.91667Q455.4491 130.63542 455.4491 131.9948L455.4491 137.91667L453.85535 137.91667L453.85535 131.9948Q453.85535 130.8073 453.33972 130.27605Q452.8241 129.72917 451.8866 129.72917Q451.18347 129.72917 450.55847 130.10417Q449.9491 130.46355 449.68347 131.08855Q449.41785 131.71355 449.41785 132.8073L449.41785 137.91667L447.83972 137.91667ZM469.23035 134.91667L470.87097 135.1198Q470.48035 136.54167 469.43347 137.33855Q468.3866 138.13542 466.7616 138.13542Q464.71472 138.13542 463.5116 136.8698Q462.30847 135.60417 462.30847 133.32292Q462.30847 130.97917 463.5116 129.6823Q464.73035 128.3698 466.66785 128.3698Q468.54285 128.3698 469.73035 129.65105Q470.91785 130.91667 470.91785 133.22917Q470.91785 133.3698 470.90222 133.65105L463.9491 133.65105Q464.02722 135.19792 464.80847 136.01042Q465.60535 136.82292 466.7616 136.82292Q467.6366 136.82292 468.24597 136.3698Q468.87097 135.91667 469.23035 134.91667ZM464.02722 132.35417L469.24597 132.35417Q469.1366 131.1823 468.65222 130.58855Q467.8866 129.66667 466.68347 129.66667Q465.60535 129.66667 464.85535 130.40105Q464.12097 131.13542 464.02722 132.35417ZM472.83972 137.91667L472.83972 128.58855L474.2616 128.58855L474.2616 129.91667Q475.29285 128.3698 477.23035 128.3698Q478.0741 128.3698 478.77722 128.6823Q479.49597 128.97917 479.83972 129.47917Q480.1991 129.96355 480.33972 130.63542Q480.41785 131.07292 480.41785 132.1823L480.41785 137.91667L478.83972 137.91667L478.83972 132.2448Q478.83972 131.27605 478.65222 130.79167Q478.48035 130.3073 477.99597 130.02605Q477.52722 129.7448 476.90222 129.7448Q475.8866 129.7448 475.15222 130.38542Q474.41785 131.02605 474.41785 132.82292L474.41785 137.91667L472.83972 137.91667ZM482.24597 133.2448Q482.24597 130.65105 483.6991 129.40105Q484.90222 128.3698 486.62097 128.3698Q488.55847 128.3698 489.77722 129.63542Q490.99597 130.90105 490.99597 133.1198Q490.99597 134.91667 490.4491 135.94792Q489.91785 136.97917 488.8866 137.5573Q487.85535 138.13542 486.62097 138.13542Q484.66785 138.13542 483.4491 136.88542Q482.24597 135.6198 482.24597 133.2448ZM483.87097 133.2448Q483.87097 135.04167 484.65222 135.9323Q485.43347 136.82292 486.62097 136.82292Q487.80847 136.82292 488.58972 135.9323Q489.37097 135.02605 489.37097 133.19792Q489.37097 131.46355 488.5741 130.57292Q487.79285 129.6823 486.62097 129.6823Q485.43347 129.6823 484.65222 130.57292Q483.87097 131.46355 483.87097 133.2448ZM498.9491 137.91667L498.9491 136.54167Q497.87097 138.13542 495.99597 138.13542Q495.16785 138.13542 494.4491 137.82292Q493.73035 137.4948 493.3866 137.02605Q493.04285 136.54167 492.90222 135.83855Q492.80847 135.3698 492.80847 134.3698L492.80847 128.58855L494.3866 128.58855L494.3866 133.76042Q494.3866 134.9948 494.48035 135.4323Q494.6366 136.0573 495.12097 136.41667Q495.60535 136.76042 496.30847 136.76042Q497.02722 136.76042 497.65222 136.40105Q498.27722 136.04167 498.52722 135.41667Q498.79285 134.77605 498.79285 133.58855L498.79285 128.58855L500.37097 128.58855L500.37097 137.91667L498.9491 137.91667ZM502.54285 138.69792L504.08972 138.91667Q504.18347 139.63542 504.62097 139.96355Q505.21472 140.40105 506.23035 140.40105Q507.3241 140.40105 507.91785 139.94792Q508.52722 139.51042 508.73035 138.72917Q508.85535 138.2448 508.85535 136.69792Q507.80847 137.91667 506.2616 137.91667Q504.33972 137.91667 503.27722 136.52605Q502.23035 135.13542 502.23035 133.19792Q502.23035 131.85417 502.71472 130.72917Q503.1991 129.60417 504.12097 128.9948Q505.04285 128.3698 506.27722 128.3698Q507.93347 128.3698 508.99597 129.71355L508.99597 128.58855L510.46472 128.58855L510.46472 136.65105Q510.46472 138.83855 510.0116 139.7448Q509.5741 140.65105 508.60535 141.16667Q507.65222 141.69792 506.24597 141.69792Q504.5741 141.69792 503.54285 140.94792Q502.5116 140.19792 502.54285 138.69792ZM503.85535 133.08855Q503.85535 134.91667 504.58972 135.76042Q505.3241 136.60417 506.41785 136.60417Q507.5116 136.60417 508.24597 135.77605Q508.98035 134.9323 508.98035 133.13542Q508.98035 131.41667 508.21472 130.5573Q507.46472 129.6823 506.3866 129.6823Q505.33972 129.6823 504.58972 130.54167Q503.85535 131.40105 503.85535 133.08855ZM512.8397 137.91667L512.8397 125.02605L514.41785 125.02605L514.41785 129.65105Q515.5272 128.3698 517.2147 128.3698Q518.246 128.3698 519.0116 128.77605Q519.7772 129.1823 520.10535 129.91667Q520.4491 130.63542 520.4491 131.9948L520.4491 137.91667L518.85535 137.91667L518.85535 131.9948Q518.85535 130.8073 518.3397 130.27605Q517.8241 129.72917 516.8866 129.72917Q516.1835 129.72917 515.5585 130.10417Q514.9491 130.46355 514.6835 131.08855Q514.41785 131.71355 514.41785 132.8073L514.41785 137.91667L512.8397 137.91667Z" fill-rule="nonzero"/><path fill="#1a1a1a" d="M356.29285 158.4948L356.52722 159.90105Q355.85535 160.04167 355.3241 160.04167Q354.46472 160.04167 353.98035 159.77605Q353.5116 159.4948 353.3241 159.0573Q353.1366 158.60417 353.1366 157.1823L353.1366 151.8073L351.96472 151.8073L351.96472 150.58855L353.1366 150.58855L353.1366 148.27605L354.6991 147.32292L354.6991 150.58855L356.29285 150.58855L356.29285 151.8073L354.6991 151.8073L354.6991 157.27605Q354.6991 157.94792 354.77722 158.15105Q354.87097 158.33855 355.05847 158.44792Q355.24597 158.5573 355.60535 158.5573Q355.85535 158.5573 356.29285 158.4948ZM364.23035 156.91667L365.87097 157.1198Q365.48035 158.54167 364.43347 159.33855Q363.3866 160.13542 361.7616 160.13542Q359.71472 160.13542 358.5116 158.8698Q357.30847 157.60417 357.30847 155.32292Q357.30847 152.97917 358.5116 151.6823Q359.73035 150.3698 361.66785 150.3698Q363.54285 150.3698 364.73035 151.65105Q365.91785 152.91667 365.91785 155.22917Q365.91785 155.3698 365.90222 155.65105L358.9491 155.65105Q359.02722 157.19792 359.80847 158.01042Q360.60535 158.82292 361.7616 158.82292Q362.6366 158.82292 363.24597 158.3698Q363.87097 157.91667 364.23035 156.91667ZM359.02722 154.35417L364.24597 154.35417Q364.1366 153.1823 363.65222 152.58855Q362.8866 151.66667 361.68347 151.66667Q360.60535 151.66667 359.85535 152.40105Q359.12097 153.13542 359.02722 154.35417ZM373.93347 156.4948L375.48035 156.69792Q375.23035 158.3073 374.18347 159.22917Q373.1366 160.13542 371.60535 160.13542Q369.68347 160.13542 368.5116 158.88542Q367.35535 157.6198 367.35535 155.29167Q367.35535 153.77605 367.85535 152.65105Q368.35535 151.51042 369.37097 150.94792Q370.40222 150.3698 371.60535 150.3698Q373.1366 150.3698 374.08972 151.15105Q375.05847 151.91667 375.33972 153.32292L373.79285 153.5573Q373.5741 152.6198 373.0116 152.15105Q372.46472 151.66667 371.66785 151.66667Q370.48035 151.66667 369.73035 152.52605Q368.98035 153.38542 368.98035 155.2448Q368.98035 157.1198 369.6991 157.97917Q370.41785 158.82292 371.58972 158.82292Q372.5116 158.82292 373.1366 158.26042Q373.7616 157.6823 373.93347 156.4948ZM376.83972 159.91667L376.83972 147.02605L378.41785 147.02605L378.41785 151.65105Q379.52722 150.3698 381.21472 150.3698Q382.24597 150.3698 383.0116 150.77605Q383.77722 151.1823 384.10535 151.91667Q384.4491 152.63542 384.4491 153.9948L384.4491 159.91667L382.85535 159.91667L382.85535 153.9948Q382.85535 152.8073 382.33972 152.27605Q381.8241 151.72917 380.8866 151.72917Q380.18347 151.72917 379.55847 152.10417Q378.9491 152.46355 378.68347 153.08855Q378.41785 153.71355 378.41785 154.8073L378.41785 159.91667L376.83972 159.91667ZM386.83972 159.91667L386.83972 150.58855L388.2616 150.58855L388.2616 151.91667Q389.29285 150.3698 391.23035 150.3698Q392.0741 150.3698 392.77722 150.6823Q393.49597 150.97917 393.83972 151.47917Q394.1991 151.96355 394.33972 152.63542Q394.41785 153.07292 394.41785 154.1823L394.41785 159.91667L392.83972 159.91667L392.83972 154.2448Q392.83972 153.27605 392.65222 152.79167Q392.48035 152.3073 391.99597 152.02605Q391.52722 151.7448 390.90222 151.7448Q389.8866 151.7448 389.15222 152.38542Q388.41785 153.02605 388.41785 154.82292L388.41785 159.91667L386.83972 159.91667ZM396.85535 148.85417L396.85535 147.02605L398.43347 147.02605L398.43347 148.85417L396.85535 148.85417ZM396.85535 159.91667L396.85535 150.58855L398.43347 150.58855L398.43347 159.91667L396.85535 159.91667ZM406.93347 156.4948L408.48035 156.69792Q408.23035 158.3073 407.18347 159.22917Q406.1366 160.13542 404.60535 160.13542Q402.68347 160.13542 401.5116 158.88542Q400.35535 157.6198 400.35535 155.29167Q400.35535 153.77605 400.85535 152.65105Q401.35535 151.51042 402.37097 150.94792Q403.40222 150.3698 404.60535 150.3698Q406.1366 150.3698 407.08972 151.15105Q408.05847 151.91667 408.33972 153.32292L406.79285 153.5573Q406.5741 152.6198 406.0116 152.15105Q405.46472 151.66667 404.66785 151.66667Q403.48035 151.66667 402.73035 152.52605Q401.98035 153.38542 401.98035 155.2448Q401.98035 157.1198 402.6991 157.97917Q403.41785 158.82292 404.58972 158.82292Q405.5116 158.82292 406.1366 158.26042Q406.7616 157.6823 406.93347 156.4948ZM415.93347 158.76042Q415.05847 159.51042 414.23035 159.82292Q413.41785 160.13542 412.49597 160.13542Q410.9491 160.13542 410.12097 159.38542Q409.30847 158.6198 409.30847 157.44792Q409.30847 156.77605 409.62097 156.21355Q409.93347 155.63542 410.43347 155.29167Q410.93347 154.94792 411.5741 154.77605Q412.04285 154.65105 412.98035 154.54167Q414.8866 154.3073 415.79285 153.9948Q415.80847 153.66667 415.80847 153.57292Q415.80847 152.6198 415.35535 152.21355Q414.74597 151.6823 413.55847 151.6823Q412.43347 151.6823 411.90222 152.07292Q411.37097 152.46355 411.12097 153.46355L409.5741 153.2448Q409.79285 152.2448 410.2616 151.63542Q410.74597 151.02605 411.65222 150.69792Q412.5741 150.3698 413.79285 150.3698Q414.98035 150.3698 415.73035 150.65105Q416.48035 150.9323 416.8241 151.3698Q417.18347 151.79167 417.3241 152.4323Q417.40222 152.83855 417.40222 153.90105L417.40222 156.01042Q417.40222 158.21355 417.49597 158.8073Q417.60535 159.38542 417.90222 159.91667L416.24597 159.91667Q415.99597 159.41667 415.93347 158.76042ZM415.79285 155.22917Q414.93347 155.58855 413.21472 155.82292Q412.24597 155.96355 411.83972 156.15105Q411.43347 156.32292 411.21472 156.66667Q410.99597 156.9948 410.99597 157.41667Q410.99597 158.04167 411.46472 158.46355Q411.9491 158.88542 412.87097 158.88542Q413.79285 158.88542 414.49597 158.4948Q415.21472 158.08855 415.54285 157.40105Q415.79285 156.85417 415.79285 155.8073L415.79285 155.22917ZM419.80847 159.91667L419.80847 147.02605L421.3866 147.02605L421.3866 159.91667L419.80847 159.91667ZM423.80847 159.91667L423.80847 147.02605L425.3866 147.02605L425.3866 159.91667L423.80847 159.91667ZM427.7616 163.51042L427.58972 162.02605Q428.10535 162.16667 428.49597 162.16667Q429.02722 162.16667 429.33972 161.9948Q429.65222 161.82292 429.85535 161.4948Q430.0116 161.26042 430.33972 160.32292Q430.3866 160.1823 430.48035 159.9323L426.9491 150.58855L428.65222 150.58855L430.58972 155.9948Q430.96472 157.01042 431.2616 158.15105Q431.54285 157.0573 431.91785 156.02605L433.91785 150.58855L435.49597 150.58855L431.9491 160.07292Q431.37097 161.6198 431.05847 162.19792Q430.6366 162.97917 430.08972 163.33855Q429.54285 163.69792 428.79285 163.69792Q428.3241 163.69792 427.7616 163.51042ZM441.7616 163.51042L441.58972 162.02605Q442.10535 162.16667 442.49597 162.16667Q443.02722 162.16667 443.33972 161.9948Q443.65222 161.82292 443.85535 161.4948Q444.0116 161.26042 444.33972 160.32292Q444.3866 160.1823 444.48035 159.9323L440.9491 150.58855L442.65222 150.58855L444.58972 155.9948Q444.96472 157.01042 445.2616 158.15105Q445.54285 157.0573 445.91785 156.02605L447.91785 150.58855L449.49597 150.58855L445.9491 160.07292Q445.37097 161.6198 445.05847 162.19792Q444.6366 162.97917 444.08972 163.33855Q443.54285 163.69792 442.79285 163.69792Q442.3241 163.69792 441.7616 163.51042ZM450.24597 155.2448Q450.24597 152.65105 451.6991 151.40105Q452.90222 150.3698 454.62097 150.3698Q456.55847 150.3698 457.77722 151.63542Q458.99597 152.90105 458.99597 155.1198Q458.99597 156.91667 458.4491 157.94792Q457.91785 158.97917 456.8866 159.5573Q455.85535 160.13542 454.62097 160.13542Q452.66785 160.13542 451.4491 158.88542Q450.24597 157.6198 450.24597 155.2448ZM451.87097 155.2448Q451.87097 157.04167 452.65222 157.9323Q453.43347 158.82292 454.62097 158.82292Q455.80847 158.82292 456.58972 157.9323Q457.37097 157.02605 457.37097 155.19792Q457.37097 153.46355 456.5741 152.57292Q455.79285 151.6823 454.62097 151.6823Q453.43347 151.6823 452.65222 152.57292Q451.87097 153.46355 451.87097 155.2448ZM466.9491 159.91667L466.9491 158.54167Q465.87097 160.13542 463.99597 160.13542Q463.16785 160.13542 462.4491 159.82292Q461.73035 159.4948 461.3866 159.02605Q461.04285 158.54167 460.90222 157.83855Q460.80847 157.3698 460.80847 156.3698L460.80847 150.58855L462.3866 150.58855L462.3866 155.76042Q462.3866 156.9948 462.48035 157.4323Q462.6366 158.0573 463.12097 158.41667Q463.60535 158.76042 464.30847 158.76042Q465.02722 158.76042 465.65222 158.40105Q466.27722 158.04167 466.52722 157.41667Q466.79285 156.77605 466.79285 155.58855L466.79285 150.58855L468.37097 150.58855L468.37097 159.91667L466.9491 159.91667ZM477.55847 159.91667L474.6991 150.58855L476.33972 150.58855L477.8241 155.96355L478.3866 157.97917Q478.41785 157.82292 478.85535 156.04167L480.35535 150.58855L481.98035 150.58855L483.37097 155.9948L483.83972 157.77605L484.37097 155.97917L485.98035 150.58855L487.5116 150.58855L484.58972 159.91667L482.9491 159.91667L481.46472 154.32292L481.10535 152.72917L479.21472 159.91667L477.55847 159.91667ZM488.24597 155.2448Q488.24597 152.65105 489.6991 151.40105Q490.90222 150.3698 492.62097 150.3698Q494.55847 150.3698 495.77722 151.63542Q496.99597 152.90105 496.99597 155.1198Q496.99597 156.91667 496.4491 157.94792Q495.91785 158.97917 494.8866 159.5573Q493.85535 160.13542 492.62097 160.13542Q490.66785 160.13542 489.4491 158.88542Q488.24597 157.6198 488.24597 155.2448ZM489.87097 155.2448Q489.87097 157.04167 490.65222 157.9323Q491.43347 158.82292 492.62097 158.82292Q493.80847 158.82292 494.58972 157.9323Q495.37097 157.02605 495.37097 155.19792Q495.37097 153.46355 494.5741 152.57292Q493.79285 151.6823 492.62097 151.6823Q491.43347 151.6823 490.65222 152.57292Q489.87097 153.46355 489.87097 155.2448ZM504.9491 159.91667L504.9491 158.54167Q503.87097 160.13542 501.99597 160.13542Q501.16785 160.13542 500.4491 159.82292Q499.73035 159.4948 499.3866 159.02605Q499.04285 158.54167 498.90222 157.83855Q498.80847 157.3698 498.80847 156.3698L498.80847 150.58855L500.3866 150.58855L500.3866 155.76042Q500.3866 156.9948 500.48035 157.4323Q500.6366 158.0573 501.12097 158.41667Q501.60535 158.76042 502.30847 158.76042Q503.02722 158.76042 503.65222 158.40105Q504.27722 158.04167 504.52722 157.41667Q504.79285 156.77605 504.79285 155.58855L504.79285 150.58855L506.37097 150.58855L506.37097 159.91667L504.9491 159.91667ZM508.80847 159.91667L508.80847 147.02605L510.3866 147.02605L510.3866 159.91667L508.80847 159.91667ZM518.9022 159.91667L518.9022 158.7448Q518.0116 160.13542 516.2772 160.13542Q515.16785 160.13542 514.23035 159.52605Q513.29285 158.90105 512.7772 157.8073Q512.2616 156.69792 512.2616 155.26042Q512.2616 153.85417 512.73035 152.72917Q513.1991 151.58855 514.121 150.97917Q515.0585 150.3698 516.2147 150.3698Q517.0585 150.3698 517.7147 150.72917Q518.371 151.08855 518.79285 151.65105L518.79285 147.02605L520.35535 147.02605L520.35535 159.91667L518.9022 159.91667ZM513.8866 155.26042Q513.8866 157.0573 514.6366 157.94792Q515.4022 158.82292 516.4335 158.82292Q517.4647 158.82292 518.1835 157.97917Q518.91785 157.13542 518.91785 155.38542Q518.91785 153.47917 518.1835 152.58855Q517.4491 151.6823 516.371 151.6823Q515.3085 151.6823 514.5897 152.54167Q513.8866 153.40105 513.8866 155.26042ZM529.29285 159.91667L527.8241 159.91667L527.8241 147.02605L529.41785 147.02605L529.41785 151.63542Q530.41785 150.3698 531.9647 150.3698Q532.8241 150.3698 533.5897 150.72917Q534.371 151.07292 534.85535 151.69792Q535.35535 152.32292 535.6366 153.21355Q535.91785 154.10417 535.91785 155.10417Q535.91785 157.51042 534.73035 158.82292Q533.5585 160.13542 531.8866 160.13542Q530.246 160.13542 529.29285 158.7448L529.29285 159.91667ZM529.2772 155.1823Q529.2772 156.85417 529.73035 157.60417Q530.48035 158.82292 531.7616 158.82292Q532.79285 158.82292 533.54285 157.9323Q534.3085 157.02605 534.3085 155.2448Q534.3085 153.41667 533.5741 152.54167Q532.85535 151.66667 531.8241 151.66667Q530.79285 151.66667 530.0272 152.57292Q529.2772 153.47917 529.2772 155.1823ZM544.23035 156.91667L545.871 157.1198Q545.48035 158.54167 544.4335 159.33855Q543.3866 160.13542 541.7616 160.13542Q539.7147 160.13542 538.5116 158.8698Q537.3085 157.60417 537.3085 155.32292Q537.3085 152.97917 538.5116 151.6823Q539.73035 150.3698 541.66785 150.3698Q543.54285 150.3698 544.73035 151.65105Q545.91785 152.91667 545.91785 155.22917Q545.91785 155.3698 545.9022 155.65105L538.9491 155.65105Q539.0272 157.19792 539.8085 158.01042Q540.60535 158.82292 541.7616 158.82292Q542.6366 158.82292 543.246 158.3698Q543.871 157.91667 544.23035 156.91667ZM539.0272 154.35417L544.246 154.35417Q544.1366 153.1823 543.6522 152.58855Q542.8866 151.66667 541.6835 151.66667Q540.60535 151.66667 539.85535 152.40105Q539.121 153.13542 539.0272 154.35417Z" fill-rule="nonzero"/><path fill="#1a1a1a" d="M352.85535 170.85417L352.85535 169.02605L354.43347 169.02605L354.43347 170.85417L352.85535 170.85417ZM352.85535 181.91667L352.85535 172.58855L354.43347 172.58855L354.43347 181.91667L352.85535 181.91667ZM356.83972 181.91667L356.83972 172.58855L358.2616 172.58855L358.2616 173.91667Q359.29285 172.3698 361.23035 172.3698Q362.0741 172.3698 362.77722 172.6823Q363.49597 172.97917 363.83972 173.47917Q364.1991 173.96355 364.33972 174.63542Q364.41785 175.07292 364.41785 176.1823L364.41785 181.91667L362.83972 181.91667L362.83972 176.2448Q362.83972 175.27605 362.65222 174.79167Q362.48035 174.3073 361.99597 174.02605Q361.52722 173.7448 360.90222 173.7448Q359.8866 173.7448 359.15222 174.38542Q358.41785 175.02605 358.41785 176.82292L358.41785 181.91667L356.83972 181.91667ZM369.43347 181.91667L365.8866 172.58855L367.55847 172.58855L369.55847 178.16667Q369.8866 179.07292 370.15222 180.0573Q370.37097 179.3073 370.74597 178.27605L372.80847 172.58855L374.4491 172.58855L370.90222 181.91667L369.43347 181.91667ZM375.85535 170.85417L375.85535 169.02605L377.43347 169.02605L377.43347 170.85417L375.85535 170.85417ZM375.85535 181.91667L375.85535 172.58855L377.43347 172.58855L377.43347 181.91667L375.85535 181.91667ZM379.1991 179.13542L380.77722 178.88542Q380.90222 179.82292 381.49597 180.32292Q382.10535 180.82292 383.18347 180.82292Q384.27722 180.82292 384.80847 180.38542Q385.33972 179.9323 385.33972 179.33855Q385.33972 178.8073 384.87097 178.4948Q384.54285 178.29167 383.24597 177.96355Q381.5116 177.52605 380.83972 177.21355Q380.16785 176.88542 379.80847 176.32292Q379.46472 175.7448 379.46472 175.0573Q379.46472 174.4323 379.74597 173.90105Q380.04285 173.3698 380.52722 173.02605Q380.90222 172.7448 381.54285 172.5573Q382.18347 172.3698 382.90222 172.3698Q384.0116 172.3698 384.83972 172.69792Q385.66785 173.01042 386.05847 173.5573Q386.46472 174.08855 386.60535 174.9948L385.05847 175.19792Q384.9491 174.47917 384.4491 174.07292Q383.9491 173.66667 383.02722 173.66667Q381.93347 173.66667 381.46472 174.02605Q380.99597 174.38542 380.99597 174.8698Q380.99597 175.1823 381.1991 175.4323Q381.3866 175.6823 381.79285 175.85417Q382.04285 175.9323 383.1991 176.26042Q384.87097 176.69792 385.52722 176.9948Q386.1991 177.27605 386.5741 177.82292Q386.96472 178.3698 386.96472 179.16667Q386.96472 179.96355 386.49597 180.66667Q386.04285 181.3698 385.16785 181.76042Q384.29285 182.13542 383.1991 182.13542Q381.37097 182.13542 380.41785 181.38542Q379.46472 180.6198 379.1991 179.13542ZM388.85535 170.85417L388.85535 169.02605L390.43347 169.02605L390.43347 170.85417L388.85535 170.85417ZM388.85535 181.91667L388.85535 172.58855L390.43347 172.58855L390.43347 181.91667L388.85535 181.91667ZM394.29285 181.91667L392.8241 181.91667L392.8241 169.02605L394.41785 169.02605L394.41785 173.63542Q395.41785 172.3698 396.96472 172.3698Q397.8241 172.3698 398.58972 172.72917Q399.37097 173.07292 399.85535 173.69792Q400.35535 174.32292 400.6366 175.21355Q400.91785 176.10417 400.91785 177.10417Q400.91785 179.51042 399.73035 180.82292Q398.55847 182.13542 396.8866 182.13542Q395.24597 182.13542 394.29285 180.7448L394.29285 181.91667ZM394.27722 177.1823Q394.27722 178.85417 394.73035 179.60417Q395.48035 180.82292 396.7616 180.82292Q397.79285 180.82292 398.54285 179.9323Q399.30847 179.02605 399.30847 177.2448Q399.30847 175.41667 398.5741 174.54167Q397.85535 173.66667 396.8241 173.66667Q395.79285 173.66667 395.02722 174.57292Q394.27722 175.47917 394.27722 177.1823ZM402.80847 181.91667L402.80847 169.02605L404.3866 169.02605L404.3866 181.91667L402.80847 181.91667ZM413.23035 178.91667L414.87097 179.1198Q414.48035 180.54167 413.43347 181.33855Q412.3866 182.13542 410.7616 182.13542Q408.71472 182.13542 407.5116 180.8698Q406.30847 179.60417 406.30847 177.32292Q406.30847 174.97917 407.5116 173.6823Q408.73035 172.3698 410.66785 172.3698Q412.54285 172.3698 413.73035 173.65105Q414.91785 174.91667 414.91785 177.22917Q414.91785 177.3698 414.90222 177.65105L407.9491 177.65105Q408.02722 179.19792 408.80847 180.01042Q409.60535 180.82292 410.7616 180.82292Q411.6366 180.82292 412.24597 180.3698Q412.87097 179.91667 413.23035 178.91667ZM408.02722 176.35417L413.24597 176.35417Q413.1366 175.1823 412.65222 174.58855Q411.8866 173.66667 410.68347 173.66667Q409.60535 173.66667 408.85535 174.40105Q408.12097 175.13542 408.02722 176.35417ZM421.1991 179.13542L422.77722 178.88542Q422.90222 179.82292 423.49597 180.32292Q424.10535 180.82292 425.18347 180.82292Q426.27722 180.82292 426.80847 180.38542Q427.33972 179.9323 427.33972 179.33855Q427.33972 178.8073 426.87097 178.4948Q426.54285 178.29167 425.24597 177.96355Q423.5116 177.52605 422.83972 177.21355Q422.16785 176.88542 421.80847 176.32292Q421.46472 175.7448 421.46472 175.0573Q421.46472 174.4323 421.74597 173.90105Q422.04285 173.3698 422.52722 173.02605Q422.90222 172.7448 423.54285 172.5573Q424.18347 172.3698 424.90222 172.3698Q426.0116 172.3698 426.83972 172.69792Q427.66785 173.01042 428.05847 173.5573Q428.46472 174.08855 428.60535 174.9948L427.05847 175.19792Q426.9491 174.47917 426.4491 174.07292Q425.9491 173.66667 425.02722 173.66667Q423.93347 173.66667 423.46472 174.02605Q422.99597 174.38542 422.99597 174.8698Q422.99597 175.1823 423.1991 175.4323Q423.3866 175.6823 423.79285 175.85417Q424.04285 175.9323 425.1991 176.26042Q426.87097 176.69792 427.52722 176.9948Q428.1991 177.27605 428.5741 177.82292Q428.96472 178.3698 428.96472 179.16667Q428.96472 179.96355 428.49597 180.66667Q428.04285 181.3698 427.16785 181.76042Q426.29285 182.13542 425.1991 182.13542Q423.37097 182.13542 422.41785 181.38542Q421.46472 180.6198 421.1991 179.13542ZM430.24597 177.2448Q430.24597 174.65105 431.6991 173.40105Q432.90222 172.3698 434.62097 172.3698Q436.55847 172.3698 437.77722 173.63542Q438.99597 174.90105 438.99597 177.1198Q438.99597 178.91667 438.4491 179.94792Q437.91785 180.97917 436.8866 181.5573Q435.85535 182.13542 434.62097 182.13542Q432.66785 182.13542 431.4491 180.88542Q430.24597 179.6198 430.24597 177.2448ZM431.87097 177.2448Q431.87097 179.04167 432.65222 179.9323Q433.43347 180.82292 434.62097 180.82292Q435.80847 180.82292 436.58972 179.9323Q437.37097 179.02605 437.37097 177.19792Q437.37097 175.46355 436.5741 174.57292Q435.79285 173.6823 434.62097 173.6823Q433.43347 173.6823 432.65222 174.57292Q431.87097 175.46355 431.87097 177.2448ZM446.21472 181.91667L446.21472 173.8073L444.8241 173.8073L444.8241 172.58855L446.21472 172.58855L446.21472 171.58855Q446.21472 170.65105 446.3866 170.19792Q446.60535 169.57292 447.18347 169.19792Q447.7616 168.8073 448.80847 168.8073Q449.46472 168.8073 450.27722 168.96355L450.04285 170.35417Q449.54285 170.26042 449.10535 170.26042Q448.3866 170.26042 448.08972 170.57292Q447.79285 170.8698 447.79285 171.71355L447.79285 172.58855L449.60535 172.58855L449.60535 173.8073L447.79285 173.8073L447.79285 181.91667L446.21472 181.91667ZM450.80847 181.91667L450.80847 169.02605L452.3866 169.02605L452.3866 181.91667L450.80847 181.91667ZM454.85535 170.85417L454.85535 169.02605L456.43347 169.02605L456.43347 170.85417L454.85535 170.85417ZM454.85535 181.91667L454.85535 172.58855L456.43347 172.58855L456.43347 181.91667L454.85535 181.91667ZM458.54285 182.69792L460.08972 182.91667Q460.18347 183.63542 460.62097 183.96355Q461.21472 184.40105 462.23035 184.40105Q463.3241 184.40105 463.91785 183.94792Q464.52722 183.51042 464.73035 182.72917Q464.85535 182.2448 464.85535 180.69792Q463.80847 181.91667 462.2616 181.91667Q460.33972 181.91667 459.27722 180.52605Q458.23035 179.13542 458.23035 177.19792Q458.23035 175.85417 458.71472 174.72917Q459.1991 173.60417 460.12097 172.9948Q461.04285 172.3698 462.27722 172.3698Q463.93347 172.3698 464.99597 173.71355L464.99597 172.58855L466.46472 172.58855L466.46472 180.65105Q466.46472 182.83855 466.0116 183.7448Q465.5741 184.65105 464.60535 185.16667Q463.65222 185.69792 462.24597 185.69792Q460.5741 185.69792 459.54285 184.94792Q458.5116 184.19792 458.54285 182.69792ZM459.85535 177.08855Q459.85535 178.91667 460.58972 179.76042Q461.3241 180.60417 462.41785 180.60417Q463.5116 180.60417 464.24597 179.77605Q464.98035 178.9323 464.98035 177.13542Q464.98035 175.41667 464.21472 174.5573Q463.46472 173.6823 462.3866 173.6823Q461.33972 173.6823 460.58972 174.54167Q459.85535 175.40105 459.85535 177.08855ZM468.83972 181.91667L468.83972 169.02605L470.41785 169.02605L470.41785 173.65105Q471.52722 172.3698 473.21472 172.3698Q474.24597 172.3698 475.0116 172.77605Q475.77722 173.1823 476.10535 173.91667Q476.4491 174.63542 476.4491 175.9948L476.4491 181.91667L474.85535 181.91667L474.85535 175.9948Q474.85535 174.8073 474.33972 174.27605Q473.8241 173.72917 472.8866 173.72917Q472.18347 173.72917 471.55847 174.10417Q470.9491 174.46355 470.68347 175.08855Q470.41785 175.71355 470.41785 176.8073L470.41785 181.91667L468.83972 181.91667ZM482.29285 180.4948L482.52722 181.90105Q481.85535 182.04167 481.3241 182.04167Q480.46472 182.04167 479.98035 181.77605Q479.5116 181.4948 479.3241 181.0573Q479.1366 180.60417 479.1366 179.1823L479.1366 173.8073L477.96472 173.8073L477.96472 172.58855L479.1366 172.58855L479.1366 170.27605L480.6991 169.32292L480.6991 172.58855L482.29285 172.58855L482.29285 173.8073L480.6991 173.8073L480.6991 179.27605Q480.6991 179.94792 480.77722 180.15105Q480.87097 180.33855 481.05847 180.44792Q481.24597 180.5573 481.60535 180.5573Q481.85535 180.5573 482.29285 180.4948ZM489.21472 181.91667L489.21472 173.8073L487.8241 173.8073L487.8241 172.58855L489.21472 172.58855L489.21472 171.58855Q489.21472 170.65105 489.3866 170.19792Q489.60535 169.57292 490.18347 169.19792Q490.7616 168.8073 491.80847 168.8073Q492.46472 168.8073 493.27722 168.96355L493.04285 170.35417Q492.54285 170.26042 492.10535 170.26042Q491.3866 170.26042 491.08972 170.57292Q490.79285 170.8698 490.79285 171.71355L490.79285 172.58855L492.60535 172.58855L492.60535 173.8073L490.79285 173.8073L490.79285 181.91667L489.21472 181.91667ZM493.24597 177.2448Q493.24597 174.65105 494.6991 173.40105Q495.90222 172.3698 497.62097 172.3698Q499.55847 172.3698 500.77722 173.63542Q501.99597 174.90105 501.99597 177.1198Q501.99597 178.91667 501.4491 179.94792Q500.91785 180.97917 499.8866 181.5573Q498.85535 182.13542 497.62097 182.13542Q495.66785 182.13542 494.4491 180.88542Q493.24597 179.6198 493.24597 177.2448ZM494.87097 177.2448Q494.87097 179.04167 495.65222 179.9323Q496.43347 180.82292 497.62097 180.82292Q498.80847 180.82292 499.58972 179.9323Q500.37097 179.02605 500.37097 177.19792Q500.37097 175.46355 499.5741 174.57292Q498.79285 173.6823 497.62097 173.6823Q496.43347 173.6823 495.65222 174.57292Q494.87097 175.46355 494.87097 177.2448ZM503.8241 181.91667L503.8241 172.58855L505.24597 172.58855L505.24597 173.9948Q505.79285 173.01042 506.24597 172.69792Q506.71472 172.3698 507.2616 172.3698Q508.0741 172.3698 508.8866 172.88542L508.35535 174.35417Q507.7616 174.01042 507.18347 174.01042Q506.66785 174.01042 506.24597 174.32292Q505.83972 174.63542 505.66785 175.1823Q505.40222 176.02605 505.40222 177.02605L505.40222 181.91667L503.8241 181.91667ZM518.29285 180.4948L518.5272 181.90105Q517.85535 182.04167 517.3241 182.04167Q516.4647 182.04167 515.98035 181.77605Q515.5116 181.4948 515.3241 181.0573Q515.1366 180.60417 515.1366 179.1823L515.1366 173.8073L513.9647 173.8073L513.9647 172.58855L515.1366 172.58855L515.1366 170.27605L516.6991 169.32292L516.6991 172.58855L518.29285 172.58855L518.29285 173.8073L516.6991 173.8073L516.6991 179.27605Q516.6991 179.94792 516.7772 180.15105Q516.871 180.33855 517.0585 180.44792Q517.246 180.5573 517.60535 180.5573Q517.85535 180.5573 518.29285 180.4948ZM519.8397 181.91667L519.8397 169.02605L521.41785 169.02605L521.41785 173.65105Q522.5272 172.3698 524.2147 172.3698Q525.246 172.3698 526.0116 172.77605Q526.7772 173.1823 527.10535 173.91667Q527.4491 174.63542 527.4491 175.9948L527.4491 181.91667L525.85535 181.91667L525.85535 175.9948Q525.85535 174.8073 525.3397 174.27605Q524.8241 173.72917 523.8866 173.72917Q523.1835 173.72917 522.5585 174.10417Q521.9491 174.46355 521.6835 175.08855Q521.41785 175.71355 521.41785 176.8073L521.41785 181.91667L519.8397 181.91667ZM536.23035 178.91667L537.871 179.1198Q537.48035 180.54167 536.4335 181.33855Q535.3866 182.13542 533.7616 182.13542Q531.7147 182.13542 530.5116 180.8698Q529.3085 179.60417 529.3085 177.32292Q529.3085 174.97917 530.5116 173.6823Q531.73035 172.3698 533.66785 172.3698Q535.54285 172.3698 536.73035 173.65105Q537.91785 174.91667 537.91785 177.22917Q537.91785 177.3698 537.9022 177.65105L530.9491 177.65105Q531.0272 179.19792 531.8085 180.01042Q532.60535 180.82292 533.7616 180.82292Q534.6366 180.82292 535.246 180.3698Q535.871 179.91667 536.23035 178.91667ZM531.0272 176.35417L536.246 176.35417Q536.1366 175.1823 535.6522 174.58855Q534.8866 173.66667 533.6835 173.66667Q532.60535 173.66667 531.85535 174.40105Q531.121 175.13542 531.0272 176.35417ZM546.5585 181.91667L543.6991 172.58855L545.3397 172.58855L546.8241 177.96355L547.3866 179.97917Q547.41785 179.82292 547.85535 178.04167L549.35535 172.58855L550.98035 172.58855L552.371 177.9948L552.8397 179.77605L553.371 177.97917L554.98035 172.58855L556.5116 172.58855L553.5897 181.91667L551.9491 181.91667L550.4647 176.32292L550.10535 174.72917L548.2147 181.91667L546.5585 181.91667ZM557.85535 170.85417L557.85535 169.02605L559.4335 169.02605L559.4335 170.85417L557.85535 170.85417ZM557.85535 181.91667L557.85535 172.58855L559.4335 172.58855L559.4335 181.91667L557.85535 181.91667ZM561.8397 181.91667L561.8397 172.58855L563.2616 172.58855L563.2616 173.91667Q564.29285 172.3698 566.23035 172.3698Q567.0741 172.3698 567.7772 172.6823Q568.496 172.97917 568.8397 173.47917Q569.1991 173.96355 569.3397 174.63542Q569.41785 175.07292 569.41785 176.1823L569.41785 181.91667L567.8397 181.91667L567.8397 176.2448Q567.8397 175.27605 567.6522 174.79167Q567.48035 174.3073 566.996 174.02605Q566.5272 173.7448 565.9022 173.7448Q564.8866 173.7448 564.1522 174.38542Q563.41785 175.02605 563.41785 176.82292L563.41785 181.91667L561.8397 181.91667Z" fill-rule="nonzero"/><path fill="#757575" d="M23.409374 40.55L18.846874 23.3625L21.175 23.3625L23.784374 34.628124Q24.20625 36.39375 24.51875 38.14375Q25.175 35.39375 25.284374 34.971874L28.565624 23.3625L31.3 23.3625L33.76875 32.065624Q34.690624 35.3 35.096874 38.14375Q35.425 36.51875 35.95625 34.409374L38.64375 23.3625L40.940624 23.3625L36.221874 40.55L34.034374 40.55L30.409374 27.45625Q29.95625 25.815624 29.878124 25.440624Q29.596874 26.628124 29.3625 27.45625L25.721874 40.55L23.409374 40.55ZM42.346874 34.33125Q42.346874 30.8625 44.26875 29.20625Q45.878124 27.815624 48.190624 27.815624Q50.753124 27.815624 52.378124 29.503124Q54.003124 31.190624 54.003124 34.14375Q54.003124 36.55 53.284374 37.925Q52.565624 39.3 51.190624 40.065624Q49.815624 40.83125 48.190624 40.83125Q45.565624 40.83125 43.95625 39.159374Q42.346874 37.471874 42.346874 34.33125ZM44.51875 34.33125Q44.51875 36.721874 45.55 37.909374Q46.596874 39.096874 48.190624 39.096874Q49.753124 39.096874 50.8 37.909374Q51.846874 36.70625 51.846874 34.253124Q51.846874 31.940624 50.784374 30.753124Q49.7375 29.565624 48.190624 29.565624Q46.596874 29.565624 45.55 30.753124Q44.51875 31.940624 44.51875 34.33125ZM64.28438 40.55L64.28438 38.721874Q62.83125 40.83125 60.346874 40.83125Q59.2375 40.83125 58.284374 40.409374Q57.33125 39.9875 56.8625 39.346874Q56.409374 38.70625 56.221874 37.784374Q56.08125 37.159374 56.08125 35.815624L56.08125 28.096874L58.190624 28.096874L58.190624 35.003124Q58.190624 36.659374 58.33125 37.2375Q58.51875 38.065624 59.159374 38.55Q59.815624 39.01875 60.76875 39.01875Q61.70625 39.01875 62.534374 38.534374Q63.378124 38.034374 63.721874 37.20625Q64.06563 36.3625 64.06563 34.76875L64.06563 28.096874L66.175 28.096874L66.175 40.55L64.28438 40.55ZM70.08125 40.55L70.08125 23.3625L72.19063 23.3625L72.19063 40.55L70.08125 40.55ZM84.20625 40.55L84.20625 38.971874Q83.01875 40.83125 80.72188 40.83125Q79.2375 40.83125 77.9875 40.01875Q76.7375 39.190624 76.05 37.721874Q75.37813 36.253124 75.37813 34.33125Q75.37813 32.471874 75.9875 30.95625Q76.6125 29.440624 77.84688 28.628124Q79.09688 27.815624 80.62813 27.815624Q81.75313 27.815624 82.62813 28.3Q83.51875 28.76875 84.06563 29.534374L84.06563 23.3625L86.15938 23.3625L86.15938 40.55L84.20625 40.55ZM77.53438 34.33125Q77.53438 36.721874 78.53438 37.909374Q79.55 39.096874 80.925 39.096874Q82.31563 39.096874 83.26875 37.971874Q84.2375 36.83125 84.2375 34.51875Q84.2375 31.95625 83.25313 30.76875Q82.26875 29.565624 80.83125 29.565624Q79.425 29.565624 78.47188 30.721874Q77.53438 31.8625 77.53438 34.33125ZM97.03438 45.346874L96.8 43.3625Q97.50313 43.55 98.01875 43.55Q98.72188 43.55 99.14375 43.315624Q99.56563 43.08125 99.83125 42.659374Q100.03438 42.346874 100.47188 41.096874Q100.53438 40.909374 100.65938 40.58125L95.94063 28.096874L98.20625 28.096874L100.8 35.315624Q101.3 36.675 101.70625 38.190624Q102.06563 36.7375 102.56563 35.3625L105.2375 28.096874L107.34688 28.096874L102.6125 40.76875Q101.84688 42.815624 101.425 43.58125Q100.8625 44.628124 100.12813 45.1125Q99.40938 45.596874 98.39375 45.596874Q97.78438 45.596874 97.03438 45.346874ZM108.34688 34.33125Q108.34688 30.8625 110.26875 29.20625Q111.87813 27.815624 114.19063 27.815624Q116.75313 27.815624 118.37813 29.503124Q120.00313 31.190624 120.00313 34.14375Q120.00313 36.55 119.28438 37.925Q118.56563 39.3 117.19063 40.065624Q115.81563 40.83125 114.19063 40.83125Q111.56563 40.83125 109.95625 39.159374Q108.34688 37.471874 108.34688 34.33125ZM110.51875 34.33125Q110.51875 36.721874 111.55 37.909374Q112.59688 39.096874 114.19063 39.096874Q115.75313 39.096874 116.8 37.909374Q117.84688 36.70625 117.84688 34.253124Q117.84688 31.940624 116.78438 30.753124Q115.7375 29.565624 114.19063 29.565624Q112.59688 29.565624 111.55 30.753124Q110.51875 31.940624 110.51875 34.33125ZM130.28438 40.55L130.28438 38.721874Q128.83125 40.83125 126.34688 40.83125Q125.2375 40.83125 124.28438 40.409374Q123.33125 39.9875 122.8625 39.346874Q122.40938 38.70625 122.22188 37.784374Q122.08125 37.159374 122.08125 35.815624L122.08125 28.096874L124.19063 28.096874L124.19063 35.003124Q124.19063 36.659374 124.33125 37.2375Q124.51875 38.065624 125.15938 38.55Q125.81563 39.01875 126.76875 39.01875Q127.70625 39.01875 128.53438 38.534374Q129.37813 38.034374 129.72188 37.20625Q130.06563 36.3625 130.06563 34.76875L130.06563 28.096874L132.175 28.096874L132.175 40.55L130.28438 40.55ZM143.1125 40.55L143.1125 28.096874L145.00313 28.096874L145.00313 29.9875Q145.7375 28.659374 146.34688 28.2375Q146.97188 27.815624 147.70625 27.815624Q148.76875 27.815624 149.87813 28.503124L149.14375 30.45625Q148.37813 30.003124 147.59688 30.003124Q146.90938 30.003124 146.34688 30.425Q145.8 30.83125 145.56563 31.565624Q145.22188 32.690624 145.22188 34.034374L145.22188 40.55L143.1125 40.55ZM159.25313 39.01875Q158.08125 40.003124 156.9875 40.425Q155.90938 40.83125 154.675 40.83125Q152.62813 40.83125 151.51875 39.83125Q150.425 38.83125 150.425 37.26875Q150.425 36.346874 150.83125 35.596874Q151.25313 34.846874 151.925 34.39375Q152.59688 33.925 153.44063 33.690624Q154.06563 33.534374 155.31563 33.378124Q157.87813 33.065624 159.08125 32.64375Q159.09688 32.221874 159.09688 32.096874Q159.09688 30.815624 158.4875 30.284374Q157.69063 29.565624 156.09688 29.565624Q154.59688 29.565624 153.89375 30.096874Q153.19063 30.6125 152.84688 31.940624L150.78438 31.659374Q151.06563 30.33125 151.70625 29.51875Q152.34688 28.70625 153.56563 28.26875Q154.78438 27.815624 156.39375 27.815624Q157.9875 27.815624 158.9875 28.190624Q159.9875 28.565624 160.45625 29.14375Q160.925 29.70625 161.1125 30.58125Q161.20625 31.1125 161.20625 32.51875L161.20625 35.33125Q161.20625 38.26875 161.34688 39.05Q161.4875 39.83125 161.87813 40.55L159.675 40.55Q159.34688 39.89375 159.25313 39.01875ZM159.08125 34.3Q157.925 34.76875 155.62813 35.096874Q154.33125 35.284374 153.78438 35.51875Q153.25313 35.753124 152.95625 36.20625Q152.675 36.659374 152.675 37.20625Q152.675 38.05 153.3 38.6125Q153.94063 39.175 155.175 39.175Q156.39375 39.175 157.34688 38.64375Q158.3 38.1125 158.7375 37.190624Q159.08125 36.471874 159.08125 35.08125L159.08125 34.3ZM168.7375 38.659374L169.05 40.51875Q168.15938 40.721874 167.45625 40.721874Q166.3 40.721874 165.65938 40.3625Q165.03438 39.9875 164.76875 39.39375Q164.51875 38.8 164.51875 36.909374L164.51875 29.7375L162.97188 29.7375L162.97188 28.096874L164.51875 28.096874L164.51875 25.01875L166.6125 23.753124L166.6125 28.096874L168.7375 28.096874L168.7375 29.7375L166.6125 29.7375L166.6125 37.01875Q166.6125 37.925 166.72188 38.190624Q166.84688 38.440624 167.09688 38.596874Q167.34688 38.7375 167.81563 38.7375Q168.15938 38.7375 168.7375 38.659374ZM171.12813 40.55L171.12813 23.3625L173.2375 23.3625L173.2375 29.534374Q174.72188 27.815624 176.97188 27.815624Q178.34688 27.815624 179.3625 28.3625Q180.39375 28.909374 180.83125 29.878124Q181.26875 30.83125 181.26875 32.659374L181.26875 40.55L179.15938 40.55L179.15938 32.659374Q179.15938 31.08125 178.47188 30.3625Q177.78438 29.64375 176.53438 29.64375Q175.59688 29.64375 174.76875 30.128124Q173.94063 30.6125 173.58125 31.440624Q173.2375 32.26875 173.2375 33.7375L173.2375 40.55L171.12813 40.55ZM193.65938 36.534374L195.83125 36.815624Q195.31563 38.721874 193.925 39.784374Q192.53438 40.83125 190.3625 40.83125Q187.62813 40.83125 186.01875 39.159374Q184.425 37.471874 184.425 34.425Q184.425 31.284374 186.03438 29.55Q187.65938 27.815624 190.2375 27.815624Q192.7375 27.815624 194.31563 29.51875Q195.90938 31.221874 195.90938 34.3Q195.90938 34.4875 195.89375 34.8625L186.6125 34.8625Q186.72188 36.909374 187.76875 38.003124Q188.81563 39.096874 190.37813 39.096874Q191.53438 39.096874 192.34688 38.4875Q193.175 37.878124 193.65938 36.534374ZM186.72188 33.128124L193.675 33.128124Q193.53438 31.565624 192.87813 30.76875Q191.87813 29.55 190.26875 29.55Q188.81563 29.55 187.81563 30.534374Q186.83125 31.503124 186.72188 33.128124ZM198.1125 40.55L198.1125 28.096874L200.00313 28.096874L200.00313 29.9875Q200.7375 28.659374 201.34688 28.2375Q201.97188 27.815624 202.70625 27.815624Q203.76875 27.815624 204.87813 28.503124L204.14375 30.45625Q203.37813 30.003124 202.59688 30.003124Q201.90938 30.003124 201.34688 30.425Q200.8 30.83125 200.56563 31.565624Q200.22188 32.690624 200.22188 34.034374L200.22188 40.55L198.1125 40.55ZM213.12813 40.55L213.12813 23.3625L215.2375 23.3625L215.2375 29.534374Q216.72188 27.815624 218.97188 27.815624Q220.34688 27.815624 221.3625 28.3625Q222.39375 28.909374 222.83125 29.878124Q223.26875 30.83125 223.26875 32.659374L223.26875 40.55L221.15938 40.55L221.15938 32.659374Q221.15938 31.08125 220.47188 30.3625Q219.78438 29.64375 218.53438 29.64375Q217.59688 29.64375 216.76875 30.128124Q215.94063 30.6125 215.58125 31.440624Q215.2375 32.26875 215.2375 33.7375L215.2375 40.55L213.12813 40.55ZM235.25313 39.01875Q234.08125 40.003124 232.9875 40.425Q231.90938 40.83125 230.675 40.83125Q228.62813 40.83125 227.51875 39.83125Q226.425 38.83125 226.425 37.26875Q226.425 36.346874 226.83125 35.596874Q227.25313 34.846874 227.925 34.39375Q228.59688 33.925 229.44063 33.690624Q230.06563 33.534374 231.31563 33.378124Q233.87813 33.065624 235.08125 32.64375Q235.09688 32.221874 235.09688 32.096874Q235.09688 30.815624 234.4875 30.284374Q233.69063 29.565624 232.09688 29.565624Q230.59688 29.565624 229.89375 30.096874Q229.19063 30.6125 228.84688 31.940624L226.78438 31.659374Q227.06563 30.33125 227.70625 29.51875Q228.34688 28.70625 229.56563 28.26875Q230.78438 27.815624 232.39375 27.815624Q233.9875 27.815624 234.9875 28.190624Q235.9875 28.565624 236.45625 29.14375Q236.925 29.70625 237.1125 30.58125Q237.20625 31.1125 237.20625 32.51875L237.20625 35.33125Q237.20625 38.26875 237.34688 39.05Q237.4875 39.83125 237.87813 40.55L235.675 40.55Q235.34688 39.89375 235.25313 39.01875ZM235.08125 34.3Q233.925 34.76875 231.62813 35.096874Q230.33125 35.284374 229.78438 35.51875Q229.25313 35.753124 228.95625 36.20625Q228.675 36.659374 228.675 37.20625Q228.675 38.05 229.3 38.6125Q229.94063 39.175 231.175 39.175Q232.39375 39.175 233.34688 38.64375Q234.3 38.1125 234.7375 37.190624Q235.08125 36.471874 235.08125 35.08125L235.08125 34.3ZM243.59688 40.55L238.8625 28.096874L241.08125 28.096874L243.75313 35.55Q244.19063 36.76875 244.55 38.065624Q244.83125 37.08125 245.33125 35.690624L248.09688 28.096874L250.26875 28.096874L245.56563 40.55L243.59688 40.55ZM259.65936 36.534374L261.83124 36.815624Q261.3156 38.721874 259.925 39.784374Q258.53436 40.83125 256.3625 40.83125Q253.62813 40.83125 252.01875 39.159374Q250.425 37.471874 250.425 34.425Q250.425 31.284374 252.03438 29.55Q253.65938 27.815624 256.2375 27.815624Q258.7375 27.815624 260.3156 29.51875Q261.90936 31.221874 261.90936 34.3Q261.90936 34.4875 261.89374 34.8625L252.6125 34.8625Q252.72188 36.909374 253.76875 38.003124Q254.81563 39.096874 256.3781 39.096874Q257.53436 39.096874 258.34686 38.4875Q259.175 37.878124 259.65936 36.534374ZM252.72188 33.128124L259.675 33.128124Q259.53436 31.565624 258.8781 30.76875Q257.8781 29.55 256.26874 29.55Q254.81563 29.55 253.81563 30.534374Q252.83125 31.503124 252.72188 33.128124ZM271.14374 25.8L271.14374 23.3625L273.2531 23.3625L273.2531 25.8L271.14374 25.8ZM271.14374 40.55L271.14374 28.096874L273.2531 28.096874L273.2531 40.55L271.14374 40.55ZM276.1281 40.55L276.1281 28.096874L278.03436 28.096874L278.03436 29.878124Q279.40936 27.815624 281.9875 27.815624Q283.1125 27.815624 284.05 28.221874Q285.0031 28.628124 285.47186 29.284374Q285.9406 29.940624 286.1281 30.846874Q286.2531 31.425 286.2531 32.89375L286.2531 40.55L284.14374 40.55L284.14374 32.971874Q284.14374 31.690624 283.89374 31.05Q283.64374 30.409374 283.01874 30.034374Q282.39374 29.64375 281.55 29.64375Q280.20624 29.64375 279.22186 30.503124Q278.2375 31.3625 278.2375 33.753124L278.2375 40.55L276.1281 40.55ZM293.59686 40.55L288.8625 28.096874L291.08124 28.096874L293.7531 35.55Q294.1906 36.76875 294.55 38.065624Q294.83124 37.08125 295.33124 35.690624L298.09686 28.096874L300.26874 28.096874L295.5656 40.55L293.59686 40.55ZM301.14374 25.8L301.14374 23.3625L303.2531 23.3625L303.2531 25.8L301.14374 25.8ZM301.14374 40.55L301.14374 28.096874L303.2531 28.096874L303.2531 40.55L301.14374 40.55ZM305.28436 36.83125L307.3781 36.503124Q307.55 37.753124 308.34686 38.425Q309.15936 39.096874 310.59686 39.096874Q312.05 39.096874 312.7531 38.503124Q313.45624 37.909374 313.45624 37.1125Q313.45624 36.39375 312.83124 35.9875Q312.40936 35.70625 310.675 35.26875Q308.3625 34.690624 307.45624 34.26875Q306.5656 33.83125 306.09686 33.08125Q305.64374 32.315624 305.64374 31.409374Q305.64374 30.58125 306.01874 29.878124Q306.40936 29.159374 307.0656 28.690624Q307.55 28.33125 308.39374 28.08125Q309.2531 27.815624 310.22186 27.815624Q311.6906 27.815624 312.8 28.2375Q313.90936 28.659374 314.425 29.39375Q314.95624 30.1125 315.15936 31.315624L313.09686 31.596874Q312.95624 30.628124 312.28436 30.096874Q311.6125 29.55 310.3781 29.55Q308.925 29.55 308.3 30.034374Q307.675 30.51875 307.675 31.159374Q307.675 31.565624 307.9406 31.89375Q308.1906 32.2375 308.7531 32.45625Q309.0656 32.58125 310.6125 33.003124Q312.84686 33.596874 313.72186 33.9875Q314.6125 34.3625 315.1125 35.096874Q315.6281 35.815624 315.6281 36.89375Q315.6281 37.940624 315.0031 38.878124Q314.39374 39.815624 313.2375 40.33125Q312.08124 40.83125 310.6125 40.83125Q308.1906 40.83125 306.90936 39.83125Q305.64374 38.815624 305.28436 36.83125ZM318.14374 25.8L318.14374 23.3625L320.2531 23.3625L320.2531 25.8L318.14374 25.8ZM318.14374 40.55L318.14374 28.096874L320.2531 28.096874L320.2531 40.55L318.14374 40.55ZM325.08124 40.55L323.1281 40.55L323.1281 23.3625L325.2375 23.3625L325.2375 29.503124Q326.5656 27.815624 328.64374 27.815624Q329.78436 27.815624 330.8156 28.284374Q331.84686 28.753124 332.5031 29.596874Q333.15936 30.425 333.53436 31.6125Q333.90936 32.784374 333.90936 34.14375Q333.90936 37.33125 332.33124 39.08125Q330.7531 40.83125 328.53436 40.83125Q326.33124 40.83125 325.08124 38.9875L325.08124 40.55ZM325.05 34.2375Q325.05 36.471874 325.65936 37.471874Q326.65936 39.096874 328.3625 39.096874Q329.7375 39.096874 330.7375 37.89375Q331.7531 36.690624 331.7531 34.315624Q331.7531 31.878124 330.78436 30.721874Q329.83124 29.55 328.45624 29.55Q327.0656 29.55 326.05 30.753124Q325.05 31.95625 325.05 34.2375ZM337.14374 25.8L337.14374 23.3625L339.2531 23.3625L339.2531 25.8L337.14374 25.8ZM337.14374 40.55L337.14374 28.096874L339.2531 28.096874L339.2531 40.55L337.14374 40.55ZM342.08124 40.55L342.08124 23.3625L344.1906 23.3625L344.1906 40.55L342.08124 40.55ZM348.14374 25.8L348.14374 23.3625L350.2531 23.3625L350.2531 25.8L348.14374 25.8ZM348.14374 40.55L348.14374 28.096874L350.2531 28.096874L350.2531 40.55L348.14374 40.55ZM357.7375 38.659374L358.05 40.51875Q357.15936 40.721874 356.45624 40.721874Q355.3 40.721874 354.65936 40.3625Q354.03436 39.9875 353.76874 39.39375Q353.51874 38.8 353.51874 36.909374L353.51874 29.7375L351.97186 29.7375L351.97186 28.096874L353.51874 28.096874L353.51874 25.01875L355.6125 23.753124L355.6125 28.096874L357.7375 28.096874L357.7375 29.7375L355.6125 29.7375L355.6125 37.01875Q355.6125 37.925 355.72186 38.190624Q355.84686 38.440624 356.09686 38.596874Q356.34686 38.7375 356.8156 38.7375Q357.15936 38.7375 357.7375 38.659374ZM360.03436 45.346874L359.8 43.3625Q360.5031 43.55 361.01874 43.55Q361.72186 43.55 362.14374 43.315624Q362.5656 43.08125 362.83124 42.659374Q363.03436 42.346874 363.47186 41.096874Q363.53436 40.909374 363.65936 40.58125L358.9406 28.096874L361.20624 28.096874L363.8 35.315624Q364.3 36.675 364.70624 38.190624Q365.0656 36.7375 365.5656 35.3625L368.2375 28.096874L370.34686 28.096874L365.6125 40.76875Q364.84686 42.815624 364.425 43.58125Q363.8625 44.628124 363.1281 45.1125Q362.40936 45.596874 361.39374 45.596874Q360.78436 45.596874 360.03436 45.346874ZM378.34686 34.33125Q378.34686 30.8625 380.26874 29.20625Q381.8781 27.815624 384.1906 27.815624Q386.7531 27.815624 388.3781 29.503124Q390.0031 31.190624 390.0031 34.14375Q390.0031 36.55 389.28436 37.925Q388.5656 39.3 387.1906 40.065624Q385.8156 40.83125 384.1906 40.83125Q381.5656 40.83125 379.95624 39.159374Q378.34686 37.471874 378.34686 34.33125ZM380.51874 34.33125Q380.51874 36.721874 381.55 37.909374Q382.59686 39.096874 384.1906 39.096874Q385.7531 39.096874 386.8 37.909374Q387.84686 36.70625 387.84686 34.253124Q387.84686 31.940624 386.78436 30.753124Q385.7375 29.565624 384.1906 29.565624Q382.59686 29.565624 381.55 30.753124Q380.51874 31.940624 380.51874 34.33125ZM392.1125 40.55L392.1125 28.096874L394.0031 28.096874L394.0031 29.9875Q394.7375 28.659374 395.34686 28.2375Q395.97186 27.815624 396.70624 27.815624Q397.76874 27.815624 398.8781 28.503124L398.14374 30.45625Q397.3781 30.003124 396.59686 30.003124Q395.90936 30.003124 395.34686 30.425Q394.8 30.83125 394.5656 31.565624Q394.22186 32.690624 394.22186 34.034374L394.22186 40.55L392.1125 40.55ZM407.64374 40.55L407.64374 29.7375L405.76874 29.7375L405.76874 28.096874L407.64374 28.096874L407.64374 26.784374Q407.64374 25.51875 407.8625 24.909374Q408.15936 24.096874 408.925 23.596874Q409.70624 23.08125 411.08124 23.08125Q411.97186 23.08125 413.05 23.284374L412.7375 25.128124Q412.08124 25.003124 411.4875 25.003124Q410.53436 25.003124 410.1281 25.425Q409.7375 25.83125 409.7375 26.95625L409.7375 28.096874L412.15936 28.096874L412.15936 29.7375L409.7375 29.7375L409.7375 40.55L407.64374 40.55ZM414.08124 40.55L414.08124 23.3625L416.1906 23.3625L416.1906 40.55L414.08124 40.55ZM420.14374 25.8L420.14374 23.3625L422.2531 23.3625L422.2531 25.8L420.14374 25.8ZM420.14374 40.55L420.14374 28.096874L422.2531 28.096874L422.2531 40.55L420.14374 40.55ZM424.7531 41.58125L426.8 41.89375Q426.925 42.83125 427.51874 43.26875Q428.3 43.8625 429.65936 43.8625Q431.1281 43.8625 431.925 43.26875Q432.72186 42.690624 433.0031 41.628124Q433.15936 40.9875 433.14374 38.925Q431.76874 40.55 429.70624 40.55Q427.14374 40.55 425.7375 38.70625Q424.33124 36.846874 424.33124 34.253124Q424.33124 32.471874 424.97186 30.971874Q425.6125 29.45625 426.83124 28.64375Q428.0656 27.815624 429.72186 27.815624Q431.925 27.815624 433.34686 29.596874L433.34686 28.096874L435.3 28.096874L435.3 38.8625Q435.3 41.76875 434.70624 42.971874Q434.1125 44.190624 432.83124 44.89375Q431.55 45.596874 429.675 45.596874Q427.4406 45.596874 426.0656 44.596874Q424.70624 43.596874 424.7531 41.58125ZM426.4875 34.096874Q426.4875 36.55 427.45624 37.675Q428.4406 38.8 429.90936 38.8Q431.3625 38.8 432.34686 37.690624Q433.33124 36.565624 433.33124 34.175Q433.33124 31.89375 432.3156 30.7375Q431.3 29.565624 429.8625 29.565624Q428.45624 29.565624 427.47186 30.70625Q426.4875 31.846874 426.4875 34.096874ZM439.1281 40.55L439.1281 23.3625L441.2375 23.3625L441.2375 29.534374Q442.72186 27.815624 444.97186 27.815624Q446.34686 27.815624 447.3625 28.3625Q448.39374 28.909374 448.83124 29.878124Q449.26874 30.83125 449.26874 32.659374L449.26874 40.55L447.15936 40.55L447.15936 32.659374Q447.15936 31.08125 446.47186 30.3625Q445.78436 29.64375 444.53436 29.64375Q443.59686 29.64375 442.76874 30.128124Q441.9406 30.6125 441.58124 31.440624Q441.2375 32.26875 441.2375 33.7375L441.2375 40.55L439.1281 40.55ZM457.7375 38.659374L458.05 40.51875Q457.15936 40.721874 456.45624 40.721874Q455.3 40.721874 454.65936 40.3625Q454.03436 39.9875 453.76874 39.39375Q453.51874 38.8 453.51874 36.909374L453.51874 29.7375L451.97186 29.7375L451.97186 28.096874L453.51874 28.096874L453.51874 25.01875L455.6125 23.753124L455.6125 28.096874L457.7375 28.096874L457.7375 29.7375L455.6125 29.7375L455.6125 37.01875Q455.6125 37.925 455.72186 38.190624Q455.84686 38.440624 456.09686 38.596874Q456.34686 38.7375 456.8156 38.7375Q457.15936 38.7375 457.7375 38.659374ZM464.08124 36.315624Q464.0656 35.89375 464.0656 35.690624Q464.0656 34.440624 464.425 33.534374Q464.675 32.8625 465.2531 32.175Q465.675 31.659374 466.76874 30.70625Q467.8625 29.7375 468.1906 29.159374Q468.51874 28.58125 468.51874 27.909374Q468.51874 26.675 467.55 25.753124Q466.59686 24.815624 465.20624 24.815624Q463.8625 24.815624 462.95624 25.659374Q462.05 26.503124 461.76874 28.284374L459.6125 28.034374Q459.89374 25.628124 461.34686 24.3625Q462.8 23.08125 465.175 23.08125Q467.6906 23.08125 469.1906 24.45625Q470.6906 25.815624 470.6906 27.76875Q470.6906 28.89375 470.15936 29.846874Q469.64374 30.784374 468.09686 32.14375Q467.0656 33.065624 466.7531 33.503124Q466.4406 33.925 466.28436 34.4875Q466.1281 35.05 466.1125 36.315624L464.08124 36.315624ZM463.95624 40.55L463.95624 38.14375L466.3625 38.14375L466.3625 40.55L463.95624 40.55Z" fill-rule="nonzero"/></svg>