<svg version="1.1" viewBox="0.0 0.0 538.0 371.0" fill="none" stroke="none" stroke-linecap="square" stroke-miterlimit="10" width="538" height="371" xmlns:xlink="http://www.w3.org/1999/xlink" xmlns="http://www.w3.org/2000/svg"><path fill="#ffffff" d="M0 0L538.0 0L538.0 371.0L0 371.0L0 0Z" fill-rule="nonzero"/><path fill="#ea4335" d="M124.98239 240.97208C113.44503 196.41216 123.18411 149.02122 151.35893 112.62237C179.53374 76.22351 222.97069 54.916668 269.0 54.916668L269.0 203.68333Z" fill-rule="nonzero"/><path fill="#4285f4" d="M269.0 54.916668C346.297 54.916668 410.7164 114.11318 417.23648 191.1347C423.75656 268.15622 370.20486 337.33932 294.0078 350.333C217.81076 363.32672 144.35709 315.80154 124.98239 240.97208L269.0 203.68333Z" fill-rule="nonzero"/><path fill="#1a1a1a" d="M25.6125 109.65979L26.7375 109.956665Q26.378124 111.34729 25.45625 112.081665Q24.534374 112.81604 23.190624 112.81604Q21.8 112.81604 20.925 112.25354Q20.05 111.69104 19.596874 110.62854Q19.14375 109.550415 19.14375 108.31604Q19.14375 106.97229 19.659374 105.97229Q20.175 104.97229 21.1125 104.456665Q22.065624 103.94104 23.20625 103.94104Q24.4875 103.94104 25.3625 104.59729Q26.253124 105.25354 26.596874 106.44104L25.471874 106.706665Q25.175 105.769165 24.596874 105.34729Q24.034374 104.90979 23.175 104.90979Q22.190624 104.90979 21.51875 105.394165Q20.8625 105.862915 20.58125 106.65979Q20.315624 107.456665 20.315624 108.31604Q20.315624 109.40979 20.628124 110.22229Q20.95625 111.03479 21.628124 111.44104Q22.3 111.84729 23.096874 111.84729Q24.05 111.84729 24.70625 111.300415Q25.378124 110.75354 25.6125 109.65979ZM32.409374 111.90979Q31.815624 112.40979 31.26875 112.612915Q30.7375 112.81604 30.1125 112.81604Q29.08125 112.81604 28.534374 112.31604Q27.9875 111.81604 27.9875 111.03479Q27.9875 110.581665 28.190624 110.206665Q28.39375 109.81604 28.7375 109.59729Q29.08125 109.362915 29.503124 109.25354Q29.8 109.15979 30.440624 109.081665Q31.70625 108.94104 32.315624 108.72229Q32.315624 108.50354 32.315624 108.456665Q32.315624 107.800415 32.01875 107.53479Q31.6125 107.19104 30.815624 107.19104Q30.08125 107.19104 29.721874 107.456665Q29.3625 107.706665 29.190624 108.362915L28.159374 108.22229Q28.3 107.56604 28.628124 107.15979Q28.95625 106.75354 29.565624 106.53479Q30.175 106.31604 30.971874 106.31604Q31.76875 106.31604 32.26875 106.50354Q32.76875 106.69104 33.003124 106.97229Q33.2375 107.25354 33.33125 107.69104Q33.378124 107.956665 33.378124 108.65979L33.378124 110.06604Q33.378124 111.53479 33.440624 111.925415Q33.51875 112.31604 33.721874 112.675415L32.6125 112.675415Q32.45625 112.34729 32.409374 111.90979ZM32.315624 109.550415Q31.7375 109.78479 30.596874 109.956665Q29.940624 110.050415 29.675 110.175415Q29.409374 110.28479 29.253124 110.50354Q29.1125 110.72229 29.1125 111.00354Q29.1125 111.425415 29.425 111.706665Q29.753124 111.987915 30.3625 111.987915Q30.971874 111.987915 31.440624 111.72229Q31.925 111.456665 32.14375 110.987915Q32.315624 110.62854 32.315624 109.94104L32.315624 109.550415ZM37.64375 111.737915L37.8 112.65979Q37.346874 112.75354 37.003124 112.75354Q36.425 112.75354 36.1125 112.581665Q35.8 112.394165 35.659374 112.09729Q35.534374 111.800415 35.534374 110.84729L35.534374 107.269165L34.76875 107.269165L34.76875 106.456665L35.534374 106.456665L35.534374 104.90979L36.58125 104.28479L36.58125 106.456665L37.64375 106.456665L37.64375 107.269165L36.58125 107.269165L36.58125 110.90979Q36.58125 111.362915 36.628124 111.487915Q36.690624 111.612915 36.815624 111.69104Q36.940624 111.769165 37.175 111.769165Q37.3625 111.769165 37.64375 111.737915ZM37.925 110.81604L38.95625 110.65979Q39.05 111.28479 39.440624 111.612915Q39.846874 111.94104 40.58125 111.94104Q41.3 111.94104 41.64375 111.65979Q42.003124 111.362915 42.003124 110.956665Q42.003124 110.59729 41.690624 110.394165Q41.471874 110.25354 40.6125 110.03479Q39.45625 109.737915 39.003124 109.53479Q38.565624 109.31604 38.33125 108.94104Q38.096874 108.56604 38.096874 108.09729Q38.096874 107.69104 38.284374 107.331665Q38.471874 106.97229 38.8 106.737915Q39.05 106.56604 39.471874 106.44104Q39.89375 106.31604 40.39375 106.31604Q41.1125 106.31604 41.659374 106.53479Q42.221874 106.737915 42.4875 107.09729Q42.753124 107.456665 42.846874 108.050415L41.815624 108.19104Q41.753124 107.72229 41.409374 107.456665Q41.08125 107.175415 40.45625 107.175415Q39.7375 107.175415 39.425 107.425415Q39.1125 107.65979 39.1125 107.987915Q39.1125 108.19104 39.2375 108.34729Q39.378124 108.519165 39.64375 108.62854Q39.8 108.69104 40.58125 108.894165Q41.70625 109.206665 42.14375 109.394165Q42.58125 109.581665 42.83125 109.94104Q43.08125 110.300415 43.08125 110.84729Q43.08125 111.37854 42.76875 111.84729Q42.471874 112.300415 41.89375 112.56604Q41.315624 112.81604 40.58125 112.81604Q39.3625 112.81604 38.721874 112.31604Q38.096874 111.800415 37.925 110.81604Z" fill-rule="nonzero"/><path fill="#9e9e9e" d="M24.596874 128.65979L24.596874 129.67542L18.909374 129.67542Q18.909374 129.30042 19.034374 128.94104Q19.253124 128.36292 19.721874 127.800415Q20.20625 127.237915 21.1125 126.50354Q22.51875 125.34729 23.003124 124.675415Q23.503124 124.00354 23.503124 123.40979Q23.503124 122.78479 23.05 122.362915Q22.596874 121.925415 21.878124 121.925415Q21.1125 121.925415 20.659374 122.37854Q20.20625 122.831665 20.190624 123.644165L19.1125 123.53479Q19.221874 122.31604 19.940624 121.69104Q20.675 121.050415 21.909374 121.050415Q23.14375 121.050415 23.8625 121.737915Q24.58125 122.425415 24.58125 123.44104Q24.58125 123.956665 24.3625 124.456665Q24.159374 124.94104 23.659374 125.50354Q23.175 126.050415 22.05 127.00354Q21.096874 127.800415 20.815624 128.09729Q20.55 128.37854 20.378124 128.65979L24.596874 128.65979ZM26.20625 127.69104L27.221874 127.59729Q27.346874 128.31604 27.70625 128.64417Q28.08125 128.95667 28.64375 128.95667Q29.128124 128.95667 29.4875 128.73792Q29.8625 128.50354 30.096874 128.14417Q30.33125 127.769165 30.4875 127.144165Q30.64375 126.50354 30.64375 125.84729Q30.64375 125.769165 30.64375 125.62854Q30.33125 126.12854 29.784374 126.456665Q29.2375 126.769165 28.596874 126.769165Q27.51875 126.769165 26.784374 126.00354Q26.05 125.22229 26.05 123.956665Q26.05 122.644165 26.815624 121.84729Q27.596874 121.050415 28.753124 121.050415Q29.58125 121.050415 30.26875 121.50354Q30.971874 121.956665 31.33125 122.800415Q31.690624 123.62854 31.690624 125.206665Q31.690624 126.84729 31.33125 127.831665Q30.9875 128.80042 30.26875 129.31604Q29.565624 129.81604 28.628124 129.81604Q27.6125 129.81604 26.971874 129.26917Q26.33125 128.70667 26.20625 127.69104ZM30.51875 123.894165Q30.51875 122.987915 30.034374 122.456665Q29.565624 121.925415 28.878124 121.925415Q28.175 121.925415 27.64375 122.50354Q27.128124 123.06604 27.128124 123.987915Q27.128124 124.800415 27.628124 125.31604Q28.128124 125.831665 28.846874 125.831665Q29.58125 125.831665 30.05 125.31604Q30.51875 124.800415 30.51875 123.894165ZM33.64375 129.67542L33.64375 128.47229L34.846874 128.47229L34.846874 129.67542L33.64375 129.67542ZM36.05 125.44104Q36.05 123.90979 36.3625 122.987915Q36.675 122.050415 37.284374 121.550415Q37.909374 121.050415 38.846874 121.050415Q39.534374 121.050415 40.05 121.331665Q40.58125 121.612915 40.925 122.144165Q41.26875 122.65979 41.45625 123.40979Q41.64375 124.15979 41.64375 125.44104Q41.64375 126.956665 41.33125 127.87854Q41.034374 128.80042 40.409374 129.31604Q39.8 129.81604 38.846874 129.81604Q37.6125 129.81604 36.89375 128.92542Q36.05 127.862915 36.05 125.44104ZM37.128124 125.44104Q37.128124 127.550415 37.628124 128.25354Q38.128124 128.95667 38.846874 128.95667Q39.58125 128.95667 40.065624 128.25354Q40.565624 127.550415 40.565624 125.44104Q40.565624 123.31604 40.065624 122.62854Q39.58125 121.925415 38.83125 121.925415Q38.1125 121.925415 37.675 122.53479Q37.128124 123.31604 37.128124 125.44104ZM43.253124 123.144165Q43.253124 122.22229 43.70625 121.581665Q44.175 120.94104 45.05 120.94104Q45.8625 120.94104 46.39375 121.519165Q46.925 122.09729 46.925 123.206665Q46.925 124.300415 46.378124 124.894165Q45.846874 125.47229 45.065624 125.47229Q44.284374 125.47229 43.76875 124.894165Q43.253124 124.31604 43.253124 123.144165ZM45.08125 121.65979Q44.690624 121.65979 44.425 122.00354Q44.175 122.34729 44.175 123.25354Q44.175 124.081665 44.425 124.425415Q44.690624 124.75354 45.08125 124.75354Q45.4875 124.75354 45.7375 124.40979Q46.003124 124.06604 46.003124 123.175415Q46.003124 122.331665 45.7375 122.00354Q45.471874 121.65979 45.08125 121.65979ZM45.08125 129.98792L49.784374 120.94104L50.64375 120.94104L45.95625 129.98792L45.08125 129.98792ZM48.8 127.65979Q48.8 126.737915 49.253124 126.09729Q49.721874 125.456665 50.6125 125.456665Q51.425 125.456665 51.95625 126.03479Q52.4875 126.59729 52.4875 127.72229Q52.4875 128.81604 51.940624 129.40979Q51.409374 129.98792 50.6125 129.98792Q49.846874 129.98792 49.315624 129.40979Q48.8 128.83167 48.8 127.65979ZM50.64375 126.175415Q50.2375 126.175415 49.971874 126.519165Q49.721874 126.862915 49.721874 127.769165Q49.721874 128.58167 49.9875 128.92542Q50.253124 129.26917 50.64375 129.26917Q51.034374 129.26917 51.3 128.92542Q51.565624 128.58167 51.565624 127.675415Q51.565624 126.84729 51.3 126.519165Q51.034374 126.175415 50.64375 126.175415Z" fill-rule="nonzero"/><path stroke="#757575" stroke-width="1.0" stroke-linecap="butt" d="M18.55 117.175415L114.23333 117.175415L157.24098 117.175415" fill-rule="nonzero"/><path fill="#9e9e9e" d="M159.24098 117.175415C159.24098 116.07085 158.34555 115.175415 157.24098 115.175415C156.13641 115.175415 155.24098 116.07085 155.24098 117.175415C155.24098 118.27998 156.13641 119.175415 157.24098 119.175415C158.34555 119.175415 159.24098 118.27998 159.24098 117.175415" fill-rule="nonzero"/><path fill="#1a1a1a" d="M479.41876 285.69125L479.41876 277.0975L480.54376 277.0975L480.54376 280.62875L485.0125 280.62875L485.0125 277.0975L486.15314 277.0975L486.15314 285.69125L485.0125 285.69125L485.0125 281.64438L480.54376 281.64438L480.54376 285.69125L479.41876 285.69125ZM487.85626 282.58188Q487.85626 280.8475 488.8094 280.01938Q489.60626 279.33188 490.7625 279.33188Q492.04376 279.33188 492.85626 280.17563Q493.6844 281.00375 493.6844 282.48813Q493.6844 283.69125 493.325 284.37875Q492.96564 285.06625 492.2625 285.45688Q491.575 285.83188 490.7625 285.83188Q489.46564 285.83188 488.65314 285.00375Q487.85626 284.16 487.85626 282.58188ZM488.9344 282.58188Q488.9344 283.76938 489.45 284.36313Q489.98126 284.95688 490.7625 284.95688Q491.5594 284.95688 492.075 284.36313Q492.59064 283.76938 492.59064 282.55063Q492.59064 281.39438 492.0594 280.80063Q491.54376 280.20688 490.7625 280.20688Q489.98126 280.20688 489.45 280.80063Q488.9344 281.37875 488.9344 282.58188ZM495.04376 286.20688L496.075 286.36313Q496.1375 286.83188 496.4344 287.05063Q496.825 287.3475 497.4969 287.3475Q498.23126 287.3475 498.6219 287.05063Q499.02814 286.75375 499.16876 286.23813Q499.2625 285.91 499.2469 284.87875Q498.5594 285.69125 497.52814 285.69125Q496.2469 285.69125 495.54376 284.76938Q494.84064 283.83188 494.84064 282.55063Q494.84064 281.66 495.15314 280.91Q495.48126 280.14438 496.09064 279.73813Q496.7 279.33188 497.52814 279.33188Q498.6375 279.33188 499.35626 280.2225L499.35626 279.4725L500.325 279.4725L500.325 284.8475Q500.325 286.30063 500.02814 286.91Q499.73126 287.51938 499.09064 287.86313Q498.45 288.2225 497.5125 288.2225Q496.40314 288.2225 495.71564 287.7225Q495.02814 287.2225 495.04376 286.20688ZM495.91876 282.4725Q495.91876 283.69125 496.40314 284.25375Q496.8875 284.81625 497.6219 284.81625Q498.35626 284.81625 498.84064 284.25375Q499.34064 283.69125 499.34064 282.50375Q499.34064 281.36313 498.825 280.785Q498.325 280.20688 497.60626 280.20688Q496.90314 280.20688 496.40314 280.785Q495.91876 281.3475 495.91876 282.4725Z" fill-rule="nonzero"/><path fill="#9e9e9e" d="M485.0125 295.2225L485.0125 294.20688L490.575 294.20688L490.575 295.035Q489.7625 295.91 488.95 297.36313Q488.15314 298.80063 487.71564 300.33188Q487.3875 301.41 487.3094 302.69125L486.21564 302.69125Q486.23126 301.67563 486.60626 300.23813Q486.9969 298.80063 487.7 297.4725Q488.41876 296.14438 489.23126 295.2225L485.0125 295.2225ZM495.91876 302.69125L494.8719 302.69125L494.8719 295.9725Q494.48126 296.33188 493.85626 296.70688Q493.2469 297.06625 492.7625 297.23813L492.7625 296.2225Q493.6375 295.80063 494.29376 295.2225Q494.96564 294.62875 495.2469 294.06625L495.91876 294.06625L495.91876 302.69125ZM499.54376 302.69125L499.54376 301.48813L500.7469 301.48813L500.7469 302.69125L499.54376 302.69125ZM501.95 298.45688Q501.95 296.92563 502.2625 296.00375Q502.575 295.06625 503.1844 294.56625Q503.8094 294.06625 504.7469 294.06625Q505.4344 294.06625 505.95 294.3475Q506.48126 294.62875 506.825 295.16Q507.16876 295.67563 507.35626 296.42563Q507.54376 297.17563 507.54376 298.45688Q507.54376 299.9725 507.23126 300.89438Q506.9344 301.81625 506.3094 302.33188Q505.7 302.83188 504.7469 302.83188Q503.5125 302.83188 502.79376 301.94125Q501.95 300.87875 501.95 298.45688ZM503.02814 298.45688Q503.02814 300.56625 503.52814 301.26938Q504.02814 301.9725 504.7469 301.9725Q505.48126 301.9725 505.96564 301.26938Q506.46564 300.56625 506.46564 298.45688Q506.46564 296.33188 505.96564 295.64438Q505.48126 294.94125 504.73126 294.94125Q504.0125 294.94125 503.575 295.55063Q503.02814 296.33188 503.02814 298.45688ZM509.15314 296.16Q509.15314 295.23813 509.60626 294.5975Q510.075 293.95688 510.95 293.95688Q511.7625 293.95688 512.29376 294.535Q512.825 295.11313 512.825 296.2225Q512.825 297.31625 512.27814 297.91Q511.7469 298.48813 510.96564 298.48813Q510.1844 298.48813 509.66876 297.91Q509.15314 297.33188 509.15314 296.16ZM510.98126 294.67563Q510.59064 294.67563 510.325 295.01938Q510.075 295.36313 510.075 296.26938Q510.075 297.0975 510.325 297.44125Q510.59064 297.76938 510.98126 297.76938Q511.3875 297.76938 511.6375 297.42563Q511.90314 297.08188 511.90314 296.19125Q511.90314 295.3475 511.6375 295.01938Q511.3719 294.67563 510.98126 294.67563ZM510.98126 303.00375L515.6844 293.95688L516.54376 293.95688L511.85626 303.00375L510.98126 303.00375ZM514.7 300.67563Q514.7 299.75375 515.15314 299.11313Q515.6219 298.4725 516.5125 298.4725Q517.325 298.4725 517.85626 299.05063Q518.3875 299.61313 518.3875 300.73813Q518.3875 301.83188 517.84064 302.42563Q517.3094 303.00375 516.5125 303.00375Q515.7469 303.00375 515.21564 302.42563Q514.7 301.8475 514.7 300.67563ZM516.54376 299.19125Q516.1375 299.19125 515.8719 299.535Q515.6219 299.87875 515.6219 300.785Q515.6219 301.5975 515.8875 301.94125Q516.15314 302.285 516.54376 302.285Q516.9344 302.285 517.2 301.94125Q517.46564 301.5975 517.46564 300.69125Q517.46564 299.86313 517.2 299.535Q516.9344 299.19125 516.54376 299.19125Z" fill-rule="nonzero"/><path stroke="#757575" stroke-width="1.0" stroke-linecap="butt" d="M519.45 290.19125L423.76666 290.19125L380.759 290.19125" fill-rule="nonzero"/><path fill="#9e9e9e" d="M382.759 290.19125C382.759 289.08667 381.8636 288.19125 380.759 288.19125C379.65445 288.19125 378.759 289.08667 378.759 290.19125C378.759 291.2958 379.65445 292.19125 380.759 292.19125C381.8636 292.19125 382.759 291.2958 382.759 290.19125" fill-rule="nonzero"/><path fill="#757575" d="M22.596874 37.55L18.8 23.2375L20.7375 23.2375L22.909374 32.6125Q23.26875 34.096874 23.51875 35.55Q24.065624 33.253124 24.159374 32.89375L26.89375 23.2375L29.175 23.2375L31.221874 30.471874Q32.003124 33.175 32.346874 35.55Q32.6125 34.190624 33.05 32.425L35.3 23.2375L37.20625 23.2375L33.284374 37.55L31.45625 37.55L28.440624 26.64375Q28.05 25.26875 27.9875 24.95625Q27.753124 25.940624 27.565624 26.64375L24.534374 37.55L22.596874 37.55ZM38.8625 37.55L38.8625 23.2375L40.628124 23.2375L40.628124 28.3625Q41.8625 26.940624 43.7375 26.940624Q44.878124 26.940624 45.721874 27.39375Q46.58125 27.846874 46.940624 28.659374Q47.315624 29.45625 47.315624 30.971874L47.315624 37.55L45.565624 37.55L45.565624 30.971874Q45.565624 29.659374 44.9875 29.065624Q44.409374 28.45625 43.378124 28.45625Q42.596874 28.45625 41.89375 28.8625Q41.20625 29.26875 40.909374 29.971874Q40.628124 30.659374 40.628124 31.878124L40.628124 37.55L38.8625 37.55ZM48.878124 25.253124L48.878124 23.2375L50.64375 23.2375L50.64375 25.253124L48.878124 25.253124ZM48.878124 37.55L48.878124 27.175L50.64375 27.175L50.64375 37.55L48.878124 37.55ZM59.64375 33.753124L61.3625 33.971874Q61.08125 35.76875 59.909374 36.784374Q58.753124 37.784374 57.05 37.784374Q54.925 37.784374 53.628124 36.39375Q52.33125 35.003124 52.33125 32.409374Q52.33125 30.721874 52.878124 29.471874Q53.440624 28.20625 54.58125 27.58125Q55.721874 26.940624 57.065624 26.940624Q58.753124 26.940624 59.815624 27.8Q60.89375 28.659374 61.20625 30.221874L59.4875 30.4875Q59.253124 29.440624 58.628124 28.925Q58.003124 28.39375 57.128124 28.39375Q55.8 28.39375 54.971874 29.346874Q54.14375 30.3 54.14375 32.346874Q54.14375 34.440624 54.940624 35.39375Q55.7375 36.33125 57.034374 36.33125Q58.065624 36.33125 58.753124 35.70625Q59.45625 35.065624 59.64375 33.753124ZM62.8625 37.55L62.8625 23.2375L64.62813 23.2375L64.62813 28.3625Q65.8625 26.940624 67.7375 26.940624Q68.87813 26.940624 69.72188 27.39375Q70.58125 27.846874 70.94063 28.659374Q71.31563 29.45625 71.31563 30.971874L71.31563 37.55L69.56563 37.55L69.56563 30.971874Q69.56563 29.659374 68.9875 29.065624Q68.40938 28.45625 67.37813 28.45625Q66.59688 28.45625 65.89375 28.8625Q65.20625 29.26875 64.90938 29.971874Q64.62813 30.659374 64.62813 31.878124L64.62813 37.55L62.8625 37.55ZM78.8625 41.51875L78.8625 27.175L80.47188 27.175L80.47188 28.51875Q81.03438 27.7375 81.7375 27.346874Q82.45625 26.940624 83.47188 26.940624Q84.8 26.940624 85.81563 27.628124Q86.83125 28.315624 87.34688 29.565624Q87.87813 30.8 87.87813 32.284374Q87.87813 33.878124 87.3 35.159374Q86.7375 36.425 85.64375 37.1125Q84.55 37.784374 83.34688 37.784374Q82.47188 37.784374 81.76875 37.409374Q81.08125 37.034374 80.62813 36.471874L80.62813 41.51875L78.8625 41.51875ZM80.45625 32.425Q80.45625 34.425 81.26875 35.378124Q82.08125 36.33125 83.2375 36.33125Q84.40938 36.33125 85.2375 35.346874Q86.08125 34.3625 86.08125 32.26875Q86.08125 30.3 85.25313 29.315624Q84.44063 28.315624 83.31563 28.315624Q82.19063 28.315624 81.31563 29.378124Q80.45625 30.425 80.45625 32.425ZM89.84688 37.55L89.84688 27.175L91.425 27.175L91.425 28.753124Q92.03438 27.64375 92.55 27.3Q93.06563 26.940624 93.675 26.940624Q94.56563 26.940624 95.4875 27.503124L94.87813 29.14375Q94.2375 28.753124 93.59688 28.753124Q93.01875 28.753124 92.55 29.1125Q92.09688 29.45625 91.89375 30.065624Q91.6125 31.003124 91.6125 32.1125L91.6125 37.55L89.84688 37.55ZM96.22188 32.3625Q96.22188 29.4875 97.81563 28.096874Q99.15938 26.940624 101.08125 26.940624Q103.22188 26.940624 104.56563 28.346874Q105.925 29.753124 105.925 32.221874Q105.925 34.221874 105.33125 35.378124Q104.7375 36.51875 103.58125 37.159374Q102.44063 37.784374 101.08125 37.784374Q98.89375 37.784374 97.55 36.39375Q96.22188 34.9875 96.22188 32.3625ZM98.01875 32.3625Q98.01875 34.3625 98.87813 35.346874Q99.75313 36.33125 101.08125 36.33125Q102.39375 36.33125 103.25313 35.346874Q104.12813 34.346874 104.12813 32.3Q104.12813 30.378124 103.25313 29.39375Q102.37813 28.39375 101.08125 28.39375Q99.75313 28.39375 98.87813 29.39375Q98.01875 30.378124 98.01875 32.3625ZM107.8625 25.26875L107.8625 23.2375L109.6125 23.2375L109.6125 25.26875L107.8625 25.26875ZM105.62813 41.58125L105.95625 40.08125Q106.4875 40.221874 106.8 40.221874Q107.33125 40.221874 107.59688 39.8625Q107.8625 39.503124 107.8625 38.08125L107.8625 27.175L109.6125 27.175L109.6125 38.1125Q109.6125 40.034374 109.1125 40.784374Q108.4875 41.753124 107.00313 41.753124Q106.3 41.753124 105.62813 41.58125ZM118.97188 34.20625L120.78438 34.440624Q120.3625 36.01875 119.19063 36.909374Q118.03438 37.784374 116.22188 37.784374Q113.95625 37.784374 112.6125 36.39375Q111.28438 34.9875 111.28438 32.45625Q111.28438 29.83125 112.62813 28.39375Q113.97188 26.940624 116.12813 26.940624Q118.20625 26.940624 119.51875 28.3625Q120.84688 29.76875 120.84688 32.346874Q120.84688 32.503124 120.83125 32.815624L113.09688 32.815624Q113.19063 34.51875 114.06563 35.425Q114.94063 36.33125 116.2375 36.33125Q117.20625 36.33125 117.87813 35.83125Q118.56563 35.315624 118.97188 34.20625ZM113.19063 31.3625L118.9875 31.3625Q118.87813 30.065624 118.33125 29.409374Q117.4875 28.39375 116.14375 28.39375Q114.94063 28.39375 114.1125 29.20625Q113.28438 30.003124 113.19063 31.3625ZM129.64375 33.753124L131.3625 33.971874Q131.08125 35.76875 129.90938 36.784374Q128.75313 37.784374 127.05 37.784374Q124.925 37.784374 123.62813 36.39375Q122.33125 35.003124 122.33125 32.409374Q122.33125 30.721874 122.87813 29.471874Q123.44063 28.20625 124.58125 27.58125Q125.72188 26.940624 127.06563 26.940624Q128.75313 26.940624 129.81563 27.8Q130.89375 28.659374 131.20625 30.221874L129.4875 30.4875Q129.25313 29.440624 128.62813 28.925Q128.00313 28.39375 127.12813 28.39375Q125.8 28.39375 124.97188 29.346874Q124.14375 30.3 124.14375 32.346874Q124.14375 34.440624 124.94063 35.39375Q125.7375 36.33125 127.03438 36.33125Q128.06563 36.33125 128.75313 35.70625Q129.45625 35.065624 129.64375 33.753124ZM136.70625 35.971874L136.95625 37.534374Q136.22188 37.690624 135.62813 37.690624Q134.675 37.690624 134.14375 37.39375Q133.62813 37.08125 133.40938 36.596874Q133.19063 36.096874 133.19063 34.51875L133.19063 28.55L131.90938 28.55L131.90938 27.175L133.19063 27.175L133.19063 24.6125L134.94063 23.55L134.94063 27.175L136.70625 27.175L136.70625 28.55L134.94063 28.55L134.94063 34.6125Q134.94063 35.3625 135.03438 35.58125Q135.12813 35.784374 135.33125 35.925Q135.55 36.05 135.94063 36.05Q136.22188 36.05 136.70625 35.971874ZM151.59688 37.55L151.59688 36.2375Q150.6125 37.784374 148.69063 37.784374Q147.45625 37.784374 146.40938 37.096874Q145.37813 36.409374 144.8 35.190624Q144.2375 33.971874 144.2375 32.378124Q144.2375 30.815624 144.75313 29.55Q145.26875 28.284374 146.3 27.6125Q147.34688 26.940624 148.6125 26.940624Q149.55 26.940624 150.28438 27.346874Q151.01875 27.7375 151.4875 28.3625L151.4875 23.2375L153.22188 23.2375L153.22188 37.55L151.59688 37.55ZM146.03438 32.378124Q146.03438 34.3625 146.87813 35.346874Q147.72188 36.33125 148.8625 36.33125Q150.01875 36.33125 150.81563 35.39375Q151.62813 34.45625 151.62813 32.51875Q151.62813 30.39375 150.8 29.39375Q149.9875 28.39375 148.78438 28.39375Q147.6125 28.39375 146.81563 29.3625Q146.03438 30.315624 146.03438 32.378124ZM155.87813 25.253124L155.87813 23.2375L157.64375 23.2375L157.64375 25.253124L155.87813 25.253124ZM155.87813 37.55L155.87813 27.175L157.64375 27.175L157.64375 37.55L155.87813 37.55ZM166.59688 37.55L166.59688 36.2375Q165.6125 37.784374 163.69063 37.784374Q162.45625 37.784374 161.40938 37.096874Q160.37813 36.409374 159.8 35.190624Q159.2375 33.971874 159.2375 32.378124Q159.2375 30.815624 159.75313 29.55Q160.26875 28.284374 161.3 27.6125Q162.34688 26.940624 163.6125 26.940624Q164.55 26.940624 165.28438 27.346874Q166.01875 27.7375 166.4875 28.3625L166.4875 23.2375L168.22188 23.2375L168.22188 37.55L166.59688 37.55ZM161.03438 32.378124Q161.03438 34.3625 161.87813 35.346874Q162.72188 36.33125 163.8625 36.33125Q165.01875 36.33125 165.81563 35.39375Q166.62813 34.45625 166.62813 32.51875Q166.62813 30.39375 165.8 29.39375Q164.9875 28.39375 163.78438 28.39375Q162.6125 28.39375 161.81563 29.3625Q161.03438 30.315624 161.03438 32.378124ZM176.78438 41.55L176.59688 39.89375Q177.175 40.05 177.59688 40.05Q178.19063 40.05 178.53438 39.846874Q178.89375 39.659374 179.1125 39.315624Q179.28438 39.05 179.65938 38.003124Q179.70625 37.846874 179.81563 37.565624L175.87813 27.175L177.76875 27.175L179.925 33.190624Q180.34688 34.33125 180.675 35.58125Q180.9875 34.378124 181.39375 33.221874L183.6125 27.175L185.37813 27.175L181.425 37.721874Q180.8 39.440624 180.44063 40.08125Q179.97188 40.95625 179.3625 41.346874Q178.76875 41.753124 177.925 41.753124Q177.40938 41.753124 176.78438 41.55ZM186.22188 32.3625Q186.22188 29.4875 187.81563 28.096874Q189.15938 26.940624 191.08125 26.940624Q193.22188 26.940624 194.56563 28.346874Q195.925 29.753124 195.925 32.221874Q195.925 34.221874 195.33125 35.378124Q194.7375 36.51875 193.58125 37.159374Q192.44063 37.784374 191.08125 37.784374Q188.89375 37.784374 187.55 36.39375Q186.22188 34.9875 186.22188 32.3625ZM188.01875 32.3625Q188.01875 34.3625 188.87813 35.346874Q189.75313 36.33125 191.08125 36.33125Q192.39375 36.33125 193.25313 35.346874Q194.12813 34.346874 194.12813 32.3Q194.12813 30.378124 193.25313 29.39375Q192.37813 28.39375 191.08125 28.39375Q189.75313 28.39375 188.87813 29.39375Q188.01875 30.378124 188.01875 32.3625ZM204.65938 37.55L204.65938 36.01875Q203.45625 37.784374 201.37813 37.784374Q200.45625 37.784374 199.65938 37.440624Q198.8625 37.08125 198.47188 36.55Q198.09688 36.01875 197.94063 35.2375Q197.83125 34.721874 197.83125 33.596874L197.83125 27.175L199.58125 27.175L199.58125 32.925Q199.58125 34.3 199.69063 34.784374Q199.8625 35.471874 200.39375 35.878124Q200.94063 36.26875 201.72188 36.26875Q202.51875 36.26875 203.20625 35.8625Q203.90938 35.45625 204.19063 34.76875Q204.4875 34.065624 204.4875 32.7375L204.4875 27.175L206.2375 27.175L206.2375 37.55L204.65938 37.55ZM220.97188 34.20625L222.78438 34.440624Q222.3625 36.01875 221.19063 36.909374Q220.03438 37.784374 218.22188 37.784374Q215.95625 37.784374 214.6125 36.39375Q213.28438 34.9875 213.28438 32.45625Q213.28438 29.83125 214.62813 28.39375Q215.97188 26.940624 218.12813 26.940624Q220.20625 26.940624 221.51875 28.3625Q222.84688 29.76875 222.84688 32.346874Q222.84688 32.503124 222.83125 32.815624L215.09688 32.815624Q215.19063 34.51875 216.06563 35.425Q216.94063 36.33125 218.2375 36.33125Q219.20625 36.33125 219.87813 35.83125Q220.56563 35.315624 220.97188 34.20625ZM215.19063 31.3625L220.9875 31.3625Q220.87813 30.065624 220.33125 29.409374Q219.4875 28.39375 218.14375 28.39375Q216.94063 28.39375 216.1125 29.20625Q215.28438 30.003124 215.19063 31.3625ZM224.8625 37.55L224.8625 27.175L226.45625 27.175L226.45625 28.659374Q227.59688 26.940624 229.75313 26.940624Q230.69063 26.940624 231.47188 27.284374Q232.26875 27.6125 232.65938 28.159374Q233.05 28.70625 233.20625 29.45625Q233.3 29.95625 233.3 31.175L233.3 37.55L231.53438 37.55L231.53438 31.2375Q231.53438 30.159374 231.33125 29.628124Q231.12813 29.096874 230.59688 28.784374Q230.08125 28.471874 229.37813 28.471874Q228.25313 28.471874 227.44063 29.190624Q226.62813 29.89375 226.62813 31.878124L226.62813 37.55L224.8625 37.55ZM234.8625 25.26875L234.8625 23.2375L236.6125 23.2375L236.6125 25.26875L234.8625 25.26875ZM232.62813 41.58125L232.95625 40.08125Q233.4875 40.221874 233.8 40.221874Q234.33125 40.221874 234.59688 39.8625Q234.8625 39.503124 234.8625 38.08125L234.8625 27.175L236.6125 27.175L236.6125 38.1125Q236.6125 40.034374 236.1125 40.784374Q235.4875 41.753124 234.00313 41.753124Q233.3 41.753124 232.62813 41.58125ZM238.22188 32.3625Q238.22188 29.4875 239.81563 28.096874Q241.15938 26.940624 243.08125 26.940624Q245.22188 26.940624 246.56563 28.346874Q247.925 29.753124 247.925 32.221874Q247.925 34.221874 247.33125 35.378124Q246.7375 36.51875 245.58125 37.159374Q244.44063 37.784374 243.08125 37.784374Q240.89375 37.784374 239.55 36.39375Q238.22188 34.9875 238.22188 32.3625ZM240.01875 32.3625Q240.01875 34.3625 240.87813 35.346874Q241.75313 36.33125 243.08125 36.33125Q244.39375 36.33125 245.25313 35.346874Q246.12813 34.346874 246.12813 32.3Q246.12813 30.378124 245.25313 29.39375Q244.37813 28.39375 243.08125 28.39375Q241.75313 28.39375 240.87813 29.39375Q240.01875 30.378124 240.01875 32.3625ZM249.78438 41.55L249.59688 39.89375Q250.175 40.05 250.59688 40.05Q251.19063 40.05 251.53438 39.846874Q251.89375 39.659374 252.1125 39.315624Q252.28438 39.05 252.65938 38.003124Q252.70625 37.846874 252.81563 37.565624L248.87813 27.175L250.76875 27.175L252.925 33.190624Q253.34688 34.33125 253.675 35.58125Q253.9875 34.378124 254.39375 33.221874L256.6125 27.175L258.3781 27.175L254.425 37.721874Q253.8 39.440624 253.44063 40.08125Q252.97188 40.95625 252.3625 41.346874Q251.76875 41.753124 250.925 41.753124Q250.40938 41.753124 249.78438 41.55ZM265.8625 37.55L265.8625 27.175L267.4406 27.175L267.4406 28.628124Q267.925 27.878124 268.7375 27.409374Q269.55 26.940624 270.58124 26.940624Q271.7375 26.940624 272.47186 27.425Q273.20624 27.89375 273.51874 28.753124Q274.7531 26.940624 276.72186 26.940624Q278.26874 26.940624 279.09686 27.8Q279.925 28.659374 279.925 30.425L279.925 37.55L278.175 37.55L278.175 31.01875Q278.175 29.95625 278.0031 29.503124Q277.83124 29.034374 277.3781 28.753124Q276.9406 28.471874 276.33124 28.471874Q275.2375 28.471874 274.5031 29.20625Q273.78436 29.925 273.78436 31.51875L273.78436 37.55L272.03436 37.55L272.03436 30.815624Q272.03436 29.64375 271.59686 29.065624Q271.175 28.471874 270.1906 28.471874Q269.45624 28.471874 268.8156 28.8625Q268.1906 29.253124 267.90936 30.003124Q267.6281 30.753124 267.6281 32.175L267.6281 37.55L265.8625 37.55ZM281.22186 32.3625Q281.22186 29.4875 282.8156 28.096874Q284.15936 26.940624 286.08124 26.940624Q288.22186 26.940624 289.5656 28.346874Q290.925 29.753124 290.925 32.221874Q290.925 34.221874 290.33124 35.378124Q289.7375 36.51875 288.58124 37.159374Q287.4406 37.784374 286.08124 37.784374Q283.89374 37.784374 282.55 36.39375Q281.22186 34.9875 281.22186 32.3625ZM283.01874 32.3625Q283.01874 34.3625 283.8781 35.346874Q284.7531 36.33125 286.08124 36.33125Q287.39374 36.33125 288.2531 35.346874Q289.1281 34.346874 289.1281 32.3Q289.1281 30.378124 288.2531 29.39375Q287.3781 28.39375 286.08124 28.39375Q284.7531 28.39375 283.8781 29.39375Q283.01874 30.378124 283.01874 32.3625ZM292.84686 37.55L292.84686 27.175L294.425 27.175L294.425 28.753124Q295.03436 27.64375 295.55 27.3Q296.0656 26.940624 296.675 26.940624Q297.5656 26.940624 298.4875 27.503124L297.8781 29.14375Q297.2375 28.753124 296.59686 28.753124Q296.01874 28.753124 295.55 29.1125Q295.09686 29.45625 294.89374 30.065624Q294.6125 31.003124 294.6125 32.1125L294.6125 37.55L292.84686 37.55ZM306.97186 34.20625L308.78436 34.440624Q308.3625 36.01875 307.1906 36.909374Q306.03436 37.784374 304.22186 37.784374Q301.95624 37.784374 300.6125 36.39375Q299.28436 34.9875 299.28436 32.45625Q299.28436 29.83125 300.6281 28.39375Q301.97186 26.940624 304.1281 26.940624Q306.20624 26.940624 307.51874 28.3625Q308.84686 29.76875 308.84686 32.346874Q308.84686 32.503124 308.83124 32.815624L301.09686 32.815624Q301.1906 34.51875 302.0656 35.425Q302.9406 36.33125 304.2375 36.33125Q305.20624 36.33125 305.8781 35.83125Q306.5656 35.315624 306.97186 34.20625ZM301.1906 31.3625L306.9875 31.3625Q306.8781 30.065624 306.33124 29.409374Q305.4875 28.39375 304.14374 28.39375Q302.9406 28.39375 302.1125 29.20625Q301.28436 30.003124 301.1906 31.3625ZM314.15936 34.01875Q314.14374 33.675 314.14374 33.503124Q314.14374 32.45625 314.4406 31.70625Q314.65936 31.14375 315.14374 30.565624Q315.4875 30.14375 316.39374 29.346874Q317.3156 28.534374 317.58124 28.065624Q317.8625 27.58125 317.8625 27.01875Q317.8625 25.9875 317.05 25.221874Q316.2531 24.440624 315.09686 24.440624Q313.97186 24.440624 313.22186 25.14375Q312.47186 25.846874 312.2375 27.33125L310.425 27.1125Q310.675 25.1125 311.8781 24.05Q313.08124 22.9875 315.0656 22.9875Q317.175 22.9875 318.425 24.128124Q319.675 25.26875 319.675 26.89375Q319.675 27.83125 319.22186 28.628124Q318.78436 29.409374 317.5031 30.55Q316.64374 31.315624 316.3781 31.675Q316.1281 32.034374 315.9875 32.503124Q315.8625 32.971874 315.84686 34.01875L314.15936 34.01875ZM314.05 37.55L314.05 35.55L316.05 35.55L316.05 37.55L314.05 37.55Z" fill-rule="nonzero"/></svg>