<svg version="1.1" viewBox="0.0 0.0 671.0 371.0" fill="none" stroke="none" stroke-linecap="square" stroke-miterlimit="10" width="671" height="371" xmlns:xlink="http://www.w3.org/1999/xlink" xmlns="http://www.w3.org/2000/svg"><path fill="#ffffff" d="M0 0L671.0 0L671.0 371.0L0 371.0L0 0Z" fill-rule="nonzero"/><path fill="#4285f4" d="M335.5 54.916668C390.39236 54.916668 440.8244 85.14446 466.7005 133.5552C492.57657 181.96596 489.69153 240.69232 459.19498 286.33368L335.5 203.68333Z" fill-rule="nonzero"/><path fill="#ea4335" d="M459.19498 286.33368C431.5912 327.64563 385.1855 352.45 335.5 352.45L335.5 203.68333Z" fill-rule="nonzero"/><path fill="#34a853" d="M211.80504 121.033005C239.40881 79.72103 285.8145 54.916668 335.5 54.916668L335.5 203.68333Z" fill-rule="nonzero"/><path fill="#fbbc04" d="M335.5 352.45C280.60764 352.45 230.1756 322.2222 204.29951 273.81146C178.42343 225.4007 181.30847 166.67435 211.80504 121.033005L335.5 203.68333Z" fill-rule="nonzero"/><path fill="#1a1a1a" d="M23.503124 71.16787L23.503124 70.16787L27.128124 70.152245L27.128124 73.339745Q26.3 74.01162 25.409374 74.35537Q24.51875 74.683495 23.58125 74.683495Q22.315624 74.683495 21.26875 74.152245Q20.2375 73.60537 19.70625 72.589745Q19.190624 71.558495 19.190624 70.29287Q19.190624 69.027245 19.70625 67.94912Q20.2375 66.85537 21.221874 66.339745Q22.20625 65.808495 23.4875 65.808495Q24.425 65.808495 25.175 66.10537Q25.925 66.402245 26.346874 66.94912Q26.784374 67.48037 27.003124 68.35537L25.9875 68.63662Q25.784374 67.98037 25.4875 67.60537Q25.20625 67.23037 24.675 67.01162Q24.14375 66.777245 23.503124 66.777245Q22.721874 66.777245 22.14375 67.01162Q21.58125 67.245995 21.221874 67.63662Q20.878124 68.027245 20.690624 68.495995Q20.3625 69.29287 20.3625 70.214745Q20.3625 71.370995 20.753124 72.152245Q21.159374 72.91787 21.909374 73.29287Q22.659374 73.66787 23.51875 73.66787Q24.253124 73.66787 24.95625 73.38662Q25.659374 73.089745 26.01875 72.777245L26.01875 71.16787L23.503124 71.16787ZM27.95625 71.433495Q27.95625 69.69912 28.909374 68.870995Q29.70625 68.183495 30.8625 68.183495Q32.14375 68.183495 32.95625 69.027245Q33.784374 69.85537 33.784374 71.339745Q33.784374 72.54287 33.425 73.23037Q33.065624 73.91787 32.3625 74.308495Q31.675 74.683495 30.8625 74.683495Q29.565624 74.683495 28.753124 73.85537Q27.95625 73.01162 27.95625 71.433495ZM29.034374 71.433495Q29.034374 72.620995 29.55 73.214745Q30.08125 73.808495 30.8625 73.808495Q31.659374 73.808495 32.175 73.214745Q32.690624 72.620995 32.690624 71.402245Q32.690624 70.245995 32.159374 69.652245Q31.64375 69.058495 30.8625 69.058495Q30.08125 69.058495 29.55 69.652245Q29.034374 70.23037 29.034374 71.433495ZM39.315624 74.54287L38.33125 74.54287L38.33125 65.94912L39.39375 65.94912L39.39375 69.01162Q40.065624 68.183495 41.096874 68.183495Q41.675 68.183495 42.175 68.41787Q42.690624 68.63662 43.01875 69.058495Q43.3625 69.48037 43.55 70.07412Q43.7375 70.66787 43.7375 71.339745Q43.7375 72.933495 42.940624 73.808495Q42.14375 74.683495 41.05 74.683495Q39.940624 74.683495 39.315624 73.76162L39.315624 74.54287ZM39.3 71.38662Q39.3 72.495995 39.6125 72.995995Q40.1125 73.808495 40.95625 73.808495Q41.64375 73.808495 42.14375 73.214745Q42.659374 72.620995 42.659374 71.41787Q42.659374 70.19912 42.175 69.620995Q41.690624 69.04287 41.003124 69.04287Q40.315624 69.04287 39.8 69.652245Q39.3 70.245995 39.3 71.38662ZM49.409374 73.777245Q48.815624 74.277245 48.26875 74.48037Q47.7375 74.683495 47.1125 74.683495Q46.08125 74.683495 45.534374 74.183495Q44.9875 73.683495 44.9875 72.902245Q44.9875 72.44912 45.190624 72.07412Q45.39375 71.683495 45.7375 71.464745Q46.08125 71.23037 46.503124 71.120995Q46.8 71.027245 47.440624 70.94912Q48.70625 70.808495 49.315624 70.589745Q49.315624 70.370995 49.315624 70.32412Q49.315624 69.66787 49.01875 69.402245Q48.6125 69.058495 47.815624 69.058495Q47.08125 69.058495 46.721874 69.32412Q46.3625 69.57412 46.190624 70.23037L45.159374 70.089745Q45.3 69.433495 45.628124 69.027245Q45.95625 68.620995 46.565624 68.402245Q47.175 68.183495 47.971874 68.183495Q48.76875 68.183495 49.26875 68.370995Q49.76875 68.558495 50.003124 68.839745Q50.2375 69.120995 50.33125 69.558495Q50.378124 69.82412 50.378124 70.527245L50.378124 71.933495Q50.378124 73.402245 50.440624 73.79287Q50.51875 74.183495 50.721874 74.54287L49.6125 74.54287Q49.45625 74.214745 49.409374 73.777245ZM49.315624 71.41787Q48.7375 71.652245 47.596874 71.82412Q46.940624 71.91787 46.675 72.04287Q46.409374 72.152245 46.253124 72.370995Q46.1125 72.589745 46.1125 72.870995Q46.1125 73.29287 46.425 73.57412Q46.753124 73.85537 47.3625 73.85537Q47.971874 73.85537 48.440624 73.589745Q48.925 73.32412 49.14375 72.85537Q49.315624 72.495995 49.315624 71.808495L49.315624 71.41787ZM56.409374 72.26162L57.440624 72.402245Q57.26875 73.464745 56.565624 74.07412Q55.8625 74.683495 54.846874 74.683495Q53.565624 74.683495 52.784374 73.85537Q52.01875 73.01162 52.01875 71.44912Q52.01875 70.44912 52.346874 69.69912Q52.690624 68.933495 53.3625 68.558495Q54.05 68.183495 54.8625 68.183495Q55.8625 68.183495 56.503124 68.69912Q57.159374 69.19912 57.346874 70.152245L56.315624 70.308495Q56.175 69.683495 55.8 69.370995Q55.425 69.04287 54.89375 69.04287Q54.096874 69.04287 53.596874 69.620995Q53.096874 70.183495 53.096874 71.41787Q53.096874 72.683495 53.58125 73.245995Q54.065624 73.808495 54.83125 73.808495Q55.45625 73.808495 55.8625 73.433495Q56.284374 73.058495 56.409374 72.26162ZM58.346874 74.54287L58.346874 65.94912L59.409374 65.94912L59.409374 70.85537L61.89375 68.32412L63.26875 68.32412L60.878124 70.620995L63.503124 74.54287L62.20625 74.54287L60.14375 71.35537L59.409374 72.07412L59.409374 74.54287L58.346874 74.54287ZM69.64375 73.60537L69.8 74.527245Q69.34688 74.620995 69.00313 74.620995Q68.425 74.620995 68.1125 74.44912Q67.8 74.26162 67.65938 73.964745Q67.53438 73.66787 67.53438 72.714745L67.53438 69.13662L66.76875 69.13662L66.76875 68.32412L67.53438 68.32412L67.53438 66.777245L68.58125 66.152245L68.58125 68.32412L69.64375 68.32412L69.64375 69.13662L68.58125 69.13662L68.58125 72.777245Q68.58125 73.23037 68.62813 73.35537Q68.69063 73.48037 68.81563 73.558495Q68.94063 73.63662 69.175 73.63662Q69.3625 73.63662 69.64375 73.60537ZM69.95625 71.433495Q69.95625 69.69912 70.90938 68.870995Q71.70625 68.183495 72.8625 68.183495Q74.14375 68.183495 74.95625 69.027245Q75.78438 69.85537 75.78438 71.339745Q75.78438 72.54287 75.425 73.23037Q75.06563 73.91787 74.3625 74.308495Q73.675 74.683495 72.8625 74.683495Q71.56563 74.683495 70.75313 73.85537Q69.95625 73.01162 69.95625 71.433495ZM71.03438 71.433495Q71.03438 72.620995 71.55 73.214745Q72.08125 73.808495 72.8625 73.808495Q73.65938 73.808495 74.175 73.214745Q74.69063 72.620995 74.69063 71.402245Q74.69063 70.245995 74.15938 69.652245Q73.64375 69.058495 72.8625 69.058495Q72.08125 69.058495 71.55 69.652245Q71.03438 70.23037 71.03438 71.433495ZM80.34688 74.54287L80.34688 65.94912L81.39375 65.94912L81.39375 69.027245Q82.12813 68.183495 83.25313 68.183495Q83.95625 68.183495 84.45625 68.464745Q84.97188 68.73037 85.19063 69.214745Q85.40938 69.683495 85.40938 70.60537L85.40938 74.54287L84.3625 74.54287L84.3625 70.60537Q84.3625 69.808495 84.01875 69.44912Q83.675 69.089745 83.05 69.089745Q82.58125 69.089745 82.15938 69.339745Q81.75313 69.57412 81.56563 69.995995Q81.39375 70.402245 81.39375 71.13662L81.39375 74.54287L80.34688 74.54287ZM87.34688 67.16787L87.34688 65.94912L88.40938 65.94912L88.40938 67.16787L87.34688 67.16787ZM87.34688 74.54287L87.34688 68.32412L88.40938 68.32412L88.40938 74.54287L87.34688 74.54287ZM90.14375 75.058495L91.175 75.214745Q91.2375 75.683495 91.53438 75.902245Q91.925 76.19912 92.59688 76.19912Q93.33125 76.19912 93.72188 75.902245Q94.12813 75.60537 94.26875 75.089745Q94.3625 74.76162 94.34688 73.73037Q93.65938 74.54287 92.62813 74.54287Q91.34688 74.54287 90.64375 73.620995Q89.94063 72.683495 89.94063 71.402245Q89.94063 70.51162 90.25313 69.76162Q90.58125 68.995995 91.19063 68.589745Q91.8 68.183495 92.62813 68.183495Q93.7375 68.183495 94.45625 69.07412L94.45625 68.32412L95.425 68.32412L95.425 73.69912Q95.425 75.152245 95.12813 75.76162Q94.83125 76.370995 94.19063 76.714745Q93.55 77.07412 92.6125 77.07412Q91.50313 77.07412 90.81563 76.57412Q90.12813 76.07412 90.14375 75.058495ZM91.01875 71.32412Q91.01875 72.54287 91.50313 73.10537Q91.9875 73.66787 92.72188 73.66787Q93.45625 73.66787 93.94063 73.10537Q94.44063 72.54287 94.44063 71.35537Q94.44063 70.214745 93.925 69.63662Q93.425 69.058495 92.70625 69.058495Q92.00313 69.058495 91.50313 69.63662Q91.01875 70.19912 91.01875 71.32412ZM97.34688 74.54287L97.34688 65.94912L98.39375 65.94912L98.39375 69.027245Q99.12813 68.183495 100.25313 68.183495Q100.95625 68.183495 101.45625 68.464745Q101.97188 68.73037 102.19063 69.214745Q102.40938 69.683495 102.40938 70.60537L102.40938 74.54287L101.3625 74.54287L101.3625 70.60537Q101.3625 69.808495 101.01875 69.44912Q100.675 69.089745 100.05 69.089745Q99.58125 69.089745 99.15938 69.339745Q98.75313 69.57412 98.56563 69.995995Q98.39375 70.402245 98.39375 71.13662L98.39375 74.54287L97.34688 74.54287ZM106.925 72.683495L107.95625 72.527245Q108.05 73.152245 108.44063 73.48037Q108.84688 73.808495 109.58125 73.808495Q110.3 73.808495 110.64375 73.527245Q111.00313 73.23037 111.00313 72.82412Q111.00313 72.464745 110.69063 72.26162Q110.47188 72.120995 109.6125 71.902245Q108.45625 71.60537 108.00313 71.402245Q107.56563 71.183495 107.33125 70.808495Q107.09688 70.433495 107.09688 69.964745Q107.09688 69.558495 107.28438 69.19912Q107.47188 68.839745 107.8 68.60537Q108.05 68.433495 108.47188 68.308495Q108.89375 68.183495 109.39375 68.183495Q110.1125 68.183495 110.65938 68.402245Q111.22188 68.60537 111.4875 68.964745Q111.75313 69.32412 111.84688 69.91787L110.81563 70.058495Q110.75313 69.589745 110.40938 69.32412Q110.08125 69.04287 109.45625 69.04287Q108.7375 69.04287 108.425 69.29287Q108.1125 69.527245 108.1125 69.85537Q108.1125 70.058495 108.2375 70.214745Q108.37813 70.38662 108.64375 70.495995Q108.8 70.558495 109.58125 70.76162Q110.70625 71.07412 111.14375 71.26162Q111.58125 71.44912 111.83125 71.808495Q112.08125 72.16787 112.08125 72.714745Q112.08125 73.245995 111.76875 73.714745Q111.47188 74.16787 110.89375 74.433495Q110.31563 74.683495 109.58125 74.683495Q108.3625 74.683495 107.72188 74.183495Q107.09688 73.66787 106.925 72.683495ZM118.40938 72.26162L119.44063 72.402245Q119.26875 73.464745 118.56563 74.07412Q117.8625 74.683495 116.84688 74.683495Q115.56563 74.683495 114.78438 73.85537Q114.01875 73.01162 114.01875 71.44912Q114.01875 70.44912 114.34688 69.69912Q114.69063 68.933495 115.3625 68.558495Q116.05 68.183495 116.8625 68.183495Q117.8625 68.183495 118.50313 68.69912Q119.15938 69.19912 119.34688 70.152245L118.31563 70.308495Q118.175 69.683495 117.8 69.370995Q117.425 69.04287 116.89375 69.04287Q116.09688 69.04287 115.59688 69.620995Q115.09688 70.183495 115.09688 71.41787Q115.09688 72.683495 115.58125 73.245995Q116.06563 73.808495 116.83125 73.808495Q117.45625 73.808495 117.8625 73.433495Q118.28438 73.058495 118.40938 72.26162ZM120.34688 74.54287L120.34688 65.94912L121.39375 65.94912L121.39375 69.027245Q122.12813 68.183495 123.25313 68.183495Q123.95625 68.183495 124.45625 68.464745Q124.97188 68.73037 125.19063 69.214745Q125.40938 69.683495 125.40938 70.60537L125.40938 74.54287L124.3625 74.54287L124.3625 70.60537Q124.3625 69.808495 124.01875 69.44912Q123.675 69.089745 123.05 69.089745Q122.58125 69.089745 122.15938 69.339745Q121.75313 69.57412 121.56563 69.995995Q121.39375 70.402245 121.39375 71.13662L121.39375 74.54287L120.34688 74.54287ZM126.95625 71.433495Q126.95625 69.69912 127.90938 68.870995Q128.70625 68.183495 129.8625 68.183495Q131.14375 68.183495 131.95625 69.027245Q132.78438 69.85537 132.78438 71.339745Q132.78438 72.54287 132.425 73.23037Q132.06563 73.91787 131.3625 74.308495Q130.675 74.683495 129.8625 74.683495Q128.56563 74.683495 127.75313 73.85537Q126.95625 73.01162 126.95625 71.433495ZM128.03438 71.433495Q128.03438 72.620995 128.55 73.214745Q129.08125 73.808495 129.8625 73.808495Q130.65938 73.808495 131.175 73.214745Q131.69063 72.620995 131.69063 71.402245Q131.69063 70.245995 131.15938 69.652245Q130.64375 69.058495 129.8625 69.058495Q129.08125 69.058495 128.55 69.652245Q128.03438 70.23037 128.03438 71.433495ZM133.95625 71.433495Q133.95625 69.69912 134.90938 68.870995Q135.70625 68.183495 136.8625 68.183495Q138.14375 68.183495 138.95625 69.027245Q139.78438 69.85537 139.78438 71.339745Q139.78438 72.54287 139.425 73.23037Q139.06563 73.91787 138.3625 74.308495Q137.675 74.683495 136.8625 74.683495Q135.56563 74.683495 134.75313 73.85537Q133.95625 73.01162 133.95625 71.433495ZM135.03438 71.433495Q135.03438 72.620995 135.55 73.214745Q136.08125 73.808495 136.8625 73.808495Q137.65938 73.808495 138.175 73.214745Q138.69063 72.620995 138.69063 71.402245Q138.69063 70.245995 138.15938 69.652245Q137.64375 69.058495 136.8625 69.058495Q136.08125 69.058495 135.55 69.652245Q135.03438 70.23037 135.03438 71.433495ZM141.31563 74.54287L141.31563 65.94912L142.37813 65.94912L142.37813 74.54287L141.31563 74.54287Z" fill-rule="nonzero"/><path fill="#9e9e9e" d="M23.01875 91.54287L21.971874 91.54287L21.971874 84.82412Q21.58125 85.183495 20.95625 85.558495Q20.346874 85.91787 19.8625 86.089745L19.8625 85.07412Q20.7375 84.652245 21.39375 84.07412Q22.065624 83.48037 22.346874 82.91787L23.01875 82.91787L23.01875 91.54287ZM26.05 89.29287L27.159374 89.19912Q27.284374 90.01162 27.721874 90.41787Q28.175 90.82412 28.815624 90.82412Q29.565624 90.82412 30.096874 90.245995Q30.628124 89.66787 30.628124 88.73037Q30.628124 87.82412 30.1125 87.308495Q29.6125 86.777245 28.784374 86.777245Q28.284374 86.777245 27.8625 87.01162Q27.45625 87.245995 27.221874 87.60537L26.2375 87.48037L27.065624 83.07412L31.346874 83.07412L31.346874 84.07412L27.909374 84.07412L27.45625 86.38662Q28.221874 85.839745 29.065624 85.839745Q30.190624 85.839745 30.95625 86.620995Q31.7375 87.402245 31.7375 88.63662Q31.7375 89.79287 31.065624 90.652245Q30.2375 91.683495 28.815624 91.683495Q27.64375 91.683495 26.89375 91.027245Q26.159374 90.370995 26.05 89.29287ZM33.64375 91.54287L33.64375 90.339745L34.846874 90.339745L34.846874 91.54287L33.64375 91.54287ZM41.51875 85.058495L40.471874 85.13662Q40.33125 84.51162 40.08125 84.23037Q39.64375 83.777245 39.01875 83.777245Q38.51875 83.777245 38.128124 84.058495Q37.64375 84.433495 37.346874 85.13662Q37.065624 85.82412 37.05 87.10537Q37.425 86.527245 37.971874 86.245995Q38.534374 85.964745 39.14375 85.964745Q40.190624 85.964745 40.925 86.745995Q41.675 87.527245 41.675 88.745995Q41.675 89.558495 41.315624 90.26162Q40.971874 90.94912 40.3625 91.32412Q39.753124 91.683495 38.9875 91.683495Q37.659374 91.683495 36.83125 90.714745Q36.003124 89.745995 36.003124 87.527245Q36.003124 85.027245 36.925 83.902245Q37.721874 82.91787 39.08125 82.91787Q40.096874 82.91787 40.7375 83.495995Q41.39375 84.058495 41.51875 85.058495ZM37.221874 88.76162Q37.221874 89.308495 37.440624 89.808495Q37.675 90.29287 38.08125 90.558495Q38.503124 90.82412 38.971874 90.82412Q39.628124 90.82412 40.1125 90.29287Q40.596874 89.745995 40.596874 88.82412Q40.596874 87.933495 40.1125 87.41787Q39.64375 86.902245 38.925 86.902245Q38.20625 86.902245 37.70625 87.41787Q37.221874 87.933495 37.221874 88.76162ZM43.253124 85.01162Q43.253124 84.089745 43.70625 83.44912Q44.175 82.808495 45.05 82.808495Q45.8625 82.808495 46.39375 83.38662Q46.925 83.964745 46.925 85.07412Q46.925 86.16787 46.378124 86.76162Q45.846874 87.339745 45.065624 87.339745Q44.284374 87.339745 43.76875 86.76162Q43.253124 86.183495 43.253124 85.01162ZM45.08125 83.527245Q44.690624 83.527245 44.425 83.870995Q44.175 84.214745 44.175 85.120995Q44.175 85.94912 44.425 86.29287Q44.690624 86.620995 45.08125 86.620995Q45.4875 86.620995 45.7375 86.277245Q46.003124 85.933495 46.003124 85.04287Q46.003124 84.19912 45.7375 83.870995Q45.471874 83.527245 45.08125 83.527245ZM45.08125 91.85537L49.784374 82.808495L50.64375 82.808495L45.95625 91.85537L45.08125 91.85537ZM48.8 89.527245Q48.8 88.60537 49.253124 87.964745Q49.721874 87.32412 50.6125 87.32412Q51.425 87.32412 51.95625 87.902245Q52.4875 88.464745 52.4875 89.589745Q52.4875 90.683495 51.940624 91.277245Q51.409374 91.85537 50.6125 91.85537Q49.846874 91.85537 49.315624 91.277245Q48.8 90.69912 48.8 89.527245ZM50.64375 88.04287Q50.2375 88.04287 49.971874 88.38662Q49.721874 88.73037 49.721874 89.63662Q49.721874 90.44912 49.9875 90.79287Q50.253124 91.13662 50.64375 91.13662Q51.034374 91.13662 51.3 90.79287Q51.565624 90.44912 51.565624 89.54287Q51.565624 88.714745 51.3 88.38662Q51.034374 88.04287 50.64375 88.04287Z" fill-rule="nonzero"/><path stroke="#757575" stroke-width="1.0" stroke-linecap="butt" d="M18.55 79.04287L180.73334 79.04287L268.8783 79.04287" fill-rule="nonzero"/><path fill="#9e9e9e" d="M270.8783 79.04287C270.8783 77.9383 269.98285 77.04287 268.8783 77.04287C267.7737 77.04287 266.8783 77.9383 266.8783 79.04287C266.8783 80.14744 267.7737 81.04287 268.8783 81.04287C269.98285 81.04287 270.8783 80.14744 270.8783 79.04287" fill-rule="nonzero"/><path fill="#1a1a1a" d="M19.096874 263.03943L20.159374 262.94568Q20.2375 263.60193 20.51875 264.00818Q20.8 264.41443 21.378124 264.68005Q21.971874 264.93005 22.70625 264.93005Q23.346874 264.93005 23.846874 264.74255Q24.346874 264.53943 24.58125 264.2113Q24.83125 263.86755 24.83125 263.47693Q24.83125 263.07068 24.596874 262.7738Q24.3625 262.4613 23.83125 262.25818Q23.471874 262.11755 22.284374 261.8363Q21.1125 261.55505 20.64375 261.30505Q20.01875 260.97693 19.721874 260.50818Q19.425 260.0238 19.425 259.43005Q19.425 258.78943 19.784374 258.22693Q20.159374 257.6488 20.8625 257.36755Q21.58125 257.07068 22.440624 257.07068Q23.39375 257.07068 24.128124 257.38318Q24.8625 257.68005 25.253124 258.28943Q25.64375 258.88318 25.675 259.63318L24.58125 259.7113Q24.4875 258.8988 23.971874 258.49255Q23.471874 258.07068 22.4875 258.07068Q21.45625 258.07068 20.9875 258.44568Q20.51875 258.82068 20.51875 259.35193Q20.51875 259.82068 20.846874 260.11755Q21.175 260.41443 22.55 260.72693Q23.940624 261.03943 24.45625 261.2738Q25.20625 261.63318 25.565624 262.16443Q25.925 262.68005 25.925 263.38318Q25.925 264.07068 25.534374 264.68005Q25.14375 265.2738 24.409374 265.61755Q23.675 265.94568 22.753124 265.94568Q21.58125 265.94568 20.784374 265.61755Q20.003124 265.2738 19.55 264.5863Q19.1125 263.8988 19.096874 263.03943ZM29.64375 264.86755L29.8 265.78943Q29.346874 265.88318 29.003124 265.88318Q28.425 265.88318 28.1125 265.7113Q27.8 265.5238 27.659374 265.22693Q27.534374 264.93005 27.534374 263.97693L27.534374 260.3988L26.76875 260.3988L26.76875 259.5863L27.534374 259.5863L27.534374 258.03943L28.58125 257.41443L28.58125 259.5863L29.64375 259.5863L29.64375 260.3988L28.58125 260.3988L28.58125 264.03943Q28.58125 264.49255 28.628124 264.61755Q28.690624 264.74255 28.815624 264.82068Q28.940624 264.8988 29.175 264.8988Q29.3625 264.8988 29.64375 264.86755ZM34.409374 265.03943Q33.815624 265.53943 33.26875 265.74255Q32.7375 265.94568 32.1125 265.94568Q31.08125 265.94568 30.534374 265.44568Q29.9875 264.94568 29.9875 264.16443Q29.9875 263.7113 30.190624 263.3363Q30.39375 262.94568 30.7375 262.72693Q31.08125 262.49255 31.503124 262.38318Q31.8 262.28943 32.440624 262.2113Q33.70625 262.07068 34.315624 261.85193Q34.315624 261.63318 34.315624 261.5863Q34.315624 260.93005 34.01875 260.66443Q33.6125 260.32068 32.815624 260.32068Q32.08125 260.32068 31.721874 260.5863Q31.3625 260.8363 31.190624 261.49255L30.159374 261.35193Q30.3 260.69568 30.628124 260.28943Q30.95625 259.88318 31.565624 259.66443Q32.175 259.44568 32.971874 259.44568Q33.76875 259.44568 34.26875 259.63318Q34.76875 259.82068 35.003124 260.10193Q35.2375 260.38318 35.33125 260.82068Q35.378124 261.0863 35.378124 261.78943L35.378124 263.19568Q35.378124 264.66443 35.440624 265.05505Q35.51875 265.44568 35.721874 265.80505L34.6125 265.80505Q34.45625 265.47693 34.409374 265.03943ZM34.315624 262.68005Q33.7375 262.91443 32.596874 263.0863Q31.940624 263.18005 31.675 263.30505Q31.409374 263.41443 31.253124 263.63318Q31.1125 263.85193 31.1125 264.13318Q31.1125 264.55505 31.425 264.8363Q31.753124 265.11755 32.3625 265.11755Q32.971874 265.11755 33.440624 264.85193Q33.925 264.5863 34.14375 264.11755Q34.315624 263.75818 34.315624 263.07068L34.315624 262.68005ZM37.3 268.19568L37.175 267.2113Q37.51875 267.30505 37.784374 267.30505Q38.128124 267.30505 38.33125 267.18005Q38.55 267.07068 38.690624 266.86755Q38.784374 266.69568 39.01875 266.07068Q39.034374 265.99255 39.1125 265.82068L36.7375 259.5863L37.878124 259.5863L39.175 263.18005Q39.425 263.86755 39.628124 264.63318Q39.815624 263.8988 40.065624 263.2113L41.39375 259.5863L42.440624 259.5863L40.08125 265.91443Q39.690624 266.93005 39.4875 267.32068Q39.20625 267.85193 38.83125 268.0863Q38.471874 268.3363 37.971874 268.3363Q37.675 268.3363 37.3 268.19568ZM46.4875 265.80505L44.58125 259.5863L45.675 259.5863L46.659374 263.18005L47.034374 264.50818Q47.065624 264.41443 47.3625 263.22693L48.346874 259.5863L49.425 259.5863L50.3625 263.19568L50.675 264.38318L51.034374 263.18005L52.096874 259.5863L53.128124 259.5863L51.175 265.80505L50.08125 265.80505L49.096874 262.07068L48.846874 261.0238L47.596874 265.80505L46.4875 265.80505ZM54.346874 265.80505L54.346874 257.2113L55.39375 257.2113L55.39375 260.28943Q56.128124 259.44568 57.253124 259.44568Q57.95625 259.44568 58.45625 259.72693Q58.971874 259.99255 59.190624 260.47693Q59.409374 260.94568 59.409374 261.86755L59.409374 265.80505L58.3625 265.80505L58.3625 261.86755Q58.3625 261.07068 58.01875 260.7113Q57.675 260.35193 57.05 260.35193Q56.58125 260.35193 56.159374 260.60193Q55.753124 260.8363 55.565624 261.25818Q55.39375 261.66443 55.39375 262.3988L55.39375 265.80505L54.346874 265.80505ZM65.59688 263.80505L66.69063 263.93005Q66.44063 264.88318 65.7375 265.41443Q65.03438 265.94568 63.95625 265.94568Q62.596874 265.94568 61.784374 265.10193Q60.9875 264.25818 60.9875 262.74255Q60.9875 261.18005 61.8 260.32068Q62.6125 259.44568 63.89375 259.44568Q65.14375 259.44568 65.925 260.28943Q66.72188 261.13318 66.72188 262.68005Q66.72188 262.7738 66.72188 262.9613L62.08125 262.9613Q62.14375 263.99255 62.659374 264.53943Q63.175 265.07068 63.95625 265.07068Q64.53438 265.07068 64.94063 264.7738Q65.3625 264.4613 65.59688 263.80505ZM62.14375 262.10193L65.6125 262.10193Q65.55 261.30505 65.22188 260.91443Q64.70625 260.30505 63.909374 260.30505Q63.175 260.30505 62.675 260.78943Q62.190624 261.2738 62.14375 262.10193ZM68.33125 265.80505L68.33125 259.5863L69.28438 259.5863L69.28438 260.5238Q69.64375 259.86755 69.94063 259.66443Q70.25313 259.44568 70.62813 259.44568Q71.15938 259.44568 71.70625 259.7738L71.34688 260.75818Q70.95625 260.5238 70.58125 260.5238Q70.22188 260.5238 69.94063 260.74255Q69.675 260.94568 69.56563 261.32068Q69.37813 261.88318 69.37813 262.53943L69.37813 265.80505L68.33125 265.80505ZM76.59688 263.80505L77.69063 263.93005Q77.44063 264.88318 76.7375 265.41443Q76.03438 265.94568 74.95625 265.94568Q73.59688 265.94568 72.78438 265.10193Q71.9875 264.25818 71.9875 262.74255Q71.9875 261.18005 72.8 260.32068Q73.6125 259.44568 74.89375 259.44568Q76.14375 259.44568 76.925 260.28943Q77.72188 261.13318 77.72188 262.68005Q77.72188 262.7738 77.72188 262.9613L73.08125 262.9613Q73.14375 263.99255 73.65938 264.53943Q74.175 265.07068 74.95625 265.07068Q75.53438 265.07068 75.94063 264.7738Q76.3625 264.4613 76.59688 263.80505ZM73.14375 262.10193L76.6125 262.10193Q76.55 261.30505 76.22188 260.91443Q75.70625 260.30505 74.90938 260.30505Q74.175 260.30505 73.675 260.78943Q73.19063 261.2738 73.14375 262.10193ZM82.3 268.19568L82.175 267.2113Q82.51875 267.30505 82.78438 267.30505Q83.12813 267.30505 83.33125 267.18005Q83.55 267.07068 83.69063 266.86755Q83.78438 266.69568 84.01875 266.07068Q84.03438 265.99255 84.1125 265.82068L81.7375 259.5863L82.87813 259.5863L84.175 263.18005Q84.425 263.86755 84.62813 264.63318Q84.81563 263.8988 85.06563 263.2113L86.39375 259.5863L87.44063 259.5863L85.08125 265.91443Q84.69063 266.93005 84.4875 267.32068Q84.20625 267.85193 83.83125 268.0863Q83.47188 268.3363 82.97188 268.3363Q82.675 268.3363 82.3 268.19568ZM86.95625 262.69568Q86.95625 260.9613 87.90938 260.13318Q88.70625 259.44568 89.8625 259.44568Q91.14375 259.44568 91.95625 260.28943Q92.78438 261.11755 92.78438 262.60193Q92.78438 263.80505 92.425 264.49255Q92.06563 265.18005 91.3625 265.57068Q90.675 265.94568 89.8625 265.94568Q88.56563 265.94568 87.75313 265.11755Q86.95625 264.2738 86.95625 262.69568ZM88.03438 262.69568Q88.03438 263.88318 88.55 264.47693Q89.08125 265.07068 89.8625 265.07068Q90.65938 265.07068 91.175 264.47693Q91.69063 263.88318 91.69063 262.66443Q91.69063 261.50818 91.15938 260.91443Q90.64375 260.32068 89.8625 260.32068Q89.08125 260.32068 88.55 260.91443Q88.03438 261.49255 88.03438 262.69568ZM98.425 265.80505L98.425 264.88318Q97.69063 265.94568 96.44063 265.94568Q95.89375 265.94568 95.40938 265.74255Q94.94063 265.5238 94.70625 265.2113Q94.47188 264.88318 94.37813 264.41443Q94.31563 264.11755 94.31563 263.43005L94.31563 259.5863L95.37813 259.5863L95.37813 263.03943Q95.37813 263.85193 95.44063 264.1488Q95.53438 264.55505 95.84688 264.80505Q96.175 265.03943 96.65938 265.03943Q97.12813 265.03943 97.53438 264.80505Q97.95625 264.55505 98.12813 264.13318Q98.31563 263.7113 98.31563 262.91443L98.31563 259.5863L99.3625 259.5863L99.3625 265.80505L98.425 265.80505ZM108.40938 265.03943Q107.81563 265.53943 107.26875 265.74255Q106.7375 265.94568 106.1125 265.94568Q105.08125 265.94568 104.53438 265.44568Q103.9875 264.94568 103.9875 264.16443Q103.9875 263.7113 104.19063 263.3363Q104.39375 262.94568 104.7375 262.72693Q105.08125 262.49255 105.50313 262.38318Q105.8 262.28943 106.44063 262.2113Q107.70625 262.07068 108.31563 261.85193Q108.31563 261.63318 108.31563 261.5863Q108.31563 260.93005 108.01875 260.66443Q107.6125 260.32068 106.81563 260.32068Q106.08125 260.32068 105.72188 260.5863Q105.3625 260.8363 105.19063 261.49255L104.15938 261.35193Q104.3 260.69568 104.62813 260.28943Q104.95625 259.88318 105.56563 259.66443Q106.175 259.44568 106.97188 259.44568Q107.76875 259.44568 108.26875 259.63318Q108.76875 259.82068 109.00313 260.10193Q109.2375 260.38318 109.33125 260.82068Q109.37813 261.0863 109.37813 261.78943L109.37813 263.19568Q109.37813 264.66443 109.44063 265.05505Q109.51875 265.44568 109.72188 265.80505L108.6125 265.80505Q108.45625 265.47693 108.40938 265.03943ZM108.31563 262.68005Q107.7375 262.91443 106.59688 263.0863Q105.94063 263.18005 105.675 263.30505Q105.40938 263.41443 105.25313 263.63318Q105.1125 263.85193 105.1125 264.13318Q105.1125 264.55505 105.425 264.8363Q105.75313 265.11755 106.3625 265.11755Q106.97188 265.11755 107.44063 264.85193Q107.925 264.5863 108.14375 264.11755Q108.31563 263.75818 108.31563 263.07068L108.31563 262.68005ZM111.33125 265.80505L111.33125 259.5863L112.28438 259.5863L112.28438 260.5238Q112.64375 259.86755 112.94063 259.66443Q113.25313 259.44568 113.62813 259.44568Q114.15938 259.44568 114.70625 259.7738L114.34688 260.75818Q113.95625 260.5238 113.58125 260.5238Q113.22188 260.5238 112.94063 260.74255Q112.675 260.94568 112.56563 261.32068Q112.37813 261.88318 112.37813 262.53943L112.37813 265.80505L111.33125 265.80505ZM119.59688 263.80505L120.69063 263.93005Q120.44063 264.88318 119.7375 265.41443Q119.03438 265.94568 117.95625 265.94568Q116.59688 265.94568 115.78438 265.10193Q114.9875 264.25818 114.9875 262.74255Q114.9875 261.18005 115.8 260.32068Q116.6125 259.44568 117.89375 259.44568Q119.14375 259.44568 119.925 260.28943Q120.72188 261.13318 120.72188 262.68005Q120.72188 262.7738 120.72188 262.9613L116.08125 262.9613Q116.14375 263.99255 116.65938 264.53943Q117.175 265.07068 117.95625 265.07068Q118.53438 265.07068 118.94063 264.7738Q119.3625 264.4613 119.59688 263.80505ZM116.14375 262.10193L119.6125 262.10193Q119.55 261.30505 119.22188 260.91443Q118.70625 260.30505 117.90938 260.30505Q117.175 260.30505 116.675 260.78943Q116.19063 261.2738 116.14375 262.10193ZM129.40938 265.03943Q128.81563 265.53943 128.26875 265.74255Q127.7375 265.94568 127.1125 265.94568Q126.08125 265.94568 125.53438 265.44568Q124.9875 264.94568 124.9875 264.16443Q124.9875 263.7113 125.19063 263.3363Q125.39375 262.94568 125.7375 262.72693Q126.08125 262.49255 126.50313 262.38318Q126.8 262.28943 127.44063 262.2113Q128.70625 262.07068 129.31563 261.85193Q129.31563 261.63318 129.31563 261.5863Q129.31563 260.93005 129.01875 260.66443Q128.6125 260.32068 127.81563 260.32068Q127.08125 260.32068 126.72188 260.5863Q126.3625 260.8363 126.19063 261.49255L125.15938 261.35193Q125.3 260.69568 125.62813 260.28943Q125.95625 259.88318 126.56563 259.66443Q127.175 259.44568 127.97188 259.44568Q128.76875 259.44568 129.26875 259.63318Q129.76875 259.82068 130.00313 260.10193Q130.2375 260.38318 130.33125 260.82068Q130.37813 261.0863 130.37813 261.78943L130.37813 263.19568Q130.37813 264.66443 130.44063 265.05505Q130.51875 265.44568 130.72188 265.80505L129.6125 265.80505Q129.45625 265.47693 129.40938 265.03943ZM129.31563 262.68005Q128.7375 262.91443 127.59688 263.0863Q126.94063 263.18005 126.675 263.30505Q126.40938 263.41443 126.25313 263.63318Q126.1125 263.85193 126.1125 264.13318Q126.1125 264.55505 126.425 264.8363Q126.75313 265.11755 127.3625 265.11755Q127.97188 265.11755 128.44063 264.85193Q128.925 264.5863 129.14375 264.11755Q129.31563 263.75818 129.31563 263.07068L129.31563 262.68005ZM134.64375 264.86755L134.8 265.78943Q134.34688 265.88318 134.00313 265.88318Q133.425 265.88318 133.1125 265.7113Q132.8 265.5238 132.65938 265.22693Q132.53438 264.93005 132.53438 263.97693L132.53438 260.3988L131.76875 260.3988L131.76875 259.5863L132.53438 259.5863L132.53438 258.03943L133.58125 257.41443L133.58125 259.5863L134.64375 259.5863L134.64375 260.3988L133.58125 260.3988L133.58125 264.03943Q133.58125 264.49255 133.62813 264.61755Q133.69063 264.74255 133.81563 264.82068Q133.94063 264.8988 134.175 264.8988Q134.3625 264.8988 134.64375 264.86755Z" fill-rule="nonzero"/><path fill="#9e9e9e" d="M19.05 280.53943L20.1125 280.3988Q20.284374 281.28943 20.721874 281.69568Q21.159374 282.0863 21.784374 282.0863Q22.534374 282.0863 23.05 281.57068Q23.565624 281.05505 23.565624 280.28943Q23.565624 279.57068 23.08125 279.10193Q22.6125 278.61755 21.878124 278.61755Q21.58125 278.61755 21.128124 278.74255L21.253124 277.80505Q21.3625 277.82068 21.425 277.82068Q22.096874 277.82068 22.628124 277.47693Q23.175 277.11755 23.175 276.38318Q23.175 275.80505 22.784374 275.43005Q22.39375 275.03943 21.76875 275.03943Q21.159374 275.03943 20.7375 275.43005Q20.33125 275.82068 20.221874 276.5863L19.159374 276.3988Q19.346874 275.35193 20.034374 274.7738Q20.721874 274.18005 21.7375 274.18005Q22.440624 274.18005 23.034374 274.49255Q23.628124 274.78943 23.940624 275.30505Q24.253124 275.82068 24.253124 276.41443Q24.253124 276.9613 23.95625 277.43005Q23.659374 277.88318 23.08125 278.1488Q23.83125 278.32068 24.253124 278.88318Q24.675 279.43005 24.675 280.2738Q24.675 281.3988 23.846874 282.18005Q23.034374 282.9613 21.784374 282.9613Q20.659374 282.9613 19.909374 282.28943Q19.159374 281.60193 19.05 280.53943ZM29.425 282.80505L29.425 280.74255L25.70625 280.74255L25.70625 279.7738L29.628124 274.2113L30.4875 274.2113L30.4875 279.7738L31.64375 279.7738L31.64375 280.74255L30.4875 280.74255L30.4875 282.80505L29.425 282.80505ZM29.425 279.7738L29.425 275.91443L26.7375 279.7738L29.425 279.7738ZM33.64375 282.80505L33.64375 281.60193L34.846874 281.60193L34.846874 282.80505L33.64375 282.80505ZM39.425 282.80505L39.425 280.74255L35.70625 280.74255L35.70625 279.7738L39.628124 274.2113L40.4875 274.2113L40.4875 279.7738L41.64375 279.7738L41.64375 280.74255L40.4875 280.74255L40.4875 282.80505L39.425 282.80505ZM39.425 279.7738L39.425 275.91443L36.7375 279.7738L39.425 279.7738ZM43.253124 276.2738Q43.253124 275.35193 43.70625 274.7113Q44.175 274.07068 45.05 274.07068Q45.8625 274.07068 46.39375 274.6488Q46.925 275.22693 46.925 276.3363Q46.925 277.43005 46.378124 278.0238Q45.846874 278.60193 45.065624 278.60193Q44.284374 278.60193 43.76875 278.0238Q43.253124 277.44568 43.253124 276.2738ZM45.08125 274.78943Q44.690624 274.78943 44.425 275.13318Q44.175 275.47693 44.175 276.38318Q44.175 277.2113 44.425 277.55505Q44.690624 277.88318 45.08125 277.88318Q45.4875 277.88318 45.7375 277.53943Q46.003124 277.19568 46.003124 276.30505Q46.003124 275.4613 45.7375 275.13318Q45.471874 274.78943 45.08125 274.78943ZM45.08125 283.11755L49.784374 274.07068L50.64375 274.07068L45.95625 283.11755L45.08125 283.11755ZM48.8 280.78943Q48.8 279.86755 49.253124 279.22693Q49.721874 278.5863 50.6125 278.5863Q51.425 278.5863 51.95625 279.16443Q52.4875 279.72693 52.4875 280.85193Q52.4875 281.94568 51.940624 282.53943Q51.409374 283.11755 50.6125 283.11755Q49.846874 283.11755 49.315624 282.53943Q48.8 281.9613 48.8 280.78943ZM50.64375 279.30505Q50.2375 279.30505 49.971874 279.6488Q49.721874 279.99255 49.721874 280.8988Q49.721874 281.7113 49.9875 282.05505Q50.253124 282.3988 50.64375 282.3988Q51.034374 282.3988 51.3 282.05505Q51.565624 281.7113 51.565624 280.80505Q51.565624 279.97693 51.3 279.6488Q51.034374 279.30505 50.64375 279.30505Z" fill-rule="nonzero"/><path stroke="#757575" stroke-width="1.0" stroke-linecap="butt" d="M18.55 270.30505L180.73334 270.30505L210.85954 270.30505" fill-rule="nonzero"/><path fill="#9e9e9e" d="M212.85954 270.30505C212.85954 269.20047 211.96411 268.30505 210.85954 268.30505C209.75497 268.30505 208.85954 269.20047 208.85954 270.30505C208.85954 271.4096 209.75497 272.30505 210.85954 272.30505C211.96411 272.30505 212.85954 271.4096 212.85954 270.30505" fill-rule="nonzero"/><path fill="#1a1a1a" d="M495.40314 129.18661L495.40314 128.18661L499.02814 128.17099L499.02814 131.35849Q498.2 132.03036 497.3094 132.37411Q496.41876 132.70224 495.48126 132.70224Q494.21564 132.70224 493.16876 132.17099Q492.1375 131.62411 491.60626 130.60849Q491.09064 129.57724 491.09064 128.31161Q491.09064 127.04599 491.60626 125.967865Q492.1375 124.874115 493.1219 124.35849Q494.10626 123.82724 495.3875 123.82724Q496.325 123.82724 497.075 124.124115Q497.825 124.42099 498.2469 124.967865Q498.6844 125.499115 498.90314 126.374115L497.8875 126.655365Q497.6844 125.999115 497.3875 125.624115Q497.10626 125.249115 496.575 125.030365Q496.04376 124.79599 495.40314 124.79599Q494.6219 124.79599 494.04376 125.030365Q493.48126 125.26474 493.1219 125.655365Q492.77814 126.04599 492.59064 126.51474Q492.2625 127.311615 492.2625 128.23349Q492.2625 129.38974 492.65314 130.17099Q493.0594 130.93661 493.8094 131.31161Q494.5594 131.68661 495.41876 131.68661Q496.15314 131.68661 496.85626 131.40536Q497.5594 131.10849 497.91876 130.79599L497.91876 129.18661L495.40314 129.18661ZM499.85626 129.45224Q499.85626 127.717865 500.8094 126.88974Q501.60626 126.20224 502.7625 126.20224Q504.04376 126.20224 504.85626 127.04599Q505.6844 127.874115 505.6844 129.35849Q505.6844 130.56161 505.325 131.24911Q504.96564 131.93661 504.2625 132.32724Q503.575 132.70224 502.7625 132.70224Q501.46564 132.70224 500.65314 131.87411Q499.85626 131.03036 499.85626 129.45224ZM500.9344 129.45224Q500.9344 130.63974 501.45 131.23349Q501.98126 131.82724 502.7625 131.82724Q503.5594 131.82724 504.075 131.23349Q504.59064 130.63974 504.59064 129.42099Q504.59064 128.26474 504.0594 127.67099Q503.54376 127.07724 502.7625 127.07724Q501.98126 127.07724 501.45 127.67099Q500.9344 128.24911 500.9344 129.45224ZM511.21564 132.56161L510.23126 132.56161L510.23126 123.967865L511.29376 123.967865L511.29376 127.030365Q511.96564 126.20224 512.9969 126.20224Q513.575 126.20224 514.075 126.436615Q514.59064 126.655365 514.91876 127.07724Q515.2625 127.499115 515.45 128.09286Q515.6375 128.68661 515.6375 129.35849Q515.6375 130.95224 514.84064 131.82724Q514.04376 132.70224 512.95 132.70224Q511.84064 132.70224 511.21564 131.78036L511.21564 132.56161ZM511.2 129.40536Q511.2 130.51474 511.5125 131.01474Q512.0125 131.82724 512.85626 131.82724Q513.54376 131.82724 514.04376 131.23349Q514.5594 130.63974 514.5594 129.43661Q514.5594 128.21786 514.075 127.63974Q513.59064 127.061615 512.90314 127.061615Q512.21564 127.061615 511.7 127.67099Q511.2 128.26474 511.2 129.40536ZM521.3094 131.79599Q520.71564 132.29599 520.16876 132.49911Q519.6375 132.70224 519.0125 132.70224Q517.98126 132.70224 517.4344 132.20224Q516.8875 131.70224 516.8875 130.92099Q516.8875 130.46786 517.09064 130.09286Q517.29376 129.70224 517.6375 129.48349Q517.98126 129.24911 518.40314 129.13974Q518.7 129.04599 519.34064 128.96786Q520.60626 128.82724 521.21564 128.60849Q521.21564 128.38974 521.21564 128.34286Q521.21564 127.686615 520.91876 127.42099Q520.5125 127.07724 519.71564 127.07724Q518.98126 127.07724 518.6219 127.342865Q518.2625 127.592865 518.09064 128.24911L517.0594 128.10849Q517.2 127.45224 517.52814 127.04599Q517.85626 126.63974 518.46564 126.42099Q519.075 126.20224 519.8719 126.20224Q520.66876 126.20224 521.16876 126.38974Q521.66876 126.57724 521.90314 126.85849Q522.1375 127.13974 522.23126 127.57724Q522.27814 127.842865 522.27814 128.54599L522.27814 129.95224Q522.27814 131.42099 522.34064 131.81161Q522.41876 132.20224 522.6219 132.56161L521.5125 132.56161Q521.35626 132.23349 521.3094 131.79599ZM521.21564 129.43661Q520.6375 129.67099 519.4969 129.84286Q518.84064 129.93661 518.575 130.06161Q518.3094 130.17099 518.15314 130.38974Q518.0125 130.60849 518.0125 130.88974Q518.0125 131.31161 518.325 131.59286Q518.65314 131.87411 519.2625 131.87411Q519.8719 131.87411 520.34064 131.60849Q520.825 131.34286 521.04376 130.87411Q521.21564 130.51474 521.21564 129.82724L521.21564 129.43661ZM528.3094 130.28036L529.34064 130.42099Q529.16876 131.48349 528.46564 132.09286Q527.7625 132.70224 526.7469 132.70224Q525.46564 132.70224 524.6844 131.87411Q523.91876 131.03036 523.91876 129.46786Q523.91876 128.46786 524.2469 127.717865Q524.59064 126.95224 525.2625 126.57724Q525.95 126.20224 526.7625 126.20224Q527.7625 126.20224 528.40314 126.717865Q529.0594 127.217865 529.2469 128.17099L528.21564 128.32724Q528.075 127.70224 527.7 127.38974Q527.325 127.061615 526.79376 127.061615Q525.9969 127.061615 525.4969 127.63974Q524.9969 128.20224 524.9969 129.43661Q524.9969 130.70224 525.48126 131.26474Q525.96564 131.82724 526.73126 131.82724Q527.35626 131.82724 527.7625 131.45224Q528.1844 131.07724 528.3094 130.28036ZM530.2469 132.56161L530.2469 123.967865L531.3094 123.967865L531.3094 128.87411L533.79376 126.342865L535.16876 126.342865L532.77814 128.63974L535.40314 132.56161L534.10626 132.56161L532.04376 129.37411L531.3094 130.09286L531.3094 132.56161L530.2469 132.56161ZM541.54376 131.62411L541.7 132.54599Q541.2469 132.63974 540.90314 132.63974Q540.325 132.63974 540.0125 132.46786Q539.7 132.28036 539.5594 131.98349Q539.4344 131.68661 539.4344 130.73349L539.4344 127.155365L538.66876 127.155365L538.66876 126.342865L539.4344 126.342865L539.4344 124.79599L540.48126 124.17099L540.48126 126.342865L541.54376 126.342865L541.54376 127.155365L540.48126 127.155365L540.48126 130.79599Q540.48126 131.24911 540.52814 131.37411Q540.59064 131.49911 540.71564 131.57724Q540.84064 131.65536 541.075 131.65536Q541.2625 131.65536 541.54376 131.62411ZM541.85626 129.45224Q541.85626 127.717865 542.8094 126.88974Q543.60626 126.20224 544.7625 126.20224Q546.04376 126.20224 546.85626 127.04599Q547.6844 127.874115 547.6844 129.35849Q547.6844 130.56161 547.325 131.24911Q546.96564 131.93661 546.2625 132.32724Q545.575 132.70224 544.7625 132.70224Q543.46564 132.70224 542.65314 131.87411Q541.85626 131.03036 541.85626 129.45224ZM542.9344 129.45224Q542.9344 130.63974 543.45 131.23349Q543.98126 131.82724 544.7625 131.82724Q545.5594 131.82724 546.075 131.23349Q546.59064 130.63974 546.59064 129.42099Q546.59064 128.26474 546.0594 127.67099Q545.54376 127.07724 544.7625 127.07724Q543.98126 127.07724 543.45 127.67099Q542.9344 128.24911 542.9344 129.45224ZM556.4969 130.56161L557.59064 130.68661Q557.34064 131.63974 556.6375 132.17099Q555.9344 132.70224 554.85626 132.70224Q553.4969 132.70224 552.6844 131.85849Q551.8875 131.01474 551.8875 129.49911Q551.8875 127.936615 552.7 127.07724Q553.5125 126.20224 554.79376 126.20224Q556.04376 126.20224 556.825 127.04599Q557.6219 127.88974 557.6219 129.43661Q557.6219 129.53036 557.6219 129.71786L552.98126 129.71786Q553.04376 130.74911 553.5594 131.29599Q554.075 131.82724 554.85626 131.82724Q555.4344 131.82724 555.84064 131.53036Q556.2625 131.21786 556.4969 130.56161ZM553.04376 128.85849L556.5125 128.85849Q556.45 128.06161 556.1219 127.67099Q555.60626 127.061615 554.8094 127.061615Q554.075 127.061615 553.575 127.54599Q553.09064 128.03036 553.04376 128.85849ZM559.21564 132.56161L559.21564 123.967865L560.27814 123.967865L560.27814 132.56161L559.21564 132.56161ZM566.4969 130.56161L567.59064 130.68661Q567.34064 131.63974 566.6375 132.17099Q565.9344 132.70224 564.85626 132.70224Q563.4969 132.70224 562.6844 131.85849Q561.8875 131.01474 561.8875 129.49911Q561.8875 127.936615 562.7 127.07724Q563.5125 126.20224 564.79376 126.20224Q566.04376 126.20224 566.825 127.04599Q567.6219 127.88974 567.6219 129.43661Q567.6219 129.53036 567.6219 129.71786L562.98126 129.71786Q563.04376 130.74911 563.5594 131.29599Q564.075 131.82724 564.85626 131.82724Q565.4344 131.82724 565.84064 131.53036Q566.2625 131.21786 566.4969 130.56161ZM563.04376 128.85849L566.5125 128.85849Q566.45 128.06161 566.1219 127.67099Q565.60626 127.061615 564.8094 127.061615Q564.075 127.061615 563.575 127.54599Q563.09064 128.03036 563.04376 128.85849ZM569.2469 132.56161L569.2469 126.342865L570.1844 126.342865L570.1844 127.217865Q570.48126 126.749115 570.96564 126.48349Q571.45 126.20224 572.075 126.20224Q572.7625 126.20224 573.2 126.48349Q573.65314 126.76474 573.825 127.280365Q574.575 126.20224 575.7469 126.20224Q576.6844 126.20224 577.16876 126.717865Q577.66876 127.217865 577.66876 128.29599L577.66876 132.56161L576.6219 132.56161L576.6219 128.63974Q576.6219 128.01474 576.5125 127.73349Q576.41876 127.45224 576.15314 127.280365Q575.8875 127.10849 575.5125 127.10849Q574.85626 127.10849 574.41876 127.54599Q573.9969 127.98349 573.9969 128.95224L573.9969 132.56161L572.9344 132.56161L572.9344 128.51474Q572.9344 127.811615 572.66876 127.467865Q572.41876 127.10849 571.84064 127.10849Q571.3875 127.10849 571.0125 127.342865Q570.6375 127.57724 570.46564 128.03036Q570.29376 128.48349 570.29376 129.32724L570.29376 132.56161L569.2469 132.56161ZM584.4969 130.56161L585.59064 130.68661Q585.34064 131.63974 584.6375 132.17099Q583.9344 132.70224 582.85626 132.70224Q581.4969 132.70224 580.6844 131.85849Q579.8875 131.01474 579.8875 129.49911Q579.8875 127.936615 580.7 127.07724Q581.5125 126.20224 582.79376 126.20224Q584.04376 126.20224 584.825 127.04599Q585.6219 127.88974 585.6219 129.43661Q585.6219 129.53036 585.6219 129.71786L580.98126 129.71786Q581.04376 130.74911 581.5594 131.29599Q582.075 131.82724 582.85626 131.82724Q583.4344 131.82724 583.84064 131.53036Q584.2625 131.21786 584.4969 130.56161ZM581.04376 128.85849L584.5125 128.85849Q584.45 128.06161 584.1219 127.67099Q583.60626 127.061615 582.8094 127.061615Q582.075 127.061615 581.575 127.54599Q581.09064 128.03036 581.04376 128.85849ZM587.2469 132.56161L587.2469 126.342865L588.1844 126.342865L588.1844 127.217865Q588.8719 126.20224 590.16876 126.20224Q590.73126 126.20224 591.2 126.405365Q591.6844 126.60849 591.91876 126.936615Q592.15314 127.26474 592.2469 127.70224Q592.29376 127.999115 592.29376 128.73349L592.29376 132.56161L591.2469 132.56161L591.2469 128.78036Q591.2469 128.12411 591.1219 127.811615Q590.9969 127.499115 590.6844 127.311615Q590.3719 127.10849 589.95 127.10849Q589.27814 127.10849 588.77814 127.54599Q588.29376 127.967865 588.29376 129.15536L588.29376 132.56161L587.2469 132.56161ZM596.54376 131.62411L596.7 132.54599Q596.2469 132.63974 595.90314 132.63974Q595.325 132.63974 595.0125 132.46786Q594.7 132.28036 594.5594 131.98349Q594.4344 131.68661 594.4344 130.73349L594.4344 127.155365L593.66876 127.155365L593.66876 126.342865L594.4344 126.342865L594.4344 124.79599L595.48126 124.17099L595.48126 126.342865L596.54376 126.342865L596.54376 127.155365L595.48126 127.155365L595.48126 130.79599Q595.48126 131.24911 595.52814 131.37411Q595.59064 131.49911 595.71564 131.57724Q595.84064 131.65536 596.075 131.65536Q596.2625 131.65536 596.54376 131.62411ZM601.3094 131.79599Q600.71564 132.29599 600.16876 132.49911Q599.6375 132.70224 599.0125 132.70224Q597.98126 132.70224 597.4344 132.20224Q596.8875 131.70224 596.8875 130.92099Q596.8875 130.46786 597.09064 130.09286Q597.29376 129.70224 597.6375 129.48349Q597.98126 129.24911 598.40314 129.13974Q598.7 129.04599 599.34064 128.96786Q600.60626 128.82724 601.21564 128.60849Q601.21564 128.38974 601.21564 128.34286Q601.21564 127.686615 600.91876 127.42099Q600.5125 127.07724 599.71564 127.07724Q598.98126 127.07724 598.6219 127.342865Q598.2625 127.592865 598.09064 128.24911L597.0594 128.10849Q597.2 127.45224 597.52814 127.04599Q597.85626 126.63974 598.46564 126.42099Q599.075 126.20224 599.8719 126.20224Q600.66876 126.20224 601.16876 126.38974Q601.66876 126.57724 601.90314 126.85849Q602.1375 127.13974 602.23126 127.57724Q602.27814 127.842865 602.27814 128.54599L602.27814 129.95224Q602.27814 131.42099 602.34064 131.81161Q602.41876 132.20224 602.6219 132.56161L601.5125 132.56161Q601.35626 132.23349 601.3094 131.79599ZM601.21564 129.43661Q600.6375 129.67099 599.4969 129.84286Q598.84064 129.93661 598.575 130.06161Q598.3094 130.17099 598.15314 130.38974Q598.0125 130.60849 598.0125 130.88974Q598.0125 131.31161 598.325 131.59286Q598.65314 131.87411 599.2625 131.87411Q599.8719 131.87411 600.34064 131.60849Q600.825 131.34286 601.04376 130.87411Q601.21564 130.51474 601.21564 129.82724L601.21564 129.43661ZM604.23126 132.56161L604.23126 126.342865L605.1844 126.342865L605.1844 127.280365Q605.54376 126.624115 605.84064 126.42099Q606.15314 126.20224 606.52814 126.20224Q607.0594 126.20224 607.60626 126.530365L607.2469 127.51474Q606.85626 127.280365 606.48126 127.280365Q606.1219 127.280365 605.84064 127.499115Q605.575 127.70224 605.46564 128.07724Q605.27814 128.63974 605.27814 129.29599L605.27814 132.56161L604.23126 132.56161ZM608.2 134.95224L608.075 133.96786Q608.41876 134.06161 608.6844 134.06161Q609.02814 134.06161 609.23126 133.93661Q609.45 133.82724 609.59064 133.62411Q609.6844 133.45224 609.91876 132.82724Q609.9344 132.74911 610.0125 132.57724L607.6375 126.342865L608.77814 126.342865L610.075 129.93661Q610.325 130.62411 610.52814 131.38974Q610.71564 130.65536 610.96564 129.96786L612.29376 126.342865L613.34064 126.342865L610.98126 132.67099Q610.59064 133.68661 610.3875 134.07724Q610.10626 134.60849 609.73126 134.84286Q609.3719 135.09286 608.8719 135.09286Q608.575 135.09286 608.2 134.95224ZM615.825 130.70224L616.85626 130.54599Q616.95 131.17099 617.34064 131.49911Q617.7469 131.82724 618.48126 131.82724Q619.2 131.82724 619.54376 131.54599Q619.90314 131.24911 619.90314 130.84286Q619.90314 130.48349 619.59064 130.28036Q619.3719 130.13974 618.5125 129.92099Q617.35626 129.62411 616.90314 129.42099Q616.46564 129.20224 616.23126 128.82724Q615.9969 128.45224 615.9969 127.98349Q615.9969 127.57724 616.1844 127.217865Q616.3719 126.85849 616.7 126.624115Q616.95 126.45224 617.3719 126.32724Q617.79376 126.20224 618.29376 126.20224Q619.0125 126.20224 619.5594 126.42099Q620.1219 126.624115 620.3875 126.98349Q620.65314 127.342865 620.7469 127.936615L619.71564 128.07724Q619.65314 127.60849 619.3094 127.342865Q618.98126 127.061615 618.35626 127.061615Q617.6375 127.061615 617.325 127.311615Q617.0125 127.54599 617.0125 127.874115Q617.0125 128.07724 617.1375 128.23349Q617.27814 128.40536 617.54376 128.51474Q617.7 128.57724 618.48126 128.78036Q619.60626 129.09286 620.04376 129.28036Q620.48126 129.46786 620.73126 129.82724Q620.98126 130.18661 620.98126 130.73349Q620.98126 131.26474 620.66876 131.73349Q620.3719 132.18661 619.79376 132.45224Q619.21564 132.70224 618.48126 132.70224Q617.2625 132.70224 616.6219 132.20224Q615.9969 131.68661 615.825 130.70224ZM627.3094 130.28036L628.34064 130.42099Q628.16876 131.48349 627.46564 132.09286Q626.7625 132.70224 625.7469 132.70224Q624.46564 132.70224 623.6844 131.87411Q622.91876 131.03036 622.91876 129.46786Q622.91876 128.46786 623.2469 127.717865Q623.59064 126.95224 624.2625 126.57724Q624.95 126.20224 625.7625 126.20224Q626.7625 126.20224 627.40314 126.717865Q628.0594 127.217865 628.2469 128.17099L627.21564 128.32724Q627.075 127.70224 626.7 127.38974Q626.325 127.061615 625.79376 127.061615Q624.9969 127.061615 624.4969 127.63974Q623.9969 128.20224 623.9969 129.43661Q623.9969 130.70224 624.48126 131.26474Q624.96564 131.82724 625.73126 131.82724Q626.35626 131.82724 626.7625 131.45224Q627.1844 131.07724 627.3094 130.28036ZM629.2469 132.56161L629.2469 123.967865L630.29376 123.967865L630.29376 127.04599Q631.02814 126.20224 632.15314 126.20224Q632.85626 126.20224 633.35626 126.48349Q633.8719 126.749115 634.09064 127.23349Q634.3094 127.70224 634.3094 128.62411L634.3094 132.56161L633.2625 132.56161L633.2625 128.62411Q633.2625 127.82724 632.91876 127.467865Q632.575 127.10849 631.95 127.10849Q631.48126 127.10849 631.0594 127.35849Q630.65314 127.592865 630.46564 128.01474Q630.29376 128.42099 630.29376 129.15536L630.29376 132.56161L629.2469 132.56161ZM635.85626 129.45224Q635.85626 127.717865 636.8094 126.88974Q637.60626 126.20224 638.7625 126.20224Q640.04376 126.20224 640.85626 127.04599Q641.6844 127.874115 641.6844 129.35849Q641.6844 130.56161 641.325 131.24911Q640.96564 131.93661 640.2625 132.32724Q639.575 132.70224 638.7625 132.70224Q637.46564 132.70224 636.65314 131.87411Q635.85626 131.03036 635.85626 129.45224ZM636.9344 129.45224Q636.9344 130.63974 637.45 131.23349Q637.98126 131.82724 638.7625 131.82724Q639.5594 131.82724 640.075 131.23349Q640.59064 130.63974 640.59064 129.42099Q640.59064 128.26474 640.0594 127.67099Q639.54376 127.07724 638.7625 127.07724Q637.98126 127.07724 637.45 127.67099Q636.9344 128.24911 636.9344 129.45224ZM642.85626 129.45224Q642.85626 127.717865 643.8094 126.88974Q644.60626 126.20224 645.7625 126.20224Q647.04376 126.20224 647.85626 127.04599Q648.6844 127.874115 648.6844 129.35849Q648.6844 130.56161 648.325 131.24911Q647.96564 131.93661 647.2625 132.32724Q646.575 132.70224 645.7625 132.70224Q644.46564 132.70224 643.65314 131.87411Q642.85626 131.03036 642.85626 129.45224ZM643.9344 129.45224Q643.9344 130.63974 644.45 131.23349Q644.98126 131.82724 645.7625 131.82724Q646.5594 131.82724 647.075 131.23349Q647.59064 130.63974 647.59064 129.42099Q647.59064 128.26474 647.0594 127.67099Q646.54376 127.07724 645.7625 127.07724Q644.98126 127.07724 644.45 127.67099Q643.9344 128.24911 643.9344 129.45224ZM650.21564 132.56161L650.21564 123.967865L651.27814 123.967865L651.27814 132.56161L650.21564 132.56161Z" fill-rule="nonzero"/><path fill="#9e9e9e" d="M617.95 147.29599L619.0125 147.15536Q619.1844 148.04599 619.6219 148.45224Q620.0594 148.84286 620.6844 148.84286Q621.4344 148.84286 621.95 148.32724Q622.46564 147.81161 622.46564 147.04599Q622.46564 146.32724 621.98126 145.85849Q621.5125 145.37411 620.77814 145.37411Q620.48126 145.37411 620.02814 145.49911L620.15314 144.56161Q620.2625 144.57724 620.325 144.57724Q620.9969 144.57724 621.52814 144.23349Q622.075 143.87411 622.075 143.13974Q622.075 142.56161 621.6844 142.18661Q621.29376 141.79599 620.66876 141.79599Q620.0594 141.79599 619.6375 142.18661Q619.23126 142.57724 619.1219 143.34286L618.0594 143.15536Q618.2469 142.10849 618.9344 141.53036Q619.6219 140.93661 620.6375 140.93661Q621.34064 140.93661 621.9344 141.24911Q622.52814 141.54599 622.84064 142.06161Q623.15314 142.57724 623.15314 143.17099Q623.15314 143.71786 622.85626 144.18661Q622.5594 144.63974 621.98126 144.90536Q622.73126 145.07724 623.15314 145.63974Q623.575 146.18661 623.575 147.03036Q623.575 148.15536 622.7469 148.93661Q621.9344 149.71786 620.6844 149.71786Q619.5594 149.71786 618.8094 149.04599Q618.0594 148.35849 617.95 147.29599ZM628.325 149.56161L628.325 147.49911L624.60626 147.49911L624.60626 146.53036L628.52814 140.96786L629.3875 140.96786L629.3875 146.53036L630.54376 146.53036L630.54376 147.49911L629.3875 147.49911L629.3875 149.56161L628.325 149.56161ZM628.325 146.53036L628.325 142.67099L625.6375 146.53036L628.325 146.53036ZM632.54376 149.56161L632.54376 148.35849L633.7469 148.35849L633.7469 149.56161L632.54376 149.56161ZM638.325 149.56161L638.325 147.49911L634.60626 147.49911L634.60626 146.53036L638.52814 140.96786L639.3875 140.96786L639.3875 146.53036L640.54376 146.53036L640.54376 147.49911L639.3875 147.49911L639.3875 149.56161L638.325 149.56161ZM638.325 146.53036L638.325 142.67099L635.6375 146.53036L638.325 146.53036ZM642.15314 143.03036Q642.15314 142.10849 642.60626 141.46786Q643.075 140.82724 643.95 140.82724Q644.7625 140.82724 645.29376 141.40536Q645.825 141.98349 645.825 143.09286Q645.825 144.18661 645.27814 144.78036Q644.7469 145.35849 643.96564 145.35849Q643.1844 145.35849 642.66876 144.78036Q642.15314 144.20224 642.15314 143.03036ZM643.98126 141.54599Q643.59064 141.54599 643.325 141.88974Q643.075 142.23349 643.075 143.13974Q643.075 143.96786 643.325 144.31161Q643.59064 144.63974 643.98126 144.63974Q644.3875 144.63974 644.6375 144.29599Q644.90314 143.95224 644.90314 143.06161Q644.90314 142.21786 644.6375 141.88974Q644.3719 141.54599 643.98126 141.54599ZM643.98126 149.87411L648.6844 140.82724L649.54376 140.82724L644.85626 149.87411L643.98126 149.87411ZM647.7 147.54599Q647.7 146.62411 648.15314 145.98349Q648.6219 145.34286 649.5125 145.34286Q650.325 145.34286 650.85626 145.92099Q651.3875 146.48349 651.3875 147.60849Q651.3875 148.70224 650.84064 149.29599Q650.3094 149.87411 649.5125 149.87411Q648.7469 149.87411 648.21564 149.29599Q647.7 148.71786 647.7 147.54599ZM649.54376 146.06161Q649.1375 146.06161 648.8719 146.40536Q648.6219 146.74911 648.6219 147.65536Q648.6219 148.46786 648.8875 148.81161Q649.15314 149.15536 649.54376 149.15536Q649.9344 149.15536 650.2 148.81161Q650.46564 148.46786 650.46564 147.56161Q650.46564 146.73349 650.2 146.40536Q649.9344 146.06161 649.54376 146.06161Z" fill-rule="nonzero"/><path stroke="#757575" stroke-width="1.0" stroke-linecap="butt" d="M652.45 137.06161L490.26666 137.06161L460.14047 137.06161" fill-rule="nonzero"/><path fill="#9e9e9e" d="M462.14047 137.06161C462.14047 135.95705 461.24503 135.06161 460.14047 135.06161C459.0359 135.06161 458.14047 135.95705 458.14047 137.06161C458.14047 138.16618 459.0359 139.06161 460.14047 139.06161C461.24503 139.06161 462.14047 138.16618 462.14047 137.06161" fill-rule="nonzero"/><path fill="#1a1a1a" d="M541.4344 323.8238L541.4344 315.23004L547.23126 315.23004L547.23126 316.24567L542.575 316.24567L542.575 318.90192L546.60626 318.90192L546.60626 319.91754L542.575 319.91754L542.575 323.8238L541.4344 323.8238ZM547.85626 320.71442Q547.85626 318.98004 548.8094 318.15192Q549.60626 317.46442 550.7625 317.46442Q552.04376 317.46442 552.85626 318.30817Q553.6844 319.1363 553.6844 320.62067Q553.6844 321.8238 553.325 322.5113Q552.96564 323.1988 552.2625 323.58942Q551.575 323.96442 550.7625 323.96442Q549.46564 323.96442 548.65314 323.1363Q547.85626 322.29254 547.85626 320.71442ZM548.9344 320.71442Q548.9344 321.90192 549.45 322.49567Q549.98126 323.08942 550.7625 323.08942Q551.5594 323.08942 552.075 322.49567Q552.59064 321.90192 552.59064 320.68317Q552.59064 319.52692 552.0594 318.93317Q551.54376 318.33942 550.7625 318.33942Q549.98126 318.33942 549.45 318.93317Q548.9344 319.5113 548.9344 320.71442ZM555.23126 323.8238L555.23126 317.60504L556.1844 317.60504L556.1844 318.54254Q556.54376 317.8863 556.84064 317.68317Q557.15314 317.46442 557.52814 317.46442Q558.0594 317.46442 558.60626 317.79254L558.2469 318.77692Q557.85626 318.54254 557.48126 318.54254Q557.1219 318.54254 556.84064 318.7613Q556.575 318.96442 556.46564 319.33942Q556.27814 319.90192 556.27814 320.55817L556.27814 323.8238L555.23126 323.8238ZM560.3875 323.8238L558.48126 317.60504L559.575 317.60504L560.5594 321.1988L560.9344 322.52692Q560.96564 322.43317 561.2625 321.24567L562.2469 317.60504L563.325 317.60504L564.2625 321.21442L564.575 322.40192L564.9344 321.1988L565.9969 317.60504L567.02814 317.60504L565.075 323.8238L563.98126 323.8238L562.9969 320.08942L562.7469 319.04254L561.4969 323.8238L560.3875 323.8238ZM572.3094 323.05817Q571.71564 323.55817 571.16876 323.7613Q570.6375 323.96442 570.0125 323.96442Q568.98126 323.96442 568.4344 323.46442Q567.8875 322.96442 567.8875 322.18317Q567.8875 321.73004 568.09064 321.35504Q568.29376 320.96442 568.6375 320.74567Q568.98126 320.5113 569.40314 320.40192Q569.7 320.30817 570.34064 320.23004Q571.60626 320.08942 572.21564 319.87067Q572.21564 319.65192 572.21564 319.60504Q572.21564 318.9488 571.91876 318.68317Q571.5125 318.33942 570.71564 318.33942Q569.98126 318.33942 569.6219 318.60504Q569.2625 318.85504 569.09064 319.5113L568.0594 319.37067Q568.2 318.71442 568.52814 318.30817Q568.85626 317.90192 569.46564 317.68317Q570.075 317.46442 570.8719 317.46442Q571.66876 317.46442 572.16876 317.65192Q572.66876 317.83942 572.90314 318.12067Q573.1375 318.40192 573.23126 318.83942Q573.27814 319.10504 573.27814 319.80817L573.27814 321.21442Q573.27814 322.68317 573.34064 323.0738Q573.41876 323.46442 573.6219 323.8238L572.5125 323.8238Q572.35626 323.49567 572.3094 323.05817ZM572.21564 320.6988Q571.6375 320.93317 570.4969 321.10504Q569.84064 321.1988 569.575 321.3238Q569.3094 321.43317 569.15314 321.65192Q569.0125 321.87067 569.0125 322.15192Q569.0125 322.5738 569.325 322.85504Q569.65314 323.1363 570.2625 323.1363Q570.8719 323.1363 571.34064 322.87067Q571.825 322.60504 572.04376 322.1363Q572.21564 321.77692 572.21564 321.08942L572.21564 320.6988ZM575.23126 323.8238L575.23126 317.60504L576.1844 317.60504L576.1844 318.54254Q576.54376 317.8863 576.84064 317.68317Q577.15314 317.46442 577.52814 317.46442Q578.0594 317.46442 578.60626 317.79254L578.2469 318.77692Q577.85626 318.54254 577.48126 318.54254Q577.1219 318.54254 576.84064 318.7613Q576.575 318.96442 576.46564 319.33942Q576.27814 319.90192 576.27814 320.55817L576.27814 323.8238L575.23126 323.8238ZM583.27814 323.8238L583.27814 323.04254Q582.6844 323.96442 581.54376 323.96442Q580.79376 323.96442 580.16876 323.55817Q579.54376 323.1363 579.2 322.40192Q578.85626 321.66754 578.85626 320.71442Q578.85626 319.79254 579.16876 319.02692Q579.48126 318.2613 580.10626 317.87067Q580.73126 317.46442 581.4969 317.46442Q582.0594 317.46442 582.4969 317.6988Q582.9344 317.93317 583.21564 318.30817L583.21564 315.23004L584.2625 315.23004L584.2625 323.8238L583.27814 323.8238ZM579.95 320.71442Q579.95 321.91754 580.45 322.5113Q580.95 323.08942 581.6375 323.08942Q582.325 323.08942 582.8094 322.52692Q583.29376 321.96442 583.29376 320.80817Q583.29376 319.52692 582.79376 318.93317Q582.3094 318.33942 581.59064 318.33942Q580.8875 318.33942 580.41876 318.91754Q579.95 319.48004 579.95 320.71442ZM591.54376 322.8863L591.7 323.80817Q591.2469 323.90192 590.90314 323.90192Q590.325 323.90192 590.0125 323.73004Q589.7 323.54254 589.5594 323.24567Q589.4344 322.9488 589.4344 321.99567L589.4344 318.41754L588.66876 318.41754L588.66876 317.60504L589.4344 317.60504L589.4344 316.05817L590.48126 315.43317L590.48126 317.60504L591.54376 317.60504L591.54376 318.41754L590.48126 318.41754L590.48126 322.05817Q590.48126 322.5113 590.52814 322.6363Q590.59064 322.7613 590.71564 322.83942Q590.84064 322.91754 591.075 322.91754Q591.2625 322.91754 591.54376 322.8863ZM591.85626 320.71442Q591.85626 318.98004 592.8094 318.15192Q593.60626 317.46442 594.7625 317.46442Q596.04376 317.46442 596.85626 318.30817Q597.6844 319.1363 597.6844 320.62067Q597.6844 321.8238 597.325 322.5113Q596.96564 323.1988 596.2625 323.58942Q595.575 323.96442 594.7625 323.96442Q593.46564 323.96442 592.65314 323.1363Q591.85626 322.29254 591.85626 320.71442ZM592.9344 320.71442Q592.9344 321.90192 593.45 322.49567Q593.98126 323.08942 594.7625 323.08942Q595.5594 323.08942 596.075 322.49567Q596.59064 321.90192 596.59064 320.68317Q596.59064 319.52692 596.0594 318.93317Q595.54376 318.33942 594.7625 318.33942Q593.98126 318.33942 593.45 318.93317Q592.9344 319.5113 592.9344 320.71442ZM604.54376 322.8863L604.7 323.80817Q604.2469 323.90192 603.90314 323.90192Q603.325 323.90192 603.0125 323.73004Q602.7 323.54254 602.5594 323.24567Q602.4344 322.9488 602.4344 321.99567L602.4344 318.41754L601.66876 318.41754L601.66876 317.60504L602.4344 317.60504L602.4344 316.05817L603.48126 315.43317L603.48126 317.60504L604.54376 317.60504L604.54376 318.41754L603.48126 318.41754L603.48126 322.05817Q603.48126 322.5113 603.52814 322.6363Q603.59064 322.7613 603.71564 322.83942Q603.84064 322.91754 604.075 322.91754Q604.2625 322.91754 604.54376 322.8863ZM605.2469 323.8238L605.2469 315.23004L606.29376 315.23004L606.29376 318.30817Q607.02814 317.46442 608.15314 317.46442Q608.85626 317.46442 609.35626 317.74567Q609.8719 318.0113 610.09064 318.49567Q610.3094 318.96442 610.3094 319.8863L610.3094 323.8238L609.2625 323.8238L609.2625 319.8863Q609.2625 319.08942 608.91876 318.73004Q608.575 318.37067 607.95 318.37067Q607.48126 318.37067 607.0594 318.62067Q606.65314 318.85504 606.46564 319.27692Q606.29376 319.68317 606.29376 320.41754L606.29376 323.8238L605.2469 323.8238ZM616.4969 321.8238L617.59064 321.9488Q617.34064 322.90192 616.6375 323.43317Q615.9344 323.96442 614.85626 323.96442Q613.4969 323.96442 612.6844 323.12067Q611.8875 322.27692 611.8875 320.7613Q611.8875 319.1988 612.7 318.33942Q613.5125 317.46442 614.79376 317.46442Q616.04376 317.46442 616.825 318.30817Q617.6219 319.15192 617.6219 320.6988Q617.6219 320.79254 617.6219 320.98004L612.98126 320.98004Q613.04376 322.0113 613.5594 322.55817Q614.075 323.08942 614.85626 323.08942Q615.4344 323.08942 615.84064 322.79254Q616.2625 322.48004 616.4969 321.8238ZM613.04376 320.12067L616.5125 320.12067Q616.45 319.3238 616.1219 318.93317Q615.60626 318.3238 614.8094 318.3238Q614.075 318.3238 613.575 318.80817Q613.09064 319.29254 613.04376 320.12067ZM622.4969 323.8238L622.4969 318.41754L621.5594 318.41754L621.5594 317.60504L622.4969 317.60504L622.4969 316.93317Q622.4969 316.30817 622.60626 316.0113Q622.7625 315.58942 623.1375 315.33942Q623.52814 315.08942 624.21564 315.08942Q624.66876 315.08942 625.2 315.1988L625.04376 316.10504Q624.71564 316.05817 624.41876 316.05817Q623.9344 316.05817 623.73126 316.2613Q623.54376 316.46442 623.54376 317.02692L623.54376 317.60504L624.7625 317.60504L624.7625 318.41754L623.54376 318.41754L623.54376 323.8238L622.4969 323.8238ZM629.325 323.8238L629.325 322.90192Q628.59064 323.96442 627.34064 323.96442Q626.79376 323.96442 626.3094 323.7613Q625.84064 323.54254 625.60626 323.23004Q625.3719 322.90192 625.27814 322.43317Q625.21564 322.1363 625.21564 321.4488L625.21564 317.60504L626.27814 317.60504L626.27814 321.05817Q626.27814 321.87067 626.34064 322.16754Q626.4344 322.5738 626.7469 322.8238Q627.075 323.05817 627.5594 323.05817Q628.02814 323.05817 628.4344 322.8238Q628.85626 322.5738 629.02814 322.15192Q629.21564 321.73004 629.21564 320.93317L629.21564 317.60504L630.2625 317.60504L630.2625 323.8238L629.325 323.8238ZM634.54376 322.8863L634.7 323.80817Q634.2469 323.90192 633.90314 323.90192Q633.325 323.90192 633.0125 323.73004Q632.7 323.54254 632.5594 323.24567Q632.4344 322.9488 632.4344 321.99567L632.4344 318.41754L631.66876 318.41754L631.66876 317.60504L632.4344 317.60504L632.4344 316.05817L633.48126 315.43317L633.48126 317.60504L634.54376 317.60504L634.54376 318.41754L633.48126 318.41754L633.48126 322.05817Q633.48126 322.5113 633.52814 322.6363Q633.59064 322.7613 633.71564 322.83942Q633.84064 322.91754 634.075 322.91754Q634.2625 322.91754 634.54376 322.8863ZM639.325 323.8238L639.325 322.90192Q638.59064 323.96442 637.34064 323.96442Q636.79376 323.96442 636.3094 323.7613Q635.84064 323.54254 635.60626 323.23004Q635.3719 322.90192 635.27814 322.43317Q635.21564 322.1363 635.21564 321.4488L635.21564 317.60504L636.27814 317.60504L636.27814 321.05817Q636.27814 321.87067 636.34064 322.16754Q636.4344 322.5738 636.7469 322.8238Q637.075 323.05817 637.5594 323.05817Q638.02814 323.05817 638.4344 322.8238Q638.85626 322.5738 639.02814 322.15192Q639.21564 321.73004 639.21564 320.93317L639.21564 317.60504L640.2625 317.60504L640.2625 323.8238L639.325 323.8238ZM642.23126 323.8238L642.23126 317.60504L643.1844 317.60504L643.1844 318.54254Q643.54376 317.8863 643.84064 317.68317Q644.15314 317.46442 644.52814 317.46442Q645.0594 317.46442 645.60626 317.79254L645.2469 318.77692Q644.85626 318.54254 644.48126 318.54254Q644.1219 318.54254 643.84064 318.7613Q643.575 318.96442 643.46564 319.33942Q643.27814 319.90192 643.27814 320.55817L643.27814 323.8238L642.23126 323.8238ZM650.4969 321.8238L651.59064 321.9488Q651.34064 322.90192 650.6375 323.43317Q649.9344 323.96442 648.85626 323.96442Q647.4969 323.96442 646.6844 323.12067Q645.8875 322.27692 645.8875 320.7613Q645.8875 319.1988 646.7 318.33942Q647.5125 317.46442 648.79376 317.46442Q650.04376 317.46442 650.825 318.30817Q651.6219 319.15192 651.6219 320.6988Q651.6219 320.79254 651.6219 320.98004L646.98126 320.98004Q647.04376 322.0113 647.5594 322.55817Q648.075 323.08942 648.85626 323.08942Q649.4344 323.08942 649.84064 322.79254Q650.2625 322.48004 650.4969 321.8238ZM647.04376 320.12067L650.5125 320.12067Q650.45 319.3238 650.1219 318.93317Q649.60626 318.3238 648.8094 318.3238Q648.075 318.3238 647.575 318.80817Q647.09064 319.29254 647.04376 320.12067Z" fill-rule="nonzero"/><path fill="#9e9e9e" d="M621.91876 340.8238L620.8719 340.8238L620.8719 334.10504Q620.48126 334.46442 619.85626 334.83942Q619.2469 335.1988 618.7625 335.37067L618.7625 334.35504Q619.6375 333.93317 620.29376 333.35504Q620.96564 332.7613 621.2469 332.1988L621.91876 332.1988L621.91876 340.8238ZM624.95 338.5738L626.0594 338.48004Q626.1844 339.29254 626.6219 339.6988Q627.075 340.10504 627.71564 340.10504Q628.46564 340.10504 628.9969 339.52692Q629.52814 338.9488 629.52814 338.0113Q629.52814 337.10504 629.0125 336.58942Q628.5125 336.05817 627.6844 336.05817Q627.1844 336.05817 626.7625 336.29254Q626.35626 336.52692 626.1219 336.8863L625.1375 336.7613L625.96564 332.35504L630.2469 332.35504L630.2469 333.35504L626.8094 333.35504L626.35626 335.66754Q627.1219 335.12067 627.96564 335.12067Q629.09064 335.12067 629.85626 335.90192Q630.6375 336.68317 630.6375 337.91754Q630.6375 339.0738 629.96564 339.93317Q629.1375 340.96442 627.71564 340.96442Q626.54376 340.96442 625.79376 340.30817Q625.0594 339.65192 624.95 338.5738ZM632.54376 340.8238L632.54376 339.62067L633.7469 339.62067L633.7469 340.8238L632.54376 340.8238ZM640.41876 334.33942L639.3719 334.41754Q639.23126 333.79254 638.98126 333.5113Q638.54376 333.05817 637.91876 333.05817Q637.41876 333.05817 637.02814 333.33942Q636.54376 333.71442 636.2469 334.41754Q635.96564 335.10504 635.95 336.3863Q636.325 335.80817 636.8719 335.52692Q637.4344 335.24567 638.04376 335.24567Q639.09064 335.24567 639.825 336.02692Q640.575 336.80817 640.575 338.02692Q640.575 338.83942 640.21564 339.54254Q639.8719 340.23004 639.2625 340.60504Q638.65314 340.96442 637.8875 340.96442Q636.5594 340.96442 635.73126 339.99567Q634.90314 339.02692 634.90314 336.80817Q634.90314 334.30817 635.825 333.18317Q636.6219 332.1988 637.98126 332.1988Q638.9969 332.1988 639.6375 332.77692Q640.29376 333.33942 640.41876 334.33942ZM636.1219 338.04254Q636.1219 338.58942 636.34064 339.08942Q636.575 339.5738 636.98126 339.83942Q637.40314 340.10504 637.8719 340.10504Q638.52814 340.10504 639.0125 339.5738Q639.4969 339.02692 639.4969 338.10504Q639.4969 337.21442 639.0125 336.6988Q638.54376 336.18317 637.825 336.18317Q637.10626 336.18317 636.60626 336.6988Q636.1219 337.21442 636.1219 338.04254ZM642.15314 334.29254Q642.15314 333.37067 642.60626 332.73004Q643.075 332.08942 643.95 332.08942Q644.7625 332.08942 645.29376 332.66754Q645.825 333.24567 645.825 334.35504Q645.825 335.4488 645.27814 336.04254Q644.7469 336.62067 643.96564 336.62067Q643.1844 336.62067 642.66876 336.04254Q642.15314 335.46442 642.15314 334.29254ZM643.98126 332.80817Q643.59064 332.80817 643.325 333.15192Q643.075 333.49567 643.075 334.40192Q643.075 335.23004 643.325 335.5738Q643.59064 335.90192 643.98126 335.90192Q644.3875 335.90192 644.6375 335.55817Q644.90314 335.21442 644.90314 334.3238Q644.90314 333.48004 644.6375 333.15192Q644.3719 332.80817 643.98126 332.80817ZM643.98126 341.1363L648.6844 332.08942L649.54376 332.08942L644.85626 341.1363L643.98126 341.1363ZM647.7 338.80817Q647.7 337.8863 648.15314 337.24567Q648.6219 336.60504 649.5125 336.60504Q650.325 336.60504 650.85626 337.18317Q651.3875 337.74567 651.3875 338.87067Q651.3875 339.96442 650.84064 340.55817Q650.3094 341.1363 649.5125 341.1363Q648.7469 341.1363 648.21564 340.55817Q647.7 339.98004 647.7 338.80817ZM649.54376 337.3238Q649.1375 337.3238 648.8719 337.66754Q648.6219 338.0113 648.6219 338.91754Q648.6219 339.73004 648.8875 340.0738Q649.15314 340.41754 649.54376 340.41754Q649.9344 340.41754 650.2 340.0738Q650.46564 339.73004 650.46564 338.8238Q650.46564 337.99567 650.2 337.66754Q649.9344 337.3238 649.54376 337.3238Z" fill-rule="nonzero"/><path stroke="#757575" stroke-width="1.0" stroke-linecap="butt" d="M652.45 328.3238L490.26666 328.3238L402.1217 328.3238" fill-rule="nonzero"/><path fill="#9e9e9e" d="M404.1217 328.3238C404.1217 327.21924 403.2263 326.3238 402.1217 326.3238C401.01715 326.3238 400.1217 327.21924 400.1217 328.3238C400.1217 329.42838 401.01715 330.3238 402.1217 330.3238C403.2263 330.3238 404.1217 329.42838 404.1217 328.3238" fill-rule="nonzero"/><path fill="#757575" d="M20.409374 37.55L20.409374 23.2375L22.315624 23.2375L22.315624 37.55L20.409374 37.55ZM26.284374 37.55L26.284374 28.55L24.7375 28.55L24.7375 27.175L26.284374 27.175L26.284374 26.08125Q26.284374 25.034374 26.471874 24.51875Q26.721874 23.83125 27.3625 23.409374Q28.003124 22.9875 29.159374 22.9875Q29.909374 22.9875 30.8 23.159374L30.534374 24.690624Q29.9875 24.596874 29.503124 24.596874Q28.70625 24.596874 28.3625 24.940624Q28.034374 25.284374 28.034374 26.221874L28.034374 27.175L30.065624 27.175L30.065624 28.55L28.034374 28.55L28.034374 37.55L26.284374 37.55ZM37.784374 41.55L37.596874 39.89375Q38.175 40.05 38.596874 40.05Q39.190624 40.05 39.534374 39.846874Q39.89375 39.659374 40.1125 39.315624Q40.284374 39.05 40.659374 38.003124Q40.70625 37.846874 40.815624 37.565624L36.878124 27.175L38.76875 27.175L40.925 33.190624Q41.346874 34.33125 41.675 35.58125Q41.9875 34.378124 42.39375 33.221874L44.6125 27.175L46.378124 27.175L42.425 37.721874Q41.8 39.440624 41.440624 40.08125Q40.971874 40.95625 40.3625 41.346874Q39.76875 41.753124 38.925 41.753124Q38.409374 41.753124 37.784374 41.55ZM47.221874 32.3625Q47.221874 29.4875 48.815624 28.096874Q50.159374 26.940624 52.08125 26.940624Q54.221874 26.940624 55.565624 28.346874Q56.925 29.753124 56.925 32.221874Q56.925 34.221874 56.33125 35.378124Q55.7375 36.51875 54.58125 37.159374Q53.440624 37.784374 52.08125 37.784374Q49.89375 37.784374 48.55 36.39375Q47.221874 34.9875 47.221874 32.3625ZM49.01875 32.3625Q49.01875 34.3625 49.878124 35.346874Q50.753124 36.33125 52.08125 36.33125Q53.39375 36.33125 54.253124 35.346874Q55.128124 34.346874 55.128124 32.3Q55.128124 30.378124 54.253124 29.39375Q53.378124 28.39375 52.08125 28.39375Q50.753124 28.39375 49.878124 29.39375Q49.01875 30.378124 49.01875 32.3625ZM65.65938 37.55L65.65938 36.01875Q64.45625 37.784374 62.378124 37.784374Q61.45625 37.784374 60.659374 37.440624Q59.8625 37.08125 59.471874 36.55Q59.096874 36.01875 58.940624 35.2375Q58.83125 34.721874 58.83125 33.596874L58.83125 27.175L60.58125 27.175L60.58125 32.925Q60.58125 34.3 60.690624 34.784374Q60.8625 35.471874 61.39375 35.878124Q61.940624 36.26875 62.721874 36.26875Q63.51875 36.26875 64.20625 35.8625Q64.90938 35.45625 65.19063 34.76875Q65.4875 34.065624 65.4875 32.7375L65.4875 27.175L67.2375 27.175L67.2375 37.55L65.65938 37.55ZM74.8625 37.55L74.8625 23.2375L76.62813 23.2375L76.62813 28.3625Q77.8625 26.940624 79.7375 26.940624Q80.87813 26.940624 81.72188 27.39375Q82.58125 27.846874 82.94063 28.659374Q83.31563 29.45625 83.31563 30.971874L83.31563 37.55L81.56563 37.55L81.56563 30.971874Q81.56563 29.659374 80.9875 29.065624Q80.40938 28.45625 79.37813 28.45625Q78.59688 28.45625 77.89375 28.8625Q77.20625 29.26875 76.90938 29.971874Q76.62813 30.659374 76.62813 31.878124L76.62813 37.55L74.8625 37.55ZM91.64375 36.26875Q90.65938 37.096874 89.75313 37.440624Q88.84688 37.784374 87.81563 37.784374Q86.1125 37.784374 85.19063 36.95625Q84.26875 36.1125 84.26875 34.815624Q84.26875 34.05 84.6125 33.425Q84.97188 32.8 85.53438 32.425Q86.09688 32.034374 86.8 31.83125Q87.31563 31.70625 88.3625 31.565624Q90.4875 31.315624 91.4875 30.971874Q91.50313 30.6125 91.50313 30.503124Q91.50313 29.440624 91.00313 28.9875Q90.33125 28.39375 89.00313 28.39375Q87.75313 28.39375 87.15938 28.83125Q86.58125 29.26875 86.3 30.378124L84.58125 30.14375Q84.81563 29.034374 85.34688 28.3625Q85.87813 27.675 86.89375 27.315624Q87.90938 26.940624 89.25313 26.940624Q90.58125 26.940624 91.40938 27.253124Q92.2375 27.565624 92.62813 28.05Q93.01875 28.51875 93.175 29.2375Q93.26875 29.690624 93.26875 30.8625L93.26875 33.20625Q93.26875 35.659374 93.37813 36.315624Q93.4875 36.95625 93.83125 37.55L91.9875 37.55Q91.72188 37.003124 91.64375 36.26875ZM91.4875 32.346874Q90.53438 32.7375 88.6125 33.003124Q87.53438 33.159374 87.08125 33.3625Q86.64375 33.55 86.39375 33.925Q86.14375 34.3 86.14375 34.76875Q86.14375 35.471874 86.675 35.940624Q87.20625 36.409374 88.2375 36.409374Q89.25313 36.409374 90.03438 35.971874Q90.83125 35.51875 91.20625 34.753124Q91.4875 34.14375 91.4875 32.9875L91.4875 32.346874ZM102.59688 37.55L102.59688 36.2375Q101.6125 37.784374 99.69063 37.784374Q98.45625 37.784374 97.40938 37.096874Q96.37813 36.409374 95.8 35.190624Q95.2375 33.971874 95.2375 32.378124Q95.2375 30.815624 95.75313 29.55Q96.26875 28.284374 97.3 27.6125Q98.34688 26.940624 99.6125 26.940624Q100.55 26.940624 101.28438 27.346874Q102.01875 27.7375 102.4875 28.3625L102.4875 23.2375L104.22188 23.2375L104.22188 37.55L102.59688 37.55ZM97.03438 32.378124Q97.03438 34.3625 97.87813 35.346874Q98.72188 36.33125 99.8625 36.33125Q101.01875 36.33125 101.81563 35.39375Q102.62813 34.45625 102.62813 32.51875Q102.62813 30.39375 101.8 29.39375Q100.9875 28.39375 99.78438 28.39375Q98.6125 28.39375 97.81563 29.3625Q97.03438 30.315624 97.03438 32.378124ZM116.70625 35.971874L116.95625 37.534374Q116.22188 37.690624 115.62813 37.690624Q114.675 37.690624 114.14375 37.39375Q113.62813 37.08125 113.40938 36.596874Q113.19063 36.096874 113.19063 34.51875L113.19063 28.55L111.90938 28.55L111.90938 27.175L113.19063 27.175L113.19063 24.6125L114.94063 23.55L114.94063 27.175L116.70625 27.175L116.70625 28.55L114.94063 28.55L114.94063 34.6125Q114.94063 35.3625 115.03438 35.58125Q115.12813 35.784374 115.33125 35.925Q115.55 36.05 115.94063 36.05Q116.22188 36.05 116.70625 35.971874ZM118.8625 37.55L118.8625 23.2375L120.62813 23.2375L120.62813 28.3625Q121.8625 26.940624 123.7375 26.940624Q124.87813 26.940624 125.72188 27.39375Q126.58125 27.846874 126.94063 28.659374Q127.31563 29.45625 127.31563 30.971874L127.31563 37.55L125.56563 37.55L125.56563 30.971874Q125.56563 29.659374 124.9875 29.065624Q124.40938 28.45625 123.37813 28.45625Q122.59688 28.45625 121.89375 28.8625Q121.20625 29.26875 120.90938 29.971874Q120.62813 30.659374 120.62813 31.878124L120.62813 37.55L118.8625 37.55ZM135.97188 34.20625L137.78438 34.440624Q137.3625 36.01875 136.19063 36.909374Q135.03438 37.784374 133.22188 37.784374Q130.95625 37.784374 129.6125 36.39375Q128.28438 34.9875 128.28438 32.45625Q128.28438 29.83125 129.62813 28.39375Q130.97188 26.940624 133.12813 26.940624Q135.20625 26.940624 136.51875 28.3625Q137.84688 29.76875 137.84688 32.346874Q137.84688 32.503124 137.83125 32.815624L130.09688 32.815624Q130.19063 34.51875 131.06563 35.425Q131.94063 36.33125 133.2375 36.33125Q134.20625 36.33125 134.87813 35.83125Q135.56563 35.315624 135.97188 34.20625ZM130.19063 31.3625L135.9875 31.3625Q135.87813 30.065624 135.33125 29.409374Q134.4875 28.39375 133.14375 28.39375Q131.94063 28.39375 131.1125 29.20625Q130.28438 30.003124 130.19063 31.3625ZM152.64375 33.753124L154.3625 33.971874Q154.08125 35.76875 152.90938 36.784374Q151.75313 37.784374 150.05 37.784374Q147.925 37.784374 146.62813 36.39375Q145.33125 35.003124 145.33125 32.409374Q145.33125 30.721874 145.87813 29.471874Q146.44063 28.20625 147.58125 27.58125Q148.72188 26.940624 150.06563 26.940624Q151.75313 26.940624 152.81563 27.8Q153.89375 28.659374 154.20625 30.221874L152.4875 30.4875Q152.25313 29.440624 151.62813 28.925Q151.00313 28.39375 150.12813 28.39375Q148.8 28.39375 147.97188 29.346874Q147.14375 30.3 147.14375 32.346874Q147.14375 34.440624 147.94063 35.39375Q148.7375 36.33125 150.03438 36.33125Q151.06563 36.33125 151.75313 35.70625Q152.45625 35.065624 152.64375 33.753124ZM155.8625 37.55L155.8625 23.2375L157.62813 23.2375L157.62813 28.3625Q158.8625 26.940624 160.7375 26.940624Q161.87813 26.940624 162.72188 27.39375Q163.58125 27.846874 163.94063 28.659374Q164.31563 29.45625 164.31563 30.971874L164.31563 37.55L162.56563 37.55L162.56563 30.971874Q162.56563 29.659374 161.9875 29.065624Q161.40938 28.45625 160.37813 28.45625Q159.59688 28.45625 158.89375 28.8625Q158.20625 29.26875 157.90938 29.971874Q157.62813 30.659374 157.62813 31.878124L157.62813 37.55L155.8625 37.55ZM172.64375 36.26875Q171.65938 37.096874 170.75313 37.440624Q169.84688 37.784374 168.81563 37.784374Q167.1125 37.784374 166.19063 36.95625Q165.26875 36.1125 165.26875 34.815624Q165.26875 34.05 165.6125 33.425Q165.97188 32.8 166.53438 32.425Q167.09688 32.034374 167.8 31.83125Q168.31563 31.70625 169.3625 31.565624Q171.4875 31.315624 172.4875 30.971874Q172.50313 30.6125 172.50313 30.503124Q172.50313 29.440624 172.00313 28.9875Q171.33125 28.39375 170.00313 28.39375Q168.75313 28.39375 168.15938 28.83125Q167.58125 29.26875 167.3 30.378124L165.58125 30.14375Q165.81563 29.034374 166.34688 28.3625Q166.87813 27.675 167.89375 27.315624Q168.90938 26.940624 170.25313 26.940624Q171.58125 26.940624 172.40938 27.253124Q173.2375 27.565624 173.62813 28.05Q174.01875 28.51875 174.175 29.2375Q174.26875 29.690624 174.26875 30.8625L174.26875 33.20625Q174.26875 35.659374 174.37813 36.315624Q174.4875 36.95625 174.83125 37.55L172.9875 37.55Q172.72188 37.003124 172.64375 36.26875ZM172.4875 32.346874Q171.53438 32.7375 169.6125 33.003124Q168.53438 33.159374 168.08125 33.3625Q167.64375 33.55 167.39375 33.925Q167.14375 34.3 167.14375 34.76875Q167.14375 35.471874 167.675 35.940624Q168.20625 36.409374 169.2375 36.409374Q170.25313 36.409374 171.03438 35.971874Q171.83125 35.51875 172.20625 34.753124Q172.4875 34.14375 172.4875 32.9875L172.4875 32.346874ZM176.8625 37.55L176.8625 27.175L178.45625 27.175L178.45625 28.659374Q179.59688 26.940624 181.75313 26.940624Q182.69063 26.940624 183.47188 27.284374Q184.26875 27.6125 184.65938 28.159374Q185.05 28.70625 185.20625 29.45625Q185.3 29.95625 185.3 31.175L185.3 37.55L183.53438 37.55L183.53438 31.2375Q183.53438 30.159374 183.33125 29.628124Q183.12813 29.096874 182.59688 28.784374Q182.08125 28.471874 181.37813 28.471874Q180.25313 28.471874 179.44063 29.190624Q178.62813 29.89375 178.62813 31.878124L178.62813 37.55L176.8625 37.55ZM193.64375 33.753124L195.3625 33.971874Q195.08125 35.76875 193.90938 36.784374Q192.75313 37.784374 191.05 37.784374Q188.925 37.784374 187.62813 36.39375Q186.33125 35.003124 186.33125 32.409374Q186.33125 30.721874 186.87813 29.471874Q187.44063 28.20625 188.58125 27.58125Q189.72188 26.940624 191.06563 26.940624Q192.75313 26.940624 193.81563 27.8Q194.89375 28.659374 195.20625 30.221874L193.4875 30.4875Q193.25313 29.440624 192.62813 28.925Q192.00313 28.39375 191.12813 28.39375Q189.8 28.39375 188.97188 29.346874Q188.14375 30.3 188.14375 32.346874Q188.14375 34.440624 188.94063 35.39375Q189.7375 36.33125 191.03438 36.33125Q192.06563 36.33125 192.75313 35.70625Q193.45625 35.065624 193.64375 33.753124ZM203.97188 34.20625L205.78438 34.440624Q205.3625 36.01875 204.19063 36.909374Q203.03438 37.784374 201.22188 37.784374Q198.95625 37.784374 197.6125 36.39375Q196.28438 34.9875 196.28438 32.45625Q196.28438 29.83125 197.62813 28.39375Q198.97188 26.940624 201.12813 26.940624Q203.20625 26.940624 204.51875 28.3625Q205.84688 29.76875 205.84688 32.346874Q205.84688 32.503124 205.83125 32.815624L198.09688 32.815624Q198.19063 34.51875 199.06563 35.425Q199.94063 36.33125 201.2375 36.33125Q202.20625 36.33125 202.87813 35.83125Q203.56563 35.315624 203.97188 34.20625ZM198.19063 31.3625L203.9875 31.3625Q203.87813 30.065624 203.33125 29.409374Q202.4875 28.39375 201.14375 28.39375Q199.94063 28.39375 199.1125 29.20625Q198.28438 30.003124 198.19063 31.3625ZM208.33125 37.55L208.33125 35.55L210.33125 35.55L210.33125 37.55Q210.33125 38.659374 209.94063 39.33125Q209.55 40.01875 208.70625 40.378124L208.20625 39.628124Q208.76875 39.39375 209.03438 38.909374Q209.3 38.440624 209.33125 37.55L208.33125 37.55ZM221.78438 37.55L218.6125 27.175L220.425 27.175L222.08125 33.159374L222.69063 35.39375Q222.7375 35.221874 223.22188 33.253124L224.87813 27.175L226.69063 27.175L228.2375 33.190624L228.75313 35.175L229.34688 33.175L231.12813 27.175L232.83125 27.175L229.59688 37.55L227.76875 37.55L226.1125 31.33125L225.72188 29.565624L223.6125 37.55L221.78438 37.55ZM234.22188 32.3625Q234.22188 29.4875 235.81563 28.096874Q237.15938 26.940624 239.08125 26.940624Q241.22188 26.940624 242.56563 28.346874Q243.925 29.753124 243.925 32.221874Q243.925 34.221874 243.33125 35.378124Q242.7375 36.51875 241.58125 37.159374Q240.44063 37.784374 239.08125 37.784374Q236.89375 37.784374 235.55 36.39375Q234.22188 34.9875 234.22188 32.3625ZM236.01875 32.3625Q236.01875 34.3625 236.87813 35.346874Q237.75313 36.33125 239.08125 36.33125Q240.39375 36.33125 241.25313 35.346874Q242.12813 34.346874 242.12813 32.3Q242.12813 30.378124 241.25313 29.39375Q240.37813 28.39375 239.08125 28.39375Q237.75313 28.39375 236.87813 29.39375Q236.01875 30.378124 236.01875 32.3625ZM252.65938 37.55L252.65938 36.01875Q251.45625 37.784374 249.37813 37.784374Q248.45625 37.784374 247.65938 37.440624Q246.8625 37.08125 246.47188 36.55Q246.09688 36.01875 245.94063 35.2375Q245.83125 34.721874 245.83125 33.596874L245.83125 27.175L247.58125 27.175L247.58125 32.925Q247.58125 34.3 247.69063 34.784374Q247.8625 35.471874 248.39375 35.878124Q248.94063 36.26875 249.72188 36.26875Q250.51875 36.26875 251.20625 35.8625Q251.90938 35.45625 252.19063 34.76875Q252.4875 34.065624 252.4875 32.7375L252.4875 27.175L254.2375 27.175L254.2375 37.55L252.65938 37.55ZM255.83125 37.55L255.83125 23.2375L257.58124 23.2375L257.58124 37.55L255.83125 37.55ZM266.59686 37.55L266.59686 36.2375Q265.6125 37.784374 263.6906 37.784374Q262.45624 37.784374 261.40936 37.096874Q260.3781 36.409374 259.8 35.190624Q259.2375 33.971874 259.2375 32.378124Q259.2375 30.815624 259.7531 29.55Q260.26874 28.284374 261.3 27.6125Q262.34686 26.940624 263.6125 26.940624Q264.55 26.940624 265.28436 27.346874Q266.01874 27.7375 266.4875 28.3625L266.4875 23.2375L268.22186 23.2375L268.22186 37.55L266.59686 37.55ZM261.03436 32.378124Q261.03436 34.3625 261.8781 35.346874Q262.72186 36.33125 263.8625 36.33125Q265.01874 36.33125 265.8156 35.39375Q266.6281 34.45625 266.6281 32.51875Q266.6281 30.39375 265.8 29.39375Q264.9875 28.39375 263.78436 28.39375Q262.6125 28.39375 261.8156 29.3625Q261.03436 30.315624 261.03436 32.378124ZM276.78436 41.55L276.59686 39.89375Q277.175 40.05 277.59686 40.05Q278.1906 40.05 278.53436 39.846874Q278.89374 39.659374 279.1125 39.315624Q279.28436 39.05 279.65936 38.003124Q279.70624 37.846874 279.8156 37.565624L275.8781 27.175L277.76874 27.175L279.925 33.190624Q280.34686 34.33125 280.675 35.58125Q280.9875 34.378124 281.39374 33.221874L283.6125 27.175L285.3781 27.175L281.425 37.721874Q280.8 39.440624 280.4406 40.08125Q279.97186 40.95625 279.3625 41.346874Q278.76874 41.753124 277.925 41.753124Q277.40936 41.753124 276.78436 41.55ZM286.22186 32.3625Q286.22186 29.4875 287.8156 28.096874Q289.15936 26.940624 291.08124 26.940624Q293.22186 26.940624 294.5656 28.346874Q295.925 29.753124 295.925 32.221874Q295.925 34.221874 295.33124 35.378124Q294.7375 36.51875 293.58124 37.159374Q292.4406 37.784374 291.08124 37.784374Q288.89374 37.784374 287.55 36.39375Q286.22186 34.9875 286.22186 32.3625ZM288.01874 32.3625Q288.01874 34.3625 288.8781 35.346874Q289.7531 36.33125 291.08124 36.33125Q292.39374 36.33125 293.2531 35.346874Q294.1281 34.346874 294.1281 32.3Q294.1281 30.378124 293.2531 29.39375Q292.3781 28.39375 291.08124 28.39375Q289.7531 28.39375 288.8781 29.39375Q288.01874 30.378124 288.01874 32.3625ZM304.65936 37.55L304.65936 36.01875Q303.45624 37.784374 301.3781 37.784374Q300.45624 37.784374 299.65936 37.440624Q298.8625 37.08125 298.47186 36.55Q298.09686 36.01875 297.9406 35.2375Q297.83124 34.721874 297.83124 33.596874L297.83124 27.175L299.58124 27.175L299.58124 32.925Q299.58124 34.3 299.6906 34.784374Q299.8625 35.471874 300.39374 35.878124Q300.9406 36.26875 301.72186 36.26875Q302.51874 36.26875 303.20624 35.8625Q303.90936 35.45625 304.1906 34.76875Q304.4875 34.065624 304.4875 32.7375L304.4875 27.175L306.2375 27.175L306.2375 37.55L304.65936 37.55ZM313.84686 37.55L313.84686 27.175L315.425 27.175L315.425 28.753124Q316.03436 27.64375 316.55 27.3Q317.0656 26.940624 317.675 26.940624Q318.5656 26.940624 319.4875 27.503124L318.8781 29.14375Q318.2375 28.753124 317.59686 28.753124Q317.01874 28.753124 316.55 29.1125Q316.09686 29.45625 315.89374 30.065624Q315.6125 31.003124 315.6125 32.1125L315.6125 37.55L313.84686 37.55ZM327.64374 36.26875Q326.65936 37.096874 325.7531 37.440624Q324.84686 37.784374 323.8156 37.784374Q322.1125 37.784374 321.1906 36.95625Q320.26874 36.1125 320.26874 34.815624Q320.26874 34.05 320.6125 33.425Q320.97186 32.8 321.53436 32.425Q322.09686 32.034374 322.8 31.83125Q323.3156 31.70625 324.3625 31.565624Q326.4875 31.315624 327.4875 30.971874Q327.5031 30.6125 327.5031 30.503124Q327.5031 29.440624 327.0031 28.9875Q326.33124 28.39375 325.0031 28.39375Q323.7531 28.39375 323.15936 28.83125Q322.58124 29.26875 322.3 30.378124L320.58124 30.14375Q320.8156 29.034374 321.34686 28.3625Q321.8781 27.675 322.89374 27.315624Q323.90936 26.940624 325.2531 26.940624Q326.58124 26.940624 327.40936 27.253124Q328.2375 27.565624 328.6281 28.05Q329.01874 28.51875 329.175 29.2375Q329.26874 29.690624 329.26874 30.8625L329.26874 33.20625Q329.26874 35.659374 329.3781 36.315624Q329.4875 36.95625 329.83124 37.55L327.9875 37.55Q327.72186 37.003124 327.64374 36.26875ZM327.4875 32.346874Q326.53436 32.7375 324.6125 33.003124Q323.53436 33.159374 323.08124 33.3625Q322.64374 33.55 322.39374 33.925Q322.14374 34.3 322.14374 34.76875Q322.14374 35.471874 322.675 35.940624Q323.20624 36.409374 324.2375 36.409374Q325.2531 36.409374 326.03436 35.971874Q326.83124 35.51875 327.20624 34.753124Q327.4875 34.14375 327.4875 32.9875L327.4875 32.346874ZM335.70624 35.971874L335.95624 37.534374Q335.22186 37.690624 334.6281 37.690624Q333.675 37.690624 333.14374 37.39375Q332.6281 37.08125 332.40936 36.596874Q332.1906 36.096874 332.1906 34.51875L332.1906 28.55L330.90936 28.55L330.90936 27.175L332.1906 27.175L332.1906 24.6125L333.9406 23.55L333.9406 27.175L335.70624 27.175L335.70624 28.55L333.9406 28.55L333.9406 34.6125Q333.9406 35.3625 334.03436 35.58125Q334.1281 35.784374 334.33124 35.925Q334.55 36.05 334.9406 36.05Q335.22186 36.05 335.70624 35.971874ZM337.8625 37.55L337.8625 23.2375L339.6281 23.2375L339.6281 28.3625Q340.8625 26.940624 342.7375 26.940624Q343.8781 26.940624 344.72186 27.39375Q345.58124 27.846874 345.9406 28.659374Q346.3156 29.45625 346.3156 30.971874L346.3156 37.55L344.5656 37.55L344.5656 30.971874Q344.5656 29.659374 343.9875 29.065624Q343.40936 28.45625 342.3781 28.45625Q341.59686 28.45625 340.89374 28.8625Q340.20624 29.26875 339.90936 29.971874Q339.6281 30.659374 339.6281 31.878124L339.6281 37.55L337.8625 37.55ZM354.97186 34.20625L356.78436 34.440624Q356.3625 36.01875 355.1906 36.909374Q354.03436 37.784374 352.22186 37.784374Q349.95624 37.784374 348.6125 36.39375Q347.28436 34.9875 347.28436 32.45625Q347.28436 29.83125 348.6281 28.39375Q349.97186 26.940624 352.1281 26.940624Q354.20624 26.940624 355.51874 28.3625Q356.84686 29.76875 356.84686 32.346874Q356.84686 32.503124 356.83124 32.815624L349.09686 32.815624Q349.1906 34.51875 350.0656 35.425Q350.9406 36.33125 352.2375 36.33125Q353.20624 36.33125 353.8781 35.83125Q354.5656 35.315624 354.97186 34.20625ZM349.1906 31.3625L354.9875 31.3625Q354.8781 30.065624 354.33124 29.409374Q353.4875 28.39375 352.14374 28.39375Q350.9406 28.39375 350.1125 29.20625Q349.28436 30.003124 349.1906 31.3625ZM358.84686 37.55L358.84686 27.175L360.425 27.175L360.425 28.753124Q361.03436 27.64375 361.55 27.3Q362.0656 26.940624 362.675 26.940624Q363.5656 26.940624 364.4875 27.503124L363.8781 29.14375Q363.2375 28.753124 362.59686 28.753124Q362.01874 28.753124 361.55 29.1125Q361.09686 29.45625 360.89374 30.065624Q360.6125 31.003124 360.6125 32.1125L360.6125 37.55L358.84686 37.55ZM366.3625 37.55L366.3625 35.55L368.3625 35.55L368.3625 37.55L366.3625 37.55ZM372.3625 37.55L372.3625 35.55L374.3625 35.55L374.3625 37.55L372.3625 37.55ZM378.3625 37.55L378.3625 35.55L380.3625 35.55L380.3625 37.55L378.3625 37.55Z" fill-rule="nonzero"/></svg>