<svg version="1.1" viewBox="0.0 0.0 348.0 295.0" fill="none" stroke="none" stroke-linecap="square" stroke-miterlimit="10" width="348" height="295" xmlns:xlink="http://www.w3.org/1999/xlink" xmlns="http://www.w3.org/2000/svg"><path fill="#ffffff" d="M0 0L348.0 0L348.0 295.0L0 295.0L0 0Z" fill-rule="nonzero"/><path fill="#4285f4" d="M174.0 48.583332C209.25093 48.583332 242.58354 64.635475 264.56213 92.19576C286.54074 119.75606 294.77322 155.82489 286.92914 190.192L174.0 164.41667Z" fill-rule="nonzero"/><path fill="#46bdc6" d="M148.22466 51.48752C156.68062 49.5575 165.32658 48.583332 174.0 48.583332L174.0 164.41667Z" fill-rule="nonzero"/><path fill="#ff6d01" d="M101.7791 73.85452C115.3843 63.00473 131.25925 55.35976 148.22466 51.48752L174.0 164.41667Z" fill-rule="nonzero"/><path fill="#34a853" d="M61.07085 138.64133C66.91006 113.05808 81.262924 90.21562 101.7791 73.85452L174.0 164.41667Z" fill-rule="nonzero"/><path fill="#fbbc04" d="M123.7418 268.7789C75.05124 245.33075 49.045273 191.32881 61.07085 138.64133L174.0 164.41667Z" fill-rule="nonzero"/><path fill="#ea4335" d="M286.92914 190.192C279.08508 224.55913 256.0182 253.48409 224.2582 268.7789C192.4982 284.0737 155.5018 284.0737 123.7418 268.7789L174.0 164.41667Z" fill-rule="nonzero"/><path fill="#9e9e9e" d="M15.25 74.31771L16.3125 74.177086Q16.484375 75.06771 16.921875 75.47396Q17.359375 75.864586 17.984375 75.864586Q18.734375 75.864586 19.25 75.34896Q19.765625 74.833336 19.765625 74.06771Q19.765625 73.34896 19.28125 72.88021Q18.8125 72.395836 18.078125 72.395836Q17.78125 72.395836 17.328125 72.520836L17.453125 71.583336Q17.5625 71.59896 17.625 71.59896Q18.296875 71.59896 18.828125 71.25521Q19.375 70.895836 19.375 70.16146Q19.375 69.583336 18.984375 69.208336Q18.59375 68.81771 17.96875 68.81771Q17.359375 68.81771 16.9375 69.208336Q16.53125 69.59896 16.421875 70.364586L15.359375 70.177086Q15.546875 69.13021 16.234375 68.552086Q16.921875 67.958336 17.9375 67.958336Q18.640625 67.958336 19.234375 68.270836Q19.828125 68.56771 20.140625 69.083336Q20.453125 69.59896 20.453125 70.19271Q20.453125 70.739586 20.15625 71.208336Q19.859375 71.66146 19.28125 71.927086Q20.03125 72.09896 20.453125 72.66146Q20.875 73.208336 20.875 74.052086Q20.875 75.177086 20.046875 75.958336Q19.234375 76.739586 17.984375 76.739586Q16.859375 76.739586 16.109375 76.06771Q15.359375 75.38021 15.25 74.31771ZM22.84375 76.583336L22.84375 75.38021L24.046875 75.38021L24.046875 76.583336L22.84375 76.583336ZM30.71875 70.09896L29.671875 70.177086Q29.53125 69.552086 29.28125 69.270836Q28.84375 68.81771 28.21875 68.81771Q27.71875 68.81771 27.328125 69.09896Q26.84375 69.47396 26.546875 70.177086Q26.265625 70.864586 26.25 72.145836Q26.625 71.56771 27.171875 71.28646Q27.734375 71.00521 28.34375 71.00521Q29.390625 71.00521 30.125 71.78646Q30.875 72.56771 30.875 73.78646Q30.875 74.59896 30.515625 75.302086Q30.171875 75.989586 29.5625 76.364586Q28.953125 76.72396 28.1875 76.72396Q26.859375 76.72396 26.03125 75.75521Q25.203125 74.78646 25.203125 72.56771Q25.203125 70.06771 26.125 68.94271Q26.921875 67.958336 28.28125 67.958336Q29.296875 67.958336 29.9375 68.53646Q30.59375 69.09896 30.71875 70.09896ZM26.421875 73.802086Q26.421875 74.34896 26.640625 74.84896Q26.875 75.333336 27.28125 75.59896Q27.703125 75.864586 28.171875 75.864586Q28.828125 75.864586 29.3125 75.333336Q29.796875 74.78646 29.796875 73.864586Q29.796875 72.97396 29.3125 72.458336Q28.84375 71.94271 28.125 71.94271Q27.40625 71.94271 26.90625 72.458336Q26.421875 72.97396 26.421875 73.802086ZM32.453125 70.052086Q32.453125 69.13021 32.90625 68.489586Q33.375 67.84896 34.25 67.84896Q35.0625 67.84896 35.59375 68.427086Q36.125 69.00521 36.125 70.114586Q36.125 71.208336 35.578125 71.802086Q35.046875 72.38021 34.265625 72.38021Q33.484375 72.38021 32.96875 71.802086Q32.453125 71.22396 32.453125 70.052086ZM34.28125 68.56771Q33.890625 68.56771 33.625 68.91146Q33.375 69.25521 33.375 70.16146Q33.375 70.989586 33.625 71.333336Q33.890625 71.66146 34.28125 71.66146Q34.6875 71.66146 34.9375 71.31771Q35.203125 70.97396 35.203125 70.083336Q35.203125 69.239586 34.9375 68.91146Q34.671875 68.56771 34.28125 68.56771ZM34.28125 76.895836L38.984375 67.84896L39.84375 67.84896L35.15625 76.895836L34.28125 76.895836ZM38.0 74.56771Q38.0 73.645836 38.453125 73.00521Q38.921875 72.364586 39.8125 72.364586Q40.625 72.364586 41.15625 72.94271Q41.6875 73.50521 41.6875 74.63021Q41.6875 75.72396 41.140625 76.31771Q40.609375 76.895836 39.8125 76.895836Q39.046875 76.895836 38.515625 76.31771Q38.0 75.739586 38.0 74.56771ZM39.84375 73.083336Q39.4375 73.083336 39.171875 73.427086Q38.921875 73.770836 38.921875 74.677086Q38.921875 75.489586 39.1875 75.833336Q39.453125 76.177086 39.84375 76.177086Q40.234375 76.177086 40.5 75.833336Q40.765625 75.489586 40.765625 74.583336Q40.765625 73.75521 40.5 73.427086Q40.234375 73.083336 39.84375 73.083336Z" fill-rule="nonzero"/><path stroke="#757575" stroke-width="1.0" stroke-linecap="butt" d="M14.75 64.083336L52.166668 64.083336L161.67924 55.066917" fill-rule="nonzero"/><path fill="#9e9e9e" d="M163.67924 55.066917C163.67924 53.96235 162.78381 53.066917 161.67924 53.066917C160.57468 53.066917 159.67924 53.96235 159.67924 55.066917C159.67924 56.17149 160.57468 57.066917 161.67924 57.066917C162.78381 57.066917 163.67924 56.17149 163.67924 55.066917" fill-rule="nonzero"/><path fill="#9e9e9e" d="M15.3125 100.114586L15.3125 99.09896L20.875 99.09896L20.875 99.927086Q20.0625 100.802086 19.25 102.25521Q18.453125 103.69271 18.015625 105.22396Q17.6875 106.302086 17.609375 107.583336L16.515625 107.583336Q16.53125 106.56771 16.90625 105.13021Q17.296875 103.69271 18.0 102.364586Q18.71875 101.03646 19.53125 100.114586L15.3125 100.114586ZM22.84375 107.583336L22.84375 106.38021L24.046875 106.38021L24.046875 107.583336L22.84375 107.583336ZM29.21875 107.583336L28.171875 107.583336L28.171875 100.864586Q27.78125 101.22396 27.15625 101.59896Q26.546875 101.958336 26.0625 102.13021L26.0625 101.114586Q26.9375 100.69271 27.59375 100.114586Q28.265625 99.520836 28.546875 98.958336L29.21875 98.958336L29.21875 107.583336ZM32.453125 101.052086Q32.453125 100.13021 32.90625 99.489586Q33.375 98.84896 34.25 98.84896Q35.0625 98.84896 35.59375 99.427086Q36.125 100.00521 36.125 101.114586Q36.125 102.208336 35.578125 102.802086Q35.046875 103.38021 34.265625 103.38021Q33.484375 103.38021 32.96875 102.802086Q32.453125 102.22396 32.453125 101.052086ZM34.28125 99.56771Q33.890625 99.56771 33.625 99.91146Q33.375 100.25521 33.375 101.16146Q33.375 101.989586 33.625 102.333336Q33.890625 102.66146 34.28125 102.66146Q34.6875 102.66146 34.9375 102.31771Q35.203125 101.97396 35.203125 101.083336Q35.203125 100.239586 34.9375 99.91146Q34.671875 99.56771 34.28125 99.56771ZM34.28125 107.895836L38.984375 98.84896L39.84375 98.84896L35.15625 107.895836L34.28125 107.895836ZM38.0 105.56771Q38.0 104.645836 38.453125 104.00521Q38.921875 103.364586 39.8125 103.364586Q40.625 103.364586 41.15625 103.94271Q41.6875 104.50521 41.6875 105.63021Q41.6875 106.72396 41.140625 107.31771Q40.609375 107.895836 39.8125 107.895836Q39.046875 107.895836 38.515625 107.31771Q38.0 106.739586 38.0 105.56771ZM39.84375 104.083336Q39.4375 104.083336 39.171875 104.427086Q38.921875 104.770836 38.921875 105.677086Q38.921875 106.489586 39.1875 106.833336Q39.453125 107.177086 39.84375 107.177086Q40.234375 107.177086 40.5 106.833336Q40.765625 106.489586 40.765625 105.583336Q40.765625 104.75521 40.5 104.427086Q40.234375 104.083336 39.84375 104.083336Z" fill-rule="nonzero"/><path stroke="#757575" stroke-width="1.0" stroke-linecap="butt" d="M14.75 95.083336L52.166668 95.083336L126.25471 65.27255" fill-rule="nonzero"/><path fill="#9e9e9e" d="M128.25471 65.27255C128.25471 64.167984 127.35928 63.272552 126.25471 63.272552C125.15014 63.272552 124.25471 64.167984 124.25471 65.27255C124.25471 66.37712 125.15014 67.27255 126.25471 67.27255C127.35928 67.27255 128.25471 66.37712 128.25471 65.27255" fill-rule="nonzero"/><path fill="#9e9e9e" d="M19.21875 138.58333L18.171875 138.58333L18.171875 131.86458Q17.78125 132.22395 17.15625 132.59895Q16.546875 132.95833 16.0625 133.1302L16.0625 132.11458Q16.9375 131.6927 17.59375 131.11458Q18.265625 130.52083 18.546875 129.95833L19.21875 129.95833L19.21875 138.58333ZM22.25 134.34895Q22.25 132.8177 22.5625 131.89583Q22.875 130.95833 23.484375 130.45833Q24.109375 129.95833 25.046875 129.95833Q25.734375 129.95833 26.25 130.23958Q26.78125 130.52083 27.125 131.05208Q27.46875 131.5677 27.65625 132.3177Q27.84375 133.0677 27.84375 134.34895Q27.84375 135.86458 27.53125 136.78645Q27.234375 137.70833 26.609375 138.22395Q26.0 138.72395 25.046875 138.72395Q23.8125 138.72395 23.09375 137.83333Q22.25 136.77083 22.25 134.34895ZM23.328125 134.34895Q23.328125 136.45833 23.828125 137.16145Q24.328125 137.86458 25.046875 137.86458Q25.78125 137.86458 26.265625 137.16145Q26.765625 136.45833 26.765625 134.34895Q26.765625 132.22395 26.265625 131.53645Q25.78125 130.83333 25.03125 130.83333Q24.3125 130.83333 23.875 131.4427Q23.328125 132.22395 23.328125 134.34895ZM29.84375 138.58333L29.84375 137.3802L31.046875 137.3802L31.046875 138.58333L29.84375 138.58333ZM32.3125 131.11458L32.3125 130.09895L37.875 130.09895L37.875 130.92708Q37.0625 131.80208 36.25 133.2552Q35.453125 134.6927 35.015625 136.22395Q34.6875 137.30208 34.609375 138.58333L33.515625 138.58333Q33.53125 137.5677 33.90625 136.1302Q34.296875 134.6927 35.0 133.36458Q35.71875 132.03645 36.53125 131.11458L32.3125 131.11458ZM39.453125 132.05208Q39.453125 131.1302 39.90625 130.48958Q40.375 129.84895 41.25 129.84895Q42.0625 129.84895 42.59375 130.42708Q43.125 131.0052 43.125 132.11458Q43.125 133.20833 42.578125 133.80208Q42.046875 134.3802 41.265625 134.3802Q40.484375 134.3802 39.96875 133.80208Q39.453125 133.22395 39.453125 132.05208ZM41.28125 130.5677Q40.890625 130.5677 40.625 130.91145Q40.375 131.2552 40.375 132.16145Q40.375 132.98958 40.625 133.33333Q40.890625 133.66145 41.28125 133.66145Q41.6875 133.66145 41.9375 133.3177Q42.203125 132.97395 42.203125 132.08333Q42.203125 131.23958 41.9375 130.91145Q41.671875 130.5677 41.28125 130.5677ZM41.28125 138.89583L45.984375 129.84895L46.84375 129.84895L42.15625 138.89583L41.28125 138.89583ZM45.0 136.5677Q45.0 135.64583 45.453125 135.0052Q45.921875 134.36458 46.8125 134.36458Q47.625 134.36458 48.15625 134.9427Q48.6875 135.5052 48.6875 136.6302Q48.6875 137.72395 48.140625 138.3177Q47.609375 138.89583 46.8125 138.89583Q46.046875 138.89583 45.515625 138.3177Q45.0 137.73958 45.0 136.5677ZM46.84375 135.08333Q46.4375 135.08333 46.171875 135.42708Q45.921875 135.77083 45.921875 136.67708Q45.921875 137.48958 46.1875 137.83333Q46.453125 138.17708 46.84375 138.17708Q47.234375 138.17708 47.5 137.83333Q47.765625 137.48958 47.765625 136.58333Q47.765625 135.7552 47.5 135.42708Q47.234375 135.08333 46.84375 135.08333Z" fill-rule="nonzero"/><path stroke="#757575" stroke-width="1.0" stroke-linecap="butt" d="M14.75 126.083336L52.166668 126.083336L80.82506 105.87097" fill-rule="nonzero"/><path fill="#9e9e9e" d="M82.82506 105.87097C82.82506 104.7664 81.92963 103.87097 80.82506 103.87097C79.72049 103.87097 78.82506 104.7664 78.82506 105.87097C78.82506 106.97554 79.72049 107.87097 80.82506 107.87097C81.92963 107.87097 82.82506 106.97554 82.82506 105.87097" fill-rule="nonzero"/><path fill="#9e9e9e" d="M20.796875 223.64633L20.796875 224.66196L15.109375 224.66196Q15.109375 224.28696 15.234375 223.92758Q15.453125 223.34946 15.921875 222.78696Q16.40625 222.22446 17.3125 221.49008Q18.71875 220.33383 19.203125 219.66196Q19.703125 218.99008 19.703125 218.39633Q19.703125 217.77133 19.25 217.34946Q18.796875 216.91196 18.078125 216.91196Q17.3125 216.91196 16.859375 217.36508Q16.40625 217.8182 16.390625 218.6307L15.3125 218.52133Q15.421875 217.30258 16.140625 216.67758Q16.875 216.03696 18.109375 216.03696Q19.34375 216.03696 20.0625 216.72446Q20.78125 217.41196 20.78125 218.42758Q20.78125 218.9432 20.5625 219.4432Q20.359375 219.92758 19.859375 220.49008Q19.375 221.03696 18.25 221.99008Q17.296875 222.78696 17.015625 223.08383Q16.75 223.36508 16.578125 223.64633L20.796875 223.64633ZM26.21875 224.66196L25.171875 224.66196L25.171875 217.9432Q24.78125 218.30258 24.15625 218.67758Q23.546875 219.03696 23.0625 219.20883L23.0625 218.1932Q23.9375 217.77133 24.59375 217.1932Q25.265625 216.59946 25.546875 216.03696L26.21875 216.03696L26.21875 224.66196ZM29.84375 224.66196L29.84375 223.45883L31.046875 223.45883L31.046875 224.66196L29.84375 224.66196ZM35.625 224.66196L35.625 222.59946L31.90625 222.59946L31.90625 221.6307L35.828125 216.0682L36.6875 216.0682L36.6875 221.6307L37.84375 221.6307L37.84375 222.59946L36.6875 222.59946L36.6875 224.66196L35.625 224.66196ZM35.625 221.6307L35.625 217.77133L32.9375 221.6307L35.625 221.6307ZM39.453125 218.1307Q39.453125 217.20883 39.90625 216.5682Q40.375 215.92758 41.25 215.92758Q42.0625 215.92758 42.59375 216.5057Q43.125 217.08383 43.125 218.1932Q43.125 219.28696 42.578125 219.8807Q42.046875 220.45883 41.265625 220.45883Q40.484375 220.45883 39.96875 219.8807Q39.453125 219.30258 39.453125 218.1307ZM41.28125 216.64633Q40.890625 216.64633 40.625 216.99008Q40.375 217.33383 40.375 218.24008Q40.375 219.0682 40.625 219.41196Q40.890625 219.74008 41.28125 219.74008Q41.6875 219.74008 41.9375 219.39633Q42.203125 219.05258 42.203125 218.16196Q42.203125 217.3182 41.9375 216.99008Q41.671875 216.64633 41.28125 216.64633ZM41.28125 224.97446L45.984375 215.92758L46.84375 215.92758L42.15625 224.97446L41.28125 224.97446ZM45.0 222.64633Q45.0 221.72446 45.453125 221.08383Q45.921875 220.4432 46.8125 220.4432Q47.625 220.4432 48.15625 221.02133Q48.6875 221.58383 48.6875 222.70883Q48.6875 223.80258 48.140625 224.39633Q47.609375 224.97446 46.8125 224.97446Q46.046875 224.97446 45.515625 224.39633Q45.0 223.8182 45.0 222.64633ZM46.84375 221.16196Q46.4375 221.16196 46.171875 221.5057Q45.921875 221.84946 45.921875 222.7557Q45.921875 223.5682 46.1875 223.91196Q46.453125 224.2557 46.84375 224.2557Q47.234375 224.2557 47.5 223.91196Q47.765625 223.5682 47.765625 222.66196Q47.765625 221.83383 47.5 221.5057Q47.234375 221.16196 46.84375 221.16196Z" fill-rule="nonzero"/><path stroke="#757575" stroke-width="1.0" stroke-linecap="butt" d="M14.75 212.16196L52.166668 212.16196L74.85588 212.16196" fill-rule="nonzero"/><path fill="#9e9e9e" d="M76.85588 212.16196C76.85588 211.05739 75.96046 210.16196 74.85588 210.16196C73.75131 210.16196 72.85588 211.05739 72.85588 212.16196C72.85588 213.26653 73.75131 214.16196 74.85588 214.16196C75.96046 214.16196 76.85588 213.26653 76.85588 212.16196" fill-rule="nonzero"/><path fill="#9e9e9e" d="M304.29688 107.29118L304.29688 108.30681L298.60938 108.30681Q298.60938 107.93181 298.73438 107.57243Q298.95312 106.99431 299.42188 106.43181Q299.90625 105.86931 300.8125 105.13493Q302.21875 103.97868 302.70312 103.30681Q303.20312 102.63493 303.20312 102.04118Q303.20312 101.41618 302.75 100.99431Q302.29688 100.55681 301.57812 100.55681Q300.8125 100.55681 300.35938 101.00993Q299.90625 101.46306 299.89062 102.27556L298.8125 102.16618Q298.92188 100.94743 299.64062 100.32243Q300.375 99.68181 301.60938 99.68181Q302.84375 99.68181 303.5625 100.36931Q304.28125 101.05681 304.28125 102.07243Q304.28125 102.58806 304.0625 103.08806Q303.85938 103.57243 303.35938 104.13493Q302.875 104.68181 301.75 105.63493Q300.79688 106.43181 300.51562 106.72868Q300.25 107.00993 300.07812 107.29118L304.29688 107.29118ZM307.375 103.65056Q306.71875 103.40056 306.39062 102.96306Q306.07812 102.50993 306.07812 101.90056Q306.07812 100.96306 306.75 100.32243Q307.4375 99.68181 308.54688 99.68181Q309.67188 99.68181 310.35938 100.33806Q311.04688 100.99431 311.04688 101.93181Q311.04688 102.52556 310.73438 102.96306Q310.42188 103.40056 309.78125 103.65056Q310.57812 103.90056 310.98438 104.47868Q311.39062 105.05681 311.39062 105.85368Q311.39062 106.94743 310.60938 107.69743Q309.84375 108.44743 308.5625 108.44743Q307.29688 108.44743 306.51562 107.69743Q305.73438 106.94743 305.73438 105.82243Q305.73438 104.97868 306.15625 104.41618Q306.59375 103.85368 307.375 103.65056ZM307.15625 101.85368Q307.15625 102.46306 307.54688 102.85368Q307.95312 103.24431 308.57812 103.24431Q309.1875 103.24431 309.57812 102.86931Q309.96875 102.47868 309.96875 101.91618Q309.96875 101.33806 309.5625 100.94743Q309.15625 100.54118 308.5625 100.54118Q307.95312 100.54118 307.54688 100.93181Q307.15625 101.32243 307.15625 101.85368ZM306.82812 105.82243Q306.82812 106.27556 307.03125 106.69743Q307.25 107.11931 307.67188 107.35368Q308.09375 107.58806 308.57812 107.58806Q309.32812 107.58806 309.8125 107.10368Q310.3125 106.61931 310.3125 105.86931Q310.3125 105.10368 309.8125 104.60368Q309.3125 104.10368 308.54688 104.10368Q307.79688 104.10368 307.3125 104.60368Q306.82812 105.08806 306.82812 105.82243ZM313.34375 108.30681L313.34375 107.10368L314.54688 107.10368L314.54688 108.30681L313.34375 108.30681ZM321.21875 101.82243L320.17188 101.90056Q320.03125 101.27556 319.78125 100.99431Q319.34375 100.54118 318.71875 100.54118Q318.21875 100.54118 317.82812 100.82243Q317.34375 101.19743 317.04688 101.90056Q316.76562 102.58806 316.75 103.86931Q317.125 103.29118 317.67188 103.00993Q318.23438 102.72868 318.84375 102.72868Q319.89062 102.72868 320.625 103.50993Q321.375 104.29118 321.375 105.50993Q321.375 106.32243 321.01562 107.02556Q320.67188 107.71306 320.0625 108.08806Q319.45312 108.44743 318.6875 108.44743Q317.35938 108.44743 316.53125 107.47868Q315.70312 106.50993 315.70312 104.29118Q315.70312 101.79118 316.625 100.66618Q317.42188 99.68181 318.78125 99.68181Q319.79688 99.68181 320.4375 100.25993Q321.09375 100.82243 321.21875 101.82243ZM316.92188 105.52556Q316.92188 106.07243 317.14062 106.57243Q317.375 107.05681 317.78125 107.32243Q318.20312 107.58806 318.67188 107.58806Q319.32812 107.58806 319.8125 107.05681Q320.29688 106.50993 320.29688 105.58806Q320.29688 104.69743 319.8125 104.18181Q319.34375 103.66618 318.625 103.66618Q317.90625 103.66618 317.40625 104.18181Q316.92188 104.69743 316.92188 105.52556ZM322.95312 101.77556Q322.95312 100.85368 323.40625 100.21306Q323.875 99.57243 324.75 99.57243Q325.5625 99.57243 326.09375 100.15056Q326.625 100.72868 326.625 101.83806Q326.625 102.93181 326.07812 103.52556Q325.54688 104.10368 324.76562 104.10368Q323.98438 104.10368 323.46875 103.52556Q322.95312 102.94743 322.95312 101.77556ZM324.78125 100.29118Q324.39062 100.29118 324.125 100.63493Q323.875 100.97868 323.875 101.88493Q323.875 102.71306 324.125 103.05681Q324.39062 103.38493 324.78125 103.38493Q325.1875 103.38493 325.4375 103.04118Q325.70312 102.69743 325.70312 101.80681Q325.70312 100.96306 325.4375 100.63493Q325.17188 100.29118 324.78125 100.29118ZM324.78125 108.61931L329.48438 99.57243L330.34375 99.57243L325.65625 108.61931L324.78125 108.61931ZM328.5 106.29118Q328.5 105.36931 328.95312 104.72868Q329.42188 104.08806 330.3125 104.08806Q331.125 104.08806 331.65625 104.66618Q332.1875 105.22868 332.1875 106.35368Q332.1875 107.44743 331.64062 108.04118Q331.10938 108.61931 330.3125 108.61931Q329.54688 108.61931 329.01562 108.04118Q328.5 107.46306 328.5 106.29118ZM330.34375 104.80681Q329.9375 104.80681 329.67188 105.15056Q329.42188 105.49431 329.42188 106.40056Q329.42188 107.21306 329.6875 107.55681Q329.95312 107.90056 330.34375 107.90056Q330.73438 107.90056 331.0 107.55681Q331.26562 107.21306 331.26562 106.30681Q331.26562 105.47868 331.0 105.15056Q330.73438 104.80681 330.34375 104.80681Z" fill-rule="nonzero"/><path stroke="#757575" stroke-width="1.0" stroke-linecap="butt" d="M333.25 95.80681L295.83334 95.80681L260.03403 95.80681" fill-rule="nonzero"/><path fill="#9e9e9e" d="M262.03403 95.80681C262.03403 94.70224 261.1386 93.80681 260.03403 93.80681C258.92947 93.80681 258.03403 94.70224 258.03403 95.80681C258.03403 96.91138 258.92947 97.80681 260.03403 97.80681C261.1386 97.80681 262.03403 96.91138 262.03403 95.80681" fill-rule="nonzero"/><path fill="#9e9e9e" d="M304.29688 275.04517L304.29688 276.0608L298.60938 276.0608Q298.60938 275.6858 298.73438 275.32642Q298.95312 274.7483 299.42188 274.1858Q299.90625 273.6233 300.8125 272.88892Q302.21875 271.73267 302.70312 271.0608Q303.20312 270.38892 303.20312 269.79517Q303.20312 269.17017 302.75 268.7483Q302.29688 268.3108 301.57812 268.3108Q300.8125 268.3108 300.35938 268.76392Q299.90625 269.21704 299.89062 270.02954L298.8125 269.92017Q298.92188 268.70142 299.64062 268.07642Q300.375 267.4358 301.60938 267.4358Q302.84375 267.4358 303.5625 268.1233Q304.28125 268.8108 304.28125 269.82642Q304.28125 270.34204 304.0625 270.84204Q303.85938 271.32642 303.35938 271.88892Q302.875 272.4358 301.75 273.38892Q300.79688 274.1858 300.51562 274.48267Q300.25 274.76392 300.07812 275.04517L304.29688 275.04517ZM307.375 271.40454Q306.71875 271.15454 306.39062 270.71704Q306.07812 270.26392 306.07812 269.65454Q306.07812 268.71704 306.75 268.07642Q307.4375 267.4358 308.54688 267.4358Q309.67188 267.4358 310.35938 268.09204Q311.04688 268.7483 311.04688 269.6858Q311.04688 270.27954 310.73438 270.71704Q310.42188 271.15454 309.78125 271.40454Q310.57812 271.65454 310.98438 272.23267Q311.39062 272.8108 311.39062 273.60767Q311.39062 274.70142 310.60938 275.45142Q309.84375 276.20142 308.5625 276.20142Q307.29688 276.20142 306.51562 275.45142Q305.73438 274.70142 305.73438 273.57642Q305.73438 272.73267 306.15625 272.17017Q306.59375 271.60767 307.375 271.40454ZM307.15625 269.60767Q307.15625 270.21704 307.54688 270.60767Q307.95312 270.9983 308.57812 270.9983Q309.1875 270.9983 309.57812 270.6233Q309.96875 270.23267 309.96875 269.67017Q309.96875 269.09204 309.5625 268.70142Q309.15625 268.29517 308.5625 268.29517Q307.95312 268.29517 307.54688 268.6858Q307.15625 269.07642 307.15625 269.60767ZM306.82812 273.57642Q306.82812 274.02954 307.03125 274.45142Q307.25 274.8733 307.67188 275.10767Q308.09375 275.34204 308.57812 275.34204Q309.32812 275.34204 309.8125 274.85767Q310.3125 274.3733 310.3125 273.6233Q310.3125 272.85767 309.8125 272.35767Q309.3125 271.85767 308.54688 271.85767Q307.79688 271.85767 307.3125 272.35767Q306.82812 272.84204 306.82812 273.57642ZM313.34375 276.0608L313.34375 274.85767L314.54688 274.85767L314.54688 276.0608L313.34375 276.0608ZM321.21875 269.57642L320.17188 269.65454Q320.03125 269.02954 319.78125 268.7483Q319.34375 268.29517 318.71875 268.29517Q318.21875 268.29517 317.82812 268.57642Q317.34375 268.95142 317.04688 269.65454Q316.76562 270.34204 316.75 271.6233Q317.125 271.04517 317.67188 270.76392Q318.23438 270.48267 318.84375 270.48267Q319.89062 270.48267 320.625 271.26392Q321.375 272.04517 321.375 273.26392Q321.375 274.07642 321.01562 274.77954Q320.67188 275.46704 320.0625 275.84204Q319.45312 276.20142 318.6875 276.20142Q317.35938 276.20142 316.53125 275.23267Q315.70312 274.26392 315.70312 272.04517Q315.70312 269.54517 316.625 268.42017Q317.42188 267.4358 318.78125 267.4358Q319.79688 267.4358 320.4375 268.01392Q321.09375 268.57642 321.21875 269.57642ZM316.92188 273.27954Q316.92188 273.82642 317.14062 274.32642Q317.375 274.8108 317.78125 275.07642Q318.20312 275.34204 318.67188 275.34204Q319.32812 275.34204 319.8125 274.8108Q320.29688 274.26392 320.29688 273.34204Q320.29688 272.45142 319.8125 271.9358Q319.34375 271.42017 318.625 271.42017Q317.90625 271.42017 317.40625 271.9358Q316.92188 272.45142 316.92188 273.27954ZM322.95312 269.52954Q322.95312 268.60767 323.40625 267.96704Q323.875 267.32642 324.75 267.32642Q325.5625 267.32642 326.09375 267.90454Q326.625 268.48267 326.625 269.59204Q326.625 270.6858 326.07812 271.27954Q325.54688 271.85767 324.76562 271.85767Q323.98438 271.85767 323.46875 271.27954Q322.95312 270.70142 322.95312 269.52954ZM324.78125 268.04517Q324.39062 268.04517 324.125 268.38892Q323.875 268.73267 323.875 269.63892Q323.875 270.46704 324.125 270.8108Q324.39062 271.13892 324.78125 271.13892Q325.1875 271.13892 325.4375 270.79517Q325.70312 270.45142 325.70312 269.5608Q325.70312 268.71704 325.4375 268.38892Q325.17188 268.04517 324.78125 268.04517ZM324.78125 276.3733L329.48438 267.32642L330.34375 267.32642L325.65625 276.3733L324.78125 276.3733ZM328.5 274.04517Q328.5 273.1233 328.95312 272.48267Q329.42188 271.84204 330.3125 271.84204Q331.125 271.84204 331.65625 272.42017Q332.1875 272.98267 332.1875 274.10767Q332.1875 275.20142 331.64062 275.79517Q331.10938 276.3733 330.3125 276.3733Q329.54688 276.3733 329.01562 275.79517Q328.5 275.21704 328.5 274.04517ZM330.34375 272.5608Q329.9375 272.5608 329.67188 272.90454Q329.42188 273.2483 329.42188 274.15454Q329.42188 274.96704 329.6875 275.3108Q329.95312 275.65454 330.34375 275.65454Q330.73438 275.65454 331.0 275.3108Q331.26562 274.96704 331.26562 274.0608Q331.26562 273.23267 331.0 272.90454Q330.73438 272.5608 330.34375 272.5608Z" fill-rule="nonzero"/><path stroke="#757575" stroke-width="1.0" stroke-linecap="butt" d="M333.25 263.5608L295.83334 263.5608L221.74529 263.5608" fill-rule="nonzero"/><path fill="#9e9e9e" d="M223.74529 263.5608C223.74529 262.4562 222.84985 261.5608 221.74529 261.5608C220.64072 261.5608 219.74529 262.4562 219.74529 263.5608C219.74529 264.66534 220.64072 265.5608 221.74529 265.5608C222.84985 265.5608 223.74529 264.66534 223.74529 263.5608" fill-rule="nonzero"/><path fill="#757575" d="M11.788375 33.75L11.788375 19.4375L13.679 19.4375L13.679 25.3125L21.1165 25.3125L21.1165 19.4375L23.007126 19.4375L23.007126 33.75L21.1165 33.75L21.1165 27.0L13.679 27.0L13.679 33.75L11.788375 33.75ZM23.850876 28.5625Q23.850876 25.6875 25.444626 24.296875Q26.788376 23.140625 28.71025 23.140625Q30.850876 23.140625 32.194626 24.546875Q33.554 25.953125 33.554 28.421875Q33.554 30.421875 32.96025 31.578125Q32.3665 32.71875 31.21025 33.359375Q30.069626 33.984375 28.71025 33.984375Q26.52275 33.984375 25.179 32.59375Q23.850876 31.1875 23.850876 28.5625ZM25.64775 28.5625Q25.64775 30.5625 26.507126 31.546875Q27.382126 32.53125 28.71025 32.53125Q30.02275 32.53125 30.882126 31.546875Q31.757126 30.546875 31.757126 28.5Q31.757126 26.578125 30.882126 25.59375Q30.007126 24.59375 28.71025 24.59375Q27.382126 24.59375 26.507126 25.59375Q25.64775 26.578125 25.64775 28.5625ZM37.413376 33.75L34.2415 23.375L36.054 23.375L37.71025 29.359375L38.319626 31.59375Q38.3665 31.421875 38.850876 29.453125L40.507126 23.375L42.319626 23.375L43.8665 29.390625L44.382126 31.375L44.975876 29.375L46.757126 23.375L48.46025 23.375L45.225876 33.75L43.39775 33.75L41.7415 27.53125L41.350876 25.765625L39.2415 33.75L37.413376 33.75ZM58.413376 33.75L55.2415 23.375L57.054 23.375L58.71025 29.359375L59.319626 31.59375Q59.3665 31.421875 59.850876 29.453125L61.507126 23.375L63.319626 23.375L64.8665 29.390625L65.382126 31.375L65.975876 29.375L67.757126 23.375L69.46025 23.375L66.225876 33.75L64.39775 33.75L62.7415 27.53125L62.350876 25.765625L60.2415 33.75L58.413376 33.75ZM78.27275 32.46875Q77.288376 33.296875 76.382126 33.640625Q75.475876 33.984375 74.444626 33.984375Q72.7415 33.984375 71.819626 33.15625Q70.89775 32.3125 70.89775 31.015625Q70.89775 30.25 71.2415 29.625Q71.600876 29.0 72.163376 28.625Q72.725876 28.234375 73.429 28.03125Q73.944626 27.90625 74.9915 27.765625Q77.1165 27.515625 78.1165 27.171875Q78.132126 26.8125 78.132126 26.703125Q78.132126 25.640625 77.632126 25.1875Q76.96025 24.59375 75.632126 24.59375Q74.382126 24.59375 73.788376 25.03125Q73.21025 25.46875 72.929 26.578125L71.21025 26.34375Q71.444626 25.234375 71.975876 24.5625Q72.507126 23.875 73.52275 23.515625Q74.538376 23.140625 75.882126 23.140625Q77.21025 23.140625 78.038376 23.453125Q78.8665 23.765625 79.257126 24.25Q79.64775 24.71875 79.804 25.4375Q79.89775 25.890625 79.89775 27.0625L79.89775 29.40625Q79.89775 31.859375 80.007126 32.515625Q80.1165 33.15625 80.46025 33.75L78.6165 33.75Q78.350876 33.203125 78.27275 32.46875ZM78.1165 28.546875Q77.163376 28.9375 75.2415 29.203125Q74.163376 29.359375 73.71025 29.5625Q73.27275 29.75 73.02275 30.125Q72.77275 30.5 72.77275 30.96875Q72.77275 31.671875 73.304 32.140625Q73.83525 32.609375 74.8665 32.609375Q75.882126 32.609375 76.663376 32.171875Q77.46025 31.71875 77.83525 30.953125Q78.1165 30.34375 78.1165 29.1875L78.1165 28.546875ZM81.788376 30.65625L83.538376 30.375Q83.679 31.421875 84.350876 31.984375Q85.02275 32.53125 86.225876 32.53125Q87.429 32.53125 88.007126 32.046875Q88.600876 31.546875 88.600876 30.890625Q88.600876 30.296875 88.08525 29.953125Q87.725876 29.71875 86.288376 29.359375Q84.350876 28.859375 83.600876 28.515625Q82.8665 28.15625 82.475876 27.53125Q82.08525 26.890625 82.08525 26.125Q82.08525 25.4375 82.39775 24.84375Q82.725876 24.25 83.27275 23.859375Q83.679 23.5625 84.382126 23.359375Q85.100876 23.140625 85.913376 23.140625Q87.132126 23.140625 88.054 23.5Q88.975876 23.84375 89.413376 24.453125Q89.850876 25.046875 90.02275 26.046875L88.304 26.28125Q88.179 25.484375 87.6165 25.046875Q87.054 24.59375 86.038376 24.59375Q84.819626 24.59375 84.304 25.0Q83.788376 25.390625 83.788376 25.921875Q83.788376 26.265625 84.007126 26.546875Q84.21025 26.828125 84.679 27.015625Q84.944626 27.109375 86.225876 27.453125Q88.100876 27.953125 88.83525 28.28125Q89.569626 28.59375 89.9915 29.203125Q90.413376 29.796875 90.413376 30.703125Q90.413376 31.578125 89.89775 32.359375Q89.382126 33.140625 88.413376 33.5625Q87.444626 33.984375 86.225876 33.984375Q84.21025 33.984375 83.14775 33.140625Q82.08525 32.296875 81.788376 30.65625ZM102.33525 32.171875L102.58525 33.734375Q101.850876 33.890625 101.257126 33.890625Q100.304 33.890625 99.77275 33.59375Q99.257126 33.28125 99.038376 32.796875Q98.819626 32.296875 98.819626 30.71875L98.819626 24.75L97.538376 24.75L97.538376 23.375L98.819626 23.375L98.819626 20.8125L100.569626 19.75L100.569626 23.375L102.33525 23.375L102.33525 24.75L100.569626 24.75L100.569626 30.8125Q100.569626 31.5625 100.663376 31.78125Q100.757126 31.984375 100.96025 32.125Q101.179 32.25 101.569626 32.25Q101.850876 32.25 102.33525 32.171875ZM104.4915 33.75L104.4915 19.4375L106.257126 19.4375L106.257126 24.5625Q107.4915 23.140625 109.3665 23.140625Q110.507126 23.140625 111.350876 23.59375Q112.21025 24.046875 112.569626 24.859375Q112.944626 25.65625 112.944626 27.171875L112.944626 33.75L111.194626 33.75L111.194626 27.171875Q111.194626 25.859375 110.6165 25.265625Q110.038376 24.65625 109.007126 24.65625Q108.225876 24.65625 107.52275 25.0625Q106.83525 25.46875 106.538376 26.171875Q106.257126 26.859375 106.257126 28.078125L106.257126 33.75L104.4915 33.75ZM121.600876 30.40625L123.413376 30.640625Q122.9915 32.21875 121.819626 33.109375Q120.663376 33.984375 118.850876 33.984375Q116.58525 33.984375 115.2415 32.59375Q113.913376 31.1875 113.913376 28.65625Q113.913376 26.03125 115.257126 24.59375Q116.600876 23.140625 118.757126 23.140625Q120.83525 23.140625 122.14775 24.5625Q123.475876 25.96875 123.475876 28.546875Q123.475876 28.703125 123.46025 29.015625L115.725876 29.015625Q115.819626 30.71875 116.694626 31.625Q117.569626 32.53125 118.8665 32.53125Q119.83525 32.53125 120.507126 32.03125Q121.194626 31.515625 121.600876 30.40625ZM115.819626 27.5625L121.6165 27.5625Q121.507126 26.265625 120.96025 25.609375Q120.1165 24.59375 118.77275 24.59375Q117.569626 24.59375 116.7415 25.40625Q115.913376 26.203125 115.819626 27.5625ZM130.78838 30.65625L132.53838 30.375Q132.679 31.421875 133.35088 31.984375Q134.02275 32.53125 135.22588 32.53125Q136.429 32.53125 137.00713 32.046875Q137.60088 31.546875 137.60088 30.890625Q137.60088 30.296875 137.08525 29.953125Q136.72588 29.71875 135.28838 29.359375Q133.35088 28.859375 132.60088 28.515625Q131.8665 28.15625 131.47588 27.53125Q131.08525 26.890625 131.08525 26.125Q131.08525 25.4375 131.39775 24.84375Q131.72588 24.25 132.27275 23.859375Q132.679 23.5625 133.38213 23.359375Q134.10088 23.140625 134.91338 23.140625Q136.13213 23.140625 137.054 23.5Q137.97588 23.84375 138.41338 24.453125Q138.85088 25.046875 139.02275 26.046875L137.304 26.28125Q137.179 25.484375 136.6165 25.046875Q136.054 24.59375 135.03838 24.59375Q133.81963 24.59375 133.304 25.0Q132.78838 25.390625 132.78838 25.921875Q132.78838 26.265625 133.00713 26.546875Q133.21025 26.828125 133.679 27.015625Q133.94463 27.109375 135.22588 27.453125Q137.10088 27.953125 137.83525 28.28125Q138.56963 28.59375 138.9915 29.203125Q139.41338 29.796875 139.41338 30.703125Q139.41338 31.578125 138.89775 32.359375Q138.38213 33.140625 137.41338 33.5625Q136.44463 33.984375 135.22588 33.984375Q133.21025 33.984375 132.14775 33.140625Q131.08525 32.296875 130.78838 30.65625ZM148.60088 30.40625L150.41338 30.640625Q149.9915 32.21875 148.81963 33.109375Q147.66338 33.984375 145.85088 33.984375Q143.58525 33.984375 142.2415 32.59375Q140.91338 31.1875 140.91338 28.65625Q140.91338 26.03125 142.25713 24.59375Q143.60088 23.140625 145.75713 23.140625Q147.83525 23.140625 149.14775 24.5625Q150.47588 25.96875 150.47588 28.546875Q150.47588 28.703125 150.46025 29.015625L142.72588 29.015625Q142.81963 30.71875 143.69463 31.625Q144.56963 32.53125 145.8665 32.53125Q146.83525 32.53125 147.50713 32.03125Q148.19463 31.515625 148.60088 30.40625ZM142.81963 27.5625L148.6165 27.5625Q148.50713 26.265625 147.96025 25.609375Q147.1165 24.59375 145.77275 24.59375Q144.56963 24.59375 143.7415 25.40625Q142.91338 26.203125 142.81963 27.5625ZM159.27275 29.953125L160.9915 30.171875Q160.71025 31.96875 159.53838 32.984375Q158.38213 33.984375 156.679 33.984375Q154.554 33.984375 153.25713 32.59375Q151.96025 31.203125 151.96025 28.609375Q151.96025 26.921875 152.50713 25.671875Q153.06963 24.40625 154.21025 23.78125Q155.35088 23.140625 156.69463 23.140625Q158.38213 23.140625 159.44463 24.0Q160.52275 24.859375 160.83525 26.421875L159.1165 26.6875Q158.88213 25.640625 158.25713 25.125Q157.63213 24.59375 156.75713 24.59375Q155.429 24.59375 154.60088 25.546875Q153.77275 26.5 153.77275 28.546875Q153.77275 30.640625 154.56963 31.59375Q155.3665 32.53125 156.66338 32.53125Q157.69463 32.53125 158.38213 31.90625Q159.08525 31.265625 159.27275 29.953125ZM161.85088 28.5625Q161.85088 25.6875 163.44463 24.296875Q164.78838 23.140625 166.71025 23.140625Q168.85088 23.140625 170.19463 24.546875Q171.554 25.953125 171.554 28.421875Q171.554 30.421875 170.96025 31.578125Q170.3665 32.71875 169.21025 33.359375Q168.06963 33.984375 166.71025 33.984375Q164.52275 33.984375 163.179 32.59375Q161.85088 31.1875 161.85088 28.5625ZM163.64775 28.5625Q163.64775 30.5625 164.50713 31.546875Q165.38213 32.53125 166.71025 32.53125Q168.02275 32.53125 168.88213 31.546875Q169.75713 30.546875 169.75713 28.5Q169.75713 26.578125 168.88213 25.59375Q168.00713 24.59375 166.71025 24.59375Q165.38213 24.59375 164.50713 25.59375Q163.64775 26.578125 163.64775 28.5625ZM173.4915 33.75L173.4915 23.375L175.08525 23.375L175.08525 24.859375Q176.22588 23.140625 178.38213 23.140625Q179.31963 23.140625 180.10088 23.484375Q180.89775 23.8125 181.28838 24.359375Q181.679 24.90625 181.83525 25.65625Q181.929 26.15625 181.929 27.375L181.929 33.75L180.16338 33.75L180.16338 27.4375Q180.16338 26.359375 179.96025 25.828125Q179.75713 25.296875 179.22588 24.984375Q178.71025 24.671875 178.00713 24.671875Q176.88213 24.671875 176.06963 25.390625Q175.25713 26.09375 175.25713 28.078125L175.25713 33.75L173.4915 33.75ZM190.22588 33.75L190.22588 32.4375Q189.2415 33.984375 187.31963 33.984375Q186.08525 33.984375 185.03838 33.296875Q184.00713 32.609375 183.429 31.390625Q182.8665 30.171875 182.8665 28.578125Q182.8665 27.015625 183.38213 25.75Q183.89775 24.484375 184.929 23.8125Q185.97588 23.140625 187.2415 23.140625Q188.179 23.140625 188.91338 23.546875Q189.64775 23.9375 190.1165 24.5625L190.1165 19.4375L191.85088 19.4375L191.85088 33.75L190.22588 33.75ZM184.66338 28.578125Q184.66338 30.5625 185.50713 31.546875Q186.35088 32.53125 187.4915 32.53125Q188.64775 32.53125 189.44463 31.59375Q190.25713 30.65625 190.25713 28.71875Q190.25713 26.59375 189.429 25.59375Q188.6165 24.59375 187.41338 24.59375Q186.2415 24.59375 185.44463 25.5625Q184.66338 26.515625 184.66338 28.578125ZM200.4915 33.75L200.4915 23.375L202.06963 23.375L202.06963 24.828125Q202.554 24.078125 203.3665 23.609375Q204.179 23.140625 205.21025 23.140625Q206.3665 23.140625 207.10088 23.625Q207.83525 24.09375 208.14775 24.953125Q209.38213 23.140625 211.35088 23.140625Q212.89775 23.140625 213.72588 24.0Q214.554 24.859375 214.554 26.625L214.554 33.75L212.804 33.75L212.804 27.21875Q212.804 26.15625 212.63213 25.703125Q212.46025 25.234375 212.00713 24.953125Q211.56963 24.671875 210.96025 24.671875Q209.8665 24.671875 209.13213 25.40625Q208.41338 26.125 208.41338 27.71875L208.41338 33.75L206.66338 33.75L206.66338 27.015625Q206.66338 25.84375 206.22588 25.265625Q205.804 24.671875 204.81963 24.671875Q204.08525 24.671875 203.44463 25.0625Q202.81963 25.453125 202.53838 26.203125Q202.25713 26.953125 202.25713 28.375L202.25713 33.75L200.4915 33.75ZM216.50713 21.453125L216.50713 19.4375L218.27275 19.4375L218.27275 21.453125L216.50713 21.453125ZM216.50713 33.75L216.50713 23.375L218.27275 23.375L218.27275 33.75L216.50713 33.75ZM227.22588 33.75L227.22588 32.4375Q226.2415 33.984375 224.31963 33.984375Q223.08525 33.984375 222.03838 33.296875Q221.00713 32.609375 220.429 31.390625Q219.8665 30.171875 219.8665 28.578125Q219.8665 27.015625 220.38213 25.75Q220.89775 24.484375 221.929 23.8125Q222.97588 23.140625 224.2415 23.140625Q225.179 23.140625 225.91338 23.546875Q226.64775 23.9375 227.1165 24.5625L227.1165 19.4375L228.85088 19.4375L228.85088 33.75L227.22588 33.75ZM221.66338 28.578125Q221.66338 30.5625 222.50713 31.546875Q223.35088 32.53125 224.4915 32.53125Q225.64775 32.53125 226.44463 31.59375Q227.25713 30.65625 227.25713 28.71875Q227.25713 26.59375 226.429 25.59375Q225.6165 24.59375 224.41338 24.59375Q223.2415 24.59375 222.44463 25.5625Q221.66338 26.515625 221.66338 28.578125ZM235.33525 32.171875L235.58525 33.734375Q234.85088 33.890625 234.25713 33.890625Q233.304 33.890625 232.77275 33.59375Q232.25713 33.28125 232.03838 32.796875Q231.81963 32.296875 231.81963 30.71875L231.81963 24.75L230.53838 24.75L230.53838 23.375L231.81963 23.375L231.81963 20.8125L233.56963 19.75L233.56963 23.375L235.33525 23.375L235.33525 24.75L233.56963 24.75L233.56963 30.8125Q233.56963 31.5625 233.66338 31.78125Q233.75713 31.984375 233.96025 32.125Q234.179 32.25 234.56963 32.25Q234.85088 32.25 235.33525 32.171875ZM244.60088 30.40625L246.41338 30.640625Q245.9915 32.21875 244.81963 33.109375Q243.66338 33.984375 241.85088 33.984375Q239.58525 33.984375 238.2415 32.59375Q236.91338 31.1875 236.91338 28.65625Q236.91338 26.03125 238.25713 24.59375Q239.60088 23.140625 241.75713 23.140625Q243.83525 23.140625 245.14775 24.5625Q246.47588 25.96875 246.47588 28.546875Q246.47588 28.703125 246.46025 29.015625L238.72588 29.015625Q238.81963 30.71875 239.69463 31.625Q240.56963 32.53125 241.8665 32.53125Q242.83525 32.53125 243.50713 32.03125Q244.19463 31.515625 244.60088 30.40625ZM238.81963 27.5625L244.6165 27.5625Q244.50713 26.265625 243.96025 25.609375Q243.1165 24.59375 241.77275 24.59375Q240.56963 24.59375 239.7415 25.40625Q238.91338 26.203125 238.81963 27.5625ZM248.47588 33.75L248.47588 23.375L250.054 23.375L250.054 24.953125Q250.66338 23.84375 251.179 23.5Q251.69463 23.140625 252.304 23.140625Q253.19463 23.140625 254.1165 23.703125L253.50713 25.34375Q252.8665 24.953125 252.22588 24.953125Q251.64775 24.953125 251.179 25.3125Q250.72588 25.65625 250.52275 26.265625Q250.2415 27.203125 250.2415 28.3125L250.2415 33.75L248.47588 33.75ZM255.4915 33.75L255.4915 23.375L257.06964 23.375L257.06964 24.828125Q257.55402 24.078125 258.36652 23.609375Q259.17902 23.140625 260.21027 23.140625Q261.36652 23.140625 262.1009 23.625Q262.83527 24.09375 263.14777 24.953125Q264.38214 23.140625 266.3509 23.140625Q267.89777 23.140625 268.7259 24.0Q269.55402 24.859375 269.55402 26.625L269.55402 33.75L267.80402 33.75L267.80402 27.21875Q267.80402 26.15625 267.63214 25.703125Q267.46027 25.234375 267.00714 24.953125Q266.56964 24.671875 265.96027 24.671875Q264.86652 24.671875 264.13214 25.40625Q263.4134 26.125 263.4134 27.71875L263.4134 33.75L261.6634 33.75L261.6634 27.015625Q261.6634 25.84375 261.2259 25.265625Q260.80402 24.671875 259.81964 24.671875Q259.08527 24.671875 258.44464 25.0625Q257.81964 25.453125 257.5384 26.203125Q257.25714 26.953125 257.25714 28.375L257.25714 33.75L255.4915 33.75ZM274.78836 30.21875Q274.77274 29.875 274.77274 29.703125Q274.77274 28.65625 275.0696 27.90625Q275.28836 27.34375 275.77274 26.765625Q276.1165 26.34375 277.02274 25.546875Q277.9446 24.734375 278.21024 24.265625Q278.4915 23.78125 278.4915 23.21875Q278.4915 22.1875 277.679 21.421875Q276.8821 20.640625 275.72586 20.640625Q274.60086 20.640625 273.85086 21.34375Q273.10086 22.046875 272.8665 23.53125L271.054 23.3125Q271.304 21.3125 272.5071 20.25Q273.71024 19.1875 275.6946 19.1875Q277.804 19.1875 279.054 20.328125Q280.304 21.46875 280.304 23.09375Q280.304 24.03125 279.85086 24.828125Q279.41336 25.609375 278.1321 26.75Q277.27274 27.515625 277.0071 27.875Q276.7571 28.234375 276.6165 28.703125Q276.4915 29.171875 276.47586 30.21875L274.78836 30.21875ZM274.679 33.75L274.679 31.75L276.679 31.75L276.679 33.75L274.679 33.75Z" fill-rule="nonzero"/></svg>