<svg version="1.1" viewBox="0.0 0.0 562.7322834645669 110.65354330708661" fill="none" stroke="none" stroke-linecap="square" stroke-miterlimit="10" xmlns:xlink="http://www.w3.org/1999/xlink" xmlns="http://www.w3.org/2000/svg"><clipPath id="p.0"><path d="m0 0l562.7323 0l0 110.65354l-562.7323 0l0 -110.65354z" clip-rule="nonzero"/></clipPath><g clip-path="url(#p.0)"><path fill="#000000" fill-opacity="0.0" d="m0 0l562.7323 0l0 110.65354l-562.7323 0z" fill-rule="evenodd"/><path fill="#000000" fill-opacity="0.0" d="m19.942257 20.31496l135.08661 0l0 65.6693l-135.08661 0z" fill-rule="evenodd"/><path stroke="#ffffff" stroke-width="4.0" stroke-linejoin="round" stroke-linecap="butt" d="m19.942257 20.31496l135.08661 0l0 65.6693l-135.08661 0z" fill-rule="evenodd"/><path fill="#ffffff" d="m62.926632 58.400856q0 1.546875 -0.5625 2.8125q-0.5625 1.25 -1.5625 2.15625q-0.984375 0.890625 -2.359375 1.375q-1.375 0.484375 -3.015625 0.484375q-3.578125 0 -5.46875 -2.25q-1.890625 -2.25 -1.890625 -6.875q0 -1.6875 0.203125 -3.203125q0.203125 -1.53125 0.671875 -2.8125q0.484375 -1.296875 1.28125 -2.34375q0.8125 -1.046875 2.015625 -1.765625q1.203125 -0.734375 2.84375 -1.125q1.640625 -0.40625 3.8125 -0.40625l2.328125 0l0 3.234375l-2.71875 0q-1.6875 0 -2.828125 0.34375q-1.140625 0.34375 -1.859375 0.984375q-0.71875 0.640625 -1.078125 1.5625q-0.359375 0.921875 -0.46875 2.078125l-0.03125 0.375q0.8125 -0.390625 1.84375 -0.640625q1.046875 -0.25 2.1875 -0.25q1.65625 0 2.90625 0.4375q1.25 0.421875 2.078125 1.234375q0.84375 0.8125 1.25 1.96875q0.421875 1.15625 0.421875 2.625zm-3.96875 0.171875q0 -0.71875 -0.1875 -1.3125q-0.1875 -0.609375 -0.59375 -1.03125q-0.390625 -0.4375 -1.015625 -0.671875q-0.609375 -0.25 -1.46875 -0.25q-0.5 0 -1.0 0.09375q-0.484375 0.078125 -0.953125 0.21875q-0.453125 0.140625 -0.875 0.3125q-0.40625 0.171875 -0.734375 0.359375q0 1.578125 0.21875 2.671875q0.21875 1.078125 0.65625 1.765625q0.453125 0.6875 1.109375 1.0q0.671875 0.296875 1.546875 0.296875q0.75 0 1.359375 -0.25q0.609375 -0.25 1.03125 -0.703125q0.4375 -0.46875 0.671875 -1.09375q0.234375 -0.640625 0.234375 -1.40625z" fill-rule="nonzero"/><path fill="#000000" fill-opacity="0.0" d="m87.485565 20.31496l0 65.6693" fill-rule="evenodd"/><path stroke="#ffffff" stroke-width="4.0" stroke-linejoin="round" stroke-linecap="butt" d="m87.485565 20.31496l0 65.6693" fill-rule="evenodd"/><path fill="#000000" fill-opacity="0.0" d="m117.84252 53.774277l80.56693 0" fill-rule="evenodd"/><path stroke="#ffffff" stroke-width="4.0" stroke-linejoin="round" stroke-linecap="butt" d="m117.84252 53.774277l56.566933 0" fill-rule="evenodd"/><path fill="#ffffff" stroke="#ffffff" stroke-width="4.0" stroke-linecap="butt" d="m174.40945 60.381207l18.15239 -6.60693l-18.15239 -6.60693z" fill-rule="evenodd"/><path fill="#000000" fill-opacity="0.0" d="m212.65617 20.939632l135.0866 0l0 65.6693l-135.0866 0z" fill-rule="evenodd"/><path stroke="#ffffff" stroke-width="4.0" stroke-linejoin="round" stroke-linecap="butt" d="m212.65617 20.939632l135.0866 0l0 65.6693l-135.0866 0z" fill-rule="evenodd"/><path fill="#ffffff" d="m241.62492 65.49428l0 -3.390625l5.203125 0l0 -13.125l-4.53125 2.5l-1.25 -3.109375l6.484375 -3.421875l3.203125 0l0 17.15625l4.484375 0l0 3.390625l-13.59375 0z" fill-rule="nonzero"/><path fill="#000000" fill-opacity="0.0" d="m280.19946 20.939632l0 65.6693" fill-rule="evenodd"/><path stroke="#ffffff" stroke-width="4.0" stroke-linejoin="round" stroke-linecap="butt" d="m280.19946 20.939632l0 65.6693" fill-rule="evenodd"/><path fill="#000000" fill-opacity="0.0" d="m310.55643 54.39895l80.566925 0" fill-rule="evenodd"/><path stroke="#ffffff" stroke-width="4.0" stroke-linejoin="round" stroke-linecap="butt" d="m310.55643 54.39895l56.566925 0" fill-rule="evenodd"/><path fill="#ffffff" stroke="#ffffff" stroke-width="4.0" stroke-linecap="butt" d="m367.12335 61.00588l18.152405 -6.60693l-18.152405 -6.60693z" fill-rule="evenodd"/><path fill="#000000" fill-opacity="0.0" d="m405.3701 20.31496l135.08658 0l0 65.6693l-135.08658 0z" fill-rule="evenodd"/><path stroke="#ffffff" stroke-width="4.0" stroke-linejoin="round" stroke-linecap="butt" d="m405.3701 20.31496l135.08658 0l0 65.6693l-135.08658 0z" fill-rule="evenodd"/><path fill="#ffffff" d="m428.66696 44.994606q-0.9375 -0.015625 -1.75 0.125q-0.796875 0.125 -1.40625 0.421875q-0.59375 0.296875 -0.9375 0.765625q-0.34375 0.46875 -0.34375 1.125q0 0.453125 0.125 0.78125q0.140625 0.3125 0.328125 0.578125q0.203125 0.25 0.4375 0.5q0.234375 0.234375 0.421875 0.515625q0.203125 0.265625 0.328125 0.625q0.140625 0.34375 0.140625 0.84375q0 0.484375 -0.171875 0.9375q-0.171875 0.453125 -0.5 0.8125q-0.3125 0.359375 -0.796875 0.578125q-0.46875 0.21875 -1.078125 0.21875q-0.765625 0 -1.375 -0.34375q-0.609375 -0.359375 -1.03125 -0.953125q-0.421875 -0.59375 -0.640625 -1.359375q-0.21875 -0.78125 -0.21875 -1.625q0 -1.453125 0.53125 -2.734375q0.53125 -1.28125 1.578125 -2.234375q1.0625 -0.96875 2.640625 -1.515625q1.59375 -0.5625 3.71875 -0.5625l0 2.5zm15.421875 19.875l-0.09375 -2.078125q-0.5 0.53125 -1.046875 0.984375q-0.546875 0.4375 -1.203125 0.765625q-0.65625 0.328125 -1.4375 0.5q-0.765625 0.1875 -1.6875 0.1875q-1.21875 0 -2.140625 -0.359375q-0.921875 -0.359375 -1.546875 -1.0q-0.625 -0.640625 -0.953125 -1.546875q-0.3125 -0.90625 -0.3125 -2.0q0 -1.125 0.46875 -2.078125q0.484375 -0.953125 1.453125 -1.640625q0.984375 -0.6875 2.4375 -1.078125q1.46875 -0.390625 3.4375 -0.390625l2.078125 0l0 -0.953125q0 -0.609375 -0.171875 -1.09375q-0.171875 -0.5 -0.5625 -0.84375q-0.375 -0.34375 -0.984375 -0.53125q-0.609375 -0.1875 -1.5 -0.1875q-1.40625 0 -2.78125 0.328125q-1.359375 0.3125 -2.640625 0.890625l0 -3.046875q1.140625 -0.453125 2.625 -0.75q1.5 -0.296875 3.109375 -0.296875q1.765625 0 3.03125 0.34375q1.265625 0.328125 2.078125 1.0q0.828125 0.671875 1.21875 1.6875q0.390625 1.0 0.390625 2.34375l0 10.84375l-3.265625 0zm-0.546875 -7.015625l-2.328125 0q-0.96875 0 -1.640625 0.1875q-0.671875 0.1875 -1.09375 0.515625q-0.421875 0.328125 -0.625 0.765625q-0.1875 0.421875 -0.1875 0.90625q0 0.96875 0.625 1.484375q0.625 0.5 1.703125 0.5q0.796875 0 1.65625 -0.578125q0.859375 -0.578125 1.890625 -1.65625l0 -2.125zm9.3125 -6.515625q0.9375 0.03125 1.75 -0.109375q0.8125 -0.140625 1.40625 -0.4375q0.609375 -0.296875 0.953125 -0.765625q0.34375 -0.46875 0.34375 -1.125q0 -0.453125 -0.140625 -0.765625q-0.125 -0.328125 -0.328125 -0.578125q-0.203125 -0.265625 -0.4375 -0.5q-0.21875 -0.25 -0.421875 -0.515625q-0.203125 -0.28125 -0.34375 -0.625q-0.125 -0.359375 -0.125 -0.859375q0 -0.484375 0.171875 -0.9375q0.171875 -0.46875 0.5 -0.828125q0.328125 -0.359375 0.796875 -0.578125q0.484375 -0.21875 1.09375 -0.21875q0.765625 0 1.375 0.359375q0.609375 0.359375 1.03125 0.953125q0.421875 0.59375 0.640625 1.375q0.21875 0.765625 0.21875 1.609375q0 1.453125 -0.53125 2.734375q-0.53125 1.28125 -1.59375 2.234375q-1.0625 0.953125 -2.65625 1.515625q-1.578125 0.546875 -3.703125 0.546875l0 -2.484375z" fill-rule="nonzero"/><path fill="#000000" fill-opacity="0.0" d="m472.9134 20.31496l0 65.6693" fill-rule="evenodd"/><path stroke="#ffffff" stroke-width="4.0" stroke-linejoin="round" stroke-linecap="butt" d="m472.9134 20.31496l0 65.6693" fill-rule="evenodd"/><path fill="#000000" fill-opacity="0.0" d="m472.9134 20.31496l66.2677 65.6693" fill-rule="evenodd"/><path stroke="#ffffff" stroke-width="4.0" stroke-linejoin="round" stroke-linecap="butt" d="m472.9134 20.31496l66.2677 65.6693" fill-rule="evenodd"/></g></svg>