<svg version="1.1" viewBox="0.0 0.0 483.4199475065617 292.82152230971127" fill="none" stroke="none" stroke-linecap="square" stroke-miterlimit="10" xmlns:xlink="http://www.w3.org/1999/xlink" xmlns="http://www.w3.org/2000/svg"><clipPath id="p.0"><path d="m0 0l483.41995 0l0 292.82153l-483.41995 0l0 -292.82153z" clip-rule="nonzero"/></clipPath><g clip-path="url(#p.0)"><path fill="#000000" fill-opacity="0.0" d="m0 0l483.41995 0l0 292.82153l-483.41995 0z" fill-rule="evenodd"/><path fill="#cfe2f3" d="m15.918635 75.1706l104.09449 0l0 49.574806l-104.09449 0z" fill-rule="evenodd"/><path fill="#000000" d="m30.923285 106.878006l0 -1.140625l1.4843769 -0.265625l0 -10.4375l-1.4843769 -0.265625l0 -1.15625l4.765627 0l0 1.15625l-1.484375 0.265625l0 10.4375l1.484375 0.265625l0 1.140625l-4.765627 0zm9.661882 0.15625q-1.09375 0 -1.734375 -0.640625q-0.640625 -0.640625 -0.640625 -2.0625l0 -5.984375l-1.5625 0l0 -1.328125l1.5625 0l0 -2.375l1.796875 0l0 2.375l2.140625 0l0 1.328125l-2.140625 0l0 5.984375q0 0.71875 0.28125 1.0625q0.28125 0.328125 0.75 0.328125q0.3125 0 0.703125 -0.0625q0.40625 -0.0625 0.625 -0.109375l0.234375 1.1875q-0.390625 0.109375 -0.96875 0.203125q-0.5625 0.09375 -1.046875 0.09375zm7.483261 0.03125q-1.375 0 -2.390625 -0.625q-1.0 -0.625 -1.5625 -1.734375q-0.546875 -1.109375 -0.546875 -2.5625l0 -0.40625q0 -1.40625 0.578125 -2.5q0.578125 -1.109375 1.53125 -1.75q0.96875 -0.640625 2.109375 -0.640625q1.328125 0 2.21875 0.546875q0.90625 0.53125 1.359375 1.53125q0.453125 0.984375 0.453125 2.328125l0 1.109375l-6.390625 0l-0.03125 0.046875q0.015625 0.953125 0.328125 1.6875q0.328125 0.734375 0.921875 1.15625q0.59375 0.40625 1.421875 0.40625q0.90625 0 1.59375 -0.25q0.6875 -0.265625 1.1875 -0.71875l0.703125 1.171875q-0.53125 0.5 -1.40625 0.859375q-0.859375 0.34375 -2.078125 0.34375zm-2.578125 -6.09375l4.53125 0l0 -0.25q0 -0.703125 -0.25 -1.265625q-0.25 -0.5625 -0.75 -0.875q-0.484375 -0.328125 -1.234375 -0.328125q-0.59375 0 -1.09375 0.359375q-0.484375 0.34375 -0.8125 0.953125q-0.3125 0.59375 -0.421875 1.359375l0.03125 0.046875zm7.7094574 5.90625l0 -1.140625l1.484375 -0.265625l0 -7.03125l-1.484375 -0.265625l0 -1.15625l3.09375 0l0.15625 1.265625l0.015625 0.171875q0.421875 -0.765625 1.03125 -1.1875q0.609375 -0.421875 1.40625 -0.421875q0.28125 0 0.578125 0.046875q0.296875 0.046875 0.421875 0.09375l-0.234375 1.671875l-1.25 -0.078125q-0.703125 -0.046875 -1.1875 0.328125q-0.484375 0.359375 -0.75 0.984375l0 5.578125l1.484375 0.265625l0 1.140625l-4.765625 0zm10.9826355 0.1875q-1.53125 0 -2.34375 -0.75q-0.796875 -0.75 -0.796875 -2.109375q0 -0.9375 0.515625 -1.640625q0.515625 -0.703125 1.484375 -1.078125q0.984375 -0.390625 2.34375 -0.390625l1.75 0l0 -0.96875q0 -0.890625 -0.546875 -1.375q-0.53125 -0.5 -1.515625 -0.5q-0.625 0 -1.078125 0.15625q-0.453125 0.140625 -0.828125 0.40625l-0.1875 1.375l-1.390625 0l0 -2.265625q0.671875 -0.53125 1.546875 -0.796875q0.890625 -0.28125 1.953125 -0.28125q1.796875 0 2.8125 0.859375q1.03125 0.84375 1.03125 2.4375l0 4.75q0 0.1875 0 0.375q0.015625 0.171875 0.03125 0.359375l0.953125 0.109375l0 1.140625l-2.578125 0q-0.078125 -0.40625 -0.125 -0.71875q-0.046875 -0.3125 -0.0625 -0.640625q-0.53125 0.671875 -1.3125 1.109375q-0.765625 0.4375 -1.65625 0.4375zm0.265625 -1.5q0.890625 0 1.625 -0.421875q0.75 -0.4375 1.0625 -1.03125l0 -1.796875l-1.828125 0q-1.234375 0 -1.859375 0.59375q-0.609375 0.59375 -0.609375 1.328125q0 0.640625 0.390625 0.984375q0.40625 0.34375 1.21875 0.34375zm12.093201 1.5q-0.953125 0 -1.671875 -0.359375q-0.703125 -0.375 -1.1875 -1.09375l-0.15625 1.265625l-1.546875 0l0 -12.796875l-1.484375 -0.25l0 -1.15625l3.28125 0l0 5.515625q0.453125 -0.65625 1.140625 -1.0q0.6875 -0.34375 1.609375 -0.34375q1.21875 0 2.078125 0.65625q0.875 0.65625 1.328125 1.859375q0.453125 1.1875 0.453125 2.765625l0 0.1875q0 1.421875 -0.453125 2.5q-0.453125 1.0625 -1.328125 1.65625q-0.859375 0.59375 -2.0625 0.59375zm-0.453125 -1.453125q1.265625 0 1.875 -0.890625q0.625 -0.90625 0.625 -2.40625l0 -0.1875q0 -1.140625 -0.28125 -2.0q-0.265625 -0.859375 -0.828125 -1.34375q-0.546875 -0.484375 -1.40625 -0.484375q-0.828125 0 -1.40625 0.40625q-0.5625 0.390625 -0.890625 1.0625l0 4.359375q0.328125 0.6875 0.90625 1.09375q0.578125 0.390625 1.40625 0.390625zm5.4642334 1.265625l0 -1.140625l1.484375 -0.265625l0 -11.390625l-1.484375 -0.25l0 -1.15625l3.28125 0l0 12.796875l1.484375 0.265625l0 1.140625l-4.765625 0zm10.359955 0.1875q-1.375 0 -2.390625 -0.625q-1.0 -0.625 -1.5625 -1.734375q-0.546875 -1.109375 -0.546875 -2.5625l0 -0.40625q0 -1.40625 0.578125 -2.5q0.578125 -1.109375 1.53125 -1.75q0.96875 -0.640625 2.109375 -0.640625q1.328125 0 2.21875 0.546875q0.90625 0.53125 1.359375 1.53125q0.453125 0.984375 0.453125 2.328125l0 1.109375l-6.390625 0l-0.03125 0.046875q0.015625 0.953125 0.328125 1.6875q0.328125 0.734375 0.921875 1.15625q0.59375 0.40625 1.421875 0.40625q0.90625 0 1.59375 -0.25q0.6875 -0.265625 1.1875 -0.71875l0.703125 1.171875q-0.53125 0.5 -1.40625 0.859375q-0.859375 0.34375 -2.078125 0.34375zm-2.578125 -6.09375l4.53125 0l0 -0.25q0 -0.703125 -0.25 -1.265625q-0.25 -0.5625 -0.75 -0.875q-0.484375 -0.328125 -1.234375 -0.328125q-0.59375 0 -1.09375 0.359375q-0.484375 0.34375 -0.8125 0.953125q-0.3125 0.59375 -0.421875 1.359375l0.03125 0.046875zm11.77066 6.09375q-1.0 0 -1.875 -0.1875q-0.859375 -0.203125 -1.828125 -0.625l-0.015625 -2.34375l1.359375 0l0.328125 1.40625q0.515625 0.21875 0.984375 0.3125q0.484375 0.09375 1.046875 0.09375q1.078125 0 1.546875 -0.421875q0.484375 -0.421875 0.484375 -1.03125q0 -0.59375 -0.484375 -1.0q-0.46875 -0.40625 -1.734375 -0.6875q-1.78125 -0.40625 -2.625 -1.09375q-0.84375 -0.6875 -0.84375 -1.828125q0 -0.8125 0.46875 -1.4375q0.46875 -0.640625 1.296875 -1.0q0.828125 -0.375 1.921875 -0.375q1.125 0 1.921875 0.25q0.796875 0.25 1.390625 0.6875l0.09375 2.25l-1.34375 0l-0.296875 -1.3125q-0.3125 -0.25 -0.75 -0.375q-0.4375 -0.125 -1.015625 -0.125q-0.828125 0 -1.359375 0.390625q-0.515625 0.390625 -0.515625 0.984375q0 0.34375 0.140625 0.609375q0.15625 0.25 0.578125 0.453125q0.4375 0.203125 1.265625 0.40625q2.0625 0.484375 2.875 1.234375q0.8125 0.75 0.8125 1.84375q0 1.234375 -0.921875 2.078125q-0.921875 0.84375 -2.90625 0.84375z" fill-rule="nonzero"/><path fill="#fff2cc" d="m320.27823 75.1706l96.409424 0l0 49.574806l-96.409424 0z" fill-rule="evenodd"/><path fill="#000000" d="m330.0126 106.878006l0 -1.140625l1.484375 -0.265625l0 -10.4375l-1.484375 -0.265625l0 -1.15625l4.765625 0l0 1.15625l-1.484375 0.265625l0 10.4375l1.484375 0.265625l0 1.140625l-4.765625 0zm9.661865 0.15625q-1.09375 0 -1.734375 -0.640625q-0.640625 -0.640625 -0.640625 -2.0625l0 -5.984375l-1.5625 0l0 -1.328125l1.5625 0l0 -2.375l1.796875 0l0 2.375l2.140625 0l0 1.328125l-2.140625 0l0 5.984375q0 0.71875 0.28125 1.0625q0.28125 0.328125 0.75 0.328125q0.3125 0 0.703125 -0.0625q0.40625 -0.0625 0.625 -0.109375l0.234375 1.1875q-0.390625 0.109375 -0.96875 0.203125q-0.5625 0.09375 -1.046875 0.09375zm7.4832764 0.03125q-1.375 0 -2.390625 -0.625q-1.0 -0.625 -1.5625 -1.734375q-0.546875 -1.109375 -0.546875 -2.5625l0 -0.40625q0 -1.40625 0.578125 -2.5q0.578125 -1.109375 1.53125 -1.75q0.96875 -0.640625 2.109375 -0.640625q1.328125 0 2.21875 0.546875q0.90625 0.53125 1.359375 1.53125q0.453125 0.984375 0.453125 2.328125l0 1.109375l-6.390625 0l-0.03125 0.046875q0.015625 0.953125 0.328125 1.6875q0.328125 0.734375 0.921875 1.15625q0.59375 0.40625 1.421875 0.40625q0.90625 0 1.59375 -0.25q0.6875 -0.265625 1.1875 -0.71875l0.703125 1.171875q-0.53125 0.5 -1.40625 0.859375q-0.859375 0.34375 -2.078125 0.34375zm-2.578125 -6.09375l4.53125 0l0 -0.25q0 -0.703125 -0.25 -1.265625q-0.25 -0.5625 -0.75 -0.875q-0.484375 -0.328125 -1.234375 -0.328125q-0.59375 0 -1.09375 0.359375q-0.484375 0.34375 -0.8125 0.953125q-0.3125 0.59375 -0.421875 1.359375l0.03125 0.046875zm7.709442 5.90625l0 -1.140625l1.484375 -0.265625l0 -7.03125l-1.484375 -0.265625l0 -1.15625l3.09375 0l0.15625 1.265625l0.015625 0.171875q0.421875 -0.765625 1.03125 -1.1875q0.609375 -0.421875 1.40625 -0.421875q0.28125 0 0.578125 0.046875q0.296875 0.046875 0.421875 0.09375l-0.234375 1.671875l-1.25 -0.078125q-0.703125 -0.046875 -1.1875 0.328125q-0.484375 0.359375 -0.75 0.984375l0 5.578125l1.484375 0.265625l0 1.140625l-4.765625 0zm10.9826355 0.1875q-1.53125 0 -2.34375 -0.75q-0.796875 -0.75 -0.796875 -2.109375q0 -0.9375 0.515625 -1.640625q0.515625 -0.703125 1.484375 -1.078125q0.984375 -0.390625 2.34375 -0.390625l1.75 0l0 -0.96875q0 -0.890625 -0.546875 -1.375q-0.53125 -0.5 -1.515625 -0.5q-0.625 0 -1.078125 0.15625q-0.453125 0.140625 -0.828125 0.40625l-0.1875 1.375l-1.390625 0l0 -2.265625q0.671875 -0.53125 1.546875 -0.796875q0.890625 -0.28125 1.953125 -0.28125q1.796875 0 2.8125 0.859375q1.03125 0.84375 1.03125 2.4375l0 4.75q0 0.1875 0 0.375q0.015625 0.171875 0.03125 0.359375l0.953125 0.109375l0 1.140625l-2.578125 0q-0.078125 -0.40625 -0.125 -0.71875q-0.046875 -0.3125 -0.0625 -0.640625q-0.53125 0.671875 -1.3125 1.109375q-0.765625 0.4375 -1.65625 0.4375zm0.265625 -1.5q0.890625 0 1.625 -0.421875q0.75 -0.4375 1.0625 -1.03125l0 -1.796875l-1.828125 0q-1.234375 0 -1.859375 0.59375q-0.609375 0.59375 -0.609375 1.328125q0 0.640625 0.390625 0.984375q0.40625 0.34375 1.21875 0.34375zm10.343201 1.46875q-1.09375 0 -1.734375 -0.640625q-0.640625 -0.640625 -0.640625 -2.0625l0 -5.984375l-1.5625 0l0 -1.328125l1.5625 0l0 -2.375l1.796875 0l0 2.375l2.140625 0l0 1.328125l-2.140625 0l0 5.984375q0 0.71875 0.28125 1.0625q0.28125 0.328125 0.75 0.328125q0.3125 0 0.703125 -0.0625q0.40625 -0.0625 0.625 -0.109375l0.234375 1.1875q-0.390625 0.109375 -0.96875 0.203125q-0.5625 0.09375 -1.046875 0.09375zm7.4364014 0.03125q-1.359375 0 -2.359375 -0.640625q-0.984375 -0.640625 -1.53125 -1.765625q-0.53125 -1.140625 -0.53125 -2.59375l0 -0.203125q0 -1.46875 0.53125 -2.59375q0.546875 -1.140625 1.53125 -1.78125q1.0 -0.640625 2.34375 -0.640625q1.375 0 2.359375 0.640625q0.984375 0.640625 1.515625 1.78125q0.546875 1.125 0.546875 2.59375l0 0.203125q0 1.453125 -0.546875 2.59375q-0.53125 1.140625 -1.515625 1.78125q-0.984375 0.625 -2.34375 0.625zm0 -1.40625q0.859375 0 1.4375 -0.46875q0.578125 -0.46875 0.875 -1.28125q0.296875 -0.8125 0.296875 -1.84375l0 -0.203125q0 -1.046875 -0.296875 -1.859375q-0.296875 -0.8125 -0.890625 -1.28125q-0.578125 -0.46875 -1.4375 -0.46875q-0.859375 0 -1.4375 0.46875q-0.578125 0.46875 -0.875 1.28125q-0.296875 0.8125 -0.296875 1.859375l0 0.203125q0 1.03125 0.296875 1.84375q0.296875 0.8125 0.875 1.28125q0.59375 0.46875 1.453125 0.46875zm5.7703247 1.21875l0 -1.140625l1.484375 -0.265625l0 -7.03125l-1.484375 -0.265625l0 -1.15625l3.09375 0l0.15625 1.265625l0.015625 0.171875q0.421875 -0.765625 1.03125 -1.1875q0.609375 -0.421875 1.40625 -0.421875q0.28125 0 0.578125 0.046875q0.296875 0.046875 0.421875 0.09375l-0.234375 1.671875l-1.25 -0.078125q-0.703125 -0.046875 -1.1875 0.328125q-0.484375 0.359375 -0.75 0.984375l0 5.578125l1.484375 0.265625l0 1.140625l-4.765625 0zm11.7951355 0.1875q-1.0 0 -1.875 -0.1875q-0.859375 -0.203125 -1.828125 -0.625l-0.015625 -2.34375l1.359375 0l0.328125 1.40625q0.515625 0.21875 0.984375 0.3125q0.484375 0.09375 1.046875 0.09375q1.078125 0 1.546875 -0.421875q0.484375 -0.421875 0.484375 -1.03125q0 -0.59375 -0.484375 -1.0q-0.46875 -0.40625 -1.734375 -0.6875q-1.78125 -0.40625 -2.625 -1.09375q-0.84375 -0.6875 -0.84375 -1.828125q0 -0.8125 0.46875 -1.4375q0.46875 -0.640625 1.296875 -1.0q0.828125 -0.375 1.921875 -0.375q1.125 0 1.921875 0.25q0.796875 0.25 1.390625 0.6875l0.09375 2.25l-1.34375 0l-0.296875 -1.3125q-0.3125 -0.25 -0.75 -0.375q-0.4375 -0.125 -1.015625 -0.125q-0.828125 0 -1.359375 0.390625q-0.515625 0.390625 -0.515625 0.984375q0 0.34375 0.140625 0.609375q0.15625 0.25 0.578125 0.453125q0.4375 0.203125 1.265625 0.40625q2.0625 0.484375 2.875 1.234375q0.8125 0.75 0.8125 1.84375q0 1.234375 -0.921875 2.078125q-0.921875 0.84375 -2.90625 0.84375z" fill-rule="nonzero"/><path fill="#000000" fill-opacity="0.0" d="m120.01312 91.95801l200.25198 0" fill-rule="evenodd"/><path stroke="#ffffff" stroke-width="2.0" stroke-linejoin="round" stroke-linecap="butt" d="m120.01312 91.95801l188.25198 0" fill-rule="evenodd"/><path fill="#ffffff" stroke="#ffffff" stroke-width="2.0" stroke-linecap="butt" d="m308.2651 95.26147l9.076172 -3.3034592l-9.076172 -3.3034668z" fill-rule="evenodd"/><path fill="#000000" fill-opacity="0.0" d="m160.72835 53.25328l118.83464 0l0 43.622047l-118.83464 0z" fill-rule="evenodd"/><path fill="#f3f3f3" d="m176.93147 68.81265q0 0.328125 -0.125 0.609375q-0.109375 0.28125 -0.328125 0.5q-0.203125 0.203125 -0.484375 0.328125q-0.28125 0.125 -0.625 0.125q-0.328125 0 -0.625 -0.125q-0.28125 -0.125 -0.5 -0.328125q-0.203125 -0.21875 -0.328125 -0.5q-0.109375 -0.28125 -0.109375 -0.609375q0 -0.3125 0.109375 -0.59375q0.125 -0.296875 0.328125 -0.5q0.21875 -0.21875 0.5 -0.34375q0.296875 -0.125 0.625 -0.125q0.34375 0 0.625 0.125q0.28125 0.125 0.484375 0.34375q0.21875 0.203125 0.328125 0.5q0.125 0.28125 0.125 0.59375zm-2.640625 4.578125l-2.796875 0l0 -1.859375l5.234375 0l0 8.0625l2.859375 0l0 1.859375l-8.4375 0l0 -1.859375l3.140625 0l0 -6.203125zm15.980469 7.96875q-0.65625 0.140625 -1.3125 0.21875q-0.640625 0.09375 -1.234375 0.09375q-0.96875 0 -1.6875 -0.203125q-0.703125 -0.203125 -1.171875 -0.625q-0.453125 -0.421875 -0.671875 -1.0625q-0.21875 -0.65625 -0.21875 -1.546875l0 -4.84375l-2.671875 0l0 -1.859375l2.671875 0l0 -2.546875l2.4375 -0.625l0 3.171875l3.859375 0l0 1.859375l-3.859375 0l0 4.65625q0 0.859375 0.390625 1.296875q0.390625 0.421875 1.3125 0.421875q0.578125 0 1.125 -0.09375q0.5625 -0.09375 1.03125 -0.21875l0 1.90625zm11.449219 -5.625q0 0.234375 -0.015625 0.625q-0.015625 0.390625 -0.046875 0.734375l-6.515625 0q0 0.65625 0.1875 1.15625q0.203125 0.5 0.5625 0.84375q0.375 0.328125 0.890625 0.5q0.515625 0.171875 1.140625 0.171875q0.71875 0 1.546875 -0.109375q0.828125 -0.109375 1.71875 -0.359375l0 1.890625q-0.390625 0.109375 -0.84375 0.203125q-0.4375 0.078125 -0.90625 0.140625q-0.46875 0.078125 -0.953125 0.109375q-0.46875 0.03125 -0.921875 0.03125q-1.140625 0 -2.046875 -0.3125q-0.890625 -0.328125 -1.515625 -0.953125q-0.625 -0.640625 -0.953125 -1.5625q-0.328125 -0.921875 -0.328125 -2.140625q0 -1.21875 0.328125 -2.203125q0.328125 -1.0 0.9375 -1.703125q0.609375 -0.703125 1.46875 -1.09375q0.859375 -0.390625 1.9375 -0.390625q1.046875 0 1.859375 0.328125q0.8125 0.328125 1.359375 0.921875q0.546875 0.578125 0.828125 1.390625q0.28125 0.8125 0.28125 1.78125zm-2.421875 -0.34375q0.015625 -0.59375 -0.140625 -1.015625q-0.15625 -0.4375 -0.4375 -0.71875q-0.265625 -0.296875 -0.625 -0.421875q-0.34375 -0.140625 -0.765625 -0.140625q-0.890625 0 -1.46875 0.609375q-0.578125 0.59375 -0.6875 1.6875l4.125 0zm11.167969 0q0.015625 -0.5625 -0.0625 -0.953125q-0.0625 -0.390625 -0.234375 -0.640625q-0.15625 -0.25 -0.390625 -0.359375q-0.234375 -0.125 -0.53125 -0.125q-0.53125 0 -1.09375 0.4375q-0.5625 0.421875 -1.234375 1.421875l0 6.28125l-2.4375 0l0 -9.921875l2.15625 0l0.078125 1.4375q0.25 -0.375 0.546875 -0.671875q0.3125 -0.3125 0.6875 -0.53125q0.375 -0.21875 0.828125 -0.328125q0.46875 -0.125 1.015625 -0.125q0.75 0 1.328125 0.265625q0.59375 0.25 0.984375 0.765625q0.390625 0.5 0.578125 1.265625q0.203125 0.765625 0.171875 1.78125l-2.390625 0zm10.652344 10.171875q-2.375 -2.015625 -3.5625 -4.3125q-1.1875 -2.3125 -1.1875 -4.96875q0 -1.484375 0.34375 -2.8125q0.359375 -1.328125 1.0 -2.484375q0.640625 -1.15625 1.515625 -2.171875q0.890625 -1.03125 1.953125 -1.921875l1.34375 1.359375q-1.890625 1.703125 -2.859375 3.6875q-0.953125 1.984375 -0.953125 4.171875q0 2.21875 0.953125 4.265625q0.96875 2.046875 2.859375 3.734375l-1.40625 1.453125zm9.027344 -7.71875q0.40625 0 0.75 0.15625q0.359375 0.15625 0.625 0.421875q0.265625 0.25 0.40625 0.609375q0.140625 0.34375 0.140625 0.734375q0 0.390625 -0.140625 0.75q-0.140625 0.34375 -0.40625 0.609375q-0.265625 0.25 -0.625 0.390625q-0.34375 0.15625 -0.75 0.15625q-0.390625 0 -0.734375 -0.15625q-0.34375 -0.140625 -0.59375 -0.390625q-0.25 -0.265625 -0.40625 -0.609375q-0.140625 -0.359375 -0.140625 -0.75q0 -0.390625 0.140625 -0.734375q0.15625 -0.359375 0.40625 -0.609375q0.25 -0.265625 0.59375 -0.421875q0.34375 -0.15625 0.734375 -0.15625zm10.996094 0q0.40625 0 0.75 0.15625q0.359375 0.15625 0.625 0.421875q0.265625 0.25 0.40625 0.609375q0.140625 0.34375 0.140625 0.734375q0 0.390625 -0.140625 0.75q-0.140625 0.34375 -0.40625 0.609375q-0.265625 0.25 -0.625 0.390625q-0.34375 0.15625 -0.75 0.15625q-0.390625 0 -0.734375 -0.15625q-0.34375 -0.140625 -0.59375 -0.390625q-0.25 -0.265625 -0.40625 -0.609375q-0.140625 -0.359375 -0.140625 -0.75q0 -0.390625 0.140625 -0.734375q0.15625 -0.359375 0.40625 -0.609375q0.25 -0.265625 0.59375 -0.421875q0.34375 -0.15625 0.734375 -0.15625zm10.996094 0q0.40625 0 0.75 0.15625q0.359375 0.15625 0.625 0.421875q0.265625 0.25 0.40625 0.609375q0.140625 0.34375 0.140625 0.734375q0 0.390625 -0.140625 0.75q-0.140625 0.34375 -0.40625 0.609375q-0.265625 0.25 -0.625 0.390625q-0.34375 0.15625 -0.75 0.15625q-0.390625 0 -0.734375 -0.15625q-0.34375 -0.140625 -0.59375 -0.390625q-0.25 -0.265625 -0.40625 -0.609375q-0.140625 -0.359375 -0.140625 -0.75q0 -0.390625 0.140625 -0.734375q0.15625 -0.359375 0.40625 -0.609375q0.25 -0.265625 0.59375 -0.421875q0.34375 -0.15625 0.734375 -0.15625zm9.1992035 -10.953125q2.390625 2.0 3.5625 4.3125q1.171875 2.296875 1.171875 4.96875q0 1.484375 -0.359375 2.8125q-0.34375 1.3125 -0.96875 2.484375q-0.625 1.171875 -1.515625 2.1875q-0.875 1.015625 -1.921875 1.90625l-1.375 -1.359375q1.921875 -1.71875 2.875 -3.703125q0.953125 -2.0 0.953125 -4.1875q0 -2.203125 -0.953125 -4.25q-0.953125 -2.0625 -2.875 -3.75l1.40625 -1.421875z" fill-rule="nonzero"/><path fill="#d9d2e9" d="m11.572179 214.88715l112.7874 0l0 60.031494l-112.7874 0z" fill-rule="evenodd"/><path fill="#000000" d="m31.43275 241.01039q-1.84375 0 -3.1875 -0.84375q-1.34375 -0.859375 -2.078125 -2.359375q-0.71875 -1.515625 -0.71875 -3.5l0 -0.21875q0 -2.015625 0.734375 -3.515625q0.734375 -1.515625 2.0 -2.359375q1.28125 -0.84375 2.90625 -0.84375q1.546875 0 2.625 0.359375q1.078125 0.34375 1.84375 0.953125l0 2.671875l-1.484375 0l-0.1875 -1.921875q-0.4375 -0.28125 -1.09375 -0.4375q-0.640625 -0.15625 -1.53125 -0.15625q-1.140625 0 -2.046875 0.65625q-0.90625 0.65625 -1.4375 1.828125q-0.53125 1.171875 -0.53125 2.734375l0 0.25q0 1.578125 0.484375 2.765625q0.484375 1.171875 1.421875 1.828125q0.953125 0.640625 2.28125 0.640625q0.921875 0 1.546875 -0.15625q0.625 -0.15625 1.109375 -0.40625l0 -3.125l-2.546875 -0.09375l0 -1.3125l4.34375 0l0 5.140625q-0.578125 0.53125 -1.65625 0.984375q-1.0625 0.4375 -2.796875 0.4375zm10.987946 0q-1.375 0 -2.390625 -0.625q-1.0 -0.625 -1.5625 -1.734375q-0.546875 -1.109375 -0.546875 -2.5625l0 -0.40625q0 -1.40625 0.578125 -2.5q0.578125 -1.109375 1.53125 -1.75q0.96875 -0.640625 2.109375 -0.640625q1.328125 0 2.21875 0.546875q0.90625 0.53125 1.359375 1.53125q0.453125 0.984375 0.453125 2.328125l0 1.109375l-6.390625 0l-0.03125 0.046875q0.015625 0.953125 0.328125 1.6875q0.328125 0.734375 0.921875 1.15625q0.59375 0.40625 1.421875 0.40625q0.90625 0 1.59375 -0.25q0.6875 -0.265625 1.1875 -0.71875l0.703125 1.171875q-0.53125 0.5 -1.40625 0.859375q-0.859375 0.34375 -2.078125 0.34375zm-2.578125 -6.09375l4.53125 0l0 -0.25q0 -0.703125 -0.25 -1.265625q-0.25 -0.5625 -0.75 -0.875q-0.484375 -0.328125 -1.234375 -0.328125q-0.59375 0 -1.09375 0.359375q-0.484375 0.34375 -0.8125 0.953125q-0.3125 0.59375 -0.421875 1.359375l0.03125 0.046875zm7.7250824 5.90625l0 -1.140625l1.484375 -0.265625l0 -7.03125l-1.484375 -0.265625l0 -1.15625l3.09375 0l0.125 1.46875q0.484375 -0.78125 1.21875 -1.203125q0.75 -0.4375 1.703125 -0.4375q1.59375 0 2.46875 0.9375q0.875 0.921875 0.875 2.875l0 4.8125l1.484375 0.265625l0 1.140625l-4.765625 0l0 -1.140625l1.484375 -0.265625l0 -4.78125q0 -1.296875 -0.515625 -1.84375q-0.515625 -0.546875 -1.5625 -0.546875q-0.78125 0 -1.375 0.375q-0.59375 0.375 -0.953125 1.015625l0 5.78125l1.484375 0.265625l0 1.140625l-4.765625 0zm16.59734 0.1875q-1.3750038 0 -2.3906288 -0.625q-1.0 -0.625 -1.5625 -1.734375q-0.546875 -1.109375 -0.546875 -2.5625l0 -0.40625q0 -1.40625 0.578125 -2.5q0.578125 -1.109375 1.53125 -1.75q0.96875 -0.640625 2.109375 -0.640625q1.3281288 0 2.2187538 0.546875q0.90625 0.53125 1.359375 1.53125q0.453125 0.984375 0.453125 2.328125l0 1.109375l-6.390629 0l-0.03125 0.046875q0.015625 0.953125 0.328125 1.6875q0.328125 0.734375 0.921875 1.15625q0.59375 0.40625 1.4218788 0.40625q0.90625 0 1.59375 -0.25q0.6875 -0.265625 1.1875 -0.71875l0.703125 1.171875q-0.53125 0.5 -1.40625 0.859375q-0.859375 0.34375 -2.078125 0.34375zm-2.5781288 -6.09375l4.531254 0l0 -0.25q0 -0.703125 -0.25 -1.265625q-0.25 -0.5625 -0.75 -0.875q-0.484375 -0.328125 -1.2343788 -0.328125q-0.59375 0 -1.09375 0.359375q-0.484375 0.34375 -0.8125 0.953125q-0.3125 0.59375 -0.421875 1.359375l0.03125 0.046875zm7.709461 5.90625l0 -1.140625l1.484375 -0.265625l0 -7.03125l-1.484375 -0.265625l0 -1.15625l3.09375 0l0.15625 1.265625l0.015625 0.171875q0.421875 -0.765625 1.03125 -1.1875q0.609375 -0.421875 1.40625 -0.421875q0.28125 0 0.578125 0.046875q0.296875 0.046875 0.421875 0.09375l-0.234375 1.671875l-1.25 -0.078125q-0.703125 -0.046875 -1.1875 0.328125q-0.484375 0.359375 -0.75 0.984375l0 5.578125l1.484375 0.265625l0 1.140625l-4.765625 0zm10.9826355 0.1875q-1.53125 0 -2.34375 -0.75q-0.796875 -0.75 -0.796875 -2.109375q0 -0.9375 0.515625 -1.640625q0.515625 -0.703125 1.484375 -1.078125q0.984375 -0.390625 2.34375 -0.390625l1.75 0l0 -0.96875q0 -0.890625 -0.546875 -1.375q-0.53125 -0.5 -1.515625 -0.5q-0.625 0 -1.078125 0.15625q-0.453125 0.140625 -0.828125 0.40625l-0.1875 1.375l-1.390625 0l0 -2.265625q0.671875 -0.53125 1.546875 -0.796875q0.890625 -0.28125 1.953125 -0.28125q1.796875 0 2.8125 0.859375q1.03125 0.84375 1.03125 2.4375l0 4.75q0 0.1875 0 0.375q0.015625 0.171875 0.03125 0.359375l0.953125 0.109375l0 1.140625l-2.578125 0q-0.078125 -0.40625 -0.125 -0.71875q-0.046875 -0.3125 -0.0625 -0.640625q-0.53125 0.671875 -1.3125 1.109375q-0.765625 0.4375 -1.65625 0.4375zm0.265625 -1.5q0.890625 0 1.625 -0.421875q0.75 -0.4375 1.0625 -1.03125l0 -1.796875l-1.828125 0q-1.234375 0 -1.859375 0.59375q-0.609375 0.59375 -0.609375 1.328125q0 0.640625 0.390625 0.984375q0.40625 0.34375 1.21875 0.34375zm10.343201 1.46875q-1.09375 0 -1.734375 -0.640625q-0.640625 -0.640625 -0.640625 -2.0625l0 -5.984375l-1.5625 0l0 -1.328125l1.5625 0l0 -2.375l1.796875 0l0 2.375l2.140625 0l0 1.328125l-2.140625 0l0 5.984375q0 0.71875 0.28125 1.0625q0.28125 0.328125 0.75 0.328125q0.3125 0 0.703125 -0.0625q0.40625 -0.0625 0.625 -0.109375l0.234375 1.1875q-0.390625 0.109375 -0.96875 0.203125q-0.5625 0.09375 -1.046875 0.09375zm7.436386 0.03125q-1.359375 0 -2.359375 -0.640625q-0.984375 -0.640625 -1.53125 -1.765625q-0.53125 -1.140625 -0.53125 -2.59375l0 -0.203125q0 -1.46875 0.53125 -2.59375q0.546875 -1.140625 1.53125 -1.78125q1.0 -0.640625 2.34375 -0.640625q1.375 0 2.359375 0.640625q0.984375 0.640625 1.515625 1.78125q0.546875 1.125 0.546875 2.59375l0 0.203125q0 1.453125 -0.546875 2.59375q-0.53125 1.140625 -1.515625 1.78125q-0.984375 0.625 -2.34375 0.625zm0 -1.40625q0.859375 0 1.4375 -0.46875q0.578125 -0.46875 0.875 -1.28125q0.296875 -0.8125 0.296875 -1.84375l0 -0.203125q0 -1.046875 -0.296875 -1.859375q-0.296875 -0.8125 -0.890625 -1.28125q-0.578125 -0.46875 -1.4375 -0.46875q-0.859375 0 -1.4375 0.46875q-0.578125 0.46875 -0.875 1.28125q-0.296875 0.8125 -0.296875 1.859375l0 0.203125q0 1.03125 0.296875 1.84375q0.296875 0.8125 0.875 1.28125q0.59375 0.46875 1.453125 0.46875zm5.7703247 1.21875l0 -1.140625l1.484375 -0.265625l0 -7.03125l-1.484375 -0.265625l0 -1.15625l3.09375 0l0.15625 1.265625l0.015625 0.171875q0.421875 -0.765625 1.03125 -1.1875q0.609375 -0.421875 1.40625 -0.421875q0.28125 0 0.578125 0.046875q0.296875 0.046875 0.421875 0.09375l-0.234375 1.671875l-1.25 -0.078125q-0.703125 -0.046875 -1.1875 0.328125q-0.484375 0.359375 -0.75 0.984375l0 5.578125l1.484375 0.265625l0 1.140625l-4.765625 0z" fill-rule="nonzero"/><path fill="#000000" d="m31.171047 262.82288l0 -1.140625l1.484375 -0.265625l0 -7.1249847l-1.546875 0l0 -1.328125l1.546875 0l0 -1.25q0 -1.578125 0.8125 -2.4375q0.828125 -0.859375 2.3125 -0.859375q0.3125 0 0.671875 0.0625q0.359375 0.046875 0.734375 0.140625l-0.21875 1.359375q-0.15625 -0.03125 -0.4375 -0.0625q-0.28125 -0.03125 -0.53125 -0.03125q-0.78125 0 -1.171875 0.46875q-0.375 0.46875 -0.375 1.359375l0 1.25l2.140625 0l0 1.328125l-2.140625 0l0 7.1249847l1.6875 0.265625l0 1.140625l-4.96875 0zm10.979385 0.1875q-1.609375 0 -2.515625 -1.03125q-0.890625 -1.03125 -0.890625 -3.203125l0 -4.3906097l-1.140625 -0.265625l0 -1.15625l1.140625 0l1.78125 0l0 5.8281097q0 1.578125 0.46875 2.171875q0.46875 0.59375 1.453125 0.59375q0.953125 0 1.578125 -0.390625q0.625 -0.390625 0.9375 -1.09375l0 -5.6874847l-1.3125 -0.265625l0 -1.15625l1.3125 0l1.796875 0l0 8.45311l1.140625 0.265625l0 1.140625l-2.75 0l-0.125 -1.453125q-0.453125 0.78125 -1.1875 1.21875q-0.734375 0.421875 -1.6875 0.421875zm6.997574 -0.1875l0 -1.140625l1.484375 -0.265625l0 -7.0312347l-1.484375 -0.265625l0 -1.15625l3.09375 0l0.125 1.46875q0.484375 -0.78125 1.21875 -1.203125q0.75 -0.4375 1.703125 -0.4375q1.59375 0 2.46875 0.9375q0.875 0.921875 0.875 2.8749847l0 4.8125l1.484375 0.265625l0 1.140625l-4.765625 0l0 -1.140625l1.484375 -0.265625l0 -4.78125q0 -1.2968597 -0.515625 -1.8437347q-0.515625 -0.546875 -1.5625 -0.546875q-0.78125 0 -1.375 0.375q-0.59375 0.375 -0.953125 1.015625l0 5.7812347l1.484375 0.265625l0 1.140625l-4.765625 0zm16.596043 0.1875q-1.328125 0 -2.3281288 -0.625q-1.0 -0.625 -1.546875 -1.734375q-0.546875 -1.109375 -0.546875 -2.5625l0 -0.390625q0 -1.390625 0.53125 -2.4999847q0.53125 -1.125 1.515625 -1.765625q1.0000038 -0.640625 2.3750038 -0.640625q1.203125 0 2.09375 0.390625q0.890625 0.390625 1.515625 1.0625l0.03125 2.3749847l-1.390625 0l-0.3125 -1.7187347q-0.3125 -0.328125 -0.78125 -0.515625q-0.453125 -0.1875 -1.09375 -0.1875q-0.796875 0 -1.40625 0.484375q-0.6093788 0.46875 -0.9531288 1.265625q-0.328125 0.78123474 -0.328125 1.7499847l0 0.390625q0 1.078125 0.3125 1.875q0.328125 0.78125 0.9062538 1.21875q0.59375 0.421875 1.40625 0.421875q0.90625 0 1.5 -0.5q0.609375 -0.5 0.75 -1.375l1.609375 0l0.015625 0.0625q-0.046875 0.84375 -0.5 1.59375q-0.453125 0.734375 -1.296875 1.1875q-0.84375 0.4375 -2.078125 0.4375zm8.751083 -0.03125q-1.09375 0 -1.734375 -0.640625q-0.640625 -0.640625 -0.640625 -2.0625l0 -5.9843597l-1.5625 0l0 -1.328125l1.5625 0l0 -2.375l1.796875 0l0 2.375l2.140625 0l0 1.328125l-2.140625 0l0 5.9843597q0 0.71875 0.28125 1.0625q0.28125 0.328125 0.75 0.328125q0.3125 0 0.703125 -0.0625q0.40625 -0.0625 0.625 -0.109375l0.234375 1.1875q-0.390625 0.109375 -0.96875 0.203125q-0.5625 0.09375 -1.046875 0.09375zm3.1030579 -0.15625l0 -1.140625l1.484375 -0.265625l0 -7.0312347l-1.484375 -0.265625l0 -1.15625l3.28125 0l0 8.45311l1.484375 0.265625l0 1.140625l-4.765625 0zm1.390625 -12.281235l0 -1.921875l1.890625 0l0 1.921875l-1.890625 0zm9.064392 12.468735q-1.359375 0 -2.359375 -0.640625q-0.984375 -0.640625 -1.53125 -1.765625q-0.53125 -1.140625 -0.53125 -2.59375l0 -0.203125q0 -1.46875 0.53125 -2.5937347q0.546875 -1.140625 1.53125 -1.78125q1.0 -0.640625 2.34375 -0.640625q1.375 0 2.359375 0.640625q0.984375 0.640625 1.515625 1.78125q0.546875 1.1249847 0.546875 2.5937347l0 0.203125q0 1.453125 -0.546875 2.59375q-0.53125 1.140625 -1.515625 1.78125q-0.984375 0.625 -2.34375 0.625zm0 -1.40625q0.859375 0 1.4375 -0.46875q0.578125 -0.46875 0.875 -1.28125q0.296875 -0.8125 0.296875 -1.84375l0 -0.203125q0 -1.046875 -0.296875 -1.8593597q-0.296875 -0.8125 -0.890625 -1.28125q-0.578125 -0.46875 -1.4375 -0.46875q-0.859375 0 -1.4375 0.46875q-0.578125 0.46875 -0.875 1.28125q-0.296875 0.81248474 -0.296875 1.8593597l0 0.203125q0 1.03125 0.296875 1.84375q0.296875 0.8125 0.875 1.28125q0.59375 0.46875 1.453125 0.46875zm5.7859497 1.21875l0 -1.140625l1.484375 -0.265625l0 -7.0312347l-1.484375 -0.265625l0 -1.15625l3.09375 0l0.125 1.46875q0.484375 -0.78125 1.21875 -1.203125q0.75 -0.4375 1.703125 -0.4375q1.59375 0 2.46875 0.9375q0.875 0.921875 0.875 2.8749847l0 4.8125l1.484375 0.265625l0 1.140625l-4.765625 0l0 -1.140625l1.484375 -0.265625l0 -4.78125q0 -1.2968597 -0.515625 -1.8437347q-0.515625 -0.546875 -1.5625 -0.546875q-0.78125 0 -1.375 0.375q-0.59375 0.375 -0.953125 1.015625l0 5.7812347l1.484375 0.265625l0 1.140625l-4.765625 0z" fill-rule="nonzero"/><path fill="#d9ead3" d="m304.27823 223.09186l128.40942 0l0 43.62204l-128.40942 0z" fill-rule="evenodd"/><path fill="#000000" d="m327.29486 252.01039q-1.84375 0 -3.1875 -0.84375q-1.34375 -0.859375 -2.078125 -2.359375q-0.71875 -1.515625 -0.71875 -3.5l0 -0.21875q0 -2.015625 0.734375 -3.515625q0.734375 -1.515625 2.0 -2.359375q1.28125 -0.84375 2.90625 -0.84375q1.546875 0 2.625 0.359375q1.078125 0.34375 1.84375 0.953125l0 2.671875l-1.484375 0l-0.1875 -1.921875q-0.4375 -0.28125 -1.09375 -0.4375q-0.640625 -0.15625 -1.53125 -0.15625q-1.140625 0 -2.046875 0.65625q-0.90625 0.65625 -1.4375 1.828125q-0.53125 1.171875 -0.53125 2.734375l0 0.25q0 1.578125 0.484375 2.765625q0.484375 1.171875 1.421875 1.828125q0.953125 0.640625 2.28125 0.640625q0.921875 0 1.546875 -0.15625q0.625 -0.15625 1.109375 -0.40625l0 -3.125l-2.546875 -0.09375l0 -1.3125l4.34375 0l0 5.140625q-0.578125 0.53125 -1.65625 0.984375q-1.0625 0.4375 -2.796875 0.4375zm10.987946 0q-1.375 0 -2.390625 -0.625q-1.0 -0.625 -1.5625 -1.734375q-0.546875 -1.109375 -0.546875 -2.5625l0 -0.40625q0 -1.40625 0.578125 -2.5q0.578125 -1.109375 1.53125 -1.75q0.96875 -0.640625 2.109375 -0.640625q1.328125 0 2.21875 0.546875q0.90625 0.53125 1.359375 1.53125q0.453125 0.984375 0.453125 2.328125l0 1.109375l-6.390625 0l-0.03125 0.046875q0.015625 0.953125 0.328125 1.6875q0.328125 0.734375 0.921875 1.15625q0.59375 0.40625 1.421875 0.40625q0.90625 0 1.59375 -0.25q0.6875 -0.265625 1.1875 -0.71875l0.703125 1.171875q-0.53125 0.5 -1.40625 0.859375q-0.859375 0.34375 -2.078125 0.34375zm-2.578125 -6.09375l4.53125 0l0 -0.25q0 -0.703125 -0.25 -1.265625q-0.25 -0.5625 -0.75 -0.875q-0.484375 -0.328125 -1.234375 -0.328125q-0.59375 0 -1.09375 0.359375q-0.484375 0.34375 -0.8125 0.953125q-0.3125 0.59375 -0.421875 1.359375l0.03125 0.046875zm7.725067 5.90625l0 -1.140625l1.484375 -0.265625l0 -7.03125l-1.484375 -0.265625l0 -1.15625l3.09375 0l0.125 1.46875q0.484375 -0.78125 1.21875 -1.203125q0.75 -0.4375 1.703125 -0.4375q1.59375 0 2.46875 0.9375q0.875 0.921875 0.875 2.875l0 4.8125l1.484375 0.265625l0 1.140625l-4.765625 0l0 -1.140625l1.484375 -0.265625l0 -4.78125q0 -1.296875 -0.515625 -1.84375q-0.515625 -0.546875 -1.5625 -0.546875q-0.78125 0 -1.375 0.375q-0.59375 0.375 -0.953125 1.015625l0 5.78125l1.484375 0.265625l0 1.140625l-4.765625 0zm16.597351 0.1875q-1.375 0 -2.390625 -0.625q-1.0 -0.625 -1.5625 -1.734375q-0.546875 -1.109375 -0.546875 -2.5625l0 -0.40625q0 -1.40625 0.578125 -2.5q0.578125 -1.109375 1.53125 -1.75q0.96875 -0.640625 2.109375 -0.640625q1.328125 0 2.21875 0.546875q0.90625 0.53125 1.359375 1.53125q0.453125 0.984375 0.453125 2.328125l0 1.109375l-6.390625 0l-0.03125 0.046875q0.015625 0.953125 0.328125 1.6875q0.328125 0.734375 0.921875 1.15625q0.59375 0.40625 1.421875 0.40625q0.90625 0 1.59375 -0.25q0.6875 -0.265625 1.1875 -0.71875l0.703125 1.171875q-0.53125 0.5 -1.40625 0.859375q-0.859375 0.34375 -2.078125 0.34375zm-2.578125 -6.09375l4.53125 0l0 -0.25q0 -0.703125 -0.25 -1.265625q-0.25 -0.5625 -0.75 -0.875q-0.484375 -0.328125 -1.234375 -0.328125q-0.59375 0 -1.09375 0.359375q-0.484375 0.34375 -0.8125 0.953125q-0.3125 0.59375 -0.421875 1.359375l0.03125 0.046875zm7.709442 5.90625l0 -1.140625l1.484375 -0.265625l0 -7.03125l-1.484375 -0.265625l0 -1.15625l3.09375 0l0.15628052 1.265625l0.015625 0.171875q0.421875 -0.765625 1.03125 -1.1875q0.609375 -0.421875 1.40625 -0.421875q0.28125 0 0.578125 0.046875q0.296875 0.046875 0.421875 0.09375l-0.234375 1.671875l-1.25 -0.078125q-0.703125 -0.046875 -1.1875 0.328125q-0.484375 0.359375 -0.75 0.984375l0 5.578125l1.484375 0.265625l0 1.140625l-4.7656555 0zm10.982666 0.1875q-1.53125 0 -2.34375 -0.75q-0.796875 -0.75 -0.796875 -2.109375q0 -0.9375 0.515625 -1.640625q0.515625 -0.703125 1.484375 -1.078125q0.984375 -0.390625 2.34375 -0.390625l1.75 0l0 -0.96875q0 -0.890625 -0.546875 -1.375q-0.53125 -0.5 -1.515625 -0.5q-0.625 0 -1.078125 0.15625q-0.453125 0.140625 -0.828125 0.40625l-0.1875 1.375l-1.390625 0l0 -2.265625q0.671875 -0.53125 1.546875 -0.796875q0.890625 -0.28125 1.953125 -0.28125q1.796875 0 2.8125 0.859375q1.03125 0.84375 1.03125 2.4375l0 4.75q0 0.1875 0 0.375q0.015625 0.171875 0.03125 0.359375l0.953125 0.109375l0 1.140625l-2.578125 0q-0.078125 -0.40625 -0.125 -0.71875q-0.046875 -0.3125 -0.0625 -0.640625q-0.53125 0.671875 -1.3125 1.109375q-0.765625 0.4375 -1.65625 0.4375zm0.265625 -1.5q0.890625 0 1.625 -0.421875q0.75 -0.4375 1.0625 -1.03125l0 -1.796875l-1.828125 0q-1.234375 0 -1.859375 0.59375q-0.609375 0.59375 -0.609375 1.328125q0 0.640625 0.390625 0.984375q0.40625 0.34375 1.21875 0.34375zm10.343201 1.46875q-1.09375 0 -1.734375 -0.640625q-0.640625 -0.640625 -0.640625 -2.0625l0 -5.984375l-1.5625 0l0 -1.328125l1.5625 0l0 -2.375l1.796875 0l0 2.375l2.140625 0l0 1.328125l-2.140625 0l0 5.984375q0 0.71875 0.28125 1.0625q0.28125 0.328125 0.75 0.328125q0.3125 0 0.703125 -0.0625q0.40625 -0.0625 0.625 -0.109375l0.234375 1.1875q-0.390625 0.109375 -0.96875 0.203125q-0.5625 0.09375 -1.046875 0.09375zm7.436371 0.03125q-1.359375 0 -2.359375 -0.640625q-0.984375 -0.640625 -1.53125 -1.765625q-0.53125 -1.140625 -0.53125 -2.59375l0 -0.203125q0 -1.46875 0.53125 -2.59375q0.546875 -1.140625 1.53125 -1.78125q1.0 -0.640625 2.34375 -0.640625q1.375 0 2.359375 0.640625q0.984375 0.640625 1.515625 1.78125q0.546875 1.125 0.546875 2.59375l0 0.203125q0 1.453125 -0.546875 2.59375q-0.53125 1.140625 -1.515625 1.78125q-0.984375 0.625 -2.34375 0.625zm0 -1.40625q0.859375 0 1.4375 -0.46875q0.578125 -0.46875 0.875 -1.28125q0.296875 -0.8125 0.296875 -1.84375l0 -0.203125q0 -1.046875 -0.296875 -1.859375q-0.296875 -0.8125 -0.890625 -1.28125q-0.578125 -0.46875 -1.4375 -0.46875q-0.859375 0 -1.4375 0.46875q-0.578125 0.46875 -0.875 1.28125q-0.296875 0.8125 -0.296875 1.859375l0 0.203125q0 1.03125 0.296875 1.84375q0.296875 0.8125 0.875 1.28125q0.59375 0.46875 1.453125 0.46875zm5.7703247 1.21875l0 -1.140625l1.484375 -0.265625l0 -7.03125l-1.484375 -0.265625l0 -1.15625l3.09375 0l0.15625 1.265625l0.015625 0.171875q0.421875 -0.765625 1.03125 -1.1875q0.609375 -0.421875 1.40625 -0.421875q0.28125 0 0.578125 0.046875q0.296875 0.046875 0.421875 0.09375l-0.234375 1.671875l-1.25 -0.078125q-0.703125 -0.046875 -1.1875 0.328125q-0.484375 0.359375 -0.75 0.984375l0 5.578125l1.484375 0.265625l0 1.140625l-4.765625 0zm11.7951355 0.1875q-1.0 0 -1.875 -0.1875q-0.859375 -0.203125 -1.828125 -0.625l-0.015625 -2.34375l1.359375 0l0.328125 1.40625q0.515625 0.21875 0.984375 0.3125q0.484375 0.09375 1.046875 0.09375q1.078125 0 1.546875 -0.421875q0.484375 -0.421875 0.484375 -1.03125q0 -0.59375 -0.484375 -1.0q-0.46875 -0.40625 -1.734375 -0.6875q-1.78125 -0.40625 -2.625 -1.09375q-0.84375 -0.6875 -0.84375 -1.828125q0 -0.8125 0.46875 -1.4375q0.46875 -0.640625 1.296875 -1.0q0.828125 -0.375 1.921875 -0.375q1.125 0 1.921875 0.25q0.796875 0.25 1.390625 0.6875l0.09375 2.25l-1.34375 0l-0.296875 -1.3125q-0.3125 -0.25 -0.75 -0.375q-0.4375 -0.125 -1.015625 -0.125q-0.828125 0 -1.359375 0.390625q-0.515625 0.390625 -0.515625 0.984375q0 0.34375 0.140625 0.609375q0.15625 0.25 0.578125 0.453125q0.4375 0.203125 1.265625 0.40625q2.0625 0.484375 2.875 1.234375q0.8125 0.75 0.8125 1.84375q0 1.234375 -0.921875 2.078125q-0.921875 0.84375 -2.90625 0.84375z" fill-rule="nonzero"/><path fill="#000000" fill-opacity="0.0" d="m124.35958 244.9029l179.90552 0" fill-rule="evenodd"/><path stroke="#ffffff" stroke-width="2.0" stroke-linejoin="round" stroke-linecap="butt" d="m124.35958 244.9029l167.90552 0" fill-rule="evenodd"/><path fill="#ffffff" stroke="#ffffff" stroke-width="2.0" stroke-linecap="butt" d="m292.2651 248.20634l9.076172 -3.3034515l-9.076172 -3.3034668z" fill-rule="evenodd"/><path fill="#000000" fill-opacity="0.0" d="m144.42783 184.17848l152.53543 0l0 67.87401l-152.53543 0z" fill-rule="evenodd"/><path fill="#f3f3f3" d="m163.39658 212.37848l-2.828125 0l-1.265625 -3.9375l-0.453125 -1.59375l-0.4375 1.640625l-1.25 3.890625l-2.703125 0l-0.703125 -12.765625l2.109375 0l0.3125 8.1875l0.078125 2.234375l0.578125 -2.0l1.40625 -4.53125l1.5 0l1.484375 4.8125l0.484375 1.703125l0.046875 -2.0l0.3125 -8.40625l2.046875 0l-0.71875 12.765625zm8.308594 0l0 -6.46875q0 -1.625 -1.21875 -1.625q-0.609375 0 -1.15625 0.484375q-0.546875 0.484375 -1.171875 1.328125l0 6.28125l-2.375 0l0 -13.796875l2.375 0l0 3.390625l-0.109375 1.796875q0.296875 -0.359375 0.609375 -0.640625q0.3125 -0.296875 0.671875 -0.484375q0.375 -0.203125 0.78125 -0.296875q0.421875 -0.109375 0.9375 -0.109375q0.765625 0 1.328125 0.25q0.5625 0.25 0.9375 0.703125q0.390625 0.453125 0.578125 1.09375q0.1875 0.640625 0.1875 1.4375l0 6.65625l-2.375 0zm13.714844 -5.71875q0 0.234375 -0.015625 0.625q-0.015625 0.390625 -0.046875 0.734375l-6.515625 0q0 0.65625 0.1875 1.15625q0.203125 0.5 0.5625 0.84375q0.375 0.328125 0.890625 0.5q0.515625 0.171875 1.140625 0.171875q0.71875 0 1.546875 -0.109375q0.828125 -0.109375 1.71875 -0.359375l0 1.890625q-0.390625 0.109375 -0.84375 0.203125q-0.4375 0.078125 -0.90625 0.140625q-0.46875 0.078125 -0.953125 0.109375q-0.46875 0.03125 -0.921875 0.03125q-1.140625 0 -2.046875 -0.3125q-0.890625 -0.328125 -1.515625 -0.953125q-0.625 -0.640625 -0.953125 -1.5625q-0.328125 -0.921875 -0.328125 -2.140625q0 -1.21875 0.328125 -2.203125q0.328125 -1.0 0.9375 -1.703125q0.609375 -0.703125 1.46875 -1.09375q0.859375 -0.390625 1.9375 -0.390625q1.046875 0 1.859375 0.328125q0.8125 0.328125 1.359375 0.921875q0.546875 0.578125 0.828125 1.390625q0.28125 0.8125 0.28125 1.78125zm-2.421875 -0.34375q0.015625 -0.59375 -0.140625 -1.015625q-0.15625 -0.4375 -0.4375 -0.71875q-0.265625 -0.296875 -0.625 -0.421875q-0.34375 -0.140625 -0.765625 -0.140625q-0.890625 0 -1.46875 0.609375q-0.578125 0.59375 -0.6875 1.6875l4.125 0zm10.699219 6.0625l0 -6.46875q0 -1.625 -1.21875 -1.625q-0.609375 0 -1.15625 0.484375q-0.546875 0.484375 -1.171875 1.328125l0 6.28125l-2.375 0l0 -9.921875l2.0625 0l0.0625 1.46875q0.296875 -0.390625 0.625 -0.703125q0.328125 -0.3125 0.703125 -0.53125q0.390625 -0.21875 0.828125 -0.328125q0.4375 -0.125 0.984375 -0.125q0.765625 0 1.328125 0.25q0.5625 0.25 0.9375 0.703125q0.390625 0.453125 0.578125 1.09375q0.1875 0.640625 0.1875 1.4375l0 6.65625l-2.375 0zm24.101562 -0.375q-0.703125 0.28125 -1.46875 0.40625q-0.75 0.140625 -1.5625 0.140625q-1.1875 0 -2.125 -0.3125q-0.9375 -0.328125 -1.59375 -0.953125q-0.640625 -0.640625 -1.0 -1.578125q-0.34375 -0.9375 -0.34375 -2.171875q0 -1.1875 0.375 -2.15625q0.375 -0.96875 1.0625 -1.65625q0.6875 -0.6875 1.640625 -1.046875q0.96875 -0.375 2.15625 -0.375q0.953125 0 1.609375 0.109375q0.671875 0.09375 1.203125 0.25l0 2.3125q-0.609375 -0.296875 -1.328125 -0.453125q-0.703125 -0.171875 -1.328125 -0.171875q-0.671875 0 -1.203125 0.21875q-0.515625 0.21875 -0.890625 0.625q-0.359375 0.40625 -0.546875 0.984375q-0.1875 0.5625 -0.1875 1.234375q0 0.71875 0.203125 1.296875q0.203125 0.5625 0.578125 0.953125q0.375 0.390625 0.90625 0.609375q0.53125 0.203125 1.171875 0.203125q0.3125 0 0.65625 -0.046875q0.34375 -0.046875 0.6875 -0.125q0.359375 -0.078125 0.6875 -0.1875q0.34375 -0.109375 0.640625 -0.234375l0 2.125zm9.183594 0.375l-0.0625 -1.296875q-0.3125 0.328125 -0.65625 0.609375q-0.328125 0.28125 -0.75 0.484375q-0.40625 0.203125 -0.890625 0.3125q-0.484375 0.109375 -1.0625 0.109375q-0.75 0 -1.328125 -0.21875q-0.578125 -0.21875 -0.96875 -0.625q-0.390625 -0.40625 -0.59375 -0.96875q-0.203125 -0.5625 -0.203125 -1.25q0 -0.703125 0.296875 -1.296875q0.296875 -0.59375 0.90625 -1.015625q0.609375 -0.4375 1.515625 -0.671875q0.921875 -0.25 2.15625 -0.25l1.296875 0l0 -0.609375q0 -0.375 -0.109375 -0.671875q-0.109375 -0.3125 -0.34375 -0.53125q-0.234375 -0.21875 -0.625 -0.328125q-0.375 -0.125 -0.9375 -0.125q-0.875 0 -1.734375 0.203125q-0.84375 0.203125 -1.640625 0.5625l0 -1.90625q0.703125 -0.28125 1.640625 -0.46875q0.9375 -0.1875 1.9375 -0.1875q1.109375 0 1.890625 0.21875q0.796875 0.203125 1.296875 0.625q0.515625 0.421875 0.765625 1.046875q0.25 0.625 0.25 1.46875l0 6.78125l-2.046875 0zm-0.34375 -4.390625l-1.453125 0q-0.609375 0 -1.03125 0.125q-0.40625 0.109375 -0.671875 0.328125q-0.265625 0.203125 -0.390625 0.46875q-0.125 0.265625 -0.125 0.5625q0 0.609375 0.390625 0.9375q0.390625 0.3125 1.0625 0.3125q0.5 0 1.03125 -0.359375q0.546875 -0.375 1.1875 -1.046875l0 -1.328125zm8.324219 -7.546875l-2.796875 0l0 -1.859375l5.234375 0l0 11.9375l2.859375 0l0 1.859375l-8.4375 0l0 -1.859375l3.140625 0l0 -10.078125zm10.996094 0l-2.796875 0l0 -1.859375l5.234375 0l0 11.9375l2.859375 0l0 1.859375l-8.4375 0l0 -1.859375l3.140625 0l0 -10.078125zm16.433594 6.21875q0 0.234375 -0.015625 0.625q-0.015625 0.390625 -0.046875 0.734375l-6.515625 0q0 0.65625 0.1875 1.15625q0.203125 0.5 0.5625 0.84375q0.375 0.328125 0.890625 0.5q0.515625 0.171875 1.140625 0.171875q0.71875 0 1.546875 -0.109375q0.828125 -0.109375 1.71875 -0.359375l0 1.890625q-0.390625 0.109375 -0.84375 0.203125q-0.4375 0.078125 -0.90625 0.140625q-0.46875 0.078125 -0.953125 0.109375q-0.46875 0.03125 -0.921875 0.03125q-1.140625 0 -2.046875 -0.3125q-0.890625 -0.328125 -1.515625 -0.953125q-0.625 -0.640625 -0.953125 -1.5625q-0.328125 -0.921875 -0.328125 -2.140625q0 -1.21875 0.328125 -2.203125q0.328125 -1.0 0.9375 -1.703125q0.609375 -0.703125 1.46875 -1.09375q0.859375 -0.390625 1.9375 -0.390625q1.046875 0 1.859375 0.328125q0.8125 0.328125 1.359375 0.921875q0.546875 0.578125 0.828125 1.390625q0.28125 0.8125 0.28125 1.78125zm-2.421875 -0.34375q0.015625 -0.59375 -0.140625 -1.015625q-0.15625 -0.4375 -0.4375 -0.71875q-0.265625 -0.296875 -0.625 -0.421875q-0.34375 -0.140625 -0.765625 -0.140625q-0.890625 0 -1.46875 0.609375q-0.578125 0.59375 -0.6875 1.6875l4.125 0zm11.011719 6.0625l-0.046875 -1.46875q-0.3125 0.390625 -0.65625 0.703125q-0.328125 0.3125 -0.71875 0.53125q-0.375 0.21875 -0.8125 0.328125q-0.421875 0.125 -0.953125 0.125q-0.875 0 -1.5625 -0.34375q-0.6875 -0.359375 -1.15625 -1.0q-0.453125 -0.65625 -0.703125 -1.578125q-0.234375 -0.9375 -0.234375 -2.078125q0 -1.359375 0.375 -2.359375q0.390625 -1.0 1.0625 -1.65625q0.6875 -0.671875 1.625 -0.984375q0.9375 -0.3125 2.046875 -0.3125q0.375 0 0.75 0.046875q0.375 0.046875 0.671875 0.125l0 -3.875l2.375 0l0 13.796875l-2.0625 0zm-4.34375 -4.890625q0 0.828125 0.109375 1.40625q0.109375 0.578125 0.328125 0.953125q0.21875 0.375 0.53125 0.546875q0.328125 0.171875 0.75 0.171875q0.59375 0 1.140625 -0.484375q0.546875 -0.5 1.171875 -1.34375l0 -4.34375q-0.28125 -0.109375 -0.703125 -0.171875q-0.421875 -0.0625 -0.828125 -0.0625q-0.578125 0 -1.046875 0.234375q-0.453125 0.234375 -0.78125 0.671875q-0.328125 0.421875 -0.5 1.046875q-0.171875 0.609375 -0.171875 1.375zm9.808594 6.78125q0.578125 0.015625 1.078125 -0.078125q0.515625 -0.078125 0.890625 -0.28125q0.390625 -0.1875 0.59375 -0.484375q0.21875 -0.28125 0.21875 -0.6875q0 -0.28125 -0.09375 -0.484375q-0.078125 -0.203125 -0.203125 -0.359375q-0.125 -0.15625 -0.265625 -0.3125q-0.140625 -0.15625 -0.265625 -0.328125q-0.125 -0.171875 -0.21875 -0.390625q-0.078125 -0.21875 -0.078125 -0.53125q0 -0.296875 0.109375 -0.578125q0.109375 -0.296875 0.3125 -0.515625q0.203125 -0.234375 0.5 -0.359375q0.296875 -0.140625 0.6875 -0.140625q0.46875 0 0.84375 0.21875q0.390625 0.21875 0.65625 0.59375q0.265625 0.375 0.390625 0.859375q0.140625 0.484375 0.140625 1.015625q0 0.90625 -0.328125 1.703125q-0.328125 0.796875 -1.0 1.390625q-0.65625 0.609375 -1.65625 0.953125q-0.984375 0.34375 -2.3125 0.34375l0 -1.546875z" fill-rule="nonzero"/><path fill="#f3f3f3" d="m161.17783 230.31598q0.015625 -0.5625 -0.0625 -0.953125q-0.0625 -0.390625 -0.234375 -0.640625q-0.15625 -0.25 -0.390625 -0.359375q-0.234375 -0.125 -0.53125 -0.125q-0.53125 0 -1.09375 0.4375q-0.5625 0.421875 -1.234375 1.421875l0 6.28125l-2.4375 0l0 -9.921875l2.15625 0l0.078125 1.4375q0.25 -0.375 0.546875 -0.671875q0.3125 -0.3125 0.6875 -0.53125q0.375 -0.21875 0.828125 -0.328125q0.46875 -0.125 1.015625 -0.125q0.75 0 1.328125 0.265625q0.59375 0.25 0.984375 0.765625q0.390625 0.5 0.578125 1.265625q0.203125 0.765625 0.171875 1.78125l-2.390625 0zm13.246094 0.34375q0 0.234375 -0.015625 0.625q-0.015625 0.390625 -0.046875 0.734375l-6.515625 0q0 0.65625 0.1875 1.15625q0.203125 0.5 0.5625 0.84375q0.375 0.328125 0.890625 0.5q0.515625 0.171875 1.140625 0.171875q0.71875 0 1.546875 -0.109375q0.828125 -0.109375 1.71875 -0.359375l0 1.890625q-0.390625 0.109375 -0.84375 0.203125q-0.4375 0.078125 -0.90625 0.140625q-0.46875 0.078125 -0.953125 0.109375q-0.46875 0.03125 -0.921875 0.03125q-1.140625 0 -2.046875 -0.3125q-0.890625 -0.328125 -1.515625 -0.953125q-0.625 -0.640625 -0.953125 -1.5625q-0.328125 -0.921875 -0.328125 -2.140625q0 -1.21875 0.328125 -2.203125q0.328125 -1.0 0.9375 -1.703125q0.609375 -0.703125 1.46875 -1.09375q0.859375 -0.390625 1.9375 -0.390625q1.046875 0 1.859375 0.328125q0.8125 0.328125 1.359375 0.921875q0.546875 0.578125 0.828125 1.390625q0.28125 0.8125 0.28125 1.78125zm-2.421875 -0.34375q0.015625 -0.59375 -0.140625 -1.015625q-0.15625 -0.4375 -0.4375 -0.71875q-0.265625 -0.296875 -0.625 -0.421875q-0.34375 -0.140625 -0.765625 -0.140625q-0.890625 0 -1.46875 0.609375q-0.578125 0.59375 -0.6875 1.6875l4.125 0zm12.964844 5.96875q-0.65625 0.140625 -1.3125 0.21875q-0.640625 0.09375 -1.234375 0.09375q-0.96875 0 -1.6875 -0.203125q-0.703125 -0.203125 -1.171875 -0.625q-0.453125 -0.421875 -0.671875 -1.0625q-0.21875 -0.65625 -0.21875 -1.546875l0 -4.84375l-2.671875 0l0 -1.859375l2.671875 0l0 -2.546875l2.4375 -0.625l0 3.171875l3.859375 0l0 1.859375l-3.859375 0l0 4.65625q0 0.859375 0.390625 1.296875q0.390625 0.421875 1.3125 0.421875q0.578125 0 1.125 -0.09375q0.5625 -0.09375 1.03125 -0.21875l0 1.90625zm5.1679688 -9.828125l0 6.46875q0 0.8125 0.296875 1.234375q0.3125 0.40625 0.921875 0.40625q0.59375 0 1.140625 -0.484375q0.5625 -0.5 1.171875 -1.34375l0 -6.28125l2.390625 0l0 9.921875l-2.0625 0l-0.0625 -1.46875q-0.3125 0.390625 -0.640625 0.703125q-0.3125 0.3125 -0.6875 0.53125q-0.375 0.21875 -0.828125 0.328125q-0.4375 0.125 -0.96875 0.125q-0.765625 0 -1.34375 -0.25q-0.5625 -0.25 -0.953125 -0.703125q-0.375 -0.453125 -0.5625 -1.09375q-0.1875 -0.640625 -0.1875 -1.4375l0 -6.65625l2.375 0zm15.027344 3.859375q0.015625 -0.5625 -0.0625 -0.953125q-0.0625 -0.390625 -0.234375 -0.640625q-0.15625 -0.25 -0.390625 -0.359375q-0.234375 -0.125 -0.53125 -0.125q-0.53125 0 -1.09375 0.4375q-0.5625 0.421875 -1.234375 1.421875l0 6.28125l-2.4375 0l0 -9.921875l2.15625 0l0.078125 1.4375q0.25 -0.375 0.546875 -0.671875q0.3125 -0.3125 0.6875 -0.53125q0.375 -0.21875 0.828125 -0.328125q0.46875 -0.125 1.015625 -0.125q0.75 0 1.328125 0.265625q0.59375 0.25 0.984375 0.765625q0.390625 0.5 0.578125 1.265625q0.203125 0.765625 0.171875 1.78125l-2.390625 0zm10.527344 6.0625l0 -6.46875q0 -1.625 -1.21875 -1.625q-0.609375 0 -1.15625 0.484375q-0.546875 0.484375 -1.171875 1.328125l0 6.28125l-2.375 0l0 -9.921875l2.0625 0l0.0625 1.46875q0.296875 -0.390625 0.625 -0.703125q0.328125 -0.3125 0.703125 -0.53125q0.390625 -0.21875 0.828125 -0.328125q0.4375 -0.125 0.984375 -0.125q0.765625 0 1.328125 0.25q0.5625 0.25 0.9375 0.703125q0.390625 0.453125 0.578125 1.09375q0.1875 0.640625 0.1875 1.4375l0 6.65625l-2.375 0zm13.261719 -2.921875q0 0.84375 -0.375 1.453125q-0.375 0.59375 -1.0 0.96875q-0.625 0.375 -1.40625 0.546875q-0.78125 0.171875 -1.609375 0.171875q-1.09375 0 -1.96875 -0.109375q-0.875 -0.09375 -1.65625 -0.28125l0 -2.15625q0.90625 0.390625 1.8125 0.5625q0.921875 0.15625 1.734375 0.15625q0.9375 0 1.390625 -0.296875q0.46875 -0.296875 0.46875 -0.765625q0 -0.234375 -0.09375 -0.40625q-0.09375 -0.1875 -0.359375 -0.359375q-0.265625 -0.171875 -0.765625 -0.34375q-0.484375 -0.1875 -1.28125 -0.421875q-0.71875 -0.203125 -1.28125 -0.453125q-0.546875 -0.265625 -0.90625 -0.609375q-0.359375 -0.359375 -0.546875 -0.8125q-0.171875 -0.46875 -0.171875 -1.09375q0 -0.609375 0.265625 -1.140625q0.28125 -0.546875 0.8125 -0.953125q0.546875 -0.40625 1.359375 -0.640625q0.8125 -0.234375 1.890625 -0.234375q0.9375 0 1.65625 0.109375q0.734375 0.09375 1.28125 0.203125l0 1.953125q-0.84375 -0.28125 -1.59375 -0.390625q-0.75 -0.109375 -1.484375 -0.109375q-0.734375 0 -1.171875 0.265625q-0.4375 0.25 -0.4375 0.71875q0 0.234375 0.078125 0.40625q0.09375 0.171875 0.34375 0.34375q0.265625 0.171875 0.71875 0.359375q0.46875 0.171875 1.234375 0.375q0.859375 0.25 1.4375 0.53125q0.59375 0.28125 0.953125 0.640625q0.359375 0.34375 0.515625 0.796875q0.15625 0.4375 0.15625 1.015625zm20.023438 2.921875l-0.0625 -1.296875q-0.3125 0.328125 -0.65625 0.609375q-0.328125 0.28125 -0.75 0.484375q-0.40625 0.203125 -0.890625 0.3125q-0.484375 0.109375 -1.0625 0.109375q-0.75 0 -1.328125 -0.21875q-0.578125 -0.21875 -0.96875 -0.625q-0.390625 -0.40625 -0.59375 -0.96875q-0.203125 -0.5625 -0.203125 -1.25q0 -0.703125 0.296875 -1.296875q0.296875 -0.59375 0.90625 -1.015625q0.609375 -0.4375 1.515625 -0.671875q0.921875 -0.25 2.15625 -0.25l1.296875 0l0 -0.609375q0 -0.375 -0.109375 -0.671875q-0.109375 -0.3125 -0.34375 -0.53125q-0.234375 -0.21875 -0.625 -0.328125q-0.375 -0.125 -0.9375 -0.125q-0.875 0 -1.734375 0.203125q-0.84375 0.203125 -1.640625 0.5625l0 -1.90625q0.703125 -0.28125 1.640625 -0.46875q0.9375 -0.1875 1.9375 -0.1875q1.109375 0 1.890625 0.21875q0.796875 0.203125 1.296875 0.625q0.515625 0.421875 0.765625 1.046875q0.25 0.625 0.25 1.46875l0 6.78125l-2.046875 0zm-0.34375 -4.390625l-1.453125 0q-0.609375 0 -1.03125 0.125q-0.40625 0.109375 -0.671875 0.328125q-0.265625 0.203125 -0.390625 0.46875q-0.125 0.265625 -0.125 0.5625q0 0.609375 0.390625 0.9375q0.390625 0.3125 1.0625 0.3125q0.5 0 1.03125 -0.359375q0.546875 -0.375 1.1875 -1.046875l0 -1.328125z" fill-rule="nonzero"/><path fill="#000000" fill-opacity="0.0" d="m368.48294 75.1706c0 -12.500034 18.688507 -24.985897 36.602478 -25.000076c17.91397 -0.014175415 35.053406 12.443325 36.602478 24.893738c1.5490417 12.450417 -12.492249 24.893745 -24.984497 24.893745" fill-rule="evenodd"/><path stroke="#ffffff" stroke-width="2.0" stroke-linejoin="round" stroke-linecap="butt" d="m368.48294 75.1706c0 -12.500038 18.688477 -24.985893 36.602478 -25.000072c17.91397 -0.01417923 35.053406 12.443321 36.602448 24.893734c0.77456665 6.225212 -2.3485107 12.448647 -7.2267456 17.115776c-1.2195129 1.1667862 -2.5487976 2.2362976 -3.9542847 3.1842575c-0.70269775 0.47397614 -1.4244995 0.917572 -2.1611633 1.3277283l-0.08267212 0.04485321" fill-rule="evenodd"/><path fill="#ffffff" stroke="#ffffff" stroke-width="2.0" stroke-linecap="butt" d="m427.37628 93.55465l-7.8563538 5.6185303l9.629822 0.7459259z" fill-rule="evenodd"/><path fill="#000000" fill-opacity="0.0" d="m353.26508 6.5485563l118.834656 0l0 43.622047l-118.834656 0z" fill-rule="evenodd"/><path fill="#f3f3f3" d="m369.4682 22.107931q0 0.328125 -0.125 0.609375q-0.109375 0.28125 -0.328125 0.5q-0.203125 0.203125 -0.484375 0.328125q-0.28125 0.125 -0.625 0.125q-0.328125 0 -0.625 -0.125q-0.28125 -0.125 -0.5 -0.328125q-0.203125 -0.21875 -0.328125 -0.5q-0.109375 -0.28125 -0.109375 -0.609375q0 -0.3125 0.109375 -0.59375q0.125 -0.296875 0.328125 -0.5q0.21875 -0.21875 0.5 -0.34375q0.296875 -0.125 0.625 -0.125q0.34375 0 0.625 0.125q0.28125 0.125 0.484375 0.34375q0.21875 0.203125 0.328125 0.5q0.125 0.28125 0.125 0.59375zm-2.640625 4.578125l-2.796875 0l0 -1.859375l5.234375 0l0 8.062498l2.859375 0l0 1.859375l-8.4375 0l0 -1.859375l3.140625 0l0 -6.203123zm15.980469 7.968748q-0.65625 0.140625 -1.3125 0.21875q-0.640625 0.09375 -1.234375 0.09375q-0.96875 0 -1.6875 -0.203125q-0.703125 -0.203125 -1.171875 -0.625q-0.453125 -0.421875 -0.671875 -1.0625q-0.21875 -0.65625 -0.21875 -1.5468731l0 -4.84375l-2.671875 0l0 -1.859375l2.671875 0l0 -2.546875l2.4375 -0.625l0 3.171875l3.859375 0l0 1.859375l-3.859375 0l0 4.65625q0 0.8593731 0.390625 1.2968731q0.390625 0.421875 1.3125 0.421875q0.578125 0 1.125 -0.09375q0.5625 -0.09375 1.03125 -0.21875l0 1.90625zm11.449219 -5.624998q0 0.234375 -0.015625 0.625q-0.015625 0.390625 -0.046875 0.734375l-6.515625 0q0 0.65625 0.1875 1.15625q0.203125 0.4999981 0.5625 0.8437481q0.375 0.328125 0.890625 0.5q0.515625 0.171875 1.140625 0.171875q0.71875 0 1.546875 -0.109375q0.828125 -0.109375 1.71875 -0.359375l0 1.890625q-0.390625 0.109375 -0.84375 0.203125q-0.4375 0.078125 -0.90625 0.140625q-0.46875 0.078125 -0.953125 0.109375q-0.46875 0.03125 -0.921875 0.03125q-1.140625 0 -2.046875 -0.3125q-0.890625 -0.328125 -1.515625 -0.953125q-0.625 -0.640625 -0.953125 -1.5625q-0.328125 -0.9218731 -0.328125 -2.140623q0 -1.21875 0.328125 -2.203125q0.328125 -1.0 0.9375 -1.703125q0.609375 -0.703125 1.46875 -1.09375q0.859375 -0.390625 1.9375 -0.390625q1.046875 0 1.859375 0.328125q0.8125 0.328125 1.359375 0.921875q0.546875 0.578125 0.828125 1.390625q0.28125 0.8125 0.28125 1.78125zm-2.421875 -0.34375q0.015625 -0.59375 -0.140625 -1.015625q-0.15625 -0.4375 -0.4375 -0.71875q-0.265625 -0.296875 -0.625 -0.421875q-0.34375 -0.140625 -0.765625 -0.140625q-0.890625 0 -1.46875 0.609375q-0.578125 0.59375 -0.6875 1.6875l4.125 0zm11.167969 0q0.015625 -0.5625 -0.0625 -0.953125q-0.0625 -0.390625 -0.234375 -0.640625q-0.15625 -0.25 -0.390625 -0.359375q-0.234375 -0.125 -0.53125 -0.125q-0.53125 0 -1.09375 0.4375q-0.5625 0.421875 -1.234375 1.421875l0 6.281248l-2.4375 0l0 -9.921873l2.15625 0l0.078125 1.4375q0.25 -0.375 0.546875 -0.671875q0.3125 -0.3125 0.6875 -0.53125q0.375 -0.21875 0.828125 -0.328125q0.46875 -0.125 1.015625 -0.125q0.75 0 1.328125 0.265625q0.59375 0.25 0.984375 0.765625q0.390625 0.5 0.578125 1.265625q0.203125 0.765625 0.171875 1.78125l-2.390625 0zm10.652344 10.171873q-2.375 -2.015625 -3.5625 -4.3125q-1.1875 -2.3125 -1.1875 -4.968748q0 -1.484375 0.34375 -2.8125q0.359375 -1.328125 1.0 -2.484375q0.640625 -1.15625 1.515625 -2.171875q0.890625 -1.03125 1.953125 -1.921875l1.34375 1.359375q-1.890625 1.703125 -2.859375 3.6875q-0.953125 1.984375 -0.953125 4.171875q0 2.21875 0.953125 4.265623q0.96875 2.046875 2.859375 3.734375l-1.40625 1.453125zm9.027344 -7.718748q0.40625 0 0.75 0.15625q0.359375 0.15625 0.625 0.421875q0.265625 0.25 0.40625 0.6093731q0.140625 0.34375 0.140625 0.734375q0 0.390625 -0.140625 0.75q-0.140625 0.34375 -0.40625 0.609375q-0.265625 0.25 -0.625 0.390625q-0.34375 0.15625 -0.75 0.15625q-0.390625 0 -0.734375 -0.15625q-0.34375 -0.140625 -0.59375 -0.390625q-0.25 -0.265625 -0.40625 -0.609375q-0.140625 -0.359375 -0.140625 -0.75q0 -0.390625 0.140625 -0.734375q0.15625 -0.3593731 0.40625 -0.6093731q0.25 -0.265625 0.59375 -0.421875q0.34375 -0.15625 0.734375 -0.15625zm10.996094 0q0.40625 0 0.75 0.15625q0.359375 0.15625 0.625 0.421875q0.265625 0.25 0.40625 0.6093731q0.140625 0.34375 0.140625 0.734375q0 0.390625 -0.140625 0.75q-0.140625 0.34375 -0.40625 0.609375q-0.265625 0.25 -0.625 0.390625q-0.34375 0.15625 -0.75 0.15625q-0.390625 0 -0.734375 -0.15625q-0.34375 -0.140625 -0.59375 -0.390625q-0.25 -0.265625 -0.40625 -0.609375q-0.140625 -0.359375 -0.140625 -0.75q0 -0.390625 0.140625 -0.734375q0.15625 -0.3593731 0.40625 -0.6093731q0.25 -0.265625 0.59375 -0.421875q0.34375 -0.15625 0.734375 -0.15625zm10.996094 0q0.40625 0 0.75 0.15625q0.359375 0.15625 0.625 0.421875q0.265625 0.25 0.40625 0.6093731q0.140625 0.34375 0.140625 0.734375q0 0.390625 -0.140625 0.75q-0.140625 0.34375 -0.40625 0.609375q-0.265625 0.25 -0.625 0.390625q-0.34375 0.15625 -0.75 0.15625q-0.390625 0 -0.734375 -0.15625q-0.34375 -0.140625 -0.59375 -0.390625q-0.25 -0.265625 -0.40625 -0.609375q-0.140625 -0.359375 -0.140625 -0.75q0 -0.390625 0.140625 -0.734375q0.15625 -0.3593731 0.40625 -0.6093731q0.25 -0.265625 0.59375 -0.421875q0.34375 -0.15625 0.734375 -0.15625zm9.199219 -10.953125q2.390625 2.0 3.5625 4.3125q1.171875 2.296875 1.171875 4.96875q0 1.484375 -0.359375 2.812498q-0.34375 1.3125 -0.96875 2.484375q-0.625 1.171875 -1.515625 2.1875q-0.875 1.015625 -1.921875 1.90625l-1.375 -1.359375q1.921875 -1.71875 2.875 -3.703125q0.953125 -1.9999981 0.953125 -4.187498q0 -2.203125 -0.953125 -4.25q-0.953125 -2.0625 -2.875 -3.75l1.40625 -1.421875z" fill-rule="nonzero"/><path fill="#000000" fill-opacity="0.0" d="m368.48294 223.09186l0 -98.3622" fill-rule="evenodd"/><path stroke="#ffffff" stroke-width="2.0" stroke-linejoin="round" stroke-linecap="butt" d="m368.48294 223.09186l0 -86.3622" fill-rule="evenodd"/><path fill="#ffffff" stroke="#ffffff" stroke-width="2.0" stroke-linecap="butt" d="m371.7864 136.72966l-3.3034668 -9.076195l-3.3034668 9.076195z" fill-rule="evenodd"/><path fill="#000000" fill-opacity="0.0" d="m368.6719 139.98163l112.787415 0l0 67.87401l-112.787415 0z" fill-rule="evenodd"/><path fill="#f3f3f3" d="m384.87503 155.541q0 0.328125 -0.125 0.609375q-0.109375 0.28125 -0.328125 0.5q-0.203125 0.203125 -0.484375 0.328125q-0.28125 0.125 -0.625 0.125q-0.328125 0 -0.625 -0.125q-0.28125 -0.125 -0.5 -0.328125q-0.203125 -0.21875 -0.328125 -0.5q-0.109375 -0.28125 -0.109375 -0.609375q0 -0.3125 0.109375 -0.59375q0.125 -0.296875 0.328125 -0.5q0.21875 -0.21875 0.5 -0.34375q0.296875 -0.125 0.625 -0.125q0.34375 0 0.625 0.125q0.28125 0.125 0.484375 0.34375q0.21875 0.203125 0.328125 0.5q0.125 0.28125 0.125 0.59375zm-2.640625 4.578125l-2.796875 0l0 -1.859375l5.234375 0l0 8.0625l2.859375 0l0 1.859375l-8.4375 0l0 -1.859375l3.140625 0l0 -6.203125zm15.980469 5.140625q0 0.84375 -0.375 1.453125q-0.375 0.59375 -1.0 0.96875q-0.625 0.375 -1.40625 0.546875q-0.78125 0.171875 -1.609375 0.171875q-1.09375 0 -1.96875 -0.109375q-0.875 -0.09375 -1.65625 -0.28125l0 -2.15625q0.90625 0.390625 1.8125 0.5625q0.921875 0.15625 1.734375 0.15625q0.9375 0 1.390625 -0.296875q0.46875 -0.296875 0.46875 -0.765625q0 -0.234375 -0.09375 -0.40625q-0.09375 -0.1875 -0.359375 -0.359375q-0.265625 -0.171875 -0.765625 -0.34375q-0.484375 -0.1875 -1.28125 -0.421875q-0.71875 -0.203125 -1.28125 -0.453125q-0.546875 -0.265625 -0.90625 -0.609375q-0.359375 -0.359375 -0.546875 -0.8125q-0.171875 -0.46875 -0.171875 -1.09375q0 -0.609375 0.265625 -1.140625q0.28125 -0.546875 0.8125 -0.953125q0.546875 -0.40625 1.359375 -0.640625q0.8125 -0.234375 1.890625 -0.234375q0.9375 0 1.65625 0.109375q0.734375 0.09375 1.28125 0.203125l0 1.953125q-0.84375 -0.28125 -1.59375 -0.390625q-0.75 -0.109375 -1.484375 -0.109375q-0.734375 0 -1.171875 0.265625q-0.4375 0.25 -0.4375 0.71875q0 0.234375 0.078125 0.40625q0.09375 0.171875 0.34375 0.34375q0.265625 0.171875 0.71875 0.359375q0.46875 0.171875 1.234375 0.375q0.859375 0.25 1.4375 0.53125q0.59375 0.28125 0.953125 0.640625q0.359375 0.34375 0.515625 0.796875q0.15625 0.4375 0.15625 1.015625zm20.023438 2.921875l-0.0625 -1.296875q-0.3125 0.328125 -0.65625 0.609375q-0.328125 0.28125 -0.75 0.484375q-0.40625 0.203125 -0.890625 0.3125q-0.484375 0.109375 -1.0625 0.109375q-0.75 0 -1.328125 -0.21875q-0.578125 -0.21875 -0.96875 -0.625q-0.390625 -0.40625 -0.59375 -0.96875q-0.203125 -0.5625 -0.203125 -1.25q0 -0.703125 0.296875 -1.296875q0.296875 -0.59375 0.90625 -1.015625q0.609375 -0.4375 1.515625 -0.671875q0.921875 -0.25 2.15625 -0.25l1.296875 0l0 -0.609375q0 -0.375 -0.109375 -0.671875q-0.109375 -0.3125 -0.34375 -0.53125q-0.234375 -0.21875 -0.625 -0.328125q-0.375 -0.125 -0.9375 -0.125q-0.875 0 -1.734375 0.203125q-0.84375 0.203125 -1.640625 0.5625l0 -1.90625q0.703125 -0.28125 1.640625 -0.46875q0.9375 -0.1875 1.9375 -0.1875q1.109375 0 1.890625 0.21875q0.796875 0.203125 1.296875 0.625q0.515625 0.421875 0.765625 1.046875q0.25 0.625 0.25 1.46875l0 6.78125l-2.046875 0zm-0.34375 -4.390625l-1.453125 0q-0.609375 0 -1.03125 0.125q-0.40625 0.109375 -0.671875 0.328125q-0.265625 0.203125 -0.390625 0.46875q-0.125 0.265625 -0.125 0.5625q0 0.609375 0.390625 0.9375q0.390625 0.3125 1.0625 0.3125q0.5 0 1.03125 -0.359375q0.546875 -0.375 1.1875 -1.046875l0 -1.328125z" fill-rule="nonzero"/><path fill="#f3f3f3" d="m387.21878 192.08788q-0.65625 0.140625 -1.3125 0.21875q-0.640625 0.09375 -1.234375 0.09375q-0.96875 0 -1.6875 -0.203125q-0.703125 -0.203125 -1.171875 -0.625q-0.453125 -0.421875 -0.671875 -1.0625q-0.21875 -0.65625 -0.21875 -1.546875l0 -4.84375l-2.671875 0l0 -1.859375l2.671875 0l0 -2.546875l2.4375 -0.625l0 3.171875l3.859375 0l0 1.859375l-3.859375 0l0 4.65625q0 0.859375 0.390625 1.296875q0.390625 0.421875 1.3125 0.421875q0.578125 0 1.125 -0.09375q0.5625 -0.09375 1.03125 -0.21875l0 1.90625zm8.777344 -0.984375q-0.515625 1.28125 -1.078125 2.25q-0.5625 0.984375 -1.234375 1.625q-0.671875 0.65625 -1.5 0.984375q-0.828125 0.328125 -1.859375 0.328125q-0.234375 0 -0.53125 -0.03125q-0.28125 -0.03125 -0.59375 -0.078125l0 -2.015625q0.125 0.015625 0.265625 0.03125q0.15625 0.03125 0.328125 0.046875q0.171875 0.015625 0.328125 0.015625q0.171875 0.015625 0.328125 0.015625q0.40625 0 0.75 -0.15625q0.359375 -0.15625 0.65625 -0.4375q0.296875 -0.265625 0.53125 -0.65625q0.25 -0.390625 0.4375 -0.84375l-3.9375 -9.921875l2.65625 0l2.0625 5.625l0.625 1.8125l0.59375 -1.734375l2.09375 -5.703125l2.546875 0l-3.46875 8.84375zm13.949219 -4.0625q0 1.375 -0.390625 2.375q-0.375 0.984375 -1.0625 1.65625q-0.6875 0.65625 -1.625 0.96875q-0.9375 0.3125 -2.046875 0.3125q-0.375 0 -0.75 -0.046875q-0.359375 -0.046875 -0.671875 -0.125l0 3.875l-2.375 0l0 -13.796875l2.0625 0l0.0625 1.46875q0.296875 -0.390625 0.625 -0.703125q0.328125 -0.3125 0.703125 -0.53125q0.390625 -0.21875 0.828125 -0.328125q0.4375 -0.125 0.984375 -0.125q0.875 0 1.5625 0.359375q0.6875 0.34375 1.140625 1.0q0.46875 0.640625 0.703125 1.5625q0.25 0.921875 0.25 2.078125zm-2.5 0.09375q0 -0.8125 -0.125 -1.390625q-0.109375 -0.578125 -0.328125 -0.9375q-0.21875 -0.375 -0.546875 -0.546875q-0.3125 -0.171875 -0.71875 -0.171875q-0.609375 0 -1.15625 0.484375q-0.546875 0.484375 -1.171875 1.328125l0 4.34375q0.296875 0.09375 0.703125 0.171875q0.421875 0.0625 0.84375 0.0625q0.5625 0 1.03125 -0.234375q0.46875 -0.234375 0.796875 -0.65625q0.328125 -0.4375 0.5 -1.046875q0.171875 -0.625 0.171875 -1.40625zm13.214844 -0.671875q0 0.234375 -0.015625 0.625q-0.015625 0.390625 -0.046875 0.734375l-6.515625 0q0 0.65625 0.1875 1.15625q0.203125 0.5 0.5625 0.84375q0.375 0.328125 0.890625 0.5q0.515625 0.171875 1.140625 0.171875q0.71875 0 1.546875 -0.109375q0.828125 -0.109375 1.71875 -0.359375l0 1.890625q-0.390625 0.109375 -0.84375 0.203125q-0.4375 0.078125 -0.90625 0.140625q-0.46875 0.078125 -0.953125 0.109375q-0.46875 0.03125 -0.921875 0.03125q-1.140625 0 -2.046875 -0.3125q-0.890625 -0.328125 -1.515625 -0.953125q-0.625 -0.640625 -0.953125 -1.5625q-0.328125 -0.921875 -0.328125 -2.140625q0 -1.21875 0.328125 -2.203125q0.328125 -1.0 0.9375 -1.703125q0.609375 -0.703125 1.46875 -1.09375q0.859375 -0.390625 1.9375 -0.390625q1.046875 0 1.859375 0.328125q0.8125 0.328125 1.359375 0.921875q0.546875 0.578125 0.828125 1.390625q0.28125 0.8125 0.28125 1.78125zm-2.421875 -0.34375q0.015625 -0.59375 -0.140625 -1.015625q-0.15625 -0.4375 -0.4375 -0.71875q-0.265625 -0.296875 -0.625 -0.421875q-0.34375 -0.140625 -0.765625 -0.140625q-0.890625 0 -1.46875 0.609375q-0.578125 0.59375 -0.6875 1.6875l4.125 0zm24.710938 1.015625q0 1.171875 -0.34375 2.15625q-0.328125 0.96875 -0.953125 1.671875q-0.625 0.6875 -1.53125 1.0625q-0.90625 0.375 -2.0625 0.375q-1.109375 0 -1.984375 -0.3125q-0.859375 -0.328125 -1.46875 -0.96875q-0.609375 -0.640625 -0.9375 -1.59375q-0.3125 -0.96875 -0.3125 -2.25q0 -1.171875 0.328125 -2.140625q0.34375 -0.96875 0.96875 -1.65625q0.640625 -0.6875 1.546875 -1.0625q0.90625 -0.375 2.046875 -0.375q1.109375 0 1.984375 0.328125q0.875 0.328125 1.46875 0.984375q0.609375 0.640625 0.921875 1.59375q0.328125 0.9375 0.328125 2.1875zm-2.484375 0.0625q0 -1.546875 -0.578125 -2.3125q-0.578125 -0.78125 -1.71875 -0.78125q-0.625 0 -1.0625 0.25q-0.4375 0.234375 -0.71875 0.671875q-0.28125 0.421875 -0.421875 0.984375q-0.125 0.5625 -0.125 1.203125q0 1.5625 0.625 2.34375q0.625 0.78125 1.703125 0.78125q0.59375 0 1.03125 -0.234375q0.453125 -0.234375 0.71875 -0.65625q0.28125 -0.4375 0.40625 -1.0q0.140625 -0.578125 0.140625 -1.25zm13.449219 -6.796875q-0.4375 -0.140625 -1.03125 -0.21875q-0.578125 -0.09375 -1.203125 -0.09375q-0.40625 0 -0.78125 0.109375q-0.359375 0.109375 -0.625 0.359375q-0.25 0.234375 -0.40625 0.609375q-0.15625 0.375 -0.15625 0.921875l0 1.59375l3.90625 0l0 1.859375l-3.90625 0l0 6.640625l-2.40625 0l0 -6.640625l-2.875 0l0 -1.859375l2.875 0l0 -1.5q0 -1.0625 0.3125 -1.8125q0.3125 -0.75 0.875 -1.234375q0.5625 -0.484375 1.34375 -0.703125q0.796875 -0.234375 1.765625 -0.234375q0.65625 0 1.234375 0.09375q0.578125 0.078125 1.078125 0.1875l0 1.921875zm-10.265625 1.859375l0 0z" fill-rule="nonzero"/><path fill="#000000" fill-opacity="0.0" d="m120.01312 107.95801l200.25198 0" fill-rule="evenodd"/><path stroke="#ffffff" stroke-width="2.0" stroke-linejoin="round" stroke-linecap="butt" d="m132.01312 107.95801l188.25198 0" fill-rule="evenodd"/><path fill="#ffffff" stroke="#ffffff" stroke-width="2.0" stroke-linecap="butt" d="m132.01312 104.65454l-9.076195 3.3034668l9.076195 3.3034592z" fill-rule="evenodd"/><path fill="#000000" fill-opacity="0.0" d="m143.87796 99.95801l152.53543 0l0 43.62204l-152.53543 0z" fill-rule="evenodd"/><path fill="#f3f3f3" d="m160.08109 115.51738q0 0.328125 -0.125 0.609375q-0.109375 0.28125 -0.328125 0.5q-0.203125 0.203125 -0.484375 0.328125q-0.28125 0.125 -0.625 0.125q-0.328125 0 -0.625 -0.125q-0.28125 -0.125 -0.5 -0.328125q-0.203125 -0.21875 -0.328125 -0.5q-0.109375 -0.28125 -0.109375 -0.609375q0 -0.3125 0.109375 -0.59375q0.125 -0.296875 0.328125 -0.5q0.21875 -0.21875 0.5 -0.34375q0.296875 -0.125 0.625 -0.125q0.34375 0 0.625 0.125q0.28125 0.125 0.484375 0.34375q0.21875 0.203125 0.328125 0.5q0.125 0.28125 0.125 0.59375zm-2.640625 4.578125l-2.796875 0l0 -1.859375l5.234375 0l0 8.0625l2.859375 0l0 1.859375l-8.4375 0l0 -1.859375l3.140625 0l0 -6.203125zm15.980469 5.140625q0 0.84375 -0.375 1.453125q-0.375 0.59375 -1.0 0.96875q-0.625 0.375 -1.40625 0.546875q-0.78125 0.171875 -1.609375 0.171875q-1.09375 0 -1.96875 -0.109375q-0.875 -0.09375 -1.65625 -0.28125l0 -2.15625q0.90625 0.390625 1.8125 0.5625q0.921875 0.15625 1.734375 0.15625q0.9375 0 1.390625 -0.296875q0.46875 -0.296875 0.46875 -0.765625q0 -0.234375 -0.09375 -0.40625q-0.09375 -0.1875 -0.359375 -0.359375q-0.265625 -0.171875 -0.765625 -0.34375q-0.484375 -0.1875 -1.28125 -0.421875q-0.71875 -0.203125 -1.28125 -0.453125q-0.546875 -0.265625 -0.90625 -0.609375q-0.359375 -0.359375 -0.546875 -0.8125q-0.171875 -0.46875 -0.171875 -1.09375q0 -0.609375 0.265625 -1.140625q0.28125 -0.546875 0.8125 -0.953125q0.546875 -0.40625 1.359375 -0.640625q0.8125 -0.234375 1.890625 -0.234375q0.9375 0 1.65625 0.109375q0.734375 0.09375 1.28125 0.203125l0 1.953125q-0.84375 -0.28125 -1.59375 -0.390625q-0.75 -0.109375 -1.484375 -0.109375q-0.734375 0 -1.171875 0.265625q-0.4375 0.25 -0.4375 0.71875q0 0.234375 0.078125 0.40625q0.09375 0.171875 0.34375 0.34375q0.265625 0.171875 0.71875 0.359375q0.46875 0.171875 1.234375 0.375q0.859375 0.25 1.4375 0.53125q0.59375 0.28125 0.953125 0.640625q0.359375 0.34375 0.515625 0.796875q0.15625 0.4375 0.15625 1.015625zm20.023438 2.921875l-0.0625 -1.296875q-0.3125 0.328125 -0.65625 0.609375q-0.328125 0.28125 -0.75 0.484375q-0.40625 0.203125 -0.890625 0.3125q-0.484375 0.109375 -1.0625 0.109375q-0.75 0 -1.328125 -0.21875q-0.578125 -0.21875 -0.96875 -0.625q-0.390625 -0.40625 -0.59375 -0.96875q-0.203125 -0.5625 -0.203125 -1.25q0 -0.703125 0.296875 -1.296875q0.296875 -0.59375 0.90625 -1.015625q0.609375 -0.4375 1.515625 -0.671875q0.921875 -0.25 2.15625 -0.25l1.296875 0l0 -0.609375q0 -0.375 -0.109375 -0.671875q-0.109375 -0.3125 -0.34375 -0.53125q-0.234375 -0.21875 -0.625 -0.328125q-0.375 -0.125 -0.9375 -0.125q-0.875 0 -1.734375 0.203125q-0.84375 0.203125 -1.640625 0.5625l0 -1.90625q0.703125 -0.28125 1.640625 -0.46875q0.9375 -0.1875 1.9375 -0.1875q1.109375 0 1.890625 0.21875q0.796875 0.203125 1.296875 0.625q0.515625 0.421875 0.765625 1.046875q0.25 0.625 0.25 1.46875l0 6.78125l-2.046875 0zm-0.34375 -4.390625l-1.453125 0q-0.609375 0 -1.03125 0.125q-0.40625 0.109375 -0.671875 0.328125q-0.265625 0.203125 -0.390625 0.46875q-0.125 0.265625 -0.125 0.5625q0 0.609375 0.390625 0.9375q0.390625 0.3125 1.0625 0.3125q0.5 0 1.03125 -0.359375q0.546875 -0.375 1.1875 -1.046875l0 -1.328125zm24.304688 4.296875q-0.65625 0.140625 -1.3125 0.21875q-0.640625 0.09375 -1.234375 0.09375q-0.96875 0 -1.6875 -0.203125q-0.703125 -0.203125 -1.171875 -0.625q-0.453125 -0.421875 -0.671875 -1.0625q-0.21875 -0.65625 -0.21875 -1.546875l0 -4.84375l-2.671875 0l0 -1.859375l2.671875 0l0 -2.546875l2.4375 -0.625l0 3.171875l3.859375 0l0 1.859375l-3.859375 0l0 4.65625q0 0.859375 0.390625 1.296875q0.390625 0.421875 1.3125 0.421875q0.578125 0 1.125 -0.09375q0.5625 -0.09375 1.03125 -0.21875l0 1.90625zm8.777344 -0.984375q-0.515625 1.28125 -1.078125 2.25q-0.5625 0.984375 -1.234375 1.625q-0.671875 0.65625 -1.5 0.984375q-0.828125 0.328125 -1.859375 0.328125q-0.234375 0 -0.53125 -0.03125q-0.28125 -0.03125 -0.59375 -0.078125l0 -2.015625q0.125 0.015625 0.265625 0.03125q0.15625 0.03125 0.328125 0.046875q0.171875 0.015625 0.328125 0.015625q0.171875 0.015625 0.328125 0.015625q0.40625 0 0.75 -0.15625q0.359375 -0.15625 0.65625 -0.4375q0.296875 -0.265625 0.53125 -0.65625q0.25 -0.390625 0.4375 -0.84375l-3.9375 -9.921875l2.65625 0l2.0625 5.625l0.625 1.8125l0.59375 -1.734375l2.09375 -5.703125l2.546875 0l-3.46875 8.84375zm13.949219 -4.0625q0 1.375 -0.390625 2.375q-0.375 0.984375 -1.0625 1.65625q-0.6875 0.65625 -1.625 0.96875q-0.9375 0.3125 -2.046875 0.3125q-0.375 0 -0.75 -0.046875q-0.359375 -0.046875 -0.671875 -0.125l0 3.875l-2.375 0l0 -13.796875l2.0625 0l0.0625 1.46875q0.296875 -0.390625 0.625 -0.703125q0.328125 -0.3125 0.703125 -0.53125q0.390625 -0.21875 0.828125 -0.328125q0.4375 -0.125 0.984375 -0.125q0.875 0 1.5625 0.359375q0.6875 0.34375 1.140625 1.0q0.46875 0.640625 0.703125 1.5625q0.25 0.921875 0.25 2.078125zm-2.5 0.09375q0 -0.8125 -0.125 -1.390625q-0.109375 -0.578125 -0.328125 -0.9375q-0.21875 -0.375 -0.546875 -0.546875q-0.3125 -0.171875 -0.71875 -0.171875q-0.609375 0 -1.15625 0.484375q-0.546875 0.484375 -1.171875 1.328125l0 4.34375q0.296875 0.09375 0.703125 0.171875q0.421875 0.0625 0.84375 0.0625q0.5625 0 1.03125 -0.234375q0.46875 -0.234375 0.796875 -0.65625q0.328125 -0.4375 0.5 -1.046875q0.171875 -0.625 0.171875 -1.40625zm13.214844 -0.671875q0 0.234375 -0.015625 0.625q-0.015625 0.390625 -0.046875 0.734375l-6.515625 0q0 0.65625 0.1875 1.15625q0.203125 0.5 0.5625 0.84375q0.375 0.328125 0.890625 0.5q0.515625 0.171875 1.140625 0.171875q0.71875 0 1.546875 -0.109375q0.828125 -0.109375 1.71875 -0.359375l0 1.890625q-0.390625 0.109375 -0.84375 0.203125q-0.4375 0.078125 -0.90625 0.140625q-0.46875 0.078125 -0.953125 0.109375q-0.46875 0.03125 -0.921875 0.03125q-1.140625 0 -2.046875 -0.3125q-0.890625 -0.328125 -1.515625 -0.953125q-0.625 -0.640625 -0.953125 -1.5625q-0.328125 -0.921875 -0.328125 -2.140625q0 -1.21875 0.328125 -2.203125q0.328125 -1.0 0.9375 -1.703125q0.609375 -0.703125 1.46875 -1.09375q0.859375 -0.390625 1.9375 -0.390625q1.046875 0 1.859375 0.328125q0.8125 0.328125 1.359375 0.921875q0.546875 0.578125 0.828125 1.390625q0.28125 0.8125 0.28125 1.78125zm-2.421875 -0.34375q0.015625 -0.59375 -0.140625 -1.015625q-0.15625 -0.4375 -0.4375 -0.71875q-0.265625 -0.296875 -0.625 -0.421875q-0.34375 -0.140625 -0.765625 -0.140625q-0.890625 0 -1.46875 0.609375q-0.578125 0.59375 -0.6875 1.6875l4.125 0zm24.710938 1.015625q0 1.171875 -0.34375 2.15625q-0.328125 0.96875 -0.953125 1.671875q-0.625 0.6875 -1.53125 1.0625q-0.90625 0.375 -2.0625 0.375q-1.109375 0 -1.984375 -0.3125q-0.859375 -0.328125 -1.46875 -0.96875q-0.609375 -0.640625 -0.9375 -1.59375q-0.3125 -0.96875 -0.3125 -2.25q0 -1.171875 0.328125 -2.140625q0.34375 -0.96875 0.96875 -1.65625q0.640625 -0.6875 1.546875 -1.0625q0.90625 -0.375 2.046875 -0.375q1.109375 0 1.984375 0.328125q0.875 0.328125 1.46875 0.984375q0.609375 0.640625 0.921875 1.59375q0.328125 0.9375 0.328125 2.1875zm-2.484375 0.0625q0 -1.546875 -0.578125 -2.3125q-0.578125 -0.78125 -1.71875 -0.78125q-0.625 0 -1.0625 0.25q-0.4375 0.234375 -0.71875 0.671875q-0.28125 0.421875 -0.421875 0.984375q-0.125 0.5625 -0.125 1.203125q0 1.5625 0.625 2.34375q0.625 0.78125 1.703125 0.78125q0.59375 0 1.03125 -0.234375q0.453125 -0.234375 0.71875 -0.65625q0.28125 -0.4375 0.40625 -1.0q0.140625 -0.578125 0.140625 -1.25zm13.449219 -6.796875q-0.4375 -0.140625 -1.03125 -0.21875q-0.578125 -0.09375 -1.203125 -0.09375q-0.40625 0 -0.78125 0.109375q-0.359375 0.109375 -0.625 0.359375q-0.25 0.234375 -0.40625 0.609375q-0.15625 0.375 -0.15625 0.921875l0 1.59375l3.90625 0l0 1.859375l-3.90625 0l0 6.640625l-2.40625 0l0 -6.640625l-2.875 0l0 -1.859375l2.875 0l0 -1.5q0 -1.0625 0.3125 -1.8125q0.3125 -0.75 0.875 -1.234375q0.5625 -0.484375 1.34375 -0.703125q0.796875 -0.234375 1.765625 -0.234375q0.65625 0 1.234375 0.09375q0.578125 0.078125 1.078125 0.1875l0 1.921875zm-10.265625 1.859375l0 0z" fill-rule="nonzero"/></g></svg>