<svg version="1.1" viewBox="0.0 0.0 348.0 295.0" fill="none" stroke="none" stroke-linecap="square" stroke-miterlimit="10" width="348" height="295" xmlns:xlink="http://www.w3.org/1999/xlink" xmlns="http://www.w3.org/2000/svg"><path fill="#ffffff" d="M0 0L348.0 0L348.0 295.0L0 295.0L0 0Z" fill-rule="nonzero"/><path fill="#4285f4" d="M174.0 48.583332C237.97298 48.583332 289.83334 100.44368 289.83334 164.41667L174.0 164.41667Z" fill-rule="nonzero"/><path fill="#ff6d01" d="M148.22466 51.48752C156.68062 49.5575 165.32658 48.583332 174.0 48.583332L174.0 164.41667Z" fill-rule="nonzero"/><path fill="#34a853" d="M61.07085 190.192C46.83552 127.82296 85.85561 65.72285 148.22466 51.48752L174.0 164.41667Z" fill-rule="nonzero"/><path fill="#fbbc04" d="M101.7791 254.97882C81.262924 238.6177 66.91006 215.77525 61.07085 190.192L174.0 164.41667Z" fill-rule="nonzero"/><path fill="#ea4335" d="M289.83334 164.41667C289.83334 208.91135 264.34653 249.47337 224.2582 268.7789C184.16988 288.0844 136.56644 282.7208 101.7791 254.97882L174.0 164.41667Z" fill-rule="nonzero"/><path fill="#9e9e9e" d="M15.25 74.31771L16.3125 74.177086Q16.484375 75.06771 16.921875 75.47396Q17.359375 75.864586 17.984375 75.864586Q18.734375 75.864586 19.25 75.34896Q19.765625 74.833336 19.765625 74.06771Q19.765625 73.34896 19.28125 72.88021Q18.8125 72.395836 18.078125 72.395836Q17.78125 72.395836 17.328125 72.520836L17.453125 71.583336Q17.5625 71.59896 17.625 71.59896Q18.296875 71.59896 18.828125 71.25521Q19.375 70.895836 19.375 70.16146Q19.375 69.583336 18.984375 69.208336Q18.59375 68.81771 17.96875 68.81771Q17.359375 68.81771 16.9375 69.208336Q16.53125 69.59896 16.421875 70.364586L15.359375 70.177086Q15.546875 69.13021 16.234375 68.552086Q16.921875 67.958336 17.9375 67.958336Q18.640625 67.958336 19.234375 68.270836Q19.828125 68.56771 20.140625 69.083336Q20.453125 69.59896 20.453125 70.19271Q20.453125 70.739586 20.15625 71.208336Q19.859375 71.66146 19.28125 71.927086Q20.03125 72.09896 20.453125 72.66146Q20.875 73.208336 20.875 74.052086Q20.875 75.177086 20.046875 75.958336Q19.234375 76.739586 17.984375 76.739586Q16.859375 76.739586 16.109375 76.06771Q15.359375 75.38021 15.25 74.31771ZM22.84375 76.583336L22.84375 75.38021L24.046875 75.38021L24.046875 76.583336L22.84375 76.583336ZM30.71875 70.09896L29.671875 70.177086Q29.53125 69.552086 29.28125 69.270836Q28.84375 68.81771 28.21875 68.81771Q27.71875 68.81771 27.328125 69.09896Q26.84375 69.47396 26.546875 70.177086Q26.265625 70.864586 26.25 72.145836Q26.625 71.56771 27.171875 71.28646Q27.734375 71.00521 28.34375 71.00521Q29.390625 71.00521 30.125 71.78646Q30.875 72.56771 30.875 73.78646Q30.875 74.59896 30.515625 75.302086Q30.171875 75.989586 29.5625 76.364586Q28.953125 76.72396 28.1875 76.72396Q26.859375 76.72396 26.03125 75.75521Q25.203125 74.78646 25.203125 72.56771Q25.203125 70.06771 26.125 68.94271Q26.921875 67.958336 28.28125 67.958336Q29.296875 67.958336 29.9375 68.53646Q30.59375 69.09896 30.71875 70.09896ZM26.421875 73.802086Q26.421875 74.34896 26.640625 74.84896Q26.875 75.333336 27.28125 75.59896Q27.703125 75.864586 28.171875 75.864586Q28.828125 75.864586 29.3125 75.333336Q29.796875 74.78646 29.796875 73.864586Q29.796875 72.97396 29.3125 72.458336Q28.84375 71.94271 28.125 71.94271Q27.40625 71.94271 26.90625 72.458336Q26.421875 72.97396 26.421875 73.802086ZM32.453125 70.052086Q32.453125 69.13021 32.90625 68.489586Q33.375 67.84896 34.25 67.84896Q35.0625 67.84896 35.59375 68.427086Q36.125 69.00521 36.125 70.114586Q36.125 71.208336 35.578125 71.802086Q35.046875 72.38021 34.265625 72.38021Q33.484375 72.38021 32.96875 71.802086Q32.453125 71.22396 32.453125 70.052086ZM34.28125 68.56771Q33.890625 68.56771 33.625 68.91146Q33.375 69.25521 33.375 70.16146Q33.375 70.989586 33.625 71.333336Q33.890625 71.66146 34.28125 71.66146Q34.6875 71.66146 34.9375 71.31771Q35.203125 70.97396 35.203125 70.083336Q35.203125 69.239586 34.9375 68.91146Q34.671875 68.56771 34.28125 68.56771ZM34.28125 76.895836L38.984375 67.84896L39.84375 67.84896L35.15625 76.895836L34.28125 76.895836ZM38.0 74.56771Q38.0 73.645836 38.453125 73.00521Q38.921875 72.364586 39.8125 72.364586Q40.625 72.364586 41.15625 72.94271Q41.6875 73.50521 41.6875 74.63021Q41.6875 75.72396 41.140625 76.31771Q40.609375 76.895836 39.8125 76.895836Q39.046875 76.895836 38.515625 76.31771Q38.0 75.739586 38.0 74.56771ZM39.84375 73.083336Q39.4375 73.083336 39.171875 73.427086Q38.921875 73.770836 38.921875 74.677086Q38.921875 75.489586 39.1875 75.833336Q39.453125 76.177086 39.84375 76.177086Q40.234375 76.177086 40.5 75.833336Q40.765625 75.489586 40.765625 74.583336Q40.765625 73.75521 40.5 73.427086Q40.234375 73.083336 39.84375 73.083336Z" fill-rule="nonzero"/><path stroke="#757575" stroke-width="1.0" stroke-linecap="butt" d="M14.75 64.083336L52.166668 64.083336L161.67924 55.066917" fill-rule="nonzero"/><path fill="#9e9e9e" d="M163.67924 55.066917C163.67924 53.96235 162.78381 53.066917 161.67924 53.066917C160.57468 53.066917 159.67924 53.96235 159.67924 55.066917C159.67924 56.17149 160.57468 57.066917 161.67924 57.066917C162.78381 57.066917 163.67924 56.17149 163.67924 55.066917" fill-rule="nonzero"/><path fill="#9e9e9e" d="M20.796875 117.35535L20.796875 118.37097L15.109375 118.37097Q15.109375 117.99597 15.234375 117.6366Q15.453125 117.05847 15.921875 116.49597Q16.40625 115.93347 17.3125 115.1991Q18.71875 114.04285 19.203125 113.37097Q19.703125 112.6991 19.703125 112.10535Q19.703125 111.48035 19.25 111.05847Q18.796875 110.62097 18.078125 110.62097Q17.3125 110.62097 16.859375 111.0741Q16.40625 111.52722 16.390625 112.33972L15.3125 112.23035Q15.421875 111.0116 16.140625 110.3866Q16.875 109.74597 18.109375 109.74597Q19.34375 109.74597 20.0625 110.43347Q20.78125 111.12097 20.78125 112.1366Q20.78125 112.65222 20.5625 113.15222Q20.359375 113.6366 19.859375 114.1991Q19.375 114.74597 18.25 115.6991Q17.296875 116.49597 17.015625 116.79285Q16.75 117.0741 16.578125 117.35535L20.796875 117.35535ZM22.25 116.12097L23.359375 116.02722Q23.484375 116.83972 23.921875 117.24597Q24.375 117.65222 25.015625 117.65222Q25.765625 117.65222 26.296875 117.0741Q26.828125 116.49597 26.828125 115.55847Q26.828125 114.65222 26.3125 114.1366Q25.8125 113.60535 24.984375 113.60535Q24.484375 113.60535 24.0625 113.83972Q23.65625 114.0741 23.421875 114.43347L22.4375 114.30847L23.265625 109.90222L27.546875 109.90222L27.546875 110.90222L24.109375 110.90222L23.65625 113.21472Q24.421875 112.66785 25.265625 112.66785Q26.390625 112.66785 27.15625 113.4491Q27.9375 114.23035 27.9375 115.46472Q27.9375 116.62097 27.265625 117.48035Q26.4375 118.5116 25.015625 118.5116Q23.84375 118.5116 23.09375 117.85535Q22.359375 117.1991 22.25 116.12097ZM29.84375 118.37097L29.84375 117.16785L31.046875 117.16785L31.046875 118.37097L29.84375 118.37097ZM32.25 114.1366Q32.25 112.60535 32.5625 111.68347Q32.875 110.74597 33.484375 110.24597Q34.109375 109.74597 35.046875 109.74597Q35.734375 109.74597 36.25 110.02722Q36.78125 110.30847 37.125 110.83972Q37.46875 111.35535 37.65625 112.10535Q37.84375 112.85535 37.84375 114.1366Q37.84375 115.65222 37.53125 116.5741Q37.234375 117.49597 36.609375 118.0116Q36.0 118.5116 35.046875 118.5116Q33.8125 118.5116 33.09375 117.62097Q32.25 116.55847 32.25 114.1366ZM33.328125 114.1366Q33.328125 116.24597 33.828125 116.9491Q34.328125 117.65222 35.046875 117.65222Q35.78125 117.65222 36.265625 116.9491Q36.765625 116.24597 36.765625 114.1366Q36.765625 112.0116 36.265625 111.3241Q35.78125 110.62097 35.03125 110.62097Q34.3125 110.62097 33.875 111.23035Q33.328125 112.0116 33.328125 114.1366ZM39.453125 111.83972Q39.453125 110.91785 39.90625 110.27722Q40.375 109.6366 41.25 109.6366Q42.0625 109.6366 42.59375 110.21472Q43.125 110.79285 43.125 111.90222Q43.125 112.99597 42.578125 113.58972Q42.046875 114.16785 41.265625 114.16785Q40.484375 114.16785 39.96875 113.58972Q39.453125 113.0116 39.453125 111.83972ZM41.28125 110.35535Q40.890625 110.35535 40.625 110.6991Q40.375 111.04285 40.375 111.9491Q40.375 112.77722 40.625 113.12097Q40.890625 113.4491 41.28125 113.4491Q41.6875 113.4491 41.9375 113.10535Q42.203125 112.7616 42.203125 111.87097Q42.203125 111.02722 41.9375 110.6991Q41.671875 110.35535 41.28125 110.35535ZM41.28125 118.68347L45.984375 109.6366L46.84375 109.6366L42.15625 118.68347L41.28125 118.68347ZM45.0 116.35535Q45.0 115.43347 45.453125 114.79285Q45.921875 114.15222 46.8125 114.15222Q47.625 114.15222 48.15625 114.73035Q48.6875 115.29285 48.6875 116.41785Q48.6875 117.5116 48.140625 118.10535Q47.609375 118.68347 46.8125 118.68347Q46.046875 118.68347 45.515625 118.10535Q45.0 117.52722 45.0 116.35535ZM46.84375 114.87097Q46.4375 114.87097 46.171875 115.21472Q45.921875 115.55847 45.921875 116.46472Q45.921875 117.27722 46.1875 117.62097Q46.453125 117.96472 46.84375 117.96472Q47.234375 117.96472 47.5 117.62097Q47.765625 117.27722 47.765625 116.37097Q47.765625 115.54285 47.5 115.21472Q47.234375 114.87097 46.84375 114.87097Z" fill-rule="nonzero"/><path stroke="#757575" stroke-width="1.0" stroke-linecap="butt" d="M14.75 105.87097L52.166668 105.87097L80.82506 105.87097" fill-rule="nonzero"/><path fill="#9e9e9e" d="M82.82506 105.87097C82.82506 104.7664 81.92963 103.87097 80.82506 103.87097C79.72049 103.87097 78.82506 104.7664 78.82506 105.87097C78.82506 106.97554 79.72049 107.87097 80.82506 107.87097C81.92963 107.87097 82.82506 106.97554 82.82506 105.87097" fill-rule="nonzero"/><path fill="#9e9e9e" d="M19.21875 235.46236L18.171875 235.46236L18.171875 228.7436Q17.78125 229.10298 17.15625 229.47798Q16.546875 229.83736 16.0625 230.00923L16.0625 228.9936Q16.9375 228.57173 17.59375 227.9936Q18.265625 227.39986 18.546875 226.83736L19.21875 226.83736L19.21875 235.46236ZM22.25 231.22798Q22.25 229.69673 22.5625 228.77486Q22.875 227.83736 23.484375 227.33736Q24.109375 226.83736 25.046875 226.83736Q25.734375 226.83736 26.25 227.1186Q26.78125 227.39986 27.125 227.9311Q27.46875 228.44673 27.65625 229.19673Q27.84375 229.94673 27.84375 231.22798Q27.84375 232.7436 27.53125 233.66548Q27.234375 234.58736 26.609375 235.10298Q26.0 235.60298 25.046875 235.60298Q23.8125 235.60298 23.09375 234.71236Q22.25 233.64986 22.25 231.22798ZM23.328125 231.22798Q23.328125 233.33736 23.828125 234.04048Q24.328125 234.7436 25.046875 234.7436Q25.78125 234.7436 26.265625 234.04048Q26.765625 233.33736 26.765625 231.22798Q26.765625 229.10298 26.265625 228.41548Q25.78125 227.71236 25.03125 227.71236Q24.3125 227.71236 23.875 228.32173Q23.328125 229.10298 23.328125 231.22798ZM29.84375 235.46236L29.84375 234.25923L31.046875 234.25923L31.046875 235.46236L29.84375 235.46236ZM32.3125 227.9936L32.3125 226.97798L37.875 226.97798L37.875 227.8061Q37.0625 228.6811 36.25 230.13423Q35.453125 231.57173 35.015625 233.10298Q34.6875 234.1811 34.609375 235.46236L33.515625 235.46236Q33.53125 234.44673 33.90625 233.00923Q34.296875 231.57173 35.0 230.2436Q35.71875 228.91548 36.53125 227.9936L32.3125 227.9936ZM39.453125 228.9311Q39.453125 228.00923 39.90625 227.3686Q40.375 226.72798 41.25 226.72798Q42.0625 226.72798 42.59375 227.3061Q43.125 227.88423 43.125 228.9936Q43.125 230.08736 42.578125 230.6811Q42.046875 231.25923 41.265625 231.25923Q40.484375 231.25923 39.96875 230.6811Q39.453125 230.10298 39.453125 228.9311ZM41.28125 227.44673Q40.890625 227.44673 40.625 227.79048Q40.375 228.13423 40.375 229.04048Q40.375 229.8686 40.625 230.21236Q40.890625 230.54048 41.28125 230.54048Q41.6875 230.54048 41.9375 230.19673Q42.203125 229.85298 42.203125 228.96236Q42.203125 228.1186 41.9375 227.79048Q41.671875 227.44673 41.28125 227.44673ZM41.28125 235.77486L45.984375 226.72798L46.84375 226.72798L42.15625 235.77486L41.28125 235.77486ZM45.0 233.44673Q45.0 232.52486 45.453125 231.88423Q45.921875 231.2436 46.8125 231.2436Q47.625 231.2436 48.15625 231.82173Q48.6875 232.38423 48.6875 233.50923Q48.6875 234.60298 48.140625 235.19673Q47.609375 235.77486 46.8125 235.77486Q46.046875 235.77486 45.515625 235.19673Q45.0 234.6186 45.0 233.44673ZM46.84375 231.96236Q46.4375 231.96236 46.171875 232.3061Q45.921875 232.64986 45.921875 233.5561Q45.921875 234.3686 46.1875 234.71236Q46.453125 235.0561 46.84375 235.0561Q47.234375 235.0561 47.5 234.71236Q47.765625 234.3686 47.765625 233.46236Q47.765625 232.63423 47.5 232.3061Q47.234375 231.96236 46.84375 231.96236Z" fill-rule="nonzero"/><path stroke="#757575" stroke-width="1.0" stroke-linecap="butt" d="M14.75 222.96236L52.166668 222.96236L80.82506 222.96236" fill-rule="nonzero"/><path fill="#9e9e9e" d="M82.82506 222.96236C82.82506 221.85779 81.92963 220.96236 80.82506 220.96236C79.72049 220.96236 78.82506 221.85779 78.82506 222.96236C78.82506 224.06693 79.72049 224.96236 80.82506 224.96236C81.92963 224.96236 82.82506 224.06693 82.82506 222.96236" fill-rule="nonzero"/><path fill="#9e9e9e" d="M304.29688 98.089836L304.29688 99.10546L298.60938 99.10546Q298.60938 98.73046 298.73438 98.371086Q298.95312 97.79296 299.42188 97.23046Q299.90625 96.66796 300.8125 95.933586Q302.21875 94.777336 302.70312 94.10546Q303.20312 93.433586 303.20312 92.839836Q303.20312 92.214836 302.75 91.79296Q302.29688 91.35546 301.57812 91.35546Q300.8125 91.35546 300.35938 91.808586Q299.90625 92.26171 299.89062 93.07421L298.8125 92.964836Q298.92188 91.746086 299.64062 91.121086Q300.375 90.48046 301.60938 90.48046Q302.84375 90.48046 303.5625 91.16796Q304.28125 91.85546 304.28125 92.871086Q304.28125 93.38671 304.0625 93.88671Q303.85938 94.371086 303.35938 94.933586Q302.875 95.48046 301.75 96.433586Q300.79688 97.23046 300.51562 97.527336Q300.25 97.808586 300.07812 98.089836L304.29688 98.089836ZM305.75 96.85546L306.85938 96.76171Q306.98438 97.57421 307.42188 97.98046Q307.875 98.38671 308.51562 98.38671Q309.26562 98.38671 309.79688 97.808586Q310.32812 97.23046 310.32812 96.29296Q310.32812 95.38671 309.8125 94.871086Q309.3125 94.339836 308.48438 94.339836Q307.98438 94.339836 307.5625 94.57421Q307.15625 94.808586 306.92188 95.16796L305.9375 95.04296L306.76562 90.63671L311.04688 90.63671L311.04688 91.63671L307.60938 91.63671L307.15625 93.94921Q307.92188 93.402336 308.76562 93.402336Q309.89062 93.402336 310.65625 94.183586Q311.4375 94.964836 311.4375 96.19921Q311.4375 97.35546 310.76562 98.214836Q309.9375 99.246086 308.51562 99.246086Q307.34375 99.246086 306.59375 98.589836Q305.85938 97.933586 305.75 96.85546ZM313.34375 99.10546L313.34375 97.902336L314.54688 97.902336L314.54688 99.10546L313.34375 99.10546ZM315.75 94.871086Q315.75 93.339836 316.0625 92.41796Q316.375 91.48046 316.98438 90.98046Q317.60938 90.48046 318.54688 90.48046Q319.23438 90.48046 319.75 90.76171Q320.28125 91.04296 320.625 91.57421Q320.96875 92.089836 321.15625 92.839836Q321.34375 93.589836 321.34375 94.871086Q321.34375 96.38671 321.03125 97.308586Q320.73438 98.23046 320.10938 98.746086Q319.5 99.246086 318.54688 99.246086Q317.3125 99.246086 316.59375 98.35546Q315.75 97.29296 315.75 94.871086ZM316.82812 94.871086Q316.82812 96.98046 317.32812 97.683586Q317.82812 98.38671 318.54688 98.38671Q319.28125 98.38671 319.76562 97.683586Q320.26562 96.98046 320.26562 94.871086Q320.26562 92.746086 319.76562 92.058586Q319.28125 91.35546 318.53125 91.35546Q317.8125 91.35546 317.375 91.964836Q316.82812 92.746086 316.82812 94.871086ZM322.95312 92.57421Q322.95312 91.652336 323.40625 91.01171Q323.875 90.371086 324.75 90.371086Q325.5625 90.371086 326.09375 90.94921Q326.625 91.527336 326.625 92.63671Q326.625 93.73046 326.07812 94.32421Q325.54688 94.902336 324.76562 94.902336Q323.98438 94.902336 323.46875 94.32421Q322.95312 93.746086 322.95312 92.57421ZM324.78125 91.089836Q324.39062 91.089836 324.125 91.433586Q323.875 91.777336 323.875 92.683586Q323.875 93.51171 324.125 93.85546Q324.39062 94.183586 324.78125 94.183586Q325.1875 94.183586 325.4375 93.839836Q325.70312 93.496086 325.70312 92.60546Q325.70312 91.76171 325.4375 91.433586Q325.17188 91.089836 324.78125 91.089836ZM324.78125 99.41796L329.48438 90.371086L330.34375 90.371086L325.65625 99.41796L324.78125 99.41796ZM328.5 97.089836Q328.5 96.16796 328.95312 95.527336Q329.42188 94.88671 330.3125 94.88671Q331.125 94.88671 331.65625 95.464836Q332.1875 96.027336 332.1875 97.152336Q332.1875 98.246086 331.64062 98.839836Q331.10938 99.41796 330.3125 99.41796Q329.54688 99.41796 329.01562 98.839836Q328.5 98.26171 328.5 97.089836ZM330.34375 95.60546Q329.9375 95.60546 329.67188 95.94921Q329.42188 96.29296 329.42188 97.19921Q329.42188 98.01171 329.6875 98.35546Q329.95312 98.69921 330.34375 98.69921Q330.73438 98.69921 331.0 98.35546Q331.26562 98.01171 331.26562 97.10546Q331.26562 96.277336 331.0 95.94921Q330.73438 95.60546 330.34375 95.60546Z" fill-rule="nonzero"/><path stroke="#757575" stroke-width="1.0" stroke-linecap="butt" d="M333.25 86.60546L295.83334 86.60546L251.8112 86.60546" fill-rule="nonzero"/><path fill="#9e9e9e" d="M253.8112 86.60546C253.8112 85.500885 252.91577 84.60546 251.8112 84.60546C250.70663 84.60546 249.8112 85.500885 249.8112 86.60546C249.8112 87.71003 250.70663 88.60546 251.8112 88.60546C252.91577 88.60546 253.8112 87.71003 253.8112 86.60546" fill-rule="nonzero"/><path fill="#9e9e9e" d="M298.75 273.79517L299.8125 273.65454Q299.98438 274.54517 300.42188 274.95142Q300.85938 275.34204 301.48438 275.34204Q302.23438 275.34204 302.75 274.82642Q303.26562 274.3108 303.26562 273.54517Q303.26562 272.82642 302.78125 272.35767Q302.3125 271.8733 301.57812 271.8733Q301.28125 271.8733 300.82812 271.9983L300.95312 271.0608Q301.0625 271.07642 301.125 271.07642Q301.79688 271.07642 302.32812 270.73267Q302.875 270.3733 302.875 269.63892Q302.875 269.0608 302.48438 268.6858Q302.09375 268.29517 301.46875 268.29517Q300.85938 268.29517 300.4375 268.6858Q300.03125 269.07642 299.92188 269.84204L298.85938 269.65454Q299.04688 268.60767 299.73438 268.02954Q300.42188 267.4358 301.4375 267.4358Q302.14062 267.4358 302.73438 267.7483Q303.32812 268.04517 303.64062 268.5608Q303.95312 269.07642 303.95312 269.67017Q303.95312 270.21704 303.65625 270.6858Q303.35938 271.13892 302.78125 271.40454Q303.53125 271.57642 303.95312 272.13892Q304.375 272.6858 304.375 273.52954Q304.375 274.65454 303.54688 275.4358Q302.73438 276.21704 301.48438 276.21704Q300.35938 276.21704 299.60938 275.54517Q298.85938 274.85767 298.75 273.79517ZM305.75 273.8108L306.85938 273.71704Q306.98438 274.52954 307.42188 274.9358Q307.875 275.34204 308.51562 275.34204Q309.26562 275.34204 309.79688 274.76392Q310.32812 274.1858 310.32812 273.2483Q310.32812 272.34204 309.8125 271.82642Q309.3125 271.29517 308.48438 271.29517Q307.98438 271.29517 307.5625 271.52954Q307.15625 271.76392 306.92188 272.1233L305.9375 271.9983L306.76562 267.59204L311.04688 267.59204L311.04688 268.59204L307.60938 268.59204L307.15625 270.90454Q307.92188 270.35767 308.76562 270.35767Q309.89062 270.35767 310.65625 271.13892Q311.4375 271.92017 311.4375 273.15454Q311.4375 274.3108 310.76562 275.17017Q309.9375 276.20142 308.51562 276.20142Q307.34375 276.20142 306.59375 275.54517Q305.85938 274.88892 305.75 273.8108ZM313.34375 276.0608L313.34375 274.85767L314.54688 274.85767L314.54688 276.0608L313.34375 276.0608ZM315.8125 268.59204L315.8125 267.57642L321.375 267.57642L321.375 268.40454Q320.5625 269.27954 319.75 270.73267Q318.95312 272.17017 318.51562 273.70142Q318.1875 274.77954 318.10938 276.0608L317.01562 276.0608Q317.03125 275.04517 317.40625 273.60767Q317.79688 272.17017 318.5 270.84204Q319.21875 269.51392 320.03125 268.59204L315.8125 268.59204ZM322.95312 269.52954Q322.95312 268.60767 323.40625 267.96704Q323.875 267.32642 324.75 267.32642Q325.5625 267.32642 326.09375 267.90454Q326.625 268.48267 326.625 269.59204Q326.625 270.6858 326.07812 271.27954Q325.54688 271.85767 324.76562 271.85767Q323.98438 271.85767 323.46875 271.27954Q322.95312 270.70142 322.95312 269.52954ZM324.78125 268.04517Q324.39062 268.04517 324.125 268.38892Q323.875 268.73267 323.875 269.63892Q323.875 270.46704 324.125 270.8108Q324.39062 271.13892 324.78125 271.13892Q325.1875 271.13892 325.4375 270.79517Q325.70312 270.45142 325.70312 269.5608Q325.70312 268.71704 325.4375 268.38892Q325.17188 268.04517 324.78125 268.04517ZM324.78125 276.3733L329.48438 267.32642L330.34375 267.32642L325.65625 276.3733L324.78125 276.3733ZM328.5 274.04517Q328.5 273.1233 328.95312 272.48267Q329.42188 271.84204 330.3125 271.84204Q331.125 271.84204 331.65625 272.42017Q332.1875 272.98267 332.1875 274.10767Q332.1875 275.20142 331.64062 275.79517Q331.10938 276.3733 330.3125 276.3733Q329.54688 276.3733 329.01562 275.79517Q328.5 275.21704 328.5 274.04517ZM330.34375 272.5608Q329.9375 272.5608 329.67188 272.90454Q329.42188 273.2483 329.42188 274.15454Q329.42188 274.96704 329.6875 275.3108Q329.95312 275.65454 330.34375 275.65454Q330.73438 275.65454 331.0 275.3108Q331.26562 274.96704 331.26562 274.0608Q331.26562 273.23267 331.0 272.90454Q330.73438 272.5608 330.34375 272.5608Z" fill-rule="nonzero"/><path stroke="#757575" stroke-width="1.0" stroke-linecap="butt" d="M333.25 263.5608L295.83334 263.5608L221.74529 263.5608" fill-rule="nonzero"/><path fill="#9e9e9e" d="M223.74529 263.5608C223.74529 262.4562 222.84985 261.5608 221.74529 261.5608C220.64072 261.5608 219.74529 262.4562 219.74529 263.5608C219.74529 264.66534 220.64072 265.5608 221.74529 265.5608C222.84985 265.5608 223.74529 264.66534 223.74529 263.5608" fill-rule="nonzero"/><path fill="#757575" d="M26.515625 28.734375L28.40625 29.203125Q27.8125 31.546875 26.265625 32.78125Q24.71875 34.0 22.46875 34.0Q20.15625 34.0 18.703125 33.0625Q17.265625 32.109375 16.5 30.328125Q15.75 28.53125 15.75 26.484375Q15.75 24.25 16.59375 22.59375Q17.453125 20.921875 19.03125 20.0625Q20.609375 19.1875 22.5 19.1875Q24.65625 19.1875 26.109375 20.28125Q27.578125 21.375 28.15625 23.359375L26.296875 23.796875Q25.796875 22.234375 24.84375 21.53125Q23.90625 20.8125 22.46875 20.8125Q20.8125 20.8125 19.703125 21.609375Q18.59375 22.390625 18.140625 23.734375Q17.703125 25.0625 17.703125 26.46875Q17.703125 28.296875 18.234375 29.671875Q18.765625 31.03125 19.890625 31.703125Q21.015625 32.375 22.3125 32.375Q23.90625 32.375 25.015625 31.453125Q26.125 30.53125 26.515625 28.734375ZM29.421875 28.5625Q29.421875 25.6875 31.015625 24.296875Q32.359375 23.140625 34.28125 23.140625Q36.421875 23.140625 37.765625 24.546875Q39.125 25.953125 39.125 28.421875Q39.125 30.421875 38.53125 31.578125Q37.9375 32.71875 36.78125 33.359375Q35.640625 33.984375 34.28125 33.984375Q32.09375 33.984375 30.75 32.59375Q29.421875 31.1875 29.421875 28.5625ZM31.21875 28.5625Q31.21875 30.5625 32.078125 31.546875Q32.953125 32.53125 34.28125 32.53125Q35.59375 32.53125 36.453125 31.546875Q37.328125 30.546875 37.328125 28.5Q37.328125 26.578125 36.453125 25.59375Q35.578125 24.59375 34.28125 24.59375Q32.953125 24.59375 32.078125 25.59375Q31.21875 26.578125 31.21875 28.5625ZM41.0625 33.75L41.0625 23.375L42.640625 23.375L42.640625 24.828125Q43.125 24.078125 43.9375 23.609375Q44.75 23.140625 45.78125 23.140625Q46.9375 23.140625 47.671875 23.625Q48.40625 24.09375 48.71875 24.953125Q49.953125 23.140625 51.921875 23.140625Q53.46875 23.140625 54.296875 24.0Q55.125 24.859375 55.125 26.625L55.125 33.75L53.375 33.75L53.375 27.21875Q53.375 26.15625 53.203125 25.703125Q53.03125 25.234375 52.578125 24.953125Q52.140625 24.671875 51.53125 24.671875Q50.4375 24.671875 49.703125 25.40625Q48.984375 26.125 48.984375 27.71875L48.984375 33.75L47.234375 33.75L47.234375 27.015625Q47.234375 25.84375 46.796875 25.265625Q46.375 24.671875 45.390625 24.671875Q44.65625 24.671875 44.015625 25.0625Q43.390625 25.453125 43.109375 26.203125Q42.828125 26.953125 42.828125 28.375L42.828125 33.75L41.0625 33.75ZM57.0625 37.71875L57.0625 23.375L58.671875 23.375L58.671875 24.71875Q59.234375 23.9375 59.9375 23.546875Q60.65625 23.140625 61.671875 23.140625Q63.0 23.140625 64.015625 23.828125Q65.03125 24.515625 65.546875 25.765625Q66.078125 27.0 66.078125 28.484375Q66.078125 30.078125 65.5 31.359375Q64.9375 32.625 63.84375 33.3125Q62.75 33.984375 61.546875 33.984375Q60.671875 33.984375 59.96875 33.609375Q59.28125 33.234375 58.828125 32.671875L58.828125 37.71875L57.0625 37.71875ZM58.65625 28.625Q58.65625 30.625 59.46875 31.578125Q60.28125 32.53125 61.4375 32.53125Q62.609375 32.53125 63.4375 31.546875Q64.28125 30.5625 64.28125 28.46875Q64.28125 26.5 63.453125 25.515625Q62.640625 24.515625 61.515625 24.515625Q60.390625 24.515625 59.515625 25.578125Q58.65625 26.625 58.65625 28.625ZM74.84375 32.46875Q73.859375 33.296875 72.953125 33.640625Q72.046875 33.984375 71.015625 33.984375Q69.3125 33.984375 68.390625 33.15625Q67.46875 32.3125 67.46875 31.015625Q67.46875 30.25 67.8125 29.625Q68.171875 29.0 68.734375 28.625Q69.296875 28.234375 70.0 28.03125Q70.515625 27.90625 71.5625 27.765625Q73.6875 27.515625 74.6875 27.171875Q74.703125 26.8125 74.703125 26.703125Q74.703125 25.640625 74.203125 25.1875Q73.53125 24.59375 72.203125 24.59375Q70.953125 24.59375 70.359375 25.03125Q69.78125 25.46875 69.5 26.578125L67.78125 26.34375Q68.015625 25.234375 68.546875 24.5625Q69.078125 23.875 70.09375 23.515625Q71.109375 23.140625 72.453125 23.140625Q73.78125 23.140625 74.609375 23.453125Q75.4375 23.765625 75.828125 24.25Q76.21875 24.71875 76.375 25.4375Q76.46875 25.890625 76.46875 27.0625L76.46875 29.40625Q76.46875 31.859375 76.578125 32.515625Q76.6875 33.15625 77.03125 33.75L75.1875 33.75Q74.921875 33.203125 74.84375 32.46875ZM74.6875 28.546875Q73.734375 28.9375 71.8125 29.203125Q70.734375 29.359375 70.28125 29.5625Q69.84375 29.75 69.59375 30.125Q69.34375 30.5 69.34375 30.96875Q69.34375 31.671875 69.875 32.140625Q70.40625 32.609375 71.4375 32.609375Q72.453125 32.609375 73.234375 32.171875Q74.03125 31.71875 74.40625 30.953125Q74.6875 30.34375 74.6875 29.1875L74.6875 28.546875ZM79.046875 33.75L79.046875 23.375L80.625 23.375L80.625 24.953125Q81.234375 23.84375 81.75 23.5Q82.265625 23.140625 82.875 23.140625Q83.765625 23.140625 84.6875 23.703125L84.078125 25.34375Q83.4375 24.953125 82.796875 24.953125Q82.21875 24.953125 81.75 25.3125Q81.296875 25.65625 81.09375 26.265625Q80.8125 27.203125 80.8125 28.3125L80.8125 33.75L79.046875 33.75ZM93.171875 30.40625L94.984375 30.640625Q94.5625 32.21875 93.390625 33.109375Q92.234375 33.984375 90.421875 33.984375Q88.15625 33.984375 86.8125 32.59375Q85.484375 31.1875 85.484375 28.65625Q85.484375 26.03125 86.828125 24.59375Q88.171875 23.140625 90.328125 23.140625Q92.40625 23.140625 93.71875 24.5625Q95.046875 25.96875 95.046875 28.546875Q95.046875 28.703125 95.03125 29.015625L87.296875 29.015625Q87.390625 30.71875 88.265625 31.625Q89.140625 32.53125 90.4375 32.53125Q91.40625 32.53125 92.078125 32.03125Q92.765625 31.515625 93.171875 30.40625ZM87.390625 27.5625L93.1875 27.5625Q93.078125 26.265625 92.53125 25.609375Q91.6875 24.59375 90.34375 24.59375Q89.140625 24.59375 88.3125 25.40625Q87.484375 26.203125 87.390625 27.5625ZM103.796875 33.75L103.796875 32.4375Q102.8125 33.984375 100.890625 33.984375Q99.65625 33.984375 98.609375 33.296875Q97.578125 32.609375 97.0 31.390625Q96.4375 30.171875 96.4375 28.578125Q96.4375 27.015625 96.953125 25.75Q97.46875 24.484375 98.5 23.8125Q99.546875 23.140625 100.8125 23.140625Q101.75 23.140625 102.484375 23.546875Q103.21875 23.9375 103.6875 24.5625L103.6875 19.4375L105.421875 19.4375L105.421875 33.75L103.796875 33.75ZM98.234375 28.578125Q98.234375 30.5625 99.078125 31.546875Q99.921875 32.53125 101.0625 32.53125Q102.21875 32.53125 103.015625 31.59375Q103.828125 30.65625 103.828125 28.71875Q103.828125 26.59375 103.0 25.59375Q102.1875 24.59375 100.984375 24.59375Q99.8125 24.59375 99.015625 25.5625Q98.234375 26.515625 98.234375 28.578125ZM117.90625 32.171875L118.15625 33.734375Q117.421875 33.890625 116.828125 33.890625Q115.875 33.890625 115.34375 33.59375Q114.828125 33.28125 114.609375 32.796875Q114.390625 32.296875 114.390625 30.71875L114.390625 24.75L113.109375 24.75L113.109375 23.375L114.390625 23.375L114.390625 20.8125L116.140625 19.75L116.140625 23.375L117.90625 23.375L117.90625 24.75L116.140625 24.75L116.140625 30.8125Q116.140625 31.5625 116.234375 31.78125Q116.328125 31.984375 116.53125 32.125Q116.75 32.25 117.140625 32.25Q117.421875 32.25 117.90625 32.171875ZM119.421875 28.5625Q119.421875 25.6875 121.015625 24.296875Q122.359375 23.140625 124.28125 23.140625Q126.421875 23.140625 127.765625 24.546875Q129.125 25.953125 129.125 28.421875Q129.125 30.421875 128.53125 31.578125Q127.9375 32.71875 126.78125 33.359375Q125.640625 33.984375 124.28125 33.984375Q122.09375 33.984375 120.75 32.59375Q119.421875 31.1875 119.421875 28.5625ZM121.21875 28.5625Q121.21875 30.5625 122.078125 31.546875Q122.953125 32.53125 124.28125 32.53125Q125.59375 32.53125 126.453125 31.546875Q127.328125 30.546875 127.328125 28.5Q127.328125 26.578125 126.453125 25.59375Q125.578125 24.59375 124.28125 24.59375Q122.953125 24.59375 122.078125 25.59375Q121.21875 26.578125 121.21875 28.5625ZM140.90625 32.171875L141.15625 33.734375Q140.42188 33.890625 139.82812 33.890625Q138.875 33.890625 138.34375 33.59375Q137.82812 33.28125 137.60938 32.796875Q137.39062 32.296875 137.39062 30.71875L137.39062 24.75L136.10938 24.75L136.10938 23.375L137.39062 23.375L137.39062 20.8125L139.14062 19.75L139.14062 23.375L140.90625 23.375L140.90625 24.75L139.14062 24.75L139.14062 30.8125Q139.14062 31.5625 139.23438 31.78125Q139.32812 31.984375 139.53125 32.125Q139.75 32.25 140.14062 32.25Q140.42188 32.25 140.90625 32.171875ZM143.0625 33.75L143.0625 19.4375L144.82812 19.4375L144.82812 24.5625Q146.0625 23.140625 147.9375 23.140625Q149.07812 23.140625 149.92188 23.59375Q150.78125 24.046875 151.14062 24.859375Q151.51562 25.65625 151.51562 27.171875L151.51562 33.75L149.76562 33.75L149.76562 27.171875Q149.76562 25.859375 149.1875 25.265625Q148.60938 24.65625 147.57812 24.65625Q146.79688 24.65625 146.09375 25.0625Q145.40625 25.46875 145.10938 26.171875Q144.82812 26.859375 144.82812 28.078125L144.82812 33.75L143.0625 33.75ZM160.17188 30.40625L161.98438 30.640625Q161.5625 32.21875 160.39062 33.109375Q159.23438 33.984375 157.42188 33.984375Q155.15625 33.984375 153.8125 32.59375Q152.48438 31.1875 152.48438 28.65625Q152.48438 26.03125 153.82812 24.59375Q155.17188 23.140625 157.32812 23.140625Q159.40625 23.140625 160.71875 24.5625Q162.04688 25.96875 162.04688 28.546875Q162.04688 28.703125 162.03125 29.015625L154.29688 29.015625Q154.39062 30.71875 155.26562 31.625Q156.14062 32.53125 157.4375 32.53125Q158.40625 32.53125 159.07812 32.03125Q159.76562 31.515625 160.17188 30.40625ZM154.39062 27.5625L160.1875 27.5625Q160.07812 26.265625 159.53125 25.609375Q158.6875 24.59375 157.34375 24.59375Q156.14062 24.59375 155.3125 25.40625Q154.48438 26.203125 154.39062 27.5625ZM170.48438 33.75L170.48438 24.75L168.9375 24.75L168.9375 23.375L170.48438 23.375L170.48438 22.28125Q170.48438 21.234375 170.67188 20.71875Q170.92188 20.03125 171.5625 19.609375Q172.20312 19.1875 173.35938 19.1875Q174.10938 19.1875 175.0 19.359375L174.73438 20.890625Q174.1875 20.796875 173.70312 20.796875Q172.90625 20.796875 172.5625 21.140625Q172.23438 21.484375 172.23438 22.421875L172.23438 23.375L174.26562 23.375L174.26562 24.75L172.23438 24.75L172.23438 33.75L170.48438 33.75ZM176.07812 21.453125L176.07812 19.4375L177.84375 19.4375L177.84375 21.453125L176.07812 21.453125ZM176.07812 33.75L176.07812 23.375L177.84375 23.375L177.84375 33.75L176.07812 33.75ZM180.04688 33.75L180.04688 23.375L181.625 23.375L181.625 24.953125Q182.23438 23.84375 182.75 23.5Q183.26562 23.140625 183.875 23.140625Q184.76562 23.140625 185.6875 23.703125L185.07812 25.34375Q184.4375 24.953125 183.79688 24.953125Q183.21875 24.953125 182.75 25.3125Q182.29688 25.65625 182.09375 26.265625Q181.8125 27.203125 181.8125 28.3125L181.8125 33.75L180.04688 33.75ZM186.35938 30.65625L188.10938 30.375Q188.25 31.421875 188.92188 31.984375Q189.59375 32.53125 190.79688 32.53125Q192.0 32.53125 192.57812 32.046875Q193.17188 31.546875 193.17188 30.890625Q193.17188 30.296875 192.65625 29.953125Q192.29688 29.71875 190.85938 29.359375Q188.92188 28.859375 188.17188 28.515625Q187.4375 28.15625 187.04688 27.53125Q186.65625 26.890625 186.65625 26.125Q186.65625 25.4375 186.96875 24.84375Q187.29688 24.25 187.84375 23.859375Q188.25 23.5625 188.95312 23.359375Q189.67188 23.140625 190.48438 23.140625Q191.70312 23.140625 192.625 23.5Q193.54688 23.84375 193.98438 24.453125Q194.42188 25.046875 194.59375 26.046875L192.875 26.28125Q192.75 25.484375 192.1875 25.046875Q191.625 24.59375 190.60938 24.59375Q189.39062 24.59375 188.875 25.0Q188.35938 25.390625 188.35938 25.921875Q188.35938 26.265625 188.57812 26.546875Q188.78125 26.828125 189.25 27.015625Q189.51562 27.109375 190.79688 27.453125Q192.67188 27.953125 193.40625 28.28125Q194.14062 28.59375 194.5625 29.203125Q194.98438 29.796875 194.98438 30.703125Q194.98438 31.578125 194.46875 32.359375Q193.95312 33.140625 192.98438 33.5625Q192.01562 33.984375 190.79688 33.984375Q188.78125 33.984375 187.71875 33.140625Q186.65625 32.296875 186.35938 30.65625ZM200.90625 32.171875L201.15625 33.734375Q200.42188 33.890625 199.82812 33.890625Q198.875 33.890625 198.34375 33.59375Q197.82812 33.28125 197.60938 32.796875Q197.39062 32.296875 197.39062 30.71875L197.39062 24.75L196.10938 24.75L196.10938 23.375L197.39062 23.375L197.39062 20.8125L199.14062 19.75L199.14062 23.375L200.90625 23.375L200.90625 24.75L199.14062 24.75L199.14062 30.8125Q199.14062 31.5625 199.23438 31.78125Q199.32812 31.984375 199.53125 32.125Q199.75 32.25 200.14062 32.25Q200.42188 32.25 200.90625 32.171875ZM208.42188 28.5625Q208.42188 25.6875 210.01562 24.296875Q211.35938 23.140625 213.28125 23.140625Q215.42188 23.140625 216.76562 24.546875Q218.125 25.953125 218.125 28.421875Q218.125 30.421875 217.53125 31.578125Q216.9375 32.71875 215.78125 33.359375Q214.64062 33.984375 213.28125 33.984375Q211.09375 33.984375 209.75 32.59375Q208.42188 31.1875 208.42188 28.5625ZM210.21875 28.5625Q210.21875 30.5625 211.07812 31.546875Q211.95312 32.53125 213.28125 32.53125Q214.59375 32.53125 215.45312 31.546875Q216.32812 30.546875 216.32812 28.5Q216.32812 26.578125 215.45312 25.59375Q214.57812 24.59375 213.28125 24.59375Q211.95312 24.59375 211.07812 25.59375Q210.21875 26.578125 210.21875 28.5625ZM220.0625 33.75L220.0625 23.375L221.65625 23.375L221.65625 24.859375Q222.79688 23.140625 224.95312 23.140625Q225.89062 23.140625 226.67188 23.484375Q227.46875 23.8125 227.85938 24.359375Q228.25 24.90625 228.40625 25.65625Q228.5 26.15625 228.5 27.375L228.5 33.75L226.73438 33.75L226.73438 27.4375Q226.73438 26.359375 226.53125 25.828125Q226.32812 25.296875 225.79688 24.984375Q225.28125 24.671875 224.57812 24.671875Q223.45312 24.671875 222.64062 25.390625Q221.82812 26.09375 221.82812 28.078125L221.82812 33.75L220.0625 33.75ZM237.17188 30.40625L238.98438 30.640625Q238.5625 32.21875 237.39062 33.109375Q236.23438 33.984375 234.42188 33.984375Q232.15625 33.984375 230.8125 32.59375Q229.48438 31.1875 229.48438 28.65625Q229.48438 26.03125 230.82812 24.59375Q232.17188 23.140625 234.32812 23.140625Q236.40625 23.140625 237.71875 24.5625Q239.04688 25.96875 239.04688 28.546875Q239.04688 28.703125 239.03125 29.015625L231.29688 29.015625Q231.39062 30.71875 232.26562 31.625Q233.14062 32.53125 234.4375 32.53125Q235.40625 32.53125 236.07812 32.03125Q236.76562 31.515625 237.17188 30.40625ZM231.39062 27.5625L237.1875 27.5625Q237.07812 26.265625 236.53125 25.609375Q235.6875 24.59375 234.34375 24.59375Q233.14062 24.59375 232.3125 25.40625Q231.48438 26.203125 231.39062 27.5625ZM244.35938 30.21875Q244.34375 29.875 244.34375 29.703125Q244.34375 28.65625 244.64062 27.90625Q244.85938 27.34375 245.34375 26.765625Q245.6875 26.34375 246.59375 25.546875Q247.51562 24.734375 247.78125 24.265625Q248.0625 23.78125 248.0625 23.21875Q248.0625 22.1875 247.25 21.421875Q246.45312 20.640625 245.29688 20.640625Q244.17188 20.640625 243.42188 21.34375Q242.67188 22.046875 242.4375 23.53125L240.625 23.3125Q240.875 21.3125 242.07812 20.25Q243.28125 19.1875 245.26562 19.1875Q247.375 19.1875 248.625 20.328125Q249.875 21.46875 249.875 23.09375Q249.875 24.03125 249.42188 24.828125Q248.98438 25.609375 247.70312 26.75Q246.84375 27.515625 246.57812 27.875Q246.32812 28.234375 246.1875 28.703125Q246.0625 29.171875 246.04688 30.21875L244.35938 30.21875ZM244.25 33.75L244.25 31.75L246.25 31.75L246.25 33.75L244.25 33.75Z" fill-rule="nonzero"/></svg>